<?xml version="1.0" encoding="UTF-8"?>
<svg width="80px" height="80px" viewBox="0 0 80 80" version="1.1" xmlns="http://www.w3.org/2000/svg" xmlns:xlink="http://www.w3.org/1999/xlink">
    <!-- Generator: Sketch 50.2 (55047) - http://www.bohemiancoding.com/sketch -->
    <title>app-icon-foodpanda</title>
    <desc>Created with Sketch.</desc>
    <defs>
        <path d="M13.9582615,15.280414 C14.600619,15.280414 15.1040893,15.7966443 15.1040893,16.4161218 C15.1040893,17.0355994 14.5832574,17.5518297 13.9582615,17.5518297 C13.3332656,17.5518297 12.8124337,17.0355994 12.8124337,16.4161218 C12.8124337,15.7966443 13.3332656,15.280414 13.9582615,15.280414 Z M13.9582615,15.280414 C14.600619,15.280414 15.1040893,15.7966443 15.1040893,16.4161218 C15.1040893,17.0355994 14.5832574,17.5518297 13.9582615,17.5518297 C13.3332656,17.5518297 12.8124337,17.0355994 12.8124337,16.4161218 C12.8124337,15.7966443 13.3332656,15.280414 13.9582615,15.280414 Z M13.9582615,15.280414 C14.600619,15.280414 15.1040893,15.7966443 15.1040893,16.4161218 C15.1040893,17.0355994 14.5832574,17.5518297 13.9582615,17.5518297 C13.3332656,17.5518297 12.8124337,17.0355994 12.8124337,16.4161218 C12.8124337,15.7966443 13.3332656,15.280414 13.9582615,15.280414 Z M30.3991509,15.280414 C31.0241468,15.280414 31.5449787,15.7966443 31.5449787,16.4161218 C31.5449787,17.0355994 31.0241468,17.5518297 30.3991509,17.5518297 C29.774155,17.5518297 29.2533231,17.0355994 29.2533231,16.4161218 C29.2533231,15.7966443 29.774155,15.280414 30.3991509,15.280414 Z M30.3991509,15.280414 C31.0241468,15.280414 31.5449787,15.7966443 31.5449787,16.4161218 C31.5449787,17.0355994 31.0241468,17.5518297 30.3991509,17.5518297 C29.774155,17.5518297 29.2533231,17.0355994 29.2533231,16.4161218 C29.2533231,15.7966443 29.774155,15.280414 30.3991509,15.280414 Z M13.9582615,15.280414 C14.600619,15.280414 15.1040893,15.7966443 15.1040893,16.4161218 C15.1040893,17.0355994 14.5832574,17.5518297 13.9582615,17.5518297 C13.3332656,17.5518297 12.8124337,17.0355994 12.8124337,16.4161218 C12.8124337,15.7966443 13.3332656,15.280414 13.9582615,15.280414 Z M43.9754555,20.9933649 C43.9928111,21.4063479 44.0101667,21.8193309 43.9928111,22.215105 C43.9928111,26.3449473 42.8296216,30.2166744 40.815765,33.5033418 C40.6595039,33.744248 40.5032427,33.9851604 40.3470426,34.2260666 C40.1560703,34.5185934 39.9477424,34.8111264 39.7393534,35.1036593 C39.3053421,35.6715102 38.8713307,36.2221583 38.3851916,36.7555913 C38.1421526,37.0137065 37.8991136,37.2890305 37.6560746,37.5299368 C37.2741299,37.925717 36.8574742,38.3042822 36.4234262,38.6828535 C36.1977305,38.8721392 35.9894026,39.0614187 35.7637069,39.2334955 C34.2012173,40.4724506 32.4651108,41.5049112 30.6074849,42.2792566 C30.5901232,42.2792566 30.5901232,42.2792566 30.5901232,42.2792566 C29.930404,42.5545806 29.2533231,42.8126958 28.5762422,43.0191842 C26.5276439,43.6558707 24.3227906,44.0000242 22.0484967,44.0000242 C19.7915644,44.0000242 17.5867172,43.6558707 15.4165872,43.0363931 C14.7221447,42.8299047 14.0624254,42.5717895 13.4027123,42.2964655 C13.4027123,42.2964655 13.4027123,42.2964655 13.3853506,42.2964655 C11.5277186,41.5221201 9.79161827,40.4896595 8.22912249,39.2507044 C8.00343293,39.0614187 7.79509893,38.889342 7.56940326,38.7000624 C7.13537971,38.3214911 6.73607951,37.9429198 6.3367732,37.5471457 C6.09371585,37.2890305 5.85066462,37.0309154 5.60760727,36.7728002 C5.1214987,36.2393611 4.68747514,35.6887191 4.25345159,35.1208621 C4.0451176,34.8283353 3.85414528,34.5358023 3.6458174,34.2432755 C3.47220675,34.0023632 3.33331335,33.7614569 3.17706438,33.5205507 C1.16318948,30.2338833 0,26.3621562 0,22.2323139 C0,21.8193309 0,21.4063479 0.0347233509,20.9933649 C0.0347233509,20.700832 0.0520850263,20.4083051 0.086802266,20.1157722 C0.086802266,20.0469427 0.086802266,19.9781132 0.104163941,19.9092776 C0.156248968,19.582333 0.190972319,19.2553884 0.243057345,18.9112349 C0.312497935,18.481043 0.399306313,18.050851 0.486108579,17.6206591 C0.55555528,17.3281262 0.624995871,17.0528083 0.694442573,16.7774842 C0.781244839,16.4161218 0.885414891,16.0891772 0.989578833,15.7450237 L0.989578833,15.7278148 C1.09374277,15.4008701 1.2152745,15.0567166 1.33680012,14.729772 C1.45832574,14.4028213 1.59721303,14.0758766 1.73610032,13.748932 C1.99651934,13.0778339 2.30901728,12.4583563 2.65623856,11.8388787 C2.98609817,11.2194012 3.35067502,10.6343414 3.74998134,10.0492816 C3.71525799,10.0320727 3.68053464,9.98045216 3.6458174,9.94603436 C3.54164734,9.85999598 3.45484508,9.7911665 3.3680367,9.68791922 L3.35067502,9.67071032 C3.31595778,9.63629864 3.28123443,9.58467194 3.24651108,9.55026026 C3.15970882,9.44701298 3.07290044,9.3437657 2.98609817,9.24051842 C2.93401315,9.18889784 2.91665147,9.13727725 2.88192812,9.10285946 C2.77776418,8.98240328 2.6909558,8.84474431 2.60415354,8.70708535 C2.58679186,8.67266755 2.56943019,8.65545865 2.55206851,8.63824976 C2.53470683,8.62104697 2.53470683,8.60383807 2.51735127,8.58662917 C2.51735127,8.58662917 2.51735127,8.56942027 2.49998959,8.55221137 C2.43054289,8.41455241 2.34374063,8.27689345 2.2916556,8.13922837 C2.20484722,7.96715161 2.11804496,7.77786595 2.06595993,7.5713775 C2.03123658,7.50254802 2.01388102,7.43371243 1.99651934,7.34767405 C1.97915767,7.27882623 1.96179599,7.21001508 1.94443431,7.12397059 C1.92707264,7.0379261 1.90971096,6.9518816 1.89234929,6.86583711 C1.85763205,6.72821482 1.84027037,6.59053141 1.8229087,6.43567577 C1.80554702,6.41844242 1.80554702,6.38403685 1.80554702,6.36686462 C1.80554702,6.29799236 1.80554702,6.24641455 1.78818535,6.19477563 C1.78818535,6.05709222 1.77082367,5.88500324 1.77082367,5.7301476 C1.77082367,2.56391808 4.35761553,0 7.56940326,0 C7.74301391,0 7.93398623,0.0172333428 8.10759687,0.0344055745 C8.17704357,0.0516389173 8.26384584,0.0516389173 8.33329254,0.068811149 C8.48954151,0.0860444918 8.6284288,0.103216723 8.76731609,0.137683409 C8.94092673,0.172088984 9.13189905,0.223727901 9.28814802,0.275305707 C9.32287137,0.29253905 9.35758861,0.29253905 9.39231196,0.309711282 C9.53119925,0.361350199 9.67008655,0.412989116 9.80897995,0.464628034 C9.82634163,0.464628034 9.82634163,0.481800265 9.84369719,0.481800265 C10.0173078,0.550672525 10.1735568,0.636655906 10.3298058,0.722700398 C10.4686992,0.791572658 10.5902248,0.87761715 10.7291121,0.96360053 C10.7811971,0.980833873 10.7985588,0.998067216 10.833276,1.03247279 C10.9548078,1.11851728 11.093695,1.20456177 11.197859,1.3077785 C11.249944,1.32501184 11.3020229,1.35941742 11.3367463,1.41105633 C11.4409163,1.49703971 11.5450803,1.5830842 11.6318825,1.6691287 C11.6839676,1.72076761 11.7186909,1.77240653 11.7534143,1.80681211 L11.7707759,1.82398434 C11.8749399,1.92726217 11.9617421,2.0304789 12.0485505,2.13375673 C12.1700761,2.27144014 12.2742401,2.40906244 12.3784101,2.56391808 C12.4131335,2.59838476 12.4304952,2.615557 12.4478507,2.64996257 C12.7777103,2.49510693 13.1075699,2.35742352 13.4374296,2.21980122 C13.7672892,2.06494558 14.0971488,1.94449551 14.4443701,1.82398434 C14.6700657,1.73800096 14.8783936,1.65195647 15.1040893,1.60031755 C15.2950616,1.51427306 15.4860339,1.46263414 15.6770062,1.41105633 C15.8679725,1.35941742 16.0589448,1.3077785 16.2672788,1.25613958 C16.4061661,1.22173401 16.5450533,1.18732843 16.6839406,1.15292286 C16.874913,1.10128394 17.0658853,1.04964502 17.2742193,1.01523945 C17.5346322,0.946428299 17.8124068,0.894789381 18.0901875,0.843150464 C18.1769897,0.825978233 18.2811537,0.80874489 18.3853237,0.791572658 C18.6457366,0.757167084 18.9061557,0.722700398 19.1665686,0.688294823 C19.3228175,0.671122592 19.4617048,0.653889249 19.6179538,0.636655906 C19.9651751,0.5850781 20.3123964,0.567844757 20.6596176,0.550672525 C20.694341,0.533439183 20.7290582,0.533439183 20.7637816,0.533439183 C21.1804496,0.51620584 21.5971115,0.499033608 22.0137794,0.499033608 C22.4304413,0.499033608 22.8471032,0.499033608 23.2637712,0.533439183 C23.2811329,0.533439183 23.3332118,0.533439183 23.3679351,0.550672525 C23.7325181,0.567844757 24.0623777,0.602250332 24.409599,0.636655906 C24.565848,0.653889249 24.7047352,0.653889249 24.8609842,0.688294823 C25.1213971,0.705528166 25.3991778,0.757167084 25.6422291,0.791572658 C25.7463991,0.80874489 25.850563,0.825978233 25.9373653,0.843150464 C26.215146,0.894789381 26.4755589,0.946428299 26.7533335,1.01523945 C26.9443058,1.06687837 27.1352781,1.10128394 27.3262505,1.15292286 C27.4651377,1.17009509 27.604025,1.22173401 27.7429123,1.25613958 C27.9512463,1.3077785 28.1422186,1.35941742 28.333191,1.41105633 C28.5241572,1.46263414 28.7151295,1.51427306 28.9061018,1.60031755 C29.1317975,1.6691287 29.357487,1.73800096 29.565821,1.82398434 C29.9130423,1.94449551 30.2429019,2.08211781 30.5727615,2.21980122 C30.9026212,2.34025129 31.2324808,2.49510693 31.5623404,2.64996257 C31.579702,2.615557 31.5970637,2.59838476 31.631781,2.56391808 C31.735951,2.42629578 31.840115,2.27144014 31.9616406,2.13375673 C32.048449,2.0304789 32.1352512,1.92726217 32.2394213,1.82398434 L32.2567768,1.80681211 C32.2915002,1.75517319 32.3262235,1.70353427 32.3783086,1.6691287 C32.4651108,1.5830842 32.5692809,1.49703971 32.6734448,1.41105633 C32.7255298,1.35941742 32.7776088,1.32501184 32.8123321,1.3077785 C32.9338577,1.20456177 33.0553895,1.11851728 33.1769151,1.03247279 C33.2116384,0.998067216 33.2463557,0.980833873 33.281079,0.96360053 C33.4026046,0.87761715 33.541498,0.791572658 33.6803853,0.722700398 C33.8366343,0.636655906 33.9928833,0.550672525 34.1664939,0.481800265 C34.1838556,0.481800265 34.1838556,0.464628034 34.2012173,0.464628034 C34.3401046,0.412989116 34.4616302,0.361350199 34.6178791,0.309711282 C34.6352408,0.29253905 34.6873258,0.29253905 34.7220431,0.275305707 C34.8956537,0.223727901 35.0692644,0.172088984 35.242875,0.137683409 C35.3817623,0.103216723 35.5206496,0.0860444918 35.6768986,0.068811149 C35.7463453,0.0516389173 35.8331475,0.0516389173 35.9025942,0.0344055745 C36.0762049,0.0172333428 36.2671772,0 36.4407878,0 C39.6525756,0 42.2393491,2.56391808 42.2393491,5.7301476 C42.2393491,5.88500324 42.2393491,6.03991999 42.2219935,6.19477563 C42.2219935,6.26358678 42.2219935,6.3152257 42.204638,6.36686462 C42.204638,6.38403685 42.204638,6.41844242 42.1872824,6.43567577 C42.1699268,6.57335917 42.1525713,6.72821482 42.1178601,6.86583711 C42.1178601,6.9518816 42.083149,7.0379261 42.0657323,7.12397059 C42.0483768,7.21001508 42.0310212,7.27882623 42.0136656,7.34767405 C41.9963101,7.41650964 41.9789545,7.50254802 41.9442434,7.5713775 C41.8921767,7.77786595 41.8053378,7.96715161 41.7185599,8.13922837 C41.6664321,8.27689345 41.5796543,8.41455241 41.5102321,8.55221137 C41.5102321,8.55221137 41.5102321,8.56942027 41.4928154,8.58662917 C41.4754598,8.60383807 41.4754598,8.62104697 41.4581043,8.63824976 C41.4407487,8.65545865 41.4233931,8.67266755 41.4060376,8.70708535 C41.3192597,8.84474431 41.2324208,8.96520049 41.1282874,9.10285946 C41.0935152,9.15448004 41.0588041,9.20610673 41.0240929,9.24051842 C40.9373151,9.3437657 40.8504762,9.44701298 40.7636983,9.55026026 C40.7463428,9.58467194 40.694215,9.63629864 40.6595039,9.67071032 L40.6421483,9.68791922 C40.5380149,9.7911665 40.4685315,9.85999598 40.3643981,9.94603436 C40.3470426,9.98045216 40.2949148,10.0148638 40.2602037,10.0492816 C40.6421483,10.6171325 41.0240929,11.2194012 41.3539709,11.8388787 C41.6837877,12.4583563 41.9963101,13.0950428 42.2740602,13.748932 C42.4303214,14.0758766 42.5518715,14.4028213 42.6734215,14.729772 C42.7949105,15.0567166 42.9164605,15.3836612 43.0205939,15.7278148 L43.0205939,15.7450237 C43.1247884,16.0891772 43.2289218,16.4333307 43.3157607,16.7774842 C43.385183,17.0700111 43.4720219,17.3453351 43.5240886,17.6206591 C43.6108665,18.050851 43.6977054,18.481043 43.7671276,18.9112349 C43.8191943,19.2381795 43.8713221,19.5651241 43.9060333,19.9092776 C43.9060333,19.9781132 43.9060333,20.0469427 43.9233888,20.1157722 C43.9407444,20.4083051 43.9581,20.700832 43.9754555,20.9933649 Z M21.9964178,22.6452969 C21.0068389,22.6452969 18.1943514,22.8345826 18.1769897,23.7293842 C18.1769897,25.3469045 21.6665582,26.517024 21.9964178,26.4309857 C22.3262774,26.517024 25.798478,25.3469045 25.798478,23.7293842 C25.798478,22.8173737 22.9859966,22.6452969 21.9964178,22.6452969 Z M9.23606299,12.8025098 C7.32635203,14.0586677 5.01733475,16.7602753 5.38191772,20.4599257 C5.74650068,24.176785 8.69786939,26.4998213 10.2082802,26.4826124 C11.7186909,26.4654035 12.4825741,25.7082669 12.951321,23.8326315 C13.4200679,21.956996 15.0346426,19.8060365 17.0658853,17.500203 C19.1144835,15.1771667 17.0311619,12.9745866 17.0311619,12.9745866 C15.3645022,10.8064182 11.145774,11.5463519 9.23606299,12.8025098 Z M27.395691,27.7731881 L16.5971384,27.7731881 C16.5971384,30.3715484 19.0276813,32.4708812 21.9964178,32.4708812 C24.9825098,32.4708812 27.395691,30.3715484 27.395691,27.7731881 Z M33.8019109,26.4826124 C35.3123217,26.4998213 38.2637026,24.176785 38.6282917,20.4599257 C38.9928808,16.7602753 36.6664774,14.041465 34.7741281,12.8025098 C32.8644171,11.5463519 28.6283272,10.8064182 26.9790292,12.9745866 C26.9790292,12.9745866 24.8957076,15.1943756 26.9443058,17.500203 C28.9929102,19.8060365 30.5901232,21.956996 31.0588701,23.8326315 C31.527617,25.7082669 32.2915002,26.4654035 33.8019109,26.4826124 Z M36.4581495,1.68636204 C35.0692644,1.68636204 33.8366343,2.37465686 33.0901067,3.40712965 C33.2116384,3.4759408 33.333164,3.54475195 33.4546897,3.63079644 C33.7324642,3.80288543 34.0102449,3.97497441 34.2880195,4.16423563 C34.3227429,4.16423563 34.3401046,4.18146897 34.3748218,4.21587454 C34.6526025,4.38796353 34.9130154,4.57722474 35.1734344,4.7837193 C35.451209,5.0074472 35.7289836,5.21394176 36.0067582,5.43760855 C36.2845389,5.66133645 36.5449518,5.88500324 36.8053464,6.12590337 C37.065802,6.36686462 37.3261966,6.60776475 37.5692356,6.84866488 C37.8296913,7.08956501 38.0727303,7.34767405 38.2984138,7.60578919 C38.5414528,7.86390433 38.7671362,8.12201947 38.9928808,8.39734351 C39.0796586,8.50059079 39.1664364,8.60383807 39.2532754,8.70708535 C40.0518758,7.96715161 40.5553705,6.91747603 40.5553705,5.74738094 C40.5553705,3.49317415 38.7324251,1.68636204 36.4581495,1.68636204 Z M3.55900902,5.74738094 C3.55900902,6.91747603 4.06247927,7.96715161 4.84372411,8.72428814 C4.93053249,8.62104697 5.01733475,8.51779969 5.10414313,8.41455241 C5.32983269,8.13922837 5.55552836,7.88111323 5.79857959,7.62299809 C6.04163694,7.36488294 6.28468817,7.10679836 6.52774552,6.86583711 C6.77079675,6.60776475 7.03121577,6.36686462 7.29162868,6.14313672 C7.5520477,5.90223658 7.81246061,5.67850868 8.09023519,5.45484189 C8.36801589,5.21394176 8.64579047,5.0074472 8.92356506,4.80095264 C9.18397797,4.59445808 9.44439699,4.40513576 9.72217157,4.23310789 C9.75689492,4.21587454 9.7742566,4.19870231 9.80897995,4.18146897 C10.0867545,3.99220775 10.3645291,3.82011877 10.6423098,3.64802979 C10.7638354,3.56198529 10.885361,3.49317415 11.0068867,3.42430189 C10.2603652,2.37465686 9.04509068,1.68636204 7.65621164,1.68636204 C5.38191772,1.68636204 3.55900902,3.51034638 3.55900902,5.74738094 Z M30.3991509,15.280414 C31.0241468,15.280414 31.5449787,15.7966443 31.5449787,16.4161218 C31.5449787,17.0355994 31.0241468,17.5518297 30.3991509,17.5518297 C29.774155,17.5518297 29.2533231,17.0355994 29.2533231,16.4161218 C29.2533231,15.7966443 29.774155,15.280414 30.3991509,15.280414 Z M13.9582615,17.5518297 C13.3332656,17.5518297 12.8124337,17.0355994 12.8124337,16.4161218 C12.8124337,15.7966443 13.3332656,15.280414 13.9582615,15.280414 C14.5832574,15.280414 15.1040893,15.7966443 15.1040893,16.4161218 C15.1040893,17.0355994 14.5832574,17.5518297 13.9582615,17.5518297 Z M30.3991509,15.280414 C31.0241468,15.280414 31.5449787,15.7966443 31.5449787,16.4161218 C31.5449787,17.0355994 31.0241468,17.5518297 30.3991509,17.5518297 C29.774155,17.5518297 29.2533231,17.0355994 29.2533231,16.4161218 C29.2533231,15.7966443 29.774155,15.280414 30.3991509,15.280414 Z M13.9582615,15.280414 C14.600619,15.280414 15.1040893,15.7966443 15.1040893,16.4161218 C15.1040893,17.0355994 14.5832574,17.5518297 13.9582615,17.5518297 C13.3332656,17.5518297 12.8124337,17.0355994 12.8124337,16.4161218 C12.8124337,15.7966443 13.3332656,15.280414 13.9582615,15.280414 Z M30.3991509,15.280414 C31.0241468,15.280414 31.5449787,15.7966443 31.5449787,16.4161218 C31.5449787,17.0355994 31.0241468,17.5518297 30.3991509,17.5518297 C29.774155,17.5518297 29.2533231,17.0355994 29.2533231,16.4161218 C29.2533231,15.7966443 29.774155,15.280414 30.3991509,15.280414 Z M13.9582615,15.280414 C14.600619,15.280414 15.1040893,15.7966443 15.1040893,16.4161218 C15.1040893,17.0355994 14.5832574,17.5518297 13.9582615,17.5518297 C13.3332656,17.5518297 12.8124337,17.0355994 12.8124337,16.4161218 C12.8124337,15.7966443 13.3332656,15.280414 13.9582615,15.280414 Z" id="path-1"></path>
    </defs>
    <g id="app-icon-foodpanda" stroke="none" stroke-width="1" fill="none" fill-rule="evenodd">
        <g id="app_icon/app_icon_foodpanda" transform="translate(5.000000, 5.000000)">
            <path d="M19.9802772,-7.10542736e-15 L50.0197228,-5.49097313e-15 C56.9673004,-6.76722244e-15 59.48666,0.723387087 62.0265905,2.08175681 C64.5665211,3.44012654 66.5598735,5.4334789 67.9182432,7.97340946 C69.2766129,10.51334 70,13.0326996 70,19.9802772 L70,50.0197228 C70,56.9673004 69.2766129,59.48666 67.9182432,62.0265905 C66.5598735,64.5665211 64.5665211,66.5598735 62.0265905,67.9182432 C59.48666,69.2766129 56.9673004,70 50.0197228,70 L19.9802772,70 C13.0326996,70 10.51334,69.2766129 7.97340946,67.9182432 C5.4334789,66.5598735 3.44012654,64.5665211 2.08175681,62.0265905 C0.723387087,59.48666 -6.25459448e-15,56.9673004 -7.10542736e-15,50.0197228 L-6.02912454e-15,19.9802772 C-6.87995741e-15,13.0326996 0.723387087,10.51334 2.08175681,7.97340946 C3.44012654,5.4334789 5.4334789,3.44012654 7.97340946,2.08175681 C10.51334,0.723387087 13.0326996,-5.82917804e-15 19.9802772,-7.10542736e-15 Z" id="Path" fill="#D70F64"></path>
            <g id="logos/foodpanda/logo-foodpanda-sygnet-solid" transform="translate(13.125000, 13.125000)">
                <mask id="mask-2" fill="white">
                    <use xlink:href="#path-1"></use>
                </mask>
                <use id="logo-foodpanda-sygnet-solid" fill-opacity="0" fill="#858585" fill-rule="evenodd" xlink:href="#path-1"></use>
                <g id="overlay/$color-overlay-lvl2" mask="url(#mask-2)" fill="#000000" fill-opacity="0.04" fill-rule="evenodd">
                    <g transform="translate(-7.333333, -7.333333)" id="bg">
                        <rect x="0" y="0" width="59" height="59"></rect>
                    </g>
                </g>
            </g>
            <g id="app_icon/app_icon_smooth_corners" fill="#FFFFFF">
                <path d="M19.9802772,-7.10542736e-15 C13.0326996,-5.82917804e-15 10.51334,0.723387087 7.97340946,2.08175681 C5.4334789,3.44012654 3.44012654,5.4334789 2.08175681,7.97340946 C0.723387087,10.51334 -6.87995741e-15,13.0326996 -6.02912454e-15,19.9802772 L0,0 L19.9802772,0 Z M50.0197228,0 L70,0 L70,19.9802772 C70,13.0326996 69.2766129,10.51334 67.9182432,7.97340946 C66.5598735,5.4334789 64.5665211,3.44012654 62.0265905,2.08175681 C59.48666,0.723387087 56.9673004,-6.76722244e-15 50.0197228,-5.49097313e-15 Z M70,50.0197228 L70,70 L50.0197228,70 C56.9673004,70 59.48666,69.2766129 62.0265905,67.9182432 C64.5665211,66.5598735 66.5598735,64.5665211 67.9182432,62.0265905 C69.2766129,59.48666 70,56.9673004 70,50.0197228 Z M19.9802772,70 L0,70 L0,50.0197228 C-6.25459448e-15,56.9673004 0.723387087,59.48666 2.08175681,62.0265905 C3.44012654,64.5665211 5.4334789,66.5598735 7.97340946,67.9182432 C10.51334,69.2766129 13.0326996,70 19.9802772,70 Z" id="Smooth-Corners"></path>
            </g>
        </g>
    </g>
</svg>