<?xml version="1.0" encoding="UTF-8"?>
<svg width="80px" height="80px" viewBox="0 0 80 80" version="1.1" xmlns="http://www.w3.org/2000/svg" xmlns:xlink="http://www.w3.org/1999/xlink">
    <!-- Generator: Sketch 50.2 (55047) - http://www.bohemiancoding.com/sketch -->
    <title>app-icon-foodora</title>
    <desc>Created with Sketch.</desc>
    <defs>
        <path d="M26.3006248,36.1105144 C24.4817706,36.738024 15.6217459,35.8415817 13.6788789,35.7369968 C10.9643768,35.6025304 8.7183674,36.3794471 6.69282521,37.5 C4.54327024,34.6313846 3.55116794,31.3743108 3,27.5494902 C6.07276128,27.5494902 8.36010824,27.5943123 9.31087294,27.5793716 C16.4347186,27.4299645 30.7513059,27.4897274 31.4402658,27.7736008 C31.936317,27.9827706 32.074109,28.9688572 31.2060195,29.536604 C30.3379299,30.1043508 25.3223017,30.4181056 24.4542122,30.5226906 C23.5999019,30.6123348 23.2416427,31.1053781 23.2416427,31.5237178 C23.2416427,31.9420576 23.4069931,32.3603973 23.9857194,32.4649823 C24.5644458,32.5695672 29.2493733,31.717947 29.2493733,31.717947 C29.2493733,31.717947 39.1841754,28.3114662 40.3416281,28.3264069 C41.16838,28.3413476 41.6368728,28.6700431 41.8986775,28.9539165 C42.0778071,29.1481457 42.0089111,29.4768412 41.7746648,29.5664854 C39.4184218,30.5376313 27.9403494,35.5427676 26.3006248,36.1105144 Z M43.0833333,23.8333333 C43.5233333,23.8333333 44,24.0954394 44,24.75 C44,25.4045606 43.5233333,25.6666667 43.0833333,25.6666667 L0.916666667,25.6666667 C0.458333333,25.6666667 0,25.3245645 0,24.75 C6.45002054e-17,24.1754355 0.458333333,23.8333333 0.916666667,23.8333333 L2.5,23.8333333 C2.86974314,13.2944003 11.0432494,5.12483785 21.0932825,4.63201721 L21.0932825,2.75 C21.0932825,2.29166667 21.4236153,1.83333333 22.01375,1.83333333 C22.6038847,1.83333333 22.9166667,2.29166667 22.9166667,2.75 L23,4.64077185 C33.10625,5.07268546 41.115,13.2370526 41.5,23.8333333 L43.0833333,23.8333333 Z M13.7204861,8.90926456 C13.8044253,8.79454185 13.6925064,8.63679811 13.5945773,8.70849981 C8.01262085,12.7811562 6.13797882,18.3595482 5.53641459,20.9121286 C5.3685362,21.6148052 5.80222204,22.3891836 6.40378628,22.4035239 L8.2784283,22.4035239 C8.76807361,22.4322046 9.18776959,21.9589734 9.21574932,21.3566791 C9.45357704,15.0899508 12.4613982,10.5440632 13.7204861,8.90926456 Z" id="path-1"></path>
    </defs>
    <g id="app-icon-foodora" stroke="none" stroke-width="1" fill="none" fill-rule="evenodd">
        <g id="app_icon/app_icon_foodora" transform="translate(5.000000, 5.000000)">
            <path d="M19.9802772,-7.10542736e-15 L50.0197228,-5.49097313e-15 C56.9673004,-6.76722244e-15 59.48666,0.723387087 62.0265905,2.08175681 C64.5665211,3.44012654 66.5598735,5.4334789 67.9182432,7.97340946 C69.2766129,10.51334 70,13.0326996 70,19.9802772 L70,50.0197228 C70,56.9673004 69.2766129,59.48666 67.9182432,62.0265905 C66.5598735,64.5665211 64.5665211,66.5598735 62.0265905,67.9182432 C59.48666,69.2766129 56.9673004,70 50.0197228,70 L19.9802772,70 C13.0326996,70 10.51334,69.2766129 7.97340946,67.9182432 C5.4334789,66.5598735 3.44012654,64.5665211 2.08175681,62.0265905 C0.723387087,59.48666 -6.25459448e-15,56.9673004 -7.10542736e-15,50.0197228 L-6.02912454e-15,19.9802772 C-6.87995741e-15,13.0326996 0.723387087,10.51334 2.08175681,7.97340946 C3.44012654,5.4334789 5.4334789,3.44012654 7.97340946,2.08175681 C10.51334,0.723387087 13.0326996,-5.82917804e-15 19.9802772,-7.10542736e-15 Z" id="Smooth-Corners" fill="#D70F64"></path>
            <g id="logos/foodora/logo-foodora-sygnet" transform="translate(13.125000, 13.125000)">
                <mask id="mask-2" fill="white">
                    <use xlink:href="#path-1"></use>
                </mask>
                <use id="logo-foodora-sygnet" fill="#858585" fill-rule="nonzero" opacity="0" xlink:href="#path-1"></use>
                <g id="overlay/$color-overlay-lvl2" mask="url(#mask-2)" fill="#000000" fill-opacity="0.04" fill-rule="evenodd">
                    <g transform="translate(-7.333333, -7.333333)" id="bg">
                        <rect x="0" y="0" width="59" height="59"></rect>
                    </g>
                </g>
            </g>
        </g>
    </g>
</svg>