<?xml version="1.0" encoding="UTF-8"?>
<svg width="80px" height="80px" viewBox="0 0 80 80" version="1.1" xmlns="http://www.w3.org/2000/svg" xmlns:xlink="http://www.w3.org/1999/xlink">
    <!-- Generator: Sketch 50.2 (55047) - http://www.bohemiancoding.com/sketch -->
    <title>ic-allergy-eggs</title>
    <desc>Created with Sketch.</desc>
    <defs></defs>
    <g id="ic-allergy-eggs" stroke="none" stroke-width="1" fill="none" fill-rule="evenodd">
        <g id="icons/not-used/allergens/ic-allergy-eggs" transform="translate(5.000000, 5.000000)" fill="#D70F64">
            <path d="M57.9888483,40.2959395 L57.9888483,40.2959395 L57.9888483,40.0919203 L57.9888483,39.9170412 L57.9888483,39.9170412 L57.9888483,39.713019 C56.3682305,34.704945 53.2687166,30.3050611 49.0984487,27.0927903 C47.0640921,25.4068093 45.1546966,23.5755063 43.3852739,21.6133376 L42.3650641,20.4474966 C41.6363428,19.5731159 40.9076215,18.6695891 40.1206025,17.8243544 C37.0743727,13.6535874 32.0977018,11.3416372 26.9453217,11.7036892 C21.9654649,12.2115878 17.4077506,14.7270355 14.3238691,18.6695891 C7.68899421,27.6105403 6.91325233,39.6105533 12.3417443,49.3312043 C17.5302428,58.8036653 25.72107,64.1665339 34.5823208,64.1665339 C35.6157262,64.1700973 36.6481319,64.1019309 37.6720961,63.9625126 C44.6755478,62.9178235 50.9716705,59.1195295 55.1614098,53.4116478 C57.9094177,49.6331397 58.9360694,44.8708978 57.9888483,40.2959395 Z M54.7533258,47.1161123 L54.7533258,47.1161123 C51.6167054,56.1727032 42.7699708,61.9781804 33.2123218,61.2519314 C26.9161729,60.785595 17.9674755,56.034793 13.3911059,44.2597989 C10.1103511,35.5320976 12.0271962,25.7007761 18.3464164,18.8444652 C21.0320517,16.2332729 24.6000227,14.7251118 28.3444666,14.6182916 C28.8782666,14.5825878 29.4138563,14.5825878 29.9476563,14.6182916 C34.1742369,15.1720661 37.089122,18.7570272 39.6833697,21.9047979 L40.1497514,22.4877184 C41.8330975,24.4414347 43.6339719,26.2907791 45.5422888,28.0254631 C51.1097194,33.4466237 56.881192,38.8969303 54.724177,47.1161094 L54.7533258,47.1161123 Z M23.7416667,39.2291667 L23.9166667,39.2291667 C24.8022075,39.4610242 25.7137738,39.5786417 26.6291667,39.5791667 C30.460325,39.5265617 34.0450396,37.6802213 36.3125,34.5916667 C38.9389292,31.3051667 39.1508542,26.7014125 36.8375,23.1875 C34.4675071,19.5031667 29.9760913,17.7893333 25.7541667,18.9583333 C20.9336371,19.9243333 17.2359892,23.8086042 16.5083333,28.6708333 C15.9526238,33.4821375 19.0053967,37.9744283 23.6833363,39.2291667 L23.7416667,39.2291667 Z M21.3791667,34.3 C20.0120288,32.8229125 19.3803283,30.8100333 19.6583333,28.8166667 C19.9860675,26.44915 21.3274425,24.341275 23.3333333,23.0416667 C26.3982279,20.9907833 30.4610454,21.2664083 33.2208333,23.7125 C34.5207188,24.9865292 35.2471088,26.7340792 35.2333363,28.5541667 C35.2159996,30.6653375 34.3547896,32.6818333 32.8416667,34.1541667 C31.2223304,35.7000321 29.0720588,36.5664046 26.8333363,36.5750029 L26.6291667,36.575 C24.6423013,36.5636221 22.7461208,35.7419446 21.3791667,34.3 Z" id="-g-"></path>
        </g>
    </g>
</svg>