<?xml version="1.0" encoding="UTF-8"?>
<svg width="80px" height="80px" viewBox="0 0 80 80" version="1.1" xmlns="http://www.w3.org/2000/svg" xmlns:xlink="http://www.w3.org/1999/xlink">
    <!-- Generator: Sketch 50.2 (55047) - http://www.bohemiancoding.com/sketch -->
    <title>ic-allergy-fish</title>
    <desc>Created with Sketch.</desc>
    <defs></defs>
    <g id="ic-allergy-fish" stroke="none" stroke-width="1" fill="none" fill-rule="evenodd">
        <g id="icons/not-used/allergens/ic-allergy-fish" transform="translate(5.000000, 5.000000)" fill="#D70F64">
            <g id="-g-" transform="translate(8.750000, 8.750000)">
                <path d="M9.659125,8.27954167 C9.66058333,8.29704167 9.62266667,8.32620833 9.541,8.35245833 C9.49579167,8.3685 9.46370833,8.36120833 9.436,8.33204167 C9.42579167,8.32183333 9.396625,8.29266667 9.41995833,8.21683333 L9.42433333,8.20225 C9.44766667,8.13954167 9.47829167,8.12641667 9.49725,8.12058333 C9.56579167,8.127875 9.65329167,8.21391667 9.659125,8.27954167 M8.81183333,5.450375 C7.71808333,5.826625 6.81683333,6.87516667 6.6185,7.99808333 C6.44641667,8.976625 6.80079167,9.88225 7.620375,10.5501667 C8.14829167,10.9730833 8.73016667,11.186 9.35433333,11.186 C10.21475,11.186 11.0926667,10.7543333 11.7037083,10.0339167 C12.5932917,8.98245833 12.9214167,7.28495833 11.5432917,6.041 C10.7426667,5.32058333 9.772875,5.10475 8.81183333,5.450375" id="Fill-1"></path>
                <path d="M13.6377406,34.6059171 C13.5390374,34.64803 13.4345281,34.6915951 13.3242127,34.7322558 L13.30244,34.7395166 C11.7739914,35.326193 11.3501481,35.0618982 10.5924557,33.7781807 C9.81444197,32.4625155 9.19174071,31.1178069 8.74031858,29.7716461 C10.1961912,31.5200577 11.8422128,33.1435828 13.6377406,34.6059171 L13.6377406,34.6059171 Z M30.2053682,44.9744045 C30.2576228,43.9535296 30.4085807,42.9108722 30.6567903,41.87838 C30.6930783,41.7215457 30.7496875,41.5487376 30.8106512,41.3657643 C31.0414426,40.6701753 31.356422,39.7161002 30.6248569,39.0916675 C30.1821439,38.7126513 29.3155876,38.6211647 28.5477345,38.5398432 L28.5085435,38.5354867 C28.2313036,38.5064433 27.9714818,38.4788521 27.7856875,38.4396435 C26.7884946,38.2261747 25.9146807,38.0025406 25.1192488,37.7542197 C23.2598541,37.1733521 21.4062655,36.357233 19.6121891,35.3290973 C13.1630942,31.6463964 8.05084749,25.5893991 5.20151746,18.2603016 C8.91595227,18.0584501 11.8770492,17.1174445 14.0035232,15.4663283 C16.6627044,13.4013438 17.7818248,10.1455807 18.3885594,7.81194491 C24.5183203,12.0188788 29.190757,18.271919 31.552377,25.4398257 C32.2070116,27.4278452 32.6860126,29.4986383 32.9792193,31.5941184 C33.1301772,32.6919582 33.2303319,33.8072241 33.278232,34.9123248 C33.2840381,35.0401156 33.2840381,35.1737152 33.2825866,35.3116713 C33.2825866,36.0029038 33.2825866,36.8669444 34.1288216,37.2808126 C34.6687863,37.5494639 35.3988999,37.456525 36.0448255,37.3752036 C36.3017442,37.3432558 36.5920478,37.3069516 36.8388059,37.3069516 C37.7953563,37.309856 38.7678734,37.404247 39.7287784,37.5857681 C41.5141457,37.9212192 43.2501613,38.5529127 44.7626432,39.4169533 C42.8567999,40.0123427 41.0641751,40.7950618 39.4283142,41.7476847 L39.4152505,41.7273544 L39.3150958,41.7941542 C39.3005806,41.8028672 39.0233406,41.981484 38.7881947,42.1325096 L38.5719185,42.2704656 C38.5515972,42.2806308 38.5356305,42.2922482 38.5196638,42.3038655 L38.4601516,42.3401697 C35.4932486,44.2686503 32.8906767,47.1439451 30.9224181,50.6712639 C30.3563261,48.8705742 30.109568,46.9072416 30.2053682,44.9744045 L30.2053682,44.9744045 Z M32.4174818,20.0697043 C31.1691762,17.4514434 29.630567,14.9958255 27.8408452,12.7623894 C28.067282,12.8756586 28.2908158,12.9947365 28.5128981,13.1152665 C30.6916268,14.3060452 32.2491057,15.4605196 33.2724259,16.6411331 C34.1752702,17.6808862 33.0605043,19.2971504 32.4174818,20.0697043 L32.4174818,20.0697043 Z M15.7453449,6.99873021 C15.3418229,8.56997719 14.7858915,10.3779277 13.7132196,11.8678532 C11.5098151,14.9217649 7.83747433,15.2281725 4.28851258,15.5258672 L4.25077311,15.5287715 C3.95030886,15.0800513 3.33196215,11.7792709 3.10842837,10.131059 C2.87618547,8.40878642 2.66571535,6.41786257 3.11858899,4.58522516 C3.34792885,3.65874127 3.56420505,3.03721289 4.42060073,2.85859609 C4.77622266,2.78453547 5.17103558,2.74677907 5.59633038,2.74677907 C5.97372509,2.74677907 6.38160168,2.77582245 6.84173291,2.83536139 C8.57629704,3.06770844 10.260058,3.67181079 11.6781912,4.23234807 C12.5752294,4.5881295 13.4809767,4.99618902 14.3693058,5.44490927 C14.4883302,5.5044482 14.6262245,5.56543931 14.7699248,5.62497824 C15.0776466,5.75712563 15.4260109,5.90669905 15.6074507,6.08967235 L15.6321265,6.1158114 C15.9079149,6.39027136 15.9079149,6.39027136 15.8106632,6.74750496 L15.7453449,6.99727804 L15.7453449,6.99873021 Z M49.0707489,39.0335807 L49.0707489,38.9667809 L48.9996245,38.9667809 L48.8922122,38.8752943 C48.8268938,38.8186597 48.763027,38.7634772 48.757221,38.7591207 L48.7354482,38.744599 C47.1358753,37.41296 45.2343866,36.3441635 43.2327431,35.652931 C42.1470076,35.2782714 41.0380477,34.9950984 39.934894,34.8092208 C39.2700987,34.6988559 38.6183671,34.6233431 38.0000204,34.5855867 C37.8838989,34.5783259 37.6705258,34.5870389 37.3090978,34.6102736 C36.1972349,34.6843342 35.9809587,34.64803 35.9606374,34.6465778 C35.808228,34.4694132 35.7748431,32.7732797 35.766134,32.2040294 C35.7588764,31.7393353 35.7516188,31.3966234 35.726943,31.2281717 C35.5513093,29.9212195 35.3147119,28.6621889 35.0273113,27.4888363 C34.7616835,26.4084225 34.4554132,25.3425304 34.1143064,24.3202033 C34.0301184,24.0704302 33.9444788,23.8642222 33.8675483,23.6783446 C33.6106296,23.0626249 33.5409568,22.8970776 34.0359244,22.3728445 C34.7413622,21.6249774 36.3946414,19.6413144 36.4730233,17.3948088 C36.5485023,15.2789985 34.5236345,13.7919773 33.0445376,12.7057548 L32.7310097,12.4748599 C30.9064514,11.1214383 28.8902928,10.0206941 26.739143,9.20167075 C26.2819148,9.03031479 25.7709804,8.90978476 25.3108492,8.80087207 C24.7215328,8.66001167 24.1104437,8.51334259 23.612573,8.26792601 C23.1292175,8.02831811 22.6415074,7.58395436 22.166861,7.15266014 C21.8997816,6.9101479 21.5964144,6.6327836 21.3003047,6.41060173 C17.5103909,3.5585416 13.3111491,1.49791364 9.15400124,0.450899716 C4.57010709,-0.710835569 1.52191909,0.392812951 0.555208037,3.54111557 C-0.829540227,8.05736149 0.665523412,13.6119083 1.90947442,17.3991653 C2.6381365,19.6079146 3.57581719,21.76729 4.69493765,23.8177528 C5.02443226,24.420403 5.07233235,25.2074786 5.11878093,25.9945543 C5.14200522,26.3706661 5.16377799,26.7612996 5.22329023,27.1316027 C5.41053607,28.3339987 5.69938817,29.5291339 6.07823439,30.6836083 C6.9447907,33.3309126 7.92601693,35.2739149 9.0785223,36.6258843 C10.1686124,37.9008888 11.8160854,38.1709922 13.9788474,37.430386 C14.3025359,37.3171168 14.5986456,37.1631869 14.8860462,37.0136135 L14.9266887,36.9932831 C15.154577,36.8742052 15.3694017,36.760936 15.6059992,36.6679972 C16.1256427,36.4588849 16.1256427,36.460337 16.5770648,36.7536752 L16.7875349,36.8872747 C17.9864889,37.6424027 19.0983517,38.2610267 20.1884418,38.7809033 C22.6836014,39.9760384 25.2948825,40.8284617 27.9526121,41.3105818 C27.1150862,44.7435096 27.2442713,48.4450887 28.3227492,51.7545821 L28.4301616,52.1031026 C28.7320773,53.102195 29.2372056,54.7750938 30.2198834,55.2731878 C30.4071292,55.369031 30.6059872,55.4169525 30.8091997,55.4169525 C30.9674152,55.4169525 31.1270822,55.3893613 31.2867492,55.3327267 C31.9094504,55.111997 32.1460479,54.5166077 32.3550665,53.9909225 L32.3666786,53.9618791 C32.4116757,53.8486099 32.4552212,53.7367929 32.5002183,53.6336889 C32.9008373,52.7623874 33.3667746,51.8925381 33.8907726,51.0459235 C35.8314523,47.8947166 38.3062907,45.4812115 41.2412603,43.8765647 C42.8321241,43.0081675 44.5405609,42.3212915 46.3244766,41.8333627 C46.395601,41.8130324 46.4972073,41.7883455 46.6191348,41.7607543 C47.5684277,41.5327637 49.3349252,41.1101825 49.5599105,40.1793421 C49.6499046,39.8046825 49.4858831,39.4198577 49.0707489,39.0335807 L49.0707489,39.0335807 Z" id="Fill-3"></path>
                <path d="M23.8285833,25.3532708 L23.7556667,25.3605625 C23.6579583,25.3707708 23.56025,25.3766042 23.4669167,25.3766042 C21.088375,25.3766042 20.1579583,22.0851458 19.6023333,20.1134792 L19.5804583,20.0361875 C19.5469167,19.9107708 19.5162917,19.7693125 19.478375,19.6088958 C19.3310833,18.9570208 19.1473333,18.1447292 18.5260833,17.8107708 C17.8435833,17.4432708 17.40025,17.6022292 17.1479583,17.8005625 C16.534,18.2832708 16.4975417,19.4455625 16.669625,20.1149375 C17.2048333,22.2003542 17.8100417,24.5628542 19.355875,26.2355625 C20.4744167,27.4430625 21.9881667,28.1649375 23.4042083,28.1649375 L23.4406667,28.1634792 C24.1231667,28.1591042 24.7094167,27.8091042 25.01275,27.2286875 C25.2635833,26.7459792 25.2592083,26.2122292 25.004,25.8330625 C24.76775,25.4859792 24.3550417,25.3124375 23.8285833,25.3532708 L23.8285833,25.3532708 Z" id="Fill-5"></path>
            </g>
        </g>
    </g>
</svg>