<?xml version="1.0" encoding="UTF-8"?>
<svg width="80px" height="80px" viewBox="0 0 80 80" version="1.1" xmlns="http://www.w3.org/2000/svg" xmlns:xlink="http://www.w3.org/1999/xlink">
    <!-- Generator: Sketch 50.2 (55047) - http://www.bohemiancoding.com/sketch -->
    <title>ic-allergy-gluten</title>
    <desc>Created with Sketch.</desc>
    <defs></defs>
    <g id="ic-allergy-gluten" stroke="none" stroke-width="1" fill="none" fill-rule="evenodd">
        <g id="icons/not-used/allergens/ic-allergy-gluten" transform="translate(5.000000, 5.000000)" fill="#D70F64">
            <g id="-g-" transform="translate(5.833333, 8.750000)">
                <path d="M21.1311042,44.6012292 C18.3136042,37.0251875 25.8327708,36.4258125 25.8327708,36.4258125 C25.8327708,36.4258125 27.6513125,43.4141458 21.1311042,44.6012292 M18.7758958,35.7870625 C15.9613125,28.2081042 23.4775625,27.6087292 23.4775625,27.6087292 C23.4775625,27.6087292 25.2990208,34.5985208 18.7758958,35.7870625 M15.6696458,45.8831042 C11.2917292,45.8831042 9.87860417,40.7176875 9.87860417,40.7176875 C9.87860417,40.7176875 11.2538125,40.0585208 12.8886042,40.0585208 C14.8938125,40.0585208 17.2883958,41.0458125 18.0233958,45.4353958 C17.1571458,45.7489375 16.3754792,45.8831042 15.6696458,45.8831042 M7.52922917,31.9006042 C7.52922917,31.9006042 8.90297917,31.2458125 10.5377708,31.2458125 C12.5400625,31.2458125 14.9346458,32.2316458 15.6725625,36.6212292 C14.8063125,36.9347708 14.0231875,37.0660208 13.3188125,37.0660208 C8.94089583,37.0660208 7.52922917,31.9006042 7.52922917,31.9006042 M5.17547917,23.0849792 C5.17547917,23.0849792 6.54922917,22.4287292 8.18402083,22.4287292 C10.1877708,22.4287292 12.5823542,23.4145625 13.3202708,27.8056042 C12.4540208,28.1191458 11.6708958,28.2503958 10.9650625,28.2503958 C6.58714583,28.2503958 5.17547917,23.0849792 5.17547917,23.0849792 M2.82172917,14.2678958 C2.82172917,14.2678958 4.1969375,13.6101875 5.83027083,13.6101875 C7.83402083,13.6101875 10.2300625,14.5960208 10.9650625,18.9885208 C10.1002708,19.2991458 9.3156875,19.4333125 8.6113125,19.4333125 C4.23485417,19.4333125 2.82172917,14.2678958 2.82172917,14.2678958 M8.24964583,2.8301875 C8.24964583,2.8301875 15.6477708,6.09247917 10.6529792,11.8295625 C3.47214583,9.36935417 8.24964583,2.8301875 8.24964583,2.8301875 M18.7729792,9.97602083 C18.7729792,9.97602083 20.5900625,16.9643542 14.0698542,18.1514375 C11.2538125,10.5753958 18.7729792,9.97602083 18.7729792,9.97602083 M21.1281875,18.7916458 C21.1281875,18.7916458 22.9452708,25.7814375 16.4236042,26.9699792 C13.6046458,19.3924792 21.1281875,18.7916458 21.1281875,18.7916458 M25.8356875,33.5951875 L25.8094375,33.5951875 C27.0825625,30.5166458 26.3111042,27.2951875 26.2061042,26.8941458 C25.8808958,25.6385208 24.7521458,24.7781042 23.4804792,24.7781042 C23.4717292,24.7781042 23.4629792,24.7810208 23.4527708,24.7810208 C24.7288125,21.7053958 23.9617292,18.4795625 23.8552708,18.0785208 C23.5300625,16.8228958 22.4013125,15.9624792 21.1281875,15.9624792 C21.1179792,15.9624792 21.1077708,15.9639375 21.1004792,15.9639375 C22.3765208,12.8897708 21.6065208,9.66247917 21.5015208,9.2614375 C21.1763125,8.0058125 20.0475625,7.14539583 18.7744375,7.14539583 C18.7000625,7.14539583 18.6256875,7.14685417 18.5498542,7.1526875 C18.2815208,7.1745625 16.8115208,7.3233125 15.2000625,8.0670625 C15.2088125,7.48227083 15.1461042,6.95435417 15.0440208,6.4964375 C14.1427708,2.44227083 9.86839583,0.453104167 9.38422917,0.2401875 C9.01964583,0.0797708333 8.63610417,0.00102083333 8.25839583,-0.0004375 L8.24527083,-0.0004375 C7.37027083,0.00247916667 6.5200625,0.412270833 5.97610417,1.1545625 C5.6625625,1.58477083 2.9544375,5.45227083 4.19402083,9.41602083 C4.3325625,9.85935417 4.5381875,10.3435208 4.83277083,10.8408125 C3.0988125,11.0289375 1.7775625,11.6312292 1.60839583,11.7114375 C0.374645833,12.3020625 -0.259729167,13.6933125 0.100479167,15.0174792 C0.5569375,16.6828958 1.73672917,19.0585208 3.78860417,20.6320625 C2.6744375,21.2664375 2.11152083,22.5789375 2.45422917,23.8345625 C2.90922917,25.4999792 4.08902083,27.8756042 6.14089583,29.4491458 C5.0281875,30.0835208 4.46527083,31.3945625 4.80797917,32.6501875 C5.26297917,34.3170625 6.4413125,36.6926875 8.49172917,38.2633125 C7.3775625,38.8991458 6.81464583,40.2087292 7.1588125,41.4672708 C7.89527083,44.1578958 10.5158958,48.7151875 15.6696458,48.7151875 C16.7050625,48.7151875 17.7856875,48.5168542 18.8823542,48.1318542 L20.5448542,54.3647708 C20.7125625,54.9991458 21.2827708,55.4162292 21.9054792,55.4162292 C22.0265208,55.4162292 22.1475625,55.4001875 22.2715208,55.3666458 C23.0254792,55.1653958 23.4702708,54.3881042 23.2690208,53.6326875 L21.6021458,47.3910208 C21.6123542,47.3881042 21.6225625,47.3910208 21.6342292,47.3881042 C24.9169375,46.7901875 26.6392292,45.0401875 27.5069375,43.6737292 C29.6623542,40.2816458 28.6808958,36.1691458 28.5613125,35.7083125 C28.2346458,34.4556042 27.1073542,33.5951875 25.8356875,33.5951875" id="Fill-1"></path>
                <path d="M46.8050625,19.4333125 C46.1006875,19.4333125 45.3161042,19.2991458 44.4513125,18.9885208 C45.1877708,14.5960208 47.5823542,13.6101875 49.5861042,13.6101875 C51.2208958,13.6101875 52.5961042,14.2678958 52.5961042,14.2678958 C52.5961042,14.2678958 51.1829792,19.4333125 46.8050625,19.4333125 M44.4527708,28.2503958 C43.7469375,28.2503958 42.9638125,28.1191458 42.0990208,27.8056042 C42.8354792,23.4145625 45.2300625,22.4287292 47.2323542,22.4287292 C48.8686042,22.4287292 50.2423542,23.0849792 50.2423542,23.0849792 C50.2423542,23.0849792 48.8292292,28.2503958 44.4527708,28.2503958 M42.0990208,37.0660208 C41.3931875,37.0660208 40.6100625,36.9347708 39.7452708,36.6212292 C40.4802708,32.2316458 42.8748542,31.2458125 44.8800625,31.2458125 C46.5148542,31.2458125 47.8886042,31.9006042 47.8886042,31.9006042 C47.8886042,31.9006042 46.4754792,37.0660208 42.0990208,37.0660208 M39.7481875,45.8831042 C39.0423542,45.8831042 38.2606875,45.7489375 37.3929792,45.4353958 C38.1294375,41.0458125 40.5240208,40.0599792 42.5277708,40.0599792 C44.1625625,40.0599792 45.5392292,40.7176875 45.5392292,40.7176875 C45.5392292,40.7176875 44.1246458,45.8831042 39.7481875,45.8831042 M36.6404792,35.7870625 C30.1188125,34.5985208 31.9373542,27.6087292 31.9373542,27.6087292 C31.9373542,27.6087292 39.4565208,28.2081042 36.6404792,35.7870625 M34.2911042,18.7931042 C34.2911042,18.7931042 41.8102708,19.3924792 38.9942292,26.9699792 C32.4711042,25.7814375 34.2911042,18.7931042 34.2911042,18.7931042 M36.6433958,9.97602083 C36.6433958,9.97602083 44.1625625,10.5753958 41.3479792,18.1514375 C34.8263125,16.9643542 36.6433958,9.97602083 36.6433958,9.97602083 M47.1667292,2.8301875 C47.1667292,2.8301875 51.9471458,9.36935417 44.7633958,11.8295625 C39.7715208,6.0939375 47.1667292,2.8301875 47.1667292,2.8301875 M55.3158958,15.0174792 C55.6775625,13.6933125 55.0417292,12.3020625 53.8094375,11.7114375 C53.6402708,11.6312292 52.3175625,11.0289375 50.5850625,10.8408125 C50.8781875,10.3435208 51.0852708,9.85935417 51.2238125,9.41602083 C52.4619375,5.45227083 49.7523542,1.58477083 49.4402708,1.1545625 C48.8977708,0.413729167 48.0461042,0.00247916667 47.1725625,-0.0004375 L47.1594375,-0.0004375 C46.7802708,0.00102083333 46.3967292,0.0797708333 46.0336042,0.2401875 C45.5494375,0.453104167 41.2750625,2.44227083 40.3738125,6.4964375 C40.2731875,6.95435417 40.2104792,7.48227083 40.2177708,8.0670625 C38.6048542,7.3233125 37.1348542,7.1745625 36.8679792,7.1526875 C36.7921458,7.14685417 36.7177708,7.14539583 36.6433958,7.14539583 C35.3702708,7.14539583 34.2415208,8.0058125 33.9148542,9.2614375 C33.8098542,9.66247917 33.0413125,12.8868542 34.3173542,15.9639375 C34.3086042,15.9639375 34.2983958,15.9624792 34.2881875,15.9624792 C33.0165208,15.9624792 31.8892292,16.8228958 31.5625625,18.0785208 C31.4575625,18.4795625 30.6875625,21.7024792 31.9636042,24.7810208 C31.9548542,24.7810208 31.9461042,24.7781042 31.9358958,24.7781042 C30.6642292,24.7781042 29.5354792,25.6385208 29.2088125,26.8941458 C29.1111042,27.2689375 28.4315208,30.1126875 29.3881875,32.9972708 C29.9569375,33.5908125 30.3886042,34.3287292 30.6073542,35.1731042 C30.6715208,35.4195625 30.7940208,35.9591458 30.8873542,36.6883125 C32.9042292,37.2658125 36.3400625,39.0814375 34.2867292,44.6012292 C32.3602708,44.2512292 31.1629792,43.3922708 30.4308958,42.3568542 C30.1698542,43.1793542 29.8038125,44.0091458 29.2904792,44.8170625 C29.2306875,44.9089375 29.1621458,45.0066458 29.0950625,45.1043542 C30.1056875,46.0741458 31.5917292,46.9885208 33.7836042,47.3881042 C33.7938125,47.3881042 33.8025625,47.3881042 33.8127708,47.3910208 L32.1473542,53.6326875 C31.9461042,54.3881042 32.3908958,55.1653958 33.1448542,55.3666458 C33.2658958,55.4001875 33.3898542,55.4162292 33.5108958,55.4162292 C34.1321458,55.4162292 34.7023542,54.9991458 34.8700625,54.3647708 L36.5354792,48.1318542 C37.6306875,48.5168542 38.7113125,48.7151875 39.7481875,48.7151875 C44.9004792,48.7151875 47.5225625,44.1578958 48.2590208,41.4672708 C48.6017292,40.2087292 48.0402708,38.8962292 46.9261042,38.2633125 C48.9750625,36.6926875 50.1533958,34.3170625 50.6098542,32.6531042 C50.9525625,31.3945625 50.3911042,30.0835208 49.2769375,29.4491458 C51.3288125,27.8756042 52.5071458,25.4999792 52.9621458,23.8360208 C53.3063125,22.5789375 52.7433958,21.2664375 51.6292292,20.6335208 C53.6811042,19.0585208 54.8594375,16.6828958 55.3158958,15.0174792" id="Fill-4"></path>
            </g>
        </g>
    </g>
</svg>