<?xml version="1.0" encoding="UTF-8"?>
<svg width="80px" height="80px" viewBox="0 0 80 80" version="1.1" xmlns="http://www.w3.org/2000/svg" xmlns:xlink="http://www.w3.org/1999/xlink">
    <!-- Generator: Sketch 50.2 (55047) - http://www.bohemiancoding.com/sketch -->
    <title>ic-allergy-lupine</title>
    <desc>Created with Sketch.</desc>
    <defs>
        <polygon id="path-1" points="40.82978 0 0.21232422 0 0.21232422 58.3120544 40.82978 58.3120544 40.82978 1.03620816e-14"></polygon>
    </defs>
    <g id="ic-allergy-lupine" stroke="none" stroke-width="1" fill="none" fill-rule="evenodd">
        <g id="icons/not-used/allergens/ic-allergy-lupine" transform="translate(5.000000, 5.000000)">
            <g id="-g-" transform="translate(14.583333, 5.833333)">
                <mask id="mask-2" fill="white">
                    <use xlink:href="#path-1"></use>
                </mask>
                <g id="Clip-2"></g>
                <path d="M28.1354937,50.1199037 C28.1729642,49.9016729 28.1729642,49.6786587 28.1354937,49.4604337 C28.0938262,48.7511179 27.7148842,48.1046854 27.1163083,47.7218321 C26.5451375,47.3571204 25.8747037,47.1790404 25.1978417,47.212235 C23.7568333,47.1430517 22.5218758,48.2319308 22.4100683,49.6702646 C22.4449196,50.3430229 22.7876979,50.9622371 23.3393271,51.3489258 C23.9309379,51.7745404 24.6498583,51.9859842 25.377695,51.9484437 C26.5957358,51.9997071 27.70859,51.2618312 28.1354967,50.1199096 L28.1354937,50.1199037 Z" id="Fill-1" fill="#D70F64" mask="url(#mask-2)"></path>
                <path d="M5.9532375,7.16426667 C6.19500292,7.12404583 6.4281525,7.0429625 6.642685,6.92445833 C7.41777167,6.47747917 7.90565417,5.66055 7.93165625,4.76618333 C7.965475,3.89739583 7.75796,3.03622083 7.3321325,2.27817917 C6.86281167,1.2226375 5.98733333,0.401216667 4.9040775,1.850603e-13 C4.302095,-0.148079167 3.66594375,-0.0510416667 3.1354925,0.269791667 C1.6748795,1.36380417 1.34351058,3.41830417 2.38609029,4.91607083 C2.97995833,6.34450833 4.40836375,7.24476667 5.9532375,7.16426667 Z M4.154675,2.24819583 C4.66540375,2.46925 5.07272792,2.8765625 5.29376458,3.3873 C5.51835667,3.7900625 5.63213583,4.24517917 5.6235025,4.70624583 C5.62349958,4.85610417 5.62349958,4.97600833 5.62349958,4.97600833 C5.08082167,4.78280833 4.64522917,4.36899167 4.42446083,3.83693333 C4.11315917,3.369625 4.01508042,2.79206667 4.154675,2.24819583 Z" id="Fill-3" fill="#D70F64" mask="url(#mask-2)"></path>
                <path d="M21.6306971,40.0479625 C22.0906467,39.8819488 22.4953983,39.5913554 22.7997612,39.2086333 C23.364845,38.4289588 23.5209712,37.4252813 23.2194258,36.5107954 C22.9264408,35.6032775 22.3612987,34.8078938 21.6007196,34.2326163 C20.6963721,33.5091225 19.5463567,33.165195 18.3932846,33.2733829 C17.6566367,33.3366396 16.9762367,33.6930388 16.5047954,34.2625938 C15.966895,34.995275 15.7904862,35.9324467 16.0251817,36.8105558 C16.2939525,37.7786442 16.873185,38.6316904 17.6738625,39.2386138 C18.7651683,40.1723175 20.2604121,40.4781621 21.6306971,40.0479654 L21.6306971,40.0479625 Z M18.3932875,35.7314154 L18.3932875,35.7314154 C18.9785254,35.6228571 19.5803592,35.8011763 20.0119908,36.2110321 C20.3734242,36.4851288 20.6448054,36.8608829 20.7913679,37.2901667 L20.7913679,37.8297383 C20.7913679,37.9796171 19.8621121,38.0995213 19.0527604,37.4700258 C18.2434058,36.8405304 18.1235017,35.9712238 18.3932875,35.7314154 Z" id="Fill-4" fill="#D70F64" mask="url(#mask-2)"></path>
                <path d="M2.38609058,15.31775 C3.25916208,15.9529417 4.30439042,16.3083083 5.38369125,16.3369208 C6.48876083,16.3835583 7.54476917,15.8780417 8.20143917,14.9880208 C8.77387875,14.0938583 8.88524292,12.9802167 8.50119958,11.9904167 C8.11339375,10.9692625 7.42317625,10.0908208 6.52278083,9.47242917 C5.59831125,8.81119167 4.48125417,8.47396667 3.34532333,8.51319583 C2.32322854,8.51544167 1.35995708,8.99152917 0.737409458,9.80215833 C0.164971188,10.6963208 0.0536062333,11.8099625 0.437649042,12.7997625 C0.817422958,13.8168917 1.49681904,14.6948667 2.38609058,15.31775 Z M2.77577883,11.1510875 C2.96543917,10.9615917 3.22770583,10.8632417 3.49520208,10.8812958 C4.06839708,10.9150708 4.61983375,11.1127625 5.08393375,11.4508333 C5.5525925,11.7811167 5.91670625,12.2388583 6.13309375,12.7697792 C6.24730167,13.017025 6.24730167,13.301925 6.13309375,13.5491708 C5.94343167,13.7386667 5.68116792,13.8370167 5.41366875,13.8189333 C4.84047375,13.7851875 4.28903708,13.5874958 3.82494,13.2493958 C3.36506333,12.9353292 3.00176333,12.499375 2.77577913,11.9904167 C2.64223108,11.726575 2.64223108,11.4149292 2.77577883,11.1510875 Z" id="Fill-5" fill="#D70F64" mask="url(#mask-2)"></path>
                <path d="M11.9184654,11.9904167 L12.5479608,11.9904167 C13.466215,11.7220833 14.20125,11.0315917 14.5263796,10.1318875 C14.8609387,9.23997083 14.9132608,8.26676667 14.6762583,7.3441375 C14.3401446,5.44028333 12.5802571,4.12690833 10.6594717,4.34653333 C8.79414375,5.04767083 7.84380333,7.12235417 8.53117417,8.9928125 C8.89719542,10.6170458 10.2617783,11.8246333 11.9184654,11.9904167 Z M11.2290179,6.6247125 L11.2290179,6.6247125 C11.4988008,6.6247125 12.0983217,7.07434583 12.3081525,8.00359583 C12.4424708,8.44319583 12.4424737,8.91289583 12.3081525,9.352525 C12.3081525,9.59233333 12.0983217,9.74222083 11.9784175,9.772175 C11.8585133,9.80215833 11.0791362,9.4124625 10.8393279,8.39329167 C10.5995196,7.37409167 10.9592321,6.68465 11.2290179,6.6247125 Z" id="Fill-6" fill="#D70F64" mask="url(#mask-2)"></path>
                <path d="M14.3165458,22.8417292 C14.9615258,22.8447333 15.5946321,22.6683042 16.1450858,22.3321292 C17.9763938,20.8821083 18.3696392,18.2604625 17.0443671,16.3369208 C16.2188717,14.8797542 14.7007846,13.9507667 13.0275775,13.8789 C12.3826004,13.8758958 11.7494971,14.052325 11.1990433,14.3885 C10.2690525,14.9914625 9.66270375,15.9836833 9.55035958,17.0863292 C9.43597083,18.2415625 9.71023958,19.4019292 10.3297367,20.3837083 C11.1496292,21.832125 12.6541917,22.7597417 14.3165458,22.8417292 Z M12.5179863,16.4268708 C12.6847438,16.3809042 12.86082,16.3809042 13.0275775,16.4268708 C13.8173817,16.5127667 14.51338,16.9842458 14.8860921,17.68585 C15.48561,18.70505 15.4556354,19.9340458 14.8860921,20.3237417 C14.3165458,20.7134375 13.0875296,20.3237417 12.4880088,19.2146208 C11.8884879,18.1055292 11.8884908,16.8165375 12.5479608,16.4268708 L12.5179863,16.4268708 Z" id="Fill-7" fill="#D70F64" mask="url(#mask-2)"></path>
                <path d="M10.4196633,29.6163088 C10.9170425,30.6465367 11.7240725,31.4954938 12.7278171,32.0443638 C14.2888171,33.0488696 16.2927187,33.0488696 17.8537187,32.0443696 C18.1990229,31.7884904 18.4852704,31.4613513 18.6930479,31.0851363 C19.5895087,28.9080167 18.5759408,26.4141208 16.4148687,25.4796208 C14.4758775,24.1423292 11.8262667,24.5795083 10.4196662,26.4688375 C9.92245625,27.459075 9.92245625,28.6260625 10.4196662,29.6163088 L10.4196633,29.6163088 Z M12.6978425,28.5671458 C12.5576471,28.2732625 12.5576442,27.9317792 12.6978425,27.6378958 L12.8776987,27.4280708 C13.6083908,27.0987208 14.4568579,27.1665917 15.1259004,27.6079125 C16.2350125,28.2374167 16.7146292,29.2865738 16.4448433,29.796165 C16.1750604,30.3057592 15.155875,30.51559 13.8968842,29.796165 C13.3859133,29.512175 12.9691304,29.0849708 12.6978425,28.5671458 Z" id="Fill-8" fill="#D70F64" mask="url(#mask-2)"></path>
                <path d="M16.7745812,12.1702583 C17.1397654,14.2396625 19.0281146,15.6852208 21.1211029,15.4975917 L21.3609112,15.4975917 C22.3746337,15.2014625 23.1801879,14.4294792 23.5191833,13.4292667 C23.8273029,12.4538167 23.8273029,11.4071125 23.5191833,10.4316625 C23.1950308,8.26863333 21.1887637,6.77063333 19.0227829,7.07434583 C18.0468925,7.44942917 17.2608683,8.19819583 16.8388675,9.15474583 C16.4168637,10.1112667 16.3937287,11.1966167 16.7745812,12.1702583 Z M21.1211029,10.9712167 C21.2911563,11.5076208 21.2911563,12.0834875 21.1211029,12.6198917 C21.0418717,12.8914625 20.8432642,13.1121375 20.5815371,13.2194125 C20.131895,13.2194125 19.3225433,12.7098417 19.0227829,11.5707375 C18.7876383,10.9839042 18.7876383,10.3290542 19.0227829,9.74219167 C19.120045,9.56176667 19.2799833,9.4231375 19.4724221,9.352525 C20.131895,9.23262083 20.9412467,9.83214167 21.1211029,10.9712167 Z" id="Fill-9" fill="#D70F64" mask="url(#mask-2)"></path>
                <path d="M8.23141375,24.5503708 C9.30141917,22.5283333 8.55480208,20.0218375 6.55275833,18.914875 C5.60318792,18.2617167 4.46676708,17.9355167 3.31534583,17.985625 C2.27858517,17.9902625 1.30324629,18.4779583 0.677457083,19.3045708 C-0.3530135,21.3121125 0.388548125,23.7751792 2.35611542,24.8801 C3.23005667,25.5136 4.27474833,25.8687917 5.35371667,25.8992708 C6.47850583,25.9609 7.55922708,25.4543042 8.23141375,24.5503708 Z M6.13309375,23.0515542 C5.94751208,23.2253583 5.69702875,23.3125083 5.44364333,23.2913625 C4.88152875,23.2728708 4.33815375,23.084775 3.88489208,22.7518083 C3.33510042,22.400875 2.93877208,21.8545833 2.77577883,21.2230083 C2.71069896,21.0593833 2.71069925,20.8770625 2.77577912,20.7134375 C2.96135875,20.5396333 3.211845,20.4524833 3.4652275,20.4736292 C4.03440917,20.4773042 4.58882083,20.6551333 5.05395625,20.9832 C6.13309375,21.7326083 6.34292458,22.6918417 6.13309375,23.0515542 Z" id="Fill-10" fill="#D70F64" mask="url(#mask-2)"></path>
                <path d="M25.9172667,20.7434208 C26.2962263,20.9048875 26.7043963,20.986525 27.1163083,20.9832 C28.2020871,20.9913667 29.2222875,20.4644417 29.8441208,19.5743333 C30.47555,18.7012875 30.8211167,17.6541167 30.8333375,16.5767292 C30.8798583,15.2425583 30.4070375,13.9423083 29.5143917,12.94965 C28.9523675,12.3714208 28.1915375,12.0285083 27.3860913,11.9904167 C26.3003125,11.98225 25.2801179,12.509175 24.6582758,13.3992833 C24.0286025,14.2732333 23.6832254,15.3198208 23.6690679,16.3968875 C23.5400871,18.1535083 24.4090933,19.8335958 25.9172667,20.7434208 Z M26.6966467,14.7482125 C26.6966467,14.7482125 27.0563563,14.3285333 27.3561196,14.3285333 L27.5659504,14.3285333 C28.1777096,14.8183875 28.4947338,15.5883 28.4052738,16.3669042 C28.3996913,16.9358 28.2220342,17.4896458 27.8956854,17.9556417 C27.8956854,17.9556417 27.5359729,18.5851458 27.1163083,18.5851458 C26.6966438,18.5851458 26.0371708,17.7757708 26.0671454,16.4868083 C26.1165421,15.9394375 26.324935,15.4184625 26.6666721,14.9880208 L26.6966467,14.7482125 Z" id="Fill-11" fill="#D70F64" mask="url(#mask-2)"></path>
                <path d="M18.36331,24.5503708 C18.5955846,26.7852958 20.4930163,28.474775 22.7398092,28.4472417 L22.9796175,28.4472417 C24.0647458,28.1773625 24.9491958,27.3936833 25.3477233,26.3489333 C25.7629371,25.3001875 25.8466308,24.1493583 25.5875288,23.0515542 C25.381055,20.7047458 23.3193975,18.9644 20.9712242,19.1546833 C18.7685896,19.9329083 17.6047288,22.3408792 18.3633071,24.5503708 L18.36331,24.5503708 Z M23.0995217,23.5311708 C23.2712754,24.0979958 23.2712754,24.7029708 23.0995217,25.2697958 C23.0995217,25.4196542 22.8597133,25.80935 22.5299754,25.8693167 C22.2002404,25.9292542 21.1211029,25.2697958 20.85132,23.9808042 C20.6976758,23.330125 20.7939579,22.6454375 21.1211029,22.0623375 C21.2255983,21.8761958 21.3971071,21.7368375 21.6007196,21.6726708 C22.0203842,21.6426875 22.7997612,22.3021458 23.0695442,23.5311708 L23.0995217,23.5311708 Z" id="Fill-12" fill="#D70F64" mask="url(#mask-2)"></path>
                <path d="M15.1259004,38.9688279 C15.0661204,37.7766112 14.4713042,36.6751029 13.5071971,35.9712237 C12.3807658,35.1221179 11.0200971,34.6406521 9.61031167,34.5923287 C9.08223167,34.5360371 8.54966292,34.5360371 8.02158292,34.5923317 C5.89979542,34.6847812 4.16560667,36.3169625 3.94484417,38.4292562 C3.97060708,39.7789292 4.66766417,41.0268862 5.80335875,41.7565954 C6.88745167,42.4879817 8.15374292,42.9031604 9.46043,42.9556342 C9.988475,43.0126171 10.5211167,43.0126171 11.0491617,42.9556342 C13.2230992,42.8542625 14.9760742,41.1399625 15.1259004,38.968825 L15.1259004,38.9688279 Z M12.33813,38.8189462 C12.33813,39.0287771 11.7985613,39.5983233 10.5695421,39.8081542 C10.2207992,39.8451229 9.869125,39.8451229 9.52038208,39.8081542 C8.69737458,39.7472337 7.90801958,39.4564158 7.24220583,38.9688279 C6.82254125,38.6690646 6.70263708,38.4292562 6.70263708,38.3393296 C6.70263708,38.2494029 7.24220583,37.5599525 8.47122208,37.3501217 C8.81995333,37.3129254 9.17165083,37.3129283 9.52038208,37.3501246 C10.4881583,37.34318 11.4216725,37.7080054 12.1282963,38.3693071 C12.23677,38.4707779 12.30131,38.6106175 12.3081525,38.7589942 L12.33813,38.8189462 Z" id="Fill-13" fill="#D70F64" mask="url(#mask-2)"></path>
                <path d="M9.130695,28.5971292 C8.30904375,27.7790333 7.26779958,27.2167583 6.13309375,26.9784083 C3.52517958,26.2589833 1.1870495,26.9784083 0.677457667,28.9568417 C0.390429958,30.0456304 0.737773458,31.2034421 1.57673921,31.9544371 C2.33962108,32.7118838 3.29213792,33.2502654 4.33453417,33.5131913 L4.96402958,33.5131913 C7.36211,33.9328558 9.34052875,33.0635521 9.79016792,31.3848938 C10.0573317,30.4039313 9.80905625,29.3544154 9.130695,28.5971292 Z M7.51199167,30.7853758 C6.80596292,31.0995825 5.99979333,31.0995825 5.29376458,30.7853758 C4.6825275,30.6654658 4.113795,30.386265 3.64508375,29.9760213 C3.535665,29.8720538 3.44446958,29.7504638 3.37529792,29.6163088 L3.37530083,29.6163088 C3.9262125,29.2892221 4.58721083,29.2025329 5.20383792,29.3765004 L5.593525,29.3765004 C6.17937833,29.5270033 6.71634833,29.8264663 7.15227625,30.2458042 C7.36211,30.6354942 7.42206208,30.7853758 7.42206208,30.7853758 L7.51199167,30.7853758 Z" id="Fill-14" fill="#D70F64" mask="url(#mask-2)"></path>
                <path d="M23.5491608,44.7541996 C23.4684012,43.4526342 22.765365,42.269745 21.6606717,41.5767421 C20.5376908,40.8538813 19.2178729,40.4977417 17.8836933,40.5575596 C17.0158975,40.5864521 16.1614629,40.7797162 15.3657087,41.1271 C13.6220933,41.685805 12.4206454,43.2837242 12.3681046,45.1139121 C12.5742137,46.4318983 13.2978475,47.6131075 14.3784025,48.3953838 C15.4589604,49.1776658 16.8070554,49.4963 18.1235017,49.2805804 C18.9912975,49.2516879 19.8457321,49.0584208 20.6414892,48.7110342 C22.3395637,48.1255192 23.4975883,46.5496471 23.5491608,44.7541996 Z M20.8213425,44.7541996 C20.8213425,45.4736246 19.6223038,46.4028804 18.0935271,46.4628325 C16.5647504,46.5227817 15.1259004,45.8633117 15.1259004,44.9640304 C15.1259004,44.0647492 15.5755396,43.9148704 16.3549167,43.5851325 C16.8291375,43.3813333 17.3377488,43.2694412 17.8537158,43.2554033 C18.6111771,43.2126158 19.3637792,43.4007642 20.0119879,43.794975 C20.465725,44.0131504 20.7644821,44.4612846 20.7913679,44.9640304 L20.8213425,44.7541996 Z" id="Fill-15" fill="#D70F64" mask="url(#mask-2)"></path>
                <path d="M34.0407667,39.68825 C34.3279417,39.8095483 34.6306042,39.8902612 34.9400625,39.9280583 C37.3547708,39.8855712 39.4643667,38.2852079 40.1558792,35.9712237 C41.5325458,33.5571425 40.7347792,30.4857496 38.3573167,29.0467625 C35.6913958,28.5109708 33.06765,30.137695 32.3621083,32.7637917 C30.9638,35.1471079 31.7062958,38.2098529 34.0407667,39.68825 Z M35.7793917,37.0503613 C35.558075,37.1387683 35.3112375,37.1387683 35.0899208,37.0503613 C34.7322208,36.8181333 34.5088625,36.4272767 34.4904,36.0011983 C34.3990208,35.2358183 34.5128292,34.4599004 34.8201583,33.7529967 C35.4796167,32.1342933 36.5887375,31.4748175 37.158275,31.5347725 L37.3081625,31.5347725 C37.8777,31.7745808 38.2374125,33.1534758 37.5779542,34.8321342 C37.2918292,35.7784321 36.6461083,36.5748279 35.7793917,37.0503613 Z" id="Fill-16" fill="#D70F64" mask="url(#mask-2)"></path>
                <path d="M27.1163083,27.6079125 C25.1678671,27.458025 23.4292567,29.4664271 23.2194258,32.0743412 C23.1281283,33.1811521 23.3460617,34.2915708 23.8489213,35.2817733 C24.3266246,36.2894467 25.2893171,36.9803233 26.3968863,37.1103162 C26.8569292,37.1519983 27.32016,37.0799362 27.7458067,36.9004825 C29.2965167,36.0555737 30.2706542,34.4396617 30.2937542,32.6738621 C30.5635458,29.9760212 29.1546792,27.7578 27.1163083,27.6079125 Z M27.6558771,32.4040792 C27.6414775,33.1089092 27.3633879,33.782735 26.8765029,34.2925713 C26.7795208,34.3268567 26.6737188,34.3268567 26.5767396,34.2925683 C26.5767396,34.2925683 26.3069538,34.2925683 26.1570721,33.8729038 C25.8981217,33.3322938 25.7943496,32.7304104 25.8573146,32.1342963 C25.8382804,31.3501271 26.1946563,30.6039621 26.8165421,30.1259 L27.1163083,30.1259 C27.1163083,30.2757817 27.8057558,31.1151108 27.7158263,32.4340538 L27.6558771,32.4040792 Z" id="Fill-17" fill="#D70F64" mask="url(#mask-2)"></path>
                <path d="M33.1115167,43.1654679 C33.0688167,41.9896225 32.6364792,40.8613246 31.8824917,39.95803 C30.43495,37.9832104 27.6672988,37.5419887 25.6774583,38.9688221 C24.6988233,39.7202604 24.1232513,40.8824675 24.1187042,42.1163108 C24.1634604,43.2827033 24.5959496,44.4008512 25.3477263,45.2937742 L25.3477233,45.2937683 C26.035065,46.2692942 27.0842163,46.9291987 28.2611788,47.1262954 C29.43815,47.3233979 30.6450375,47.0413037 31.6127,46.3429312 C32.5772125,45.5728642 33.1306792,44.3995183 33.1115167,43.1654679 Z M29.7841833,41.6966433 C30.2397958,42.2118346 30.5043667,42.8680292 30.5335625,43.5551579 C30.5718,43.917055 30.4515458,44.2777796 30.2038333,44.5443658 C29.7542,44.9340529 28.4652317,44.7242221 27.5059983,43.5851325 C27.0603958,43.0638162 26.7972542,42.4112267 26.7566046,41.7266208 C26.7302729,41.3607192 26.8611029,41.0009367 27.1163083,40.7374129 C27.6258996,40.3777004 28.9148708,40.5575537 29.8441208,41.7266208 L29.7841833,41.6966433 Z" id="Fill-18" fill="#D70F64" mask="url(#mask-2)"></path>
                <path d="M30.6534667,28.6271125 C31.2326292,28.9076375 31.8684917,29.051225 32.5119958,29.0467625 C34.5058,28.9670208 36.3030208,27.8222875 37.2182125,26.0491583 C37.8460542,24.9400375 38.0585625,23.6436375 37.8177333,22.3920958 C37.6054583,21.09345 36.7793708,19.977125 35.5995208,19.3944917 C35.0200375,19.1149583 34.3843792,18.9714292 33.7410208,18.9748125 C31.7472167,19.0545542 29.9499667,20.1992875 29.0347721,21.9724167 C28.4069537,23.0815667 28.1944279,24.3779667 28.4352542,25.6295083 C28.6475525,26.928125 29.4736167,28.04445 30.6534667,28.6271125 Z M31.6127,23.3513292 C32.009075,22.5120875 32.8173125,21.9429292 33.7410208,21.8525125 C33.9184125,21.8104542 34.1031833,21.8104542 34.280575,21.8525125 C34.6531792,22.0554833 34.9085625,22.4219042 34.9700167,22.8417292 C35.0821333,23.4807417 34.9653792,24.1388 34.6402875,24.7002292 C34.3420292,25.2466958 33.88105,25.6867042 33.3213417,25.9592375 C32.8940208,26.1595833 32.3997333,26.1595833 31.9724125,25.9592375 C31.5998375,25.7562667 31.344425,25.3898458 31.2829708,24.9700208 C31.2320167,24.4062 31.357725,23.8404833 31.6426833,23.3513292 L31.6127,23.3513292 Z" id="Fill-19" fill="#D70F64" mask="url(#mask-2)"></path>
                <path d="M31.742025,48.0310688 L31.742025,48.0310688 C32.4349083,47.5781804 33.3637208,47.7727308 33.8166208,48.4656142 L38.7368042,55.9930502 C39.1897042,56.6859312 38.9951333,57.6147641 38.3022792,58.0676546 L38.3022792,58.0676546 C37.6093958,58.520545 36.6805542,58.3259941 36.2276542,57.6331134 L31.3074708,50.1056763 C30.8545708,49.4127929 31.0491417,48.48396 31.742025,48.0310688 Z" id="Fill-20" fill="#D70F64" mask="url(#mask-2)"></path>
                <path d="M39.106725,41.7266208 C38.9963583,41.5344562 38.8544917,41.3621921 38.6870458,41.2170325 C38.129525,40.7515267 37.3814583,40.5840487 36.6786583,40.7673933 C36.0140083,40.9312692 35.41685,41.2979467 34.9700167,41.8165475 C33.9453333,42.8553825 33.9453333,44.5247162 34.9700167,45.5635512 C35.4847208,45.9970525 36.1683583,46.1734787 36.8285458,46.0431737 C37.5528417,45.9055742 38.2085083,45.5248733 38.6870458,44.9640333 C39.5014958,44.0840954 39.669875,42.7851404 39.106725,41.7266237 L39.106725,41.7266208 Z" id="Fill-21" fill="#D70F64" mask="url(#mask-2)"></path>
            </g>
        </g>
    </g>
</svg>