<?xml version="1.0" encoding="UTF-8"?>
<svg width="80px" height="80px" viewBox="0 0 80 80" version="1.1" xmlns="http://www.w3.org/2000/svg" xmlns:xlink="http://www.w3.org/1999/xlink">
    <!-- Generator: Sketch 50.2 (55047) - http://www.bohemiancoding.com/sketch -->
    <title>ic-allergy-celery</title>
    <desc>Created with Sketch.</desc>
    <defs>
        <polygon id="path-1" points="0 55.4166667 29.1666667 55.4166667 29.1666667 0 0 0"></polygon>
    </defs>
    <g id="ic-allergy-celery" stroke="none" stroke-width="1" fill="none" fill-rule="evenodd">
        <g id="icons/not-used/allergens/ic-allergy-celery" transform="translate(5.000000, 5.000000)">
            <g id="-g-" transform="translate(20.416667, 8.750000)">
                <mask id="mask-2" fill="white">
                    <use xlink:href="#path-1"></use>
                </mask>
                <g id="Clip-2"></g>
                <path d="M25.3458363,3.26666667 C25.2413379,2.891875 24.9885475,2.57588333 24.6458333,2.39166667 C22.268855,1.15686667 19.4394813,1.15686667 17.0625,2.39166667 L16.7125,2.47916667 L16.5083333,2.1 L15.8958333,0.816666667 C15.6504629,0.315875 15.1409913,-0.00110833333 14.5833333,2.4788042e-13 L14.0291667,2.4788042e-13 C9.16790583,0.159133333 4.83698833,3.11459167 2.91666667,7.58333333 C2.74619771,8.03159583 2.81192042,8.53547917 3.09166667,8.925 C3.52916667,9.50833333 3.90833333,10.0625 4.25833333,10.6458333 L4.4625,10.9666667 L4.2,11.2291667 C2.10627638,13.2936708 0.648640125,15.915375 8.54261106e-13,18.7833333 L8.54261106e-13,18.7833333 C-0.0650421333,19.2677625 0.121983108,19.7518125 0.495833333,20.0666667 C4.23996708,23.6965167 7.51286083,27.7827375 10.2375,32.2291667 L10.2375,32.2291667 L10.2375,32.2291667 C10.2679996,36.266965 10.0145879,40.3019108 9.47916958,44.3041696 C9.02587,47.1676858 9.82235042,50.0881063 11.6666696,52.3250029 C13.4081996,54.3835655 16.0015742,55.5242125 18.6958333,55.4166667 C25.3166667,55.4166667 29.1666667,50.1083333 29.1666667,40.8333333 L29.1666667,37.9166667 C29.5699833,26.2428833 28.2830683,14.5721042 25.3458304,3.26666667 L25.3458363,3.26666667 Z M6.00833333,7.93333333 L6.00833333,7.7 C7.59784958,5.0519875 10.3212987,3.28661667 13.3875,2.91666667 L13.6791667,2.91666667 L13.6791667,3.17916667 C17.1235458,10.3931625 18.9927471,18.2577208 19.1624971,26.25 C19.1492175,26.6269821 19.2855104,26.9939279 19.5416667,27.2708333 C19.8040646,27.5590962 20.1728217,27.7276708 20.5625,27.7375 L20.5625,27.7375 C20.9389717,27.7476646 21.30478,27.6117946 21.5833333,27.3583333 C21.8943171,27.0754983 22.0650121,26.6700962 22.05,26.25 C21.9818958,19.1568125 20.6075712,12.1368625 17.9958333,5.54166667 L17.85,5.1625 L18.2291667,4.9875 C19.5336487,4.3148 21.0437704,4.15858333 22.4583333,4.55 L22.6916667,4.55 L22.6916667,4.78333333 C25.4309387,15.6053333 26.628875,26.7598042 26.2500058,37.9166667 L26.25,37.9166667 L26.25,40.8333333 C26.25,48.5041696 23.6541667,52.5 18.7541667,52.5 C16.9478342,52.5886871 15.2025212,51.8345421 14.0291667,50.4583304 C12.82827,48.9545583 12.2818004,47.0313987 12.5125,45.1208304 C14.9333333,25.6666667 10.9958333,16.1875 7.81666667,10.7625 L7.67083333,10.5 C7.175,9.68333333 6.67916667,8.925 6.15416667,8.1375 L6.00833333,7.93333333 Z M6.00833333,13.5333333 L6.3,14.1166667 C8.00257208,17.5513042 9.15415083,21.2324292 9.7125,25.025 L9.975,26.6875 L8.95416667,25.3458333 C7.16592625,23.0151833 5.21672083,20.812575 3.12083333,18.7541667 L2.91666667,18.5791667 L2.91666667,18.3166667 C3.49826167,16.7530708 4.3469825,15.30235 5.425,14.0291667 L6.00833333,13.5333333 Z" id="Fill-1" fill="#D70F64" mask="url(#mask-2)"></path>
            </g>
        </g>
    </g>
</svg>