<?xml version="1.0" encoding="UTF-8"?>
<svg width="80px" height="80px" viewBox="0 0 80 80" version="1.1" xmlns="http://www.w3.org/2000/svg" xmlns:xlink="http://www.w3.org/1999/xlink">
    <!-- Generator: Sketch 50.2 (55047) - http://www.bohemiancoding.com/sketch -->
    <title>ic-allergy-sulfur</title>
    <desc>Created with Sketch.</desc>
    <defs>
        <polygon id="path-1" points="0 52.5 35 52.5 35 0 0 0"></polygon>
    </defs>
    <g id="ic-allergy-sulfur" stroke="none" stroke-width="1" fill="none" fill-rule="evenodd">
        <g id="icons/not-used/allergens/ic-allergy-sulfur" transform="translate(5.000000, 5.000000)">
            <g id="-g-" transform="translate(17.500000, 8.750000)">
                <mask id="mask-2" fill="white">
                    <use xlink:href="#path-1"></use>
                </mask>
                <g id="Clip-2"></g>
                <path d="M16.625,35.7 C17.4553283,35.5577367 18.3049621,35.8050992 18.9291667,36.3708333 L19.1333333,36.6333304 L21.4083333,34.1541638 L21.2041667,33.9499971 C19.3221846,32.4512621 16.7463683,32.1675842 14.5833333,33.2208333 C13.4533758,33.822005 12.6433417,34.8878367 12.3666667,36.1375 C12.0793867,37.1385058 12.2733683,38.2161675 12.8916667,39.0541696 C13.6584321,39.909275 14.6818583,40.4926229 15.8083333,40.7166667 L15.8083333,40.7166667 L16.1875,40.7166667 C16.8875,40.9208333 17.7916667,41.1833333 17.9666667,41.7666667 C18.0515446,41.9518488 18.0515446,42.1648179 17.9666667,42.35 C17.7506525,42.6525867 17.4272262,42.861245 17.0625,42.9333275 C16.0477625,43.1731475 14.986615,42.7966117 14.35,41.9708275 L14.1458333,41.6791638 L11.8125,44.2458304 L12.0166667,44.4499971 C13.2253975,45.5124629 14.7823958,46.09374 16.3916667,46.0833304 C17.4188379,46.0726671 18.4249742,45.7909492 19.3083333,45.2666667 C20.5054996,44.4812404 21.2200654,43.140055 21.2041667,41.7083304 C21.2545229,40.5424367 20.6899787,39.4354887 19.7166667,38.7916637 L19.7166667,38.7916637 L19.7166667,38.7916637 L19.5708333,38.7916637 C19.172825,38.6263383 18.7634329,38.4898733 18.3458304,38.3833246 C17.325,38.0916638 16.1,37.7124971 15.75,37.0999971 C15.6701358,36.9239092 15.6701358,36.7219213 15.75,36.5458333 C15.8318796,36.1063733 16.18302,35.7669404 16.625,35.6999971 L16.625,35.7 Z" id="Fill-1" fill="#D70F64" mask="url(#mask-2)"></path>
                <path d="M30.1875,33.6583333 L29.4291667,32.55 L29.4291667,32.55 L29.4291667,32.55 L29.4291667,32.3749971 L28.6125,31.2083333 C26.3553471,28.2804754 24.4831183,25.0751433 23.0416725,21.6708333 C22.44879,19.8757708 22.1820813,17.9890667 22.2541667,16.1 L22.2541667,6.76666667 L22.2541667,6.125 C22.1760379,5.691 22.1760379,5.2465 22.2541667,4.8125 C22.2765579,4.71657083 22.2765579,4.6167625 22.2541667,4.52083333 L22.2541667,4.52083333 L22.7208333,4.34583333 C23.0680188,4.26679167 23.3954933,4.117925 23.6833333,3.90833333 C24.3017046,3.42784167 24.5475883,2.6082 24.2958333,1.86666667 C23.8042554,0.792545833 22.7621975,0.075425 21.5833333,4.51028104e-15 L18.375,4.51028104e-15 L15.7791667,4.51028104e-15 C14.2476104,-0.283791667 12.6653217,0.0180833333 11.3458333,0.845833333 C10.7422058,1.34939583 10.4813013,2.15480417 10.6750029,2.91666667 C10.8379804,3.5770875 11.3191808,4.11299583 11.9583333,4.34583333 L12.4541667,4.60833333 L12.8041667,4.8125 C12.8129283,4.92899167 12.8129283,5.04600833 12.8041667,5.1625 L12.8041667,5.425 L12.8041667,16.8 C12.8041667,22.225 9.59583333,26.8625 6.50416667,31.3833333 C5.89166667,32.2875029 5.27916667,33.1625 4.69583333,34.0375 L4.34583333,34.5625 C1.82318267,37.5375088 0.3025155,41.2320154 0,45.1208333 C0.106386758,49.1400933 3.331195,52.3777008 7.35,52.5000056 C8.54583333,52.5 9.74166667,52.5 10.9375,52.5 L14.2916667,52.5 L20.7958333,52.5 L27.1541667,52.5 C29.2598833,52.5490443 31.2930917,51.7300893 32.7769167,50.2352174 C34.2607708,48.7403525 35.0646333,46.7011183 35,44.5958363 C34.4970792,40.5586213 32.824225,36.7566821 30.1875,33.6583333 Z M31.85,45.325 L31.85,45.325 C31.2666667,49.3208333 27.5041667,49.2916667 24.1791667,49.2624971 L9.3625,49.2624971 C8.32750333,49.3455842 7.28591792,49.2768004 6.27083333,49.0583392 C4.0451075,48.3236863 2.70961133,46.0520929 3.15,43.75 C3.84715042,40.8391871 5.18206792,38.1195471 7.05833042,35.7875 L7.67083333,35 L9.12916667,32.9 C12.2208333,28.35 15.75,23.3333333 15.8375,17.5 L15.8375,11.1125 L15.8375,7.93333333 L15.8375,5.83333333 L15.8375,5.48333333 C15.8167975,5.23098333 15.8167975,4.97735 15.8375,4.725 C16.9314367,4.58170417 18.0393937,4.58170417 19.1333304,4.725 C19.3375,4.725 19.1333333,5.74583333 19.1333333,6.125 L19.1333333,6.67916667 L19.1333333,13.9708333 L19.1333333,17.325 C19.1816042,20.0139042 19.8398229,22.656725 21.0583304,25.0541696 C22.5820671,27.9117592 24.3174662,30.6513492 26.2500058,33.2499913 L27.7083333,35.3791638 L28.3208333,36.2833333 C30.0416667,38.9666667 32.3166667,42.2916667 31.85,45.4416667 L31.85,45.325 Z" id="Fill-3" fill="#D70F64" mask="url(#mask-2)"></path>
            </g>
        </g>
    </g>
</svg>