<?xml version="1.0" encoding="UTF-8"?>
<svg width="80px" height="80px" viewBox="0 0 80 80" version="1.1" xmlns="http://www.w3.org/2000/svg" xmlns:xlink="http://www.w3.org/1999/xlink">
    <!-- Generator: Sketch 50.2 (55047) - http://www.bohemiancoding.com/sketch -->
    <title>ic-allergy-seaseme-seeds</title>
    <desc>Created with Sketch.</desc>
    <defs></defs>
    <g id="ic-allergy-seaseme-seeds" stroke="none" stroke-width="1" fill="none" fill-rule="evenodd">
        <g id="icons/not-used/allergens/ic-allergy-seaseme-seeds" transform="translate(5.000000, 5.000000)" fill="#D70F64">
            <g id="-g-" transform="translate(8.750000, 11.666667)">
                <path d="M49.8669792,39.2748125 C49.6817708,39.6321042 49.2763542,39.9966875 48.8344792,40.2023125 C48.7251042,40.2533542 48.6069792,40.2898125 48.4815625,40.3116875 C47.9390625,40.4021042 47.4096875,40.1891875 47.2303125,39.9398125 C46.8832292,39.4571042 46.9386458,38.1300208 47.4709375,37.4854375 C48.2073958,36.5929375 49.1903125,36.0387708 50.3876042,35.4539792 C50.5028125,36.7387708 50.4867708,38.0731458 49.8669792,39.2748125 M51.8167708,33.6689792 C51.7438542,33.5187708 51.6665625,33.3583542 51.5921875,33.1804375 L51.4886458,32.9296042 L51.2509375,33.0652292 C50.8819792,33.2781458 50.5319792,33.4691875 50.1965625,33.6529375 C49.4892708,34.0393958 48.8228125,34.4054375 48.2103125,34.8268958 C47.2332292,35.4977292 46.5215625,36.1058542 45.9688542,36.7387708 C45.0209375,37.8281458 44.8984375,40.1541875 45.7355208,41.1837708 C46.6513542,42.3125208 47.8996875,42.2760625 48.9978125,42.0908542 C49.0969792,42.0733542 49.1976042,42.0558542 49.2967708,42.0368958 C50.2359375,41.8560625 50.9417708,41.2450208 51.4536458,40.1702292 C52.2148958,38.5733542 52.4409375,36.7475208 52.1492708,34.5877292 C52.1069792,34.2741875 51.9728125,33.9941875 51.8167708,33.6689792" id="Fill-1"></path>
                <path d="M49.8675625,39.2745208 L49.8792292,39.2745208 L49.8675625,39.2745208 Z M50.0017292,36.1216042 C49.0479792,36.6188958 48.3552708,37.0855625 47.8054792,37.7505625 C47.3825625,38.2609792 47.3563125,39.3838958 47.5823542,39.6974375 C47.6552708,39.7980625 48.0008958,39.9657708 48.4077708,39.8957708 C48.4952708,39.8811875 48.5754792,39.8578542 48.6483958,39.8228542 C49.0056875,39.6551458 49.3411042,39.3591042 49.4840208,39.0834792 C49.9725625,38.1355625 50.0469375,37.0870208 50.0017292,36.1216042 L50.0017292,36.1216042 Z M48.2225625,40.7532708 C47.6713125,40.7532708 47.1288125,40.5316042 46.8765208,40.1801458 C46.3836042,39.4947292 46.5148542,37.9722292 47.1346458,37.2211875 C47.9644375,36.2163958 49.1019375,35.6111875 50.1956875,35.0759792 C50.3225625,35.0161875 50.4713125,35.0176458 50.5981875,35.0861875 C50.7221458,35.1547292 50.8038125,35.2786875 50.8169375,35.4157708 C50.9277708,36.6611875 50.9481875,38.1151458 50.2511042,39.4641042 L50.2511042,39.4655625 C50.0236042,39.9045208 49.5525625,40.3347292 49.0188125,40.5826458 C48.8744375,40.6511875 48.7169375,40.6993125 48.5506875,40.7270208 C48.4427708,40.7445208 48.3319375,40.7532708 48.2225625,40.7532708 L48.2225625,40.7532708 Z M51.2792292,33.5374375 C51.0269375,33.6788958 50.7833958,33.8145208 50.5456875,33.9443125 L50.4086042,34.0201458 C49.7129792,34.4007708 49.0581875,34.7580625 48.4588125,35.1707708 C47.5138125,35.8197292 46.8269375,36.4045208 46.2961042,37.0126458 C45.4911042,37.9372292 45.3700625,40.0561875 46.0729792,40.9209792 C46.8473542,41.8747292 47.8988125,41.8513958 48.9254792,41.6749375 L49.2142292,41.6238958 C50.0192292,41.4678542 50.6083958,40.9501458 51.0648542,39.9934792 C51.7881875,38.4709792 52.0040208,36.7209792 51.7225625,34.6413958 C51.6890208,34.3934792 51.5665208,34.1411875 51.4265208,33.8495208 C51.3783958,33.7503542 51.3288125,33.6468125 51.2792292,33.5374375 L51.2792292,33.5374375 Z M47.9688125,42.6097292 C47.0792292,42.6097292 46.1415208,42.3618125 45.3977708,41.4445208 C44.4381875,40.2632708 44.5621458,37.7053542 45.6398542,36.4672292 C46.2188125,35.8022292 46.9581875,35.1722292 47.9629792,34.4824375 C48.6002708,34.0434792 49.3046458,33.6584792 49.9871458,33.2851458 L50.1242292,33.2107708 C50.4144375,33.0518125 50.7177708,32.8841042 51.0327708,32.7018125 L51.2719375,32.5661875 C51.3813125,32.5034792 51.5140208,32.4888958 51.6292292,32.5311875 C51.7488125,32.5720208 51.8436042,32.6595208 51.8888125,32.7732708 L51.9923542,33.0241042 C52.0623542,33.1903542 52.1367292,33.3449375 52.2067292,33.4907708 C52.3700625,33.8305625 52.5246458,34.1528542 52.5756875,34.5305625 C52.8804792,36.7734792 52.6413125,38.6766042 51.8465208,40.3493125 C51.2690208,41.5538958 50.4640208,42.2407708 49.3790208,42.4493125 L49.0698542,42.5061875 C48.7242292,42.5630625 48.3523542,42.6097292 47.9688125,42.6097292 L47.9688125,42.6097292 Z" id="Fill-3"></path>
                <path d="M53.1275208,22.981875 C53.0371042,23.2647917 52.7891875,23.49375 52.4100208,23.6410417 C51.7012708,23.9210417 51.1121042,24.049375 50.5564792,24.049375 L50.5564792,24.049375 C49.8623125,24.049375 49.2016875,23.8408333 48.5439792,23.415 C48.7379375,23.235625 48.9260625,23.0591667 49.1083542,22.885625 C49.6377292,22.3854167 50.1364792,21.9114583 50.6848125,21.5279167 C51.4810625,20.9708333 52.3443958,21.1575 52.9058542,21.9902083 C53.1450208,22.3445833 53.2223125,22.6872917 53.1275208,22.981875 M53.1260625,19.9033333 C52.1664792,19.2135417 50.9021042,19.25875 49.9293958,20.0229167 C48.8808542,20.846875 47.9314792,21.8122917 47.0127292,22.7470833 L46.6977292,23.0679167 C46.4177292,23.3522917 46.2966875,23.6439583 46.3375208,23.9370833 C46.3827292,24.259375 46.6204375,24.5452083 47.0433542,24.7902083 C48.1312708,25.4129167 49.2658542,25.729375 50.4179375,25.729375 C51.3804375,25.729375 52.3779375,25.5077083 53.3812708,25.0716667 C54.6077292,24.5364583 55.1371042,23.5841667 54.9504375,22.2410417 C54.8031458,21.1822917 54.1396042,20.558125 53.1260625,19.9033333" id="Fill-5"></path>
                <path d="M49.2576875,23.3308542 C50.1633125,23.7552292 51.0076875,23.7391875 52.2516458,23.2506458 C52.4281042,23.1821042 52.6526875,23.0552292 52.7168542,22.8583542 L52.7168542,22.8554375 C52.7708125,22.6891875 52.7110208,22.4631458 52.5462292,22.2210625 C52.3274792,21.8973125 52.0591458,21.6975208 51.7689375,21.6464792 C51.5108125,21.5983542 51.2162292,21.6741875 50.9362292,21.8710625 C50.4199792,22.2312708 49.9372708,22.6877292 49.4253958,23.1689792 C49.3699792,23.2243958 49.3131042,23.2768958 49.2576875,23.3308542 M50.5570625,24.4712708 C49.7739375,24.4712708 49.0360208,24.2408542 48.3053958,23.7654375 C48.1960208,23.6939792 48.1260208,23.5773125 48.1143542,23.4489792 C48.1041458,23.3206458 48.1537292,23.1952292 48.2499792,23.1077292 C48.4410208,22.9298125 48.6262292,22.7562708 48.8056042,22.5841875 C49.3626875,22.0591875 49.8672708,21.5823125 50.4345625,21.1856458 C50.9085208,20.8546042 51.4174792,20.7291875 51.9264375,20.8166875 C52.4514375,20.9129375 52.9151875,21.2366875 53.2666458,21.7587708 C53.6618542,22.3435625 53.6326875,22.8146042 53.5378958,23.1077292 C53.4489375,23.3906458 53.2068542,23.7814792 52.5724792,24.0323125 C51.8083125,24.3312708 51.1681042,24.4712708 50.5570625,24.4712708 M51.6274792,19.8381458 C51.1331042,19.8381458 50.6343542,20.0102292 50.1983125,20.3514792 C49.1774792,21.1521042 48.2441458,22.1029375 47.3414375,23.0216875 L47.0074792,23.3600208 C46.8237292,23.5466875 46.7420625,23.7216875 46.7639375,23.8806458 C46.7974792,24.1139792 47.0541458,24.3050208 47.2626875,24.4260625 C49.1366458,25.5023125 51.1258125,25.5912708 53.2053958,24.6871042 C54.2510208,24.2321042 54.6841458,23.4504375 54.5237292,22.2968958 C54.3968542,21.3912708 53.8281042,20.8633542 52.8889375,20.2537708 C52.8816458,20.2508542 52.8758125,20.2479375 52.8699792,20.2435625 C52.4937292,19.9723125 52.0635208,19.8381458 51.6274792,19.8381458 M50.4170625,26.1512708 C49.1876875,26.1512708 47.9801875,25.8158542 46.8251875,25.1523125 C46.2812292,24.8387708 45.9735208,24.4493958 45.9108125,23.9929375 C45.8699792,23.7012708 45.9195625,23.2506458 46.3876875,22.7752292 L46.7026875,22.4543958 C47.6418542,21.4991875 48.5956042,20.5293958 49.6601875,19.6952292 C50.7685208,18.8216875 52.2603958,18.7648125 53.3731042,19.5581458 C54.4537292,20.2581458 55.2091458,20.9741875 55.3753958,22.1846042 C55.5897708,23.7129375 54.9597708,24.8460625 53.5568542,25.4571042 C52.4951875,25.9179375 51.4393542,26.1512708 50.4170625,26.1512708" id="Fill-7"></path>
                <path d="M7.65975,7.68629167 C7.91495833,7.202125 8.92266667,6.72670833 9.69558333,6.72670833 C9.799125,6.72670833 9.89975,6.73545833 9.99454167,6.75441667 C11.1451667,6.97608333 12.1032917,7.569625 13.18975,8.33670833 C12.0799583,9.03233333 10.86225,9.639 9.466625,9.660875 C9.06266667,9.660875 8.55225,9.47858333 8.16725,9.19858333 C7.646625,8.8165 7.46433333,8.059625 7.65975,7.68629167 M9.14725,11.4575417 C9.23620833,11.4575417 9.32516667,11.454625 9.414125,11.45025 C11.2137083,11.3685833 12.9739167,10.71525 14.7924583,9.45816667 C15.057875,9.275875 15.2489167,9.02941667 15.4705833,8.742125 C15.5726667,8.60941667 15.6820417,8.46795833 15.8089167,8.322125 L15.9868333,8.11795833 L15.7535,7.97504167 C15.3932917,7.75483333 15.0593333,7.54191667 14.7385,7.33775 C14.0574583,6.904625 13.4143333,6.49483333 12.7464167,6.15941667 C11.68475,5.62420833 10.8024583,5.29170833 9.97266667,5.10795833 C9.79183333,5.06858333 9.59641667,5.04816667 9.39079167,5.04816667 C7.987875,5.04816667 6.29475,5.96254167 5.83975,6.96879167 C5.22141667,8.33670833 5.89808333,9.44941667 6.72204167,10.4498333 C7.279125,11.1279583 8.07245833,11.4575417 9.14725,11.4575417" id="Fill-9"></path>
                <path d="M8.04227083,7.879375 C7.9533125,8.04854167 8.05685417,8.59104167 8.42435417,8.86083333 C8.73497917,9.086875 9.15352083,9.24 9.4670625,9.24 C10.5651875,9.22104167 11.5510208,8.79958333 12.4070625,8.3125 C11.5131042,7.7175 10.7693542,7.33395833 9.91185417,7.16625 C9.28477083,7.05395833 8.22602083,7.529375 8.04227083,7.879375 L8.04227083,7.879375 Z M9.47435417,10.0814583 C8.9683125,10.0814583 8.37185417,9.87291667 7.9095625,9.53604167 C7.26352083,9.06208333 6.96310417,8.089375 7.27664583,7.49291667 C7.6339375,6.81479167 8.8501875,6.30729167 9.69602083,6.30729167 C9.82872917,6.30729167 9.95414583,6.3175 10.0766458,6.339375 C11.3774792,6.593125 12.4522708,7.29604167 13.4410208,7.99604167 C13.5562292,8.07770833 13.6233125,8.21041667 13.6189375,8.34895833 C13.6160208,8.4875 13.5416458,8.61729167 13.4220625,8.693125 C12.3472708,9.36541667 11.0376875,10.0566667 9.47435417,10.0814583 L9.47435417,10.0814583 Z M9.39122917,5.46875 C8.15602083,5.46875 6.62039583,6.28104167 6.2339375,7.13854167 C5.73810417,8.23520833 6.20477083,9.15104167 7.0564375,10.185 C7.53477083,10.766875 8.19977083,11.0366667 9.1476875,11.0366667 L9.3314375,11.0322917 C11.1076875,10.9520833 12.7920625,10.325 14.5449792,9.11458333 C14.7564375,8.96729167 14.9212292,8.75729167 15.1268542,8.48895833 C15.1939375,8.40145833 15.2639375,8.31104167 15.3397708,8.21770833 C15.0466458,8.036875 14.7695625,7.86041667 14.5026875,7.68979167 C13.8333125,7.26541667 13.2018542,6.86291667 12.5485208,6.53333333 C11.5203958,6.015625 10.6731042,5.69333333 9.87685417,5.51833333 C9.72810417,5.48625 9.56185417,5.46875 9.39122917,5.46875 L9.39122917,5.46875 Z M9.1476875,11.878125 C7.93435417,11.878125 7.03164583,11.4975 6.3870625,10.714375 C5.5208125,9.66291667 4.73185417,8.37666667 5.4464375,6.79875 C6.04289583,5.47020833 8.39372917,4.33708333 10.0635208,4.69583333 C10.9341458,4.88979167 11.8485208,5.23395833 12.9422708,5.78375 C13.6349792,6.13375 14.2853958,6.54645833 14.9722708,6.98395833 C15.2901875,7.188125 15.6241458,7.39958333 15.9814375,7.61833333 L16.2147708,7.76125 C16.3212292,7.82541667 16.3926875,7.93333333 16.4131042,8.05291667 C16.4306042,8.17541667 16.3956042,8.29791667 16.3139375,8.39125 L16.1360208,8.59541667 C16.0164375,8.73395833 15.9114375,8.86958333 15.8137292,8.99645833 C15.5818542,9.296875 15.3631042,9.57979167 15.0422708,9.80291667 C13.1508125,11.108125 11.3176875,11.7847917 9.43497917,11.8722917 L9.1476875,11.878125 Z" id="Fill-11"></path>
                <path d="M4.41145833,20.0386667 C4.98458333,19.3065833 5.595625,18.6211667 6.243125,17.8934583 C6.418125,17.6980417 6.593125,17.5011667 6.768125,17.3028333 C7.75833333,18.7145 7.84145833,19.9497083 7.02625,21.0740833 C6.74770833,21.4561667 6.26791667,21.685125 5.744375,21.685125 C5.12166667,21.685125 4.59083333,21.3774167 4.35895833,20.8786667 C4.2525,20.64825 4.27875,20.2078333 4.41145833,20.0386667 M3.65895833,22.8342917 C4.33125,23.3199167 5.0925,23.5765833 5.85958333,23.5765833 C6.8775,23.5765833 7.80645833,23.1128333 8.40875,22.3034583 C10.0697917,20.07075 9.63958333,17.2561667 7.28583333,14.9592917 L7.11229167,14.790125 L6.94458333,14.9636667 C6.55083333,15.3705417 6.16,15.7628333 5.775,16.15075 C4.91166667,17.021375 4.095,17.8424167 3.32791667,18.727625 C2.63958333,19.5224167 2.33479167,20.2895 2.42083333,21.011375 C2.49958333,21.685125 2.91666667,22.297625 3.65895833,22.8342917" id="Fill-13"></path>
                <path d="M4.7586875,20.2871667 C4.7193125,20.367375 4.70764583,20.6138333 4.75139583,20.7071667 C4.9118125,21.049875 5.29097917,21.26425 5.74452083,21.26425 C6.12952083,21.26425 6.4780625,21.1009167 6.67347917,20.8296667 C7.29472917,19.9765417 7.31077083,19.0694583 6.71139583,18.00925 L6.56847917,18.1696667 C5.95889583,18.853625 5.32889583,19.5594583 4.7586875,20.2871667 M5.74452083,22.1071667 C4.94972917,22.1071667 4.2686875,21.7032083 3.9668125,21.05425 C3.81077083,20.713 3.8224375,20.0990417 4.06889583,19.7825833 C4.6580625,19.0315417 5.29827083,18.311125 5.9180625,17.6169583 L6.4430625,17.0263333 C6.5305625,16.928625 6.65889583,16.8805 6.7930625,16.8819583 C6.92577083,16.88925 7.04827083,16.9563333 7.12410417,17.06425 C8.21347917,18.617375 8.29952083,20.048 7.37785417,21.3182083 C7.01910417,21.811125 6.4080625,22.1071667 5.74452083,22.1071667 M3.91577083,22.4965417 C5.2880625,23.4896667 7.14160417,23.289875 8.0618125,22.0546667 C9.55514583,20.0465417 9.1905625,17.5090417 7.11972917,15.3959167 C6.84702083,15.6744583 6.57722917,15.9471667 6.30889583,16.2169583 L6.0843125,16.4444583 C5.20785417,17.3282083 4.40577083,18.136125 3.65472917,19.0009167 C3.0480625,19.702375 2.7768125,20.363 2.84827083,20.962375 C2.91389583,21.5150833 3.27264583,22.0313333 3.91577083,22.4965417 M5.85972917,23.9971667 C4.99785417,23.9971667 4.1505625,23.7113333 3.4024375,23.1732083 C2.56097917,22.5650833 2.08702083,21.8534167 1.99222917,21.058625 C1.8930625,20.218625 2.23139583,19.3421667 2.99847917,18.4569583 C3.76702083,17.5702917 4.57785417,16.7521667 5.43535417,15.887375 L5.6905625,15.6307083 C6.0011875,15.3171667 6.31472917,15.0007083 6.6311875,14.6740417 L6.80035417,14.5005 C6.88202083,14.4159167 7.03514583,14.3677917 7.1124375,14.3677917 C7.22764583,14.3677917 7.33702083,14.413 7.4186875,14.4932083 L7.59077083,14.6638333 C10.1049375,17.1152917 10.5511875,20.1384167 8.7574375,22.5505 C8.07347917,23.46925 7.01764583,23.9971667 5.85972917,23.9971667" id="Fill-15"></path>
                <path d="M21.8941042,15.4705833 C20.7741042,16.6985 19.7445208,17.1287083 18.3284792,16.95225 C18.4203542,16.70725 18.5063958,16.4680833 18.5909792,16.23475 C18.8374375,15.5551667 19.0693125,14.9135 19.3872292,14.3301667 C19.8466042,13.482875 20.7070208,13.27725 21.5849375,13.776 C21.9611875,13.9889167 22.1857708,14.2630833 22.2353542,14.5693333 C22.2834792,14.861 22.1653542,15.1730833 21.8941042,15.4705833 M20.8324375,11.811625 C19.6511875,11.6074583 18.5501458,12.1980833 18.0236875,13.31225 C17.4593125,14.506625 17.0480625,15.7885 16.6499375,17.0280833 L16.5172292,17.4437083 C16.3947292,17.8214167 16.4195208,18.1364167 16.5901458,18.3799583 C16.7782708,18.64975 17.1209792,18.8014167 17.6109792,18.8349583 C17.7947292,18.8480833 17.9755625,18.8539167 18.1534792,18.8539167 C20.2272292,18.8539167 21.9976458,18.0037083 23.4136875,16.3280833 C24.2682708,15.3145417 24.3091042,14.2339167 23.5303542,13.111 C22.9163958,12.22725 22.0384792,11.9574583 20.8324375,11.811625" id="Fill-17"></path>
                <path d="M21.89425,15.4707292 L21.9059167,15.4707292 L21.89425,15.4707292 Z M20.6619583,13.9292708 C20.5744583,13.9292708 20.4913333,13.9409375 20.411125,13.9628125 C20.1515417,14.0357292 19.9284167,14.2311458 19.7665417,14.5271875 C19.4632083,15.0842708 19.2371667,15.7113542 18.998,16.3748958 L18.9265417,16.5673958 C19.921125,16.5630208 20.6984167,16.1473958 21.5719583,15.1907292 C21.6988333,15.0507292 21.8432083,14.8407292 21.8096667,14.6351042 C21.7732083,14.4119792 21.5500833,14.2442708 21.3677917,14.1392708 C21.1227917,14.0007292 20.883625,13.9292708 20.6619583,13.9292708 L20.6619583,13.9292708 Z M18.9075833,17.4103125 C18.7034167,17.4103125 18.4934167,17.3971875 18.2746667,17.3694792 C18.1434167,17.3534375 18.0282083,17.2805208 17.961125,17.1711458 C17.8925833,17.0617708 17.8794583,16.9261458 17.9232083,16.8080208 L18.18425,16.0948958 C18.4350833,15.3992708 18.6727917,14.7444792 19.00675,14.1319792 C19.2809167,13.6273958 19.684875,13.2890625 20.1734167,13.1519792 C20.6882083,13.0090625 21.251125,13.0994792 21.802375,13.4115625 C22.423625,13.7644792 22.61175,14.2005208 22.659875,14.5023958 C22.7284167,14.9238542 22.5752917,15.3555208 22.2165417,15.7507292 L22.2150833,15.7507292 C21.1752917,16.8926042 20.1588333,17.4103125 18.9075833,17.4103125 L18.9075833,17.4103125 Z M20.3790417,12.1938542 C19.5463333,12.1938542 18.7996667,12.6736458 18.416125,13.4888542 C17.864875,14.6526042 17.4594583,15.9140625 17.068625,17.1332292 L16.928625,17.5692708 C16.8484167,17.8186458 16.85425,18.0111458 16.9446667,18.1409375 C17.0832083,18.3392708 17.3996667,18.3990625 17.6402917,18.4151042 C19.8190417,18.5463542 21.6332083,17.7719792 23.0813333,16.0584375 C23.8105,15.1965625 23.8396667,14.3098958 23.1746667,13.3473958 C22.6482083,12.5905208 21.8971667,12.3644792 20.778625,12.2303125 C20.7713333,12.2288542 20.7640417,12.2273958 20.75675,12.2273958 C20.629875,12.2055208 20.503,12.1938542 20.3790417,12.1938542 L20.3790417,12.1938542 Z M18.153625,19.2755208 C17.9655,19.2755208 17.7744583,19.2682292 17.5819583,19.2551042 C16.9519583,19.2142708 16.499875,18.9984375 16.2344583,18.6163542 C16.0638333,18.3728125 15.9019583,17.9498958 16.106125,17.3155208 L16.2402917,16.9028125 C16.6471667,15.6355208 17.059875,14.3478125 17.633,13.1344792 C18.2425833,11.8453125 19.5171667,11.1584375 20.8952917,11.3946875 C22.183,11.5507292 23.1834167,11.8642708 23.8863333,12.8734375 C24.7715417,14.1523958 24.7234167,15.4371875 23.7463333,16.5965625 C22.2427917,18.3742708 20.3615417,19.2755208 18.153625,19.2755208 L18.153625,19.2755208 Z" id="Fill-19"></path>
                <path d="M22.808625,3.800125 C23.2563333,3.31595833 23.6427917,2.89741667 24.0715417,2.53429167 C24.2334167,2.39575 24.541125,2.317 24.9159167,2.317 C25.442375,2.317 25.9994583,2.47741667 26.2415417,2.69908333 C26.5638333,2.99220833 26.70675,3.37429167 26.6265417,3.717 C26.5521667,4.03054167 26.3071667,4.26533333 25.93675,4.377625 C24.9144583,4.68679167 23.8863333,4.66054167 22.379875,4.26095833 C22.5300833,4.102 22.673,3.94741667 22.808625,3.800125 M26.8394583,5.91033333 C28.203,5.53408333 28.7557083,4.15595833 28.504875,3.04179167 C28.1782083,1.59658333 26.5405,0.421166667 24.8532083,0.421166667 C24.1809167,0.421166667 23.5771667,0.616583333 23.1046667,0.987 C22.2763333,1.63741667 21.5588333,2.43220833 20.7975833,3.27366667 C20.437375,3.67179167 20.0625833,4.08741667 19.65425,4.51179167 L19.46175,4.71158333 L19.6965417,4.86470833 C21.172375,5.82575 22.6555,6.29241667 24.2305,6.29241667 C25.0500833,6.29241667 25.9032083,6.167 26.8394583,5.91033333" id="Fill-21"></path>
                <path d="M22.8084792,3.80041667 L22.8201458,3.80041667 L22.8084792,3.80041667 Z M23.1891042,4.01770833 C24.2288958,4.22916667 25.0236875,4.20875 25.8082708,3.97395833 C26.0343125,3.906875 26.1670208,3.78875 26.2063958,3.6225 C26.2530625,3.42708333 26.1553542,3.19666667 25.9468125,3.005625 C25.8243125,2.89333333 25.3984792,2.73729167 24.9172292,2.73729167 C24.5774375,2.73729167 24.3995208,2.81166667 24.3543125,2.85104167 C23.9634792,3.18354167 23.6003542,3.57145833 23.1891042,4.01770833 L23.1891042,4.01770833 Z M24.5103542,5.009375 C23.8511875,5.009375 23.1322292,4.895625 22.2688958,4.668125 C22.1230625,4.62875 22.0093125,4.52083333 21.9670208,4.379375 C21.9247292,4.23791667 21.9611875,4.08625 22.0632708,3.976875 L22.4891042,3.5175 C22.9455625,3.023125 23.3393125,2.59729167 23.7899375,2.21520833 C24.0991042,1.95125 24.5730625,1.89583333 24.9172292,1.89583333 C25.4524375,1.89583333 26.1626458,2.04895833 26.5345208,2.39166667 C26.9705625,2.78979167 27.1616042,3.320625 27.0449375,3.81208333 C26.9370208,4.27145833 26.5782708,4.624375 26.0620208,4.77895833 C25.5559792,4.93354167 25.0543125,5.009375 24.5103542,5.009375 L24.5103542,5.009375 Z M20.1251458,4.63604167 C22.2032708,5.92375 24.1866042,6.20520833 26.7226458,5.50375 C27.8397292,5.19604167 28.2918125,4.055625 28.0847292,3.13104167 C27.8032708,1.89 26.3245208,0.841458333 24.8545208,0.841458333 C24.2799375,0.841458333 23.7695208,1.00625 23.3728542,1.31541667 C22.5707708,1.946875 21.8663958,2.72708333 21.1197292,3.5525 L21.0395208,3.64291667 C20.7493125,3.96375 20.4474375,4.29625 20.1251458,4.63604167 L20.1251458,4.63604167 Z M26.8393125,5.90916667 L26.8509792,5.90916667 L26.8393125,5.90916667 Z M24.2303542,6.71416667 C22.5693125,6.71416667 21.0074375,6.22416667 19.4572292,5.215 L19.2238958,5.06333333 C19.1188958,4.99479167 19.0488958,4.88395833 19.0343125,4.76 C19.0182708,4.6375 19.0605625,4.515 19.1480625,4.42458333 L19.3405625,4.22479167 C19.7153542,3.83395833 20.0624375,3.45041667 20.3934792,3.08291667 L20.4751458,2.99395833 C21.2451458,2.14083333 21.9743125,1.33583333 22.8347292,0.659166667 C23.3845208,0.2275 24.0830625,0 24.8545208,0 C26.7313958,0 28.5572292,1.32270833 28.9261875,2.95020833 C29.2193125,4.25541667 28.5645208,5.87270833 26.9559792,6.31458333 C25.9803542,6.58291667 25.0878542,6.71416667 24.2303542,6.71416667 L24.2303542,6.71416667 Z" id="Fill-23"></path>
                <path d="M28.0018958,18.8881875 C28.7383542,17.9956875 29.7212708,17.4415208 30.9200208,16.8567292 C31.0337708,18.1415208 31.0177292,19.4758958 30.3979375,20.6775625 C30.2141875,21.0363125 29.8087708,21.3994375 29.3668958,21.6065208 C29.2575208,21.6561042 29.1379375,21.6925625 29.0125208,21.7144375 C28.4700208,21.8048542 27.9406458,21.5933958 27.7627292,21.3440208 C27.4141875,20.8598542 27.4696042,19.5327708 28.0018958,18.8881875 M29.5302292,23.4936042 C29.6293958,23.4775625 29.7300208,23.4586042 29.8291875,23.4396458 C30.7683542,23.2588125 31.4727292,22.6492292 31.9860625,21.5744375 C32.7458542,19.9761042 32.9733542,18.1502708 32.6816875,15.9904792 C32.6393958,15.6769375 32.5037708,15.3969375 32.3477292,15.0731875 C32.2748125,14.9215208 32.1975208,14.7611042 32.1231458,14.5831875 L32.0210625,14.3323542 L31.7833542,14.4694375 C31.4143958,14.6808958 31.0629375,14.8719375 30.7275208,15.0556875 C30.0216875,15.4421458 29.3552292,15.8096458 28.7427292,16.2296458 C27.7656458,16.9004792 27.0525208,17.5086042 26.4998125,18.1415208 C25.5533542,19.2308958 25.4308542,21.5569375 26.2664792,22.5865208 C27.1837708,23.7167292 28.4306458,23.6788125 29.5302292,23.4936042" id="Fill-25"></path>
                <path d="M28.3365833,19.1533125 C27.915125,19.6651875 27.8874167,20.7881042 28.1134583,21.1001875 C28.1878333,21.2037292 28.545125,21.3670625 28.938875,21.2985208 C29.026375,21.2853958 29.1065833,21.2606042 29.1795,21.2256042 C29.5367917,21.0593542 29.8736667,20.7633125 30.015125,20.4876875 C30.5036667,19.5383125 30.5780417,18.4897708 30.5342917,17.5243542 C29.5790833,18.0216458 28.8849167,18.4897708 28.3365833,19.1533125 M28.7536667,22.1574792 C28.2053333,22.1574792 27.6628333,21.9358125 27.4105417,21.5858125 C26.9147083,20.8989375 27.0474167,19.3749792 27.66575,18.6239375 C28.4955417,17.6206042 29.6315833,17.0139375 30.7267917,16.4801875 C30.8536667,16.4189375 31.003875,16.4203958 31.1292917,16.4889375 C31.2547083,16.5574792 31.3349167,16.6814375 31.3480417,16.8199792 C31.458875,18.0639375 31.4792917,19.5164375 30.7836667,20.8668542 C30.5547083,21.3087292 30.0836667,21.7374792 29.551375,21.9853958 C29.407,22.0539375 29.2480417,22.1020625 29.0817917,22.1297708 C28.973875,22.1472708 28.8645,22.1574792 28.7536667,22.1574792 M31.8103333,14.9401875 C31.5172083,15.1078958 31.2328333,15.2624792 30.960125,15.4112292 C30.2440833,15.8035208 29.5892917,16.1622708 28.9899167,16.5749792 C28.046375,17.2224792 27.3595,17.8072708 26.8286667,18.4153958 C26.0236667,19.3414375 25.902625,21.4603958 26.6040833,22.3251875 C27.3784583,23.2789375 28.431375,23.2541458 29.4565833,23.0791458 L29.4580417,23.0791458 C29.5528333,23.0631042 29.6461667,23.0470625 29.7380417,23.0266458 C30.5503333,22.8720625 31.1380417,22.3528958 31.5959583,21.3947708 C32.3192917,19.8737292 32.535125,18.1237292 32.2536667,16.0456042 C32.2215833,15.7991458 32.106375,15.5614375 31.9605417,15.2595625 C31.9095,15.1516458 31.8599167,15.0466458 31.8103333,14.9401875 M28.4999167,24.0139375 C27.6103333,24.0139375 26.672625,23.7645625 25.928875,22.8487292 C24.97075,21.6689375 25.0947083,19.1095625 26.1724167,17.8685208 C26.7528333,17.2035208 27.4892917,16.5749792 28.4955417,15.8866458 C29.131375,15.4476875 29.8372083,15.0626875 30.51825,14.6893542 C30.8653333,14.4983125 31.2065833,14.3116458 31.563875,14.1045625 L31.8045,13.9689375 C31.9124167,13.9062292 32.045125,13.8945625 32.1617917,13.9353958 C32.2799167,13.9747708 32.3747083,14.0622708 32.421375,14.1760208 L32.5234583,14.4268542 C32.592,14.5887292 32.6634583,14.7403958 32.732,14.8833125 C32.9040833,15.2406042 33.0586667,15.5599792 33.1097083,15.9362292 C33.410125,18.1776875 33.1724167,20.0793542 32.377625,21.7520625 C31.800125,22.9581042 30.9936667,23.6449792 29.9115833,23.8520625 C29.8109583,23.8724792 29.7059583,23.8914375 29.6009583,23.9089375 C29.2567917,23.9672708 28.8834583,24.0139375 28.4999167,24.0139375" id="Fill-27"></path>
                <path d="M23.9529792,30.43425 L23.9529792,30.43425 C23.3083958,30.43425 22.7061042,30.2096667 22.1606875,29.7677917 C21.7494375,29.4338333 21.5540208,28.8752917 21.6531875,28.3094583 C21.7479792,27.7727917 22.0863125,27.3527917 22.5588125,27.1821667 C22.6317292,27.1559167 22.7323542,27.1413333 22.8402708,27.1413333 C23.0736042,27.1413333 23.3083958,27.2055 23.4119375,27.2959167 C24.1177708,27.9113333 24.7711042,28.5588333 25.4652708,29.2457083 C25.6504792,29.4294583 25.8371458,29.6146667 26.0267292,29.799875 C25.2815208,30.219875 24.5844375,30.43425 23.9529792,30.43425 L23.9529792,30.43425 Z M28.5642292,30.3219583 L28.3994375,30.1455 C28.0144375,29.7313333 27.6425625,29.323 27.2779792,28.9190417 C26.4540208,28.0105 25.6752708,27.153 24.8294375,26.3377917 C23.3667292,24.9246667 21.8661042,24.9363333 20.6177708,26.3538333 C19.9527708,27.10925 19.6246458,28.0221667 19.6975625,28.9263333 C19.7617292,29.7400833 20.1554792,30.4852917 20.8044375,31.024875 C21.7538125,31.8138333 22.8869375,32.2294583 24.0798542,32.2294583 C25.5323542,32.2294583 27.0183958,31.62425 28.3775625,30.4794583 L28.5642292,30.3219583 Z" id="Fill-29"></path>
                <path d="M22.8407083,27.5632292 C22.7634167,27.5632292 22.71675,27.5748958 22.7065417,27.5778125 C22.3827917,27.6944792 22.1465417,27.9948958 22.0794583,28.3813542 C22.0050833,28.7984375 22.1407083,29.2038542 22.4352917,29.4444792 C23.25925,30.1109375 24.18675,30.1838542 25.3082083,29.6880208 L25.158,29.5421875 C24.462375,28.8523958 23.8163333,28.2121875 23.1250833,27.6098958 C23.1046667,27.5996875 22.9850833,27.5632292 22.8407083,27.5632292 M23.9519583,30.8546875 C23.20675,30.8546875 22.511125,30.5980208 21.8855,30.0934375 C21.3546667,29.6603125 21.1038333,28.9501042 21.22925,28.2384375 C21.3502917,27.5515625 21.7907083,27.0090625 22.4105,26.7873958 C22.5621667,26.7319792 22.7284167,26.7217708 22.8407083,26.7217708 C23.1119583,26.7217708 23.4765417,26.7903125 23.69675,26.9813542 C24.409875,27.6011458 25.066125,28.2501042 25.7602917,28.9384375 L26.3305,29.5013542 C26.4252917,29.5932292 26.4705,29.7244792 26.453,29.8542708 C26.4355,29.9840625 26.35675,30.0978125 26.2415417,30.1634375 C25.4307083,30.6228125 24.6607083,30.8546875 23.9519583,30.8546875 M22.6540417,25.7053125 C22.6321667,25.7053125 22.6088333,25.7053125 22.5869583,25.7067708 C22.01675,25.7286458 21.4640417,26.0407292 20.944875,26.6284375 C20.3527917,27.2992708 20.0625833,28.1028125 20.12675,28.8932292 C20.1821667,29.5932292 20.5219583,30.2363542 21.0834167,30.7044792 C22.988,32.2853125 25.661125,32.1219792 27.944875,30.2844792 C27.6313333,29.9446875 27.3250833,29.6092708 27.026125,29.2767708 C26.1802917,28.3448958 25.381125,27.4596875 24.528,26.6371875 C23.8863333,26.0173958 23.2577917,25.7053125 22.6540417,25.7053125 M24.0802917,32.6513542 C22.7838333,32.6513542 21.553,32.2007292 20.5263333,31.3461458 C19.7884167,30.7321875 19.3407083,29.8848958 19.2677917,28.9588542 C19.186125,27.9438542 19.5507083,26.9215625 20.2915417,26.0786458 C20.9725833,25.3071875 21.732375,24.8973958 22.5519583,24.8653125 C23.4109167,24.8303125 24.29175,25.2240625 25.1332083,26.0378125 C26.00675,26.8807292 26.8175833,27.7761458 27.59925,28.6394792 C28.0119583,29.0944792 28.3590417,29.4765625 28.7177917,29.8644792 L28.881125,30.0365625 C28.9584167,30.1196875 28.99925,30.2305208 28.994875,30.3457292 C28.9875833,30.4594792 28.933625,30.5659375 28.846125,30.6403125 L28.6594583,30.7978125 C27.2171667,32.0111458 25.634875,32.6513542 24.0802917,32.6513542" id="Fill-31"></path>
                <path d="M43.045625,19.9745 C42.8414583,20.783875 42.2172917,21.08575 41.4691667,20.7415833 C40.355,20.223875 39.2933333,19.5078333 39.0133333,17.8117917 C39.27875,17.8292917 39.5383333,17.8424167 39.7920833,17.857 C40.5270833,17.896375 41.2227083,17.9328333 41.8833333,18.0684583 C42.3470833,18.1603333 42.6985417,18.377625 42.9027083,18.6940833 C43.1214583,19.0324167 43.1710417,19.47575 43.045625,19.9745 M42.5002083,16.5022083 C41.1716667,16.3097083 39.8052083,16.2834583 38.4810417,16.2586667 L37.9779167,16.2499167 C37.5914583,16.2499167 37.30125,16.3636667 37.1175,16.58825 C36.9104167,16.8390833 36.8579167,17.2022083 36.9629167,17.6674167 C37.45875,19.8811667 38.8354167,21.4765833 41.055,22.4084583 C41.4633333,22.5790833 41.8570833,22.6665833 42.2275,22.6665833 C42.9770833,22.6665833 43.6552083,22.31075 44.244375,21.6122083 C44.9385417,20.7897083 44.9516667,19.8549167 44.7620833,18.7159583 C44.625,17.53325 43.75875,16.6859583 42.5002083,16.5022083" id="Fill-33"></path>
                <path d="M39.5599167,18.2648958 C39.893875,19.3396875 40.646375,19.8923958 41.6540833,20.3605208 C41.8203333,20.4363542 42.0595,20.5107292 42.2636667,20.4159375 C42.4765833,20.3167708 42.5786667,20.0659375 42.62825,19.8748958 L42.62825,19.8734375 C42.7245,19.4884375 42.6953333,19.1588542 42.5392917,18.9182292 C42.361375,18.6426042 42.037625,18.5273958 41.7955417,18.4807292 C41.171375,18.3523958 40.4961667,18.3159375 39.7830417,18.2765625 L39.5599167,18.2648958 Z M42.0492917,21.3040625 C41.8305417,21.3040625 41.5753333,21.2544792 41.285125,21.1217708 C40.1272083,20.5851042 38.9022083,19.7801042 38.5886667,17.8784375 C38.5667917,17.7501042 38.6061667,17.6217708 38.695125,17.5269792 C38.7811667,17.4321875 38.9036667,17.3738542 39.0422083,17.3913542 L39.7859583,17.4336458 C40.5778333,17.4759375 41.2836667,17.5153125 41.972,17.6553125 C42.5509583,17.7719792 42.9986667,18.0519792 43.2684583,18.4690625 C43.551375,18.9065625 43.6184583,19.4636458 43.4624167,20.0761458 C43.2947083,20.7455208 42.9184583,21.0444792 42.632625,21.1771875 C42.4867917,21.2457292 42.291375,21.3040625 42.0492917,21.3040625 L42.0492917,21.3040625 Z M37.9717917,16.6723958 C37.5999167,16.6723958 37.4905417,16.8065625 37.4540833,16.8517708 C37.3009583,17.0355208 37.3315833,17.3461458 37.3840833,17.5765625 C37.8492917,19.6503125 39.141375,21.1451042 41.2253333,22.0215625 C42.2709583,22.4634375 43.15325,22.2446875 43.9115833,21.3448958 C44.505125,20.6419792 44.5153333,19.8442708 44.3359583,18.7840625 C44.2192917,17.7646875 43.5090833,17.0748958 42.4372083,16.9188542 C41.132,16.7292708 39.780125,16.7044792 38.4734583,16.6796875 L37.9717917,16.6723958 Z M42.2272083,23.0861458 C41.7955417,23.0861458 41.3449167,22.9898958 40.8855417,22.7944792 C38.5317917,21.8057292 37.0705417,20.1111458 36.542625,17.7573958 C36.4084583,17.1609375 36.4886667,16.6782292 36.7817917,16.3238542 C36.9655417,16.0992708 37.3242917,15.8294792 37.9790833,15.8294792 L38.4880417,15.8382292 C39.823875,15.8630208 41.2034583,15.8892708 42.562625,16.0846875 C44.023875,16.2990625 45.030125,17.2892708 45.1890833,18.6688542 C45.3684583,19.7363542 45.4209583,20.8796875 44.5765833,21.8801042 C43.9028333,22.6807292 43.1124167,23.0861458 42.2272083,23.0861458 L42.2272083,23.0861458 Z" id="Fill-35"></path>
                <path d="M42.5691875,7.28145833 C41.9421042,8.246875 41.0423125,8.94833333 39.5081458,9.65270833 C39.5183542,9.40625 39.5256458,9.17 39.5314792,8.94395833 C39.5533542,8.23520833 39.5708542,7.62270833 39.6641875,7.02770833 C39.7618958,6.400625 40.9635625,5.62479167 41.5964792,5.65395833 L41.6125208,5.420625 L41.6008542,5.65395833 C42.0835625,5.67729167 42.4816875,5.8975 42.6654375,6.24166667 C42.8331458,6.558125 42.7981458,6.92708333 42.5691875,7.28145833 M41.8254375,3.78729167 C40.1498125,3.70708333 38.1314792,4.69145833 37.7931458,6.42104167 C37.5758542,7.52645833 37.5554375,8.675625 37.5321042,9.89333333 C37.5218958,10.4708333 37.5102292,11.0716667 37.4781458,11.703125 L37.4650208,11.97875 L37.7450208,11.9466667 C40.6500208,11.6083333 42.6975208,10.3629167 44.3833542,7.90416667 C45.2335625,6.66458333 44.7041875,5.158125 43.6993958,4.414375 C43.1918958,4.03958333 42.5429375,3.82229167 41.8254375,3.78729167" id="Fill-37"></path>
                <path d="M41.556375,6.07366667 C41.092625,6.07366667 40.147625,6.72554167 40.0892917,7.09304167 C40.0003333,7.66179167 39.9828333,8.26116667 39.9624167,8.95679167 L39.9624167,8.95970833 C41.0372083,8.39679167 41.7095,7.81929167 42.2053333,7.055125 C42.3059583,6.89908333 42.4036667,6.66283333 42.282625,6.43533333 C42.1703333,6.22533333 41.906375,6.08970833 41.57825,6.075125 C41.5709583,6.075125 41.5636667,6.07366667 41.556375,6.07366667 M39.5074167,10.073875 C39.42575,10.073875 39.3411667,10.0505417 39.2697083,10.003875 C39.1442917,9.92366667 39.071375,9.78366667 39.0772083,9.636375 L39.0990833,8.997625 C39.1224167,8.210125 39.141375,7.58595833 39.237625,6.96470833 C39.3528333,6.22970833 40.3824167,5.46408333 41.2092917,5.2745 C41.2734583,5.10533333 41.4615833,4.99741667 41.6395,5.00033333 C41.8217917,5.01054167 41.9705417,5.13158333 42.0215833,5.292 C42.4795,5.40575 42.847,5.672625 43.0467917,6.04741667 C43.2845,6.49804167 43.2436667,7.028875 42.9315833,7.50720833 C42.2592917,8.54408333 41.2895,9.2995 39.6911667,10.0345 C39.6328333,10.0622083 39.570125,10.073875 39.5074167,10.073875 M41.6278333,4.20408333 C40.1695,4.20408333 38.4997083,5.051375 38.2167917,6.50095833 C38.0067917,7.56845833 37.9849167,8.700125 37.9630417,9.89741667 C37.9528333,10.437 37.942625,10.957625 37.9192917,11.4986667 C40.5705417,11.1399167 42.4605417,9.951375 44.0267917,7.66908333 C44.732625,6.63658333 44.2834583,5.375125 43.4405417,4.75095833 C43.0015833,4.42720833 42.43575,4.23908333 41.8028333,4.207 C41.7459583,4.20554167 41.6861667,4.20408333 41.6278333,4.20408333 M37.46575,12.3999167 C37.3578333,12.3999167 37.2528333,12.3605417 37.172625,12.287625 C37.0778333,12.2015833 37.0297083,12.082 37.0355417,11.9580417 L37.0486667,11.683875 C37.0778333,11.0699167 37.0909583,10.4865833 37.1011667,9.92658333 C37.1245,8.647625 37.1449167,7.48095833 37.3695,6.342 C37.7515833,4.38929167 40.0309583,3.27658333 41.8465833,3.36554167 L41.8480417,3.36554167 C42.6515833,3.406375 43.3822083,3.65283333 43.9597083,4.07866667 C45.1234583,4.94054167 45.7330417,6.69345833 44.741375,8.13866667 C42.9797083,10.70825 40.8374167,12.0105417 37.7953333,12.3634583 L37.5167917,12.397 C37.50075,12.3984583 37.4817917,12.3999167 37.46575,12.3999167" id="Fill-39"></path>
                <path d="M13.3039375,28.4799375 C13.2135208,28.7628542 12.9656042,28.9918125 12.5878958,29.1391042 C11.8776875,29.4191042 11.2885208,29.5474375 10.7328958,29.5474375 L10.7328958,29.5474375 C10.0387292,29.5474375 9.37810417,29.3388958 8.72039583,28.9130625 C8.91435417,28.7336875 9.10247917,28.5572292 9.28477083,28.3836875 C9.81414583,27.8834792 10.3128958,27.4095208 10.8612292,27.0259792 C11.6574792,26.4688958 12.5208125,26.6555625 13.0822708,27.4882708 C13.3214375,27.8426458 13.3987292,28.1853542 13.3039375,28.4799375 M15.1268542,27.7391042 C14.9795625,26.6788958 14.3160208,26.0561875 13.3024792,25.4013958 C12.3428958,24.7116042 11.0785208,24.7568125 10.1058125,25.5209792 C9.05727083,26.3449375 8.10789583,27.3103542 7.18914583,28.2451458 L6.87414583,28.5659792 C6.59414583,28.8503542 6.47310417,29.1420208 6.5139375,29.4351458 C6.55914583,29.7574375 6.79685417,30.0432708 7.21977083,30.2882708 C8.3076875,30.9109792 9.44227083,31.2274375 10.5943542,31.2274375 C11.5568542,31.2274375 12.5543542,31.0057708 13.5576875,30.5697292 C14.7856042,30.0345208 15.3135208,29.0822292 15.1268542,27.7391042" id="Fill-41"></path>
                <path d="M13.3040833,28.480375 L13.31575,28.480375 L13.3040833,28.480375 Z M9.435125,28.8289167 C10.3349167,29.2518333 11.18075,29.23725 12.427625,28.7487083 C12.6040833,28.6787083 12.8272083,28.5562083 12.8928333,28.3549583 C12.9599167,28.1405833 12.8374167,27.8912083 12.7222083,27.719125 C12.5049167,27.3939167 12.235125,27.1955833 11.946375,27.1430833 C11.6824167,27.0935 11.3936667,27.17225 11.1122083,27.369125 C10.5915833,27.7337083 10.1045,28.1945417 9.58825,28.6801667 C9.53866667,28.72975 9.48616667,28.7793333 9.435125,28.8289167 L9.435125,28.8289167 Z M10.7330417,29.9693333 C9.947,29.9693333 9.212,29.7389167 8.48283333,29.2635 C8.37345833,29.1920417 8.30345833,29.075375 8.29179167,28.9485 C8.280125,28.8187083 8.32970833,28.69475 8.4245,28.6057917 C8.617,28.4293333 8.80366667,28.2543333 8.98304167,28.0807917 C9.52845833,27.566 10.0374167,27.0832917 10.6105417,26.68225 C11.0859583,26.3512083 11.596375,26.2214167 12.103875,26.3162083 C12.628875,26.4095417 13.0911667,26.73475 13.442625,27.255375 C13.836375,27.8430833 13.8086667,28.314125 13.7153333,28.6057917 L13.7153333,28.6057917 C13.622,28.891625 13.381375,29.2839167 12.747,29.530375 C11.9842917,29.8293333 11.3440833,29.9693333 10.7330417,29.9693333 L10.7330417,29.9693333 Z M11.7990833,25.3376667 C11.3061667,25.3376667 10.808875,25.50975 10.37575,25.8495417 C9.35491667,26.6501667 8.420125,27.5995417 7.51741667,28.5182917 L7.18491667,28.8580833 C7.00116667,29.04475 6.91804167,29.21975 6.93991667,29.3757917 C6.97345833,29.6120417 7.22866667,29.8045417 7.43866667,29.924125 C9.31408333,31.000375 11.3003333,31.087875 13.3828333,30.1851667 C14.4284583,29.7287083 14.860125,28.9485 14.7011667,27.7964167 C14.5742917,26.8893333 14.0055417,26.3599583 13.066375,25.7518333 C12.677,25.47475 12.2395,25.3376667 11.7990833,25.3376667 L11.7990833,25.3376667 Z M10.5945,31.6493333 C9.365125,31.6493333 8.157625,31.3124583 7.002625,30.650375 C6.45866667,30.3382917 6.15095833,29.9474583 6.08825,29.491 C6.04595833,29.2007917 6.09408333,28.751625 6.565125,28.2732917 L6.880125,27.9524583 C7.81929167,26.99725 8.77304167,26.0274583 9.83616667,25.1932917 C10.948875,24.3168333 12.4465833,24.2643333 13.5578333,25.0605833 C14.6267917,25.7518333 15.385125,26.4693333 15.5528333,27.684125 C15.76575,29.211 15.1372083,30.344125 13.7328333,30.9551667 C12.6711667,31.416 11.6153333,31.6493333 10.5945,31.6493333 L10.5945,31.6493333 Z" id="Fill-43"></path>
                <path d="M18.505375,45.6421875 C18.2268333,46.0257292 17.7470417,46.2532292 17.2235,46.2532292 C16.6007917,46.2532292 16.0699583,45.9455208 15.8380833,45.4482292 C15.731625,45.2163542 15.757875,44.7759375 15.8905833,44.6067708 C16.4637083,43.8746875 17.07475,43.1892708 17.72225,42.4615625 C17.8957917,42.2661458 18.07225,42.0692708 18.24725,41.8709375 C19.2374583,43.2826042 19.3205833,44.5192708 18.505375,45.6421875 L18.505375,45.6421875 Z M18.5914167,39.3582292 L18.4237083,39.5317708 C18.0299583,39.9386458 17.639125,40.3309375 17.254125,40.7188542 C16.3907917,41.5894792 15.574125,42.4105208 14.8055833,43.2957292 C14.1187083,44.0905208 13.8139167,44.8576042 13.8985,45.5794792 C13.9787083,46.2532292 14.3957917,46.8657292 15.1380833,47.4023958 C15.810375,47.8880208 16.571625,48.1446875 17.3387083,48.1446875 C18.356625,48.1446875 19.2855833,47.6809375 19.887875,46.8715625 C21.5489167,44.6403125 21.1187083,41.8257292 18.7649583,39.5273958 L18.5914167,39.3582292 Z" id="Fill-45"></path>
                <path d="M18.5056667,45.6416042 L18.5173333,45.6416042 L18.5056667,45.6416042 Z M18.1906667,42.5776458 L18.04775,42.7380625 C17.40025,43.4628542 16.7950417,44.1424375 16.2335833,44.8628542 C16.2000417,44.9270208 16.1869167,45.1778542 16.2306667,45.2711875 C16.389625,45.6182708 16.77025,45.8326458 17.2223333,45.8326458 C17.6087917,45.8326458 17.955875,45.6693125 18.1542083,45.3980625 C18.774,44.5449375 18.7885833,43.6378542 18.1906667,42.5776458 L18.1906667,42.5776458 Z M17.2223333,46.6741042 C16.4275417,46.6741042 15.7465,46.2716042 15.4460833,45.6197292 C15.2900417,45.2857708 15.2987917,44.6688958 15.5481667,44.3495208 C16.127125,43.6101458 16.7425417,42.9203542 17.3929583,42.1911875 L17.920875,41.5961875 C18.0069167,41.4984792 18.113375,41.4561875 18.270875,41.4488958 C18.4050417,41.4561875 18.5260833,41.5247292 18.6019167,41.6311875 C19.6912917,43.1857708 19.7773333,44.6178542 18.857125,45.8851458 L18.8556667,45.8851458 C18.4969167,46.3795208 17.8873333,46.6741042 17.2223333,46.6741042 L17.2223333,46.6741042 Z M18.5975417,39.9628542 C18.249,40.3201458 17.9048333,40.6686875 17.562125,41.0113958 C16.704625,41.8761875 15.8937917,42.6943125 15.134,43.5693125 C14.5273333,44.2693125 14.254625,44.9299375 14.3260833,45.5322292 C14.3931667,46.0849375 14.7519167,46.5997292 15.3950417,47.0634792 C16.7687917,48.0580625 18.6179583,47.8597292 19.5410833,46.6230625 C21.0344167,44.6149375 20.6698333,42.0774375 18.5975417,39.9628542 L18.5975417,39.9628542 Z M17.3375417,48.5655625 C16.4785833,48.5655625 15.628375,48.2811875 14.8817083,47.7401458 C14.0417083,47.1334792 13.5662917,46.4232708 13.4715,45.6299375 C13.370875,44.7855625 13.7092083,43.9105625 14.47775,43.0238958 C15.2550417,42.1270208 16.0760833,41.3016042 16.94525,40.4251458 C17.3287917,40.0386875 17.7181667,39.6463958 18.1104583,39.2409792 L18.2781667,39.0688958 C18.3598333,38.9843125 18.4779583,38.9595208 18.5917083,38.9376458 C18.7054583,38.9376458 18.8148333,38.9813958 18.8935833,39.0586875 L19.0685833,39.2278542 C21.5842083,41.6836875 22.0319167,44.7082708 20.23525,47.1188958 C19.5498333,48.0391042 18.494,48.5655625 17.3375417,48.5655625 L17.3375417,48.5655625 Z" id="Fill-47"></path>
                <path d="M41.7609792,29.6775208 C40.6409792,30.9054375 39.6113958,31.3356458 38.1953542,31.1591875 C38.2872292,30.9141875 38.3732708,30.6750208 38.4578542,30.4416875 C38.7043125,29.7621042 38.9361875,29.1204375 39.2541042,28.5371042 C39.7134792,27.6898125 40.5738958,27.4841875 41.4532708,27.9829375 C41.8280625,28.1958542 42.0526458,28.4700208 42.1022292,28.7762708 C42.1503542,29.0679375 42.0322292,29.3800208 41.7609792,29.6775208 M40.6993125,26.0185625 C39.5180625,25.8143958 38.4170208,26.4050208 37.8905625,27.5191875 C37.3261875,28.7135625 36.9149375,29.9954375 36.5182708,31.2350208 L36.3841042,31.6506458 C36.2616042,32.0283542 36.2863958,32.3433542 36.4570208,32.5883542 C36.6451458,32.8566875 36.9878542,33.0083542 37.4778542,33.0418958 C37.6616042,33.0550208 37.8424375,33.0608542 38.0203542,33.0608542 C40.0955625,33.0608542 41.8645208,32.2106458 43.2805625,30.5350208 C44.1366042,29.5214792 44.1759792,28.4408542 43.3972292,27.3179375 C42.7832708,26.4341875 41.9053542,26.1643958 40.6993125,26.0185625" id="Fill-49"></path>
                <path d="M41.7609792,29.677375 L41.7726458,29.677375 L41.7609792,29.677375 Z M40.5286875,28.1359167 C40.4411875,28.1359167 40.3580625,28.1475833 40.2778542,28.1694583 C40.0182708,28.242375 39.7951458,28.4377917 39.6332708,28.7338333 C39.3386875,29.2763333 39.1155625,29.8888333 38.8793125,30.5363333 C38.8501458,30.6194583 38.8224375,30.69675 38.7947292,30.7740417 C39.7878542,30.7696667 40.5666042,30.3540417 41.4386875,29.397375 C41.5655625,29.257375 41.7099375,29.0488333 41.6763958,28.84175 C41.6399375,28.618625 41.4168125,28.4509167 41.2345208,28.3459167 C40.9895208,28.207375 40.7503542,28.1359167 40.5286875,28.1359167 L40.5286875,28.1359167 Z M38.7743125,31.6169583 C38.5701458,31.6169583 38.3601458,31.6038333 38.1413958,31.576125 C38.0101458,31.5600833 37.8949375,31.4857083 37.8263958,31.3763333 C37.7593125,31.2684167 37.7461875,31.1327917 37.7913958,31.0132083 C37.8818125,30.7725833 37.9678542,30.534875 38.0509792,30.3015417 C38.3149375,29.5752917 38.5468125,28.9350833 38.8734792,28.338625 C39.1476458,27.8340417 39.5516042,27.4957083 40.0401458,27.358625 C40.5534792,27.2157083 41.1163958,27.306125 41.6691042,27.6182083 C42.2888958,27.971125 42.4784792,28.4071667 42.5266042,28.7105 C42.5761875,29.003625 42.5368125,29.458625 42.0832708,29.957375 L42.0818125,29.957375 C41.0420208,31.09925 40.0255625,31.6169583 38.7743125,31.6169583 L38.7743125,31.6169583 Z M40.2472292,26.4005 C39.4130625,26.4005 38.6663958,26.88175 38.2828542,27.6969583 C37.7316042,28.85925 37.3261875,30.1207083 36.9353542,31.339875 L36.7953542,31.7759167 C36.6743125,32.1507083 36.7793125,32.302375 36.8143125,32.3519583 C36.9499375,32.5459167 37.2663958,32.6057083 37.5070208,32.62175 C39.6930625,32.76175 41.5028542,31.978625 42.9480625,30.2650833 C43.6772292,29.4032083 43.7063958,28.5165417 43.0413958,27.5540417 C42.5163958,26.8000833 41.7653542,26.5725833 40.6468125,26.4369583 C40.6395208,26.4355 40.6322292,26.4340417 40.6249375,26.4340417 C40.4980625,26.4121667 40.3711875,26.4005 40.2472292,26.4005 L40.2472292,26.4005 Z M38.0203542,33.4821667 C37.8322292,33.4821667 37.6411875,33.474875 37.4486875,33.46175 C36.8216042,33.4209167 36.3680625,33.2065417 36.1026458,32.8259167 C35.9305625,32.578 35.7701458,32.153625 35.9728542,31.523625 L36.1070208,31.1094583 C36.5138958,29.8421667 36.9266042,28.5544583 37.4997292,27.3425833 C38.1078542,26.0519583 39.3955625,25.3607083 40.7620208,25.6013333 C42.0511875,25.7588333 43.0530625,26.072375 43.7530625,27.0800833 C44.6397292,28.3605 44.5901458,29.6452917 43.6130625,30.8032083 C42.1109792,32.5809167 40.2297292,33.4821667 38.0203542,33.4821667 L38.0203542,33.4821667 Z" id="Fill-51"></path>
                <path d="M33.3421667,37.4218542 C33.26925,37.7353958 33.0227917,37.9701875 32.652375,38.0810208 C31.6300833,38.3901875 30.6019583,38.3639375 29.0969583,37.9658125 C29.2471667,37.8053958 29.388625,37.6522708 29.52425,37.5049792 C29.9719583,37.0193542 30.359875,36.6008125 30.7871667,36.2376875 C30.9505,36.1006042 31.2582083,36.0203958 31.633,36.0203958 C32.158,36.0203958 32.7150833,36.1822708 32.9571667,36.4024792 C33.2794583,36.6970625 33.422375,37.0776875 33.3421667,37.4218542 M35.2205,36.7466458 C34.8938333,35.3014375 33.256125,34.1260208 31.5688333,34.1260208 C30.898,34.1260208 30.2927917,34.3214375 29.8202917,34.6918542 C28.9934167,35.3408125 28.2744583,36.1370625 27.5146667,36.9785208 C27.1544583,37.3766458 26.7796667,37.7908125 26.3713333,38.2166458 L26.177375,38.4164375 L26.4121667,38.5695625 C27.8894583,39.5306042 29.3725833,39.9972708 30.946125,39.9972708 C31.7657083,39.9972708 32.6202917,39.8718542 33.5565417,39.6137292 C34.918625,39.2389375 35.4727917,37.8608125 35.2205,36.7466458" id="Fill-53"></path>
                <path d="M29.9026875,37.7225625 C30.9439375,37.9340208 31.7358125,37.9165208 32.5276875,37.6788125 C32.6808125,37.6321458 32.8733125,37.5329792 32.9214375,37.3288125 L32.9228958,37.3273542 C32.9695625,37.1319375 32.8718542,36.9015208 32.6633125,36.7104792 C32.5393542,36.5981875 32.1135208,36.4421458 31.6322708,36.4421458 C31.3187292,36.4421458 31.1233125,36.5106875 31.0693542,36.5573542 C30.6785208,36.8869375 30.3168542,37.2763125 29.9026875,37.7225625 M31.2268542,38.7142292 C30.5676875,38.7142292 29.8487292,38.6019375 28.9839375,38.3744375 C28.8381042,38.3350625 28.7243542,38.2256875 28.6835208,38.0842292 C28.6412292,37.9427708 28.6776875,37.7911042 28.7783125,37.6831875 L29.2026875,37.2238125 C29.6620625,36.7279792 30.0558125,36.3006875 30.5049792,35.9200625 C30.7499792,35.7129792 31.1510208,35.6006875 31.6322708,35.6006875 C32.1689375,35.6006875 32.8776875,35.7538125 33.2524792,36.0965208 C33.6870625,36.4946458 33.8781042,37.0240208 33.7614375,37.5169375 C33.6549792,37.9748542 33.2976875,38.3277708 32.7814375,38.4838125 C32.2739375,38.6369375 31.7722708,38.7142292 31.2268542,38.7142292 M26.8416458,38.3394375 C28.9168542,39.6300625 30.9089375,39.9042292 33.4406042,39.2086042 C34.5576875,38.9023542 35.0083125,37.7604792 34.7997708,36.8373542 C34.5197708,35.5963125 33.0410208,34.5477708 31.5695625,34.5477708 C30.9949792,34.5477708 30.4831042,34.7111042 30.0908125,35.0202708 C29.2960208,35.6444375 28.5931042,36.4217292 27.8493542,37.2442292 C27.5226875,37.6058958 27.1931042,37.9690208 26.8416458,38.3394375 M30.9468542,40.4175625 C29.2828958,40.4175625 27.7210208,39.9290208 26.1737292,38.9198542 L25.9389375,38.7667292 C25.8339375,38.6981875 25.7639375,38.5873542 25.7493542,38.4648542 C25.7362292,38.3408958 25.7785208,38.2169375 25.8645625,38.1265208 L26.0585208,37.9267292 C26.4624792,37.5052708 26.8343542,37.0940208 27.1916458,36.7002708 C27.9718542,35.8340208 28.6981042,35.0319375 29.5512292,34.3640208 C30.0995625,33.9323542 30.7966458,33.7048542 31.5695625,33.7048542 C33.4464375,33.7048542 35.2737292,35.0290208 35.6412292,36.6565208 C35.9372708,37.9617292 35.2810208,39.5761042 33.6724792,40.0208958 C32.6997708,40.2877708 31.8087292,40.4175625 30.9468542,40.4175625" id="Fill-55"></path>
                <path d="M35.669375,47.3669583 L35.669375,47.3669583 C35.0247917,47.3669583 34.4210417,47.142375 33.8770833,46.7005 C33.464375,46.3665417 33.2704167,45.808 33.3695833,45.2421667 C33.464375,44.7055 33.8027083,44.2855 34.2752083,44.114875 C34.348125,44.088625 34.4472917,44.0740417 34.5566667,44.0740417 C34.79,44.0740417 35.0247917,44.1382083 35.1283333,44.228625 C35.8341667,44.8440417 36.4875,45.4915417 37.1816667,46.1784167 C37.366875,46.3621667 37.5535417,46.547375 37.7416667,46.7325833 C36.9979167,47.1525833 36.3008333,47.3669583 35.669375,47.3669583 M38.9929167,45.85175 C38.1704167,44.9432083 37.3916667,44.0857083 36.5458333,43.2705 C35.0816667,41.857375 33.5825,41.8690417 32.3341667,43.2865417 C31.6691667,44.0419583 31.3410417,44.954875 31.4139583,45.8590417 C31.478125,46.6727917 31.871875,47.418 32.5208333,47.9575833 C33.4702083,48.7465417 34.6033333,49.1621667 35.79625,49.1621667 C37.2472917,49.1621667 38.7347917,48.5569583 40.0939583,47.4121667 L40.2791667,47.2546667 L40.114375,47.0782083 C39.7308333,46.6640417 39.3589583,46.2557083 38.9929167,45.85175" id="Fill-57"></path>
                <path d="M34.5560833,44.4955 C34.484625,44.4955 34.4335833,44.5071667 34.4160833,44.5115417 C34.099625,44.62675 33.863375,44.9271667 33.7948333,45.3150833 C33.7204583,45.7307083 33.8575417,46.1375833 34.152125,46.3782083 C34.9731667,47.04175 35.9079583,47.1190417 37.0235833,46.62175 L36.8748333,46.4744583 C36.225875,45.8313333 35.5550417,45.1663333 34.8404583,44.5421667 C34.8229583,44.5319583 34.7019167,44.4955 34.5560833,44.4955 M35.6687917,47.7869583 C34.9206667,47.7869583 34.2250417,47.5302917 33.6023333,47.0257083 C33.0715,46.5940417 32.8206667,45.8838333 32.944625,45.1707083 C33.067125,44.4838333 33.509,43.9413333 34.1273333,43.7196667 C34.4787917,43.5971667 35.0635833,43.61175 35.412125,43.9121667 C36.1485833,44.5538333 36.8281667,45.2290417 37.4873333,45.8809167 L38.045875,46.4321667 C38.1406667,46.5240417 38.1873333,46.6552917 38.1698333,46.7850833 C38.1523333,46.914875 38.0750417,47.0300833 37.958375,47.0957083 C37.1504583,47.553625 36.3804583,47.7869583 35.6687917,47.7869583 M34.370875,42.6390417 C34.3475417,42.6390417 34.3242083,42.6390417 34.3023333,42.6405 C33.732125,42.662375 33.180875,42.973 32.6617083,43.5621667 C32.069625,44.2315417 31.7794167,45.0350833 31.842125,45.8255 C31.899,46.5284167 32.2387917,47.1715417 32.80025,47.63675 C34.7048333,49.216125 37.3794167,49.05425 39.6617083,47.21675 C39.3248333,46.8507083 38.9967083,46.4890417 38.6715,46.1332083 C37.8562917,45.2334167 37.08775,44.3832083 36.2448333,43.5709167 C35.6017083,42.951125 34.9731667,42.6390417 34.370875,42.6390417 M35.7956667,49.583625 C34.5006667,49.583625 33.2698333,49.133 32.2431667,48.2784167 C31.5067083,47.667375 31.0575417,46.8200833 30.9831667,45.891125 C30.9029583,44.8746667 31.2675417,43.852375 32.008375,43.0109167 C32.6894167,42.2394583 33.4492083,41.8296667 34.2673333,41.7990417 C35.1481667,41.7582083 36.0056667,42.1577917 36.8485833,42.9715417 C37.713375,43.8027917 38.5285833,44.7040417 39.3160833,45.5732083 C39.6806667,45.97425 40.0510833,46.3840417 40.434625,46.79675 L40.5994167,46.9732083 C40.67525,47.0563333 40.7160833,47.1671667 40.71025,47.2809167 C40.7029583,47.3932083 40.6475417,47.4996667 40.5615,47.5740417 L40.3762917,47.7300833 C38.934,48.9434167 37.3517083,49.583625 35.7956667,49.583625" id="Fill-59"></path>
                <path d="M7.69766667,39.2539583 C7.489125,39.4041667 7.121625,39.4902083 6.6885,39.4902083 C6.09933333,39.4902083 5.52183333,39.3327083 5.18204167,39.0760417 C4.25308333,38.3789583 3.66391667,37.4310417 3.03683333,36.273125 C3.56183333,36.2147917 4.006625,36.1885417 4.417875,36.1885417 C5.40954167,36.1885417 6.216,36.3489583 6.955375,36.6916667 C7.32433333,36.86375 7.70641667,37.2502083 7.92808333,37.6789583 C8.22266667,38.24625 8.04329167,39.0045833 7.69766667,39.2539583 M7.83329167,35.118125 C6.167875,34.4064583 4.34641667,34.23 2.107875,34.57125 C1.7885,34.619375 1.50558333,34.7579167 1.17745833,34.9197917 C1.02579167,34.9927083 0.862458333,35.0729167 0.683083333,35.14875 L0.430791667,35.2552083 L0.575166667,35.4841667 C0.798291667,35.8385417 1.001,36.1754167 1.19641667,36.49625 C1.61058333,37.1802083 1.99995833,37.82625 2.44620833,38.4154167 C3.15641667,39.3560417 3.79516667,40.0385417 4.45579167,40.5620833 C5.01725,41.0083333 5.931625,41.27375 6.90141667,41.27375 C7.77933333,41.27375 8.54495833,41.059375 9.00433333,40.6860417 C10.1768333,39.729375 10.0762083,38.4372917 9.79183333,37.183125 C9.58475,36.26875 8.94454167,35.5935417 7.83329167,35.118125" id="Fill-62"></path>
                <path d="M3.72822917,36.635375 C4.26052083,37.5599583 4.75489583,38.2264167 5.4446875,38.7426667 C5.7071875,38.941 6.19572917,39.0693333 6.6871875,39.0693333 C7.08385417,39.0693333 7.34052083,38.9862083 7.44260417,38.91475 C7.5971875,38.801 7.75177083,38.2701667 7.5446875,37.869125 C7.3653125,37.5235 7.05322917,37.2026667 6.7703125,37.0714167 C5.93322917,36.6835 5.0071875,36.5435 3.72822917,36.635375 L3.72822917,36.635375 Z M7.6978125,39.2545417 L7.70802083,39.2545417 L7.6978125,39.2545417 Z M6.6871875,39.9107917 C5.99739583,39.9107917 5.33677083,39.724125 4.9196875,39.4120417 C3.87552083,38.6274583 3.2528125,37.5730833 2.6578125,36.4705833 C2.58927083,36.3480833 2.58927083,36.1993333 2.65635417,36.0768333 C2.7234375,35.9543333 2.84739583,35.86975 2.98885417,35.8551667 C4.8146875,35.6539167 6.0178125,35.791 7.14072917,36.3101667 C7.59572917,36.5230833 8.04489583,36.9737083 8.31322917,37.4885 C8.6778125,38.1899583 8.50572917,39.1932917 7.95447917,39.592875 C7.95302083,39.592875 7.95302083,39.5943333 7.9515625,39.5943333 C7.6671875,39.7985 7.2165625,39.9107917 6.6871875,39.9107917 L6.6871875,39.9107917 Z M1.0565625,35.445375 C1.20385417,35.6845417 1.34385417,35.9135 1.47802083,36.1351667 L1.56697917,36.281 C1.97385417,36.95475 2.35885417,37.5905833 2.7934375,38.1651667 C3.4803125,39.076625 4.09427083,39.7343333 4.72572917,40.2345417 C5.21572917,40.6224583 6.02947917,40.8543333 6.9015625,40.8543333 C7.66864583,40.8543333 8.35114583,40.6705833 8.72885417,40.362875 C9.66947917,39.5957917 9.66510417,38.5735 9.37197917,37.2755833 C9.19260417,36.491 8.64864583,35.9295417 7.66135417,35.5037083 C6.0703125,34.824125 4.32760417,34.657875 2.17510417,34.9874583 C1.9228125,35.025375 1.6778125,35.1449583 1.37010417,35.2951667 C1.26072917,35.349125 1.15864583,35.3987083 1.0565625,35.445375 L1.0565625,35.445375 Z M6.9015625,41.6957917 C5.8384375,41.6957917 4.8234375,41.3939167 4.18322917,40.8893333 C3.4934375,40.3424583 2.8328125,39.636625 2.10072917,38.665375 C1.63989583,38.05725 1.24322917,37.4024583 0.826145833,36.7112083 L0.735729167,36.565375 C0.569479167,36.28975 0.3959375,36.0039167 0.2078125,35.7049583 L0.0648958333,35.476 C-0.000729166667,35.371 -0.0182291667,35.244125 0.0196875,35.1274583 C0.0576041667,35.0107917 0.1465625,34.916 0.2603125,34.867875 L0.5140625,34.762875 C0.6715625,34.6943333 0.818854167,34.622875 0.957395833,34.5557917 C1.33072917,34.3735 1.6559375,34.2145417 2.0409375,34.15475 C4.3596875,33.8032917 6.25552083,33.9870417 8.00552083,34.73225 L8.00552083,34.7337083 C9.25239583,35.2674583 9.9728125,36.0389167 10.2119792,37.0918333 C10.5109375,38.4101667 10.6348958,39.9049583 9.28010417,41.010375 C8.7434375,41.4464167 7.8771875,41.6957917 6.9015625,41.6957917 L6.9015625,41.6957917 Z" id="Fill-64"></path>
            </g>
        </g>
    </g>
</svg>