<?xml version="1.0" encoding="UTF-8"?>
<svg width="80px" height="80px" viewBox="0 0 80 80" version="1.1" xmlns="http://www.w3.org/2000/svg" xmlns:xlink="http://www.w3.org/1999/xlink">
    <!-- Generator: Sketch 50.2 (55047) - http://www.bohemiancoding.com/sketch -->
    <title>ic-allergy-shellfish</title>
    <desc>Created with Sketch.</desc>
    <defs>
        <polygon id="path-1" points="0 58.3333333 37.9166667 58.3333333 37.9166667 0 0 0"></polygon>
    </defs>
    <g id="ic-allergy-shellfish" stroke="none" stroke-width="1" fill="none" fill-rule="evenodd">
        <g id="icons/not-used/allergens/ic-allergy-shellfish" transform="translate(5.000000, 5.000000)">
            <g id="-g-" transform="translate(14.583333, 5.833333)">
                <mask id="mask-2" fill="white">
                    <use xlink:href="#path-1"></use>
                </mask>
                <g id="Clip-2"></g>
                <path d="M7.11025,9.40377083 C7.01691667,9.79022917 6.922125,10.1898125 6.90754167,10.6039792 C6.887125,11.2718958 7.22108333,11.8114792 7.75483333,11.9762708 C8.29441667,12.1425208 8.86316667,11.8829375 9.21170833,11.3156458 C9.39108333,11.0268958 9.47566667,10.7118958 9.555875,10.4071042 C9.61129167,10.2000208 9.66379167,10.0046042 9.74545833,9.81939583 C10.0167083,9.18939583 10.4425417,8.57252083 10.982125,8.02272917 C12.005875,8.96189583 12.3967083,10.2948125 12.0860833,11.7968958 C11.664625,13.8429375 10.0429583,15.7037708 8.23025,16.2229375 C6.51525,16.7143958 5.27275,15.9254375 4.53045833,15.1787708 C2.9015,13.5410625 2.04691667,10.4639792 2.625875,8.3173125 L2.625875,8.31585417 L2.625875,8.31439583 C3.269,5.9460625 5.02775,4.15522917 6.50066667,3.01772917 C6.56191667,3.2554375 6.664,3.5135625 6.76316667,3.77022917 C6.87108333,4.04585417 6.98191667,4.3316875 7.018375,4.53439583 C7.132125,5.1760625 7.18316667,5.8235625 7.23275,6.54252083 L7.24004167,6.64314583 C7.27358333,7.1404375 7.307125,7.65377083 7.307125,8.15397917 C7.307125,8.5798125 7.2065,8.99835417 7.11025,9.40377083 M15.6181667,49.9950208 C16.7804583,50.5389792 18.349625,50.7096042 20.3067083,50.4966875 C20.5517083,50.4704375 20.8681667,50.3537708 21.202125,50.2298125 C21.5769167,50.0941875 22.0450417,49.9352292 22.252125,49.9600208 C22.5875417,50.0198125 23.1285833,50.6177292 23.8723333,51.7581458 L23.8942083,51.7916875 C24.4965,52.7177292 25.0856667,54.0462708 24.4673333,55.1152292 C24.247125,55.4943958 23.9612917,55.7189792 23.6185833,55.7816875 C23.144625,55.8662708 22.5700417,55.6577292 22.0144167,55.2085625 C21.7417083,54.9854375 21.4194167,54.4575208 21.0781667,53.8989792 C20.46275,52.8912708 19.767125,51.7479375 18.918375,51.6954375 C18.8994167,51.6939792 18.8775417,51.6925208 18.857125,51.6925208 C18.48525,51.6925208 18.1265,51.9054375 17.7925417,52.3254375 C17.619,52.5456458 17.4162917,52.8854375 17.1800417,53.2777292 C16.5412917,54.3466875 15.6662917,55.8108542 14.7242083,55.9289792 C14.3815,55.9639792 14.0387917,55.8268958 13.6975417,55.4827292 C13.27025,55.0554375 13.0792083,54.5231458 13.125875,53.8975208 C13.23525,52.4333542 14.6148333,50.7737708 15.6181667,49.9950208 M14.9648333,44.3089792 C17.4965,45.8300208 20.4831667,45.8358542 22.91275,44.3206458 C22.995875,45.3633542 22.764,46.2135625 22.2200417,46.8523125 C21.5550417,47.6354375 20.458375,48.0525208 19.049625,48.0583542 L19.0073333,48.0583542 C17.4935833,48.0583542 16.33275,47.6354375 15.6444167,46.8318958 C15.1048333,46.2004375 14.875875,45.3531458 14.9648333,44.3089792 M23.7906667,39.3579375 L23.7906667,39.3608542 L23.7906667,39.3623125 C22.943375,42.2731458 20.11275,43.2589792 17.7473333,42.7281458 C15.70275,42.2702292 13.8185833,40.6135625 13.9965,37.9156458 C15.484,39.4512708 17.1844167,40.2591875 18.94025,40.2591875 C20.6829583,40.2591875 22.3717083,39.4629375 23.8519167,37.9491875 C23.853375,37.9856458 23.8548333,38.0191875 23.85775,38.0541875 C23.8898333,38.4975208 23.919,38.9160625 23.7906667,39.3579375 M18.927125,37.9054375 C18.9125417,37.9054375 18.8950417,37.9054375 18.879,37.9039792 C16.4217083,37.8996042 14.2137917,34.8487708 12.9654583,31.9933542 C11.5785833,28.8185625 11.4356667,25.3885625 12.5629583,22.3318958 C13.397125,20.0714792 15.4504583,17.2291875 18.4881667,16.6531458 C21.0562917,16.1646042 23.84025,19.1250208 24.90775,21.2833542 C26.4142083,24.3298125 26.4637917,28.2177292 25.0375417,31.6841875 C24.61025,32.7268958 22.3104583,37.9054375 18.927125,37.9054375 M30.7410833,9.66772917 C30.6812917,9.44314583 30.6229583,9.23022917 30.6010833,9.0654375 C30.3779583,7.31397917 30.54275,4.7473125 31.273375,3.02939583 C31.45275,3.19564583 31.7473333,3.4348125 32.22275,3.8066875 C32.4385833,3.97585417 32.6587917,4.1479375 32.7142083,4.2048125 C33.3879583,4.88585417 33.9260833,5.56397917 34.3562917,6.27710417 C35.280875,7.7966875 35.6410833,9.45335417 35.399,11.0633542 C35.088375,13.1458542 33.6431667,15.2196042 31.9617083,15.9896042 C30.8212917,16.5146042 29.6429583,16.4139792 28.552125,15.7052292 C28.5492083,15.7037708 28.54775,15.7023125 28.5448333,15.7008542 C26.4550417,14.3416875 25.4400417,12.2766875 25.8279583,10.1723125 C25.918375,9.6823125 26.0656667,9.24627083 26.268375,8.87002083 C26.3981667,8.62064583 26.5615,8.38585417 26.7831667,8.1291875 C26.8531667,7.99939583 26.9012917,7.9585625 26.9042083,7.94689583 C26.9231667,7.96002083 26.977125,8.0110625 27.0515,8.17439583 L27.0792083,8.2341875 L27.134625,8.2691875 C27.7106667,8.62939583 27.9512917,9.39064583 28.18025,10.1285625 C28.2765,10.4289792 28.3654583,10.7133542 28.4762917,10.9627292 C28.9429583,12.0273125 29.5817083,12.1425208 30.0265,12.0404375 C30.3837917,11.9675208 30.6419167,11.7998125 30.7950417,11.5475208 C31.107125,11.0298125 30.9044167,10.2758542 30.7410833,9.66772917 M35.1948333,16.6677292 C37.582125,14.2979375 38.5023333,10.6710625 37.5412917,7.42772917 C36.8019167,4.92522917 34.5225417,1.55939583 31.759,0.246895833 C31.1844167,-0.0258125 30.660875,-0.0214375 30.1912917,0.257104167 C28.8612917,1.05627083 28.4004583,3.94814583 28.2400417,5.88335417 C27.5312917,5.25772917 26.8619167,4.98064583 25.760875,5.7535625 C24.3069167,6.77439583 23.3662917,8.6848125 23.3079583,10.7366875 C23.219,13.8443958 25.139625,16.8733542 27.9600417,18.2048125 C27.5473333,18.2587708 27.125875,18.2485625 26.7015,18.1858542 C25.8600417,18.0618958 25.5844167,17.7818958 25.034625,17.2277292 L24.8435833,17.0352292 C23.8315,16.0289792 22.6254583,15.2239792 21.3537917,14.7004375 C20.81275,12.5858542 20.9600417,10.2218958 21.762125,8.19772917 C22.14275,7.2366875 22.6794167,6.35439583 23.3575417,5.57564583 C23.529625,5.37877083 23.800875,5.1673125 24.0881667,4.94272917 C24.7181667,4.45127083 25.4298333,3.89564583 25.4837917,3.19127083 C25.515875,2.77710417 25.3817083,2.42127083 25.1031667,2.18502083 C24.794,1.91960417 24.3273333,1.8335625 23.862125,1.9560625 C22.9842083,2.18647917 22.094625,3.25689583 21.5054583,3.96564583 L21.3960833,4.09689583 C20.2017083,5.5260625 19.3792083,7.2410625 18.9387917,9.2054375 C18.349625,6.5979375 17.0604583,4.3885625 15.169,2.7654375 L15.0217083,2.63564583 C14.6367083,2.29439583 14.158375,1.87002083 13.598375,1.87002083 L13.580875,1.87002083 C13.2075417,1.87585417 12.8619167,2.04210417 12.6344167,2.32647917 C12.41275,2.6035625 12.3237917,2.96522917 12.390875,3.32252083 C12.4900417,3.84897917 12.9115,4.1610625 13.2848333,4.43522917 C13.4073333,4.5241875 13.5269167,4.61314583 13.6319167,4.7079375 C14.1962917,5.21252083 14.7300417,5.83085417 15.1762917,6.49439583 C15.9637917,7.66689583 16.4975417,9.06252083 16.7162917,10.5325208 C17.0429583,12.6966875 16.9087917,14.2483542 16.3531667,14.7908542 C16.1300417,15.0081458 15.7217083,15.1991875 15.3250417,15.3829375 C15.0100417,15.5287708 14.6862917,15.6789792 14.44275,15.8510625 C13.8798333,16.2477292 13.3519167,16.7012708 12.8692083,17.2014792 C12.04525,18.0575208 11.0944167,18.3798125 9.90295833,18.2150208 C12.9012917,16.8193958 14.8262917,13.6110625 14.54775,10.3210625 C14.3887917,8.4179375 13.4773333,6.71022917 12.11525,5.7535625 C11.0710833,5.02147917 10.4323333,5.17460417 9.64191667,5.8760625 C9.51941667,4.1129375 9.21608333,0.999395833 7.55941667,0.141895833 C6.152125,-0.582895833 3.98795833,1.6016875 2.41441667,3.5660625 C-0.357875,7.0179375 -0.751625,11.4629375 1.278375,14.8550208 L1.18504167,14.9366875 L1.3265,15.1043958 C1.540875,15.3566875 1.707125,15.5521042 1.838375,15.7052292 C1.93025,15.8116875 2.03670833,15.9356458 2.15629167,16.0756458 C4.017125,18.2587708 7.28670833,20.7321042 10.5300417,20.7408542 C8.84420833,24.6127292 8.99441667,29.3435625 10.9515,33.4750208 C11.0725417,33.7302292 11.2110833,33.9664792 11.34525,34.1939792 C11.7025417,34.7991875 12.01025,35.3212708 11.839625,35.9979375 C11.5435833,37.1908542 11.45025,38.1635625 11.5479583,39.0589792 C11.6485833,39.9777292 11.9665,40.9168958 12.4667083,41.7729375 L12.5862917,41.9741875 C12.7787917,42.2935625 12.7787917,42.2935625 12.7612917,42.7514792 C12.7554583,42.9702292 12.7044167,43.1991875 12.649,43.4412708 C12.600875,43.6585625 12.5512917,43.8816875 12.5337917,44.1091875 C12.4565,45.0789792 12.5556667,45.9904375 12.828375,46.8216875 C12.9129583,47.0768958 13.0704583,47.3306458 13.222125,47.5741875 C13.3737917,47.8206458 13.5312917,48.0743958 13.5794167,48.2843958 C13.6115,48.4141875 13.6144167,48.4608542 13.6173333,48.4652292 C13.607125,48.4812708 13.5604583,48.5177292 13.5181667,48.5527292 C13.4467083,48.6125208 13.3504583,48.6927292 13.2265,48.8166875 C12.4054583,49.6479375 10.518375,51.8558542 10.71525,54.4371042 C10.8567083,56.2877292 12.285875,58.3046042 14.3494167,58.3337708 L14.4019167,58.3337708 C16.044,58.3337708 17.719625,57.2268958 18.9417083,55.3500208 C19.9100417,56.7791875 21.5710833,58.1821042 23.3050417,58.3002292 C24.4192083,58.3687708 25.3992083,57.9021042 26.1823333,56.9352292 C28.5069167,54.0608542 26.2887917,50.2779375 24.2456667,48.4331458 C24.9325417,47.6704375 25.1994167,46.4104375 25.2869167,45.8752292 C25.384625,45.2685625 25.3000417,44.6166875 25.218375,43.9881458 C25.1250417,43.2618958 25.0360833,42.5764792 25.2373333,42.0543958 C25.3569167,41.7393958 25.5012917,41.4404375 25.6412917,41.1502292 C25.9212917,40.5683542 26.2129583,39.9660625 26.3106667,39.2296042 C26.3923333,38.6229375 26.3835833,37.9564792 26.2800417,37.1908542 C26.250875,36.9648125 26.1648333,36.6979375 26.0715,36.4135625 C25.9519167,36.0402292 25.8148333,35.6187708 25.8469167,35.3723125 C25.879,35.1171042 26.1779583,34.6825208 26.4185833,34.3325208 C26.5775417,34.1021042 26.72775,33.8833542 26.8167083,33.7010625 C27.1185833,33.0914792 27.3810833,32.4673125 27.6012917,31.8431458 C27.9935833,30.7246042 28.2648333,29.5812708 28.4048333,28.4452292 C28.735875,25.7939792 28.3610833,23.0771042 27.3519167,20.7510625 C27.397125,20.7525208 27.440875,20.7525208 27.484625,20.7525208 C30.5923333,20.7525208 33.6212917,18.2281458 35.1948333,16.6677292" id="Fill-1" fill="#D70F64" mask="url(#mask-2)"></path>
            </g>
        </g>
    </g>
</svg>