<?xml version="1.0" encoding="UTF-8"?>
<svg width="80px" height="80px" viewBox="0 0 80 80" version="1.1" xmlns="http://www.w3.org/2000/svg" xmlns:xlink="http://www.w3.org/1999/xlink">
    <!-- Generator: Sketch 50.2 (55047) - http://www.bohemiancoding.com/sketch -->
    <title>ic-allergy-milk</title>
    <desc>Created with Sketch.</desc>
    <defs></defs>
    <g id="ic-allergy-milk" stroke="none" stroke-width="1" fill="none" fill-rule="evenodd">
        <g id="icons/not-used/allergens/ic-allergy-milk" transform="translate(5.000000, 5.000000)" fill="#D70F64">
            <g id="-g-" transform="translate(20.416667, 5.833333)">
                <path d="M23.3333333,5.83333333 L23.3333333,1.45833333 C23.3333333,0.652925 22.6804171,0 21.875,0 L4.375,0 C3.56958583,0 2.91666667,0.652925 2.91666667,1.45833333 L2.91666667,5.83333333 L0,11.6666667 L0,56.875 C0,57.6804145 0.652918,58.3333333 1.45833333,58.3333333 L24.7916667,58.3333333 C25.5970808,58.3333333 26.25,57.6804145 26.25,56.875 L26.25,11.6666667 L23.3333333,5.83333333 Z M4.725,8.75 L21.525,8.75 L22.9833333,11.6666667 L3.26666667,11.6666667 L4.725,8.75 Z M5.83333333,2.91666667 L20.4166667,2.91666667 L20.4166667,5.83333333 L5.83333333,5.83333333 L5.83333333,2.91666667 Z M23.3333333,55.4166667 L2.91666667,55.4166667 L2.91666667,14.5833333 L23.3333333,14.5833333 L23.3333333,55.4166667 Z" id="Fill-1"></path>
                <path d="M20.4166667,26.25 L5.83333333,26.25 L5.83333333,35 L20.4166667,35 L20.4166667,26.25 Z M17.5,32.0833333 L8.75,32.0833333 L8.75,29.1666667 L17.5,29.1666667 L17.5,32.0833333 Z" id="Fill-3"></path>
            </g>
        </g>
    </g>
</svg>