<?xml version="1.0" encoding="UTF-8"?>
<svg width="80px" height="80px" viewBox="0 0 80 80" version="1.1" xmlns="http://www.w3.org/2000/svg" xmlns:xlink="http://www.w3.org/1999/xlink">
    <!-- Generator: Sketch 50.2 (55047) - http://www.bohemiancoding.com/sketch -->
    <title>ic-allergen-info </title>
    <desc>Created with Sketch.</desc>
    <defs>
        <path d="M74.9288548,24.9198082 C75.2637904,23.3323447 74.4660608,21.7224024 73.0001083,21.0272471 C71.764378,20.4785363 70.4514276,20.123682 69.1075472,19.9752036 C69.4324183,19.4352949 69.6914314,18.8583893 69.8790458,18.2568658 C70.6447932,14.8062332 69.8632652,11.1933403 67.7398906,8.3676566 C67.0853793,7.51728981 66.0775917,7.01336095 65.0045774,7 C64.5344893,7.00091177 64.0693809,7.09629705 63.6369208,7.28054494 C60.3938914,8.66682271 57.9118402,11.3919661 56.833706,14.750054 C56.7038137,15.3607653 56.6449694,15.9844518 56.6583654,16.6086643 C55.3820262,16.0297247 54.0199103,15.6625265 52.6255318,15.5215526 L52.3449869,15.5215526 C50.81244,15.5523074 49.4774669,16.5748236 49.0485838,18.0464571 C48.4018225,20.7001317 48.57299,23.4873808 49.5395375,26.041988 C48.0069906,26.0727427 46.6720175,27.0952589 46.2431344,28.5668925 C45.5963731,31.2205671 45.7675406,34.0078162 46.734088,36.5624233 C45.2015762,36.5931781 43.866568,37.6157293 43.437685,39.0873313 L43.437685,39.4730771 C44.7538966,41.0112384 45.8730255,42.7076095 46.7691562,44.5228896 C46.4472308,43.008501 46.4472308,41.4433478 46.7691562,39.9289627 C49.0961713,39.9389536 51.2436025,41.1813854 52.4120722,43.1937729 C53.5805419,45.2061533 53.5950601,47.6870578 52.4501913,49.712971 C50.4526411,49.4711378 48.6662712,48.3530435 47.5757229,46.6620448 C48.2173993,48.574695 48.5719029,50.5719085 48.6277664,52.5885532 C50.5370852,54.6954633 50.8898354,57.7854624 49.5044694,60.2684745 C48.9540402,60.1657916 48.4140964,60.0132032 47.8913359,59.812582 C47.6458591,60.8646325 47.2951779,61.9166761 46.9094286,63.0037842 C47.558259,63.2482476 48.227043,63.4359812 48.9083114,63.5648846 L46.8743605,71.0694531 C46.7566368,71.5019853 46.8162877,71.9636133 47.0400924,72.3520071 C47.2639322,72.7403938 47.6334099,73.0234735 48.0666765,73.138479 L48.5225621,73.1384724 C49.2969713,73.1469203 49.9771876,72.6258898 50.1707636,71.876018 L52.1696463,64.4415805 C53.4074457,64.8885202 54.7112432,65.1255702 56.0271393,65.1429464 C60.9847191,64.8487424 65.1548443,61.3212931 66.2670297,56.4811248 C66.6621772,54.9772321 66.0197995,53.3927178 64.6889644,52.5885532 C66.8366411,50.8758404 68.3940864,48.5335706 69.1426154,45.8905462 C69.497119,44.4008596 68.8440805,42.8534087 67.5294819,42.0681179 C69.6754053,40.3538024 71.2324297,38.0121393 71.9831329,35.3701073 C72.3376365,33.8804137 71.684598,32.3329629 70.3699995,31.5476825 C72.5428902,29.8671832 74.1367011,27.5500223 74.9288548,24.9198082 Z M65.0045774,10.5068118 C65.0045774,10.5068118 70.7557488,18.1867296 62.0939237,21.0272471 C56.0972755,14.2591004 65.0045774,10.5068118 65.0045774,10.5068118 Z M52.3099188,18.9231601 C54.6262381,18.9400278 56.7618163,20.1776518 57.9280767,22.1790244 C59.0943371,24.1803619 59.1182185,26.6485262 57.9909539,28.6720968 C50.1356955,27.2693721 52.3099188,18.9231601 52.3099188,18.9231601 Z M49.4694012,29.4435954 C51.7964163,29.4535898 53.9438476,30.6960182 55.1123173,32.7084021 C56.280787,34.7207861 56.2953052,37.2016801 55.1504363,39.2276038 C47.2951779,37.7898075 49.4694012,29.4435954 49.4694012,29.4435954 Z M56.0271393,61.8114647 C55.0569798,61.8018525 54.0958679,61.6238678 53.1866217,61.2854464 C54.0633247,56.0602969 56.9739785,54.8679809 59.3586105,54.8679809 C60.566146,54.8982482 61.7566736,55.1601579 62.8654223,55.6394795 C62.8654223,55.6394795 61.3224251,61.8114682 56.0622074,61.8114682 L56.0271393,61.8114647 Z M58.8676568,51.2910293 C57.8974973,51.2814172 56.9363854,51.1034359 56.0271393,50.7650111 C56.9038422,45.5047934 59.814496,44.3475455 62.199128,44.3475455 C63.4065584,44.3786755 64.5969106,44.6405537 65.7059398,45.1190441 C65.7059398,45.1190441 64.1629426,51.2559647 58.9027249,51.2559647 L58.8676568,51.2910293 Z M61.7081744,40.770594 C60.7380149,40.7609818 59.776903,40.5830006 58.8676568,40.2445757 C59.7443598,34.984358 62.6550135,33.8271102 65.0396456,33.8271102 C66.2470759,33.8582506 67.4374281,34.1201043 68.5464573,34.5986087 C68.5464573,34.5986087 67.0034602,40.7355294 61.7081744,40.7355294 L61.7081744,40.770594 Z M64.5486919,30.2501621 C63.5786727,30.2391507 62.6178063,30.06118 61.7081744,29.7241404 C62.6199454,24.5340589 65.4955311,23.2716067 67.9152312,23.2716067 C69.1227668,23.3018705 70.3132943,23.5637942 71.422043,24.0431053 C71.422043,24.0431053 69.8439777,30.215094 64.4084194,30.215094 L64.5486919,30.2501621 Z M37.3358325,38.5613061 C44.7091497,44.0849099 47.2100676,54.0155205 43.3324806,62.3725511 L43.3324806,62.5829598 C43.0870038,63.6700714 42.8765951,64.4415735 42.5960501,65.5637533 C42.5508123,65.7661209 42.4922485,65.9652762 42.4207095,66.1599113 C41.2124025,69.7179997 37.9662836,72.1872707 34.2147665,72.4020317 C33.5896247,72.4524446 32.9752453,72.594232 32.3912278,72.822859 L32.145751,72.822859 C30.3987521,73.3720824 28.5765005,73.6442327 26.7452609,73.6294239 C18.9823929,73.4317256 11.8118606,69.4335271 7.56299725,62.933648 C6.62644074,61.2551265 5.81758829,59.5084748 5.14330027,57.7085054 C4.29203855,50.6675778 7.27584372,43.7098213 12.963487,39.4730736 C16.8817215,36.1085016 21.8291772,34.1789837 26.9907377,34.0024507 C29.2843083,33.9815501 31.5480114,34.5233876 33.5835439,35.580516 C35.1616092,36.7728321 36.318857,37.6846031 37.3358325,38.5613061 Z M27.2686735,37.649535 C27.6079934,37.689455 27.9375769,37.7898075 27.9375769,37.7898075 C26.8188057,38.5611658 25.6469555,39.2525793 24.4307651,39.8588334 C23.7909262,40.2374394 23.1226156,40.5657331 22.4318824,40.8407372 C20.5956912,41.5937023 18.8538367,42.5587804 17.2418009,43.7163159 C15.6757885,45.0645342 14.3169235,46.6360909 13.2089674,48.3803756 C12.4126791,49.6256865 11.5091666,50.7990833 10.5087188,51.8871838 C9.97985651,52.410821 9.34655085,52.8170921 8.65010855,53.0795033 C10.2977595,44.317955 17.8334351,37.8921713 26.7452609,37.649535 C26.7452609,37.649535 26.9293537,37.609615 27.2686735,37.649535 Z M39.7204645,61.0399696 L39.6503317,60.8997006 C42.4553919,54.0452232 40.562976,46.1649192 34.9512004,41.3316909 C33.9463972,40.3099041 32.7562799,39.4887245 31.4443887,38.9119872 C29.3403016,42.5941396 25.0619912,43.8565919 22.0461331,45.3294528 C21.002804,45.7556286 20.0043235,46.2842349 19.0653466,46.9075216 C17.6744749,48.1093551 16.4898563,49.5308974 15.5585313,51.1156923 C14.0923333,53.6763101 11.8941409,55.740167 9.24627006,57.0421972 C10.2180251,60.0411244 12.0024979,62.711772 14.4012869,64.7571866 C17.6360437,67.7659119 21.7569719,69.6480143 26.1491029,70.1226121 C28.9009051,65.044668 33.9768819,61.6475668 39.7204645,61.0399696 Z" id="path-1"></path>
    </defs>
    <g id="ic-allergen-info-" stroke="none" stroke-width="1" fill="none" fill-rule="evenodd">
        <mask id="mask-2" fill="white">
            <use xlink:href="#path-1"></use>
        </mask>
        <use id="-g-ic_allergens" fill="#D70F64" xlink:href="#path-1"></use>
    </g>
</svg>