<?xml version="1.0" encoding="UTF-8"?>
<svg width="80px" height="80px" viewBox="0 0 80 80" version="1.1" xmlns="http://www.w3.org/2000/svg" xmlns:xlink="http://www.w3.org/1999/xlink">
    <!-- Generator: Sketch 50.2 (55047) - http://www.bohemiancoding.com/sketch -->
    <title>ic-allergens</title>
    <desc>Created with Sketch.</desc>
    <defs>
        <path d="M54.945821,25.7990017 C55.1850447,24.6651755 54.6152762,23.5152941 53.5682377,23.0187881 C52.6856326,22.6268781 51.747874,22.3734278 50.788024,22.267379 C51.0200591,21.8817558 51.2050561,21.4697081 51.3390573,21.0400774 C51.885983,18.5755056 51.3277862,15.9950415 49.8111922,13.9768318 C49.3437155,13.3694679 48.6239157,13.0095429 47.8575285,13 C47.5217739,13.0006512 47.1895759,13.068779 46.8806967,13.2003758 C44.564403,14.1905075 42.7916285,16.1369076 42.0215845,18.5353804 C41.9288105,18.9715734 41.8867817,19.4170338 41.8963496,19.8628698 C40.9847401,19.4493694 40.0118657,19.1871026 39.015948,19.0864137 L38.8155723,19.0864137 C37.7209696,19.1083799 36.7674815,19.8386995 36.4611571,20.8897956 C35.9992158,22.7851499 36.1214701,24.7759082 36.8118147,26.6005048 C35.717212,26.622471 34.7637239,27.3527905 34.4573995,28.4038866 C33.9954582,30.299241 34.1177125,32.2899992 34.808057,34.1145958 C33.7134794,34.136562 32.7599663,34.8669066 32.4536419,35.9179802 L32.4536419,36.1934944 C33.3937298,37.2921071 34.1930537,38.5037192 34.833104,39.8002606 C34.6031728,38.7186272 34.6031728,37.6007358 34.833104,36.519105 C36.4951458,36.5262409 38.0289221,37.4136325 38.8634871,38.8509553 C39.6980522,40.2882732 39.7084216,42.0602286 38.8907132,43.5072121 C37.4639877,43.3344857 36.188095,42.5359007 35.4091843,41.3281257 C35.8674938,42.6942125 36.1206936,44.1206976 36.1605934,45.5610612 C37.5243008,47.0658957 37.7762482,49.2728894 36.7867677,51.0463502 C36.3936304,50.9730101 36.0079822,50.8640258 35.6346071,50.7207345 C35.4592783,51.4721487 35.2088086,52.2235578 34.9332919,53.0000113 C35.3967109,53.1746163 35.8743817,53.3087027 36.3609692,53.4007704 L34.9082449,58.7608157 C34.8241623,59.0697465 34.8667671,59.3994586 35.0266169,59.6768641 C35.1864917,59.9542645 35.4503866,60.1564507 35.7598419,60.238592 L36.0854525,60.2385872 C36.6385648,60.244621 37.1244008,59.8724814 37.2626601,59.3368948 L38.6903374,54.0269396 C39.5744203,54.3461607 40.5056416,54.5154707 41.4455041,54.5278815 C44.9863943,54.31775 47.9648548,51.7983128 48.7592194,48.3412824 C49.0414487,47.2671456 48.5826383,46.1354258 47.6321058,45.5610612 C49.1660574,44.3377772 50.2784434,42.66484 50.813071,40.7770924 C51.0662708,39.7131021 50.5998461,38.6078545 49.6609103,38.0469701 C51.1936096,36.8225415 52.3056951,35.1500376 52.8418756,33.2629989 C53.0950754,32.1990036 52.6286507,31.0937559 51.6897149,30.5328791 C53.2416753,29.3326032 54.380035,27.6775996 54.945821,25.7990017 Z M47.8575285,15.504697 C47.8575285,15.504697 51.9652316,20.9899835 45.77863,23.0187881 C41.4955981,18.1847228 47.8575285,15.504697 47.8575285,15.504697 Z M38.7905253,21.5159699 C40.4449278,21.5280174 41.9702382,22.4119751 42.8032252,23.8414307 C43.6362123,25.2708613 43.6532693,27.0337172 42.8481345,28.4790276 C37.2376132,27.4771487 38.7905253,21.5159699 38.7905253,21.5159699 Z M36.7617207,29.0300609 C38.4237625,29.0371993 39.9575388,29.9245884 40.7921038,31.3619088 C41.6266689,32.7992292 41.6370383,34.5711771 40.8193299,36.0181681 C35.2088086,34.9912398 36.7617207,29.0300609 36.7617207,29.0300609 Z M41.4455041,52.1484118 C40.7525797,52.1415465 40.0661174,52.0144231 39.4166996,51.7727098 C40.0428738,48.0407112 42.1217723,47.1891143 43.8249663,47.1891143 C44.6874337,47.2107323 45.5377533,47.3977981 46.3296633,47.7401476 C46.3296633,47.7401476 45.2275966,52.1484143 41.4705511,52.1484143 L41.4455041,52.1484118 Z M43.4743087,44.6343208 C42.7813843,44.6274554 42.094922,44.5003345 41.4455041,44.2586187 C42.0716784,40.5015732 44.1505769,39.6750232 45.8537709,39.6750232 C46.7161631,39.6972574 47.5663575,39.8843007 48.3584679,40.2260566 C48.3584679,40.2260566 47.2564012,44.6092763 43.4993557,44.6092763 L43.4743087,44.6343208 Z M45.5031133,37.1202297 C44.8101889,37.1133644 44.1237266,36.9862435 43.4743087,36.7445277 C44.100483,32.9874822 46.1793815,32.1609322 47.8825755,32.1609322 C48.7449677,32.1831739 49.5951621,32.3701996 50.3872725,32.7119655 C50.3872725,32.7119655 49.2852058,37.0951853 45.5031133,37.0951853 L45.5031133,37.1202297 Z M47.5319179,29.6061412 C46.8390936,29.5982765 46.1528067,29.4711631 45.5031133,29.2304367 C46.1543345,25.5234851 48.2081861,24.6217941 49.936427,24.6217941 C50.7988944,24.6434097 51.649214,24.8304855 52.441124,25.1728275 C52.441124,25.1728275 51.3140104,29.5810942 47.43173,29.5810942 L47.5319179,29.6061412 Z M28.095469,35.5422731 C27.3691069,34.9160989 26.5425569,34.2648777 25.4154432,33.4132807 C23.9615894,32.6582398 22.3447674,32.271239 20.7066129,32.286167 C17.020032,32.4122535 13.4863729,33.7903879 10.6878223,36.1934919 C6.62549327,39.2195365 4.49434727,44.1890282 5.10235045,49.2179238 C5.58395234,50.5035297 6.16166522,51.7510542 6.83058914,52.9499174 C9.8652873,57.5923758 14.9867515,60.4480397 20.5312841,60.5892433 C21.8392243,60.5998203 23.140745,60.4054403 24.3885175,60.0131642 L24.5638463,60.0131642 C24.9809735,59.8498702 25.4197864,59.7486003 25.8662862,59.7125936 C28.545761,59.5592032 30.8642613,57.7955568 31.7272797,55.2542361 C31.7783755,55.1152204 31.820204,54.9729762 31.8525146,54.8284376 C32.0528903,54.0269346 32.2031722,53.4758988 32.3785009,52.6994427 L32.3785009,52.5491609 C35.1480196,46.580255 33.3617699,39.4874389 28.095469,35.5422731 Z M20.9051251,34.8910519 C21.1474801,34.9195643 21.382881,34.9912398 21.382881,34.9912398 C20.5838126,35.5421729 19.746833,36.0360065 18.878184,36.469016 C18.421187,36.7394306 17.9438544,36.9739104 17.4505067,37.1703287 C16.1390298,37.7081247 14.8949318,38.3974198 13.7435552,39.2241752 C12.6250501,40.1871235 11.6544976,41.3095885 10.8631536,42.5554223 C10.2944145,43.4448702 9.64909188,44.2829544 8.93453438,45.0601168 C8.55680102,45.4341181 8.10447027,45.7242923 7.60704496,45.9117163 C8.78385932,39.6538886 14.1661226,35.0643519 20.5312841,34.8910519 C20.5312841,34.8910519 20.6627701,34.8625396 20.9051251,34.8910519 Z M29.798663,51.597381 C25.6963801,52.0313498 22.0709263,54.4576874 20.1054856,58.0845463 C16.9684603,57.7455706 14.0251382,56.4013022 11.7147531,54.2523573 C10.0014476,52.7914452 8.72691003,50.8839681 8.03284596,48.7420214 C9.92405501,47.8120625 11.4940868,46.3379781 12.5413006,44.5090884 C13.206488,43.3771683 14.0525872,42.3618493 15.0460001,41.5034545 C15.7166528,41.0582797 16.4298051,40.6807292 17.1749901,40.3763384 C19.3290295,39.3243656 22.3847599,38.4226747 23.8875781,35.7927428 C24.8245802,36.2046703 25.6746067,36.7911877 26.3922751,37.5209863 C30.4004165,40.9730599 31.7520512,46.6014698 29.7485716,51.4971956 L29.798663,51.597381 Z" id="path-1"></path>
    </defs>
    <g id="ic-allergens" stroke="none" stroke-width="1" fill="none" fill-rule="evenodd">
        <g id="icons/not-used/allergens/ic_allergens" transform="translate(10.000000, 10.000000)">
            <mask id="mask-2" fill="white">
                <use xlink:href="#path-1"></use>
            </mask>
            <use id="-g-ic_allergens" fill="#D70F64" xlink:href="#path-1"></use>
            <polygon id="Path" stroke="#D70F64" stroke-width="2" points="0 0 60 0 60 60 0 60"></polygon>
        </g>
    </g>
</svg>