<?xml version="1.0" encoding="UTF-8"?>
<svg width="80px" height="80px" viewBox="0 0 80 80" version="1.1" xmlns="http://www.w3.org/2000/svg" xmlns:xlink="http://www.w3.org/1999/xlink">
    <!-- Generator: Sketch 50.2 (55047) - http://www.bohemiancoding.com/sketch -->
    <title>ic-allergy-nuts</title>
    <desc>Created with Sketch.</desc>
    <defs></defs>
    <g id="ic-allergy-nuts" stroke="none" stroke-width="1" fill="none" fill-rule="evenodd">
        <g id="icons/not-used/allergens/ic-allergy-nuts" transform="translate(5.000000, 5.000000)" fill="#D70F64">
            <g id="-g-" transform="translate(11.666667, 11.666667)">
                <path d="M42.9476687,31.2336673 C42.2327354,29.3863702 41.1848062,27.6859798 39.8560021,26.2170006 L39.8560021,26.2170006 C38.5724062,24.4278473 36.8565312,22.9929523 34.8685021,22.0461673 C35.6505771,20.8385506 36.2225354,19.5072352 36.5601687,18.1086673 C36.5601687,18.1086673 38.6601687,9.3586673 27.6643354,2.85450063 C22.1465241,-0.511245203 15.3200979,-0.926316037 9.43516872,1.7461673 C8.0048558,2.84003396 6.64130539,4.01851313 5.35183539,5.27533396 C-1.53149795,13.4420006 -1.12316461,22.862834 2.90183539,27.9670006 L2.90183539,28.1420035 C3.2965858,28.5910565 3.61218664,29.1039085 3.83516872,29.6586673 C5.07732164,32.7734631 8.36120247,34.5624385 11.6518354,33.9170035 L14.5685021,33.625334 C14.3618912,35.830436 14.4996512,38.0542573 14.9768325,40.2169977 C16.4864554,42.200156 18.501105,43.7413641 20.8101658,44.6795033 C23.3371104,46.0022833 26.1540621,46.6739386 29.0060021,46.6336673 C30.4686229,46.6179571 31.9292312,46.5205889 33.3810021,46.3420006 C36.9972604,45.9681869 40.2325437,43.9299505 42.1310021,40.8294977 C43.9310812,37.9485223 44.2349979,34.3774023 42.9476687,31.2336673 Z M4.33100205,25.400334 C1.4143348,20.762834 2.96016872,15.0461673 4.88516872,10.962834 C6.27101414,8.1517798 8.38634997,5.76445896 11.0101716,4.05033396 C12.9295454,5.93980896 15.4027037,7.16615063 18.0684991,7.55033396 C19.7960991,7.8605798 21.4612037,8.4517298 22.9976687,9.30033396 C23.8374266,9.8953923 24.6100166,10.5799631 25.3018354,11.3420006 C27.4335921,13.9566465 30.4563437,15.6913631 33.7893354,16.212834 C33.5402521,17.9278223 33.0184021,19.591909 32.2435021,21.1420006 C29.6923812,20.8629923 27.1132137,21.2760623 24.7768354,22.337831 C20.7063529,24.0686802 17.3652208,27.1623244 15.3268354,31.087834 C12.8497308,27.4687377 8.71576414,25.3414406 4.33100205,25.4294977 L4.33100205,25.400334 Z M33.3518354,13.3836673 C32.2919771,13.3564256 31.2691604,12.9882256 30.4351687,12.3336673 C29.8897229,11.9121506 29.3822521,11.4437048 28.9185021,10.9336673 C27.7409096,9.67180063 26.40806,8.56437146 24.9518354,7.63783396 C23.3264733,6.78447563 21.58835,6.16582146 19.7893354,5.80033396 C18.4746683,5.51065063 17.1867733,5.1106298 15.9393383,4.60450063 C15.0605058,4.1947673 14.3131421,3.5484048 13.7810021,2.73783396 L13.7810021,2.73783396 C21.1310021,1.71700063 30.2893354,3.9336673 33.4101687,13.4420006 L33.3518354,13.3836673 Z M37.9018354,33.537834 C35.2257937,37.4037677 30.9275312,39.8322777 26.2351687,40.1295006 C24.8675962,40.0418315 23.5158875,39.7871627 22.2101716,39.3711702 L20.7518354,38.9920006 C17.0185021,38.1461673 17.0476687,38.0586673 17.3101687,36.9795035 C17.5049612,36.1783448 17.5641171,35.3502098 17.4851687,34.5295006 L17.4851687,34.5295006 C17.4216904,34.0356973 17.4216904,33.535804 17.4851687,33.0420006 C17.5921579,32.4592127 17.7684062,31.8912998 18.0101687,31.350334 C19.1413891,29.1836415 20.8336362,27.360439 22.9101687,26.0711615 C25.1597791,24.4315894 27.8316558,23.470119 30.6101687,23.300334 L31.5726687,23.300334 C32.2006854,23.370786 32.8177646,23.5177073 33.4101687,23.737834 C35.0684979,24.3772431 36.4927937,25.5065006 37.4935021,26.975334 C39.0621146,28.8333527 39.2280146,31.4996935 37.9018354,33.537831 L37.9018354,33.537834 Z M19.8185021,41.2670006 L22.0060021,41.937831 C27.4863779,43.3536919 33.3120812,41.9546456 37.5518354,38.2045035 C39.2610312,36.6318194 40.4939937,34.6105781 41.1101687,32.3711673 C41.5247437,33.5692231 41.6740187,34.8430569 41.5476687,36.1045006 C40.9249021,38.535936 39.4697479,40.6722398 37.4351687,42.1419977 C35.0174562,43.6678781 32.1801521,44.392514 29.3268354,44.2128313 C26.428325,44.1999111 23.5689854,43.5423652 20.956005,42.2878252 C20.2054591,41.9257531 19.4838846,41.5064619 18.7976716,41.0336702 L19.8185021,41.2670006 Z" id="Fill-1"></path>
                <path d="M26.7166667,28.0956983 C23.8808587,29.6978291 21.6630137,32.2031758 20.4166667,35.2123679 C23.7738258,35.1119354 27.0766271,34.338307 30.1291667,32.9373679 C32.6541833,31.6867829 34.3452375,29.2109908 34.5916667,26.4040316 C31.84685,25.936592 29.0273725,26.5422524 26.7166667,28.0957012 L26.7166667,28.0956983 Z M24.2375,32.7915316 C25.3195425,31.6104304 26.5556375,30.5803483 27.9125,29.7290345 C29.0528262,29.1115412 30.2998208,28.7156708 31.5875,28.5623679 C31.0287833,29.6220016 30.1918458,30.509342 29.1666667,31.1290316 C27.6406754,31.9779974 25.968495,32.5320883 24.2374971,32.762362 L24.2375,32.7915316 Z" id="Fill-3"></path>
            </g>
        </g>
    </g>
</svg>