<?xml version="1.0" encoding="UTF-8"?>
<svg width="80px" height="80px" viewBox="0 0 80 80" version="1.1" xmlns="http://www.w3.org/2000/svg" xmlns:xlink="http://www.w3.org/1999/xlink">
    <!-- Generator: Sketch 50.2 (55047) - http://www.bohemiancoding.com/sketch -->
    <title>ic-allergy-slightly-spicy</title>
    <desc>Created with Sketch.</desc>
    <defs>
        <polygon id="path-1" points="43.6256268 55.4166667 0 55.4166667 0 0 21.8128134 0 43.6256268 0 43.6256268 55.4166667"></polygon>
    </defs>
    <g id="ic-allergy-slightly-spicy" stroke="none" stroke-width="1" fill="none" fill-rule="evenodd">
        <g id="icons/not-used/allergens/ic-allergy-slightly-spicy" transform="translate(5.000000, 5.000000)">
            <g id="-g-" transform="translate(11.666667, 8.750000)">
                <mask id="mask-2" fill="white">
                    <use xlink:href="#path-1"></use>
                </mask>
                <g id="Clip-2"></g>
                <path d="M41.3,13.5041667 C40.99725,11.3424792 39.7602042,9.42290417 37.9166667,8.25416667 C37.0223,7.71715 36.0314208,7.36044167 35,7.20416667 C33.9683167,4.7716375 32.1913958,2.72918333 29.925,1.37083333 C28.886165,0.760783333 27.7669438,0.2993375 26.6,0 L25.8125,2.50833333 C26.1913488,2.61741667 26.5617683,2.7538875 26.9208333,2.91666667 C28.9128321,3.8392375 30.4996125,5.45714167 31.3833333,7.46666667 L31.3833333,7.46666667 C30.5676292,7.74538333 29.8145458,8.18139583 29.1666667,8.75 C28.6539954,9.16279583 28.2108663,9.65515833 27.8541667,10.2083333 C27.8541667,10.3833333 27.65,10.5583333 27.5625,10.7333333 C26.3717388,11.4592333 25.3717333,12.4592417 24.6458333,13.65 C23.4856242,15.7361458 22.7705713,18.0401958 22.5458333,20.4166667 C22.3708333,21.7583333 22.225,23.1291667 22.1083333,24.5583333 C21.9916667,25.9875 21.8166667,27.8833333 21.5541667,29.575 C20.900215,37.1389346 16.4059029,43.8363421 9.65416667,47.3083362 C7.11034917,48.7009921 4.43300667,49.8344583 1.66250146,50.6916579 L1.19583333,50.8958304 C0.291475858,51.3917483 -0.173160517,52.4282471 0.0583333333,53.4333325 C0.322290792,54.5668363 1.31588829,55.3808625 2.47916667,55.4166611 C9.86954792,55.7587249 17.2044338,53.9882405 23.6249971,50.3125 C33.7458333,44.6541638 41.5041667,34.6208333 43.3416667,25.375 C43.4583333,24.7916667 43.5458333,24.2083333 43.6041667,23.625 L43.6041667,21.5833333 C43.7712333,18.7072667 42.9590583,15.8594333 41.3,13.5041667 Z M22.0791667,47.7458362 C17.1192963,50.6005967 11.5497463,52.2304679 5.83333333,52.5000055 C7.68800958,51.7901971 9.49098208,50.9520608 11.2291638,49.9916637 C17.6887025,46.7124117 22.3505363,40.7247371 23.9458304,33.6583304 C24.5831629,30.77732 25.0024075,27.8523671 25.1999971,24.9083333 L25.2,24.9083333 C25.192125,21.5197208 25.9394013,18.1719417 27.3875058,15.1083333 C27.7410554,14.5778208 28.1853513,14.1137792 28.7,13.7375 C29.4605792,14.0793917 30.3310875,14.0793917 31.0916667,13.7375 L31.2666667,13.7375 C32.3304042,15.1695542 34.2955667,15.5826125 35.8458333,14.7 C36.1615917,14.5226958 36.4471042,14.2962458 36.6916667,14.0291667 C37.0072208,14.2468083 37.3649208,14.39585 37.7416667,14.4666667 C38.7935042,15.5057292 39.6092375,16.7591375 40.1333333,18.1416667 C40.509175,19.3595208 40.68645,20.6299333 40.6583333,21.9041667 C40.6376542,22.6272958 40.5694333,23.3482958 40.4541667,24.0625 C40.256125,25.3610875 39.9438083,26.6396754 39.5208333,27.8833304 C36.248625,36.3644225 30.0661958,43.4049496 22.0791667,47.7458362 Z" id="Fill-1" fill="#D70F64" mask="url(#mask-2)"></path>
            </g>
        </g>
    </g>
</svg>