<?xml version="1.0" encoding="UTF-8"?>
<svg width="80px" height="80px" viewBox="0 0 80 80" version="1.1" xmlns="http://www.w3.org/2000/svg" xmlns:xlink="http://www.w3.org/1999/xlink">
    <!-- Generator: Sketch 50.2 (55047) - http://www.bohemiancoding.com/sketch -->
    <title>ic-allergy-peanuts</title>
    <desc>Created with Sketch.</desc>
    <defs>
        <polygon id="path-1" points="0.0139547611 52.5 49.5833333 52.5 49.5833333 0 0.0139547611 0"></polygon>
    </defs>
    <g id="ic-allergy-peanuts" stroke="none" stroke-width="1" fill="none" fill-rule="evenodd">
        <g id="icons/not-used/allergens/ic-allergy-peanuts" transform="translate(5.000000, 5.000000)">
            <g id="-g-" transform="translate(8.750000, 8.750000)">
                <mask id="mask-2" fill="white">
                    <use xlink:href="#path-1"></use>
                </mask>
                <g id="Clip-2"></g>
                <path d="M49.5833333,42.4375 L49.5833333,42.4375 C49.4916917,41.0675592 49.2670208,39.7097779 48.9125,38.3833333 C48.2508833,35.5691204 46.804625,33.000275 44.7416667,30.975 C43.3271417,29.6182133 41.4514917,28.8471079 39.4916667,28.8166696 L39.4916667,28.8166667 C38.8605292,28.8206625 38.2327458,28.9089413 37.625,29.0791667 C36.3920958,29.4061833 35.266,30.0496525 34.3583333,30.9458362 L34.3583333,30.9458362 L34.3583333,30.9458362 C33.6770875,31.6357854 33.1152792,32.4341646 32.6958333,33.3083362 C32.5419208,33.6312813 32.405625,33.9623229 32.2875,34.3000029 C31.6006542,36.3451229 31.4008917,38.5223883 31.7041667,40.6583392 C31.7996,41.4255071 31.9457542,42.1855029 32.1416667,42.9333362 C32.604425,44.8103892 33.341525,46.608905 34.3291667,48.2708304 C34.6502917,48.7935525 35.0110833,49.2908529 35.4083333,49.758343 C36.3514958,50.9272225 37.6049333,51.8066652 39.025,52.2958398 C39.6133792,52.4580765 40.223575,52.5269699 40.8333333,52.5 L41.1541667,52.5 C42.0235667,52.452124 42.8846833,52.3053416 43.7208333,52.0625012 L43.75,52.0625012 L44.1,52.0625012 L44.8875,51.8875026 C45.1499125,51.804963 45.4038667,51.697534 45.6458333,51.5666675 L45.8208333,51.5666675 C47.5618792,50.4339424 48.7714792,48.6458612 49.175,46.6083362 C49.5102708,45.2943983 49.6479083,43.9378333 49.5833333,42.5833333 L49.5833333,42.4375 Z M39.725,49.5833333 L39.1125,49.5833333 L38.4708333,49.2041696 L37.9166667,48.7083363 L37.9166667,48.5333304 C36.2807667,46.7581508 35.1612333,44.5695513 34.6791667,42.2041608 C34.6791667,41.9124971 34.6791667,41.6208333 34.5041667,41.3291637 L34.5041667,41.0666638 C34.105225,39.1289412 34.2055875,37.1215921 34.7958333,35.2333275 C34.8492958,34.9576646 34.9174292,34.6850496 35,34.4166667 C35.3168958,33.7349454 35.7625625,33.1209083 36.3125,32.6083333 C36.4759208,34.4693767 37.0220375,36.2765958 37.9166667,37.9166667 C38.15,38.3541667 38.4125,38.85 38.6458333,39.4041667 C38.8791667,39.9583363 39.0833333,40.4541667 39.3166667,41.0375029 C39.55,41.6208363 39.725,42.1750029 39.9,42.7583362 L40.1625,43.6333362 C40.3666667,44.2750029 40.5416667,44.9166696 40.7166667,45.5291696 L41.0083333,46.6958333 L41.2416667,47.6291667 L41.2416667,48.0083304 L41.4458333,48.9416638 L41.5916667,49.6708298 C41.2430958,49.7156905 40.8902375,49.7156905 40.5416667,49.6708298 L40.5416667,49.6708298 C40.2668875,49.6749409 39.9926625,49.6455622 39.725,49.5833389 L39.725,49.5833333 Z M38.8208333,32.0833333 C38.8065125,31.8891504 38.8065125,31.69418 38.8208333,31.5 L38.8208333,31.2958333 C40.3305292,31.1550371 41.8252333,31.6888629 42.9041667,32.7541667 C43.2971,33.110945 43.6582125,33.5013117 43.9833333,33.9208304 C44.696925,34.8669912 45.2760583,35.9074333 45.7041667,37.0125029 C45.9450833,37.62206 46.1496,38.245375 46.3166667,38.8791667 C46.7721917,40.5110271 46.9786917,42.2023146 46.9291667,43.8958363 C46.892825,44.8024325 46.715725,45.6978521 46.4041667,46.5500058 L46.4041667,46.5500029 C46.0485958,47.5242192 45.3824292,48.3543958 44.5083333,48.9125 L44.3041667,48.9125 C44.3041667,48.4458362 44.1,47.8625 43.9541667,47.2208363 L43.9541667,46.7541696 C43.7791667,46.0250029 43.575,45.1791696 43.3416667,44.3333363 C43.1083333,43.4875029 42.8166667,42.4958362 42.5541667,41.6500029 C42.2916667,40.8041696 42.1458333,40.4250029 41.9125,39.8416696 C41.4852958,38.6803754 40.978525,37.5499162 40.3958333,36.4583333 C39.5450125,35.1387254 39.0063333,33.6424492 38.8208333,32.0833333 Z" id="Fill-1" fill="#D70F64" mask="url(#mask-2)"></path>
                <path d="M33.1333333,6.94166667 C32.6915458,6.95184583 32.2761542,7.15420417 31.9958333,7.49583333 C31.7025917,7.85122917 31.5290792,8.29015833 31.5,8.75 C31.3777917,9.704625 32.0368417,10.5833583 32.9875,10.7333333 L32.9875,10.7333333 C33.9241,10.6266125 34.6149125,9.807875 34.5625,8.86666667 C34.5924542,8.3258 34.41515,7.7938875 34.0666667,7.37916667 C33.8225125,7.11993333 33.4887583,6.96348333 33.1333333,6.94166667 Z" id="Fill-3" fill="#D70F64" mask="url(#mask-2)"></path>
                <path d="M31.7333333,13.9125 C31.3629167,13.9177208 31.0083667,14.0637 30.7416667,14.3208333 C30.3552375,14.7085458 30.1354667,15.2317958 30.1291667,15.7791667 C30.0069583,16.7337917 30.6660083,17.612525 31.6166667,17.7625 L31.6166667,17.7625 C32.5532667,17.6557792 33.2440792,16.8370417 33.1916667,15.8958333 C33.2216208,15.3549667 33.0443167,14.8230542 32.6958333,14.4083333 C32.4544792,14.1206625 32.1076875,13.9420167 31.7333333,13.9125 Z" id="Fill-4" fill="#D70F64" mask="url(#mask-2)"></path>
                <path d="M27.3875,8.75 L27.3875,8.75 C26.4392246,8.84234167 25.7319883,9.66527917 25.7833304,10.6166667 C25.6611337,11.5712917 26.3201867,12.450025 27.2708333,12.6 L27.2708333,12.6 C27.6950012,12.5846875 28.0904167,12.3816292 28.35,12.0458333 C28.6444229,11.6708667 28.8082929,11.2100042 28.8166696,10.7333333 C28.9417887,9.79778333 28.3145654,8.9273625 27.3875,8.75 Z" id="Fill-5" fill="#D70F64" mask="url(#mask-2)"></path>
                <path d="M26.25,16.3041667 C25.8072529,16.3103792 25.3902833,16.513525 25.1125,16.8583333 C24.81808,17.2333 24.65421,17.6941625 24.6458333,18.1708333 C24.5970637,18.6431583 24.7391375,19.1153958 25.0404233,19.4824292 C25.3417121,19.8494333 25.7772142,20.0808125 26.25,20.125 L26.25,20.125 C27.1866146,20.0182792 27.8774212,19.1995417 27.8250029,18.2583333 C27.9271767,17.2845167 27.2232887,16.4111792 26.25,16.3041667 Z" id="Fill-6" fill="#D70F64" mask="url(#mask-2)"></path>
                <path d="M21.525,11.6666667 L21.525,11.6666667 C21.0854904,11.6802583 20.6766992,11.8953917 20.4166667,12.25 C20.1222467,12.6249667 19.9583796,13.0858292 19.9500029,13.5625 C19.8278033,14.517125 20.4868562,15.3958583 21.4375,15.5458333 L21.4375,15.5458333 C22.3741146,15.4391125 23.0649242,14.620375 23.0125029,13.6791667 C23.1519692,12.7140417 22.4885646,11.8164958 21.525,11.6666667 Z" id="Fill-7" fill="#D70F64" mask="url(#mask-2)"></path>
                <path d="M19.1625,21.5541667 L19.1625,21.5541667 C19.6423529,21.6019708 20.1139575,21.4045417 20.4166667,21.0291667 C20.7130117,20.6552792 20.877115,20.1937167 20.8833362,19.7166667 C20.9321262,19.1695292 20.7645929,18.625075 20.4166667,18.2 C20.1722646,17.920525 19.8249567,17.7521458 19.4541696,17.7333333 C19.0133038,17.7473042 18.5994054,17.9489625 18.3166667,18.2875 C18.0203275,18.6613875 17.8562213,19.12295 17.8500029,19.6 C17.7324583,20.4890875 18.2950162,21.3266667 19.1625029,21.5541667 L19.1625,21.5541667 Z" id="Fill-8" fill="#D70F64" mask="url(#mask-2)"></path>
                <path d="M14.1166667,36.3125 L14.1166667,36.3125 C13.6821883,36.3191237 13.2743217,36.5230571 13.0083362,36.8666637 C12.7119913,37.2405658 12.5478879,37.7021137 12.5416667,38.1791637 C12.41947,39.13378 13.0785229,40.0125133 14.0291667,40.1625 L14.0291667,40.1625 C14.3906933,40.1557917 14.7356037,40.0094654 14.9916667,39.7541637 C15.7213642,38.9188596 15.7213642,37.6728012 14.9916696,36.8374971 C14.7764342,36.5586492 14.463995,36.3711892 14.1166667,36.3125 Z" id="Fill-9" fill="#D70F64" mask="url(#mask-2)"></path>
                <path d="M8.89583333,34.4166667 L8.89583333,34.4166667 C8.45005875,34.4097338 8.027635,34.6155308 7.75833333,34.9708333 C7.46199125,35.3447325 7.29788208,35.8062833 7.29166667,36.2833333 C7.25869667,36.8245879 7.43637125,37.3576146 7.7875,37.7708362 C8.03190208,38.0503083 8.37921,38.2187021 8.75,38.2375029 L8.75,38.2375 C9.65018542,38.0437487 10.2929838,37.2478808 10.2929838,36.3270804 C10.2929838,35.40628 9.65018542,34.6104092 8.75,34.4166637 L8.89583333,34.4166667 Z" id="Fill-10" fill="#D70F64" mask="url(#mask-2)"></path>
                <path d="M20.2125,33.075 L20.2125,33.075 C19.788335,33.0903067 19.3929225,33.2933592 19.1333333,33.6291667 C18.8369942,34.0030658 18.6728879,34.4646137 18.6666696,34.9416667 C18.54447,35.8962829 19.2035229,36.7750163 20.1541667,36.925 L20.1541696,36.925 C20.5886479,36.9183733 20.9965146,36.7144429 21.2625,36.3708333 C21.5608487,35.9773867 21.7152687,35.4935408 21.7,35 C21.73297,34.4587454 21.5552954,33.9257217 21.2041667,33.5125 C20.9477508,33.2366271 20.5891233,33.0784125 20.2125029,33.075 L20.2125,33.075 Z" id="Fill-11" fill="#D70F64" mask="url(#mask-2)"></path>
                <path d="M13.6208333,42.4083333 L13.6208333,42.4083333 C12.7206508,42.6020846 12.0778583,43.3979525 12.0778583,44.31875 C12.0778583,45.2395475 12.7206508,46.0354125 13.6208333,46.2291637 L13.6208333,46.2291667 C14.0032579,46.1817592 14.3503325,45.9819267 14.5833333,45.675 C14.8796754,45.3011037 15.0437817,44.8395558 15.05,44.3625 C15.1585612,43.4374383 14.5352929,42.5852146 13.6208333,42.4083362 L13.6208333,42.4083333 Z" id="Fill-12" fill="#D70F64" mask="url(#mask-2)"></path>
                <path d="M8.07916667,40.8333333 C7.6344275,40.831 7.21395208,41.0358462 6.94166667,41.3875 C6.64724667,41.7624637 6.48337958,42.2233379 6.475,42.7 C6.3527975,43.6546162 7.01185042,44.5333525 7.9625,44.6833333 L7.9625,44.6833333 C8.8991175,44.5766183 9.58992417,43.7578808 9.5375,42.8166637 C9.56745708,42.2758087 9.39014417,41.74387 9.04166667,41.3291637 C8.8003125,41.0414958 8.45351208,40.8628412 8.07916667,40.8333333 Z" id="Fill-13" fill="#D70F64" mask="url(#mask-2)"></path>
                <path d="M38.2375,19.8333333 C39.4524375,17.1688125 40.1549458,14.299425 40.3083333,11.375 C40.5439417,8.44946667 39.7833042,5.53023333 38.15,3.09166667 C36.3043917,0.579658333 33.1263333,-0.5718125 30.1,0.175 C28.8123646,0.55545 27.6592867,1.29383333 26.775,2.30416667 C26.1034462,3.11675 25.1794521,3.68141667 24.1500029,3.90833333 L23.8583333,3.90833333 C22.0558829,4.30520417 20.3180892,4.9532 18.6958304,5.83333333 C16.1988925,7.66887917 14.1949033,10.0937083 12.8625,12.8916667 C11.5926008,15.7252958 10.7568329,18.7340417 10.3833304,21.8166667 C9.60623125,24.7456008 8.03104458,27.4012054 5.83333333,29.4875 C3.66154833,31.6189796 1.94495467,34.1690592 0.787501458,36.9833333 C-0.394832958,40.2001279 -0.215797663,43.7597504 1.28333362,46.8416696 C2.47285675,49.3164758 4.67416833,51.1562164 7.32083333,51.8874971 C8.66474292,52.2898094 10.0596708,52.4961003 11.4625,52.5 C12.5721662,52.5030541 13.67835,52.3757927 14.7583333,52.1208301 C17.8544596,51.3702624 20.6262175,49.6417515 22.6624971,47.1916608 C24.8960162,44.1477925 26.1475783,40.4948658 26.25,36.7208333 C26.4101687,34.8567246 26.7421379,33.0113933 27.2416667,31.2083363 L27.2416667,31.2083333 C27.5625,30.0708304 28.7,29.4583304 30.1583333,28.7291638 C30.8360208,28.281785 31.4794667,27.7845808 32.0833333,27.2416667 C34.7872583,25.3964258 36.9194,22.8297708 38.2375,19.8333333 Z M37.3625,11.2583333 C37.2270792,13.7908458 36.6135,16.2748542 35.5541667,18.5791667 C34.4619042,21.1161708 32.671625,23.2908083 30.3916667,24.8500029 C29.8092667,25.2757575 29.1949583,25.6560471 28.5541667,25.9875058 C26.6036225,26.7475163 25.0738075,28.3092017 24.3541696,30.2750029 C23.82261,32.2603488 23.4808,34.2916904 23.3333333,36.3416667 C23.2560358,39.4840338 22.2402483,42.5313963 20.4166667,45.0916667 C18.7783604,47.0625867 16.5488575,48.4534663 14.0583333,49.0583333 L14.0583333,49.0583333 C12.0721096,49.51632 10.0005529,49.4459233 8.05,48.8541667 C6.19460625,48.3478625 4.65106542,47.0598013 3.82083333,45.3249971 C2.73796921,42.9919758 2.64331142,40.3204813 3.55833625,37.9166667 C4.57089208,35.4783858 6.0467575,33.2596396 7.90416958,31.3833363 C10.4806304,28.9200829 12.3017504,25.7735917 13.1541667,22.3125 C14.1458333,16.0708333 15.6041667,11.9291667 20.4166667,8.34166667 C21.7345071,7.69305833 23.1248325,7.20349583 24.5583333,6.88333333 L25.0833333,6.88333333 C26.5109308,6.49649583 27.7969096,5.70669167 28.7875058,4.60833333 C29.3162042,3.98451667 30.000425,3.51160833 30.7708333,3.2375 C31.1927875,3.07477917 31.6339042,2.96695 32.0833333,2.91666667 C33.5850667,2.87895417 35.0109375,3.57554167 35.9041667,4.78333333 C37.1107625,6.71372917 37.6250292,8.99707083 37.3625,11.2583333 Z" id="Fill-14" fill="#D70F64" mask="url(#mask-2)"></path>
            </g>
        </g>
    </g>
</svg>