<?xml version="1.0" encoding="UTF-8"?>
<svg width="80px" height="80px" viewBox="0 0 80 80" version="1.1" xmlns="http://www.w3.org/2000/svg" xmlns:xlink="http://www.w3.org/1999/xlink">
    <!-- Generator: Sketch 50.2 (55047) - http://www.bohemiancoding.com/sketch -->
    <title>ic-allergy-soy</title>
    <desc>Created with Sketch.</desc>
    <defs>
        <polygon id="path-1" points="0.0223312559 55.4166667 33.5416667 55.4166667 33.5416667 0.000491317689 0.0223312559 0.000491317689 0.0223312559 55.4166667"></polygon>
    </defs>
    <g id="ic-allergy-soy" stroke="none" stroke-width="1" fill="none" fill-rule="evenodd">
        <g id="icons/not-used/allergens/ic-allergy-soy" transform="translate(5.000000, 5.000000)">
            <g id="-g-" transform="translate(14.583333, 8.750000)">
                <path d="M34.6443125,44.4284167 C34.3730625,45.0263333 33.9486875,45.383625 33.4134792,45.4609167 C32.8082708,45.5396667 32.1009792,45.243625 31.5993125,44.6602917 C30.6936875,43.607375 30.2416042,41.7071667 31.0466042,40.3465417 C31.3193125,39.8857083 31.7043125,39.5969583 32.1593125,39.5138333 C32.2511875,39.4963333 32.3416042,39.4890417 32.4334792,39.4890417 C32.8301458,39.4890417 33.2326458,39.6407083 33.5957708,39.9294583 C34.8207708,40.9065417 35.3034792,42.9627917 34.6443125,44.4284167 M31.5613958,37.237375 C30.5230625,37.4955 29.6743125,38.1444583 29.1084792,39.1157083 C28.3588958,40.404875 28.1591042,42.1825833 28.5863958,43.7546667 C29.0005625,45.2771667 30.0228542,46.6538333 31.2551458,47.3450833 C31.8618125,47.6863333 32.5049375,47.8584167 33.1524375,47.8584167 C33.5111875,47.8584167 33.8713958,47.8044583 34.2301458,47.6994583 C36.7136875,46.958625 37.6207708,43.9632083 37.0607708,41.49425 L37.0607708,41.4913333 C36.7078542,39.967375 35.6870208,38.4915417 34.4576458,37.7332083 C33.5403542,37.1659167 32.5413958,36.9952917 31.5613958,37.237375" id="Fill-1" fill="#D70F64"></path>
                <path d="M29.6734375,27.5553542 C29.4940625,28.2159792 29.0171875,29.0559792 27.7659375,29.3097292 L27.7644792,29.3097292 L27.7630208,29.3111875 C25.9255208,29.6786875 24.4263542,28.0628542 23.9305208,26.3507708 C23.5353125,24.9901458 23.6913542,23.1599375 25.4267708,22.4832708 C25.7898958,22.3418125 26.1267708,22.2820208 26.4373958,22.2820208 C27.2307292,22.2820208 27.8505208,22.6655625 28.2719792,23.0505625 C29.4532292,24.1282708 30.0686458,26.1057708 29.6734375,27.5553542 M24.5648958,30.8482708 C25.5434375,31.4549375 26.5365625,31.7524375 27.4801042,31.7524375 C28.7794792,31.7524375 29.9840625,31.1880625 30.9203125,30.0972292 L30.9713542,30.1293125 L31.2790625,29.6495208 C31.2936458,29.6261875 31.3082292,29.6013958 31.3242708,29.5766042 L31.4307292,29.4118125 C31.4336458,29.4045208 31.4380208,29.3986875 31.4423958,29.3928542 C32.5507292,27.6516042 32.6090625,25.5530625 31.5998958,23.6353542 C30.4711458,21.4901458 28.2821875,20.0143125 26.1515625,19.9661875 C24.4905208,19.8874375 22.9694792,20.8163958 21.9996875,22.4716042 C20.1767708,25.5822292 21.8713542,29.1726458 24.5648958,30.8482708" id="Fill-3" fill="#D70F64"></path>
                <path d="M19.5740417,12.9965208 L19.5652917,13.0038125 C18.5502917,13.9677708 17.1532083,13.2736042 16.263625,12.3840208 C15.1582083,11.2742292 14.5034167,9.5344375 15.47175,8.49610417 C15.8057083,8.13589583 16.2096667,7.9550625 16.6719583,7.9550625 C16.8352917,7.9550625 17.0088333,7.97839583 17.1896667,8.0250625 C18.416125,8.3400625 19.6950833,9.68172917 20.03925,11.0146458 C20.1850833,11.5775625 20.2215417,12.3767292 19.5740417,12.9965208 M18.5532083,15.7352708 C19.3144583,15.7352708 20.0669583,15.5281875 20.7407083,15.0513125 C21.6200833,14.4300625 22.1625833,13.5054792 22.3084167,12.3811042 C22.5009167,10.8979792 21.9671667,9.14797917 20.94925,7.90547917 C20.9390417,7.8938125 20.9288333,7.8806875 20.9200833,7.86902083 L20.9200833,7.8675625 C20.918625,7.8675625 20.918625,7.8675625 20.9171667,7.86610417 L20.5963333,7.48110417 C20.5569583,7.4344375 20.5146667,7.38339583 20.472375,7.33235417 L20.087375,6.8700625 L19.9809167,6.95902083 C18.346125,5.67860417 16.0682083,5.17402083 14.3255,6.42964583 C13.4402917,7.06547917 12.908,8.00172917 12.7840417,9.1363125 C12.61925,10.6646458 13.227375,12.4481875 14.3313333,13.6819375 C15.3871667,14.8631875 16.989875,15.7352708 18.5532083,15.7352708" id="Fill-5" fill="#D70F64"></path>
                <g id="Group-9" transform="translate(7.291667, 0.000000)">
                    <mask id="mask-2" fill="white">
                        <use xlink:href="#path-1"></use>
                    </mask>
                    <g id="Clip-8"></g>
                    <path d="M6.44364583,3.54097917 L7.17135417,3.7918125 C11.9882292,5.3930625 14.8494792,7.50327083 16.4463542,10.6386875 L16.6096875,10.9609792 C17.4409375,12.5913958 18.3013542,14.2772292 19.3921875,15.8463958 C20.0921875,16.8511875 20.8971875,17.7699375 21.6744792,18.6580625 C22.3365625,19.4149375 23.0205208,20.1951458 23.6213542,21.0103542 C25.0592708,22.9630625 26.0655208,25.0674375 26.6109375,27.2666042 C26.8676042,28.3063958 27.0221875,29.3957708 27.1694792,30.4501458 C27.3459375,31.6941042 27.5267708,32.9803542 27.8811458,34.2388958 C28.1903125,35.3311875 28.6351042,36.3753542 29.0653125,37.3859792 C29.5903125,38.6182708 30.0846875,39.7820208 30.3573958,41.0288958 C30.8678125,43.3549375 30.7803125,45.9813958 30.1065625,48.6268125 L30.0453125,48.8688958 C29.8090625,49.8138958 29.1819792,52.3222292 28.3113542,52.7334792 C27.9876042,52.8895208 27.1971875,52.6313958 25.1963542,50.5955625 L24.9703125,50.3666042 C23.2611458,48.6559792 21.8713542,46.7893125 20.8388542,44.8132708 C20.0163542,43.2382708 19.6998958,41.6195208 19.3644792,39.9074375 C19.2798958,39.4728542 19.1923958,39.0338958 19.0976042,38.5861875 C18.6557292,36.5328542 17.8507292,34.5728542 16.7044792,32.7586875 C16.3923958,32.2628542 16.0686458,31.7801458 15.7463542,31.3003542 C14.8655208,29.9893125 14.0342708,28.7511875 13.4567708,27.3045208 C13.0936458,26.3988958 12.8384375,25.4276458 12.5934375,24.4899375 C12.3557292,23.5828542 12.1092708,22.6436875 11.7621875,21.7366042 C11.0242708,19.8013958 9.85322917,17.9113958 8.28260417,16.1205625 C5.51177083,12.9618125 3.69614583,9.1118125 3.03114583,4.98472917 C2.9290625,4.35910417 2.83864583,3.6911875 2.86635417,3.06264583 L2.87364583,2.9168125 C2.8765625,2.8555625 2.87947917,2.79139583 2.88239583,2.7330625 C2.90427083,2.73160417 2.9290625,2.73014583 2.95822917,2.7286875 C4.01114583,2.6805625 5.29447917,3.1355625 6.44364583,3.54097917 M33.2419792,40.8903542 L33.2857292,40.8757708 L33.1267708,40.3274375 C33.1107292,40.2749375 33.0961458,40.2209792 33.0801042,40.1713958 L32.9838542,39.8388958 C32.9809375,39.8257708 32.9765625,39.8141042 32.9736458,39.8024375 C32.6630208,38.7436875 32.2328125,37.7286875 31.8157292,36.7472292 C31.4409375,35.8634792 31.0530208,34.9491042 30.7657292,34.0274375 C30.3559375,32.7091042 30.1648958,31.3878542 29.9621875,29.9907708 C29.8294792,29.0807708 29.6923958,28.1401458 29.4896875,27.2068125 C28.9880208,24.8953542 28.0182292,22.6232708 26.6065625,20.4561875 C25.8759375,19.3332708 24.9965625,18.3357708 24.1478125,17.3718125 C23.5323958,16.6718125 22.8965625,15.9484792 22.3336458,15.1945208 C21.4017708,13.9491042 20.6419792,12.5680625 19.9069792,11.2322292 C18.5098958,8.6918125 17.0646875,6.06535417 14.3886458,4.28035417 C12.6765625,3.1399375 10.6582292,2.18327083 8.21552083,1.3549375 L7.48489583,1.09827083 C5.75239583,0.481395833 3.38697917,-0.358604167 1.67052083,0.1649375 C-0.4353125,0.813895833 -0.00364583333,3.71452083 0.2078125,5.13639583 C0.524270833,7.28160417 1.1965625,9.5230625 2.2028125,11.8009792 C3.08364583,13.7945208 4.3815625,15.4993125 5.63572917,17.1472292 C7.06635417,19.0299375 8.41822917,20.8061875 9.21010417,22.9849375 C9.51052083,23.8074375 9.7453125,24.6707708 9.97135417,25.5034792 C10.3271875,26.8188958 10.6961458,28.1780625 11.3392708,29.4730625 C11.9094792,30.6251458 12.6196875,31.6722292 13.3051042,32.6843125 C13.6507292,33.1918125 13.9963542,33.7007708 14.3259375,34.2257708 C15.5436458,36.1638958 16.0511458,38.2813958 16.5878125,40.5228542 C17.1026042,42.6680625 17.6319792,44.8847292 18.8409375,46.9249375 C20.2773958,49.3472292 22.0769792,51.5259792 24.0428125,53.2278542 C24.8813542,53.9526458 26.5744792,55.4182708 28.2865625,55.4168125 C28.8290625,55.4168125 29.3744792,55.2695208 29.8936458,54.9078542 C31.8317708,53.5516042 32.6207292,50.6436875 33.1369792,47.9778542 C33.6386458,45.3936875 33.6751042,43.0180625 33.2419792,40.8903542" id="Fill-7" fill="#D70F64" mask="url(#mask-2)"></path>
                </g>
                <path d="M8.90283333,32.717125 C8.90283333,32.5435833 8.8795,32.36275 8.85616667,32.192125 C8.840125,32.0812917 8.822625,31.9792083 8.82554167,31.912125 C8.84595833,31.4804583 8.90575,31.1275417 9.015125,30.7965 C9.18720833,30.2715 9.54595833,29.5700417 10.2809583,29.2069167 C11.6911667,28.5054583 13.377,29.4942083 14.3409583,30.713375 C15.393875,32.0448333 15.9815833,34.9104583 15.13575,36.4737917 C14.76825,37.153375 14.17325,37.49025 13.3245,37.494625 C13.092625,36.5525417 12.5909583,35.613375 11.8545,34.764625 C11.3222083,34.1535833 10.70825,33.6344167 10.0286667,33.2231667 C9.98929167,33.1998333 9.44679167,32.8717083 8.90283333,32.717125 M10.98825,39.0419167 C10.826375,40.1342083 10.205125,40.83275 9.13908333,41.1185833 C7.20533333,41.6348333 4.281375,40.58775 3.003875,38.9194167 C2.251375,37.9350417 2.163875,36.9156667 2.74283333,35.889 C3.35970833,34.79525 4.4695,34.405875 5.60116667,34.405875 C6.24866667,34.405875 6.90345833,34.53275 7.47804167,34.729625 C9.41470833,35.3917083 11.2390833,37.0629583 10.98825,39.0419167 M13.3230417,39.962125 C15.0045,39.949 16.3549167,39.1862917 17.1628333,37.783375 C18.4140833,35.609 18.1822083,31.9967083 16.6495,29.7304583 C15.29325,27.7267083 12.7499167,25.99275 10.1380417,26.64025 C7.67054167,27.2498333 6.43679167,29.6969167 6.37845833,32.0244167 C4.062625,31.8610833 1.36470833,32.725875 0.346791667,35.2079583 C-0.6755,37.7031667 0.714291667,40.329625 2.54741667,41.825875 C3.95325,42.9706667 5.992,43.5962917 7.90825,43.5962917 C8.98304167,43.5962917 10.0199167,43.3994167 10.88325,42.9867083 C12.1622083,42.377125 13.0022083,41.3329583 13.3230417,39.962125" id="Fill-10" fill="#D70F64"></path>
                <path d="M19.5324792,48.6034792 L19.5310208,48.6049375 C19.3764375,49.5966042 18.7391458,50.9018125 17.8276875,51.4778542 C17.3493542,51.7768125 16.8695625,51.8468125 16.3431042,51.6863958 C14.7156042,51.1876458 14.4268542,48.7624375 14.8526875,47.2778542 C15.1633125,46.1841042 16.0849792,44.6688958 17.4018542,44.6688958 C17.4951875,44.6688958 17.5885208,44.6761875 17.6862292,44.6907708 C19.2553958,44.9459792 19.7658125,47.1261875 19.5324792,48.6034792 L19.5324792,48.6034792 Z M21.9328958,46.6099375 L21.8935208,46.4203542 L21.8935208,46.4188958 L21.8920625,46.4116042 C21.8862292,46.3766042 21.8803958,46.3445208 21.8731042,46.3124375 C21.8701875,46.3022292 21.8672708,46.2891042 21.8643542,46.2774375 L21.8351875,46.1345208 L21.8293542,46.1359792 C21.4487292,44.6397292 20.5183125,43.3695208 19.3006042,42.7001458 C18.2331042,42.1138958 17.0474792,42.0438958 15.8735208,42.5047292 C13.0895625,43.6013958 11.9418542,46.9132708 12.2714375,49.4741042 C12.4872708,51.1424375 13.3753958,52.6970208 14.5872708,53.5311875 C15.2653958,53.9963958 16.0178958,54.2326458 16.8039375,54.2326458 C17.1393542,54.2326458 17.4806042,54.1903542 17.8262292,54.1028542 C20.9689375,53.3138958 22.4593542,49.6345208 21.9299792,46.6099375 L21.9328958,46.6099375 Z" id="Fill-12" fill="#D70F64"></path>
            </g>
        </g>
    </g>
</svg>