<?xml version="1.0" encoding="UTF-8"?>
<svg width="80px" height="80px" viewBox="0 0 80 80" version="1.1" xmlns="http://www.w3.org/2000/svg" xmlns:xlink="http://www.w3.org/1999/xlink">
    <!-- Generator: Sketch 50.2 (55047) - http://www.bohemiancoding.com/sketch -->
    <title>ic-allergy-vegetarian</title>
    <desc>Created with Sketch.</desc>
    <defs>
        <polygon id="path-1" points="7.26235114 0 1.05759519 0 1.05759519 19.1753333 7.26235114 19.1753333"></polygon>
    </defs>
    <g id="ic-allergy-vegetarian" stroke="none" stroke-width="1" fill="none" fill-rule="evenodd">
        <g id="icons/not-used/allergens/ic-allergy-vegetarian" transform="translate(5.000000, 5.000000)">
            <g id="-g-" transform="translate(11.666667, 5.833333)">
                <g id="Group-3" transform="translate(18.958333, 0.000000)">
                    <mask id="mask-2" fill="white">
                        <use xlink:href="#path-1"></use>
                    </mask>
                    <g id="Clip-2"></g>
                    <path d="M3.507,19.0003333 C3.70241667,19.1140833 3.927,19.1753333 4.15158333,19.1753333 C4.63866667,19.1753333 5.086375,18.902625 5.322625,18.4592917 C5.67845833,17.7884583 5.445125,16.93825 4.802,16.5678333 C3.13220833,15.6024167 3.45595833,14.2067917 5.35470833,10.2197083 C6.15533333,8.54116667 6.98366667,6.80575 7.20533333,5.14616667 C7.497,2.97033333 6.66575,1.25095833 4.802,0.174708333 C4.59783333,0.055125 4.37616667,-0.000291666667 4.15595833,-0.000291666667 C3.686375,-0.000291666667 3.22845833,0.257833333 2.986375,0.717208333 C2.811375,1.04095833 2.77054167,1.41575 2.86970833,1.7745 C2.968875,2.13179167 3.19491667,2.42783333 3.507,2.60866667 C5.191375,3.581375 4.867625,4.98283333 2.96304167,8.98304167 C2.163875,10.660125 1.33845833,12.392625 1.11533333,14.042 C0.822208333,16.2134583 1.64908333,17.9284583 3.507,19.0003333" id="Fill-1" fill="#D70F64" mask="url(#mask-2)"></path>
                </g>
                <path d="M43.1824167,41.2861458 C42.4824167,44.6548958 40.4524167,47.7115625 37.3140833,50.1236458 C33.47575,53.0767708 28.4095,54.7013542 23.050125,54.7013542 C17.69075,54.7013542 12.6230417,53.0767708 8.78616667,50.1236458 C5.646375,47.7115625 3.616375,44.6548958 2.916375,41.2861458 L2.8945,41.1796875 L2.99658333,41.1986458 C3.80158333,41.3473958 4.64741667,41.4917708 5.51220833,41.6273958 C5.537,41.6317708 5.56179167,41.6361458 5.585125,41.6390625 C11.0947083,42.4980208 16.9703333,42.9340625 23.050125,42.9340625 C29.1299167,42.9340625 35.007,42.4980208 40.5136667,41.6390625 L40.5865833,41.6273958 C41.4484583,41.4917708 42.29575,41.3473958 43.1022083,41.1986458 L43.2042917,41.1796875 L43.1824167,41.2861458 Z M34.740125,32.5303125 C34.5578333,32.5346875 34.2953333,32.5376042 34.040125,32.5376042 C33.7892917,32.5376042 33.5472083,32.5346875 33.3897083,32.5186458 L33.2599167,32.5055208 L33.3415833,32.3990625 L38.975125,25.1088542 C39.1997083,24.8201042 39.3003333,24.4569792 39.2624167,24.0894792 C39.2245,23.7190625 39.0509583,23.3865625 38.7724167,23.1532292 C38.493875,22.9228125 38.152625,22.8134375 37.7909583,22.8542708 C37.4365833,22.8936458 37.1172083,23.0744792 36.8940833,23.3632292 L31.178875,30.7584375 L31.1395,30.6301042 C30.172625,27.5194792 30.855125,24.0311458 32.963875,21.3026042 C35.4634583,18.0694792 39.3630417,16.6884375 42.895125,17.7748958 L42.9228333,17.7836458 L42.9359583,17.8098958 C44.7122083,21.1728125 44.2455417,25.4369792 41.7474167,28.6701042 C40.0309583,30.8882292 37.5692917,32.2940625 34.9924167,32.5273958 C34.9574167,32.5273958 34.8684583,32.5288542 34.740125,32.5303125 L34.740125,32.5303125 Z M44.50075,38.0894792 C43.4055417,38.3169792 42.2942917,38.5269792 41.1961667,38.7121875 L41.1495,38.7194792 L41.1247083,38.6757292 C40.87825,38.2396875 40.5749167,37.8328125 40.2249167,37.4667708 L37.6655417,34.8023958 L37.776375,34.7659375 C40.1374167,33.9871875 42.2286667,32.4836458 43.827,30.4171875 C47.1505417,26.1180208 47.5997083,20.2773958 44.947,15.8834375 C44.7895,15.6238542 44.548875,15.4226042 44.2703333,15.3161458 C39.58325,13.5501042 34.2049167,15.2578125 30.8842917,19.5569792 C27.8086667,23.5367708 27.171375,28.8786458 29.2655417,33.1690625 L29.2859583,33.2098958 L28.9636667,33.6240625 C28.7405417,33.9142708 28.6384583,34.2773958 28.6749167,34.6448958 C28.7142917,35.0153125 28.8878333,35.3478125 29.166375,35.5811458 C29.4449167,35.8144792 29.796375,35.9194792 30.1478333,35.8801042 C30.5036667,35.8421875 30.8215833,35.6613542 31.0447083,35.3711458 L31.3655417,34.9569792 L31.4092917,34.9686458 C32.3280417,35.2165625 33.2774167,35.3419792 34.2355417,35.3419792 L34.3755417,35.3419792 L34.4061667,35.3419792 L38.0899167,39.1803125 L37.947,39.1992708 C33.1884583,39.8292708 28.1761667,40.1501042 23.050125,40.1501042 C17.9240833,40.1501042 12.9103333,39.8292708 8.15179167,39.1992708 L8.01033333,39.1803125 L20.8174167,25.8365625 C21.8017917,24.8098958 23.3447083,24.5809375 24.5784583,25.2838542 C24.8890833,25.4632292 25.2536667,25.5040625 25.5934583,25.4005208 C25.9361667,25.2969792 26.2205417,25.0592708 26.3911667,24.7340625 C26.7455417,24.0617708 26.5092917,23.2130208 25.86325,22.8440625 C23.6028333,21.5476042 20.7503333,21.9705208 18.9274167,23.8678125 L5.87533333,37.4667708 C5.52241667,37.8342708 5.222,38.2411458 4.97554167,38.6757292 L4.95075,38.7194792 L4.90408333,38.7121875 C3.81179167,38.5284375 2.70054167,38.3184375 1.5995,38.0894792 C1.51054167,38.0705208 1.420125,38.0617708 1.33116667,38.0617708 C1.01470833,38.0617708 0.708458333,38.1798958 0.462,38.4015625 C0.151375,38.6815625 -0.0207083333,39.1044792 0.002625,39.5303125 C0.402208333,47.1092708 6.29533333,53.7009375 15.0147083,56.3230208 L15.0905417,56.3463542 L15.0599167,56.4192708 C14.9972083,56.5855208 14.9636667,56.7619792 14.9636667,56.9413542 C14.9636667,57.7098958 15.5630417,58.3326042 16.2995,58.3326042 L29.7992917,58.3326042 C30.53575,58.3326042 31.135125,57.7098958 31.135125,56.9413542 C31.135125,56.7619792 31.1015833,56.5855208 31.038875,56.4192708 L31.00825,56.3463542 L31.0840833,56.3230208 C39.8034583,53.7009375 45.6980417,47.1092708 46.0990833,39.5303125 C46.1209583,39.0971875 45.95325,38.6859375 45.63825,38.4015625 C45.327625,38.1201042 44.9017917,38.0019792 44.50075,38.0894792 L44.50075,38.0894792 Z" id="Fill-4" fill="#D70F64"></path>
            </g>
        </g>
    </g>
</svg>