<?xml version="1.0" encoding="UTF-8"?>
<svg width="80px" height="80px" viewBox="0 0 80 80" version="1.1" xmlns="http://www.w3.org/2000/svg" xmlns:xlink="http://www.w3.org/1999/xlink">
    <!-- Generator: Sketch 50.2 (55047) - http://www.bohemiancoding.com/sketch -->
    <title>ic-allergy-mollucs</title>
    <desc>Created with Sketch.</desc>
    <defs>
        <polygon id="path-1" points="34.9688094 58.3333333 0 58.3333333 0 0 17.4844047 0 34.9688094 0 34.9688094 58.3333333"></polygon>
    </defs>
    <g id="ic-allergy-mollucs" stroke="none" stroke-width="1" fill="none" fill-rule="evenodd">
        <g id="icons/not-used/allergens/ic-allergy-mollucs" transform="translate(5.000000, 5.000000)">
            <g id="-g-" transform="translate(17.500000, 5.833333)">
                <mask id="mask-2" fill="white">
                    <use xlink:href="#path-1"></use>
                </mask>
                <g id="Clip-2"></g>
                <path d="M31.0916667,25.6083333 C30.88925,21.9713083 29.4483,18.5130458 27.0083333,15.8083333 C27.12213,12.6658875 25.5409933,9.70404167 22.8666667,8.05 C22.8562221,7.41498333 22.7480079,6.78539167 22.5458333,6.18333333 C21.5408229,3.88082917 19.9646738,1.87299583 17.9666667,0.35 L17.5,0 L17.1791667,0.495833333 L15.0791667,3.87916667 C14.3169979,5.31445833 13.9354104,6.92113333 13.9708333,8.54583333 C11.7331696,10.3657167 10.3670088,13.0450833 10.2083333,15.925 C7.92001583,18.1373792 6.388865,21.015925 5.83333333,24.15 C4.29345583,25.0110292 2.88006629,26.0808917 1.63333392,27.3291667 C-0.290533133,29.2434508 -0.584256167,32.2541246 0.933334208,34.5041638 C1.30388942,35.1496979 1.77669508,35.7308583 2.33333333,36.225 L2.33333333,36.225 C3.75368583,39.600505 4.83809083,43.1077208 5.57083042,46.6958333 C6.03695167,51.4334654 9.02642125,55.5495579 13.3875,57.4583301 C14.8152637,58.0336324 16.3398579,58.3306297 17.8791667,58.3333333 C19.5277513,58.4029333 21.1605071,57.9871361 22.575,57.1375006 C23.3237112,56.6387351 24.0092621,56.0511216 24.6166696,55.3875 C28.1374363,51.3458283 31.1359708,46.8774367 33.5416667,42.0874971 C36.1171417,36.6021425 35.1515208,30.1071983 31.0916667,25.6083333 Z M18.1416667,4.1125 C19.0707388,4.85024167 19.7275429,5.8765 20.0083304,7.02916667 C18.9132738,6.87939583 17.79876,6.96896667 16.7416667,7.29166667 C16.8746462,6.11435417 17.3629721,5.00546667 18.1416637,4.1125 L18.1416667,4.1125 Z M18.7833333,9.94583333 C22.1666637,9.94583333 23.1583333,11.4625 23.8,14.0583333 C22.0129787,13.3445375 20.0925929,13.026125 18.1708333,13.125 C16.5741362,13.2132292 15.0049375,13.5783958 13.5333304,14.2041667 C13.9426408,11.6421083 16.189915,9.78185833 18.7833333,9.85833333 L18.7833333,9.94583333 Z M12.3375,18.025 C14.0058771,16.7127042 16.0493783,15.966825 18.1708333,15.8958333 C20.8532421,15.599325 23.5223858,16.5572167 25.4041667,18.4916667 C26.5150492,19.8420542 27.3031121,21.4281667 27.7083362,23.1291667 C24.7931367,21.5611083 21.5064938,20.8150542 18.2,20.9708333 L16.5375,20.9708333 C14.0511992,21.055825 11.6007208,21.5894 9.30416375,22.5458333 C9.87231292,20.7847208 10.9232667,19.2184125 12.3375,18.025 Z M14.5833333,54.7750029 C11.1798867,53.2182175 8.85120833,49.9802537 8.45833333,46.2583333 C7.95549125,43.6769812 7.24342208,41.1408404 6.32916958,38.675 L10.6166667,40.6583362 C12.9791667,41.7375 15.4291667,42.8750029 16.45,43.4000029 C19.8320821,45.2490704 21.757715,48.9619696 21.3208333,52.7916667 C21.3208333,53.1708333 21.3208333,54.3083362 20.7666667,54.8333362 C18.7793696,55.6346344 16.5551546,55.6136505 14.5833333,54.7749971 L14.5833333,54.7750029 Z M26.8333333,48.2999971 C26.25,49.2041637 25.0541667,50.8666637 23.9166667,52.2375 C23.9385329,51.26212 23.8799983,50.2866029 23.7416637,49.3208333 C23.3009029,45.8778542 21.22666,42.8588008 18.1708304,41.2125029 C16.6247871,40.4020575 15.0379542,39.6719167 13.4166637,39.0249971 C11.9875,38.4416667 10.4999971,37.8291667 9.12916375,37.1 L8.07916667,36.575 C6.9090175,36.0350083 5.7952475,35.3804267 4.75416667,34.6208362 C3.70943417,33.8910367 3.03768208,32.7394608 2.91666667,31.4708333 C2.97561542,30.2968458 3.57984083,29.2178717 4.55,28.5541667 C8.00468083,25.7879125 12.2355217,24.1669458 16.6541667,23.9166667 L18.2291667,23.9166667 C26.8041667,24.1208333 31.2083333,27.6791667 32.0833333,35 C32.0833333,37.1 31.7625,40.6291667 26.8333333,48.2999971 Z" id="Fill-1" fill="#D70F64" mask="url(#mask-2)"></path>
            </g>
        </g>
    </g>
</svg>