<?xml version="1.0" encoding="UTF-8"?>
<svg width="80px" height="80px" viewBox="0 0 80 80" version="1.1" xmlns="http://www.w3.org/2000/svg" xmlns:xlink="http://www.w3.org/1999/xlink">
    <!-- Generator: Sketch 50.2 (55047) - http://www.bohemiancoding.com/sketch -->
    <title>ic-allergy-very-spicy</title>
    <desc>Created with Sketch.</desc>
    <defs>
        <polygon id="path-1" points="43.6248767 55.4166667 0 55.4166667 0 0 43.6248767 0 43.6248767 55.4166667"></polygon>
    </defs>
    <g id="ic-allergy-very-spicy" stroke="none" stroke-width="1" fill="none" fill-rule="evenodd">
        <g id="icons/not-used/allergens/ic-allergy-very-spicy" transform="translate(5.000000, 5.000000)">
            <g id="-g-" transform="translate(11.666667, 8.750000)">
                <mask id="mask-2" fill="white">
                    <use xlink:href="#path-1"></use>
                </mask>
                <g id="Clip-2"></g>
                <path d="M41.3,12.425 C41.0111917,10.2197375 39.775925,8.24970417 37.9166667,7.02916667 C37.3469833,6.72487083 36.7386542,6.49920833 36.1083333,6.35833333 C35.9454083,4.5563875 35.049,2.900625 33.6291667,1.77916667 C32.5650208,0.968391667 31.3579583,0.364845833 30.0708333,-2.11636264e-15 C29.6916667,-0.0868875 29.2934833,-0.0186666667 28.9648625,0.189466667 C28.6362271,0.3976 28.4043696,0.728408333 28.3208333,1.10833333 C28.1352692,1.9033 28.6122317,2.70255417 29.4,2.91666667 C30.3125958,3.18327917 31.1714375,3.60774167 31.9375,4.17083333 C32.4688292,4.64377083 32.8279292,5.27989583 32.9583333,5.97916667 C32.4436292,6.001275 31.9338833,6.08950417 31.4416667,6.24166667 C30.6483917,6.49614583 29.9074125,6.891325 29.2541667,7.40833333 C28.737765,7.839825 28.2945483,8.35199167 27.9416667,8.925 L27.65,9.45 C26.4592417,10.1759 25.4592363,11.1759083 24.7333333,12.3666667 C23.5176375,14.5611375 22.7726333,16.9848875 22.5458333,19.4833333 C22.3708363,20.8541667 22.225,22.4 22.1083333,23.7416667 C21.9916667,25.0833333 21.8166667,27.1541667 21.5541667,28.9041667 C20.9365683,36.5983683 16.4548563,43.4527508 9.65416958,47.1041667 C7.11433042,48.5203425 4.43656208,49.6735458 1.6625,50.5458333 L1.19583333,50.75 C0.28961275,51.2732587 -0.171213204,52.3248833 0.0583338583,53.345836 C0.297040917,54.5083236 1.29372629,55.3609077 2.47916667,55.4166611 C9.88535625,55.7682379 17.2334954,53.9539997 23.6250029,50.1958304 C33.7458333,44.3624971 41.5041667,34.1249971 43.3416667,24.5875 C43.4583333,23.9847125 43.5458333,23.3819542 43.6041667,22.7791667 L43.6041667,20.6791667 C43.76785,17.7489083 42.9577167,14.8467958 41.3,12.425 Z M40.4541667,22.8666667 C40.2560083,24.1938667 39.94375,25.5014958 39.5208333,26.775 C36.359575,35.5677962 30.150575,42.9357833 22.0208333,47.5416579 C17.0913458,50.4220033 11.5366446,52.0633925 5.83333333,52.3250029 C7.69017083,51.5976475 9.49327458,50.7399579 11.2291667,49.7583362 C17.7403567,46.3246087 22.3967129,40.1837742 23.9458333,32.9875029 C24.5819379,30.0374025 25.0011154,27.044675 25.1999942,24.0333333 L25.2,24.0333333 C25.1940967,20.5699667 25.9404658,17.1466167 27.3875,14 C27.7397808,13.4601833 28.1840154,12.9863417 28.7,12.6 C29.47665,12.9252375 30.3602833,12.8713375 31.0916667,12.4541667 L31.2666667,12.4541667 C32.30605,13.9205208 34.2929125,14.3507875 35.8458333,13.4458333 C36.1637208,13.2596917 36.44935,13.0232958 36.6916667,12.7458333 C37.0068125,12.9642333 37.3646875,13.1133625 37.7416667,13.1833333 C38.7961875,14.2541 39.6113958,15.5365292 40.1333333,16.9458333 C40.5091458,18.1937 40.6863333,19.4929292 40.6583333,20.7958333 C40.6410667,21.4889792 40.5826458,22.1804625 40.4833333,22.8666667 L40.4541667,22.8666667 Z" id="Fill-1" fill="#D70F64" mask="url(#mask-2)"></path>
                <polygon id="Fill-3" fill="#D70F64" mask="url(#mask-2)" points="2.91666667 37.9166667 5.83333333 37.9166667 5.83333333 40.8333333 2.91666667 40.8333333"></polygon>
                <polygon id="Fill-4" fill="#D70F64" mask="url(#mask-2)" points="2.91666667 14.5833333 5.83333333 14.5833333 5.83333333 35 2.91666667 35"></polygon>
                <polygon id="Fill-5" fill="#D70F64" mask="url(#mask-2)" points="11.6666667 37.9166667 14.5833333 37.9166667 14.5833333 40.8333333 11.6666667 40.8333333"></polygon>
                <polygon id="Fill-6" fill="#D70F64" mask="url(#mask-2)" points="11.6666667 14.5833333 14.5833333 14.5833333 14.5833333 35 11.6666667 35"></polygon>
            </g>
        </g>
    </g>
</svg>