<?xml version="1.0" encoding="UTF-8"?>
<svg width="80px" height="80px" viewBox="0 0 80 80" version="1.1" xmlns="http://www.w3.org/2000/svg" xmlns:xlink="http://www.w3.org/1999/xlink">
    <!-- Generator: Sketch 50.2 (55047) - http://www.bohemiancoding.com/sketch -->
    <title>ic-allergy-mustard</title>
    <desc>Created with Sketch.</desc>
    <defs></defs>
    <g id="ic-allergy-mustard" stroke="none" stroke-width="1" fill="none" fill-rule="evenodd">
        <g id="icons/not-used/allergens/ic-allergy-mustard" transform="translate(5.000000, 5.000000)" fill="#D70F64">
            <path d="M26.0866667,61.2747917 L43.911875,61.2747917 L43.911875,29.6304167 L26.0866667,29.6304167 L26.0866667,61.2747917 Z M28.660625,26.7385417 L41.339375,26.7385417 L41.339375,23.33625 L28.660625,23.33625 L28.660625,26.7385417 Z M35,11.97 L37.349375,20.4458333 L32.6520833,20.4458333 L35,11.97 Z M45.2885417,26.7385417 L44.0941667,26.7385417 L44.0941667,21.8925 C44.0941667,21.0947917 43.4758333,20.4458333 42.7175,20.4458333 L40.2660417,20.4458333 L37.1641667,9.716875 C37.0241667,9.2925 36.6945833,8.95854167 36.2877083,8.81854167 C36.150625,8.77333333 36.0077083,8.75 35.8647917,8.75 L34.1352083,8.75 C33.5504167,8.75 33.0283333,9.13791667 32.8358333,9.716875 L29.7339583,20.4458333 L27.2825,20.4458333 C26.5241667,20.4458333 25.9058333,21.0947917 25.9058333,21.8925 L25.9058333,26.7385417 L24.7114583,26.7385417 C24.3425,26.7385417 23.996875,26.8902083 23.73875,27.1629167 C23.4777083,27.435625 23.3333333,27.79875 23.3333333,28.18375 L23.3333333,62.72 C23.3333333,63.5177083 23.9516667,64.1666667 24.7114583,64.1666667 L45.2885417,64.1666667 C46.0483333,64.1666667 46.6666667,63.5177083 46.6666667,62.72 L46.6666667,28.18375 C46.6666667,27.79875 46.5222917,27.435625 46.2627083,27.1629167 C46.003125,26.8902083 45.6575,26.7385417 45.2885417,26.7385417 L45.2885417,26.7385417 Z" id="-g-"></path>
        </g>
    </g>
</svg>