<?xml version="1.0" encoding="UTF-8"?>
<svg width="80px" height="80px" viewBox="0 0 80 80" version="1.1" xmlns="http://www.w3.org/2000/svg" xmlns:xlink="http://www.w3.org/1999/xlink">
    <!-- Generator: Sketch 50.2 (55047) - http://www.bohemiancoding.com/sketch -->
    <title>ic-address-work</title>
    <desc>Created with Sketch.</desc>
    <defs>
        <path d="M26.6666667,26.6666667 L26.6666667,21 C26.6666667,20.4477153 27.1143819,20 27.6666667,20 L52.3333333,20 C52.8856181,20 53.3333333,20.4477153 53.3333333,21 L53.3333333,26.6666667 L66.6666667,26.6666667 L66.6666667,70 L13.3333333,70 L13.3333333,26.6666667 L26.6666667,26.6666667 Z M53.3333333,50 L63.3333333,50 L63.3333333,30 L16.6666667,30 L16.6666667,50 L26.6666667,50 L30,50 L50,50 L53.3333333,50 Z M53.3333333,53.3333333 L53.3333333,56.6666667 L50,56.6666667 L50,53.3333333 L30,53.3333333 L30,56.6666667 L26.6666667,56.6666667 L26.6666667,53.3333333 L16.6666667,53.3333333 L16.6666667,66.6666667 L63.3333333,66.6666667 L63.3333333,53.3333333 L53.3333333,53.3333333 Z M30,23.3333333 L30,26.6666667 L50,26.6666667 L50,23.3333333 L30,23.3333333 Z" id="path-1"></path>
    </defs>
    <g id="ic-address-work" stroke="none" stroke-width="1" fill="none" fill-rule="evenodd">
        <g id="icons/location/ic-work">
            <mask id="mask-2" fill="white">
                <use xlink:href="#path-1"></use>
            </mask>
            <path stroke="#858585" stroke-width="1" d="M13.8333333,27.1666667 L13.8333333,69.5 L66.1666667,69.5 L66.1666667,27.1666667 L52.8333333,27.1666667 L52.8333333,21 C52.8333333,20.7238576 52.6094757,20.5 52.3333333,20.5 L27.6666667,20.5 C27.3905243,20.5 27.1666667,20.7238576 27.1666667,21 L27.1666667,27.1666667 L13.8333333,27.1666667 Z M63.8333333,50.5 L16.1666667,50.5 L16.1666667,29.5 L63.8333333,29.5 L63.8333333,50.5 Z M27.1666667,56.1666667 L29.5,56.1666667 L29.5,52.8333333 L50.5,52.8333333 L50.5,56.1666667 L52.8333333,56.1666667 L52.8333333,52.8333333 L63.8333333,52.8333333 L63.8333333,67.1666667 L16.1666667,67.1666667 L16.1666667,52.8333333 L27.1666667,52.8333333 L27.1666667,56.1666667 Z M29.5,22.8333333 L50.5,22.8333333 L50.5,27.1666667 L29.5,27.1666667 L29.5,22.8333333 Z"></path>
            <g id="pandora/$color-interaction-secondary" mask="url(#mask-2)" fill="#D70F64" fill-rule="evenodd">
                <rect id="bg" x="0" y="0" width="80" height="80"></rect>
            </g>
        </g>
    </g>
</svg>