<?xml version="1.0" encoding="UTF-8"?>
<svg width="80px" height="80px" viewBox="0 0 80 80" version="1.1" xmlns="http://www.w3.org/2000/svg" xmlns:xlink="http://www.w3.org/1999/xlink">
    <!-- Generator: Sketch 50.2 (55047) - http://www.bohemiancoding.com/sketch -->
    <title>ic-allergy-vegan</title>
    <desc>Created with Sketch.</desc>
    <defs></defs>
    <g id="ic-allergy-vegan" stroke="none" stroke-width="1" fill="none" fill-rule="evenodd">
        <g id="icons/not-used/allergens/ic-allergy-vegan" transform="translate(5.000000, 5.000000)" fill="#D70F64">
            <g id="-g-" transform="translate(0.000000, 11.666667)">
                <path d="M51.4249167,15.0747917 L51.4249167,15.0747917 L51.1842917,14.9129167 C48.293875,19.1420833 45.7972083,22.7952083 42.637,22.7952083 C41.7867917,22.7952083 40.8840833,22.5575 39.885125,22.0689583 L40.0615833,21.7904167 C42.4474167,18.0425 44.8536667,14.98875 45.126375,14.6460417 C45.2255417,14.5220833 45.2036667,14.3427083 45.0797083,14.2435417 L43.0978333,12.6772917 C42.973875,12.578125 42.7915833,12.6 42.6909583,12.7225 C42.5786667,12.8610417 39.9842917,16.104375 37.387,20.2095833 C36.1240833,18.655 35.798875,16.5083333 36.472625,14.1152083 C37.247,11.3633333 39.2522083,8.63479167 41.9734583,6.6325 C44.163875,5.01666667 47.865125,3.09458333 53.0728333,3.09458333 C55.451375,3.09458333 57.9130417,3.504375 60.3995,4.31520833 C56.466375,7.1925 53.67075,11.27875 51.1930417,14.8997917 L51.4249167,15.0747917 L51.4249167,15.0747917 Z M19.5778333,15.8491667 L18.1092917,17.8995833 C18.0174167,18.029375 18.0465833,18.20875 18.1778333,18.3020833 C18.49575,18.5266667 18.911375,18.7877083 19.418875,19.105625 C20.9574167,20.068125 23.2528333,21.5075 25.2799167,23.5608333 C24.3305417,24.3191667 23.4424167,24.688125 22.5747083,24.688125 C20.4047083,24.688125 18.0597083,22.4379167 15.3311667,19.8172917 C12.8505417,17.4358333 10.056375,14.7539583 6.61325,13.0710417 C9.36804167,11.5675 12.1884583,10.8077083 15.0045,10.8077083 C20.9778333,10.8077083 25.4884583,14.2902083 26.8549167,17.7289583 C27.1874167,18.5645833 27.4805417,19.78375 27.1247083,21.0364583 C24.9255417,18.9029167 22.5440833,17.408125 21.0784583,16.489375 C20.6292917,16.2079167 20.241375,15.9658333 19.98325,15.780625 C19.9205417,15.736875 19.8403333,15.7208333 19.7659583,15.7325 C19.6915833,15.7441667 19.6230417,15.7864583 19.5778333,15.8491667 L19.5778333,15.8491667 Z M66.9124167,3.65166667 L64.498875,2.58125 C60.6415833,0.869166667 56.7974167,0 53.0728333,0 C48.28075,0 43.8022083,1.43354167 40.1199167,4.14458333 C36.8561667,6.55083333 34.433875,9.88166667 33.4772083,13.2825 C32.403875,17.093125 33.2249167,20.6135417 35.728875,22.9789583 C34.9253333,24.6327083 33.2380417,30.45 32.543875,34.671875 C31.86575,30.03875 30.2455417,24.9841667 29.3792917,23.6002083 C30.601375,21.555625 30.7340833,19.075 29.74825,16.5929167 C28.7959583,14.1925 26.8680417,11.9816667 24.32325,10.3672917 C21.5845,8.631875 18.3615833,7.71458333 15.0045,7.71458333 C10.703875,7.71458333 6.29825,9.25458333 2.260125,12.1654167 L0.119291667,13.7083333 C0.028875,13.7725 -0.0163333333,13.8833333 0.00554166667,13.9927083 C0.0245,14.1020833 0.106166667,14.1910417 0.212625,14.2202083 L2.76616667,14.91 C6.90491667,16.0270833 10.23575,19.2252083 13.1772083,22.0514583 C16.2455417,24.9972917 19.1447083,27.78125 22.5747083,27.7827083 C24.1861667,27.7827083 25.7159583,27.1847917 27.24575,25.9597917 C28.672,28.7379167 30.8230417,42.35875 30.8230417,45.5670833 L30.8230417,49.2960417 C30.8230417,49.455 30.9542917,49.5833333 31.11325,49.5833333 L33.6449167,49.5833333 C33.8053333,49.5833333 33.935125,49.455 33.935125,49.2960417 L33.9380417,45.2666667 C33.9380417,41.4983333 36.1897083,28.7860417 38.2955417,24.7377083 C39.81075,25.5120833 41.2340833,25.8883333 42.637,25.8883333 C47.4422083,25.8883333 50.5105417,21.4025 53.75825,16.6527083 C56.5961667,12.499375 59.8117917,7.79333333 64.57325,5.36958333 L66.9240833,4.17083333 C67.0247083,4.12125 67.0859583,4.01770833 67.0830417,3.90833333 C67.080125,3.7975 67.0130417,3.696875 66.9124167,3.65166667 L66.9124167,3.65166667 Z" id="Fill-1"></path>
            </g>
        </g>
    </g>
</svg>