<?xml version="1.0" encoding="UTF-8"?>
<svg width="80px" height="80px" viewBox="0 0 80 80" version="1.1" xmlns="http://www.w3.org/2000/svg" xmlns:xlink="http://www.w3.org/1999/xlink">
    <!-- Generator: Sketch 50.2 (55047) - http://www.bohemiancoding.com/sketch -->
    <title>ic-cuisine-greek</title>
    <desc>Created with Sketch.</desc>
    <defs></defs>
    <g id="ic-cuisine-greek" stroke="none" stroke-width="1" fill="none" fill-rule="evenodd">
        <g id="icons/cuisines/ic_cuisines_greek">
            <g id="-g-ic_cuisines_greek">
                <rect id="bg" fill="#D70F64" x="0" y="0" width="80" height="80" rx="13"></rect>
                <path d="M32.4136,27.8204 C31.8629333,26.7657333 32.2722667,25.4657333 33.3269333,24.9150667 C34.3802667,24.3644 35.7176,24.7550667 36.2322667,25.8270667 C36.9536,27.3350667 35.2749333,28.6297333 36.4096,29.4430667" id="Stroke-1" stroke="#FFFFFF" stroke-linecap="round" stroke-linejoin="round"></path>
                <path d="M36.2641333,29.2976 L37.7961333,30.8296" id="Stroke-3" stroke="#FFFFFF" stroke-linecap="round" stroke-linejoin="round"></path>
                <path d="M42.5374667,34.4849333 L41.1481333,35.9769333 C40.3868,36.7942667 39.1081333,36.8409333 38.2908,36.0796 L37.3601333,35.2142667 C36.5428,34.4529333 36.4974667,33.1729333 37.2574667,32.3556 L38.6468,30.8636 C39.4081333,30.0462667 40.6881333,30.0009333 41.5054667,30.7609333 L42.4348,31.6276 C43.2521333,32.3876 43.2988,33.6676 42.5374667,34.4849333 L42.5374667,34.4849333 Z" id="Stroke-5" stroke="#FFFFFF" stroke-linecap="round" stroke-linejoin="round"></path>
                <path d="M47.9558667,39.9033333 L46.5665333,41.3953333 C45.8052,42.2126667 44.5265333,42.2593333 43.7092,41.498 L42.7785333,40.6326667 C41.9612,39.8713333 41.9158667,38.5913333 42.6758667,37.774 L44.0652,36.282 C44.8265333,35.4646667 46.1065333,35.4193333 46.9238667,36.1793333 L47.8532,37.046 C48.6705333,37.806 48.7172,39.086 47.9558667,39.9033333 L47.9558667,39.9033333 Z" id="Stroke-7" stroke="#FFFFFF" stroke-linecap="round" stroke-linejoin="round"></path>
                <path d="M45.4989333,34.646 L41.3856,39.066 C41.1949333,39.2686667 40.8762667,39.2806667 40.6722667,39.0913333 L39.9269333,38.3966667 C39.7229333,38.2073333 39.7109333,37.8873333 39.9016,37.6833333 L44.0149333,33.2646667 C44.2042667,33.0606667 44.5242667,33.0486667 44.7269333,33.2393333 L45.4736,33.9326667 C45.6776,34.1233333 45.6882667,34.442 45.4989333,34.646 L45.4989333,34.646 Z" id="Stroke-9" stroke="#FFFFFF" stroke-linecap="round" stroke-linejoin="round"></path>
                <path d="M50.7250667,39.8721333 L46.6117333,44.2921333 C46.4210667,44.4948 46.1024,44.5068 45.8984,44.3174667 L45.1530667,43.6228 C44.9490667,43.4334667 44.9370667,43.1134667 45.1277333,42.9094667 L49.2410667,38.4908 C49.4304,38.2868 49.7504,38.2748 49.9530667,38.4654667 L50.6997333,39.1601333 C50.9037333,39.3494667 50.9144,39.6681333 50.7250667,39.8721333 L50.7250667,39.8721333 Z" id="Stroke-11" stroke="#FFFFFF" stroke-linecap="round" stroke-linejoin="round"></path>
                <path d="M53.3577333,45.3052 L51.9684,46.7972 C51.2070667,47.6145333 49.9284,47.6612 49.1110667,46.8998667 L48.1804,46.0345333 C47.3630667,45.2732 47.3177333,43.9932 48.0790667,43.1758667 L49.4670667,41.6838667 C50.2284,40.8665333 51.5084,40.8212 52.3257333,41.5812 L53.2550667,42.4478667 C54.0724,43.2078667 54.1190667,44.4878667 53.3577333,45.3052 L53.3577333,45.3052 Z" id="Stroke-13" stroke="#FFFFFF" stroke-linecap="round" stroke-linejoin="round"></path>
                <path d="M53.2653333,46.2988 L54.7973333,47.8308" id="Stroke-15" stroke="#FFFFFF" stroke-linecap="round" stroke-linejoin="round"></path>
                <path d="M50.4938667,42.5022667 C50.7192,42.4009333 50.9618667,42.3462667 51.2045333,42.3369333 C51.4485333,42.3289333 51.6938667,42.3662667 51.9258667,42.4516" id="Stroke-17" stroke="#FFFFFF" stroke-linecap="round" stroke-linejoin="round"></path>
                <path d="M44.4110667,37.4333333 C44.6364,37.332 44.8790667,37.2773333 45.1217333,37.268 C45.3657333,37.26 45.6110667,37.2973333 45.8430667,37.3826667" id="Stroke-19" stroke="#FFFFFF" stroke-linecap="round" stroke-linejoin="round"></path>
                <path d="M39.3422667,32.3644 C39.5676,32.2630667 39.8102667,32.2084 40.0529333,32.1990667 C40.2969333,32.1910667 40.5422667,32.2284 40.7742667,32.3137333" id="Stroke-21" stroke="#FFFFFF" stroke-linecap="round" stroke-linejoin="round"></path>
                <path d="M47.0508,52.1796 C47.6014667,53.2342667 47.1921333,54.5342667 46.1374667,55.0849333 C45.0841333,55.6356 43.7468,55.2449333 43.2321333,54.1729333 C42.5108,52.6649333 44.1894667,51.3702667 43.0548,50.5569333" id="Stroke-23" stroke="#FFFFFF" stroke-linecap="round" stroke-linejoin="round"></path>
                <path d="M43.2001333,50.7024 L41.6681333,49.1704" id="Stroke-25" stroke="#FFFFFF" stroke-linecap="round" stroke-linejoin="round"></path>
                <path d="M36.9269333,45.5150667 L38.3162667,44.0230667 C39.0776,43.2057333 40.3562667,43.1590667 41.1736,43.9204 L42.1042667,44.7857333 C42.9216,45.5470667 42.9669333,46.8270667 42.2069333,47.6444 L40.8176,49.1364 C40.0562667,49.9537333 38.7762667,49.9990667 37.9589333,49.2390667 L37.0296,48.3724 C36.2122667,47.6124 36.1656,46.3324 36.9269333,45.5150667 L36.9269333,45.5150667 Z" id="Stroke-27" stroke="#FFFFFF" stroke-linecap="round" stroke-linejoin="round"></path>
                <path d="M31.5084,40.0966667 L32.8977333,38.6046667 C33.6590667,37.7873333 34.9377333,37.7406667 35.7550667,38.502 L36.6857333,39.3673333 C37.5030667,40.1286667 37.5484,41.4086667 36.7884,42.226 L35.3990667,43.718 C34.6377333,44.5353333 33.3577333,44.5806667 32.5404,43.8206667 L31.6110667,42.954 C30.7937333,42.194 30.7470667,40.914 31.5084,40.0966667 L31.5084,40.0966667 Z" id="Stroke-29" stroke="#FFFFFF" stroke-linecap="round" stroke-linejoin="round"></path>
                <path d="M33.9653333,45.354 L38.0786667,40.934 C38.2693333,40.7313333 38.588,40.7193333 38.792,40.9086667 L39.5373333,41.6033333 C39.7413333,41.7926667 39.7533333,42.1126667 39.5626667,42.3166667 L35.4493333,46.7353333 C35.26,46.9393333 34.94,46.9513333 34.7373333,46.7606667 L33.9906667,46.0673333 C33.7866667,45.8766667 33.776,45.558 33.9653333,45.354 L33.9653333,45.354 Z" id="Stroke-31" stroke="#FFFFFF" stroke-linecap="round" stroke-linejoin="round"></path>
                <path d="M28.7393333,40.1278667 L32.8526667,35.7078667 C33.0433333,35.5052 33.362,35.4932 33.566,35.6825333 L34.3113333,36.3772 C34.5153333,36.5665333 34.5273333,36.8865333 34.3366667,37.0905333 L30.2233333,41.5092 C30.034,41.7132 29.714,41.7252 29.5113333,41.5345333 L28.7646667,40.8398667 C28.5606667,40.6505333 28.55,40.3318667 28.7393333,40.1278667 L28.7393333,40.1278667 Z" id="Stroke-33" stroke="#FFFFFF" stroke-linecap="round" stroke-linejoin="round"></path>
                <path d="M26.1066667,34.6948 L27.496,33.2028 C28.2573333,32.3854667 29.536,32.3388 30.3533333,33.1001333 L31.284,33.9654667 C32.1013333,34.7268 32.1466667,36.0068 31.3853333,36.8241333 L29.9973333,38.3161333 C29.236,39.1334667 27.956,39.1788 27.1386667,38.4188 L26.2093333,37.5521333 C25.392,36.7921333 25.3453333,35.5121333 26.1066667,34.6948 L26.1066667,34.6948 Z" id="Stroke-35" stroke="#FFFFFF" stroke-linecap="round" stroke-linejoin="round"></path>
                <path d="M26.1989333,33.7012 L24.6669333,32.1692" id="Stroke-37" stroke="#FFFFFF" stroke-linecap="round" stroke-linejoin="round"></path>
                <path d="M28.9705333,37.4977333 C28.7452,37.5990667 28.5025333,37.6537333 28.2598667,37.6630667 C28.0158667,37.6710667 27.7705333,37.6337333 27.5385333,37.5484" id="Stroke-39" stroke="#FFFFFF" stroke-linecap="round" stroke-linejoin="round"></path>
                <path d="M35.0532,42.5666667 C34.8278667,42.668 34.5852,42.7226667 34.3425333,42.732 C34.0985333,42.74 33.8532,42.7026667 33.6212,42.6173333" id="Stroke-41" stroke="#FFFFFF" stroke-linecap="round" stroke-linejoin="round"></path>
                <path d="M40.1221333,47.6356 C39.8968,47.7369333 39.6541333,47.7916 39.4114667,47.8009333 C39.1674667,47.8089333 38.9221333,47.7716 38.6901333,47.6862667" id="Stroke-43" stroke="#FFFFFF" stroke-linecap="round" stroke-linejoin="round"></path>
            </g>
        </g>
    </g>
</svg>