<?xml version="1.0" encoding="UTF-8"?>
<svg width="80px" height="80px" viewBox="0 0 80 80" version="1.1" xmlns="http://www.w3.org/2000/svg" xmlns:xlink="http://www.w3.org/1999/xlink">
    <!-- Generator: Sketch 50.2 (55047) - http://www.bohemiancoding.com/sketch -->
    <title>ic-camera</title>
    <desc>Created with Sketch.</desc>
    <defs>
        <path d="M8.125,13.5416667 L8.125,12.1875 C8.125,11.4396144 8.73128107,10.8333333 9.47916667,10.8333333 L14.8958333,10.8333333 C15.6437189,10.8333333 16.25,11.4396144 16.25,12.1875 L16.25,13.5416667 L18.9583333,13.5416667 C21.6666667,13.5416667 23.0208333,8.125 27.0833333,8.125 L37.9166667,8.125 C41.9791667,8.125 43.3333333,13.5416667 46.0416667,13.5416667 L59.5833333,13.5416667 C62.5748757,13.5416667 65,15.9667909 65,18.9583333 L65,51.4583333 C65,54.4498757 62.5748757,56.875 59.5833333,56.875 L5.41666667,56.875 C2.42512427,56.875 0,54.4498757 0,51.4583333 L0,18.9583333 C0,15.9667909 2.42512427,13.5416667 5.41666667,13.5416667 L8.125,13.5416667 Z M5.41666667,16.25 C3.92089547,16.25 2.70833333,17.4625621 2.70833333,18.9583333 L2.70833333,51.4583333 C2.70833333,52.9541045 3.92089547,54.1666667 5.41666667,54.1666667 L59.5833333,54.1666667 C61.0791045,54.1666667 62.2916667,52.9541045 62.2916667,51.4583333 L62.2916667,18.9583333 C62.2916667,17.4625621 61.0791045,16.25 59.5833333,16.25 L46.0416667,16.25 C44.2917514,16.25 43.0211825,15.4432896 41.6584293,13.9896862 C41.4625696,13.7807692 41.2695958,13.56435 41.0222199,13.2793078 C40.99153,13.243945 40.5694437,12.7547182 40.4487506,12.6167833 C39.2705977,11.2703228 38.6333214,10.8333333 37.9166667,10.8333333 L27.0833333,10.8333333 C26.3666786,10.8333333 25.7294023,11.2703228 24.5512494,12.6167833 C24.4305563,12.7547182 24.00847,13.243945 23.9777801,13.2793078 C23.7304042,13.56435 23.5374304,13.7807692 23.3415707,13.9896862 C21.9788175,15.4432896 20.7082486,16.25 18.9583333,16.25 L5.41666667,16.25 Z M32.5,51.4583333 C23.5253728,51.4583333 16.25,44.1829605 16.25,35.2083333 C16.25,26.2337061 23.5253728,18.9583333 32.5,18.9583333 C41.4746272,18.9583333 48.75,26.2337061 48.75,35.2083333 C48.75,44.1829605 41.4746272,51.4583333 32.5,51.4583333 Z M32.5,48.75 C39.978856,48.75 46.0416667,42.6871893 46.0416667,35.2083333 C46.0416667,27.7294773 39.978856,21.6666667 32.5,21.6666667 C25.021144,21.6666667 18.9583333,27.7294773 18.9583333,35.2083333 C18.9583333,42.6871893 25.021144,48.75 32.5,48.75 Z M5.41666667,18.9583333 L13.5416667,18.9583333 L13.5416667,24.375 L5.41666667,24.375 L5.41666667,18.9583333 Z M32.5,40.625 C35.4915424,40.625 37.9166667,38.1998757 37.9166667,35.2083333 C37.9166667,32.2167909 35.4915424,29.7916667 32.5,29.7916667 C29.5084576,29.7916667 27.0833333,32.2167909 27.0833333,35.2083333 C27.0833333,38.1998757 29.5084576,40.625 32.5,40.625 Z M32.5,43.3333333 C28.0126864,43.3333333 24.375,39.6956469 24.375,35.2083333 C24.375,30.7210197 28.0126864,27.0833333 32.5,27.0833333 C36.9873136,27.0833333 40.625,30.7210197 40.625,35.2083333 C40.625,39.6956469 36.9873136,43.3333333 32.5,43.3333333 Z" id="path-1"></path>
    </defs>
    <g id="ic-camera" stroke="none" stroke-width="1" fill="none" fill-rule="evenodd">
        <g id="icons/general/ic-camera" transform="translate(8.000000, 8.000000)">
            <mask id="mask-2" fill="white">
                <use xlink:href="#path-1"></use>
            </mask>
            <path stroke="#858585" stroke-width="1" d="M8.625,12.1875 L8.625,14.0416667 L5.41666667,14.0416667 C2.70126665,14.0416667 0.5,16.2429333 0.5,18.9583333 L0.5,51.4583333 C0.5,54.1737334 2.70126665,56.375 5.41666667,56.375 L59.5833333,56.375 C62.2987334,56.375 64.5,54.1737334 64.5,51.4583333 L64.5,18.9583333 C64.5,16.2429333 62.2987334,14.0416667 59.5833333,14.0416667 L46.0416667,14.0416667 C45.0622396,14.0416667 44.2517744,13.5270855 43.2694907,12.4793162 C43.096531,12.2948259 42.920495,12.0974024 42.6900502,11.8318693 C42.6638335,11.8016607 42.2374467,11.3074495 42.1106908,11.1625856 C40.5474825,9.37606188 39.452184,8.625 37.9166667,8.625 L27.0833333,8.625 C25.547816,8.625 24.4525175,9.37606188 22.8893092,11.1625856 C22.7625533,11.3074495 22.3361665,11.8016607 22.3099498,11.8318693 C22.079505,12.0974024 21.903469,12.2948259 21.7305093,12.4793162 C20.7482256,13.5270855 19.9377604,14.0416667 18.9583333,14.0416667 L15.75,14.0416667 L15.75,12.1875 C15.75,11.7157568 15.3675766,11.3333333 14.8958333,11.3333333 L9.47916667,11.3333333 C9.00742344,11.3333333 8.625,11.7157568 8.625,12.1875 Z M5.41666667,15.75 L18.9583333,15.75 C20.4430446,15.75 21.5883993,15.1286786 22.9768021,13.6477157 C23.1606098,13.451654 23.3461128,13.2443131 23.6001582,12.9515858 C23.687368,12.8506434 23.687368,12.8506434 23.9004844,12.6040265 C23.900961,12.6034753 23.900961,12.6034753 23.9014377,12.6029241 C24.0659795,12.4127375 24.1273186,12.3419796 24.174961,12.287531 C25.4305157,10.8526114 26.171711,10.3333333 27.0833333,10.3333333 L37.9166667,10.3333333 C38.828289,10.3333333 39.5694843,10.8526114 40.825039,12.287531 C40.8726814,12.3419796 40.9340205,12.4127375 41.0985623,12.6029241 C41.099039,12.6034753 41.099039,12.6034753 41.0995156,12.6040265 C41.312632,12.8506434 41.312632,12.8506434 41.3998418,12.9515858 C41.6538872,13.2443131 41.8393902,13.451654 42.0231979,13.6477157 C43.4116007,15.1286786 44.5569554,15.75 46.0416667,15.75 L59.5833333,15.75 C61.3552469,15.75 62.7916667,17.1864198 62.7916667,18.9583333 L62.7916667,51.4583333 C62.7916667,53.2302469 61.3552469,54.6666667 59.5833333,54.6666667 L5.41666667,54.6666667 C3.64475309,54.6666667 2.20833333,53.2302469 2.20833333,51.4583333 L2.20833333,18.9583333 C2.20833333,17.1864198 3.64475309,15.75 5.41666667,15.75 Z M32.5,50.9583333 C41.1984848,50.9583333 48.25,43.9068181 48.25,35.2083333 C48.25,26.5098485 41.1984848,19.4583333 32.5,19.4583333 C23.8015152,19.4583333 16.75,26.5098485 16.75,35.2083333 C16.75,43.9068181 23.8015152,50.9583333 32.5,50.9583333 Z M32.5,49.25 C24.7450016,49.25 18.4583333,42.9633317 18.4583333,35.2083333 C18.4583333,27.453335 24.7450016,21.1666667 32.5,21.1666667 C40.2549984,21.1666667 46.5416667,27.453335 46.5416667,35.2083333 C46.5416667,42.9633317 40.2549984,49.25 32.5,49.25 Z M5.91666667,19.4583333 L5.91666667,23.875 L13.0416667,23.875 L13.0416667,19.4583333 L5.91666667,19.4583333 Z M32.5,41.125 C29.2323152,41.125 26.5833333,38.4760181 26.5833333,35.2083333 C26.5833333,31.9406486 29.2323152,29.2916667 32.5,29.2916667 C35.7676848,29.2916667 38.4166667,31.9406486 38.4166667,35.2083333 C38.4166667,38.4760181 35.7676848,41.125 32.5,41.125 Z M32.5,42.8333333 C36.7111712,42.8333333 40.125,39.4195046 40.125,35.2083333 C40.125,30.9971621 36.7111712,27.5833333 32.5,27.5833333 C28.2888288,27.5833333 24.875,30.9971621 24.875,35.2083333 C24.875,39.4195046 28.2888288,42.8333333 32.5,42.8333333 Z"></path>
            <g id="pandora/$color-interaction-primary" mask="url(#mask-2)" fill="#D70F64" fill-rule="evenodd">
                <rect id="bg" x="0" y="0" width="65" height="65"></rect>
            </g>
        </g>
    </g>
</svg>