<?xml version="1.0" encoding="UTF-8"?>
<svg width="80px" height="80px" viewBox="0 0 80 80" version="1.1" xmlns="http://www.w3.org/2000/svg" xmlns:xlink="http://www.w3.org/1999/xlink">
    <!-- Generator: Sketch 50.2 (55047) - http://www.bohemiancoding.com/sketch -->
    <title>ic-cuisine-mexican</title>
    <desc>Created with Sketch.</desc>
    <defs></defs>
    <g id="ic-cuisine-mexican" stroke="none" stroke-width="1" fill="none" fill-rule="evenodd">
        <g id="icons/cuisines/ic_cuisines_mexican">
            <g id="-g-ic_cuisines_mexican">
                <rect id="bg" fill="#D70F64" x="0" y="0" width="80" height="80" rx="13"></rect>
                <path d="M40.0758667,34.6057333 C30.7425333,34.6057333 25.4372,41.6470667 24.7478667,49.1244 C24.6758667,49.9150667 25.2892,50.6057333 26.0865333,50.6057333 L54.0652,50.6057333 C54.8625333,50.6057333 55.4758667,49.9150667 55.4025333,49.1244 C54.7145333,41.6470667 49.4092,34.6057333 40.0758667,34.6057333 L40.0758667,34.6057333 Z" id="Stroke-1" stroke="#FFFFFF" stroke-linecap="round" stroke-linejoin="round"></path>
                <path d="M40.0757333,43.9390667 C40.0757333,44.3070667 39.7770667,44.6057333 39.4090667,44.6057333 C39.0410667,44.6057333 38.7424,44.3070667 38.7424,43.9390667 C38.7424,43.5710667 39.0410667,43.2724 39.4090667,43.2724 C39.7770667,43.2724 40.0757333,43.5710667 40.0757333,43.9390667" id="Fill-3" fill="#FFFFFF"></path>
                <path d="M32.0757333,45.2724 C32.0757333,45.6404 31.7770667,45.9390667 31.4090667,45.9390667 C31.0410667,45.9390667 30.7424,45.6404 30.7424,45.2724 C30.7424,44.9044 31.0410667,44.6057333 31.4090667,44.6057333 C31.7770667,44.6057333 32.0757333,44.9044 32.0757333,45.2724" id="Fill-5" fill="#FFFFFF"></path>
                <path d="M34.7424,41.2724 C34.7424,41.6404 34.4437333,41.9390667 34.0757333,41.9390667 C33.7077333,41.9390667 33.4090667,41.6404 33.4090667,41.2724 C33.4090667,40.9044 33.7077333,40.6057333 34.0757333,40.6057333 C34.4437333,40.6057333 34.7424,40.9044 34.7424,41.2724" id="Fill-7" fill="#FFFFFF"></path>
                <path d="M40.0757333,38.6057333 C40.0757333,38.9737333 39.7770667,39.2724 39.4090667,39.2724 C39.0410667,39.2724 38.7424,38.9737333 38.7424,38.6057333 C38.7424,38.2377333 39.0410667,37.9390667 39.4090667,37.9390667 C39.7770667,37.9390667 40.0757333,38.2377333 40.0757333,38.6057333" id="Fill-9" fill="#FFFFFF"></path>
                <path d="M50.7424,46.6057333 C50.7424,46.9737333 50.4437333,47.2724 50.0757333,47.2724 C49.7077333,47.2724 49.4090667,46.9737333 49.4090667,46.6057333 C49.4090667,46.2377333 49.7077333,45.9390667 50.0757333,45.9390667 C50.4437333,45.9390667 50.7424,46.2377333 50.7424,46.6057333" id="Fill-11" fill="#FFFFFF"></path>
                <path d="M49.4090667,42.6057333 C49.4090667,42.9737333 49.1104,43.2724 48.7424,43.2724 C48.3744,43.2724 48.0757333,42.9737333 48.0757333,42.6057333 C48.0757333,42.2377333 48.3744,41.9390667 48.7424,41.9390667 C49.1104,41.9390667 49.4090667,42.2377333 49.4090667,42.6057333" id="Fill-13" fill="#FFFFFF"></path>
                <path d="M25.284,45.2724 C25.284,45.2724 24.4093333,43.3977333 24.7426667,41.2724 C25.076,39.1470667 27.576,38.3564 27.576,38.3564 C27.576,38.3564 26.4093333,35.8124 28.576,34.6057333 C30.232,33.6830667 31.644,34.9524 32.612,36.4190667" id="Stroke-15" stroke="#FFFFFF" stroke-linecap="round" stroke-linejoin="round"></path>
                <polyline id="Stroke-17" stroke="#FFFFFF" stroke-linecap="round" stroke-linejoin="round" points="34.038 35.7401333 32.6126667 33.1388 35.4633333 31.6561333 37.1886667 34.8441333"></polyline>
                <path d="M38.298,34.6057333 C38.298,34.6057333 38.0753333,32.7857333 39.798,31.7164 C41.5206667,30.6470667 44.5753333,31.8284 44.1086667,35.0857333" id="Stroke-19" stroke="#FFFFFF" stroke-linecap="round" stroke-linejoin="round"></path>
                <polyline id="Stroke-21" stroke="#FFFFFF" stroke-linecap="round" stroke-linejoin="round" points="45.4562667 35.4904 46.5669333 32.5037333 49.2162667 33.5130667 47.9442667 36.6490667"></polyline>
                <path d="M48.9646667,37.3126667 C49.6873333,35.8273333 51.5366667,35.8433333 52.982,36.5233333 C54.474,37.226 55.086,39.0206667 54.242,40.1886667 C54.242,40.1886667 55.0193333,40.9606667 55.2606667,42.0326667 C55.6526667,43.774 54.95,46.4393333 54.95,46.4393333" id="Stroke-23" stroke="#FFFFFF" stroke-linecap="round" stroke-linejoin="round"></path>
            </g>
        </g>
    </g>
</svg>