<?xml version="1.0" encoding="UTF-8"?>
<svg width="80px" height="80px" viewBox="0 0 80 80" version="1.1" xmlns="http://www.w3.org/2000/svg" xmlns:xlink="http://www.w3.org/1999/xlink">
    <!-- Generator: Sketch 50.2 (55047) - http://www.bohemiancoding.com/sketch -->
    <title>ic-cart-fab-empty</title>
    <desc>Created with Sketch.</desc>
    <defs>
        <circle id="path-1" cx="28" cy="28" r="28"></circle>
        <path d="M7,4 L7,2.49980749 C7,1.67165808 7.66999661,1 8.49754465,1 L15.5024554,1 C16.3308289,1 17,1.66887616 17,2.49980749 L17,4 L20,4 L20,23 L4,23 L4,4 L7,4 Z M8,4 L16,4 L16,2.49980749 C16,2.22125961 15.7786428,2 15.5024554,2 L8.49754465,2 C8.22283656,2 8,2.22338915 8,2.49980749 L8,4 Z M7,5 L5,5 L5,16 L19,16 L19,5 L17,5 L17,7 L16,7 L16,5 L8,5 L8,7 L7,7 L7,5 Z M5,17 L5,22 L19,22 L19,17 L5,17 Z" id="path-3"></path>
    </defs>
    <g id="ic-cart-fab-empty" stroke="none" stroke-width="1" fill="none" fill-rule="evenodd">
        <g id="icons/general/cart-fab-empty" transform="translate(12.000000, 12.000000)">
            <mask id="mask-2" fill="white">
                <use xlink:href="#path-1"></use>
            </mask>
            <use id="fab" fill="#FFFFFF" xlink:href="#path-1"></use>
            <g id="pandora/$color-interaction-primary" mask="url(#mask-2)" fill="#D70F64">
                <rect id="bg" x="0" y="0" width="56" height="56"></rect>
            </g>
            <g id="icons/general/ic_cart_empty" mask="url(#mask-2)">
                <g transform="translate(16.000000, 16.000000)">
                    <mask id="mask-4" fill="white">
                        <use xlink:href="#path-3"></use>
                    </mask>
                    <use id="ic_cart_empty" stroke="none" fill="#858585" fill-rule="evenodd" xlink:href="#path-3"></use>
                    <g id="grayscale/$color-white" stroke="none" fill="none" mask="url(#mask-4)" fill-rule="evenodd">
                        <rect id="bg" fill="#FFFFFF" x="0" y="0" width="24" height="24"></rect>
                    </g>
                </g>
            </g>
        </g>
    </g>
</svg>