<?xml version="1.0" encoding="UTF-8"?>
<svg width="80px" height="80px" viewBox="0 0 80 80" version="1.1" xmlns="http://www.w3.org/2000/svg" xmlns:xlink="http://www.w3.org/1999/xlink">
    <!-- Generator: Sketch 50.2 (55047) - http://www.bohemiancoding.com/sketch -->
    <title>ic-chat</title>
    <desc>Created with Sketch.</desc>
    <defs>
        <path d="M15.6660878,64.8350225 L26.5922704,59.5697185 L27.5550633,59.7656852 C29.9947798,60.2622646 32.4888939,60.5120833 35,60.5120833 C52.7756864,60.5120833 67.0833333,48.1444423 67.0833333,33.1741667 C67.0833333,18.203237 52.7749733,5.83333333 35,5.83333333 C17.2250267,5.83333333 2.91666667,18.203237 2.91666667,33.1741667 C2.91666667,41.6825453 7.68625528,49.832792 15.7342992,55.0046323 L17.4051966,56.0783857 L15.6660878,64.8350225 Z M0,33.1741667 C0,16.4908333 15.7004167,2.91666667 35,2.91666667 C54.2995833,2.91666667 70,16.4908333 70,33.1741667 C70,49.8575 54.2995833,63.42875 35,63.42875 C32.2991667,63.42875 29.61,63.1604167 26.9733333,62.62375 L11.6666667,70 L14.1575,57.4583333 C5.34333333,51.7941667 0,42.7554167 0,33.1741667 Z M49.5833333,29.1666667 L49.5833333,26.25 L20.4166667,26.25 L20.4166667,29.1666667 L49.5833333,29.1666667 Z M43.75,35 L43.75,32.0833333 L20.4166667,32.0833333 L20.4166667,35 L43.75,35 Z M20.4166667,40.8333333 L46.6666667,40.8333333 L46.6666667,37.9166667 L20.4166667,37.9166667 L20.4166667,40.8333333 Z" id="path-1"></path>
    </defs>
    <g id="ic-chat" stroke="none" stroke-width="1" fill="none" fill-rule="evenodd">
        <g id="icons/contact/ic-chat" transform="translate(5.000000, 5.000000)">
            <mask id="mask-2" fill="white">
                <use xlink:href="#path-1"></use>
            </mask>
            <use id="ic-chat" fill="#979797" fill-rule="nonzero" xlink:href="#path-1"></use>
            <g id="pandora/$color-interaction-secondary" mask="url(#mask-2)" fill="#D70F64" fill-rule="evenodd">
                <rect id="bg" x="0" y="0" width="70" height="70"></rect>
            </g>
        </g>
    </g>
</svg>