<?xml version="1.0" encoding="UTF-8"?>
<svg width="80px" height="80px" viewBox="0 0 80 80" version="1.1" xmlns="http://www.w3.org/2000/svg" xmlns:xlink="http://www.w3.org/1999/xlink">
    <!-- Generator: Sketch 50.2 (55047) - http://www.bohemiancoding.com/sketch -->
    <title>ic-cuisine-burger</title>
    <desc>Created with Sketch.</desc>
    <defs></defs>
    <g id="ic-cuisine-burger" stroke="none" stroke-width="1" fill="none" fill-rule="evenodd">
        <g id="icons/cuisines/ic_cuisines_burger">
            <g id="-g-ic_cuisines_burger">
                <rect id="bg" fill="#D70F64" x="0" y="0" width="80" height="80" rx="13"></rect>
                <path d="M53.8009333,46 L26.1996,46 C25.4702667,46 26.9342667,52.6666667 27.5129333,52.6666667 L52.4862667,52.6666667 C53.0662667,52.6666667 54.5302667,46 53.8009333,46 L53.8009333,46 Z" id="Stroke-1" stroke="#FFFFFF" stroke-linejoin="round"></path>
                <path d="M55.3333333,38.0701333 C55.3333333,32.4394667 48.836,27.3328 40,27.3328 C31.164,27.3328 24.6666667,32.4394667 24.6666667,38.0701333 L24.6666667,38.0701333 C24.6693333,39.0661333 24.9173333,39.3328 26,39.3328 L54,39.3328 C55.0826667,39.3328 55.3306667,39.0661333 55.3333333,38.0701333 L55.3333333,38.0701333 Z" id="Stroke-3" stroke="#FFFFFF" stroke-linejoin="round"></path>
                <path d="M54.6298667,41.5417333 C54.5018667,42.6604 53.1725333,43.6510667 50.6165333,43.2377333 C44.5765333,42.2617333 42.2445333,40.3270667 34.3778667,41.4884 C28.2778667,42.3897333 26.0832,42.0804 25.5072,41.3990667 C24.9925333,41.8844 24.6672,42.5697333 24.6672,43.3337333 C24.6672,44.8057333 25.8605333,46.0004 27.3338667,46.0004 L52.6672,46.0004 C54.1392,46.0004 55.3338667,44.8057333 55.3338667,43.3337333 C55.3338667,42.6404 55.0618667,42.0150667 54.6298667,41.5417333 L54.6298667,41.5417333 Z" id="Stroke-5" stroke="#FFFFFF" stroke-linejoin="round"></path>
                <path d="M34.3773333,41.4889333 C42.244,40.3262667 44.576,42.2622667 50.616,43.2382667 C53.172,43.6502667 54.5026667,42.6596 54.6293333,41.5422667 C54.696,40.9636 54.4613333,40.3542667 53.868,39.8809333 C53.5946667,39.6649333 53.256,39.4742667 52.8413333,39.3329333 L26.7746667,39.3329333 C26.7746667,39.3329333 25.7213333,39.6969333 25.4173333,40.5489333 C25.3893333,40.6289333 25.3573333,40.7089333 25.344,40.7969333 C25.3106667,41.0142667 25.356,41.2182667 25.508,41.3982667 C26.0826667,42.0796 28.2786667,42.3902667 34.3773333,41.4889333 L34.3773333,41.4889333 Z" id="Stroke-7" stroke="#FFFFFF" stroke-linejoin="round"></path>
                <path d="M34,32 C34,32.368 33.7013333,32.6666667 33.3333333,32.6666667 C32.9653333,32.6666667 32.6666667,32.368 32.6666667,32 C32.6666667,31.632 32.9653333,31.3333333 33.3333333,31.3333333 C33.7013333,31.3333333 34,31.632 34,32" id="Fill-9" fill="#FFFFFF"></path>
                <path d="M39.3333333,30.6666667 C39.3333333,31.0346667 39.0346667,31.3333333 38.6666667,31.3333333 C38.2986667,31.3333333 38,31.0346667 38,30.6666667 C38,30.2986667 38.2986667,30 38.6666667,30 C39.0346667,30 39.3333333,30.2986667 39.3333333,30.6666667" id="Fill-11" fill="#FFFFFF"></path>
                <path d="M42,36 C42,36.368 41.7013333,36.6666667 41.3333333,36.6666667 C40.9653333,36.6666667 40.6666667,36.368 40.6666667,36 C40.6666667,35.632 40.9653333,35.3333333 41.3333333,35.3333333 C41.7013333,35.3333333 42,35.632 42,36" id="Fill-13" fill="#FFFFFF"></path>
                <path d="M48.6666667,32 C48.6666667,32.368 48.368,32.6666667 48,32.6666667 C47.632,32.6666667 47.3333333,32.368 47.3333333,32 C47.3333333,31.632 47.632,31.3333333 48,31.3333333 C48.368,31.3333333 48.6666667,31.632 48.6666667,32" id="Fill-15" fill="#FFFFFF"></path>
                <path d="M52.6666667,36 C52.6666667,36.368 52.368,36.6666667 52,36.6666667 C51.632,36.6666667 51.3333333,36.368 51.3333333,36 C51.3333333,35.632 51.632,35.3333333 52,35.3333333 C52.368,35.3333333 52.6666667,35.632 52.6666667,36" id="Fill-17" fill="#FFFFFF"></path>
                <path d="M43.3333333,32 C43.3333333,32.368 43.0346667,32.6666667 42.6666667,32.6666667 C42.2986667,32.6666667 42,32.368 42,32 C42,31.632 42.2986667,31.3333333 42.6666667,31.3333333 C43.0346667,31.3333333 43.3333333,31.632 43.3333333,32" id="Fill-19" fill="#FFFFFF"></path>
                <path d="M30,34.6666667 C30,35.0346667 29.7013333,35.3333333 29.3333333,35.3333333 C28.9653333,35.3333333 28.6666667,35.0346667 28.6666667,34.6666667 C28.6666667,34.2986667 28.9653333,34 29.3333333,34 C29.7013333,34 30,34.2986667 30,34.6666667" id="Fill-21" fill="#FFFFFF"></path>
                <path d="M36.6666667,34.6666667 C36.6666667,35.0346667 36.368,35.3333333 36,35.3333333 C35.632,35.3333333 35.3333333,35.0346667 35.3333333,34.6666667 C35.3333333,34.2986667 35.632,34 36,34 C36.368,34 36.6666667,34.2986667 36.6666667,34.6666667" id="Fill-23" fill="#FFFFFF"></path>
            </g>
        </g>
    </g>
</svg>