<?xml version="1.0" encoding="UTF-8"?>
<svg width="80px" height="80px" viewBox="0 0 80 80" version="1.1" xmlns="http://www.w3.org/2000/svg" xmlns:xlink="http://www.w3.org/1999/xlink">
    <!-- Generator: Sketch 50.2 (55047) - http://www.bohemiancoding.com/sketch -->
    <title>ic-cuisine-american</title>
    <desc>Created with Sketch.</desc>
    <defs>
        <path d="M42,27.8658053 L42,15.3330667 L40,15.3330667 L40,28.4607005 C40.7417275,28.3741592 41.4062719,28.1717706 42,27.8658053 Z M45.340299,23.3849375 C45.3357094,23.3533593 45.3333333,23.3210636 45.3333333,23.288213 L45.3333333,18.6664 L43.3333333,18.6664 L43.3333333,26.8991851 C43.7111657,26.5304883 44.048518,26.1040984 44.3484806,25.6259715 C44.7542323,24.9792215 45.0607746,24.2816775 45.279999,23.5839233 C45.3017132,23.5148107 45.3217911,23.448404 45.340299,23.3849375 Z M46.6666667,21.9927011 C46.913193,21.9508788 47.1578918,21.9235356 47.3948783,21.9156976 C48.5024412,21.879067 49.3333333,22.2824068 49.3333333,23.3506667 C49.3333333,23.4645658 49.3328355,23.6772109 49.3313438,23.9745144 C49.3288602,24.4695304 49.3243907,25.0209992 49.3174386,25.6148451 C49.297571,27.3119358 49.2618056,29.0091996 49.20613,30.5944639 C49.1488832,32.2244688 49.0737296,33.640567 48.9782275,34.7870181 C51.3340761,35.2887086 53.104,37.2970901 53.104,39.7104 C53.104,41.2217793 52.393845,42.614294 51.2039545,43.5638804 C51.9346682,49.217412 47.5684135,51.5298316 39.4922522,51.9222075 C37.880249,52.0005257 36.4989839,52.0051045 33.9286625,51.9704034 C32.7234416,51.9541321 32.373957,51.9503289 31.8543063,51.9502234 C31.2243299,51.9500088 30.7428945,51.9544228 29.4653693,51.9696578 C27.6810262,51.9909367 26.8029946,51.9956251 25.7531896,51.9817431 C16.3809747,51.8578108 11.7731913,49.790083 12.5707681,43.5818618 C11.3795194,42.635741 10.6666667,41.2311139 10.6666667,39.7104 C10.6666667,36.9169447 13.0379538,34.6664 15.9453333,34.6664 L26.2055762,34.6664 C26.2133916,34.6662617 26.2212288,34.6662611 26.2290873,34.6664 L29.659881,34.6664 C29.5723399,33.5457117 29.503441,32.1822582 29.4510205,30.6245524 C29.3991058,29.081876 29.3659621,27.4308765 29.347863,25.7724761 C29.3365973,24.740204 29.3329874,23.9036349 29.3333457,23.3641275 C29.3333578,22.2824068 30.16425,21.879067 31.2718128,21.9156976 C31.5087915,21.9235353 31.7534819,21.950877 32,21.9926969 L32,16.6664 C32,16.2982102 32.2984768,15.9997333 32.6666667,15.9997333 L35.3333333,15.9997333 L35.3333333,12.6666667 C35.3333333,12.2984768 35.6318102,12 36,12 L39.3333333,12 C39.7015232,12 40,12.2984768 40,12.6666667 L40,13.9997333 L42.6666667,13.9997333 C43.0348565,13.9997333 43.3333333,14.2982102 43.3333333,14.6664 L43.3333333,17.3330667 L46,17.3330667 C46.3681898,17.3330667 46.6666667,17.6315435 46.6666667,17.9997333 L46.6666667,21.992701 Z M38.6666667,28.4630801 L38.6666667,13.3333333 L36.6666667,13.3333333 L36.6666667,27.8682867 C37.2616682,28.1756995 37.9265601,28.3781354 38.6666667,28.4630801 Z M35.3333333,26.8997047 L35.3333333,17.3330667 L33.3333333,17.3330667 L33.3333333,23.3330667 C33.3333333,23.354974 33.3322766,23.3766345 33.3302115,23.3980001 C33.3476539,23.4574997 33.3664629,23.5195373 33.3866921,23.5839233 C33.6059165,24.2816775 33.9124589,24.9792215 34.3182105,25.6259715 C34.6183141,26.1043231 34.9558425,26.530889 35.3333333,26.8997047 Z M30.9973889,34.6664 L33.3207808,34.6664 C33.328593,34.6662619 33.336427,34.6662612 33.3442822,34.6664 L47.6503221,34.6664 C47.743331,33.5468433 47.8172132,32.1537019 47.8736183,30.5476652 C47.9288862,28.9740055 47.9644416,27.2867078 47.9841966,25.599237 C47.9911125,25.0084863 47.995558,24.4599726 47.9980273,23.9678248 C47.9995073,23.6728301 48,23.462405 48,23.3506667 C48,23.2849265 47.8935785,23.2332664 47.4389519,23.2483024 C47.2211004,23.2555074 46.9791856,23.2872957 46.7335151,23.3360261 C46.6884398,23.5217051 46.6286641,23.7396534 46.552027,23.9835764 C46.3007191,24.7834469 45.949116,25.5835276 45.4779402,26.3345608 C44.1428364,28.4626563 42.1252774,29.7809366 39.3192096,29.8398501 C36.5414138,29.7809366 34.5238547,28.4626563 33.188751,26.3345608 C32.7175751,25.5835276 32.365972,24.7834469 32.1146641,23.9835764 C32.038027,23.7396534 31.9782514,23.5217051 31.933176,23.3360261 C31.6875055,23.2872957 31.4455908,23.2555074 31.2277393,23.2483024 C30.7731126,23.2332664 30.6666911,23.2849265 30.6666906,23.3515362 C30.6663237,23.8996762 30.6699118,24.7312025 30.681117,25.7579256 C30.6991139,27.4069697 30.7320629,29.0482648 30.7835995,30.579708 C30.8370686,32.1685743 30.9077747,33.5502723 30.9973889,34.6664 Z M33.27379,35.9997333 L28.7469663,35.9997333 C28.9963789,36.2980069 29.1842529,36.6416206 29.2964203,37.0337011 C29.3976903,37.38769 29.1928211,37.7567502 28.8388323,37.8580203 C28.4848434,37.9592903 28.1157831,37.7544211 28.0145131,37.4004323 C27.8941943,36.9798586 27.593106,36.6443898 27.144177,36.382319 C26.7784546,36.1688216 26.4040695,36.0477025 26.1585476,35.9997333 L15.9453333,35.9997333 C13.7592009,35.9997333 12,37.6693583 12,39.7104 C12,40.5870333 12.3279923,41.4139561 12.9041242,42.0673811 C13.4617233,40.4112369 14.5709531,39.5044 16.309102,39.1965822 C17.8701849,38.9201219 18.2038335,38.9467043 24.1572272,39.6262504 C27.1392141,39.9666274 29.3911274,40.1413622 31.8821358,40.172943 C34.3890397,40.1413626 36.6402722,39.966638 39.6218739,39.6262518 C45.5736288,38.9467862 45.9083487,38.9201168 47.4693538,39.1965837 C49.2016931,39.5033953 50.3091211,40.4053155 50.8679303,42.0509981 C51.4442318,41.3983646 51.7706667,40.5793876 51.7706667,39.7104 C51.7706667,37.6695226 50.011644,35.9997333 47.8266667,35.9997333 L35.8626881,35.9997333 C36.1121115,36.2981289 36.2998725,36.6419099 36.4117657,37.0342102 C36.5127545,37.3882795 36.3075923,37.7571769 35.9535231,37.8581657 C35.5994539,37.9591545 35.2305564,37.7539923 35.1295676,37.3999231 C35.009628,36.9794119 34.7085484,36.6439812 34.2592775,36.3819378 C33.8936183,36.1686621 33.5192824,36.0476593 33.27379,35.9997333 Z M49.8751639,43.6858638 C49.6022383,41.6554816 48.8333222,40.7922372 47.2368281,40.5094849 C45.8725327,40.2678569 45.4897516,40.2983557 39.7731078,40.9509804 C36.7506964,41.2960256 34.4585435,41.4739262 31.8821387,41.5061705 C29.32164,41.4739261 27.0288082,41.2960163 24.0060166,40.9509818 C18.2877714,40.2982765 17.9059982,40.26786 16.541611,40.5094864 C14.9449449,40.7922482 14.1756534,41.6555815 13.9019028,43.6858638 C13.2152676,48.7846933 17.08226,50.5336343 25.7708193,50.6485263 C26.8059282,50.662214 27.6760614,50.6575678 29.44947,50.6364192 C30.7327832,50.6211152 31.2172995,50.616673 31.8546687,50.6168901 C32.382605,50.6169973 32.7345651,50.6208275 33.9466617,50.6371916 C36.4903897,50.6715336 37.8513845,50.6670221 39.4275493,50.590445 C46.8430505,50.230167 50.494581,48.2855441 49.8751639,43.6858638 Z" id="path-1"></path>
    </defs>
    <g id="ic-cuisine-american" stroke="none" stroke-width="1" fill="none" fill-rule="evenodd">
        <g id="icons/cuisines/ic_cuisines_american">
            <rect id="bg" fill="#D70F64" fill-rule="evenodd" x="0" y="0" width="80" height="80" rx="13"></rect>
            <g id="icons/cuisines/ic-cuisine-american" transform="translate(8.000000, 8.000000)">
                <mask id="mask-2" fill="white">
                    <use xlink:href="#path-1"></use>
                </mask>
                <use id="-g-" fill="#858585" fill-rule="nonzero" xlink:href="#path-1"></use>
                <g id="grayscale/$color-white" mask="url(#mask-2)" fill="#FFFFFF" fill-rule="evenodd">
                    <rect id="bg" x="0" y="0" width="64" height="64"></rect>
                </g>
            </g>
        </g>
    </g>
</svg>