<?xml version="1.0" encoding="UTF-8"?>
<svg width="80px" height="80px" viewBox="0 0 80 80" version="1.1" xmlns="http://www.w3.org/2000/svg" xmlns:xlink="http://www.w3.org/1999/xlink">
    <!-- Generator: Sketch 50.2 (55047) - http://www.bohemiancoding.com/sketch -->
    <title>ic-cart-empty</title>
    <desc>Created with Sketch.</desc>
    <defs>
        <path d="M10.3333333,10.3333333 L10.3333333,5.33269164 C10.3333333,2.57219361 12.5666554,0.333333333 15.3251488,0.333333333 L38.6748512,0.333333333 C41.4360964,0.333333333 43.6666667,2.56292052 43.6666667,5.33269164 L43.6666667,10.3333333 L53.6666667,10.3333333 L53.6666667,73.6666667 L0.333333333,73.6666667 L0.333333333,10.3333333 L10.3333333,10.3333333 Z M13.6666667,10.3333333 L40.3333333,10.3333333 L40.3333333,5.33269164 C40.3333333,4.4041987 39.5954761,3.66666667 38.6748512,3.66666667 L15.3251488,3.66666667 C14.4094552,3.66666667 13.6666667,4.41129717 13.6666667,5.33269164 L13.6666667,10.3333333 Z M10.3333333,13.6666667 L3.66666667,13.6666667 L3.66666667,50.3333333 L50.3333333,50.3333333 L50.3333333,13.6666667 L43.6666667,13.6666667 L43.6666667,20.3333333 L40.3333333,20.3333333 L40.3333333,13.6666667 L13.6666667,13.6666667 L13.6666667,20.3333333 L10.3333333,20.3333333 L10.3333333,13.6666667 Z M3.66666667,53.6666667 L3.66666667,70.3333333 L50.3333333,70.3333333 L50.3333333,53.6666667 L3.66666667,53.6666667 Z" id="path-1"></path>
    </defs>
    <g id="ic-cart-empty" stroke="none" stroke-width="1" fill="none" fill-rule="evenodd">
        <g id="icons/general/ic_cart_empty" transform="translate(13.000000, 3.000000)">
            <mask id="mask-2" fill="white">
                <use xlink:href="#path-1"></use>
            </mask>
            <use id="ic_cart_empty" fill="#D70F64" xlink:href="#path-1"></use>
            <g id="pandora/$color-interaction-secondary" mask="url(#mask-2)">
                <g transform="translate(-13.000000, -3.000000)"></g>
            </g>
        </g>
    </g>
</svg>