<?xml version="1.0" encoding="UTF-8"?>
<svg width="80px" height="80px" viewBox="0 0 80 80" version="1.1" xmlns="http://www.w3.org/2000/svg" xmlns:xlink="http://www.w3.org/1999/xlink">
    <!-- Generator: Sketch 50.2 (55047) - http://www.bohemiancoding.com/sketch -->
    <title>ic-cuisine-indian</title>
    <desc>Created with Sketch.</desc>
    <defs></defs>
    <g id="ic-cuisine-indian" stroke="none" stroke-width="1" fill="none" fill-rule="evenodd">
        <g id="icons/cuisines/ic_cuisines_indian">
            <g id="-g-ic_cuisines_indian">
                <rect id="bg" fill="#D70F64" x="0" y="0" width="80" height="80" rx="13"></rect>
                <path d="M50.5968,49.6054667 C50.3568,49.9254667 49.4754667,50.8841333 49.1834667,51.1574667 C46.4381333,53.7468 42.7381333,55.3334667 38.6661333,55.3334667 C30.1981333,55.3334667 23.3328,48.4681333 23.3328,40.0001333 C23.3328,31.5321333 30.1981333,24.6668 38.6661333,24.6668 C45.3488,24.6668 51.1661333,29.2494667 53.2341333,35.4401333" id="Stroke-1" stroke="#FFFFFF" stroke-linecap="round" stroke-linejoin="round"></path>
                <path d="M48.3985333,35.0632 C47.6545333,34.6232 46.8425333,34.2725333 45.9652,34.0445333 C45.8305333,34.0085333 45.6958667,33.9885333 45.5612,33.9605333 L40.7812,52.2898667 C40.9132,52.3298667 41.0412,52.3792 41.1758667,52.4138667 C44.7118667,53.3365333 48.2985333,52.1338667 50.5972,49.6058667" id="Stroke-3" stroke="#FFFFFF" stroke-linecap="round" stroke-linejoin="round"></path>
                <path d="M49.9218667,32.8253333 C49.7965333,32.7653333 49.6672,32.72 49.5405333,32.6666667 L48.3978667,35.0626667 C51.9538667,37.164 53.8498667,41.4293333 52.7552,45.624 C52.3552,47.1613333 51.5952,48.5066667 50.5965333,49.6053333 C52.2005333,48.6786667 53.5512,47.276 54.4085333,45.4773333 C56.6632,40.7453333 54.6552,35.08 49.9218667,32.8253333 L49.9218667,32.8253333 Z" id="Stroke-5" stroke="#FFFFFF" stroke-linecap="round" stroke-linejoin="round"></path>
                <path d="M38.5785333,37.1630667 L39.3118667,37.9550667" id="Stroke-7" stroke="#FFFFFF" stroke-linecap="round" stroke-linejoin="round"></path>
                <path d="M41.4329333,36.9214667 L42.5102667,37.0028" id="Stroke-9" stroke="#FFFFFF" stroke-linecap="round" stroke-linejoin="round"></path>
                <path d="M40.1274667,41.5858667 L40.8914667,42.3498667" id="Stroke-11" stroke="#FFFFFF" stroke-linecap="round" stroke-linejoin="round"></path>
                <path d="M37.7297333,40.6697333 L38.7737333,40.3950667" id="Stroke-13" stroke="#FFFFFF" stroke-linecap="round" stroke-linejoin="round"></path>
                <path d="M35.0684,39.4578667 L36.1124,39.1832" id="Stroke-15" stroke="#FFFFFF" stroke-linecap="round" stroke-linejoin="round"></path>
                <path d="M38.1654667,44.3208 L39.2094667,44.0461333" id="Stroke-17" stroke="#FFFFFF" stroke-linecap="round" stroke-linejoin="round"></path>
                <path d="M35.5493333,42.006 L36.2826667,42.798" id="Stroke-19" stroke="#FFFFFF" stroke-linecap="round" stroke-linejoin="round"></path>
                <path d="M44.2232,30.6266667 C44.2232,32.468 42.7312,33.96 40.8898667,33.96 C39.0485333,33.96 37.5565333,32.468 37.5565333,30.6266667 C37.5565333,28.7853333 39.0485333,27.2933333 40.8898667,27.2933333 C42.7312,27.2933333 44.2232,28.7853333 44.2232,30.6266667 L44.2232,30.6266667 Z" id="Stroke-21" stroke="#FFFFFF" stroke-linecap="round" stroke-linejoin="round"></path>
                <path d="M35.3728,33.2836 C35.3728,35.1249333 33.8808,36.6169333 32.0394667,36.6169333 C30.1981333,36.6169333 28.7061333,35.1249333 28.7061333,33.2836 C28.7061333,31.4422667 30.1981333,29.9502667 32.0394667,29.9502667 C33.8808,29.9502667 35.3728,31.4422667 35.3728,33.2836 L35.3728,33.2836 Z" id="Stroke-23" stroke="#FFFFFF" stroke-linecap="round" stroke-linejoin="round"></path>
                <path d="M32.7198667,41.9676 C32.7198667,43.8089333 31.2278667,45.3009333 29.3865333,45.3009333 C27.5452,45.3009333 26.0532,43.8089333 26.0532,41.9676 C26.0532,40.1262667 27.5452,38.6342667 29.3865333,38.6342667 C31.2278667,38.6342667 32.7198667,40.1262667 32.7198667,41.9676 L32.7198667,41.9676 Z" id="Stroke-25" stroke="#FFFFFF" stroke-linecap="round" stroke-linejoin="round"></path>
                <path d="M38.7061333,49.01 C38.7061333,50.8513333 37.2141333,52.3433333 35.3728,52.3433333 C33.5314667,52.3433333 32.0394667,50.8513333 32.0394667,49.01 C32.0394667,47.1686667 33.5314667,45.6766667 35.3728,45.6766667 C37.2141333,45.6766667 38.7061333,47.1686667 38.7061333,49.01 L38.7061333,49.01 Z" id="Stroke-27" stroke="#FFFFFF" stroke-linecap="round" stroke-linejoin="round"></path>
                <path d="M47.3333333,44 C47.3333333,44.368 47.0346667,44.6666667 46.6666667,44.6666667 C46.2986667,44.6666667 46,44.368 46,44 C46,43.632 46.2986667,43.3333333 46.6666667,43.3333333 C47.0346667,43.3333333 47.3333333,43.632 47.3333333,44" id="Fill-29" fill="#FFFFFF"></path>
                <path d="M48.6666667,46.6666667 C48.6666667,47.0346667 48.368,47.3333333 48,47.3333333 C47.632,47.3333333 47.3333333,47.0346667 47.3333333,46.6666667 C47.3333333,46.2986667 47.632,46 48,46 C48.368,46 48.6666667,46.2986667 48.6666667,46.6666667" id="Fill-31" fill="#FFFFFF"></path>
                <path d="M50,40 C50,40.368 49.7013333,40.6666667 49.3333333,40.6666667 C48.9653333,40.6666667 48.6666667,40.368 48.6666667,40 C48.6666667,39.632 48.9653333,39.3333333 49.3333333,39.3333333 C49.7013333,39.3333333 50,39.632 50,40" id="Fill-33" fill="#FFFFFF"></path>
                <path d="M46,49.3333333 C46,49.7013333 45.7013333,50 45.3333333,50 C44.9653333,50 44.6666667,49.7013333 44.6666667,49.3333333 C44.6666667,48.9653333 44.9653333,48.6666667 45.3333333,48.6666667 C45.7013333,48.6666667 46,48.9653333 46,49.3333333" id="Fill-35" fill="#FFFFFF"></path>
                <path d="M41.5396,40 L41.5409333,39.1666667" id="Stroke-37" stroke="#FFFFFF" stroke-linecap="round" stroke-linejoin="round"></path>
            </g>
        </g>
    </g>
</svg>