<?xml version="1.0" encoding="UTF-8"?>
<svg width="80px" height="80px" viewBox="0 0 80 80" version="1.1" xmlns="http://www.w3.org/2000/svg" xmlns:xlink="http://www.w3.org/1999/xlink">
    <!-- Generator: Sketch 50.2 (55047) - http://www.bohemiancoding.com/sketch -->
    <title>ic-cuisine-italian</title>
    <desc>Created with Sketch.</desc>
    <defs></defs>
    <g id="ic-cuisine-italian" stroke="none" stroke-width="1" fill="none" fill-rule="evenodd">
        <g id="icons/cuisines/ic_cuisines_italian">
            <g id="-g-ic_cuisines_italian">
                <rect id="bg" fill="#D70F64" x="0" y="0" width="80" height="80" rx="13"></rect>
                <polygon id="Stroke-1" stroke="#FFFFFF" stroke-width="0.7" stroke-linecap="round" stroke-linejoin="round" points="45.9925333 33.9161333 45.6205333 33.8681333 45.6632 33.5094667 46.0352 33.5561333"></polygon>
                <polygon id="Stroke-2" stroke="#FFFFFF" stroke-width="0.7" stroke-linecap="round" stroke-linejoin="round" points="40.6557333 38.8457333 40.2837333 38.7990667 40.3250667 38.4404 40.6984 38.4870667"></polygon>
                <polygon id="Stroke-3" stroke="#FFFFFF" stroke-width="0.7" stroke-linecap="round" stroke-linejoin="round" points="40.3708 41.2408 39.9988 41.1941333 40.0414667 40.8354667 40.4134667 40.8821333"></polygon>
                <polygon id="Stroke-4" stroke="#FFFFFF" stroke-width="0.7" stroke-linecap="round" stroke-linejoin="round" points="38.3650667 39.7708 37.9930667 39.7241333 38.0357333 39.3654667 38.4077333 39.4121333"></polygon>
                <g id="Group-23" transform="translate(24.000000, 25.333333)">
                    <path d="M24.0717333,5.73053333 C23.9224,6.9812 24.7864,8.12386667 25.9970667,8.2772 C26.5837333,8.35186667 27.1624,8.1852 27.6277333,7.81053333 C28.0930667,7.43453333 28.3890667,6.8932 28.4610667,6.28786667 C28.6104,5.0372 27.7464,3.89453333 26.5357333,3.7412 C25.3264,3.58786667 24.2210667,4.47986667 24.0717333,5.73053333 L24.0717333,5.73053333 L24.0717333,5.73053333 Z" id="Stroke-5" stroke="#FFFFFF" stroke-linecap="round" stroke-linejoin="round"></path>
                    <path d="M15.8153333,4.62453333 C15.6233333,4.92186667 15.5046667,5.25386667 15.4633333,5.61253333 C15.39,6.21786667 15.5513333,6.81653333 15.9153333,7.29786667 C16.278,7.77786667 16.802,8.08453333 17.3886667,8.1592 C18.598,8.3112 19.7033333,7.4192 19.8526667,6.16853333 C19.9673333,5.2072 19.4806667,4.27253333 18.6406667,3.8432" id="Stroke-7" stroke="#FFFFFF" stroke-linecap="round" stroke-linejoin="round"></path>
                    <path d="M9.58746667,19.1549333 C9.91413333,19.2722667 10.2541333,19.3096 10.6008,19.2629333 C11.1861333,19.1856 11.7074667,18.8762667 12.0688,18.3922667 C12.4288,17.9096 12.5874667,17.3096 12.5114667,16.7042667 C12.3541333,15.4549333 11.2448,14.5696 10.0341333,14.7309333 C9.1048,14.8549333 8.3488,15.5736 8.15413333,16.5202667" id="Stroke-9" stroke="#FFFFFF" stroke-linecap="round" stroke-linejoin="round"></path>
                    <path d="M13.4681333,7.85373333 C13.4761333,7.86573333 13.4814667,7.87506667 13.4988,7.9004 C13.5548,7.98573333 13.6908,8.1964 13.7361333,8.3004 C14.0054667,8.91506667 13.8668,9.49506667 13.3761333,9.8124 C13.1868,9.93373333 12.9628,9.9724 12.7454667,9.9204 C12.5294667,9.86706667 12.3414667,9.7364 12.2268,9.5364 C12.1388,9.39106667 11.8654667,9.5284 11.9694667,9.7004 C12.0041333,9.75906667 12.0468,9.81106667 12.0894667,9.8604 C12.1041333,9.87773333 13.1361333,11.1310667 13.4388,11.4390667 C13.5414667,11.5297333 13.5948,11.6537333 13.5881333,11.7950667 C13.5774667,12.0430667 13.3854667,12.3297333 13.0748,12.5604 L13.0188,12.5964 C12.6521333,12.8017333 12.3201333,12.8564 12.0948,12.7564 C11.9694667,12.7004 11.8854667,12.5924 11.8414667,12.4284 C11.7441333,12.1297333 11.3894667,11.2644 11.1988,10.7990667 L11.0828,10.5137333 L11.0841333,10.5137333 C11.0828,10.5124 11.0268,10.3924 10.9908,10.3324 C10.8921333,10.1644 10.6361333,10.3497333 10.7334667,10.4964 C10.8521333,10.6924 10.8881333,10.9230667 10.8388,11.1484 C10.7881333,11.3724 10.6561333,11.5630667 10.4668,11.6844 C9.9988,11.9857333 9.39346667,11.8497333 8.9948,11.3524 C8.68546667,10.9684 8.42013333,10.2444 8.52413333,9.7444 C8.9268,7.83106667 10.5588,6.73106667 12.4068,7.12973333 C12.7441333,7.20573333 13.2881333,7.57906667 13.4681333,7.85373333" id="Fill-11" fill="#FFFFFF"></path>
                    <path d="M18.8281333,22.8644 C18.8161333,22.8697333 18.8054667,22.8750667 18.7774667,22.8884 C18.6881333,22.9310667 18.4641333,23.0337333 18.3574667,23.0617333 C17.7254667,23.2337333 17.1948,22.9950667 16.9748,22.4417333 C16.8908,22.2284 16.8921333,21.9937333 16.9774667,21.7817333 C17.0641333,21.5697333 17.2214667,21.4004 17.4308,21.3164 C17.5841333,21.2524 17.4988,20.9510667 17.3174667,21.0284 C17.2561333,21.0537333 17.1988,21.0870667 17.1441333,21.1230667 C17.1254667,21.1350667 15.7574667,21.9750667 15.4121333,22.2324 C15.3081333,22.3217333 15.1814667,22.3550667 15.0481333,22.3244 C14.8121333,22.2724 14.5708,22.0284 14.4041333,21.6737333 L14.3774667,21.6110667 C14.2441333,21.2030667 14.2468,20.8550667 14.3814667,20.6417333 C14.4548,20.5230667 14.5721333,20.4564 14.7361333,20.4390667 C15.0374667,20.3910667 15.9228,20.1750667 16.3988,20.0590667 L16.6908,19.9884 L16.6908,19.9884 C16.6921333,19.9884 16.8161333,19.9510667 16.8788,19.9244 C17.0561333,19.8524 16.9214667,19.5604 16.7654667,19.6350667 C16.5601333,19.7230667 16.3321333,19.7217333 16.1268,19.6324 C15.9201333,19.5444 15.7614667,19.3777333 15.6761333,19.1644 C15.4681333,18.6364 15.7001333,18.0430667 16.2401333,17.7217333 C16.6588,17.4697333 17.3948,17.3217333 17.8548,17.5124 C19.6121333,18.2430667 20.3868,20.0897333 19.6974667,21.9044 C19.5681333,22.2350667 19.1201333,22.7270667 18.8281333,22.8644" id="Fill-13" fill="#FFFFFF"></path>
                    <path d="M24.0476,13.0509333 C24.0462667,13.0656 24.0436,13.0762667 24.0396,13.1082667 C24.0262667,13.2082667 23.9902667,13.4589333 23.9556,13.5682667 C23.7556,14.2109333 23.2769333,14.5442667 22.7062667,14.4376 C22.4876,14.3962667 22.2969333,14.2696 22.1689333,14.0802667 C22.0422667,13.8909333 21.9902667,13.6642667 22.0329333,13.4362667 C22.0636,13.2669333 21.7716,13.1802667 21.7369333,13.3802667 C21.7249333,13.4469333 21.7222667,13.5149333 21.7209333,13.5816 C21.7209333,13.6042667 21.6716,15.2482667 21.6956,15.6869333 C21.7129333,15.8256 21.6716,15.9536 21.5742667,16.0536 C21.4049333,16.2309333 21.0769333,16.3096 20.6982667,16.2656 L20.6329333,16.2536 C20.2262667,16.1509333 19.9449333,15.9616 19.8436,15.7309333 C19.7862667,15.6016 19.7942667,15.4642667 19.8689333,15.3122667 C19.9916,15.0229333 20.2916,14.1362667 20.4529333,13.6589333 L20.5516,13.3669333 L20.5516,13.3669333 C20.5516,13.3656 20.5889333,13.2376 20.6009333,13.1682667 C20.6369333,12.9749333 20.3262667,12.9349333 20.3036,13.1109333 C20.2636,13.3389333 20.1409333,13.5349333 19.9582667,13.6669333 C19.7742667,13.7989333 19.5529333,13.8482667 19.3342667,13.8069333 C18.7902667,13.7056 18.4316,13.1842667 18.4596,12.5402667 C18.4796,12.0402667 18.7542667,11.3202667 19.1556,11.0216 C20.6982667,9.88293333 22.6222667,10.2016 23.7316,11.7776 C23.9316,12.0682667 24.0916,12.7229333 24.0476,13.0509333" id="Fill-15" fill="#FFFFFF"></path>
                    <polygon id="Stroke-17" stroke="#FFFFFF" stroke-width="0.7" stroke-linecap="round" stroke-linejoin="round" points="6.70373333 8.78573333 6.33173333 8.73906667 6.3744 8.3804 6.7464 8.42706667"></polygon>
                    <path d="M3.98186667,6.83666667 L1.7952,7.282 C1.0632,7.43133333 0.556533333,8.154 0.6872,8.91266667 C2.2992,18.2753333 8.32053333,26.054 16.4632,29.878 C17.1392,30.1953333 17.9392,29.8713333 18.2618667,29.1806667 L19.3085333,26.9473333 C11.3858667,23.166 5.61786667,15.9566667 3.98186667,6.83666667 L3.98186667,6.83666667 Z" id="Stroke-19" stroke="#FFFFFF" stroke-linecap="round" stroke-linejoin="round"></path>
                    <path d="M3.98186667,6.83666667 C5.61786667,15.9566667 11.3858667,23.166 19.3085333,26.9473333 L31.3338667,0.667333333 L3.98186667,6.83666667 L3.98186667,6.83666667 Z" id="Stroke-21" stroke="#FFFFFF" stroke-linecap="round" stroke-linejoin="round"></path>
                </g>
            </g>
        </g>
    </g>
</svg>