<?xml version="1.0" encoding="UTF-8"?>
<svg width="80px" height="80px" viewBox="0 0 80 80" version="1.1" xmlns="http://www.w3.org/2000/svg" xmlns:xlink="http://www.w3.org/1999/xlink">
    <!-- Generator: Sketch 50.2 (55047) - http://www.bohemiancoding.com/sketch -->
    <title>ic-delete</title>
    <desc>Created with Sketch.</desc>
    <defs>
        <path d="M44,13.3333333 L4,13.3333333 L4,10 L14,10 L34,10 L44,10 L44,13.3333333 Z M34.4433333,56.6666667 L13.5566667,56.6666667 L7.84333333,16.6666667 L40.1566667,16.6666667 L34.4433333,56.6666667 Z M17.3333333,6.66666667 L30.6666667,6.66666667 L30.6666667,3.33333333 L17.3333333,3.33333333 L17.3333333,6.66666667 Z M47.3333333,6.66666667 L34,6.66666667 L34,3.33333333 C34,1.49333333 32.51,0 30.6666667,0 L17.3333333,0 C15.49,0 14,1.49333333 14,3.33333333 L14,6.66666667 L0.666666667,6.66666667 L0.666666667,16.6666667 L4.47666667,16.6666667 L10.6666667,60 L37.3333333,60 L43.5233333,16.6666667 L47.3333333,16.6666667 L47.3333333,6.66666667 Z M15.9780233,53.3186667 L19.3182202,53.3186667 L15.3584596,20.012 L11.9922446,20.012 L15.9780233,53.3186667 Z M36.1457955,20.0136667 L31.92129,53.3333333 L28.5637478,53.3333333 L32.7176546,20.0136667 L36.1457955,20.0136667 Z M22.3333333,20.0049425 L25.6666667,20.0049425 L25.6666667,53.3333333 L22.3333333,53.3333333 L22.3333333,20.0049425 Z" id="path-1"></path>
    </defs>
    <g id="ic-delete" stroke="none" stroke-width="1" fill="none" fill-rule="evenodd">
        <g id="icons/general/ic_delete" transform="translate(16.000000, 10.000000)">
            <mask id="mask-2" fill="white">
                <use xlink:href="#path-1"></use>
            </mask>
            <use id="ic_delete" fill="#D70F64" xlink:href="#path-1"></use>
            <g id="pandora/$color-interaction-secondary" mask="url(#mask-2)">
                <g transform="translate(-16.000000, -10.000000)"></g>
            </g>
        </g>
    </g>
</svg>