<?xml version="1.0" encoding="UTF-8"?>
<svg width="80px" height="80px" viewBox="0 0 80 80" version="1.1" xmlns="http://www.w3.org/2000/svg" xmlns:xlink="http://www.w3.org/1999/xlink">
    <!-- Generator: Sketch 50.2 (55047) - http://www.bohemiancoding.com/sketch -->
    <title>ic-ddt</title>
    <desc>Created with Sketch.</desc>
    <defs>
        <path d="M31.2364957,37.9129331 C31.2065308,37.915409 31.1762996,37.9166667 31.1458333,37.9166667 C30.6717747,37.9166667 30.2546107,37.6121734 30.0126839,37.1511151 C30.0039026,37.136208 29.995329,37.1211023 29.9869689,37.1057996 C29.8452244,36.8463465 29.7831652,36.5637983 29.7925977,36.2873165 C29.7919788,36.2662928 29.7916667,36.2451711 29.7916667,36.2239583 L29.7916667,13.5416667 L32.5,13.5416667 L32.5,33.8832946 L44.5364541,27.0833333 L46.0416667,29.838518 L32.0942664,37.7180629 C31.8225549,37.8715655 31.5250862,37.9331679 31.2364957,37.9129331 Z M32.4984376,65 C14.5493005,65 0,50.4475746 0,32.4984376 C0,14.5493005 14.5493005,0 32.4984376,0 C50.4475746,0 65,14.5493005 65,32.4984376 C65,50.4475746 50.4475746,65 32.4984376,65 Z M32.4984086,62.2916667 C48.9517723,62.2916667 62.2916667,48.9517723 62.2916667,32.4984086 C62.2916667,16.0457504 48.9524779,2.70833333 32.4984086,2.70833333 C16.045045,2.70833333 2.70833333,16.045045 2.70833333,32.4984086 C2.70833333,48.9524779 16.0457504,62.2916667 32.4984086,62.2916667 Z" id="path-1"></path>
    </defs>
    <g id="ic-ddt" stroke="none" stroke-width="1" fill="none" fill-rule="evenodd">
        <g id="icons/general/ic_ddt" transform="translate(8.000000, 8.000000)">
            <mask id="mask-2" fill="white">
                <use xlink:href="#path-1"></use>
            </mask>
            <use id="ic_time" fill="#D70F64" fill-rule="evenodd" xlink:href="#path-1"></use>
        </g>
    </g>
</svg>