<?xml version="1.0" encoding="UTF-8"?>
<svg width="80px" height="80px" viewBox="0 0 80 80" version="1.1" xmlns="http://www.w3.org/2000/svg" xmlns:xlink="http://www.w3.org/1999/xlink">
    <!-- Generator: Sketch 50.2 (55047) - http://www.bohemiancoding.com/sketch -->
    <title>ic-delivery-fee</title>
    <desc>Created with Sketch.</desc>
    <defs>
        <path d="M29.8944444,69.6638889 C28.2111111,69.1777778 26.5555556,68.4944444 24.9444444,67.625 L26.8,67.625 C26.875,67.6805556 26.9472222,67.7333333 27.0222222,67.7861111 L27.225,67.9305556 C27.4555556,68.1 27.6888889,68.275 27.925,68.4333333 C28.3888889,68.7527778 28.8638889,69.0583333 29.3305556,69.3416667 C29.4666667,69.4222222 29.6,69.5 29.7388889,69.575 L29.8944444,69.6638889 Z M29.8416667,10.3638889 C29.6722222,10.4611111 29.5,10.5555556 29.3333333,10.6583333 C29.0388889,10.8361111 28.7555556,11.0166667 28.475,11.2027778 L27.3611111,11.2305556 C28.2055556,10.8805556 29.05,10.5833333 29.8888889,10.3388889 L29.8416667,10.3638889 Z M16.875,55.0666667 C17.0361111,55.4305556 17.2055556,55.7888889 17.3805556,56.1388889 C17.4666667,56.3111111 17.5555556,56.4805556 17.6444444,56.6472222 C17.8833333,57.1138889 18.1305556,57.5666667 18.3888889,58.0111111 L18.4638889,58.1416667 C18.5333333,58.2638889 18.6027778,58.3916667 18.6777778,58.5138889 C18.8111111,58.7388889 18.9527778,58.9583333 19.0916667,59.1805556 L15.4666667,59.1805556 C14.5611111,57.9083333 13.7305556,56.5277778 12.9916667,55.0666667 L16.875,55.0666667 Z M15.7361111,27.7416667 L15.5861111,28.1638889 C15.4333333,28.6055556 15.2944444,29.0472222 15.1611111,29.4972222 L11.1111111,29.4972222 C11.4388889,28.4944444 11.8166667,27.5 12.2416667,26.525 L16.1944444,26.525 C16.0361111,26.9277778 15.8805556,27.3305556 15.7361111,27.7416667 L15.7361111,27.7416667 Z M19.6722222,19.925 C19.3277778,20.4333333 18.9916667,20.9611111 18.675,21.4861111 C18.6138889,21.5888889 18.5527778,21.6944444 18.4944444,21.8027778 L18.3888889,21.9861111 C18.1305556,22.4305556 17.8805556,22.8888889 17.6444444,23.35 L17.5444444,23.5388889 C17.5,23.6222222 17.4583333,23.7055556 17.4138889,23.7888889 L13.5916667,23.7888889 C14.3861111,22.3555556 15.3083333,20.975 16.3305556,19.6777778 L19.8416667,19.6777778 C19.7861111,19.7611111 19.7277778,19.8416667 19.6722222,19.925 L19.6722222,19.925 Z M14.8416667,49.3583333 C14.8611111,49.4444444 14.8833333,49.5277778 14.9055556,49.6083333 L14.9444444,49.7638889 C15.1194444,50.3944444 15.3277778,51.0694444 15.5861111,51.8305556 L15.7611111,52.3305556 L11.7694444,52.3305556 C11.4,51.3805556 11.0638889,50.3805556 10.775,49.3583333 L14.8416667,49.3583333 Z M37.5666667,69.8472222 C37.2166667,69.7583333 36.8694444,69.6666667 36.5277778,69.5638889 L36.2111111,69.4611111 C35.9194444,69.3722222 35.6277778,69.2777778 35.3388889,69.175 C35.15,69.1083333 34.9611111,69.0333333 34.775,68.9611111 L34.4805556,68.8444444 C34.375,68.8083333 34.2722222,68.7666667 34.1694444,68.7222222 C28.0055556,66.1611111 22.8722222,61.1472222 19.7138889,54.6083333 L19.6277778,54.425 C19.4611111,54.0722222 19.3,53.7166667 19.1444444,53.3555556 C19.1027778,53.2583333 19.0611111,53.1638889 19.0222222,53.0694444 L18.9611111,52.9222222 C18.8472222,52.6388889 18.7333333,52.3583333 18.6222222,52.0694444 C18.55,51.8861111 18.4888889,51.7027778 18.4194444,51.5138889 C18.3305556,51.2611111 18.2388889,51.0111111 18.1527778,50.7555556 L17.9527778,50.125 C17.8805556,49.8888889 17.8055556,49.6472222 17.7361111,49.4055556 C17.6805556,49.2055556 17.625,49.0055556 17.5722222,48.8055556 L17.5527778,48.7388889 C17.4916667,48.5 17.4305556,48.2611111 17.3722222,48.0222222 C17.3166667,47.7916667 17.2638889,47.5611111 17.2138889,47.3333333 C17.1611111,47.0888889 17.1111111,46.85 17.0666667,46.6027778 C17.0194444,46.3694444 16.975,46.1388889 16.9305556,45.9027778 C16.8861111,45.65 16.85,45.4 16.8138889,45.15 L16.7777778,44.9055556 C16.7555556,44.7583333 16.7333333,44.6111111 16.7138889,44.4583333 C16.675,44.1861111 16.65,43.9111111 16.6194444,43.6027778 C16.5944444,43.4 16.5722222,43.1972222 16.5527778,42.9944444 C16.525,42.6777778 16.5055556,42.3611111 16.4861111,42.0444444 C16.4833333,41.9527778 16.4777778,41.8611111 16.4694444,41.7694444 C16.4638889,41.6833333 16.4583333,41.5944444 16.4555556,41.5055556 C16.4333333,41.0083333 16.4222222,40.5055556 16.4222222,40 C16.4222222,39.4944444 16.4333333,38.9888889 16.4555556,38.4916667 C16.4583333,38.4027778 16.4638889,38.3138889 16.4694444,38.2277778 C16.4777778,38.1361111 16.4833333,38.0444444 16.4861111,37.9555556 C16.5055556,37.6361111 16.525,37.3166667 16.5527778,37.0027778 C16.5722222,36.7888889 16.5972222,36.575 16.6222222,36.3583333 C16.65,36.0861111 16.6777778,35.8111111 16.7138889,35.5388889 C16.7333333,35.3777778 16.7583333,35.2138889 16.7833333,35.0555556 L16.8138889,34.85 C16.85,34.5944444 16.8861111,34.3444444 16.9305556,34.0944444 C16.9722222,33.8611111 17.0194444,33.6277778 17.0666667,33.3944444 C17.1111111,33.15 17.1611111,32.9055556 17.2111111,32.6666667 C17.2638889,32.4361111 17.3166667,32.2055556 17.3722222,31.9777778 C17.4305556,31.7361111 17.4916667,31.4972222 17.5527778,31.2611111 C17.6138889,31.0361111 17.675,30.8138889 17.7333333,30.5916667 C17.8055556,30.3527778 17.8777778,30.1111111 17.9527778,29.8694444 L17.975,29.7944444 C18.0333333,29.6111111 18.0916667,29.425 18.1527778,29.2388889 C18.2388889,28.9861111 18.3305556,28.7333333 18.4222222,28.4777778 C18.4888889,28.2916667 18.55,28.1083333 18.6222222,27.925 C18.7333333,27.6361111 18.8472222,27.3555556 18.9611111,27.075 L19.0305556,26.9111111 C19.0666667,26.8194444 19.1027778,26.7305556 19.1444444,26.6388889 C19.3,26.2777778 19.4611111,25.9222222 19.6305556,25.5666667 L19.7111111,25.3888889 C22.8722222,18.8472222 28.0055556,13.8333333 34.1694444,11.2722222 C34.2722222,11.2277778 34.375,11.1888889 34.4805556,11.15 L34.6416667,11.0861111 C34.875,10.9972222 35.1055556,10.9055556 35.3361111,10.8222222 C35.6277778,10.7194444 35.9194444,10.625 36.2111111,10.5333333 L36.3444444,10.4888889 C36.4055556,10.4722222 36.4611111,10.45 36.5277778,10.4333333 C36.8722222,10.3277778 37.2166667,10.2333333 37.5555556,10.15 C37.5916667,10.1416667 37.6305556,10.1305556 37.6694444,10.1194444 L37.7333333,10.1055556 C38.1083333,10.0138889 38.4861111,9.93333333 38.8611111,9.85555556 L38.9638889,9.83888889 C39.3583333,9.76388889 39.75,9.69722222 40.1583333,9.64166667 C40.2083333,9.63333333 40.2611111,9.625 40.3333333,9.61666667 L40.775,9.55555556 C41.6888889,9.45277778 42.6,9.40277778 43.4861111,9.40277778 C58.4083333,9.40277778 70.5527778,23.1277778 70.5527778,40 C70.5527778,56.8694444 58.4083333,70.5972222 43.4861111,70.5972222 C42.6,70.5972222 41.6888889,70.5444444 40.7861111,70.4416667 L40.15,70.3527778 C39.75,70.3 39.3583333,70.2361111 38.975,70.1611111 L38.8666667,70.1388889 C38.4861111,70.0666667 38.1111111,69.9833333 37.7333333,69.8916667 C37.6916667,69.8833333 37.6472222,69.8722222 37.5666667,69.8472222 L37.5666667,69.8472222 Z M24.4611111,14.3333333 C24.225,14.55 23.9972222,14.7777778 23.7666667,15.0027778 C23.5388889,15.2305556 23.3083333,15.4666667 23.0861111,15.7 C22.8666667,15.9277778 22.65,16.15 22.4416667,16.3861111 C22.3083333,16.5305556 22.1805556,16.6805556 22.0527778,16.8333333 L21.9611111,16.9388889 L18.7833333,16.9388889 C19.9111111,15.8305556 21.1055556,14.8305556 22.3416667,13.9694444 L24.8638889,13.9694444 C24.7277778,14.0888889 24.5916667,14.2083333 24.4611111,14.3333333 L24.4611111,14.3333333 Z M9.80833333,35.2083333 C9.96388889,34.1 10.1388889,33.125 10.3416667,32.2361111 L14.4611111,32.2361111 C14.4527778,32.2805556 14.4416667,32.325 14.4333333,32.3694444 L14.3416667,32.8222222 C14.1833333,33.6 14.0638889,34.3166667 13.9666667,35.0305556 L13.95,35.2083333 L9.80833333,35.2083333 Z M13.8138889,43.65 C13.8555556,44.0666667 13.9055556,44.475 13.9583333,44.8861111 C13.9611111,44.9194444 13.9638889,44.9555556 13.9694444,44.9916667 C14.0416667,45.5138889 14.1305556,46.0611111 14.2305556,46.6222222 L10.1166667,46.6222222 C9.91944444,45.6166667 9.76666667,44.6194444 9.66111111,43.65 L13.8138889,43.65 Z M13.6555556,40.9138889 L9.48888889,40.9138889 C9.48611111,40.8444444 9.48055556,40.775 9.47777778,40.7083333 C9.46388889,40.475 9.45,40.2361111 9.45,40 C9.45,39.3222222 9.48611111,38.6583333 9.53055556,37.9416667 L13.7,37.9416667 C13.6555556,38.7138889 13.6361111,39.3722222 13.6361111,40 C13.6361111,40.3055556 13.6444444,40.6055556 13.6555556,40.9138889 L13.6555556,40.9138889 Z M21.0194444,61.9138889 L21.0222222,61.9166667 C21.1277778,62.0611111 21.2388889,62.2 21.35,62.3361111 C21.7222222,62.7944444 22.0805556,63.2138889 22.4388889,63.6138889 C22.6222222,63.8166667 22.8138889,64.0166667 23.0055556,64.2166667 L23.0833333,64.3 C23.2722222,64.5 23.4638889,64.6916667 23.6611111,64.8888889 L20.8,64.8888889 C19.6944444,63.9944444 18.6416667,62.9972222 17.6611111,61.9138889 L21.0194444,61.9138889 Z M43.4861111,6.66666667 C42.3527778,6.66666667 41.175,6.74444444 39.9861111,6.90277778 C38.7666667,6.74166667 37.6333333,6.66666667 36.5166667,6.66666667 C28.2694444,6.66666667 20.3027778,10.55 14.6861111,17.2972222 C14.6305556,17.35 14.5861111,17.4027778 14.525,17.4861111 C12.7861111,19.6055556 11.2916667,21.9722222 10.0944444,24.5194444 C10.0583333,24.5833333 10.0277778,24.6472222 10.0083333,24.7 C9.16388889,26.5222222 8.47222222,28.4138889 7.96388889,30.2861111 C7.9,30.4277778 7.875,30.5722222 7.86111111,30.6833333 C7.06944444,33.7166667 6.66666667,36.8527778 6.66666667,40 C6.66666667,44.9388889 7.61944444,49.7027778 9.50277778,54.1638889 C9.51944444,54.2083333 9.53611111,54.2527778 9.55277778,54.2861111 C10.6305556,56.8138889 11.9972222,59.1916667 13.6416667,61.3833333 C13.6777778,61.4388889 13.7138889,61.4888889 13.7388889,61.5083333 C15.3666667,63.6555556 17.2333333,65.5666667 19.2611111,67.1694444 C19.3277778,67.2388889 19.3972222,67.2888889 19.4861111,67.3527778 C24.5083333,71.2666667 30.4,73.3333333 36.5166667,73.3333333 C37.6111111,73.3333333 38.7472222,73.2583333 39.9861111,73.0972222 C41.2138889,73.2583333 42.3555556,73.3333333 43.4861111,73.3333333 C59.9444444,73.3333333 73.3333333,58.3805556 73.3333333,40 C73.3333333,21.6194444 59.9444444,6.66666667 43.4861111,6.66666667 L43.4861111,6.66666667 Z M37.9937977,32.8916809 C37.9937977,29.655435 41.548187,27.6375405 44.8759542,27.9091313 C48.5520038,28.2111809 51.4193702,29.8584936 51.4193702,33.3333333 L53.8740458,33.3333333 C53.8740458,28.8203566 51.0353053,26.3328891 46.3191794,25.3759756 L46.1020992,25.3531315 L46.1020992,20 C46.1020992,20 45.5534351,20 44.8759542,20 C44.2008588,20 43.6474237,20 43.6474237,20 L43.6474237,25.3658227 L43.4351145,25.391205 C38.7857824,25.9293102 35.5391221,29.0132623 35.5391221,32.8916809 C35.5391221,37.8818453 40.293416,39.1534996 44.4895038,40.2753982 C49.5205153,41.6206612 52.5477099,42.1130782 52.5477099,45.8442795 C52.5477099,49.5145631 48.6092557,52.0883305 44.8759542,52.0883305 C40.019084,52.0883305 37.4546756,50.6060029 37.4546756,46.6666667 L35,46.6666667 C35,51.6339869 38.0725191,54.1569897 43.427958,54.6316391 L43.6474237,54.6494067 L43.6474237,60 L46.1020992,60 L46.1020992,54.6443302 L46.3191794,54.6214861 C51.5291031,54.0909956 55,50.0475919 55,45.6843708 C55,39.6509931 49.5205153,38.9301352 45.0930344,37.7447808 C40.2647901,36.4528206 37.9937977,35.5517482 37.9937977,32.8916809 Z" id="path-1"></path>
    </defs>
    <g id="ic-delivery-fee" stroke="none" stroke-width="1" fill="none" fill-rule="evenodd">
        <g id="icons/general/ic_delivery_fee">
            <mask id="mask-2" fill="white">
                <use xlink:href="#path-1"></use>
            </mask>
            <use id="ic_dynamic_delivery_fee" fill="#858585" fill-rule="evenodd" xlink:href="#path-1"></use>
            <g id="pandora/$color-interaction-secondary" mask="url(#mask-2)" fill="#D70F64" fill-rule="evenodd">
                <rect id="bg" x="0" y="0" width="80" height="80"></rect>
            </g>
        </g>
    </g>
</svg>