<?xml version="1.0" encoding="UTF-8"?>
<svg width="80px" height="80px" viewBox="0 0 80 80" version="1.1" xmlns="http://www.w3.org/2000/svg" xmlns:xlink="http://www.w3.org/1999/xlink">
    <!-- Generator: Sketch 50.2 (55047) - http://www.bohemiancoding.com/sketch -->
    <title>ic-email</title>
    <desc>Created with Sketch.</desc>
    <defs>
        <path d="M67.0833333,13.8477817 L67.0833333,11.6666667 L2.91666667,11.6666667 L2.91666667,13.8477817 L35,37.5615499 L67.0833333,13.8477817 Z M67.0833333,17.474682 L44.7754858,33.963091 L54.9895307,44.1771359 L52.9271359,46.2395307 L42.4037318,35.7161266 L35,41.1884501 L27.5962682,35.7161266 L17.0728641,46.2395307 L15.0104693,44.1771359 L25.2245142,33.963091 L2.91666667,17.474682 L2.91666667,58.3333333 L67.0833333,58.3333333 L67.0833333,17.474682 Z M-6.10622664e-16,8.75 L70,8.75 L70,61.25 L-6.10622664e-16,61.25 L-6.10622664e-16,8.75 Z" id="path-1"></path>
    </defs>
    <g id="ic-email" stroke="none" stroke-width="1" fill="none" fill-rule="evenodd">
        <g id="icons/contact/ic-email" transform="translate(5.000000, 5.000000)">
            <mask id="mask-2" fill="white">
                <use xlink:href="#path-1"></use>
            </mask>
            <use id="ic-email" fill="#858585" fill-rule="nonzero" xlink:href="#path-1"></use>
            <g id="pandora/$color-interaction-secondary" mask="url(#mask-2)" fill="#D70F64" fill-rule="evenodd">
                <rect id="bg" x="0" y="0" width="70" height="70"></rect>
            </g>
        </g>
    </g>
</svg>