<?xml version="1.0" encoding="UTF-8"?>
<svg width="80px" height="80px" viewBox="0 0 80 80" version="1.1" xmlns="http://www.w3.org/2000/svg" xmlns:xlink="http://www.w3.org/1999/xlink">
    <!-- Generator: Sketch 50.2 (55047) - http://www.bohemiancoding.com/sketch -->
    <title>ic-filters-filled</title>
    <desc>Created with Sketch.</desc>
    <defs>
        <path d="M25.3333333,21.7899709 C22.4579546,21.0498995 20.3333333,18.4397324 20.3333333,15.3333333 C20.3333333,12.2269343 22.4579546,9.61676713 25.3333333,8.87669581 L25.3333333,0.333333333 L28.6666667,0.333333333 L28.6666667,8.87669581 C31.5420454,9.61676713 33.6666667,12.2269343 33.6666667,15.3333333 C33.6666667,18.4397324 31.5420454,21.0498995 28.6666667,21.7899709 L28.6666667,57 L25.3333333,57 L25.3333333,21.7899709 Z M8.66666667,25.5433625 C11.5420454,26.2834338 13.6666667,28.893601 13.6666667,32 C13.6666667,35.106399 11.5420454,37.7165662 8.66666667,38.4566375 L8.66666667,57 L5.33333333,57 L5.33333333,38.4566375 C2.45795465,37.7165662 0.333333333,35.106399 0.333333333,32 C0.333333333,28.893601 2.45795465,26.2834338 5.33333333,25.5433625 L5.33333333,0.333333333 L8.66666667,0.333333333 L8.66666667,25.5433625 Z M48.6666667,35.5433625 C51.5420454,36.2834338 53.6666667,38.893601 53.6666667,42 C53.6666667,45.106399 51.5420454,47.7165662 48.6666667,48.4566375 L48.6666667,57 L45.3333333,57 L45.3333333,48.4566375 C42.4579546,47.7165662 40.3333333,45.106399 40.3333333,42 C40.3333333,38.893601 42.4579546,36.2834338 45.3333333,35.5433625 L45.3333333,0.333333333 L48.6666667,0.333333333 L48.6666667,35.5433625 Z" id="path-1"></path>
    </defs>
    <g id="ic-filters-filled" stroke="none" stroke-width="1" fill="none" fill-rule="evenodd">
        <g id="icons/general/ic_filters_filled" transform="translate(13.000000, 13.000000)">
            <mask id="mask-2" fill="white">
                <use xlink:href="#path-1"></use>
            </mask>
            <use id="ic_filters_filled" fill="#D70F64" xlink:href="#path-1"></use>
            <g id="pandora/$color-interaction-secondary" mask="url(#mask-2)">
                <g transform="translate(-13.000000, -13.000000)"></g>
            </g>
        </g>
    </g>
</svg>