<?xml version="1.0" encoding="UTF-8"?>
<svg width="80px" height="80px" viewBox="0 0 80 80" version="1.1" xmlns="http://www.w3.org/2000/svg" xmlns:xlink="http://www.w3.org/1999/xlink">
    <!-- Generator: Sketch 50.2 (55047) - http://www.bohemiancoding.com/sketch -->
    <title>ic-filters-empty</title>
    <desc>Created with Sketch.</desc>
    <defs>
        <path d="M25,21.7899709 C22.1246213,21.0498995 20,18.4397324 20,15.3333333 C20,12.2269343 22.1246213,9.61676713 25,8.87669581 L25,0.333333333 L28.3333333,0.333333333 L28.3333333,8.87669581 C31.208712,9.61676713 33.3333333,12.2269343 33.3333333,15.3333333 C33.3333333,18.4397324 31.208712,21.0498995 28.3333333,21.7899709 L28.3333333,57 L25,57 L25,21.7899709 Z M8.33333333,25.5433625 C11.208712,26.2834338 13.3333333,28.893601 13.3333333,32 C13.3333333,35.106399 11.208712,37.7165662 8.33333333,38.4566375 L8.33333333,57 L5,57 L5,38.4566375 C2.12462131,37.7165662 0,35.106399 0,32 C0,28.893601 2.12462131,26.2834338 5,25.5433625 L5,0.333333333 L8.33333333,0.333333333 L8.33333333,25.5433625 Z M48.3333333,35.5433625 C51.208712,36.2834338 53.3333333,38.893601 53.3333333,42 C53.3333333,45.106399 51.208712,47.7165662 48.3333333,48.4566375 L48.3333333,57 L45,57 L45,48.4566375 C42.1246213,47.7165662 40,45.106399 40,42 C40,38.893601 42.1246213,36.2834338 45,35.5433625 L45,0.333333333 L48.3333333,0.333333333 L48.3333333,35.5433625 Z M46.6666667,45.3333333 C48.5076158,45.3333333 50,43.8409492 50,42 C50,40.1590508 48.5076158,38.6666667 46.6666667,38.6666667 C44.8257175,38.6666667 43.3333333,40.1590508 43.3333333,42 C43.3333333,43.8409492 44.8257175,45.3333333 46.6666667,45.3333333 Z M6.66666667,35.3333333 C8.50761583,35.3333333 10,33.8409492 10,32 C10,30.1590508 8.50761583,28.6666667 6.66666667,28.6666667 C4.8257175,28.6666667 3.33333333,30.1590508 3.33333333,32 C3.33333333,33.8409492 4.8257175,35.3333333 6.66666667,35.3333333 Z M26.6666667,18.6666667 C28.5076158,18.6666667 30,17.1742825 30,15.3333333 C30,13.4923842 28.5076158,12 26.6666667,12 C24.8257175,12 23.3333333,13.4923842 23.3333333,15.3333333 C23.3333333,17.1742825 24.8257175,18.6666667 26.6666667,18.6666667 Z" id="path-1"></path>
    </defs>
    <g id="ic-filters-empty" stroke="none" stroke-width="1" fill="none" fill-rule="evenodd">
        <g id="icons/general/ic_filters_empty" transform="translate(15.000000, 13.000000)">
            <mask id="mask-2" fill="white">
                <use xlink:href="#path-1"></use>
            </mask>
            <use id="ic_filters_empty" fill="#D70F64" xlink:href="#path-1"></use>
            <g id="pandora/$color-interaction-secondary" mask="url(#mask-2)">
                <g transform="translate(-15.000000, -13.000000)"></g>
            </g>
        </g>
    </g>
</svg>