<?xml version="1.0" encoding="UTF-8"?>
<svg width="80px" height="80px" viewBox="0 0 80 80" version="1.1" xmlns="http://www.w3.org/2000/svg" xmlns:xlink="http://www.w3.org/1999/xlink">
    <!-- Generator: Sketch 50.2 (55047) - http://www.bohemiancoding.com/sketch -->
    <title>ic-gift</title>
    <desc>Created with Sketch.</desc>
    <defs>
        <path d="M33.8270483,23.3360755 C33.8299869,23.3012497 33.8329255,22.4857439 33.8329255,22.4422115 L33.8329255,22.3928749 C33.8534956,21.1594586 33.09828,18.9770374 30.9149134,16.8903873 C29.5425956,15.5786128 27.0242307,14.5860755 25.0583192,14.5860755 C24.2178847,14.5860755 23.1012235,14.7660092 22.5781559,15.6134387 C21.7729844,16.9252132 22.3283764,18.3675846 22.7339007,19.1076344 C23.7212643,20.924384 25.7988419,23.2112828 27.4738337,23.3360755 L33.8270483,23.3360755 Z M42.5837631,23.3333333 C44.3625265,23.1987179 47.1246713,20.664437 48.0183915,18.7944537 C48.5881743,17.6063266 48.5447898,16.5498885 47.896915,15.6514771 C47.2577171,14.7676979 46.0979055,14.5833333 45.2360006,14.5833333 C43.2836993,14.5833333 40.9756452,15.5080825 39.6220497,16.8337514 C37.4730721,18.9378484 36.7326437,21.1385173 36.7499975,22.3822464 L36.7499975,22.4671126 C36.7528898,22.4963768 36.7528898,23.3069955 36.7557821,23.3333333 L42.5837631,23.3333333 Z M55.4166667,32.0833333 L55.4166667,26.25 L14.5833333,26.25 L14.5833333,32.0833333 L55.4166667,32.0833333 Z M29.1666667,61.25 L29.1666667,35.0755877 L17.5,35 L17.5925926,61.25 L29.1666667,61.25 Z M32.0833333,61.253085 L37.9166667,61.253085 L37.9166667,35.0277647 L32.0833333,35.0277647 L32.0833333,61.253085 Z M40.8333333,61.25 L52.5,61.25 L52.5,35 L40.8333333,35 L40.8333333,61.25 Z M14.5833333,64.1666667 L14.5833333,35.0277647 C13.1570833,35.0277647 11.6666667,35 11.6666667,35 L11.6666667,23.3333333 C11.6666667,23.3333333 13.1570833,23.3734379 14.5833333,23.3734379 L22.5954167,23.3333333 C21.6475,22.5991107 20.6354167,21.6223753 20.1104167,20.4860785 C19.0545833,18.1960033 18.8883333,16.0079034 20.0345833,14.1257296 C21,12.5407412 22.785,11.6666667 25.0629167,11.6666667 C27.8016667,11.6666667 31.05375,12.9661241 32.97875,14.8249892 C33.8916667,15.7078045 34.65875,16.6547185 35.2625,17.6540771 C35.86625,16.6547185 36.6304167,15.7078045 37.54625,14.8249892 C39.45375,12.980692 42.5745833,11.7395062 45.3075,11.7395062 C47.5270833,11.7395062 49.34125,12.5494819 50.4204167,14.0237543 C51.7154167,15.7922984 51.8554167,17.9512624 50.8141667,20.0985721 C50.3883333,20.9755602 49.5570833,22.4272094 48.125,23.3333333 L55.4166667,23.3734379 C56.8429167,23.3734379 58.3333333,23.3333333 58.3333333,23.3333333 L58.3333333,35 C58.3333333,35 56.8429167,35 55.4166667,35 L55.4166667,64.1666667 L14.5833333,64.1666667 Z" id="path-1"></path>
    </defs>
    <g id="ic-gift" stroke="none" stroke-width="1" fill="none" fill-rule="evenodd">
        <g id="icons/side_nav/ic_gift" transform="translate(5.000000, 5.000000)">
            <mask id="mask-2" fill="white">
                <use xlink:href="#path-1"></use>
            </mask>
            <use id="ic_gift" fill="#858585" fill-rule="evenodd" xlink:href="#path-1"></use>
            <g id="pandora/$color-interaction-secondary" mask="url(#mask-2)" fill="#D70F64" fill-rule="evenodd">
                <rect id="bg" x="0" y="0" width="70" height="70"></rect>
            </g>
        </g>
    </g>
</svg>