<?xml version="1.0" encoding="UTF-8"?>
<svg width="80px" height="80px" viewBox="0 0 80 80" version="1.1" xmlns="http://www.w3.org/2000/svg" xmlns:xlink="http://www.w3.org/1999/xlink">
    <!-- Generator: Sketch 50.2 (55047) - http://www.bohemiancoding.com/sketch -->
    <title>ic-help</title>
    <desc>Created with Sketch.</desc>
    <defs>
        <path d="M36.6666667,53.3333333 L40,53.3333333 L40,56.6666667 L36.6666667,56.6666667 L36.6666667,53.3333333 Z M40,46.1939103 L40,50.0000008 L36.6666667,50.0000008 L36.6666667,46.4102564 C36.6664175,46.37737 36.666418,46.3445739 36.6666667,46.3118674 L36.6666667,46.0000006 L36.6766676,46.0000006 C36.8451647,43.0341479 39.0890231,40.8100837 42.3076923,38.7179487 C45.3125,36.7227564 46.6105769,35.3044872 46.6105769,32.7083333 C46.6105769,29.2948718 43.8221154,26.1939103 39.9519231,26.1939103 C36.1057692,26.1939103 33.6458333,29.5352564 33.3333333,33.3333333 L30,33.3333333 C30.2884615,28.2371795 33.8701923,23.3333333 40.0721154,23.3333333 C45.8653846,23.3333333 50,27.6602564 50,32.5641026 C50,36.1217949 48.6778846,38.1410256 45.3846154,40.2564103 C42.2355769,42.275641 40,43.525641 40,46.1939103 Z M40,70 C23.4314575,70 10,56.5685425 10,40 C10,23.4314575 23.4314575,10 40,10 C56.5685425,10 70,23.4314575 70,40 C70,56.5685425 56.5685425,70 40,70 Z M40,66.6666667 C54.7275933,66.6666667 66.6666667,54.7275933 66.6666667,40 C66.6666667,25.2724067 54.7275933,13.3333333 40,13.3333333 C25.2724067,13.3333333 13.3333333,25.2724067 13.3333333,40 C13.3333333,54.7275933 25.2724067,66.6666667 40,66.6666667 Z" id="path-1"></path>
    </defs>
    <g id="ic-help" stroke="none" stroke-width="1" fill="none" fill-rule="evenodd">
        <g id="icons/side_nav/ic-help">
            <mask id="mask-2" fill="white">
                <use xlink:href="#path-1"></use>
            </mask>
            <use id="ic-help" fill="#858585" fill-rule="evenodd" xlink:href="#path-1"></use>
            <g id="pandora/$color-interaction-secondary" mask="url(#mask-2)" fill="#D70F64" fill-rule="evenodd">
                <rect id="bg" x="0" y="0" width="80" height="80"></rect>
            </g>
        </g>
    </g>
</svg>