<?xml version="1.0" encoding="UTF-8"?>
<svg width="80px" height="80px" viewBox="0 0 80 80" version="1.1" xmlns="http://www.w3.org/2000/svg" xmlns:xlink="http://www.w3.org/1999/xlink">
    <!-- Generator: Sketch 50.2 (55047) - http://www.bohemiancoding.com/sketch -->
    <title>ic-info</title>
    <desc>Created with Sketch.</desc>
    <defs>
        <path d="M38.3333333,30 L41.6666667,30 L41.6666667,53.3333333 L38.3333333,53.3333333 L38.3333333,30 Z M38.3333333,23.3333333 L41.6666667,23.3333333 L41.6666667,26.6666667 L38.3333333,26.6666667 L38.3333333,23.3333333 Z M40,73.3333333 C21.5905083,73.3333333 6.66666667,58.4094917 6.66666667,40 C6.66666667,21.5905083 21.5905083,6.66666667 40,6.66666667 C58.4094917,6.66666667 73.3333333,21.5905083 73.3333333,40 C73.3333333,58.4094917 58.4094917,73.3333333 40,73.3333333 Z M40,70 C56.5685425,70 70,56.5685425 70,40 C70,23.4314575 56.5685425,10 40,10 C23.4314575,10 10,23.4314575 10,40 C10,56.5685425 23.4314575,70 40,70 Z" id="path-1"></path>
    </defs>
    <g id="ic-info" stroke="none" stroke-width="1" fill="none" fill-rule="evenodd">
        <g id="icons/general/ic_info">
            <mask id="mask-2" fill="white">
                <use xlink:href="#path-1"></use>
            </mask>
            <use id="ic_info" fill="#858585" fill-rule="nonzero" xlink:href="#path-1"></use>
            <g id="pandora/$color-interaction-secondary" mask="url(#mask-2)" fill="#D70F64" fill-rule="evenodd">
                <rect id="bg" x="0" y="0" width="80" height="80"></rect>
            </g>
        </g>
    </g>
</svg>