<?xml version="1.0" encoding="UTF-8"?>
<svg width="80px" height="80px" viewBox="0 0 80 80" version="1.1" xmlns="http://www.w3.org/2000/svg" xmlns:xlink="http://www.w3.org/1999/xlink">
    <!-- Generator: Sketch 50.2 (55047) - http://www.bohemiancoding.com/sketch -->
    <title>ic-loader-spinner</title>
    <desc>Created with Sketch.</desc>
    <defs>
        <circle id="path-1" cx="35" cy="35" r="35"></circle>
        <path d="M20.9209515,28.7242728 C19.4741357,29.2234282 12.4263888,28.5103491 10.8809264,28.4271565 C8.72166334,28.3201946 6.93506498,28.9381966 5.32383824,29.8295455 C3.61396496,27.5476923 2.82479268,24.9568381 2.38636364,21.9143672 C4.83060556,21.9143672 6.6500861,21.9500211 7.4063762,21.9381365 C13.0730716,21.81929 24.4612661,21.8668286 25.0093024,22.092637 C25.4038885,22.2590221 25.5134958,23.0434091 24.82297,23.4950259 C24.1324443,23.9466427 20.14274,24.1962204 19.4522142,24.2794129 C18.7726492,24.3507209 18.4876703,24.7429144 18.4876703,25.0756846 C18.4876703,25.4084549 18.619199,25.7412251 19.0795495,25.8244177 C19.5399,25.9076103 23.2665469,25.2301851 23.2665469,25.2301851 C23.2665469,25.2301851 31.1692305,22.5204844 32.0899314,22.5323691 C32.747575,22.5442537 33.1202397,22.8057161 33.3284935,23.0315245 C33.4709829,23.186025 33.4161793,23.4474873 33.229847,23.5187952 C31.3555628,24.2912976 22.2252779,28.272656 20.9209515,28.7242728 Z M34.2708333,18.9583333 C34.6208333,18.9583333 35,19.1668268 35,19.6875 C35,20.2081732 34.6208333,20.4166667 34.2708333,20.4166667 L0.729166667,20.4166667 C0.364583333,20.4166667 0,20.14454 0,19.6875 C5.13069815e-17,19.23046 0.364583333,18.9583333 0.729166667,18.9583333 L1.98863636,18.9583333 C2.28275022,10.5750912 8.78440291,4.07657557 16.7787474,3.68455915 L16.7787474,2.1875 C16.7787474,1.82291667 17.0415122,1.45833333 17.5109375,1.45833333 C17.9803628,1.45833333 18.2291667,1.82291667 18.2291667,2.1875 L18.2954545,3.69152306 C26.334517,4.03509071 32.7051136,10.5294737 33.0113636,18.9583333 L34.2708333,18.9583333 Z M10.9140231,7.08691499 C10.9807929,6.99565829 10.8917665,6.87018032 10.8138683,6.92721576 C6.37367568,10.1668288 4.88248316,14.6041861 4.40396615,16.6346478 C4.27042652,17.1935951 4.6154039,17.8095778 5.0939209,17.8209849 L6.58511342,17.8209849 C6.97460401,17.8437991 7.30845308,17.4673652 7.33070969,16.9882675 C7.51989083,12.00337 9.91247584,8.38732304 10.9140231,7.08691499 Z" id="path-3"></path>
    </defs>
    <g id="ic-loader-spinner" stroke="none" stroke-width="1" fill="none" fill-rule="evenodd">
        <g id="icons/loaders/ic-spinner" transform="translate(5.000000, 5.000000)">
            <mask id="mask-2" fill="white">
                <use xlink:href="#path-1"></use>
            </mask>
            <use id="bg" fill="#858585" fill-rule="evenodd" xlink:href="#path-1"></use>
            <g id="pandora/$color-brand-primary" mask="url(#mask-2)" fill="#D70F64" fill-rule="evenodd">
                <rect id="bg" x="0" y="0" width="70" height="70"></rect>
            </g>
            <g id="logos/foodora/logo-foodora-sygnet" mask="url(#mask-2)">
                <g transform="translate(17.500000, 17.500000)">
                    <mask id="mask-4" fill="white">
                        <use xlink:href="#path-3"></use>
                    </mask>
                    <use id="logo-foodora-sygnet" stroke="none" fill="#858585" fill-rule="nonzero" opacity="0" xlink:href="#path-3"></use>
                    <g id="overlay/$color-overlay-lvl2" stroke="none" fill="none" mask="url(#mask-4)" fill-opacity="0.04" fill-rule="evenodd">
                        <g transform="translate(-5.833333, -5.833333)" fill="#000000" id="bg">
                            <rect x="0" y="0" width="47" height="47"></rect>
                        </g>
                    </g>
                </g>
            </g>
        </g>
    </g>
</svg>