<?xml version="1.0" encoding="UTF-8"?>
<svg width="80px" height="80px" viewBox="0 0 80 80" version="1.1" xmlns="http://www.w3.org/2000/svg" xmlns:xlink="http://www.w3.org/1999/xlink">
    <!-- Generator: Sketch 50.2 (55047) - http://www.bohemiancoding.com/sketch -->
    <title>ic-locate-round</title>
    <desc>Created with Sketch.</desc>
    <defs>
        <path d="M38.3333333,60 C48.4585537,60 56.6666667,51.7918871 56.6666667,41.6666667 C56.6666667,31.5414463 48.4585537,23.3333333 38.3333333,23.3333333 C28.2081129,23.3333333 20,31.5414463 20,41.6666667 C20,51.7918871 28.2081129,60 38.3333333,60 Z M59.9368506,43.3333333 C59.1276537,53.9706768 50.6373435,62.460987 40,63.2701839 L40,70 L36.6666667,70 L36.6666667,63.2701839 C26.0293232,62.460987 17.539013,53.9706768 16.7298161,43.3333333 L10,43.3333333 L10,40 L16.7298161,40 C17.539013,29.3626565 26.0293232,20.8723463 36.6666667,20.0631494 L36.6666667,13.3333333 L40,13.3333333 L40,20.0631494 C50.6373435,20.8723463 59.1276537,29.3626565 59.9368506,40 L66.6666667,40 L66.6666667,43.3333333 L59.9368506,43.3333333 Z M38.3333333,50 C42.9357062,50 46.6666667,46.2690396 46.6666667,41.6666667 C46.6666667,37.0642938 42.9357062,33.3333333 38.3333333,33.3333333 C33.7309604,33.3333333 30,37.0642938 30,41.6666667 C30,46.2690396 33.7309604,50 38.3333333,50 Z M38.3333333,53.3333333 C31.8900113,53.3333333 26.6666667,48.1099887 26.6666667,41.6666667 C26.6666667,35.2233446 31.8900113,30 38.3333333,30 C44.7766554,30 50,35.2233446 50,41.6666667 C50,48.1099887 44.7766554,53.3333333 38.3333333,53.3333333 Z M38.3333333,45 C40.1742825,45 41.6666667,43.5076158 41.6666667,41.6666667 C41.6666667,39.8257175 40.1742825,38.3333333 38.3333333,38.3333333 C36.4923842,38.3333333 35,39.8257175 35,41.6666667 C35,43.5076158 36.4923842,45 38.3333333,45 Z" id="path-1"></path>
    </defs>
    <g id="ic-locate-round" stroke="none" stroke-width="1" fill="none" fill-rule="evenodd">
        <g id="icons/location/ic-locate-round">
            <mask id="mask-2" fill="white">
                <use xlink:href="#path-1"></use>
            </mask>
            <use id="ic-locate-round" fill="#858585" fill-rule="nonzero" xlink:href="#path-1"></use>
            <g id="pandora/$color-interaction-secondary" mask="url(#mask-2)" fill="#D70F64" fill-rule="evenodd">
                <rect id="bg" x="0" y="0" width="80" height="80"></rect>
            </g>
        </g>
    </g>
</svg>