<?xml version="1.0" encoding="UTF-8"?>
<svg width="80px" height="80px" viewBox="0 0 80 80" version="1.1" xmlns="http://www.w3.org/2000/svg" xmlns:xlink="http://www.w3.org/1999/xlink">
    <!-- Generator: Sketch 50.2 (55047) - http://www.bohemiancoding.com/sketch -->
    <title>ic-location-generic</title>
    <desc>Created with Sketch.</desc>
    <defs>
        <path d="M39.7862885,65.1137002 C42.1551505,63.4282364 44.528624,61.4051297 46.7380532,59.0549731 C52.9696548,52.4264561 56.6666667,44.5878573 56.6666667,35.5072464 C56.6666667,25.0849924 48.440917,16.6666667 38.3333333,16.6666667 C28.2257496,16.6666667 20,25.0849924 20,35.5072464 C20,44.5878573 23.6970119,52.4264561 29.9286134,59.0549731 C32.1380427,61.4051297 34.5115161,63.4282364 36.8803781,65.1137002 C37.4171869,65.4956439 37.9047053,65.8267949 38.3333333,66.1068416 C38.7619613,65.8267949 39.2494797,65.4956439 39.7862885,65.1137002 Z M16.6666667,35.5072464 C16.6666667,23.261087 26.3673148,13.3333333 38.3333333,13.3333333 C50.2993519,13.3333333 60,23.261087 60,35.5072464 C60,58.3993478 38.3333333,70 38.3333333,70 C38.3333333,70 16.6666667,58.3993478 16.6666667,35.5072464 Z M38.3333333,23.3333333 C31.8900023,23.3333333 26.6666667,28.5566689 26.6666667,35 C26.6666667,41.4433311 31.8900023,46.6666667 38.3333333,46.6666667 C44.7766644,46.6666667 50,41.4433311 50,35 C50,28.5566689 44.7766644,23.3333333 38.3333333,23.3333333 Z M38.3333333,26.6666667 C42.935717,26.6666667 46.6666667,30.3976164 46.6666667,35 C46.6666667,39.6023836 42.935717,43.3333333 38.3333333,43.3333333 C33.7309497,43.3333333 30,39.6023836 30,35 C30,30.3976164 33.7309497,26.6666667 38.3333333,26.6666667 Z" id="path-1"></path>
    </defs>
    <g id="ic-location-generic" stroke="none" stroke-width="1" fill="none" fill-rule="evenodd">
        <g id="icons/location/ic-location-generic">
            <mask id="mask-2" fill="white">
                <use xlink:href="#path-1"></use>
            </mask>
            <use id="ic-generic" fill="#858585" fill-rule="nonzero" xlink:href="#path-1"></use>
            <g id="pandora/$color-interaction-secondary" mask="url(#mask-2)" fill="#D70F64" fill-rule="evenodd">
                <rect id="bg" x="0" y="0" width="80" height="80"></rect>
            </g>
        </g>
    </g>
</svg>