<?xml version="1.0" encoding="UTF-8"?>
<svg width="80px" height="80px" viewBox="0 0 80 80" version="1.1" xmlns="http://www.w3.org/2000/svg" xmlns:xlink="http://www.w3.org/1999/xlink">
    <!-- Generator: Sketch 50.2 (55047) - http://www.bohemiancoding.com/sketch -->
    <title>ic-more</title>
    <desc>Created with Sketch.</desc>
    <defs>
        <path d="M14.5833333,29.1666667 C11.3633333,29.1666667 8.75,31.7776667 8.75,35 C8.75,38.2223333 11.3633333,40.8333333 14.5833333,40.8333333 C17.8056667,40.8333333 20.4166667,38.2223333 20.4166667,35 C20.4166667,31.7776667 17.8056667,29.1666667 14.5833333,29.1666667 M14.5833333,31.5 C16.513,31.5 18.0833333,33.0703333 18.0833333,35 C18.0833333,36.9296667 16.513,38.5 14.5833333,38.5 C12.6536667,38.5 11.0833333,36.9296667 11.0833333,35 C11.0833333,33.0703333 12.6536667,31.5 14.5833333,31.5 Z M35,29.1666667 C38.2223333,29.1666667 40.8333333,31.7776667 40.8333333,35 C40.8333333,38.2223333 38.2223333,40.8333333 35,40.8333333 C31.78,40.8333333 29.1666667,38.2223333 29.1666667,35 C29.1666667,31.7776667 31.78,29.1666667 35,29.1666667 Z M35,31.5 C36.9296667,31.5 38.5,33.0703333 38.5,35 C38.5,36.9296667 36.9296667,38.5 35,38.5 C33.0703333,38.5 31.5,36.9296667 31.5,35 C31.5,33.0703333 33.0703333,31.5 35,31.5 Z M55.4166667,29.1666667 C58.639,29.1666667 61.25,31.7776667 61.25,35 C61.25,38.2223333 58.639,40.8333333 55.4166667,40.8333333 C52.1966667,40.8333333 49.5833333,38.2223333 49.5833333,35 C49.5833333,31.7776667 52.1966667,29.1666667 55.4166667,29.1666667 Z M55.4166667,31.5 C57.3463333,31.5 58.9166667,33.0703333 58.9166667,35 C58.9166667,36.9296667 57.3463333,38.5 55.4166667,38.5 C53.487,38.5 51.9166667,36.9296667 51.9166667,35 C51.9166667,33.0703333 53.487,31.5 55.4166667,31.5" id="path-1"></path>
    </defs>
    <g id="ic-more" stroke="none" stroke-width="1" fill="none" fill-rule="evenodd">
        <g id="icons/side_nav/iic_more" transform="translate(5.000000, 5.000000)">
            <mask id="mask-2" fill="white">
                <use xlink:href="#path-1"></use>
            </mask>
            <use id="ic_more" fill="#858585" fill-rule="evenodd" xlink:href="#path-1"></use>
            <g id="pandora/$color-interaction-secondary" mask="url(#mask-2)" fill="#D70F64" fill-rule="evenodd">
                <rect id="bg" x="0" y="0" width="70" height="70"></rect>
            </g>
        </g>
    </g>
</svg>