<?xml version="1.0" encoding="UTF-8"?>
<svg width="80px" height="80px" viewBox="0 0 80 80" version="1.1" xmlns="http://www.w3.org/2000/svg" xmlns:xlink="http://www.w3.org/1999/xlink">
    <!-- Generator: Sketch 50.2 (55047) - http://www.bohemiancoding.com/sketch -->
    <title>ic-office</title>
    <desc>Created with Sketch.</desc>
    <defs>
        <path d="M42.5,5.77274971 L15,13.2694729 L15,57.5 L42.5,57.5 L42.5,5.77274971 Z M12.5,11.3597637 L45,2.5 L45,60 L12.5,60 L12.5,11.3597637 Z M30,17.5 L32.5,17.5 L32.5,22.5 L30,22.5 L30,17.5 Z M20,17.5 L22.5,17.5 L22.5,22.5 L20,22.5 L20,17.5 Z M25,17.5 L27.5,17.5 L27.5,22.5 L25,22.5 L25,17.5 Z M30,25 L32.5,25 L32.5,30 L30,30 L30,25 Z M20,25 L22.5,25 L22.5,30 L20,30 L20,25 Z M25,25 L27.5,25 L27.5,30 L25,30 L25,25 Z M30,32.5 L32.5,32.5 L32.5,37.5 L30,37.5 L30,32.5 Z M20,32.5 L22.5,32.5 L22.5,37.5 L20,37.5 L20,32.5 Z M25,32.5 L27.5,32.5 L27.5,37.5 L25,37.5 L25,32.5 Z M30,40 L32.5,40 L32.5,45 L30,45 L30,40 Z M35,17.5 L37.5,17.5 L37.5,22.5 L35,22.5 L35,17.5 Z M35,25 L37.5,25 L37.5,30 L35,30 L35,25 Z M35,32.5 L37.5,32.5 L37.5,37.5 L35,37.5 L35,32.5 Z M35,40 L37.5,40 L37.5,45 L35,45 L35,40 Z M20,40 L22.5,40 L22.5,45 L20,45 L20,40 Z M25,40 L27.5,40 L27.5,45 L25,45 L25,40 Z M30,47.5 L32.5,47.5 L32.5,52.5 L30,52.5 L30,47.5 Z M35,47.5 L37.5,47.5 L37.5,52.5 L35,52.5 L35,47.5 Z M20,47.5 L22.5,47.5 L22.5,52.5 L20,52.5 L20,47.5 Z M25,47.5 L27.5,47.5 L27.5,52.5 L25,52.5 L25,47.5 Z" id="path-1"></path>
    </defs>
    <g id="ic-office" stroke="none" stroke-width="1" fill="none" fill-rule="evenodd">
        <g id="icons/location/ic-office" transform="translate(10.000000, 10.000000)">
            <mask id="mask-2" fill="white">
                <use xlink:href="#path-1"></use>
            </mask>
            <use id="-g-" fill="#858585" fill-rule="nonzero" xlink:href="#path-1"></use>
            <g id="pandora/$color-interaction-secondary" mask="url(#mask-2)" fill="#D70F64" fill-rule="evenodd">
                <rect id="bg" x="0" y="0" width="60" height="60"></rect>
            </g>
        </g>
    </g>
</svg>