<?xml version="1.0" encoding="UTF-8"?>
<svg width="80px" height="80px" viewBox="0 0 80 80" version="1.1" xmlns="http://www.w3.org/2000/svg" xmlns:xlink="http://www.w3.org/1999/xlink">
    <!-- Generator: Sketch 50.2 (55047) - http://www.bohemiancoding.com/sketch -->
    <title>ic-opening-hours</title>
    <desc>Created with Sketch.</desc>
    <defs>
        <path d="M41.668,48.0481572 L41.668,60 L38.3346667,60 L38.3346667,48.0481572 C36.3926794,47.3617631 35.0013333,45.509698 35.0013333,43.3326667 C35.0013333,42.5936267 35.1616733,41.8920361 35.4494639,41.2607841 L30,35.8113202 C30.3688763,35.4419766 30.7814069,35.0292124 31.2375917,34.5730276 C31.6937765,34.1168429 32.1072415,33.7036114 32.4779869,33.3333333 L37.926704,38.7820505 C38.5586673,38.4934721 39.2612213,38.3326667 40.0013333,38.3326667 C42.7627571,38.3326667 45.0013333,40.5712429 45.0013333,43.3326667 C45.0013333,45.509698 43.6099873,47.3617631 41.668,48.0481572 Z M21.1154984,57.0384157 C18.3180335,53.1902947 16.668,48.4541776 16.668,43.3326667 C16.668,30.446 27.1146667,19.9993333 40.0013333,19.9993333 C52.888,19.9993333 63.3346667,30.446 63.3346667,43.3326667 C63.3346667,48.3470515 61.7529384,52.9919963 59.0612005,56.7957825 L66.668,64.1880131 L64.1900131,66.666 L56.9504253,59.3693706 C52.6974028,63.8628186 46.6767339,66.666 40.0013333,66.666 C33.4567508,66.666 27.5414897,63.9716101 23.3043094,59.6315895 L16.3008089,66.666 L13.822822,64.1880131 L21.1154984,57.0384157 Z M55.008,21.2933333 C54.0713333,20.6533333 53.0813333,20.09 52.0613333,19.57 C53.5913333,17.8066667 55.8213333,16.6666667 58.3346667,16.6666667 C62.9313333,16.6666667 66.668,20.4033333 66.668,25 C66.668,27.5133333 65.528,29.7433333 63.7613333,31.27 C63.2446667,30.2533333 62.6813333,29.2633333 62.038,28.3233333 C62.838,27.44 63.3346667,26.28 63.3346667,25 C63.3346667,22.2433333 61.0913333,20 58.3346667,20 C57.0513333,20 55.8946667,20.4966667 55.008,21.2933333 Z M40.0013333,63.3326667 C51.0446667,63.3326667 60.0013333,54.376 60.0013333,43.3326667 C60.0013333,32.2893333 51.0446667,23.3326667 40.0013333,23.3326667 C28.958,23.3326667 20.0013333,32.2893333 20.0013333,43.3326667 C20.0013333,54.376 28.958,63.3326667 40.0013333,63.3326667 Z M16.24,31.2703333 C14.4766667,29.7436667 13.3333333,27.5136667 13.3333333,25.0003333 C13.3333333,20.4036667 17.0733333,16.667 21.6666667,16.667 C24.18,16.667 26.41,17.807 27.94,19.5703333 C26.9233333,20.0903333 25.93,20.6536667 24.9933333,21.2936667 C24.1066667,20.497 22.95,20.0003333 21.6666667,20.0003333 C18.91,20.0003333 16.6666667,22.2436667 16.6666667,25.0003333 C16.6666667,26.2803333 17.1666667,27.4403333 17.9633333,28.3236667 C17.3233333,29.2603333 16.76,30.2536667 16.24,31.2703333 Z M40.0013333,44.9993333 C40.9218079,44.9993333 41.668,44.2531412 41.668,43.3326667 C41.668,42.4121921 40.9218079,41.666 40.0013333,41.666 C39.0808588,41.666 38.3346667,42.4121921 38.3346667,43.3326667 C38.3346667,44.2531412 39.0808588,44.9993333 40.0013333,44.9993333 Z" id="path-1"></path>
    </defs>
    <g id="ic-opening-hours" stroke="none" stroke-width="1" fill="none" fill-rule="evenodd">
        <g id="icons/general/ic_opening_hours">
            <mask id="mask-2" fill="white">
                <use xlink:href="#path-1"></use>
            </mask>
            <use id="ic_opening_hours" fill="#858585" fill-rule="evenodd" xlink:href="#path-1"></use>
            <g id="pandora/$color-interaction-secondary" mask="url(#mask-2)" fill="#D70F64" fill-rule="evenodd">
                <rect id="bg" x="0" y="0" width="80" height="80"></rect>
            </g>
        </g>
    </g>
</svg>