<?xml version="1.0" encoding="UTF-8"?>
<svg width="80px" height="80px" viewBox="0 0 80 80" version="1.1" xmlns="http://www.w3.org/2000/svg" xmlns:xlink="http://www.w3.org/1999/xlink">
    <!-- Generator: Sketch 50.2 (55047) - http://www.bohemiancoding.com/sketch -->
    <title>ic-profile</title>
    <desc>Created with Sketch.</desc>
    <defs>
        <path d="M48.1414095,43.0102943 C47.749202,43.684185 47.4450391,44.1072271 46.8087439,44.9228426 C46.4979953,45.3177763 46.4031,45.4468205 46.3407859,45.5576229 C46.2765427,45.6718553 46.2518559,45.7915634 46.2518559,46.230555 C46.2518559,50.9896007 48.0474817,53.1148667 56.0800199,56.5182811 C62.414347,59.0458281 66.5444232,61.3454502 69.4624523,64.0330764 L67.2042144,66.4849069 C64.6400566,64.1232109 60.8348376,62.0044689 54.812188,59.6008906 C45.625118,55.7087563 42.9185225,52.5052852 42.9185225,46.230555 C42.9185225,45.2645279 43.0558742,44.5985021 43.4353971,43.9236624 C43.6151066,43.6041161 43.7611109,43.4055709 44.1848334,42.8670807 C44.7295908,42.1687801 44.9647388,41.8417268 45.260482,41.333581 C45.9881973,40.083221 46.5380392,38.4769968 46.912816,36.1584597 L47.1720779,35.4988613 L47.493714,35.0171994 C47.6379761,34.8011617 47.8307411,34.6218372 48.0566241,34.4935379 C49.4775503,33.6864667 50.1007453,32.4301449 50.3234635,28.9154289 C50.3234635,27.4322251 49.9922504,26.4013135 49.46953,25.6998808 C49.2002683,25.3385615 49.0887865,24.8836099 49.1604983,24.4387381 C49.5056954,22.2972731 49.7865764,20.0121414 49.8765772,18.1531879 C50.1929488,15.2756946 49.2160036,11.5121947 46.980735,8.68659782 C44.5426333,5.60577883 40.7470236,3.66666667 35.1407827,3.66666667 C29.7299755,3.66666667 26.0130666,5.5253223 23.5795632,8.47790609 C21.2710977,11.2778148 20.1805572,15.1266592 20.4040457,18.1427749 C20.5734341,19.9502683 20.8485369,22.1965184 21.1563856,24.4632106 C21.2153975,24.8977158 21.1007977,25.3379725 20.8374245,25.6885601 C20.3057184,26.3963373 19.9617569,27.4806505 19.9583159,28.944239 C20.186559,32.4906542 20.8158135,33.688358 22.4598692,34.6073154 C22.8768695,34.8404009 23.173803,35.24122 23.2753006,35.7080352 L23.3741742,36.1673679 C23.7687409,38.3369512 24.2963453,39.8911667 24.9611063,41.1060634 C25.2839225,41.6960322 25.5483886,42.0773026 26.1243154,42.8304003 C26.5428939,43.381299 26.6841575,43.5800175 26.858897,43.9005548 C27.2298666,44.5810511 27.3630429,45.2493674 27.3630429,46.230555 C27.3630429,52.6369828 24.7448964,55.7325567 15.4731453,59.602019 C9.14859917,62.1241821 5.23198352,64.2777281 2.80594758,66.5498105 L0.527385757,64.1168561 C3.32240261,61.4992079 7.56056256,59.1688612 14.2138377,56.5158318 C22.32942,53.1286834 24.0297096,51.1183405 24.0297096,46.230555 C24.0297096,45.7620704 24.0023323,45.6246834 23.9321985,45.4960319 C23.869359,45.3807609 23.7767173,45.2504399 23.4733602,44.8511726 C22.8051012,43.9773543 22.4612632,43.4816567 22.0369051,42.7061129 C21.22594,41.2240181 20.6009811,39.4182779 20.1585864,37.1031854 C17.9069637,35.5848116 16.9015635,33.3442327 16.6284236,29.0512823 C16.6284236,27.1089834 17.0416838,25.5213795 17.7696553,24.2898242 C17.4902963,22.1951269 17.2440051,20.1474783 17.0825526,18.4216155 C16.7953625,14.551239 18.1270631,9.85126819 21.0074817,6.35764492 C24.0570816,2.65754757 28.7050068,0.333333333 35.1407827,0.333333333 C41.7935438,0.333333333 46.5399797,2.75820633 49.5947768,6.61829026 C52.3943863,10.1572688 53.5989367,14.7975751 53.1981175,18.4129838 C53.117574,20.1399116 52.86858,22.2666741 52.5522317,24.3280376 C53.2572894,25.5352405 53.6563026,27.0750605 53.6535569,29.0192995 C53.3802697,33.395836 52.3551046,35.6846699 50.1285362,37.1333116 C49.6894106,39.6176834 49.0310408,41.4817304 48.1414095,43.0102943 Z" id="path-1"></path>
    </defs>
    <g id="ic-profile" stroke="none" stroke-width="1" fill="none" fill-rule="evenodd">
        <g id="icons/general/ic_profile" transform="translate(5.000000, 8.000000)">
            <mask id="mask-2" fill="white">
                <use xlink:href="#path-1"></use>
            </mask>
            <use id="ic_profile" fill="#D70F64" fill-rule="nonzero" xlink:href="#path-1"></use>
            <g id="pandora/$color-interaction-secondary" mask="url(#mask-2)">
                <g transform="translate(-5.000000, -8.000000)"></g>
            </g>
        </g>
    </g>
</svg>