<?xml version="1.0" encoding="UTF-8"?>
<svg width="80px" height="80px" viewBox="0 0 80 80" version="1.1" xmlns="http://www.w3.org/2000/svg" xmlns:xlink="http://www.w3.org/1999/xlink">
    <!-- Generator: Sketch 50.2 (55047) - http://www.bohemiancoding.com/sketch -->
    <title>ic-payments-applepay-xs</title>
    <desc>Created with Sketch.</desc>
    <defs></defs>
    <g id="ic-payments-applepay-xs" stroke="none" stroke-width="1" fill="none" fill-rule="evenodd">
        <g id="icons/payments/ic-payments-applepay-xs" transform="translate(10.000000, 18.000000)">
            <g id="-g-">
                <path d="M3.75,0.5 C1.95507456,0.5 0.5,1.95507456 0.5,3.75 L0.5,41.25 C0.5,43.0449254 1.95507456,44.5 3.75,44.5 L56.25,44.5 C58.0449254,44.5 59.5,43.0449254 59.5,41.25 L59.5,3.75 C59.5,1.95507456 58.0449254,0.5 56.25,0.5 L3.75,0.5 Z" id="card" stroke="#333333" fill="#F7F7F7"></path>
                <path d="M15.6734848,15.4908607 C15.1458752,16.1099129 14.3101911,16.60051 13.4734183,16.5279365 C13.3641951,15.6908008 13.7829444,14.7999608 14.2557609,14.2542078 C14.7822819,13.6166494 15.6916282,13.1623391 16.4369583,13.1249637 C16.5280381,13.998749 16.1825881,14.854028 15.6734848,15.4908607 Z M16.4275963,16.6914446 C16.8993243,16.7280943 18.2593522,16.8728784 19.1295088,18.1603328 C19.0572981,18.2154887 17.5158364,19.1045145 17.5339798,20.9729199 C17.5521232,23.2045559 19.4920136,23.9487975 19.510157,23.9669409 C19.4920136,24.0217339 19.2024452,25.0199828 18.4952162,26.0534298 C17.878704,26.9609618 17.2436857,27.8499875 16.228382,27.8681309 C15.2490022,27.8862743 14.9224213,27.2875427 13.7986203,27.2875427 C12.6740934,27.2875427 12.3115887,27.8499875 11.3862762,27.8862743 C10.4072593,27.9221982 9.6644692,26.9239493 9.04795708,26.017143 C7.7782832,24.1842986 6.81704681,20.8462791 8.12264459,18.5961369 C8.7573001,17.4712472 9.91811369,16.7640182 11.1689185,16.7455119 C12.1301548,16.7280943 13.0184548,17.3808931 13.5994059,17.3808931 C14.1796313,17.3808931 15.2123526,16.619234 16.4275963,16.6914446 Z M28.5424769,14.1629466 C31.1837905,14.1629466 33.0228037,15.9830907 33.0228037,18.6338388 C33.0228037,21.2936587 31.1460522,23.1236002 28.4767978,23.1236002 L25.5524475,23.1236002 L25.5524475,27.773749 L23.4398321,27.773749 L23.4398321,14.1629466 L28.5424769,14.1629466 Z M25.5524475,21.350266 L27.9767662,21.350266 C29.8161423,21.350266 30.8630155,20.3600002 30.8630155,18.6432734 C30.8630155,16.9265466 29.8161423,15.9457153 27.9862008,15.9457153 L25.5524475,15.9457153 L25.5524475,21.350266 Z M33.5467846,24.9536143 C33.5467846,23.2082209 34.8766945,22.2085206 37.328954,22.0579305 L39.9604701,21.8971801 L39.9604701,21.1427783 C39.9604701,20.0392978 39.234372,19.435486 37.9422003,19.435486 C36.8760952,19.435486 36.1028242,19.9826904 35.9427996,20.8220033 L34.0373816,20.8220033 C34.093989,19.0581037 35.7537456,17.7757294 37.9988077,17.7757294 C40.413329,17.7757294 41.9885374,19.0395974 41.9885374,21.0012599 L41.9885374,27.7734587 L40.0359466,27.7734587 L40.0359466,26.1416429 L39.9887738,26.1416429 C39.4324977,27.2077481 38.206368,27.8772389 36.8760952,27.8772389 C34.9144327,27.8772389 33.5467846,26.7077165 33.5467846,24.9536143 Z M39.9604701,24.0762003 L39.9604701,23.3120011 L37.6119908,23.4633169 C36.2915154,23.547865 35.6031555,24.0384621 35.6031555,24.8966441 C35.6031555,25.7268852 36.3198191,26.2642922 37.4425316,26.2642922 C38.8758588,26.2642922 39.9604701,25.3495029 39.9604701,24.0762003 Z M43.7836799,31.4143275 L43.7836799,29.7828746 C43.9154009,29.8013808 44.2361759,29.8198871 44.4059979,29.8198871 C45.3396564,29.8198871 45.8679917,29.4243614 46.1887666,28.405429 L46.377095,27.8019801 L42.8024858,17.8982335 L45.0098097,17.8982335 L47.4998074,25.9339375 L47.5469802,25.9339375 L50.036978,17.8982335 L52.1876945,17.8982335 L48.4806387,28.3016489 C47.6315284,30.6878665 46.6604946,31.4709349 44.6041237,31.4709349 C44.4437362,31.4709349 43.9251983,31.4520657 43.7836799,31.4143275 Z" id="Combined-Shape" fill="#231F20"></path>
            </g>
        </g>
    </g>
</svg>