<?xml version="1.0" encoding="UTF-8"?>
<svg width="80px" height="80px" viewBox="0 0 80 80" version="1.1" xmlns="http://www.w3.org/2000/svg" xmlns:xlink="http://www.w3.org/1999/xlink">
    <!-- Generator: Sketch 50.2 (55047) - http://www.bohemiancoding.com/sketch -->
    <title>ic-payments-maestro-xs</title>
    <desc>Created with Sketch.</desc>
    <defs></defs>
    <g id="ic-payments-maestro-xs" stroke="none" stroke-width="1" fill="none" fill-rule="evenodd">
        <g id="icons/payments/ic-payments-maestro-xs" transform="translate(10.000000, 18.000000)">
            <g id="-g-">
                <path d="M3.75,0 L56.25,0 C58.3210678,0 60,1.67893219 60,3.75 L60,41.25 C60,43.3210678 58.3210678,45 56.25,45 L3.75,45 C1.67893219,45 2.53632657e-16,43.3210678 0,41.25 L0,3.75 C-2.53632657e-16,1.67893219 1.67893219,0 3.75,0 Z" id="card" fill="#000000"></path>
                <path d="M22.8976444,37.3429422 L22.1922648,37.3429422 L22.1922648,35.6749885 C22.1922648,35.1661213 21.966011,34.8834173 21.4935398,34.8834173 C21.2742076,34.8770731 21.0629706,34.961895 20.9156816,35.1154551 C20.7683926,35.2690153 20.6998838,35.4758502 20.7282695,35.6812708 L20.7282695,37.3429422 L20.0295444,37.3429422 L20.0295444,35.6749885 C20.0295444,35.1661213 19.7966361,34.8834173 19.3374739,34.8834173 C19.1151623,34.8709527 18.8986768,34.9534186 18.7477824,35.1080485 C18.5968879,35.2626784 18.5275441,35.4731178 18.5588945,35.6812708 L18.5588945,37.3429422 L17.8601695,37.3429422 L17.8601695,34.3462797 L18.5655491,34.3462797 L18.5655491,34.716936 C18.7703625,34.4228342 19.1248343,34.2531215 19.4971825,34.2708919 C19.9176051,34.2580304 20.3128719,34.4596078 20.531961,34.7986061 C20.7744562,34.4427074 21.202688,34.2393646 21.6499211,34.2677508 C21.9889182,34.248918 22.3201022,34.3687371 22.5589468,34.5966274 C22.7977914,34.8245177 22.9211886,35.1384309 22.8976444,35.4582488 L22.8976444,37.3429422 Z M26.7905411,35.8446109 L26.7905411,37.3429422 L26.0984706,37.3429422 L26.0984706,36.9722858 C25.8603933,37.2623337 25.4886878,37.4260939 25.100292,37.4120476 C24.1814939,37.4120476 23.4366609,36.708876 23.4366609,35.8414698 C23.4366609,34.9740636 24.1814939,34.2708919 25.100292,34.2708919 C25.4886878,34.2568457 25.8603933,34.4206058 26.0984706,34.7106537 L26.0984706,34.3462797 L26.7905411,34.3462797 L26.7905411,35.8446109 Z M24.2185675,35.8446109 C24.1998822,36.0957588 24.293685,36.3427839 24.4771301,36.5255232 C24.6605752,36.7082625 24.9168263,36.8099445 25.1834735,36.8058046 C25.7065303,36.8032404 26.1314802,36.4064363 26.1399336,35.9126939 C26.1483869,35.4189515 25.7372428,35.0093892 25.214547,34.9908676 C24.6918512,34.9723461 24.249343,35.3516595 24.2185675,35.8446109 Z M41.5768942,34.2740331 C41.8047368,34.2734772 42.030597,34.3139904 42.2423466,34.393397 C42.4451037,34.4675769 42.63049,34.5785632 42.7880176,34.7200772 C42.9419625,34.8622044 43.0641531,35.032034 43.1473619,35.219521 C43.3211974,35.6222651 43.3211974,36.073239 43.1473619,36.4759832 C43.0634593,36.6612678 42.9413007,36.8289172 42.7880176,36.9691446 C42.6368674,37.11459 42.4571836,37.2308796 42.2589829,37.3115306 C41.8202366,37.4724799 41.3335517,37.4724799 40.8948054,37.3115306 C40.69363,37.2351921 40.5104407,37.1220319 40.355789,36.9785681 C40.2033151,36.8359391 40.0823096,36.6661848 39.9997719,36.4791244 C39.8262899,36.0763149 39.8262899,35.6254716 39.9997719,35.2226621 C40.0823096,35.0356016 40.2033151,34.8658473 40.355789,34.7232184 C40.5104407,34.5797545 40.69363,34.4665944 40.8948054,34.3902559 C41.111291,34.3067103 41.3430201,34.2640239 41.5768942,34.2646096 L41.5768942,34.2740331 Z M41.5768942,34.9022642 C41.4413856,34.9005193 41.306841,34.9240018 41.18095,34.9713697 C41.0623721,35.0162536 40.9547956,35.0836035 40.8648601,35.1692625 C40.7731115,35.2594381 40.7017882,35.3663174 40.6552426,35.483378 C40.5535967,35.7341814 40.5535967,36.0115813 40.6552426,36.2623846 C40.7017041,36.3794846 40.7730376,36.4863792 40.8648601,36.5765002 C40.9547353,36.6622285 41.0623279,36.7295884 41.18095,36.774393 C41.4344335,36.8680982 41.7160276,36.8680982 41.9695111,36.774393 C42.0938051,36.7310191 42.2071334,36.6636158 42.3022373,36.5765002 C42.3942847,36.4865455 42.4656494,36.3796043 42.5118548,36.2623846 C42.6135007,36.0115813 42.6135007,35.7341814 42.5118548,35.483378 C42.4655634,35.3661985 42.3942093,35.259273 42.3022373,35.1692625 C42.2071334,35.0821468 42.0938051,35.0147435 41.9695111,34.9713697 C41.8460489,34.9179347 41.7126238,34.8880454 41.5768942,34.8834173 L41.5768942,34.9022642 Z M30.5503474,35.8446109 C30.5503474,35.9325633 30.5436928,36.0142333 30.5403656,36.0927622 L28.1813367,36.0927622 C28.2354314,36.5405876 28.6572571,36.8664132 29.1329337,36.8277926 C29.4696865,36.8231346 29.7951793,36.7125998 30.0579126,36.5136771 L30.3906388,36.9974151 C30.0259723,37.2826532 29.5629403,37.4313454 29.0896793,37.4151888 C28.1708812,37.4273324 27.4156205,36.7340052 27.4027574,35.866599 C27.3898942,34.9991928 28.1242995,34.2861768 29.0430976,34.2740331 C29.9314766,34.2740331 30.5503474,34.9022642 30.5503474,35.8446109 Z M28.184664,35.5807539 L29.834986,35.5807539 C29.83062,35.383298 29.7433226,35.1955721 29.5923085,35.058896 C29.4412944,34.9222199 29.2389413,34.8477961 29.0297886,34.8520057 C28.5850927,34.8376781 28.2097277,35.1613541 28.184664,35.5807539 Z M33.4716836,35.1127217 C33.1678277,34.9475457 32.8241112,34.8588515 32.4735049,34.8551469 C32.094197,34.8551469 31.8679432,34.9870754 31.8679432,35.2069563 C31.8679432,35.4268372 32.1075061,35.4645311 32.4069597,35.502225 L32.7396859,35.5462011 C33.4317564,35.6404358 33.8509914,35.9168575 33.8509914,36.4445717 C33.8509914,36.9722858 33.3186295,37.4246122 32.4036324,37.4246122 C31.9132336,37.4369275 31.4315832,37.3004044 31.0294731,37.0351089 L31.3621993,36.5262417 C31.6675433,36.7401009 32.0402296,36.8507426 32.4202687,36.8403573 C32.8927399,36.8403573 33.1456119,36.7084287 33.1456119,36.4759832 C33.1456119,36.3063608 32.9659397,36.2121261 32.5866318,36.1618676 L32.2539056,36.1178915 C31.5418715,36.0236568 31.1559091,35.7221059 31.1559091,35.2320856 C31.1559091,34.635266 31.674962,34.2708919 32.486814,34.2708919 C32.9411985,34.2565195 33.3904094,34.3655388 33.7811189,34.5850075 L33.4716836,35.1127217 Z M36.7989457,34.9430993 L35.6510403,34.9430993 L35.6510403,36.2969373 C35.6510403,36.6110529 35.7641672,36.7995222 36.1102024,36.7995222 C36.3261853,36.7927696 36.5368251,36.7344091 36.7224187,36.6298998 L36.9220544,37.1890255 C36.6626303,37.3418672 36.3627611,37.4224408 36.0569662,37.4214711 C35.2384598,37.4214711 34.9523152,37.0068385 34.9523152,36.309502 L34.9523152,34.9399581 L34.3101536,34.9399581 L34.3101536,34.3431385 L34.9556425,34.3431385 L34.9556425,33.4322034 L35.6543675,33.4322034 L35.6543675,34.3431385 L36.7823094,34.3431385 L36.7989457,34.9430993 Z M39.1912472,34.2708919 C39.3591208,34.2714429 39.5256611,34.2990635 39.683682,34.352562 L39.4707372,34.9807931 C39.3332175,34.9290307 39.1862251,34.9034116 39.0381931,34.9054054 C38.5856855,34.9054054 38.3727407,35.1818271 38.3727407,35.6781297 L38.3727407,37.3429422 L37.6507248,37.3429422 L37.6507248,34.3462797 L38.3361408,34.3462797 L38.3361408,34.7106537 C38.5091528,34.4300867 38.8308772,34.2613483 39.1746109,34.2708919 L39.1912472,34.2708919 Z M43.9758502,36.9063215 C44.0191089,36.9058212 44.0620558,36.91329 44.1022862,36.9283096 C44.1404973,36.9430304 44.1754741,36.9643338 44.2054313,36.9911327 C44.2346677,37.0182162 44.2583556,37.0501633 44.2753038,37.0853674 C44.309362,37.1595135 44.309362,37.2436668 44.2753038,37.3178129 C44.2583556,37.353017 44.2346677,37.3849641 44.2054313,37.4120476 C44.1754741,37.4388465 44.1404973,37.46015 44.1022862,37.4748707 C44.0624529,37.4914639 44.0193888,37.500023 43.9758502,37.5 C43.8471017,37.4990838 43.7304689,37.4281246 43.6763966,37.3178129 C43.6427327,37.24359 43.6427327,37.1595903 43.6763966,37.0853674 C43.6933448,37.0501633 43.7170327,37.0182162 43.7462691,36.9911327 C43.7762262,36.9643338 43.811203,36.9430304 43.8494142,36.9283096 C43.8844311,36.915163 43.9215591,36.9077279 43.9592139,36.9063215 L43.9758502,36.9063215 Z M43.9758502,37.4371768 C44.0090594,37.4373673 44.041938,37.4309453 44.0723408,37.4183299 C44.1009674,37.4062639 44.1269293,37.3892137 44.1488678,37.3680714 C44.202159,37.3109648 44.2224623,37.2328463 44.2032223,37.1589384 C44.1839824,37.0850305 44.1276365,37.0246959 44.0523772,36.9974151 C44.0219445,36.9848886 43.989086,36.9784705 43.9558866,36.9785681 C43.9227159,36.9787336 43.889913,36.9851408 43.859396,36.9974151 C43.8295021,37.0089871 43.8023541,37.0260734 43.7795417,37.0476735 C43.6932668,37.1365391 43.6932668,37.2729236 43.7795417,37.3617891 C43.8260848,37.4062793 43.889652,37.4311898 43.9558866,37.4308945 L43.9758502,37.4371768 Z M43.9958138,37.0633793 C44.0268742,37.0619573 44.0574815,37.0708482 44.0823226,37.0885086 C44.1029857,37.1046528 44.114135,37.1292128 44.1122679,37.1544728 C44.1132338,37.1755673 44.1047851,37.1960774 44.0889771,37.2110136 C44.0696917,37.2275505 44.0450894,37.2375046 44.0191046,37.239284 L44.1155952,37.3429422 L44.0390682,37.3429422 L43.9492321,37.239284 L43.9192867,37.239284 L43.9192867,37.3429422 L43.8560688,37.3429422 L43.8560688,37.0665205 L43.9958138,37.0633793 Z M43.922614,37.116779 L43.922614,37.1921667 L43.9958138,37.1921667 C44.0088395,37.195833 44.0227152,37.195833 44.0357409,37.1921667 C44.0404865,37.1832757 44.0404865,37.1727873 44.0357409,37.1638963 C44.0404865,37.1550053 44.0404865,37.1445169 44.0357409,37.1356259 C44.0227152,37.1319596 44.0088395,37.1319596 43.9958138,37.1356259 L43.922614,37.116779 Z" id="Shape" fill="#FFFFFF" fill-rule="nonzero"></path>
                <polygon id="Rectangle-path" fill="#7673C0" fill-rule="nonzero" points="25.2873751 10.3694457 35.6915472 10.3694457 35.6915472 29.0406322 25.2873751 29.0406322"></polygon>
                <path d="M25.9479574,19.7033898 C25.945083,16.0605135 27.6197621,12.6186224 30.4894611,10.3694457 C25.6142941,6.54353517 18.6133587,7.10081213 14.4067242,11.6496373 C10.2000897,16.1984625 10.2000897,23.2116154 14.4067242,27.7604406 C18.6133587,32.3092657 25.6142941,32.8665427 30.4894611,29.0406322 C27.6188489,26.7907412 25.9440675,23.3474235 25.9479574,19.7033898 Z" id="_Path_" fill="#EB001B" fill-rule="nonzero"></path>
                <path d="M48.8021417,27.4683326 L48.8021417,26.7488191 L49.094084,26.7488191 L49.094084,26.5999542 L48.3549109,26.5999542 L48.3549109,26.7488191 L48.6468532,26.7488191 L48.6468532,27.4683326 L48.8021417,27.4683326 Z M50.237007,27.4683326 L50.237007,26.5999542 L50.0071801,26.5999542 L49.7462955,27.2202245 L49.4854109,26.5999542 L49.255584,26.5999542 L49.255584,27.4683326 L49.417084,27.4683326 L49.417084,26.8108461 L49.659334,27.375292 L49.8270455,27.375292 L50.0692955,26.8108461 L50.0692955,27.4683326 L50.237007,27.4683326 Z" id="Shape" fill="#00A1DF" fill-rule="nonzero"></path>
                <path d="M49.7256193,19.7033898 C49.7245197,24.2482185 47.1255216,28.3936928 43.031919,30.380028 C38.9383164,32.3663632 34.0683905,31.8450283 30.4894611,29.0373339 C33.357908,26.7862478 35.0327131,23.3448142 35.0327131,19.7017407 C35.0327131,16.0586672 33.357908,12.6172337 30.4894611,10.3661475 C34.068859,7.55808576 38.939542,7.03701159 43.0334041,9.02417459 C47.1272661,11.0113376 49.7257839,15.1579662 49.7256193,19.7033898 Z" id="Shape" fill="#00A1DF" fill-rule="nonzero"></path>
            </g>
        </g>
    </g>
</svg>