<?xml version="1.0" encoding="UTF-8"?>
<svg width="80px" height="80px" viewBox="0 0 80 80" version="1.1" xmlns="http://www.w3.org/2000/svg" xmlns:xlink="http://www.w3.org/1999/xlink">
    <!-- Generator: Sketch 50.2 (55047) - http://www.bohemiancoding.com/sketch -->
    <title>ic-payments-paypal-xs</title>
    <desc>Created with Sketch.</desc>
    <defs></defs>
    <g id="ic-payments-paypal-xs" stroke="none" stroke-width="1" fill="none" fill-rule="evenodd">
        <g id="icons/payments/ic-payments-paypal-xs" transform="translate(10.000000, 18.000000)">
            <g id="-g-">
                <path d="M57.5509677,32.5620968 L53.9612903,32.5620968 L53.9612903,31.0524194 L57.6068817,31.0524194 C57.7976156,31.0591627 57.982348,30.9826249 58.1162286,30.8413882 C58.2501092,30.7001515 58.3208941,30.5071326 58.3113978,30.3091935 C58.3214633,30.1131632 58.2500753,29.9220656 58.1153401,29.7843692 C57.980605,29.6466729 57.7954665,29.575606 57.6068817,29.5891935 L55.9741935,29.5891935 C55.3923937,29.6690937 54.8064479,29.4767693 54.3745555,29.0641459 C53.942663,28.6515225 53.7093595,28.0611488 53.7376344,27.4524194 C53.7347759,26.7962262 53.9993485,26.1693981 54.4659486,25.7268901 C54.9325486,25.2843822 55.557629,25.067493 56.1866667,25.1298387 L59.8546237,25.1298387 L59.2283871,26.6279032 L56.1531183,26.6279032 C55.9632863,26.6208807 55.7794834,26.6977448 55.6473154,26.8394236 C55.5151474,26.9811024 55.447001,27.174318 55.4597849,27.371129 C55.4496979,27.5640833 55.5199014,27.7522427 55.6525462,27.8877675 C55.785191,28.0232923 55.967499,28.093127 56.1531183,28.0795161 L57.7634409,28.0795161 C58.818722,27.8972771 59.8177522,28.6338697 60,29.7285484 L60,23.3879032 L22.5264516,23.3879032 L21.575914,24.7930645 L20.6365591,23.3879032 L9.85634409,23.3879032 L9.85634409,34.338871 L20.5806452,34.338871 L21.52,32.9104839 L22.4817204,34.338871 L29.1913978,34.338871 L29.1913978,32.0162903 L29.1243011,32.0162903 C29.8877244,32.0149487 30.6449037,31.8734144 31.3608602,31.5982258 L31.3608602,34.3737097 L36.0688172,34.3737097 L36.0688172,32.7479032 L37.2430108,34.338871 L57.5621505,34.338871 C58.1147766,34.3404972 58.6634611,34.242258 59.1836559,34.0485484 C59.4527354,33.9483753 59.711277,33.8199692 59.9552688,33.6653226 L59.9552688,30.6924194 C59.7360052,31.8649316 58.6961254,32.6735823 57.5509677,32.5620968 Z M17.2034409,26.6743548 L13.2223656,26.6743548 L13.2223656,28.1027419 L17.1139785,28.1027419 L17.1139785,29.5775806 L13.2223656,29.5775806 L13.2223656,31.0524194 L17.2034409,31.0524194 L17.2034409,32.5620968 L11.5113978,32.5620968 L11.5113978,25.1762903 L17.2034409,25.1762903 L17.2034409,26.6743548 Z M23.0967742,32.5620968 L21.3522581,30.2395161 L19.6077419,32.5620968 L17.5053763,32.5620968 L20.3346237,28.8691935 L17.5053763,25.1762903 L19.6412903,25.1762903 L21.3746237,27.498871 L23.1191398,25.1762903 L25.187957,25.1762903 L22.3587097,28.8343548 L25.2103226,32.5620968 L23.0967742,32.5620968 Z M29.4597849,30.1233871 L27.3350538,30.1233871 L27.3350538,32.5620968 L25.6352688,32.5620968 L25.6352688,25.1762903 L29.5492473,25.1762903 C30.2096543,25.0953279 30.8705059,25.3237429 31.3524636,25.7995494 C31.8344212,26.2753558 32.0874964,26.949203 32.0430108,27.6382258 C32.0658616,28.3354532 31.7973121,29.008891 31.3064795,29.4852146 C30.815647,29.9615381 30.1504713,30.1942247 29.4821505,30.1233871 L29.4597849,30.1233871 Z M37.5337634,32.5620968 L35.3978495,29.891129 L34.5926882,29.891129 L34.5926882,32.5620968 L32.9264516,32.5620968 L32.9264516,25.1762903 L36.7845161,25.1762903 C37.5835617,25.0787914 38.3719989,25.43138 38.852831,26.1012395 C39.3336631,26.771099 39.4338402,27.6564617 39.1156267,28.4238202 C38.7974132,29.1911786 38.1091531,29.7239527 37.3101075,29.8214516 L39.6808602,32.538871 L37.5337634,32.5620968 Z M46.1333333,26.6743548 L42.1746237,26.6743548 L42.1746237,28.1027419 L46.0662366,28.1027419 L46.0662366,29.5775806 L42.1746237,29.5775806 L42.1746237,31.0524194 L46.1556989,31.0524194 L46.1556989,32.5620968 L40.4748387,32.5620968 L40.4748387,25.1762903 L46.1668817,25.1762903 L46.1333333,26.6743548 Z M50.7630108,32.5620968 L47.1956989,32.5620968 L47.1956989,31.0524194 L50.8412903,31.0524194 C51.0320242,31.0591627 51.2167566,30.9826249 51.3506372,30.8413882 C51.4845178,30.7001515 51.5553027,30.5071326 51.5458065,30.3091935 C51.5558719,30.1131632 51.4844839,29.9220656 51.3497487,29.7843692 C51.2150136,29.6466729 51.0298751,29.575606 50.8412903,29.5891935 L49.2086022,29.5891935 C48.6268023,29.6690937 48.0408565,29.4767693 47.6089641,29.0641459 C47.1770716,28.6515225 46.9437681,28.0611488 46.972043,27.4524194 C46.9691845,26.7962262 47.2337571,26.1693981 47.7003572,25.7268901 C48.1669572,25.2843822 48.7920376,25.067493 49.4210753,25.1298387 L53.0890323,25.1298387 L52.4627957,26.6279032 L49.3875269,26.6279032 C49.1976949,26.6208807 49.013892,26.6977448 48.881724,26.8394236 C48.749556,26.9811024 48.6814096,27.174318 48.6941935,27.371129 C48.6841065,27.5640833 48.75431,27.7522427 48.8869548,27.8877675 C49.0195996,28.0232923 49.2019076,28.093127 49.3875269,28.0795161 L51.0537634,28.0795161 C51.6307156,27.9839762 52.2183435,28.1643117 52.6526067,28.5701808 C53.08687,28.9760499 53.3212517,29.5639772 53.2903226,30.1698387 C53.3147524,30.8493182 53.0512302,31.5057889 52.5692792,31.9660587 C52.0873283,32.4263285 51.4353592,32.6441646 50.7853763,32.5620968 L50.7630108,32.5620968 Z M37.5673118,27.5685484 C37.5751586,27.8236554 37.4762717,28.0697982 37.2961629,28.2434745 C37.116054,28.4171509 36.8723621,28.501352 36.627957,28.4743548 L34.6374194,28.4743548 L34.6374194,26.651129 L36.627957,26.651129 C36.873503,26.6277343 37.1169255,26.7147774 37.2965458,26.8902033 C37.4761661,27.0656292 37.5747477,27.3126038 37.5673118,27.5685484 Z M29.3815054,26.7440323 C29.8632402,26.7440323 30.2537634,27.1495756 30.2537634,27.6498387 C30.2537634,28.1501018 29.8632402,28.5556452 29.3815054,28.5556452 L27.3350538,28.5556452 L27.3350538,26.7440323 L29.3815054,26.7440323 Z" id="Shape" fill="#FFFFFF" fill-rule="nonzero"></path>
                <path d="M28.764268,18.6547654 L29.9367246,20.1010997 L36.4243176,20.1010997 L36.4243176,19.372654 C36.5887554,19.4750507 36.7603671,19.5667578 36.9379653,19.6471408 C37.1158292,19.7245365 37.2985557,19.7915249 37.4851117,19.8477273 C37.711803,19.9153382 37.9431094,19.968247 38.1774194,20.006085 C38.5458352,20.069531 38.9195671,20.1013321 39.2940447,20.1010997 L43.1799007,20.1010997 L43.7493797,18.6758798 L44.866005,18.6758798 L45.4466501,20.1010997 L51.9565757,20.1010997 L51.9565757,18.6230938 L52.939206,20.1010997 L57.3945409,20.101101 L57.3945409,10.1456745 L52.5707196,10.1456745 L52.5707196,11.7398094 L51.4540943,10.1456745 L47.2890819,10.1456745 L47.2890819,12.1620968 L46.3511166,10.1456745 L39.3833747,10.1456745 C39.058026,10.1466721 38.7332427,10.1713787 38.4119107,10.2195748 C38.1473385,10.2576932 37.8860884,10.3141504 37.630273,10.3884897 C37.4321814,10.4471496 37.2382408,10.5176735 37.0496278,10.5996334 C36.8324062,10.6929958 36.6233199,10.8024267 36.4243176,10.9269062 L36.4243176,10.1456745 L13.7233251,10.1456745 L13.1091811,11.8770528 L12.483871,10.1456745 L7.191067,10.1456745 L7.191067,12.1832111 L6.24193548,10.1456745 L1.93176179,10.1456745 L0,14.4107771 L0,20.101101 L3.0483871,20.1010997 L3.617866,18.6758798 L4.73449132,18.6758798 L5.31513648,20.1010997 L28.764268,20.1010997 L28.764268,18.6547654 Z M48.8635236,11.7714809 L50.9516129,11.7714809 L53.5980149,15.6565249 L53.91067,16.1527126 L53.91067,15.6565249 L53.91067,11.7714809 L55.5744417,11.7714809 L55.5744417,18.4858504 L53.5980149,18.4858504 L50.8846154,14.463563 L50.5272953,13.9040323 L50.5272953,14.463563 L50.5272953,18.4858504 L48.8523573,18.4858504 L48.8635236,11.7714809 Z M45.4354839,11.7714809 L48.4615385,18.4858504 L46.5409429,18.4858504 L45.9379653,17.0500733 L42.5880893,17.0500733 L41.9851117,18.4858504 L40.1426799,18.4858504 L43.1799007,11.7714809 L45.4354839,11.7714809 Z M35.8436725,15.0653226 C35.7618316,14.1926423 36.0835314,13.3291892 36.7257995,12.6976646 C37.3680675,12.0661399 38.2680224,11.7283732 39.1935484,11.7714809 L41.2034739,11.7714809 L41.2034739,13.2178152 L39.3610422,13.2178152 C38.8426995,13.1928067 38.3390057,13.3848558 37.9840285,13.7428449 C37.6290514,14.100834 37.4588074,14.588441 37.5186104,15.0758798 L37.5186104,15.1708944 C37.451174,15.6636609 37.6196023,16.1591983 37.9780339,16.5225764 C38.3364654,16.8859546 38.8475809,17.0793391 39.3722084,17.0500733 L39.8858561,17.0500733 L39.1823821,18.4752933 L39.0818859,18.4752933 C38.1642,18.5141932 37.2743014,18.1722821 36.6454569,17.5391841 C36.0166124,16.9060862 35.7115276,16.0449312 35.8101737,15.1814516 L35.8436725,15.0653226 Z M33.0632754,15.48761 L33.0632754,11.7714809 L34.7717122,11.7714809 L34.7717122,18.4858504 L33.0521092,18.4858504 L33.0632754,15.48761 Z M6.43176179,18.4858504 L5.82878412,17.0500733 L2.47890819,17.0500733 L1.87593052,18.4858504 L0,18.4858504 L3.03722084,11.7714809 L5.27047146,11.7714809 L8.30769231,18.4858504 L6.43176179,18.4858504 Z M17.4416873,18.4858504 L15.7890819,18.4858504 L15.7890819,13.8829179 L15.7890819,12.119868 L13.8238213,18.4541789 L12.2828784,18.4541789 L10.3511166,12.0881965 L10.3511166,13.9040323 L10.3511166,18.4858504 L8.74317618,18.4858504 L8.74317618,11.7714809 L11.735732,11.7714809 L13.0980149,16.5222141 L14.4491315,11.7714809 L17.4528536,11.7714809 L17.4416873,18.4858504 Z M24.5657568,13.1333578 L20.5459057,13.1333578 L20.5459057,14.4424487 L24.4317618,14.4424487 L24.4317618,15.7832111 L20.5459057,15.7832111 L20.5459057,17.1134164 L24.5657568,17.1134164 L24.5657568,18.4858504 L18.837469,18.4858504 L18.837469,11.7714809 L24.5657568,11.7714809 L24.5657568,13.1333578 Z M27.5136476,16.0682551 L27.5136476,18.4858504 L25.7717122,18.4858504 L25.7717122,11.7714809 L29.6240695,11.7714809 C30.8574597,11.6344625 31.9748036,12.4687097 32.119727,13.6348241 C32.2646503,14.8009385 31.3822736,15.8573363 30.1488834,15.9943548 L32.516129,18.4647361 L30.3945409,18.4647361 L28.2729529,16.0471408 L27.5136476,16.0682551 Z M44.7543424,14.2735337 L45.3796526,15.7620968 L43.101737,15.7620968 L43.7158809,14.2735337 L44.2406948,13.0172287 L44.7543424,14.2735337 Z M4.13151365,13.0172287 L4.64516129,14.2735337 L5.27047146,15.7620968 L2.99255583,15.7620968 L3.60669975,14.2735337 L4.13151365,13.0172287 Z M30.4057072,13.9779326 C30.4131321,13.7452557 30.3146963,13.5207333 30.1353417,13.3612552 C29.9559871,13.2017771 29.7129247,13.122647 29.4677419,13.143915 L27.4689826,13.143915 L27.4689826,14.801393 L29.4677419,14.801393 C29.7117855,14.8259358 29.9551169,14.7493894 30.1349593,14.5915018 C30.3148017,14.4336142 30.4135424,14.209848 30.4057072,13.9779326 Z" id="Shape" fill="#FFFFFF" fill-rule="nonzero"></path>
                <path d="M3.75,0.5 C1.95507456,0.5 0.5,1.95507456 0.5,3.75 L0.5,41.25 C0.5,43.0449254 1.95507456,44.5 3.75,44.5 L56.25,44.5 C58.0449254,44.5 59.5,43.0449254 59.5,41.25 L59.5,3.75 C59.5,1.95507456 58.0449254,0.5 56.25,0.5 L3.75,0.5 Z" id="card" stroke="#DCDCDC" fill="#F7F7F7"></path>
                <path d="M37.0627845,16.9767926 C38.2701267,16.9767926 39.1777265,17.2949549 39.6834371,17.8977888 C40.1439352,18.4453628 40.311389,19.2273723 40.1439352,20.2237226 C39.7855839,22.5010949 38.4158115,23.6498283 36.041316,23.6498283 L34.9009553,23.6498283 C34.6520891,23.6466252 34.4383951,23.8261281 34.3985938,24.0718119 L33.9849828,26.6924646 C33.9585116,26.863319 33.8112459,26.9892419 33.6383534,26.9888579 L31.7963611,26.9888579 C31.7086147,26.9889576 31.625231,26.9506036 31.568206,26.8839134 C31.511181,26.8172232 31.486242,26.7288947 31.4999678,26.6422284 L32.9568162,17.3987763 C32.9966175,17.1530925 33.2103115,16.9735895 33.4591778,16.9767926 L37.0627845,16.9767926 Z M37.47807,20.3526621 L37.4797445,20.3526621 C37.5517497,19.8988622 37.4931408,19.5689781 37.3055925,19.347939 C36.9891048,18.977866 36.3745492,18.977866 35.7231537,18.977866 L35.4736475,18.977866 C35.3260762,18.9776983 35.2003379,19.0849666 35.1772542,19.2307213 L34.7954594,21.6470803 L35.3363353,21.6470803 C36.2924968,21.6470803 37.2804745,21.6470803 37.47807,20.3526621 Z M47.8384392,20.3107986 C47.9269298,20.3109445 48.0108338,20.350184 48.0676745,20.4180053 C48.1245153,20.4858267 48.1484833,20.5752982 48.133158,20.6624517 L47.2004401,26.5718978 C47.1606388,26.8175816 46.9469449,26.9970846 46.6980786,26.9938815 L45.1441069,26.9938815 C45.0590633,26.9901126 44.9796335,26.9503609 44.9256408,26.8845474 C44.8716481,26.8187338 44.848186,26.7330669 44.8611099,26.6489266 L44.9381387,26.168334 C44.3088099,26.8084614 43.4462028,27.1651105 42.5485723,27.1563117 C41.6493452,27.1563117 40.899152,26.8984328 40.3716724,26.2788536 C39.7973057,25.6040146 39.5611958,24.6311078 39.7286496,23.6263847 C40.0434629,21.6001932 41.6727888,20.1550666 43.580088,20.1550666 C44.4123336,20.1550666 45.2462538,20.3359167 45.6196758,20.8784672 L45.7402426,21.045921 L45.8155968,20.5636539 C45.8386805,20.4178992 45.9644189,20.3106309 46.1119901,20.3107986 L47.8384392,20.3107986 Z M45.4321275,23.6699227 L45.4321275,23.6715973 C45.5183921,23.2424486 45.4111879,22.7970915 45.1390833,22.4542078 C44.8453956,22.1330443 44.4232514,21.9603768 43.9886754,21.9836625 C43.0183426,21.9732203 42.1907518,22.6840169 42.0545835,23.6448046 C41.9425189,24.0696193 42.0458811,24.5223828 42.3311987,24.8564783 C42.6165163,25.1905739 43.04752,25.3635316 43.4846393,25.3193431 C44.4575046,25.3411282 45.2934768,24.6331036 45.4321275,23.6699227 Z M49.8730034,17.2313225 C49.8952472,17.0855279 50.0202426,16.9775773 50.1677222,16.9767926 L51.8422606,16.9767926 C51.930007,16.9766928 52.0133907,17.0150468 52.0704157,17.0817371 C52.1274407,17.1484273 52.1523797,17.2367558 52.1386539,17.3234221 L50.680131,26.5668742 C50.6403297,26.812558 50.4266357,26.9920609 50.1777694,26.9888579 L48.6891048,26.9888579 C48.6013584,26.9889576 48.5179747,26.9506036 48.4609497,26.8839134 C48.4039247,26.8172232 48.3789857,26.7288947 48.3927115,26.6422284 L49.8730034,17.2313225 Z" id="Combined-Shape" fill="#009BDE" fill-rule="nonzero"></path>
                <path d="M11.353596,16.9767926 C12.5592636,16.9767926 13.468538,17.2949549 13.9943431,17.9044869 C14.4548411,18.452061 14.622295,19.2340704 14.4548411,20.2304208 C14.0964899,22.507793 12.7267175,23.6565264 10.352222,23.6565264 L9.21186131,23.6565264 C8.96299504,23.6533233 8.74930108,23.8328263 8.70949979,24.0785101 L8.31598325,26.5718978 C8.27618196,26.8175816 8.062488,26.9970846 7.81362173,26.9938815 L6.09219622,26.9938815 C6.00282995,26.9952338 5.91752216,26.9566357 5.85954364,26.8886162 C5.80156512,26.8205967 5.776965,26.7302526 5.79245384,26.6422284 L7.2459532,17.3987763 C7.28575449,17.1530925 7.49944845,16.9735895 7.74831473,16.9767926 L11.353596,16.9767926 Z M11.7688815,20.3526621 C11.8408866,19.8988622 11.7839523,19.5689781 11.5947295,19.347939 C11.2782417,18.977866 10.6636861,18.977866 10.0122907,18.977866 L9.76278446,18.977866 C9.61521322,18.9776983 9.48947484,19.0849666 9.46639116,19.2307213 L9.08459639,21.6470803 L9.62714684,21.6470803 C10.5833083,21.6470803 11.571286,21.6470803 11.7688815,20.3526621 Z M22.1275762,20.3107986 C22.2178112,20.3079132 22.3045403,20.345853 22.3636681,20.4140774 C22.422796,20.4823019 22.4480236,20.5735429 22.4323422,20.6624517 L21.4996243,26.5718978 C21.459823,26.8175816 21.2461291,26.9970846 20.9972628,26.9938815 L19.4416166,26.9938815 C19.3517775,26.9945137 19.2663922,26.954815 19.208973,26.8857174 C19.1515538,26.8166197 19.1281562,26.7254101 19.1452233,26.6372048 L19.222252,26.1566123 C18.5955833,26.8012416 17.7333805,27.1628105 16.8343602,27.1579863 C15.9351331,27.1579863 15.1849399,26.9001073 14.6574603,26.2805281 C14.0830936,25.6056891 13.8469837,24.6327823 14.0144375,23.6280593 C14.3292508,21.6018678 15.9585766,20.1567411 17.8658759,20.1567411 C18.6981215,20.1567411 19.5320416,20.3375912 19.9054637,20.8801417 L20.0260305,21.0475955 L20.1047338,20.5636539 C20.1278175,20.4178992 20.2535559,20.3106309 20.4011271,20.3107986 L22.1275762,20.3107986 Z M19.7212645,23.6715973 C19.8070634,23.2422008 19.69924,22.7968163 19.4265457,22.4542078 C19.132858,22.1330443 18.7107138,21.9603768 18.2761378,21.9836625 C17.305805,21.9732203 16.4782142,22.6840169 16.3420459,23.6448046 C16.2298377,24.0699307 16.3333878,24.5230548 16.6191179,24.8572421 C16.904848,25.1914293 17.3363784,25.3641303 17.7737763,25.3193431 C18.7460879,25.3412377 19.5818486,24.6341108 19.7212645,23.6715973 Z M31.3207922,20.3107986 C31.4317717,20.3120231 31.5330997,20.3741372 31.5845458,20.4724797 C31.6359919,20.5708222 31.6292317,20.6894807 31.5669493,20.7813439 L25.7964899,29.1088235 C25.7027908,29.2438896 25.548938,29.3245685 25.3845535,29.324839 L23.6530807,29.324839 C23.5407224,29.3250349 23.4376904,29.2623771 23.386176,29.1625238 C23.3346615,29.0626705 23.3433171,28.942393 23.4085981,28.8509446 L25.2053778,26.3240661 L23.2947295,20.6992915 C23.2641082,20.6075719 23.2793501,20.5067296 23.3357103,20.4281569 C23.3920705,20.3495841 23.4827056,20.3028214 23.579401,20.3024259 L25.2840812,20.3024259 C25.5053466,20.3025056 25.7005067,20.4473456 25.7646737,20.6591026 L26.779444,24.0466939 L29.1723594,20.5301632 C29.2656466,20.3933392 29.4203712,20.3112787 29.5859704,20.3107986 L31.3207922,20.3107986 Z" id="Combined-Shape" fill="#002F87" fill-rule="nonzero"></path>
            </g>
        </g>
    </g>
</svg>