<?xml version="1.0" encoding="UTF-8"?>
<svg width="80px" height="80px" viewBox="0 0 80 80" version="1.1" xmlns="http://www.w3.org/2000/svg" xmlns:xlink="http://www.w3.org/1999/xlink">
    <!-- Generator: Sketch 50.2 (55047) - http://www.bohemiancoding.com/sketch -->
    <title>ic-payments-slice-xs copy</title>
    <desc>Created with Sketch.</desc>
    <defs></defs>
    <g id="ic-payments-slice-xs-copy" stroke="none" stroke-width="1" fill="none" fill-rule="evenodd">
        <g id="icons/payments/ic-payments-slice-xs-copy" transform="translate(10.000000, 18.000000)">
            <g id="-g-">
                <path d="M3.75,0 L56.25,0 C58.3210678,-3.80448985e-16 60,1.67893219 60,3.75 L60,41.25 C60,43.3210678 58.3210678,45 56.25,45 L3.75,45 C1.67893219,45 2.53632657e-16,43.3210678 0,41.25 L0,3.75 C-2.53632657e-16,1.67893219 1.67893219,3.80448985e-16 3.75,0 Z" id="card" fill="#EB6F93"></path>
                <path d="M11.685,30 C13.815,30 15.325,31.48 15.325,33.5 C15.325,35.51 13.815,37 11.685,37 L9.375,37 L9.375,30 L11.685,30 Z M11.685,35.64 C13.005,35.64 13.845,34.76 13.845,33.5 C13.845,32.24 13.005,31.36 11.685,31.36 L10.815,31.36 L10.815,35.64 L11.685,35.64 Z M20.6116667,34.54 C20.6116667,34.65 20.6116667,34.73 20.5916667,34.88 C19.2916667,34.89 18.0516667,35.04 17.1916667,35.28 C17.4116667,35.67 17.8116667,35.91 18.3416667,35.91 C18.8216667,35.91 19.2916667,35.71 19.6316667,35.37 L20.3416667,36.3 C19.8516667,36.83 19.1216667,37.13 18.3416667,37.13 C16.8416667,37.13 15.7216667,36.03 15.7216667,34.57 C15.7216667,33.13 16.8116667,32.03 18.2516667,32.03 C19.6416667,32.03 20.6016667,33.04 20.6116667,34.54 Z M18.2116667,33.25 C17.5916667,33.25 17.1516667,33.67 17.0516667,34.3 C17.7116667,34.11 18.4816667,33.99 19.2316667,33.96 C19.1016667,33.52 18.7216667,33.25 18.2116667,33.25 Z M21.3683333,37 L22.7483333,37 L22.7483333,30 L21.3683333,30 L21.3683333,37 Z M27.4249999,32.16 L28.7449999,32.16 L28.7449999,37 L27.4249999,37 L27.4249999,36.53 C27.0749999,36.9 26.5949999,37.1 25.9949999,37.1 C24.5949999,37.1 23.4849999,35.98 23.4849999,34.58 C23.4849999,33.18 24.5949999,32.06 25.9949999,32.06 C26.5949999,32.06 27.0749999,32.26 27.4249999,32.63 L27.4249999,32.16 Z M26.1349999,35.83 C26.8549999,35.83 27.4249999,35.28 27.4249999,34.58 C27.4249999,33.88 26.8549999,33.33 26.1349999,33.33 C25.4149999,33.33 24.8449999,33.88 24.8449999,34.58 C24.8449999,35.28 25.4149999,35.83 26.1349999,35.83 Z M35.4183333,32.16 L35.4183333,34.75 C35.4183333,35.43 35.0083332,35.87 34.3683333,35.87 C33.7283333,35.87 33.3183333,35.43 33.3183333,34.75 L33.3183333,32.16 L31.9583333,32.16 L31.9583333,35 C31.9583333,36.27 32.8283333,37.11 34.0483332,37.11 C34.6583332,37.11 35.1283332,36.9 35.4583333,36.52 L35.4583333,37 L36.7783333,37 L36.7783333,32.16 L35.4183333,32.16 Z M40.6549999,32.06 C42.0549999,32.06 43.1649999,33.18 43.1649999,34.58 C43.1649999,35.98 42.0549999,37.1 40.6549999,37.1 C40.0849999,37.1 39.6149999,36.92 39.2649999,36.57 L39.2649999,38.7 L37.9049999,38.7 L37.9049999,32.16 L39.2249999,32.16 L39.2249999,32.63 C39.5749999,32.26 40.0549999,32.06 40.6549999,32.06 Z M40.5149999,35.83 C41.2349999,35.83 41.8049999,35.28 41.8049999,34.58 C41.8049999,33.88 41.2349999,33.33 40.5149999,33.33 C39.7949999,33.33 39.2249999,33.88 39.2249999,34.58 C39.2249999,35.28 39.7949999,35.83 40.5149999,35.83 Z M46.6516666,32.06 C48.0516666,32.06 49.1616666,33.18 49.1616666,34.58 C49.1616666,35.98 48.0516666,37.1 46.6516666,37.1 C46.0816666,37.1 45.6116666,36.92 45.2616666,36.57 L45.2616666,38.7 L43.9016666,38.7 L43.9016666,32.16 L45.2216666,32.16 L45.2216666,32.63 C45.5716666,32.26 46.0516666,32.06 46.6516666,32.06 Z M46.5116666,35.83 C47.2316666,35.83 47.8016666,35.28 47.8016666,34.58 C47.8016666,33.88 47.2316666,33.33 46.5116666,33.33 C45.7916666,33.33 45.2216666,33.88 45.2216666,34.58 C45.2216666,35.28 45.7916666,35.83 46.5116666,35.83 Z M50.4783332,37.08 C50.9783332,37.08 51.3883332,36.67 51.3883332,36.17 C51.3883332,35.67 50.9783332,35.26 50.4783332,35.26 C49.9783332,35.26 49.5683332,35.67 49.5683332,36.17 C49.5683332,36.67 49.9783332,37.08 50.4783332,37.08 Z" id="name-delar" fill="#FFFFFF"></path>
                <path d="M27.0525239,22.4185276 C27.8651842,20.8507784 29.5833945,19.9264007 31.3791711,20.122217 C33.2753257,20.3289787 34.8101734,21.7358367 35.1569807,23.5848745 C35.1698415,23.6533081 35.1810139,23.7220247 35.1904902,23.7909635 L40.1934003,24.6346845 L29.2249849,9.32966695 C29.1503995,9.40711733 29.0664053,9.49822934 28.9595332,9.61679091 C28.9165922,9.6644287 28.7587041,9.84058321 28.762644,9.83619474 C28.6805419,9.92764251 28.6170384,9.99776706 28.5538174,10.0665152 C27.6902504,11.0055805 27.0384599,11.4693129 26.2318292,11.4809625 C24.5738948,11.5080005 23.8469308,12.4532489 23.8927415,13.8621746 C23.8963805,13.9713815 23.9034689,14.0680955 23.9171237,14.2136123 C23.9458182,14.519406 23.9501919,14.5801666 23.9468025,14.7232783 C23.9292646,15.4637851 23.500101,16.1332675 22.0370487,17.6913796 C20.7795052,19.0318968 20.6877287,20.4938295 21.294068,21.4473868 L27.0525239,22.4185276 Z M27.9645544,22.572338 L34.2782405,23.6371162 C33.9644211,22.2123204 32.7613427,21.1378074 31.283289,20.9766365 C29.9428267,20.830469 28.6564974,21.4660772 27.9645544,22.572338 Z M20.2476405,21.2709109 C19.8166674,20.051707 20.1010644,18.4889561 21.3969222,17.1075967 C22.7194632,15.6991252 23.0641251,15.1614631 23.0749781,14.7032147 C23.0772402,14.6077002 23.0736879,14.5583501 23.0487686,14.2927891 C23.0336578,14.1317551 23.0254693,14.0200328 23.0211383,13.890054 C22.9609423,12.0387099 24.0234004,10.6572292 26.2182284,10.6214361 C26.6995898,10.6144837 27.2007922,10.2578909 27.9077095,9.48917062 C27.9682032,9.42338821 28.0295973,9.35559292 28.1095992,9.26648448 C28.1049188,9.27169768 28.263734,9.09450889 28.3076385,9.04580214 C28.4687526,8.86706574 28.5835308,8.74424013 28.695387,8.63335893 C28.7013595,8.62743857 28.7074633,8.6217255 28.7136895,8.61621976 L27.3094553,6.65679098 C22.5443364,10.1003626 19.283215,15.2002681 18.1867461,20.9233493 L20.2476405,21.2709109 Z M17.2501545,21.2020869 C18.3274169,14.9408141 21.8947265,9.36211412 27.1607363,5.70352669 C27.357421,5.56687897 27.629222,5.61312151 27.7680607,5.80685308 L41.512249,24.9851059 C41.736275,25.2977056 41.4652976,25.7213062 41.0825893,25.656764 L17.6065167,21.6976171 C17.3693945,21.6576274 17.2099288,21.4358866 17.2501545,21.2020869 Z M26.2461541,19.1448357 C26.4825695,19.1899949 26.637084,19.4155245 26.5912717,19.6485699 C26.5454594,19.8816154 26.3166687,20.0339274 26.0802532,19.9887681 C25.1168302,19.8047386 24.1224036,20.0885648 23.4077722,20.7515395 C23.2324079,20.9142277 22.9564553,20.9059781 22.7914146,20.7331136 C22.6263739,20.5602491 22.6347428,20.2882299 22.810107,20.1255418 C23.7289188,19.2731457 25.0074673,18.9082262 26.2461541,19.1448357 Z M32.2355065,17.6870488 C32.158099,17.4622662 32.2802053,17.2181872 32.5082384,17.1418831 C32.7362715,17.065579 32.9838801,17.1859447 33.0612876,17.4107274 C33.3769892,18.3274899 34.1209357,19.0384899 35.0602747,19.3211873 C35.290593,19.3905024 35.4202993,19.6307417 35.3499819,19.8577769 C35.2796644,20.0848121 35.0359511,20.2126695 34.8056328,20.1433545 C33.5979113,19.7798864 32.6414087,18.8657435 32.2355065,17.6870488 Z M28.4001654,18.542207 C26.6534212,18.542207 25.2374053,17.1463755 25.2374053,15.4245302 C25.2374053,13.7026848 26.6534212,12.3068533 28.4001654,12.3068533 C30.1469095,12.3068533 31.5629254,13.7026848 31.5629254,15.4245302 C31.5629254,17.1463755 30.1469095,18.542207 28.4001654,18.542207 Z M28.4001654,17.6825757 C29.665283,17.6825757 30.6908634,16.6716143 30.6908634,15.4245302 C30.6908634,14.1774461 29.665283,13.1664846 28.4001654,13.1664846 C27.1350478,13.1664846 26.1094674,14.1774461 26.1094674,15.4245302 C26.1094674,16.6716143 27.1350478,17.6825757 28.4001654,17.6825757 Z" id="pizza" fill="#FFFFFF" fill-rule="nonzero"></path>
            </g>
        </g>
    </g>
</svg>