<?xml version="1.0" encoding="UTF-8"?>
<svg width="80px" height="80px" viewBox="0 0 80 80" version="1.1" xmlns="http://www.w3.org/2000/svg" xmlns:xlink="http://www.w3.org/1999/xlink">
    <!-- Generator: Sketch 50.2 (55047) - http://www.bohemiancoding.com/sketch -->
    <title>ic-payments-Molpay-xs</title>
    <desc>Created with Sketch.</desc>
    <defs></defs>
    <g id="ic-payments-Molpay-xs" stroke="none" stroke-width="1" fill="none" fill-rule="evenodd">
        <g id="icons/payments/ic-payments-Molpay-xs" transform="translate(10.000000, 18.000000)">
            <g id="-g-">
                <path d="M3.75,0.5 C1.95507456,0.5 0.5,1.95507456 0.5,3.75 L0.5,41.25 C0.5,43.0449254 1.95507456,44.5 3.75,44.5 L56.25,44.5 C58.0449254,44.5 59.5,43.0449254 59.5,41.25 L59.5,3.75 C59.5,1.95507456 58.0449254,0.5 56.25,0.5 L3.75,0.5 Z" id="card" stroke="#DCDCDC" fill="#F7F7F7"></path>
                <path d="M44.1552025,26.9001746 L44.38125,26.9001746 L44.8142807,28.4089735 L45.3072277,26.9001746 L45.5428073,26.9001746 L46.0412011,28.4089735 L46.4687849,26.9001746 L46.7670042,26.9001746 L46.1732891,28.7807263 L45.9186453,28.7807263 L45.4243366,27.319588 L44.9354749,28.7807263 L44.6794693,28.7807263 L44.1164425,27.0055208 L43.2959497,29.2355447 C43.2685952,29.3191881 43.2219477,29.3952235 43.1597765,29.457507 C43.0584718,29.5463992 42.9267566,29.5927434 42.7921089,29.5868715 L42.6736383,29.5868715 L42.6736383,29.3417598 L42.7567039,29.3417598 C42.9487081,29.3417598 43.0059008,29.2818436 43.0671788,29.1089036 L43.203352,28.7425978 L42.522486,26.9001746 L42.822067,26.9001746 L43.3449721,28.4089735 L43.8569832,26.9001746 L44.1552025,26.9001746 Z M20.617669,26.9901369 L19.8019902,29.2355447 C19.7747293,29.3192314 19.7280692,29.3952874 19.665817,29.457507 C19.5644401,29.5462756 19.4327761,29.5926018 19.2981494,29.5868715 L19.1796788,29.5868715 L19.1796788,29.3417598 L19.2641061,29.3417598 C19.4547486,29.3417598 19.5119413,29.2818436 19.5718575,29.1089036 L19.7080307,28.7425978 L19.0963694,27.0874421 L18.9304818,27.2555866 C18.8491738,27.1619193 18.7288135,27.1115593 18.6050279,27.1194134 C18.3326816,27.1194134 18.1542947,27.3372905 18.1542947,27.6232542 L18.1542947,28.7780028 L17.8805866,28.7780028 L17.8805866,26.9001746 L18.152933,26.9001746 L18.152933,27.1289455 C18.2770602,26.9641269 18.473707,26.8701226 18.6799232,26.8770251 C18.8173206,26.8686828 18.9520758,26.9097127 19.0607172,26.9909673 L19.0271648,26.9001746 L19.3240223,26.9001746 L19.8414804,28.4089735 L20.3534916,26.9001746 L20.6503492,26.9001746 L20.8886522,26.9001746 L21.3189595,28.4089735 L21.8132682,26.9001746 L22.0488478,26.9001746 L22.5445182,28.4089735 L22.9734637,26.9001746 L23.271683,26.9001746 L22.6793296,28.7807263 L22.423324,28.7807263 L21.9303771,27.319588 L21.4415154,28.7807263 L21.1868715,28.7807263 L20.617669,26.9901369 Z M9.19001397,28.7807263 L9.19001397,28.5710196 C9.05605657,28.7224572 8.86244955,28.8075646 8.66030028,28.8038757 C8.48128046,28.8127068 8.30618663,28.7494376 8.17416201,28.6282123 C8.04028139,28.4865885 7.97123422,28.2957224 7.98351955,28.1012221 L7.98351955,26.9001746 L8.25586592,26.9001746 L8.25586592,28.0576466 C8.25586592,28.3899092 8.4301676,28.5574022 8.71340782,28.5574022 C8.99664804,28.5574022 9.18184358,28.385824 9.18184358,28.0576466 L9.18184358,26.9001746 L9.45418994,26.9001746 L9.45418994,28.7793645 L9.19001397,28.7807263 Z M10.4618715,29.2355447 C10.4345637,29.3192097 10.3879099,29.3952553 10.3256983,29.457507 C10.2243213,29.5462756 10.0926573,29.5926018 9.95803073,29.5868715 L9.84636872,29.5868715 L9.84636872,29.3417598 L9.93079609,29.3417598 C10.1228003,29.3417598 10.179993,29.2818436 10.2426327,29.1089036 L10.3788059,28.7425978 L9.69793994,26.9001746 L9.99752095,26.9001746 L10.5122556,28.4089735 L11.0242668,26.9001746 L11.3170391,26.9001746 L10.4618715,29.2355447 Z M12.3996159,28.7807263 L12.3996159,26.059986 L14.0895251,26.059986 L14.0895251,26.3200768 L12.6896648,26.3200768 L12.6896648,27.278736 L13.8825419,27.278736 L13.8825419,27.5388268 L12.6896648,27.5388268 L12.6896648,28.5206355 L14.0895251,28.5206355 L14.0895251,28.7807263 L12.3996159,28.7807263 Z M15.1203561,28.7807263 L14.8752444,28.7807263 L14.1862081,26.9001746 L14.4844274,26.9001746 L14.9978003,28.4089735 L15.5125349,26.9001746 L15.8121159,26.9001746 L15.1203561,28.7807263 Z M24.7083101,28.7807263 L24.7083101,27.6178073 C24.7083101,27.2896299 24.5312849,27.1221369 24.2507682,27.1221369 C23.9702514,27.1221369 23.7796089,27.2937151 23.7796089,27.6178073 L23.7796089,28.7793645 L23.5072626,28.7793645 L23.5072626,26.0559008 L23.7796089,26.0559008 L23.7796089,27.1030726 C23.9115083,26.9507188 24.105197,26.8661364 24.3065992,26.8729399 C24.7314595,26.8729399 24.9874651,27.1452863 24.9874651,27.5687849 L24.9874651,28.7766411 L24.7083101,28.7807263 Z M28.4231145,27.2555866 C28.3411793,27.1603651 28.218828,27.1098067 28.0935754,27.1194134 C27.8212291,27.1194134 27.6428422,27.3372905 27.6428422,27.6232542 L27.6428422,28.7780028 L27.3704958,28.7780028 L27.3704958,26.9001746 L27.6428422,26.9001746 L27.6428422,27.1289455 C27.7666669,26.9637575 27.9635187,26.8696552 28.1698324,26.8770251 C28.3384593,26.8673348 28.5029663,26.9314478 28.6205656,27.0526885 L28.4231145,27.2555866 Z M36.7650838,29.2355447 C36.7383063,29.3194537 36.69158,29.3956175 36.6289106,29.457507 C36.5284413,29.5459827 36.3977289,29.5923173 36.2639665,29.5868715 L36.1441341,29.5868715 L36.1441341,29.3417598 L36.2285615,29.3417598 C36.4192039,29.3417598 36.4763966,29.2818436 36.5376746,29.1089036 L36.6738478,28.7425978 L35.9929818,26.9001746 L36.2898394,26.9001746 L36.8086592,28.4089735 L37.3206704,26.9001746 L37.6256983,26.9001746 L36.7650838,29.2355447 Z M42.0377095,28.7807263 L42.0377095,27.6232542 C42.0377095,27.2896299 41.8579609,27.1221369 41.5774441,27.1221369 C41.2969274,27.1221369 41.1103701,27.2937151 41.1103701,27.6232542 L41.1103701,28.7807263 L40.8380237,28.7807263 L40.8380237,26.9001746 L41.1103701,26.9001746 L41.1103701,27.1071578 C41.2437397,26.95602 41.4372222,26.8717454 41.6387221,26.8770251 C41.816097,26.8682825 41.9894694,26.9316395 42.1194134,27.0526885 C42.2541391,27.1923745 42.3246842,27.3818101 42.3141411,27.5755936 L42.3141411,28.7793645 L42.0377095,28.7807263 Z M48.2022696,28.7807263 L48.2022696,27.6178073 C48.2022696,27.2896299 48.0266061,27.1221369 47.7447277,27.1221369 C47.4628492,27.1221369 47.2749302,27.2937151 47.2749302,27.6178073 L47.2749302,28.7793645 L47.0025838,28.7793645 L47.0025838,26.0559008 L47.2749302,26.0559008 L47.2749302,27.1030726 C47.4069486,26.9508806 47.600556,26.8663337 47.8019204,26.8729399 C48.225419,26.8729399 48.4827863,27.1452863 48.4827863,27.5687849 L48.4827863,28.7766411 L48.2022696,28.7807263 Z M51.9238827,27.2555866 C51.8428301,27.1615666 51.7222862,27.1111298 51.5984288,27.1194134 C51.3260824,27.1194134 51.1490573,27.3372905 51.1490573,27.6232542 L51.1490573,28.7780028 L50.8767109,28.7780028 L50.8767109,26.9001746 L51.1490573,26.9001746 L51.1490573,27.1289455 C51.2722986,26.9637897 51.4687481,26.8696364 51.6746858,26.8770251 C51.8433127,26.8673348 52.0078196,26.9314478 52.125419,27.0526885 L51.9238827,27.2555866 Z" id="Combined-Shape" fill="#868686" fill-rule="nonzero"></path>
                <path d="M16.1784218,27.9133031 C16.1784218,28.3218226 16.3745112,28.5628492 16.7326466,28.5628492 C16.9216368,28.5694378 17.1032483,28.4891675 17.2255936,28.3449721 L17.4121508,28.5083799 C17.2409717,28.7035232 16.9906398,28.8106653 16.7312849,28.7997905 C16.2342528,28.7997905 15.9142458,28.5015712 15.9142458,27.8356844 C15.9142458,27.228352 16.2070182,26.8729399 16.684986,26.8729399 C17.1629539,26.8729399 17.4557263,27.2242668 17.4557263,27.7825768 L17.4557263,27.9092179 L16.1784218,27.9133031 Z M17.1152933,27.3917598 C17.0367272,27.2194746 16.8648075,27.1089221 16.6754539,27.1089221 C16.4861003,27.1089221 16.3141806,27.2194746 16.2356145,27.3917598 C16.1961924,27.4918724 16.1767623,27.5987378 16.1784218,27.7063198 L17.172486,27.7063198 C17.1749129,27.5986759 17.1554555,27.4916602 17.1152933,27.3917598 Z M25.6724162,27.9133031 C25.6724162,28.3218226 25.8671439,28.5628492 26.2266411,28.5628492 C26.415514,28.5688331 26.5968744,28.4886738 26.719588,28.3449721 L26.907507,28.5083799 C26.7340288,28.7051542 26.4804942,28.8123803 26.2184707,28.7997905 C25.7214385,28.7997905 25.4014316,28.5015712 25.4014316,27.8356844 C25.4014316,27.228352 25.6955656,26.8729399 26.1748953,26.8729399 C26.6542249,26.8729399 26.9469972,27.2242668 26.9469972,27.7825768 L26.9469972,27.9092179 L25.6724162,27.9133031 Z M26.607926,27.3917598 C26.5293599,27.2194746 26.3574402,27.1089221 26.1680866,27.1089221 C25.978733,27.1089221 25.8068133,27.2194746 25.7282472,27.3917598 C25.6884031,27.4917151 25.6694042,27.598758 25.6724162,27.7063198 L26.6651187,27.7063198 C26.6676428,27.5987947 26.648661,27.4918486 26.6092877,27.3917598 L26.607926,27.3917598 Z M28.8697626,27.9133031 C28.8697626,28.3218226 29.065852,28.5628492 29.4253492,28.5628492 C29.6141832,28.5686336 29.7954612,28.4885108 29.9182961,28.3449721 L30.1048534,28.5083799 C29.931798,28.704937 29.6787697,28.8121608 29.4171788,28.7997905 C28.9201466,28.7997905 28.6001397,28.5015712 28.6001397,27.8356844 C28.6001397,27.228352 28.8956355,26.8729399 29.3722416,26.8729399 C29.8488478,26.8729399 30.1361732,27.228352 30.1361732,27.786662 L30.1361732,27.9133031 L28.8697626,27.9133031 Z M29.8052723,27.3917598 C29.7268667,27.2201054 29.5555079,27.1099878 29.3667947,27.1099878 C29.1780815,27.1099878 29.0067227,27.2201054 28.928317,27.3917598 C28.888013,27.4916579 28.8681041,27.5986105 28.8697626,27.7063198 L29.8638268,27.7063198 C29.8656983,27.5984619 29.8453012,27.4913773 29.8039106,27.3917598 L29.8052723,27.3917598 Z M33.2872207,27.6641061 L32.5668645,27.6641061 L32.5668645,28.7834497 L32.2754539,28.7834497 L32.2754539,26.059986 L33.2872207,26.059986 C33.7856145,26.059986 34.1287709,26.3677374 34.1287709,26.8593226 C34.1287709,27.3509078 33.7856145,27.6641061 33.2872207,27.6641061 Z M33.2613478,26.3228003 L32.5668645,26.3228003 L32.5668645,27.4040154 L33.2613478,27.4040154 C33.6031425,27.4040154 33.8400838,27.2201816 33.8400838,26.8593226 C33.8400838,26.4984637 33.6031425,26.3146299 33.2613478,26.3146299 L33.2613478,26.3228003 Z M35.5082053,28.7807263 L35.5082053,28.6009777 C35.3674155,28.7486411 35.166597,28.823446 34.9635126,28.8038757 C34.7034218,28.8038757 34.554993,28.7534916 34.4324372,28.6322975 C34.3397425,28.5274196 34.2909794,28.390883 34.296264,28.2510126 C34.296264,27.9214735 34.5263966,27.7063198 34.9471718,27.7063198 L35.5122905,27.7063198 L35.5122905,27.527933 C35.5122905,27.2555866 35.3761173,27.1194134 35.0302374,27.1194134 C34.8449413,27.095364 34.6619754,27.1781468 34.5577165,27.3332053 L34.3697975,27.1616271 C34.5386522,26.9423883 34.7292947,26.8824721 35.0343226,26.8824721 C35.5408869,26.8824721 35.7873603,27.1017109 35.7873603,27.5088687 L35.7873603,28.7861732 L35.5082053,28.7807263 Z M35.5082053,27.9133031 L34.9812151,27.9133031 C34.6979749,27.9133031 34.5604399,28.0276885 34.5604399,28.2455656 C34.5604399,28.4634427 34.6966131,28.5669344 34.9934707,28.5669344 C35.1448382,28.5852845 35.2969672,28.5393494 35.4128841,28.4402933 C35.4870837,28.3495484 35.5214603,28.232668 35.5082053,28.1162011 L35.5082053,27.9133031 Z M40.2892458,28.7807263 L40.0768156,28.1652235 L38.8880237,28.1652235 L38.6701466,28.7807263 L38.3623953,28.7807263 L39.3632682,26.0572626 L39.6070182,26.0572626 L40.6051676,28.7807263 L40.2892458,28.7807263 Z M39.4831006,26.476676 L38.9724511,27.9146648 L39.9883031,27.9146648 L39.4831006,26.476676 Z M49.1663757,27.9133031 C49.1663757,28.3218226 49.3611034,28.5628492 49.7206006,28.5628492 C49.9091194,28.569017 50.0901408,28.4887859 50.2121858,28.3449721 L50.4001047,28.5083799 C50.2265075,28.704989 49.9730563,28.8121798 49.7110684,28.7997905 C49.2140363,28.7997905 48.8940293,28.5015712 48.8940293,27.8356844 C48.8940293,27.228352 49.1868017,26.8729399 49.6647696,26.8729399 C50.1427374,26.8729399 50.4368715,27.2242668 50.4368715,27.7825768 L50.4368715,27.9092179 L49.1663757,27.9133031 Z M50.1018855,27.3917598 C50.0238204,27.2192961 49.8520359,27.1084904 49.662727,27.1084904 C49.473418,27.1084904 49.3016335,27.2192961 49.2235684,27.3917598 C49.1823389,27.4913858 49.1623941,27.5985314 49.165014,27.7063198 L50.1536313,27.7063198 C50.1556641,27.5985792 50.1357413,27.4915525 50.0950768,27.3917598 L50.1018855,27.3917598 Z M52.3664455,27.9133031 C52.3664455,28.3218226 52.5598115,28.5628492 52.9193087,28.5628492 C53.1082206,28.5690336 53.2896641,28.4888376 53.4122556,28.3449721 L53.5988128,28.5083799 C53.4256384,28.7047718 53.1726934,28.8119604 52.9111383,28.7997905 C52.4154679,28.7997905 52.0940992,28.5015712 52.0940992,27.8356844 C52.0940992,27.228352 52.3868715,26.8729399 52.8648394,26.8729399 C53.3428073,26.8729399 53.6369413,27.2242668 53.6369413,27.7825768 L53.6369413,27.9092179 L52.3664455,27.9133031 Z M53.3005936,27.3917598 C53.2225285,27.2192961 53.050744,27.1084904 52.8614351,27.1084904 C52.6721261,27.1084904 52.5003416,27.2192961 52.4222765,27.3917598 C52.3812387,27.4914054 52.3617477,27.5986062 52.3650838,27.7063198 L53.3577863,27.7063198 C53.3609588,27.5986184 53.3414739,27.4914516 53.3005936,27.3917598 Z M6.71438547,28.7807263 L5.65087291,28.7807263 L5.65087291,26.0572626 L6.67625698,26.0572626 C7.14877793,26.0572626 7.47695531,26.3296089 7.47695531,26.7830656 C7.4833045,27.0466067 7.32291444,27.2855552 7.07660615,27.3795042 C7.35078996,27.4737083 7.5306906,27.73664 7.51916899,28.0263268 C7.51916899,28.5192737 7.19099162,28.7780028 6.70893855,28.7780028 L6.71438547,28.7807263 Z M6.65174581,26.3200768 L5.94092179,26.3200768 L5.94092179,27.263757 L6.65174581,27.263757 C6.95405028,27.263757 7.18690642,27.1153282 7.18690642,26.7898743 C7.18690642,26.4644204 6.95405028,26.3200768 6.65174581,26.3200768 Z M6.68306564,27.527933 L5.94092179,27.527933 L5.94092179,28.5260824 L6.68306564,28.5260824 C7.01941341,28.5260824 7.22775838,28.3313547 7.22775838,28.0263268 C7.22775838,27.7212989 7.01941341,27.527933 6.68306564,27.527933 Z" id="Combined-Shape" fill="#868686" fill-rule="nonzero"></path>
                <polygon id="Shape" fill="#868686" fill-rule="nonzero" points="30.5623953 29.3308659 30.5623953 28.4430168 31.0623953 28.4430168 31.0623953 29.0285615"></polygon>
                <path d="M34.9090433,19.6012919 L34.9090433,22.8599162 L33.5541201,22.8599162 L33.5541201,15.1361732 L38.0709846,15.1361732 C38.9806215,15.1361732 39.7050628,15.3390712 40.2429469,15.7448673 C40.7583538,16.0998645 41.0619628,16.6891932 41.0518156,17.3149441 C41.0617784,17.905691 40.8130561,18.4712855 40.3709497,18.8632332 C39.8389665,19.357088 39.0714036,19.6044693 38.0682612,19.6053771 L34.9090433,19.6012919 Z M34.9090433,16.0294693 L34.9090433,18.7066341 L37.6107193,18.7066341 C38.9724511,18.7066341 39.653317,18.2440992 39.653317,17.3190293 C39.653317,16.4584148 38.9901536,16.0281075 37.6638268,16.0281075 L34.9090433,16.0294693 Z M42.4707402,18.9490223 L41.3405028,18.9490223 C41.3936103,17.7003142 42.3944832,17.0766411 44.3540154,17.0766411 C44.889803,17.0660312 45.4234934,17.1466143 45.9322626,17.3149441 C46.6934707,17.5872905 47.0720321,18.0244064 47.0720321,18.6439944 L47.0720321,21.901257 C47.0720321,22.1232193 47.2082053,22.2348813 47.4696578,22.2348813 C47.6075976,22.2269699 47.7444272,22.2055332 47.8781774,22.1708799 L47.8781774,22.8599162 C47.6585872,22.91152 47.4356105,22.9474693 47.2109288,22.967493 C46.7138966,22.967493 46.3680168,22.876257 46.1692039,22.6951466 C46.0046983,22.5418915 45.9106158,22.3276198 45.9091131,22.1027933 C45.1661881,22.7153364 44.227212,23.039288 43.2646299,23.0151536 C42.583764,23.0151536 42.0390712,22.8640014 41.6142109,22.5644204 C41.2157914,22.311655 40.9751225,21.8719714 40.9769204,21.4001397 C40.9769204,20.3661313 41.7208799,19.7760475 43.2087989,19.6298883 L45.2309707,19.4351606 C45.6599162,19.3943087 45.8750698,19.1709846 45.8750698,18.7692737 C45.8750698,18.1592179 45.3017807,17.8555517 44.1524791,17.8555517 C43.5396997,17.8555517 43.0930517,17.9794693 42.8193436,18.2300279 C42.6307972,18.4273295 42.508875,18.6787939 42.4707402,18.9490223 Z M45.8383031,20.9153631 L45.8383031,19.9880237 C45.6440293,20.1096718 44.9699721,20.2281425 43.8161313,20.3434358 C42.7689595,20.4482891 42.2501397,20.7519553 42.2501397,21.2571578 C42.2501397,21.9094274 42.6913408,22.2348813 43.5791899,22.2348813 C44.1275004,22.2452074 44.6689112,22.1113808 45.1492668,21.8467877 C45.6068087,21.5880587 45.8396648,21.2762221 45.8396648,20.9099162 L45.8383031,20.9153631 Z M51.0550978,21.8168296 L53.0132682,17.234602 L54.3681913,17.234602 C53.8008031,18.458345 52.9220321,20.296683 51.7318785,22.7496159 C51.4626926,23.3115199 51.1607774,23.8571498 50.8276885,24.3836941 C50.6441324,24.6768377 50.3744588,24.9060841 50.0555866,25.0400489 C49.8336243,25.1176676 49.4387221,25.1571578 48.8722416,25.1571578 C48.698688,25.1427745 48.5265617,25.1145422 48.357507,25.0727304 L48.357507,24.2134777 C48.5987568,24.2800399 48.8480298,24.3130319 49.0982891,24.3115223 C49.4074022,24.3115223 49.6280028,24.2379888 49.7628142,24.095007 C49.8799232,23.9724511 50.0909916,23.6115922 50.4001047,23.0056215 L47.6766411,17.2305168 L49.0737779,17.2305168 L51.0224162,21.8127444 L51.0550978,21.8168296 Z" id="Combined-Shape" fill="#932580" fill-rule="nonzero"></path>
                <path d="M27.7327165,20.8663408 L33.1496858,20.8649791 L31.6776536,22.5290154 C31.4759586,22.7553062 31.1868929,22.8842206 30.883764,22.8830656 L26.7209497,22.8830656 C25.7173534,22.8830656 25.7173534,21.8794693 25.7173534,21.8794693 L25.7173534,17.3149441 C25.7173534,16.7702514 25.1726606,16.7702514 25.1726606,16.7702514 L24.8594623,16.7702514 L24.5585196,16.1738128 L24.2425978,16.1738128 L24.5380936,16.7702514 L24.5380936,20.4360335 C24.5379409,20.6793893 24.4515831,20.9148228 24.2943436,21.1005587 L23.0551676,22.5290154 C22.8651413,22.7526952 22.5846825,22.8791766 22.291236,22.8735335 L14.8412011,22.8735335 C14.5639376,22.8845041 14.295423,22.7753114 14.1045042,22.5739525 C13.9366006,22.3806405 13.840422,22.135385 13.8321578,21.8794693 L13.8321578,18.1619413 L13.1512919,17.1447277 L11.7405377,17.1447277 L11.7405377,21.8794693 C11.7206264,22.4204753 11.276271,22.8487773 10.7348987,22.8487773 C10.1935265,22.8487773 9.74917111,22.4204753 9.72925978,21.8794693 L9.72925978,17.1338338 L7.63355447,17.1338338 L7.63355447,21.8794693 C7.61365697,22.419733 7.16990724,22.8474406 6.62927723,22.8474406 C6.08864723,22.8474406 5.64489749,22.419733 5.625,21.8794693 L5.625,16.1397696 C5.625,16.1397696 5.625,16.122067 5.625,16.0893855 C5.62979154,15.999338 5.64721038,15.9104102 5.67674581,15.8252095 C5.77369849,15.4407878 6.11009904,15.1645969 6.5060405,15.1443436 C6.54825419,15.1361732 6.59046788,15.1361732 6.63131983,15.1361732 L13.8893506,15.1361732 C14.184805,15.1104029 14.4724676,15.2397995 14.6491969,15.4779679 L15.6078561,16.9023394 C15.7794344,17.1801327 15.8556913,17.2917947 15.8556913,17.5641411 L15.8556913,20.6961243 C15.8556913,20.6961243 15.8556913,21.240817 16.4003841,21.240817 L16.7149441,21.240817 L17.0295042,21.8726606 L17.3427025,21.8726606 L17.0295042,21.2367318 L17.0295042,17.5682263 C17.0249286,17.3248713 17.1119231,17.0886741 17.2732542,16.9064246 L18.5124302,15.4779679 C18.7019917,15.2571005 18.9798865,15.1318732 19.2709148,15.1361732 L26.7318436,15.1361732 C27.7354399,15.1361732 27.7327165,16.1411313 27.7327165,16.1411313 L27.7327165,20.8663408 Z M22.5867318,20.1854749 L22.5867318,16.7702514 L19.9136522,16.7702514 L19.0285265,17.7684008 L19.0285265,21.2394553 L21.6798184,21.2394553 L22.5867318,20.1854749 Z" id="Shape" fill="#868686" fill-rule="nonzero"></path>
            </g>
        </g>
    </g>
</svg>