<?xml version="1.0" encoding="UTF-8"?>
<svg width="80px" height="80px" viewBox="0 0 80 80" version="1.1" xmlns="http://www.w3.org/2000/svg" xmlns:xlink="http://www.w3.org/1999/xlink">
    <!-- Generator: Sketch 50.2 (55047) - http://www.bohemiancoding.com/sketch -->
    <title>ic-payments-jcb-xs</title>
    <desc>Created with Sketch.</desc>
    <defs>
        <linearGradient x1="0.182516704%" y1="49.95997%" x2="100.273441%" y2="49.95997%" id="linearGradient-1">
            <stop stop-color="#007940" offset="0%"></stop>
            <stop stop-color="#00873F" offset="22.85%"></stop>
            <stop stop-color="#40A737" offset="74.33%"></stop>
            <stop stop-color="#5CB531" offset="100%"></stop>
        </linearGradient>
        <linearGradient x1="-0.575855512%" y1="49.9142191%" x2="98.13299%" y2="49.9142191%" id="linearGradient-2">
            <stop stop-color="#6C2C2F" offset="0%"></stop>
            <stop stop-color="#882730" offset="17.35%"></stop>
            <stop stop-color="#BE1833" offset="57.31%"></stop>
            <stop stop-color="#DC0436" offset="85.85%"></stop>
            <stop stop-color="#E60039" offset="100%"></stop>
        </linearGradient>
        <linearGradient x1="0.175556793%" y1="50.0058048%" x2="101.808162%" y2="50.0058048%" id="linearGradient-3">
            <stop stop-color="#1F286F" offset="0%"></stop>
            <stop stop-color="#004E94" offset="47.51%"></stop>
            <stop stop-color="#0066B1" offset="82.61%"></stop>
            <stop stop-color="#006FBC" offset="100%"></stop>
        </linearGradient>
    </defs>
    <g id="ic-payments-jcb-xs" stroke="none" stroke-width="1" fill="none" fill-rule="evenodd">
        <g id="icons/payments/ic-payments-jcb-xs" transform="translate(10.000000, 18.000000)">
            <g id="-g-">
                <rect id="card" stroke="#DCDCDC" fill="#F7F7F7" x="0.5" y="0.5" width="59" height="44" rx="2"></rect>
                <path d="M41.25,25.9563932 L41.25,23.1438932 L44.4254032,23.1438932 C44.546371,23.1438932 44.7278226,23.1438932 44.8185484,23.1731901 C45.4233871,23.3196745 45.9375,23.8470182 45.9375,24.5501432 C45.9375,25.2825651 45.4233871,25.8099089 44.8185484,25.9270964 C44.7278226,25.9270964 44.516129,25.9563932 44.4254032,25.9563932 L41.25,25.9563932 Z M44.0228873,18.9149066 C44.5510563,19.0107873 45,19.5221509 45,20.2891963 C45,21.0562418 44.5510563,21.5676054 44.0228873,21.6634861 C43.9964789,21.6954463 43.8380282,21.6954463 43.7588028,21.6954463 L41.25,21.6954463 L41.25,18.8829463 L43.7588028,18.8829463 C43.8380282,18.8829463 43.9700704,18.9149066 44.0228873,18.9149066 Z M43.6912414,6.13011233 L51.4668539,6.13011233 L51.4668539,32.6877429 C51.4668539,35.6385908 49.0698606,38.0051123 46.146698,38.0051123 L38.3418539,38.0051123 L38.3418539,27.1950757 L46.5851724,27.1950757 C48.5144597,27.1950757 49.976041,26.1432883 49.976041,24.536391 C49.976041,23.0463589 48.6606178,22.0822205 46.9359519,21.9069226 C48.5144597,21.7024084 49.3621768,20.6798374 49.3621768,19.4819684 C49.3621768,17.96272 48.1052169,17.0862306 46.4097826,16.9985816 C46.2636245,16.9693653 46.0590031,16.9693653 45.8836133,16.9693653 L38.3710855,16.9693653 L38.3710855,11.4474817 C38.3710855,8.49663387 40.7680788,6.13011233 43.6912414,6.13011233 Z" id="Combined-Shape" fill="url(#linearGradient-1)" fill-rule="nonzero"></path>
                <path d="M28.5986623,6.13011233 C25.6754997,6.13011233 23.2785064,8.49446672 23.2785064,11.4426123 L23.2785064,18.3897277 C24.6231612,17.2513349 26.9616913,16.5215958 30.732571,16.6967332 C32.7495532,16.7843019 34.9126935,17.3389035 34.9126935,17.3389035 L34.9126935,19.5864997 C33.8311233,19.031898 32.5449318,18.5356755 30.8787291,18.4189173 C28.0140298,18.2145904 26.2893639,19.6156893 26.2893639,22.0676123 C26.2893639,24.548725 28.0140298,25.9498239 30.8787291,25.7163074 C32.5449318,25.5995491 33.8311233,25.0741371 34.9126935,24.548725 L34.9126935,26.7963211 C34.9126935,26.7963211 32.7787848,27.3509228 30.732571,27.4384914 C26.9616913,27.6136288 24.6231612,26.8838898 23.2785064,25.7454969 L23.2785064,38.0051123 L31.0833505,38.0051123 C34.0065131,38.0051123 36.4035064,35.6407579 36.4035064,32.6926123 L36.4035064,6.13011233 L28.5986623,6.13011233 Z" id="C" fill="url(#linearGradient-2)" fill-rule="nonzero"></path>
                <path d="M13.5045331,6.13011233 C10.5813705,6.13011233 8.18437722,8.49880499 8.18437722,11.45236 L8.18437722,24.5825206 C9.67519014,25.3135986 11.2244663,25.7814885 12.7737425,25.7814885 C14.6153349,25.7814885 15.6092102,24.6702499 15.6092102,23.1496077 L15.6092102,16.9500665 L20.1693438,16.9500665 L20.1693438,23.1203646 C20.1693438,25.5183004 18.6785309,27.4775894 13.6214596,27.4775894 C10.5521389,27.4775894 8.15514559,26.8049976 8.15514559,26.8049976 L8.15514559,38.0051123 L15.9599897,38.0051123 C18.8831523,38.0051123 21.2801456,35.6364197 21.2801456,32.6828646 L21.2801456,6.13011233 L13.5045331,6.13011233 Z" id="J" fill="url(#linearGradient-3)" fill-rule="nonzero"></path>
            </g>
        </g>
    </g>
</svg>