<?xml version="1.0" encoding="UTF-8"?>
<svg width="80px" height="80px" viewBox="0 0 80 80" version="1.1" xmlns="http://www.w3.org/2000/svg" xmlns:xlink="http://www.w3.org/1999/xlink">
    <!-- Generator: Sketch 50.2 (55047) - http://www.bohemiancoding.com/sketch -->
    <title>ic-payments-unionpay-xs</title>
    <desc>Created with Sketch.</desc>
    <defs></defs>
    <g id="ic-payments-unionpay-xs" stroke="none" stroke-width="1" fill="none" fill-rule="evenodd">
        <g id="icons/payments/ic-payments-unionpay-xs" transform="translate(10.000000, 18.000000)">
            <g id="-g-">
                <path d="M3.75,0.5 C1.95507456,0.5 0.5,1.95507456 0.5,3.75 L0.5,41.25 C0.5,43.0449254 1.95507456,44.5 3.75,44.5 L56.25,44.5 C58.0449254,44.5 59.5,43.0449254 59.5,41.25 L59.5,3.75 C59.5,1.95507456 58.0449254,0.5 56.25,0.5 L3.75,0.5 Z" id="card" stroke="#DCDCDC" fill="#F7F7F7"></path>
                <path d="M51.9082105,7.57547368 L40.4191579,7.57247368 L40.416,7.57247368 C40.407,7.57247368 40.3984737,7.57405263 40.3897895,7.57405263 C38.8114737,7.62236842 36.8455263,8.88836842 36.4875789,10.4493158 L31.0542632,34.4908421 C30.6961579,36.0664737 31.6700526,37.3484211 33.237,37.3719474 L45.3069474,37.3719474 C46.8497368,37.2956842 48.3494211,36.0442105 48.7012105,34.5009474 L54.1348421,10.4592632 C54.4986316,8.86784211 53.5013684,7.57547368 51.9082105,7.57547368" id="Shape" fill="#01798A" fill-rule="nonzero"></path>
                <path d="M31.0544211,34.4906842 L36.4877368,10.4491579 C36.8456842,8.88821053 38.8116316,7.62221053 40.3899474,7.57389474 L35.8217368,7.57105263 L27.5914737,7.56947368 C26.0087368,7.60184211 24.0173684,8.87668421 23.6594211,10.4493158 L18.2245263,34.4906842 C17.8651579,36.0663158 18.8406316,37.3482632 20.4064737,37.3717895 L33.2371579,37.3717895 C31.6702105,37.3482632 30.6963158,36.0663158 31.0544211,34.4906842" id="Shape" fill="#024381" fill-rule="nonzero"></path>
                <path d="M18.2245263,34.4906842 L23.6594211,10.4491579 C24.0173684,8.87652632 26.0087368,7.60168421 27.5914737,7.56931579 L17.0480526,7.56663158 C15.4564737,7.56663158 13.4158421,8.85615789 13.0520526,10.4491579 L7.61715789,34.4906842 C7.58415789,34.6373684 7.56568421,34.7812105 7.55478947,34.9217368 L7.55478947,35.3676316 C7.66121053,36.5161579 8.53831579,37.3525263 9.79910526,37.3716316 L20.4064737,37.3716316 C18.8406316,37.3482632 17.8651579,36.0663158 18.2245263,34.4906842" id="Shape" fill="#DD0228" fill-rule="nonzero"></path>
                <path d="M27.8137895,25.0877368 L28.0133684,25.0877368 C28.1966842,25.0877368 28.32,25.026 28.3779474,24.9042632 L28.8964737,24.1283684 L30.2848421,24.1283684 L29.9954211,24.6386842 L31.6601053,24.6386842 L31.4488421,25.4207368 L29.4678947,25.4207368 C29.2397368,25.764 28.9588421,25.9252105 28.6212632,25.9061053 L27.5894211,25.9061053 L27.8137895,25.0877368 Z M27.5857895,26.2083158 L31.2333158,26.2083158 L31.0007368,27.0577895 L29.5337368,27.0577895 L29.31,27.8775789 L30.7373684,27.8775789 L30.5049474,28.7270526 L29.0775789,28.7270526 L28.746,29.9385789 C28.6638947,30.1411579 28.7718947,30.2321053 29.0681053,30.2115789 L30.2313158,30.2115789 L30.0157895,31.0010526 L27.7823684,31.0010526 C27.3590526,31.0010526 27.2137895,30.7588421 27.3465789,30.2733158 L27.7705263,28.7272105 L26.8582105,28.7272105 L27.09,27.8777368 L28.0024737,27.8777368 L28.2262105,27.0579474 L27.354,27.0579474 L27.5857895,26.2083158 Z M33.4073684,24.1223684 L33.3500526,24.6197368 C33.3500526,24.6197368 34.038,24.1032632 34.6627895,24.1032632 L36.9716842,24.1032632 L36.0887368,27.2996842 C36.0154737,27.6650526 35.7014211,27.8467895 35.1468947,27.8467895 L32.5297895,27.8467895 L31.9168421,30.0912632 C31.8813158,30.2115789 31.9313684,30.2731579 32.0633684,30.2731579 L32.5784211,30.2731579 L32.3891053,30.9699474 L31.08,30.9699474 C30.5775789,30.9699474 30.3685263,30.8188421 30.4514211,30.5152105 L32.1836842,24.1223684 L33.4073684,24.1223684 Z M35.3627368,25.026 L33.3017368,25.026 L33.0551053,25.8885789 C33.0551053,25.8885789 33.3983684,25.6408421 33.972,25.632 C34.5440526,25.623 35.1969474,25.632 35.1969474,25.632 L35.3627368,25.026 Z M34.6158947,27.0268421 C34.7682632,27.0475263 34.8536842,26.9873684 34.8637895,26.8449474 L34.9899474,26.3903684 L32.9259474,26.3903684 L32.7528947,27.0268421 L34.6158947,27.0268421 Z M33.2238947,28.0596316 L34.4136316,28.0596316 L34.3913684,28.5745263 L34.7081053,28.5745263 C34.8682105,28.5745263 34.9476316,28.5232105 34.9476316,28.422 L35.0414211,28.089 L36.0303158,28.089 L35.8983158,28.5745263 C35.7865263,28.9793684 35.4904737,29.1906316 35.0092105,29.2113158 L34.3754211,29.2113158 L34.3724211,30.0912632 C34.3608947,30.2322632 34.4881579,30.3041053 34.7507368,30.3041053 L35.3463158,30.3041053 L35.1541579,31.0010526 L33.7253684,31.0010526 C33.3247895,31.02 33.1283684,30.8292632 33.1326316,30.4244211 L33.2238947,28.0596316 Z M18.8068421,19.8639474 C18.6454737,20.6546842 18.2714211,21.2619474 17.6911579,21.6931579 C17.1161053,22.1171053 16.3746316,22.3297895 15.4665789,22.3297895 C14.6120526,22.3297895 13.9856842,22.1126842 13.5858947,21.6770526 C13.3086316,21.3675789 13.1707895,20.9744211 13.1707895,20.4991579 C13.1707895,20.3025789 13.1943158,20.0913158 13.2412105,19.8641053 L14.2086316,15.1994211 L15.6696316,15.1994211 L14.7156316,19.8110526 C14.6883425,19.9268851 14.6750893,20.0455802 14.6761579,20.1645789 C14.6745789,20.4007895 14.7333158,20.5943684 14.8520526,20.7454737 C15.0251053,20.97 15.306,21.0813158 15.6971053,21.0813158 C16.1466316,21.0813158 16.5170526,20.9714211 16.8045789,20.7497368 C17.0921053,20.5296316 17.2798421,20.2173158 17.3641579,19.8108947 L18.3213158,15.1989474 L19.7750526,15.1989474 L18.8068421,19.8639474 Z M24.9429474,18.0287368 L26.0872105,18.0287368 L25.1908421,22.1919474 L24.0487895,22.1919474 L24.9429474,18.0287368 Z M25.3031053,16.512 L26.4576316,16.512 L26.2419474,17.5225263 L25.0875789,17.5225263 L25.3031053,16.512 Z M27.1001053,21.8750526 C26.8007368,21.5889474 26.6496316,21.2032105 26.6482105,20.7132632 C26.6482105,20.6295789 26.6532632,20.5343684 26.6644737,20.4301579 C26.6755263,20.3245263 26.6894211,20.2218947 26.7091579,20.1265263 C26.8447895,19.4502632 27.1338947,18.9134211 27.579,18.5172632 C28.0234737,18.1196842 28.5596842,17.9202632 29.1876316,17.9202632 C29.7017368,17.9202632 30.1095789,18.0641053 30.4081579,18.3514737 C30.7065789,18.6405789 30.8561053,19.0305789 30.8561053,19.5265263 C30.8561053,19.6114737 30.8496316,19.7098421 30.8385789,19.8154737 C30.8257482,19.9196045 30.8098465,20.0233339 30.7908947,20.1265263 C30.6582632,20.7925263 30.3701053,21.3235263 29.9248421,21.7122632 C29.4795789,22.1038421 28.9447895,22.2988421 28.3214211,22.2988421 C27.8051053,22.299 27.3986842,22.1581579 27.1001053,21.8750526 Z M29.2807895,21.0506842 C29.4825789,20.8321579 29.6268947,20.5005789 29.715,20.0591053 C29.7282632,19.9901053 29.7399474,19.9182632 29.7472105,19.8464211 C29.7544737,19.776 29.7574737,19.71 29.7574737,19.6498421 C29.7574737,19.3931053 29.6921053,19.1936842 29.5608947,19.0528421 C29.4304737,18.9105789 29.2449474,18.8401579 29.0051053,18.8401579 C28.6882105,18.8401579 28.4298947,18.9514737 28.2276316,19.1745789 C28.0236316,19.3976842 27.879,19.7349474 27.7880526,20.1838421 C27.7755789,20.2528421 27.7653158,20.3218421 27.7558421,20.3892632 C27.7485789,20.4582632 27.7463684,20.5226842 27.7477895,20.5814211 C27.7477895,20.8367368 27.8131579,21.0333158 27.9443684,21.1725789 C28.0749474,21.312 28.2596842,21.3808421 28.5025263,21.3808421 C28.821,21.3806842 29.079,21.2706316 29.2807895,21.0506842 Z M38.2803158,25.1227895 L38.5561579,24.1517368 L39.9513158,24.1517368 L39.8911579,24.5082632 C39.8911579,24.5082632 40.6038947,24.1517368 41.1173684,24.1517368 L42.8423684,24.1517368 L42.5682632,25.1227895 L42.2968421,25.1227895 L40.9956316,29.7026842 L41.2670526,29.7026842 L41.0088947,30.6121579 L40.7374737,30.6121579 L40.6245789,31.0067368 L39.2734737,31.0067368 L39.3862105,30.6121579 L36.7209474,30.6121579 L36.9806842,29.7026842 L37.2476842,29.7026842 L38.5501579,25.1227895 L38.2803158,25.1227895 Z M39.7855263,25.1227895 L39.4305789,26.3622632 C39.4305789,26.3622632 40.0381579,26.1290526 40.5617368,26.0630526 C40.6773158,25.6304211 40.8284211,25.1227895 40.8284211,25.1227895 L39.7855263,25.1227895 Z M39.2662105,26.9433158 L38.9098421,28.2416842 C38.9098421,28.2416842 39.5831053,27.9101053 40.0451053,27.8823158 C40.1785263,27.3805263 40.3121053,26.9434737 40.3121053,26.9434737 L39.2662105,26.9434737 L39.2662105,26.9433158 Z M39.5272105,29.7026842 L39.7940526,28.7608421 L38.7528947,28.7608421 L38.4843158,29.7026842 L39.5272105,29.7026842 Z M42.9011053,24.0915789 L44.2127368,24.0915789 L44.2684737,24.5755263 C44.2596316,24.6986842 44.3330526,24.7575789 44.4885789,24.7575789 L44.7203684,24.7575789 L44.4858947,25.5773684 L43.5219474,25.5773684 C43.1540526,25.5963158 42.9647368,25.4556316 42.9470526,25.152 L42.9011053,24.0915789 Z M42.5167895,25.8505263 L46.7649474,25.8505263 L46.5156316,26.7307895 L45.1631053,26.7307895 L44.9311579,27.5491579 L46.2825789,27.5491579 L46.0315263,28.4278421 L44.5266316,28.4278421 L44.1862105,28.9428947 L44.9229474,28.9428947 L45.093,29.9741053 C45.1132105,30.0767368 45.2041579,30.1266316 45.3598421,30.1266316 L45.5884737,30.1266316 L45.3481579,30.9757895 L44.5383158,30.9757895 C44.1186316,30.9964737 43.9018421,30.8556316 43.884,30.552 L43.6888421,29.6101579 L43.0185789,30.6121579 C42.8600526,30.8952632 42.6164211,31.0272632 42.288,31.0067368 L41.0513684,31.0067368 L41.2918421,30.1572632 L41.6777368,30.1572632 C41.8362632,30.1572632 41.9681053,30.087 42.0868421,29.9445789 L43.1360526,28.4278421 L41.7835263,28.4278421 L42.0342632,27.5491579 L43.5012632,27.5491579 L43.7344737,26.7307895 L42.2662105,26.7307895 L42.5167895,25.8505263 Z M20.1527368,18.0273158 L21.1847368,18.0273158 L21.0666316,18.6287368 L21.2147368,18.4571053 C21.5493158,18.0991579 21.9555789,17.9216842 22.4352632,17.9216842 C22.8694737,17.9216842 23.1825789,18.0478421 23.3793158,18.3015789 C23.5728947,18.5553158 23.6257895,18.906 23.5340526,19.3563158 L22.9654737,22.1933684 L21.9048947,22.1933684 L22.4182105,19.6218947 C22.4711053,19.3563158 22.4564211,19.1583158 22.3749474,19.0305789 C22.2944211,18.903 22.1403158,18.84 21.918,18.84 C21.6451579,18.84 21.4155789,18.9249474 21.2284737,19.0937368 C21.0407368,19.2639474 20.9167895,19.5001579 20.8558421,19.8007895 L20.3827895,22.1933684 L19.32,22.1933684 L20.1527368,18.0273158 Z M31.9871053,18.0273158 L33.0200526,18.0273158 L32.9027368,18.6287368 L33.0491053,18.4571053 C33.384,18.0991579 33.7916842,17.9216842 34.2699474,17.9216842 C34.7041579,17.9216842 35.0177368,18.0478421 35.2130526,18.3015789 C35.4055263,18.5553158 35.4609474,18.906 35.3671579,19.3563158 L34.8007895,22.1933684 L33.7387895,22.1933684 L34.2524211,19.6218947 C34.3051579,19.3563158 34.2903158,19.1583158 34.2096316,19.0305789 C34.1259474,18.903 33.9748421,18.84 33.7534737,18.84 C33.4804737,18.84 33.2518421,18.9249474 33.0625263,19.0937368 C32.8747895,19.2639474 32.7500526,19.5001579 32.6914737,19.8007895 L32.2160526,22.1933684 L31.1546842,22.1933684 L31.9871053,18.0273158 Z M37.0923158,15.4454211 L40.0907368,15.4454211 C40.6670526,15.4454211 41.1131053,15.576 41.4195789,15.8325789 C41.7246316,16.0924737 41.8773158,16.4649474 41.8773158,16.9504737 L41.8773158,16.9651579 C41.8773158,17.0575263 41.8713158,17.1617368 41.8624737,17.2746316 C41.8472109,17.3892686 41.8276709,17.5032955 41.8038947,17.6164737 C41.6717368,18.2589474 41.3652632,18.7754211 40.8915789,19.167 C40.416,19.5571579 39.8529474,19.7537368 39.2046316,19.7537368 L37.5966316,19.7537368 L37.0994211,22.1932105 L35.7072632,22.1932105 L37.0923158,15.4454211 Z M37.8416842,18.5804211 L39.1751053,18.5804211 C39.5226316,18.5804211 39.7984737,18.4995789 39.9997895,18.3397895 C40.1993684,18.1784211 40.3313684,17.9319474 40.4043158,17.5975263 C40.416,17.5357895 40.4234211,17.4800526 40.4322632,17.4287368 C40.4366842,17.3804211 40.4425263,17.3317895 40.4425263,17.2850526 C40.4425263,17.0458421 40.3575789,16.8727895 40.1872105,16.7641579 C40.0171579,16.6539474 39.7501579,16.6013684 39.3805263,16.6013684 L38.2481053,16.6013684 L37.8416842,18.5804211 Z M48.1087895,22.9987895 C47.6685789,23.9346316 47.2492105,24.4801579 47.0028947,24.7338947 C46.7562632,24.9849474 46.2677368,25.5686842 45.0912632,25.5246316 L45.1927895,24.8104737 C46.1827895,24.5052632 46.7180526,23.1306316 47.0234211,22.5219474 L46.6594737,18.039 L47.4252632,18.0287368 L48.0677368,18.0287368 L48.1368947,20.8408421 L49.341,18.0287368 L50.5602632,18.0287368 L48.1087895,22.9987895 Z M44.6998421,18.3675789 L45.8412632,18.2679474 L44.9771053,22.1935263 L43.6612105,22.1597368 L43.4706316,21.9337895 C40.1259474,23.3567368 41.1410526,19.0364211 42.3557368,18.4732105 C43.2475263,18.0595263 43.7095263,18.3045789 44.2155789,18.7005789 L44.6998421,18.3675789 Z M43.9514211,20.5136842 C44.1671053,19.8887368 44.0336842,19.2873158 43.6640526,19.1728421 C43.2974211,19.0555263 42.8221579,19.4662105 42.6108947,20.0911579 C42.3964737,20.7161053 42.5286316,21.3175263 42.8982632,21.432 C43.2680526,21.5493158 43.7401579,21.1372105 43.9514211,20.5136842 Z" id="Combined-Shape" fill="#FFFFFF" fill-rule="nonzero"></path>
            </g>
        </g>
    </g>
</svg>