<?xml version="1.0" encoding="UTF-8"?>
<svg width="80px" height="80px" viewBox="0 0 80 80" version="1.1" xmlns="http://www.w3.org/2000/svg" xmlns:xlink="http://www.w3.org/1999/xlink">
    <!-- Generator: Sketch 50.2 (55047) - http://www.bohemiancoding.com/sketch -->
    <title>ic-payments-sofort-xs</title>
    <desc>Created with Sketch.</desc>
    <defs></defs>
    <g id="ic-payments-sofort-xs" stroke="none" stroke-width="1" fill="none" fill-rule="evenodd">
        <g id="icons/payments/ic-payments-sofort-xs" transform="translate(10.000000, 18.000000)">
            <g id="-g-">
                <path d="M3.75,0 L56.25,0 C58.3210678,-3.80448985e-16 60,1.67893219 60,3.75 L60,41.25 C60,43.3210678 58.3210678,45 56.25,45 L3.75,45 C1.67893219,45 2.53632657e-16,43.3210678 0,41.25 L0,3.75 C-2.53632657e-16,1.67893219 1.67893219,3.80448985e-16 3.75,0 Z" id="card" fill="#EB6F93"></path>
                <path d="M17.292381,38.0764286 C18.652381,38.0764286 19.692381,37.1664286 19.692381,35.8264286 C19.692381,34.5864286 18.812381,34.0464286 17.732381,33.7264286 C17.042381,33.5264286 16.612381,33.3764286 16.612381,32.8864286 C16.612381,32.4764286 16.912381,32.1564286 17.382381,32.1564286 C17.782381,32.1564286 18.082381,32.3864286 18.292381,32.7364286 L19.422381,32.0264286 C19.072381,31.2464286 18.282381,30.8464286 17.422381,30.8464286 C16.062381,30.8464286 15.202381,31.8264286 15.202381,32.9564286 C15.202381,33.8564286 15.742381,34.5564286 17.082381,34.9464286 C17.812381,35.1564286 18.272381,35.2964286 18.272381,35.8764286 C18.272381,36.4164286 17.882381,36.7564286 17.312381,36.7564286 C16.702381,36.7564286 16.242381,36.3664286 15.962381,36.0064286 L15.022381,36.9564286 C15.522381,37.6364286 16.342381,38.0764286 17.292381,38.0764286 Z M22.7890477,38.0764286 C21.3490477,38.0764286 20.1790477,36.9264286 20.1790477,35.5264286 C20.1790477,34.1264286 21.3490477,32.9764286 22.7890477,32.9764286 C24.2290477,32.9764286 25.3990477,34.1264286 25.3990477,35.5264286 C25.3990477,36.9264286 24.2290477,38.0764286 22.7890477,38.0764286 Z M22.7890477,36.7964286 C23.4890477,36.7964286 24.0390477,36.2464286 24.0390477,35.5264286 C24.0390477,34.8064286 23.4890477,34.2564286 22.7890477,34.2564286 C22.0890477,34.2564286 21.5390477,34.8064286 21.5390477,35.5264286 C21.5390477,36.2464286 22.0890477,36.7964286 22.7890477,36.7964286 Z M28.7657143,32.2264286 L28.7657143,30.9464286 L28.5657143,30.9464286 C26.9057143,30.9464286 26.0957143,32.0464286 26.0957143,33.3464286 L26.0957143,37.9464286 L27.4557143,37.9464286 L27.4557143,35.9264286 C27.4557143,35.2564286 27.9757143,34.7764286 28.7257143,34.7564286 L28.7257143,33.4564286 C28.1857143,33.4564286 27.7557143,33.6164286 27.4557143,33.9364286 L27.4557143,33.4164286 C27.4557143,32.5764286 28.0057143,32.1964286 28.7657143,32.2264286 Z M31.732381,38.0764286 C30.292381,38.0764286 29.122381,36.9264286 29.122381,35.5264286 C29.122381,34.1264286 30.292381,32.9764286 31.732381,32.9764286 C33.172381,32.9764286 34.342381,34.1264286 34.342381,35.5264286 C34.342381,36.9264286 33.172381,38.0764286 31.732381,38.0764286 Z M31.732381,36.7964286 C32.432381,36.7964286 32.982381,36.2464286 32.982381,35.5264286 C32.982381,34.8064286 32.432381,34.2564286 31.732381,34.2564286 C31.032381,34.2564286 30.482381,34.8064286 30.482381,35.5264286 C30.482381,36.2464286 31.032381,36.7964286 31.732381,36.7964286 Z M36.3990476,33.6564286 L36.3990476,33.1064286 L35.0790476,33.1064286 L35.0790476,37.9464286 L36.4390476,37.9464286 L36.4390476,35.7364286 C36.4390476,34.9364286 36.9090476,34.4864286 37.7290476,34.4864286 L37.7290476,33.0264286 C37.1090476,33.0064286 36.6690476,33.2164286 36.3990476,33.6564286 Z M39.8657143,35.4764286 L39.8657143,34.2964286 C40.1657143,34.6164286 40.5957143,34.7764286 41.1357143,34.7764286 L41.1357143,33.4764286 C40.3957143,33.4564286 39.8657143,32.9664286 39.8657143,32.3064286 L39.8657143,31.5464286 L38.5057143,31.5464286 L38.5057143,35.5464286 C38.5057143,36.8464286 39.3157143,37.9464286 40.9757143,37.9464286 L41.1757143,37.9464286 L41.1757143,36.6664286 C40.4157143,36.6964286 39.8657143,36.3164286 39.8657143,35.4764286 Z M42.8023809,38.0264286 C43.3023809,38.0264286 43.7123809,37.6164286 43.7123809,37.1164286 C43.7123809,36.6164286 43.3023809,36.2064286 42.8023809,36.2064286 C42.3023809,36.2064286 41.8923809,36.6164286 41.8923809,37.1164286 C41.8923809,37.6164286 42.3023809,38.0264286 42.8023809,38.0264286 Z" id="name-sofort" fill="#FFFFFF" fill-rule="nonzero"></path>
                <path d="M23.4930524,17.0100492 C22.9508422,15.9413805 23.119606,14.7719638 23.9624349,14.1939439 L24.0822915,14.1150838 C24.9980445,13.583321 25.7963523,13.788601 26.4771367,14.4640308 L25.6939401,8.02294264 C25.429945,6.9033487 26.1177172,5.67690838 27.1644853,5.45391178 C27.7026981,5.33909259 28.2645111,5.44496211 28.7239031,5.7477726 C29.1832952,6.05058308 29.5018116,6.52498697 29.6047737,7.04956392 L30.9393406,12.7511478 L32.630615,6.95594873 C32.93143,5.82536982 34.0861292,5.14665911 35.2384476,5.43797578 C36.2676505,5.74362633 36.8874347,6.78996271 36.6617552,7.83213381 L34.7998246,17.1151831 L35.5992127,17.301905 C35.8317895,17.3357083 36.1349717,17.4729883 36.4222719,17.7797407 C36.943326,18.3360738 37.1956027,19.2569663 37.082178,20.6005249 C36.7200553,24.9167986 34.5947161,27.7469769 29.7278647,27.7042244 C29.7183852,27.7041411 29.7089796,27.7037532 29.6996574,27.70307 C26.2810106,27.6410955 23.4110892,25.1251636 23.3184281,21.5531198 L22.533739,20.7756429 C21.5642874,19.8022823 21.4077816,18.4540302 22.1865764,17.6541034 L22.2705194,17.5660598 C22.6049919,17.2217882 23.0444015,17.0343264 23.4930524,17.0100492 Z M24.1672679,18.056465 C23.775079,17.772025 23.2304562,17.8167451 22.8929603,18.164101 L22.8087075,18.2524631 C22.3882789,18.6843185 22.4831575,19.5016705 23.1437712,20.1649614 L25.5433645,22.5425496 C25.9725749,22.9556975 26.655004,22.9453461 27.0676574,22.5233163 L27.1504312,22.4364809 C27.5354451,22.0370859 27.5530605,21.4180261 27.2088614,20.9985743 C26.5769218,21.0063186 25.953139,20.7068624 25.5705108,20.1446836 L24.1672679,18.056465 Z M28.0915579,20.7739738 C28.4751766,21.4976944 28.3712073,22.4138505 27.7740414,23.0333139 L27.6891513,23.1223293 C26.9410758,23.8874929 25.7152545,23.9060868 24.9398195,23.1596086 L24.2937946,22.5195215 C24.8235989,25.1075627 27.1315377,26.8413938 29.8289575,26.8413938 C29.8356118,26.8413938 29.8422309,26.8415442 29.8488116,26.8418419 C34.0978333,26.8366625 35.895856,24.4120949 36.2217018,20.5282198 C36.3160586,19.4105252 36.1296458,18.7300573 35.7917922,18.3693286 C35.7071317,18.2789359 35.6203394,18.2182889 35.5369739,18.1805412 C35.4958096,18.1619022 35.4722916,18.1553851 35.4389148,18.1489641 L30.3989238,16.9727678 C30.37451,16.965759 30.3193395,16.9527034 30.2408918,16.9389669 C29.9695409,16.8914521 29.6840386,16.884431 29.4298878,16.9408963 C29.0449467,17.0264196 28.789726,17.2407639 28.6654785,17.6583602 C28.4955261,18.2244311 28.5077768,18.6566809 28.8665039,19.0033374 C28.9593807,19.0361399 29.0347419,19.0981875 29.0849812,19.1760394 C29.3364268,19.3415813 29.6891916,19.4862508 30.1663522,19.6168228 L33.4866225,20.3581422 C34.0385395,20.4813692 33.8693181,21.3068397 33.3133644,21.2033036 C33.2983281,21.2005034 33.2611367,21.1949642 33.2051542,21.1890108 C32.7886505,21.1447184 32.315856,21.1773528 31.8810362,21.3409033 C31.0685315,21.6465138 30.5661793,22.3439064 30.5034502,23.6357398 C30.4918939,23.8737284 30.2894487,24.0572954 30.0512762,24.045748 C29.8131038,24.0342006 29.629395,23.8319117 29.6409513,23.5939229 C29.7102181,22.1674541 30.2680228,21.2244541 31.16516,20.7236379 L29.9582852,20.4540003 C29.5428449,20.3404506 29.1924108,20.2065775 28.9008008,20.0540953 C28.7625075,20.2683136 28.5815352,20.4553179 28.3657504,20.6034271 L28.269938,20.6672483 C28.211746,20.7063617 28.1522003,20.7419205 28.0915579,20.7739738 Z M27.5188318,15.8771886 L28.1359664,16.7958516 C28.4025395,16.429906 28.7844063,16.2003864 29.2424675,16.0986178 C29.6233382,16.0139988 30.0164218,16.0236655 30.3899425,16.0890708 C30.50038,16.1084089 30.5849773,16.128428 30.6162976,16.1379903 L33.958555,16.9186784 L35.8164218,7.65613426 C35.9479739,7.04849827 35.5888295,6.44218094 35.0096747,6.26979912 C34.3329279,6.09893524 33.6444864,6.50358836 33.4623706,7.18757135 L31.3096678,14.5643074 C31.2429156,14.7930496 31.0032268,14.9244101 30.7743081,14.8577094 C30.7005648,14.8362226 30.6369348,14.7968035 30.5867864,14.7455887 C30.5311616,14.6904758 30.4898649,14.6195764 30.4707089,14.5377377 L28.7607203,7.23106487 C28.6991844,6.91839432 28.5146147,6.64349295 28.2484122,6.46802429 C27.9822097,6.29255563 27.6566577,6.23120774 27.3446596,6.29776757 C26.7880717,6.41633942 26.3703109,7.16952192 26.5383636,7.84121427 L26.5481028,7.89381457 L27.5188318,15.8771886 Z M26.7962223,16.3496531 C26.7593572,16.3121118 26.7291679,16.2676932 26.7078723,16.2181333 L26.2702849,15.5667318 C25.7148803,14.7581891 25.1746077,14.4787593 24.5387234,14.8470614 L24.4462649,14.9086053 C23.9505345,15.2486074 23.8831922,16.0708402 24.3982151,16.8523402 L26.2859717,19.6615646 C26.6215757,20.1546452 27.292809,20.2841269 27.789462,19.9503096 L27.8817635,19.8888734 C28.012763,19.7989411 28.1210441,19.6816413 28.1999175,19.5463413 C27.7295001,19.0579693 27.6155186,18.4552158 27.7491827,17.7682493 L26.7962223,16.3496531 Z" id="sygnet" fill="#FFFFFF" fill-rule="nonzero"></path>
            </g>
        </g>
    </g>
</svg>