<?xml version="1.0" encoding="UTF-8"?>
<svg width="80px" height="80px" viewBox="0 0 80 80" version="1.1" xmlns="http://www.w3.org/2000/svg" xmlns:xlink="http://www.w3.org/1999/xlink">
    <!-- Generator: Sketch 50.2 (55047) - http://www.bohemiancoding.com/sketch -->
    <title>ic-payments-senare-xs</title>
    <desc>Created with Sketch.</desc>
    <defs></defs>
    <g id="ic-payments-senare-xs" stroke="none" stroke-width="1" fill="none" fill-rule="evenodd">
        <g id="icons/payments/ic-payments-senare-xs" transform="translate(10.000000, 18.000000)">
            <g id="-g-">
                <path d="M3.75,0 L56.25,0 C58.3210678,-3.80448985e-16 60,1.67893219 60,3.75 L60,41.25 C60,43.3210678 58.3210678,45 56.25,45 L3.75,45 C1.67893219,45 2.53632657e-16,43.3210678 0,41.25 L0,3.75 C-2.53632657e-16,1.67893219 1.67893219,3.80448985e-16 3.75,0 Z" id="card" fill="#EB6F93"></path>
                <path d="M29.4559969,14.7085133 C29.4792763,14.7046832 29.5031903,14.7026896 29.527579,14.7026896 C30.1691136,14.7026896 30.5653287,15.1395421 30.9351119,16.0176056 C31.1187041,16.4535519 31.904758,18.7826308 31.8339768,18.5807546 C31.8881998,18.7354836 31.9416382,18.8947167 32.0043065,19.0868032 C32.0370187,19.1870702 32.1453892,19.5230436 32.1613963,19.5723368 C32.6212771,20.9885131 32.9543547,21.6130838 33.6599401,22.1446526 C34.573997,22.8332782 36.0785308,23.1880302 38.4995946,23.1880302 C40.8789913,23.1880302 42.3677529,22.2510295 43.2261967,20.5460918 C43.8486625,19.3098254 44.0603233,18.026117 44.1722891,15.900606 C44.2608387,15.1227981 44.4924038,14.3674909 44.8554447,13.6712443 L44.8554447,12.8300653 C42.4638573,12.5764128 40.0604714,12.4445108 37.6564511,12.434919 C35.9670214,12.434919 34.7406002,12.4899755 33.0707044,12.6137962 C32.9273593,12.6244251 32.409811,12.6634779 32.2954599,12.6719747 C31.9996767,12.6939526 31.7673558,12.7103442 31.5422913,12.7247955 C30.8090673,12.7718755 30.1869638,12.795071 29.527579,12.795071 C28.8681943,12.795071 28.2460908,12.7718755 27.5128668,12.7247955 C27.2878023,12.7103442 27.0554813,12.6939526 26.7596982,12.6719747 C26.6453471,12.6634779 26.1277988,12.6244251 25.9844537,12.6137962 C24.3145579,12.4899755 23.0881367,12.434919 21.4004537,12.4349155 C18.9947747,12.4445106 16.5913051,12.5764128 14.1997134,12.8300654 L14.1997134,13.6712461 C14.5627582,14.3675384 14.7944105,15.123895 14.8849592,15.9257873 C14.9948348,18.026117 15.2064956,19.3098254 15.8289614,20.5460918 C16.6874052,22.2510295 18.1761668,23.1880302 20.5558474,23.1880303 C22.9794415,23.1896017 24.4843284,22.837119 25.3972904,22.1514033 C26.102048,21.6220676 26.434107,20.999202 26.8915062,19.5859741 C26.907403,19.5368578 27.0165152,19.1974141 27.0495028,19.095984 C27.1125701,18.9020658 27.1664166,18.7412203 27.2212032,18.5846499 C27.1504001,18.7865884 27.936454,16.4575096 28.1200462,16.0215633 C28.4758769,15.1766304 28.8561825,14.7402416 29.4559969,14.7085133 Z M29.5626591,15.5482558 C29.5510892,15.549173 29.5393897,15.5496406 29.527579,15.5496406 C29.3466072,15.5496406 29.1634948,15.7515337 28.9142152,16.3434572 C28.744471,16.7465209 27.9752985,19.0255799 28.0338436,18.8586027 C27.9814409,19.0083605 27.9294429,19.1636843 27.8681249,19.3522239 C27.8356759,19.4519978 27.7268135,19.7906642 27.7104927,19.8410906 C26.6941589,22.9812608 25.2924154,24.0340949 20.5555635,24.0310234 C17.844284,24.0310234 16.0597232,22.9078519 15.0585457,20.9194339 C14.3680514,19.5480573 14.1424695,18.1799189 14.0288985,15.9941758 C13.9483732,15.2868528 13.7318688,14.6009234 13.390857,13.9727322 C13.3577492,13.9117431 13.3404331,13.8437041 13.3404331,13.7746055 L13.3404331,12.4527287 C13.3404331,12.2383645 13.5044352,12.0581435 13.7215426,12.0339297 C16.269913,11.7497118 18.8321963,11.6021588 21.398707,11.5919257 C23.1124441,11.5919257 24.3594426,11.647906 26.0492146,11.7732005 C26.193296,11.783884 26.7109344,11.8229436 26.8245939,11.831389 C27.1176989,11.8531679 27.3473029,11.8693678 27.5689867,11.883602 C28.2847529,11.929561 28.8886501,11.9520778 29.527579,11.9520778 C30.166508,11.9520778 30.7704052,11.929561 31.4861714,11.883602 C31.7078552,11.8693678 31.9374592,11.8531679 32.2305642,11.831389 C32.3442236,11.8229436 32.8618621,11.783884 33.0059435,11.7732005 C34.6957155,11.647906 35.942714,11.5919257 37.6581978,11.5919292 C40.2229617,11.6021588 42.7852451,11.7497118 45.3336155,12.0339297 C45.5507229,12.0581435 45.714725,12.2383645 45.714725,12.4527287 L45.714725,13.7746055 C45.714725,13.8437041 45.6974088,13.9117431 45.6643011,13.9727322 C45.3232892,14.6009234 45.1067848,15.2868528 45.0283497,15.9689945 C44.9126885,18.1799189 44.6871067,19.5480573 43.9966124,20.9194339 C42.9954349,22.9078519 41.2108741,24.0310234 38.4995946,24.0310234 C33.7672029,24.0310234 32.3642174,22.9740524 31.34266,19.8282251 C31.3262363,19.7776492 31.2181075,19.442425 31.1859232,19.3437758 C31.1249724,19.1569541 31.0733478,19.0031254 31.0214004,18.8548903 C31.0798596,19.0216222 30.3106871,16.7425632 30.1409428,16.3394994 C29.9077501,15.7857748 29.7324601,15.5733648 29.5626591,15.5482558 Z M20.6846572,21.73357 L20.6402812,21.73357 C19.6055848,21.7686576 18.6022733,21.381817 17.8687998,20.664987 C16.3721191,19.1768862 16.3963242,16.7072721 16.3963242,16.5885407 C16.3600166,16.2283887 16.3438799,15.8326172 16.3438799,15.4368457 C16.3034095,15.0753867 16.4133329,14.7132003 16.6487503,14.4323291 C16.8841676,14.1514578 17.2251563,13.9756707 17.5944756,13.9447872 C18.6352939,13.8300135 20.2328291,13.7746055 21.2817158,13.7627323 C23.9765478,13.7310706 25.4449892,13.8933369 26.0420478,14.281193 C26.8488838,14.7956959 26.7439951,15.5634926 26.0420478,17.7560666 L25.8524414,18.2309923 C25.1545283,20.4868898 24.7591786,21.73357 20.6846572,21.73357 Z M22.2089214,14.5244736 L18.1263316,19.5309829 C17.9781017,19.7127583 18.0081427,19.9780029 18.1934301,20.1234233 C18.3787176,20.2688437 18.6490868,20.239372 18.7973168,20.0575966 L22.8799066,15.0510873 C23.0281365,14.8693119 22.9980956,14.6040672 22.8128081,14.4586469 C22.6275207,14.3132265 22.3571514,14.3426981 22.2089214,14.5244736 Z M19.502032,14.3542366 L17.1581736,17.2275376 C17.0099125,17.4092886 17.0399081,17.6745381 17.2251707,17.819989 C17.4104332,17.9654399 17.6808075,17.9360128 17.8290686,17.7542618 L20.1729269,14.8809608 C20.321188,14.6992098 20.2911924,14.4339603 20.1059298,14.2885094 C19.9206673,14.1430585 19.650293,14.1724856 19.502032,14.3542366 Z M38.3583983,21.73357 C34.2838769,21.73357 33.8885272,20.4868898 33.1744775,18.2349501 L33.0171445,17.7402357 C32.3030946,15.5476617 32.2103085,14.7838227 33.0171445,14.2653621 C33.6142031,13.8695906 35.0826444,13.7152397 37.7774765,13.7469015 C38.8303974,13.7469015 40.4238983,13.8141826 41.4647167,13.9289563 C41.8362827,13.9617486 42.1786092,14.1403431 42.4140624,14.4242375 C42.6495155,14.708132 42.7581438,15.0732705 42.7153124,15.4368457 C42.7153124,15.8326172 42.7153124,16.2283887 42.6588339,16.6241601 C42.6588339,16.695399 42.683039,19.1808439 41.1863583,20.6689447 C40.4519144,21.3867973 39.4469236,21.7737222 38.4108427,21.7375277 L38.3583983,21.7375277 L38.3583983,21.73357 Z M35.9897243,14.3542366 L33.6458659,17.2275376 C33.4976048,17.4092886 33.5276005,17.6745381 33.712863,17.819989 C33.8981256,17.9654399 34.1684999,17.9360128 34.3167609,17.7542618 L36.6606193,14.8809608 C36.8088804,14.6992098 36.7788847,14.4339603 36.5936222,14.2885094 C36.4083596,14.1430585 36.1379854,14.1724856 35.9897243,14.3542366 Z M38.6966138,14.5244736 L34.6140239,19.5309829 C34.465794,19.7127583 34.495835,19.9780029 34.6811224,20.1234233 C34.8664099,20.2688437 35.1367792,20.239372 35.2850091,20.0575966 L39.3675989,15.0510873 C39.5158289,14.8693119 39.4857878,14.6040672 39.3005004,14.4586469 C39.115213,14.3132265 38.8448437,14.3426981 38.6966138,14.5244736 Z" id="glasses" fill="#FFFFFF" fill-rule="nonzero"></path>
                <path d="M15.395,37.23 C14.445,37.23 13.625,36.79 13.125,36.11 L14.065,35.16 C14.345,35.52 14.805,35.91 15.415,35.91 C15.985,35.91 16.375,35.57 16.375,35.03 C16.375,34.45 15.915,34.31 15.185,34.1 C13.845,33.71 13.305,33.01 13.305,32.11 C13.305,30.98 14.165,30 15.525,30 C16.385,30 17.175,30.4 17.525,31.18 L16.395,31.89 C16.185,31.54 15.885,31.31 15.485,31.31 C15.015,31.31 14.715,31.63 14.715,32.04 C14.715,32.53 15.145,32.68 15.835,32.88 C16.915,33.2 17.795,33.74 17.795,34.98 C17.795,36.32 16.755,37.23 15.395,37.23 Z M23.1716666,34.64 C23.1716666,34.75 23.1716666,34.83 23.1516666,34.98 C21.8516666,34.99 20.6116666,35.14 19.7516666,35.38 C19.9716666,35.77 20.3716666,36.01 20.9016666,36.01 C21.3816666,36.01 21.8516666,35.81 22.1916666,35.47 L22.9016666,36.4 C22.4116666,36.93 21.6816666,37.23 20.9016666,37.23 C19.4016666,37.23 18.2816666,36.13 18.2816666,34.67 C18.2816666,33.23 19.3716666,32.13 20.8116666,32.13 C22.2016666,32.13 23.1616666,33.14 23.1716666,34.64 Z M20.7716666,33.35 C20.1516666,33.35 19.7116666,33.77 19.6116666,34.4 C20.2716666,34.21 21.0416666,34.09 21.7916666,34.06 C21.6616666,33.62 21.2816666,33.35 20.7716666,33.35 Z M26.7383333,32.15 C28.0683333,32.15 28.8483333,33.1 28.8483333,34.31 L28.8483333,37.1 L27.4883333,37.1 L27.4883333,34.56 C27.4883333,33.81 27.0183333,33.39 26.3883333,33.39 C25.7583333,33.39 25.2883333,33.81 25.2883333,34.56 L25.2883333,37.1 L23.9283333,37.1 L23.9283333,32.26 L25.2483333,32.26 L25.2483333,32.78 C25.5883333,32.39 26.0783333,32.15 26.7383333,32.15 Z M33.4449999,32.26 L34.7649999,32.26 L34.7649999,37.1 L33.4449999,37.1 L33.4449999,36.63 C33.0949999,37 32.6149999,37.2 32.0149999,37.2 C30.6149999,37.2 29.5049999,36.08 29.5049999,34.68 C29.5049999,33.28 30.6149999,32.16 32.0149999,32.16 C32.6149999,32.16 33.0949999,32.36 33.4449999,32.73 L33.4449999,32.26 Z M32.1549999,35.93 C32.8749999,35.93 33.4449999,35.38 33.4449999,34.68 C33.4449999,33.98 32.8749999,33.43 32.1549999,33.43 C31.4349999,33.43 30.8649999,33.98 30.8649999,34.68 C30.8649999,35.38 31.4349999,35.93 32.1549999,35.93 Z M37.2116666,32.81 C37.4816666,32.37 37.9216666,32.16 38.5416666,32.18 L38.5416666,33.64 C37.7216666,33.64 37.2516666,34.09 37.2516666,34.89 L37.2516666,37.1 L35.8916666,37.1 L35.8916666,32.26 L37.2116666,32.26 L37.2116666,32.81 Z M43.7283332,34.64 C43.7283332,34.75 43.7283332,34.83 43.7083332,34.98 C42.4083332,34.99 41.1683332,35.14 40.3083332,35.38 C40.5283332,35.77 40.9283332,36.01 41.4583332,36.01 C41.9383332,36.01 42.4083332,35.81 42.7483333,35.47 L43.4583332,36.4 C42.9683332,36.93 42.2383332,37.23 41.4583332,37.23 C39.9583332,37.23 38.8383332,36.13 38.8383332,34.67 C38.8383332,33.23 39.9283332,32.13 41.3683332,32.13 C42.7583332,32.13 43.7183332,33.14 43.7283332,34.64 Z M41.3283333,33.35 C40.7083332,33.35 40.2683332,33.77 40.1683333,34.4 C40.8283333,34.21 41.5983333,34.09 42.3483333,34.06 C42.2183333,33.62 41.8383333,33.35 41.3283333,33.35 Z M45.1649999,37.18 C44.6649999,37.18 44.2549999,36.77 44.2549999,36.27 C44.2549999,35.77 44.6649999,35.36 45.1649999,35.36 C45.6649999,35.36 46.0749999,35.77 46.0749999,36.27 C46.0749999,36.77 45.6649999,37.18 45.1649999,37.18 Z" id="name-Senare." fill="#FFFFFF"></path>
            </g>
        </g>
    </g>
</svg>