<?xml version="1.0" encoding="UTF-8"?>
<svg width="80px" height="80px" viewBox="0 0 80 80" version="1.1" xmlns="http://www.w3.org/2000/svg" xmlns:xlink="http://www.w3.org/1999/xlink">
    <!-- Generator: Sketch 50.2 (55047) - http://www.bohemiancoding.com/sketch -->
    <title>ic-payments-edenred-xs</title>
    <desc>Created with Sketch.</desc>
    <defs></defs>
    <g id="ic-payments-edenred-xs" stroke="none" stroke-width="1" fill="none" fill-rule="evenodd">
        <g id="icons/payments/ic-payments-edenred-xs" transform="translate(10.000000, 18.000000)">
            <g id="-g-">
                <path d="M3.75,0.5 C1.95507456,0.5 0.5,1.95507456 0.5,3.75 L0.5,41.25 C0.5,43.0449254 1.95507456,44.5 3.75,44.5 L56.25,44.5 C58.0449254,44.5 59.5,43.0449254 59.5,41.25 L59.5,3.75 C59.5,1.95507456 58.0449254,0.5 56.25,0.5 L3.75,0.5 Z" id="card" stroke="#DCDCDC" fill="#F7F7F7"></path>
                <path d="M22.4369364,21.8509449 C22.6068941,21.1060297 23.1557924,20.5440381 24.0184195,20.5440381 C24.8288008,20.5440381 25.4038856,21.0275975 25.5085042,21.8509449 L22.4369364,21.8509449 Z M15.8106356,20.8707076 C16.8954661,20.8707076 17.6274153,21.6026568 17.6274153,22.6874873 C17.6274153,23.7724449 16.8954661,24.5173602 15.8106356,24.5173602 C14.7259322,24.5173602 14.0200424,23.7331653 14.0200424,22.6874873 C14.0200424,21.6288432 14.7127119,20.8707076 15.8106356,20.8707076 Z" id="Combined-Shape" fill="#E1001A"></path>
                <path d="M24.6849788,24.7396271 C25.2731568,24.7396271 25.8182415,24.5696695 26.3279873,24.3343729 L26.1619703,25.9158559 C25.5868856,26.1511525 24.8942161,26.2425508 24.2014195,26.2425508 C21.9010805,26.2425508 20.2803178,24.8963644 20.2803178,22.6089915 C20.2803178,20.6223814 21.7311229,19.1324237 23.9530297,19.1324237 C26.4626059,19.1324237 27.7172669,20.727 27.6650212,23.1843305 L22.4892585,23.1843305 C22.6854025,24.3081864 23.7571398,24.7396271 24.6849788,24.7396271 Z M19.6402754,22.2822966 C19.6402754,24.7787797 18.1632839,26.2425508 15.7191737,26.2425508 C13.4579873,26.2425508 11.92875,24.7264068 11.92875,22.6875508 C11.92875,20.5570424 13.3795551,19.1324237 15.5492161,19.1324237 C16.5425212,19.1324237 17.2744703,19.5244576 17.6404449,19.9166186 L17.6404449,16.8843305 L19.6402754,16.8843305 L19.6402754,22.2822966 Z M34.8332415,21.5005169 C35.0427331,19.7911525 36.3271398,19.1324237 37.9756144,19.1324237 C38.4070551,19.1324237 38.9690466,19.2500085 39.1911229,19.2761949 L38.8121822,21.0276356 C38.6815042,20.9621695 38.3155297,20.8706441 38.0148941,20.8706441 C37.0608686,20.8706441 36.7993856,21.4981017 36.7993856,22.4784407 L36.7993856,26.112 L34.7874788,26.112 L34.7882415,21.981661 C34.7882415,20.0080169 33.3504025,19.1324237 31.4422246,19.1324237 C29.5337924,19.1324237 28.0962076,20.0080169 28.0962076,21.981661 L28.0962076,26.112 L30.095911,26.112 L30.095911,22.4784407 C30.095911,21.4981017 30.4748517,20.8706441 31.4422246,20.8706441 C32.4093432,20.8706441 32.7885381,21.4981017 32.7885381,22.4784407 L32.7885381,26.112 L34.7874788,26.112 C33.1735805,32.5806864 27.2869703,37.3739492 20.3184534,37.3739492 C13.5057839,37.3739492 7.76713983,32.7918305 6.00565678,26.5425508 C5.9921822,26.5055593 5.84052966,25.9805593 5.72141949,25.3606017 C5.70019068,25.2502627 5.65277542,24.9534407 5.62506356,24.732 C5.64273305,24.7998814 5.64425847,24.8056017 5.66625,24.8930593 C5.75052966,25.2280169 5.92175847,25.4312797 5.93205508,25.4439915 C6.3521822,25.9904746 7.03125,26.0645847 7.03125,26.0630593 C7.20387712,26.0944576 7.38552966,26.112 7.57658898,26.112 L11.4976907,26.112 L11.7852331,24.3343729 L8.24319915,24.3343729 C7.69417373,24.3343729 7.40675847,24.0206441 7.40675847,23.354161 L7.40675847,22.2561102 L10.8702331,22.2561102 L11.1577754,20.5440763 L7.40675847,20.5440763 L7.40675847,18.6618305 L11.5499364,18.6618305 L11.8243856,16.8843305 L6.54552966,16.8843305 C8.76197034,11.454839 14.0918008,7.62716949 20.3184534,7.62716949 C28.1967585,7.62716949 34.3097669,13.7526356 34.8332415,21.5005169 Z M42.5109788,19.132411 C45.0205551,19.132411 46.2752161,20.7269873 46.2229703,23.1841907 L41.0469534,23.1841907 C41.2430975,24.3081737 42.3149619,24.7396144 43.242928,24.7396144 C43.8311059,24.7396144 44.3760636,24.5695297 44.8856822,24.3344873 L44.7199195,25.9158432 C44.1447076,26.1512669 43.4520381,26.2425381 42.7593686,26.2425381 C40.4589025,26.2425381 38.8381398,24.8964788 38.8381398,22.6089788 C38.8381398,20.6223686 40.2889449,19.132411 42.5109788,19.132411 Z M40.9948347,21.8509703 L44.0662754,21.8509703 C43.9617839,21.0276229 43.386572,20.5440636 42.5761907,20.5440636 C41.7136907,20.5440636 41.1646653,21.1060551 40.9948347,21.8509703 Z M52.1563856,16.8843305 L54.156089,16.8843305 L54.156089,22.2822966 C54.156089,24.7787797 52.6792246,26.2425508 50.2349873,26.2425508 C47.9738008,26.2425508 46.4446907,24.7265339 46.4446907,22.6874237 C46.4446907,20.5570424 47.8954958,19.1324237 50.0650297,19.1324237 C51.0584619,19.1324237 51.790411,19.5244576 52.1563856,19.9166186 L52.1563856,16.8843305 Z M50.3265127,24.5172966 C51.4113432,24.5172966 52.1432924,23.7723814 52.1432924,22.6874237 C52.1432924,21.6027203 51.4113432,20.8706441 50.3265127,20.8706441 C49.228589,20.8706441 48.5357924,21.6287797 48.5357924,22.6874237 C48.5357924,23.7331017 49.2416822,24.5172966 50.3265127,24.5172966 Z" id="Combined-Shape" fill="#E1001A"></path>
            </g>
        </g>
    </g>
</svg>