<?xml version="1.0" encoding="UTF-8"?>
<svg width="80px" height="80px" viewBox="0 0 80 80" version="1.1" xmlns="http://www.w3.org/2000/svg" xmlns:xlink="http://www.w3.org/1999/xlink">
    <!-- Generator: Sketch 50.2 (55047) - http://www.bohemiancoding.com/sketch -->
    <title>ic-payments-master-xs</title>
    <desc>Created with Sketch.</desc>
    <defs></defs>
    <g id="ic-payments-master-xs" stroke="none" stroke-width="1" fill="none" fill-rule="evenodd">
        <g id="icons/payments/ic-payments-master-xs" transform="translate(10.000000, 18.000000)">
            <g id="-g-">
                <path d="M3.75,0 L56.25,0 C58.3210678,0 60,1.67893219 60,3.75 L60,41.25 C60,43.3210678 58.3210678,45 56.25,45 L3.75,45 C1.67893219,45 2.53632657e-16,43.3210678 0,41.25 L0,3.75 C-2.53632657e-16,1.67893219 1.67893219,0 3.75,0 Z" id="card" fill="#000000"></path>
                <path d="M19.091199,37.315051 L18.4215561,37.3278061 L18.4215561,35.6313776 C18.4215561,35.1147959 18.2047194,34.8278061 17.7519133,34.8278061 C17.539529,34.8174945 17.3335115,34.9019197 17.1894393,35.0583057 C17.0453671,35.2146918 16.9780834,35.4269269 17.0057398,35.6377551 L17.0057398,37.3278061 L16.3360969,37.3278061 L16.3360969,35.6313776 C16.3360969,35.1147959 16.1128827,34.8278061 15.6728316,34.8278061 C15.4601114,34.8163347 15.2533727,34.9004088 15.1090329,35.0570853 C14.9646931,35.2137619 14.8978184,35.4266869 14.9266582,35.6377551 L14.9266582,37.315051 L14.2570153,37.315051 L14.2570153,34.2665816 L14.9202806,34.2665816 L14.9202806,34.6428571 C15.1165694,34.3442967 15.4562874,34.1720112 15.8131378,34.190051 C16.2229842,34.1724348 16.6096288,34.3804398 16.8207908,34.7321429 C17.052401,34.3696313 17.4629573,34.1619094 17.8922194,34.190051 C18.2179516,34.1709393 18.5361576,34.2929129 18.7656572,34.524854 C18.9951568,34.7567951 19.1137564,35.076274 19.091199,35.4017857 L19.091199,37.315051 Z M28.9987245,34.2665816 L29.005102,34.872449 L27.9209184,34.872449 L27.9209184,36.2627551 C27.9209184,36.5688776 28.0420918,36.7729592 28.3609694,36.7729592 C28.5679626,36.7661042 28.7698352,36.706859 28.9477041,36.6007653 L29.1390306,37.1683673 C28.8904042,37.3235261 28.6030161,37.4053212 28.309949,37.4043367 C27.5255102,37.4043367 27.2512755,36.9834184 27.2512755,36.2755102 L27.2512755,34.872449 L26.6326531,34.872449 L26.6326531,34.2665816 L27.2385204,34.2665816 L27.2385204,33.3418367 L27.9081633,33.3418367 L27.9081633,34.2665816 L28.9987245,34.2665816 Z M34.6556122,34.190051 L34.6428571,34.1772959 C34.8037325,34.1779796 34.9633201,34.2060153 35.1147959,34.2602041 L34.9107143,34.8979592 C34.7788951,34.8454926 34.638037,34.8194881 34.4961735,34.8214286 C34.0752551,34.8214286 33.8584184,35.1020408 33.8584184,35.6058673 L33.8584184,37.315051 L33.1951531,37.315051 L33.1951531,34.2665816 L33.8520408,34.2665816 L33.8520408,34.6364796 C34.0178517,34.3516592 34.3261854,34.1803627 34.6556122,34.190051 Z M26.1033163,34.5089286 L25.809949,35.0446429 C25.5186849,34.8770955 25.1893098,34.7870663 24.8533163,34.7831633 C24.4897959,34.7831633 24.2729592,34.9362245 24.2729592,35.1403061 C24.2729592,35.3443878 24.502551,35.4017857 24.7895408,35.440051 L25.1084184,35.4846939 C25.7716837,35.5803571 26.1734694,35.8163265 26.1734694,36.3966837 C26.1734694,36.9770408 25.6632653,37.3915816 24.7831633,37.3915816 C24.3121243,37.4045446 23.8493667,37.2659409 23.4630102,36.9961735 L23.7818878,36.4795918 C24.0745227,36.6966931 24.4316972,36.8090122 24.7959184,36.7984694 C25.2487245,36.7984694 25.4910714,36.6645408 25.4910714,36.4285714 C25.4910714,36.2563776 25.3188776,36.1607143 24.9553571,36.1096939 L24.6364796,36.065051 C23.9540816,35.9693878 23.5841837,35.6632653 23.5841837,35.1658163 C23.5841837,34.559949 24.0880102,34.190051 24.8596939,34.190051 C25.2962213,34.1750258 25.7278779,34.285707 26.1033163,34.5089286 Z M43.8679847,34.190051 L43.8552296,34.1772959 C44.0161049,34.1779796 44.1756926,34.2060153 44.3271684,34.2602041 L44.1230867,34.8979592 C43.9912675,34.8454926 43.8504095,34.8194881 43.7085459,34.8214286 C43.2876276,34.8214286 43.0707908,35.1020408 43.0707908,35.6058673 L43.0707908,37.315051 L42.4075255,37.315051 L42.4075255,34.2665816 L43.0644133,34.2665816 L43.0644133,34.6364796 C43.2302242,34.3516592 43.5385578,34.1803627 43.8679847,34.190051 Z M35.3220663,35.7844388 L35.3220663,35.7716837 C35.3061154,35.3385093 35.473439,34.9186663 35.7829668,34.6152077 C36.0924945,34.3117492 36.5155682,34.1527712 36.9483418,34.1772959 C37.3465812,34.1570345 37.7379573,34.2867347 38.0452806,34.5408163 L37.7264031,35.0765306 C37.4971208,34.9016865 37.2175327,34.8055082 36.9292092,34.8022959 C36.4208229,34.8434301 36.0292055,35.2680136 36.0292055,35.7780612 C36.0292055,36.2881089 36.4208229,36.7126924 36.9292092,36.7538265 C37.2175327,36.7506142 37.4971208,36.6544359 37.7264031,36.4795918 L38.0452806,37.0153061 C37.7379573,37.2693877 37.3465812,37.399088 36.9483418,37.3788265 C36.5155682,37.4033512 36.0924945,37.2443733 35.7829668,36.9409147 C35.473439,36.6374562 35.3061154,36.2176132 35.3220663,35.7844388 Z M41.533801,35.7844388 L41.533801,37.3022959 L40.8705357,37.3022959 L40.8705357,36.932398 C40.6420291,37.226419 40.2860256,37.392554 39.9139031,37.3788265 C39.033347,37.3788265 38.3195153,36.6649948 38.3195153,35.7844388 C38.3195153,34.9038827 39.033347,34.190051 39.9139031,34.190051 C40.2860256,34.1763236 40.6420291,34.3424586 40.8705357,34.6364796 L40.8705357,34.2665816 L41.533801,34.2665816 L41.533801,35.7844388 Z M39.0656888,35.7844388 C39.048769,36.0391469 39.1389988,36.2893466 39.3145926,36.4746283 C39.4901863,36.6599101 39.7351847,36.7634338 39.9904337,36.7602041 C40.4917199,36.7576011 40.8989827,36.3547814 40.9070842,35.8535538 C40.9151857,35.3523263 40.5211541,34.9365551 40.0202138,34.9177527 C39.5192736,34.8989504 39.0951834,35.2840142 39.0656888,35.7844388 Z M31.0618622,34.190051 L31.0714286,34.1964286 C31.9260204,34.1964286 32.5191327,34.8341837 32.5191327,35.7908163 C32.5191327,35.880102 32.5191327,35.9630102 32.5191327,36.0459184 L30.255102,36.0459184 C30.3069453,36.5005327 30.7112138,36.8312979 31.1670918,36.7920918 C31.4898284,36.7873631 31.8017736,36.6751526 32.0535714,36.4732143 L32.372449,36.9642857 C32.0164558,37.2546373 31.5652868,37.4023753 31.1065051,37.3788265 C30.2259491,37.3911543 29.5021237,36.6873162 29.4897959,35.8067602 C29.4774681,34.9262042 30.1813062,34.2023788 31.0618622,34.190051 Z M31.0618622,34.7831633 L31.0491071,34.7831633 C30.6229203,34.7686184 30.2631787,35.0972013 30.2391582,35.5229592 L31.8335459,35.5229592 C31.8293617,35.3225099 31.7456977,35.1319381 31.6009691,34.99319 C31.4562404,34.8544419 31.2623096,34.7788898 31.0618622,34.7831633 Z M47.6785714,35.7908163 L47.6785714,33.0420918 L47.0408163,33.0420918 L47.0408163,34.6364796 C46.8123097,34.3424586 46.4563062,34.1763236 46.0841837,34.190051 C45.2036276,34.190051 44.4897959,34.9038827 44.4897959,35.7844388 C44.4897959,36.6649948 45.2036276,37.3788265 46.0841837,37.3788265 C46.4563062,37.392554 46.8123097,37.226419 47.0408163,36.932398 L47.0408163,37.3022959 L47.6785714,37.3022959 L47.6785714,35.7908163 Z M48.7850765,36.8718112 C48.8265347,36.8713033 48.8676941,36.8788853 48.90625,36.8941327 C48.9428708,36.9090765 48.9763918,36.930703 49.005102,36.9579082 C49.0331216,36.9854022 49.0558236,37.0178337 49.0720663,37.0535714 C49.104707,37.1288416 49.104707,37.2142706 49.0720663,37.2895408 C49.0558236,37.3252786 49.0331216,37.35771 49.005102,37.3852041 C48.9763918,37.4124093 48.9428708,37.4340357 48.90625,37.4489796 C48.8680747,37.4658244 48.826803,37.4745132 48.7850765,37.4744898 C48.6616868,37.4735597 48.5499084,37.4015248 48.4980867,37.2895408 C48.465824,37.2141927 48.465824,37.1289196 48.4980867,37.0535714 C48.5143295,37.0178337 48.5370315,36.9854022 48.565051,36.9579082 C48.5937613,36.930703 48.6272823,36.9090765 48.6639031,36.8941327 C48.7054368,36.8776111 48.7499801,36.8700061 48.7946429,36.8718112 L48.7850765,36.8718112 Z M48.7850765,37.4107143 C48.8169035,37.4109076 48.8484137,37.4043883 48.877551,37.3915816 C48.9049861,37.3793328 48.9298674,37.362024 48.9508929,37.3405612 C49.0335768,37.2503485 49.0335768,37.1118964 48.9508929,37.0216837 C48.9299176,37.0001617 48.9050242,36.9828446 48.877551,36.9706633 C48.8483849,36.9579469 48.8168941,36.9514315 48.7850765,36.9515306 C48.7532865,36.9516986 48.7218489,36.9582029 48.692602,36.9706633 C48.6639524,36.9824107 48.6379343,36.9997561 48.6160714,37.0216837 C48.5333874,37.1118964 48.5333874,37.2503485 48.6160714,37.3405612 C48.6379881,37.3624233 48.6639922,37.3797594 48.692602,37.3915816 C48.7247735,37.4054553 48.7596307,37.4119911 48.7946429,37.4107143 L48.7850765,37.4107143 Z M48.8042092,37.03125 C48.8339768,37.0298064 48.8633102,37.0388321 48.8871173,37.0567602 C48.9069204,37.0731492 48.9176057,37.0980816 48.9158163,37.1237245 C48.916742,37.1451388 48.9086449,37.1659598 48.8934949,37.1811224 C48.8750122,37.1979101 48.8514339,37.208015 48.8265306,37.2098214 L48.9190051,37.315051 L48.8456633,37.315051 L48.7595663,37.2098214 L48.7308673,37.2098214 L48.7308673,37.315051 L48.6702806,37.315051 L48.6702806,37.0344388 L48.8042092,37.03125 Z M48.7340561,37.0854592 L48.7340561,37.1619898 L48.8042092,37.1619898 C48.8166928,37.1657117 48.8299909,37.1657117 48.8424745,37.1619898 C48.8470226,37.152964 48.8470226,37.1423166 48.8424745,37.1332908 C48.8470226,37.1242651 48.8470226,37.1136176 48.8424745,37.1045918 C48.8299909,37.1008699 48.8166928,37.1008699 48.8042092,37.1045918 L48.7340561,37.0854592 Z M45.2264031,35.7908163 C45.2558976,35.2903918 45.6799879,34.9053279 46.1809281,34.9241303 C46.6818683,34.9429326 47.0759,35.3587039 47.0677984,35.8599314 C47.0596969,36.3611589 46.6524342,36.7639786 46.151148,36.7665816 C45.8958989,36.7698113 45.6509006,36.6662876 45.4753068,36.4810059 C45.2997131,36.2957242 45.2094833,36.0455244 45.2264031,35.7908163 Z M22.8316327,35.7908163 L22.8316327,37.3022959 L22.1683673,37.3022959 L22.1683673,36.932398 C21.9398608,37.226419 21.5838572,37.392554 21.2117347,37.3788265 C20.3311787,37.3788265 19.6173469,36.6649948 19.6173469,35.7844388 C19.6173469,34.9038827 20.3311787,34.190051 21.2117347,34.190051 C21.5838572,34.1763236 21.9398608,34.3424586 22.1683673,34.6364796 L22.1683673,34.2665816 L22.8316327,34.2665816 L22.8316327,35.7908163 Z M20.3635204,35.7908163 L20.3571429,35.7908163 C20.3401194,36.046649 20.4311963,36.2978903 20.6082043,36.483385 C20.7852123,36.6688798 21.0319163,36.7716143 21.2882653,36.7665816 C21.7895515,36.7639786 22.1968143,36.3611589 22.2049158,35.8599314 C22.2130173,35.3587039 21.8189857,34.9429326 21.3180454,34.9241303 C20.8171052,34.9053279 20.393015,35.2903918 20.3635204,35.7908163 Z" id="Shape" fill="#FFFFFF" fill-rule="nonzero"></path>
                <rect id="Rectangle-path" fill="#FF5F00" fill-rule="nonzero" x="25.8832908" y="11.036352" width="10.0446429" height="18.0516582"></rect>
                <path d="M26.5210459,20.0637755 C26.5172904,16.5406544 28.1341976,13.2115894 30.9056122,11.036352 C26.1989127,7.33738896 19.4399035,7.87617492 15.3786345,12.2740656 C11.3173656,16.6719563 11.3173656,23.4524059 15.3786345,27.8502966 C19.4399035,32.2481873 26.1989127,32.7869733 30.9056122,29.0880102 C28.1350793,26.9134634 26.5182708,23.5857776 26.5210459,20.0637755 Z" id="_Path_" fill="#EB001B" fill-rule="nonzero"></path>
                <path d="M49.4802296,20.0637755 C49.4801271,24.4589861 46.9704786,28.4683196 43.0171414,30.3889968 C39.0638041,32.3096739 34.3608386,31.8044945 30.9056122,29.0880102 C33.6749363,26.9116173 35.2918665,23.5843739 35.2918665,20.0621811 C35.2918665,16.5399884 33.6749363,13.212745 30.9056122,11.036352 C34.3608386,8.31986772 39.0638041,7.81468832 43.0171414,9.73536547 C46.9704786,11.6560426 49.4801271,15.6653762 49.4802296,20.0605867 L49.4802296,20.0637755 Z" id="Shape" fill="#F79E1B" fill-rule="nonzero"></path>
                <path d="M48.6324224,27.6591674 L48.6324224,26.8878908 L48.9449224,26.8878908 L48.9449224,26.7283163 L48.153699,26.7283163 L48.153699,26.8878908 L48.4927947,26.8878908 L48.4927947,27.6591674 L48.6324224,27.6591674 Z M50.1683266,27.6591674 L50.1683266,26.7283163 L49.9289649,26.7283163 L49.6497096,27.3932099 L49.3704543,26.7283163 L49.1576883,26.7283163 L49.1576883,27.6591674 L49.3305607,27.6591674 L49.3305607,26.9610291 L49.5898692,27.5660823 L49.7693905,27.5660823 L50.028699,26.9610291 L50.028699,27.6658163 L50.1683266,27.6591674 Z" id="Shape" fill="#F79E1B" fill-rule="nonzero"></path>
            </g>
        </g>
    </g>
</svg>