<?xml version="1.0" encoding="UTF-8"?>
<svg width="80px" height="80px" viewBox="0 0 80 80" version="1.1" xmlns="http://www.w3.org/2000/svg" xmlns:xlink="http://www.w3.org/1999/xlink">
    <!-- Generator: Sketch 50.2 (55047) - http://www.bohemiancoding.com/sketch -->
    <title>ic-payments-slice-xs</title>
    <desc>Created with Sketch.</desc>
    <defs></defs>
    <g id="ic-payments-slice-xs" stroke="none" stroke-width="1" fill="none" fill-rule="evenodd">
        <g id="icons/payments/ic-payments-slice-xs" transform="translate(10.000000, 18.000000)">
            <g id="-g-">
                <path d="M3.75,0 L56.25,0 C58.3210678,-3.80448985e-16 60,1.67893219 60,3.75 L60,41.25 C60,43.3210678 58.3210678,45 56.25,45 L3.75,45 C1.67893219,45 2.53632657e-16,43.3210678 0,41.25 L0,3.75 C-2.53632657e-16,1.67893219 1.67893219,3.80448985e-16 3.75,0 Z" id="card" fill="#EB6F93"></path>
                <path d="M19.0114319,30 C19.0114319,31.5806862 18.3910301,33.0510919 17.2905553,34.1391922 L19.6170623,37.2932125 L17.5416704,37.2932125 L15.0157485,33.8671671 L15.6656933,33.3819332 C16.7440108,32.57321 17.3644127,31.3454213 17.3644127,30 L19.0114319,30 Z M13.125,30 L14.8089479,30 L14.8089479,37.2932125 L13.125,37.2932125 L13.125,30 Z M20.1045209,30 L21.6924542,30 L21.6924542,37.2932125 L20.1045209,37.2932125 L20.1045209,30 Z M35.6219532,32.1100322 C36.8405997,32.1100322 37.7785882,32.9114034 37.7785882,34.087728 L37.7785882,37.3005645 L36.2645122,37.3005645 L36.2645122,34.6391301 C36.2645122,33.9039272 35.8804539,33.5069177 35.2157376,33.5069177 C34.5953358,33.5069177 34.0783342,33.8818712 34.0783342,34.6464821 L34.0783342,37.2932125 L32.5494868,37.2932125 L32.5494868,32.2497208 L34.056177,32.2497208 L34.056177,32.815827 C34.4402353,32.293833 35.0163228,32.1100322 35.6219532,32.1100322 Z M30.3559231,32.9040513 C30.6587383,32.5143938 31.22744,32.2497208 31.8404561,32.2497208 L31.8404561,33.7201265 C31.8404561,33.7201265 31.8330704,33.7201265 31.8256846,33.7201265 C31.22744,33.7201265 30.3633088,34.1465442 30.3633088,34.9405633 L30.3633088,37.2932125 L28.8049185,37.2932125 L28.8049185,32.2497208 L30.3559231,32.2497208 L30.3559231,32.9040513 Z M45.6222402,35.5066695 C46.1466275,35.5066695 46.5750003,35.9257351 46.5750003,36.4550812 C46.5750003,36.9770752 46.1466275,37.4034929 45.6222402,37.4034929 C45.097853,37.4034929 44.6694803,36.9770752 44.6694803,36.4550812 C44.6694803,35.9330872 45.097853,35.5066695 45.6222402,35.5066695 Z M26.4931829,32.2497208 L28.0072589,32.2497208 L28.0072589,37.2932125 L26.4931829,37.2932125 L26.4931829,36.9697232 C26.0648102,37.2638044 25.5478086,37.432901 24.9864927,37.432901 C23.5093454,37.432901 22.3128561,36.2418723 22.3128561,34.7714666 C22.3128561,33.3010609 23.5093454,32.1100322 24.9864927,32.1100322 C25.5478086,32.1100322 26.0648102,32.2791289 26.4931829,32.57321 L26.4931829,32.2497208 Z M25.1120502,36.0654237 C25.872781,36.0654237 26.4857972,35.4846134 26.4857972,34.7714666 C26.4857972,34.0583198 25.872781,33.4775096 25.1120502,33.4775096 C24.3513194,33.4775096 23.7383032,34.0583198 23.7383032,34.7714666 C23.7383032,35.4846134 24.3513194,36.0654237 25.1120502,36.0654237 Z M42.490688,32.2497208 L44.004764,32.2497208 L44.004764,37.2932125 L42.490688,37.2932125 L42.490688,36.9697232 C42.0623153,37.2638044 41.5453138,37.432901 40.9839978,37.432901 C39.5068505,37.432901 38.3103612,36.2418723 38.3103612,34.7714666 C38.3103612,33.3010609 39.5068505,32.1100322 40.9839978,32.1100322 C41.5453138,32.1100322 42.0623153,32.2791289 42.490688,32.57321 L42.490688,32.2497208 Z M41.1095553,36.0654237 C41.8702862,36.0654237 42.490688,35.4846134 42.4833023,34.7714666 C42.4833023,34.0583198 41.8702862,33.4775096 41.1095553,33.4775096 C40.3488245,33.4775096 39.7358083,34.0583198 39.7358083,34.7714666 C39.7358083,35.4846134 40.3488245,36.0654237 41.1095553,36.0654237 Z" id="name-klarna" fill="#FFFFFF" fill-rule="nonzero"></path>
                <path d="M27.0525239,22.4185276 C27.8651842,20.8507784 29.5833945,19.9264007 31.3791711,20.122217 C33.2753257,20.3289787 34.8101734,21.7358367 35.1569807,23.5848745 C35.1698415,23.6533081 35.1810139,23.7220247 35.1904902,23.7909635 L40.1934003,24.6346845 L29.2249849,9.32966695 C29.1503995,9.40711733 29.0664053,9.49822934 28.9595332,9.61679091 C28.9165922,9.6644287 28.7587041,9.84058321 28.762644,9.83619474 C28.6805419,9.92764251 28.6170384,9.99776706 28.5538174,10.0665152 C27.6902504,11.0055805 27.0384599,11.4693129 26.2318292,11.4809625 C24.5738948,11.5080005 23.8469308,12.4532489 23.8927415,13.8621746 C23.8963805,13.9713815 23.9034689,14.0680955 23.9171237,14.2136123 C23.9458182,14.519406 23.9501919,14.5801666 23.9468025,14.7232783 C23.9292646,15.4637851 23.500101,16.1332675 22.0370487,17.6913796 C20.7795052,19.0318968 20.6877287,20.4938295 21.294068,21.4473868 L27.0525239,22.4185276 Z M27.9645544,22.572338 L34.2782405,23.6371162 C33.9644211,22.2123204 32.7613427,21.1378074 31.283289,20.9766365 C29.9428267,20.830469 28.6564974,21.4660772 27.9645544,22.572338 Z M20.2476405,21.2709109 C19.8166674,20.051707 20.1010644,18.4889561 21.3969222,17.1075967 C22.7194632,15.6991252 23.0641251,15.1614631 23.0749781,14.7032147 C23.0772402,14.6077002 23.0736879,14.5583501 23.0487686,14.2927891 C23.0336578,14.1317551 23.0254693,14.0200328 23.0211383,13.890054 C22.9609423,12.0387099 24.0234004,10.6572292 26.2182284,10.6214361 C26.6995898,10.6144837 27.2007922,10.2578909 27.9077095,9.48917062 C27.9682032,9.42338821 28.0295973,9.35559292 28.1095992,9.26648448 C28.1049188,9.27169768 28.263734,9.09450889 28.3076385,9.04580214 C28.4687526,8.86706574 28.5835308,8.74424013 28.695387,8.63335893 C28.7013595,8.62743857 28.7074633,8.6217255 28.7136895,8.61621976 L27.3094553,6.65679098 C22.5443364,10.1003626 19.283215,15.2002681 18.1867461,20.9233493 L20.2476405,21.2709109 Z M17.2501545,21.2020869 C18.3274169,14.9408141 21.8947265,9.36211412 27.1607363,5.70352669 C27.357421,5.56687897 27.629222,5.61312151 27.7680607,5.80685308 L41.512249,24.9851059 C41.736275,25.2977056 41.4652976,25.7213062 41.0825893,25.656764 L17.6065167,21.6976171 C17.3693945,21.6576274 17.2099288,21.4358866 17.2501545,21.2020869 Z M26.2461541,19.1448357 C26.4825695,19.1899949 26.637084,19.4155245 26.5912717,19.6485699 C26.5454594,19.8816154 26.3166687,20.0339274 26.0802532,19.9887681 C25.1168302,19.8047386 24.1224036,20.0885648 23.4077722,20.7515395 C23.2324079,20.9142277 22.9564553,20.9059781 22.7914146,20.7331136 C22.6263739,20.5602491 22.6347428,20.2882299 22.810107,20.1255418 C23.7289188,19.2731457 25.0074673,18.9082262 26.2461541,19.1448357 Z M32.2355065,17.6870488 C32.158099,17.4622662 32.2802053,17.2181872 32.5082384,17.1418831 C32.7362715,17.065579 32.9838801,17.1859447 33.0612876,17.4107274 C33.3769892,18.3274899 34.1209357,19.0384899 35.0602747,19.3211873 C35.290593,19.3905024 35.4202993,19.6307417 35.3499819,19.8577769 C35.2796644,20.0848121 35.0359511,20.2126695 34.8056328,20.1433545 C33.5979113,19.7798864 32.6414087,18.8657435 32.2355065,17.6870488 Z M28.4001654,18.542207 C26.6534212,18.542207 25.2374053,17.1463755 25.2374053,15.4245302 C25.2374053,13.7026848 26.6534212,12.3068533 28.4001654,12.3068533 C30.1469095,12.3068533 31.5629254,13.7026848 31.5629254,15.4245302 C31.5629254,17.1463755 30.1469095,18.542207 28.4001654,18.542207 Z M28.4001654,17.6825757 C29.665283,17.6825757 30.6908634,16.6716143 30.6908634,15.4245302 C30.6908634,14.1774461 29.665283,13.1664846 28.4001654,13.1664846 C27.1350478,13.1664846 26.1094674,14.1774461 26.1094674,15.4245302 C26.1094674,16.6716143 27.1350478,17.6825757 28.4001654,17.6825757 Z" id="pizza" fill="#FFFFFF" fill-rule="nonzero"></path>
            </g>
        </g>
    </g>
</svg>