<?xml version="1.0" encoding="UTF-8"?>
<svg width="80px" height="80px" viewBox="0 0 80 80" version="1.1" xmlns="http://www.w3.org/2000/svg" xmlns:xlink="http://www.w3.org/1999/xlink">
    <!-- Generator: Sketch 50.2 (55047) - http://www.bohemiancoding.com/sketch -->
    <title>ic-payments-ideal-xs</title>
    <desc>Created with Sketch.</desc>
    <defs></defs>
    <g id="ic-payments-ideal-xs" stroke="none" stroke-width="1" fill="none" fill-rule="evenodd">
        <g id="icons/payments/ic-payments-ideal-xs" transform="translate(10.000000, 18.000000)">
            <g id="-g-">
                <path d="M3.75,0.5 C1.95507456,0.5 0.5,1.95507456 0.5,3.75 L0.5,41.25 C0.5,43.0449254 1.95507456,44.5 3.75,44.5 L56.25,44.5 C58.0449254,44.5 59.5,43.0449254 59.5,41.25 L59.5,3.75 C59.5,1.95507456 58.0449254,0.5 56.25,0.5 L3.75,0.5 Z" id="card" stroke="#DCDCDC" fill="#F7F7F7"></path>
                <path d="M41.9758807,12.1663333 C40.6831188,11.0896667 39.2103938,10.353 37.6187941,9.84466667 C35.5368365,9.18133333 33.3921394,8.91966667 31.2177237,8.91466667 C25.6900519,8.903 20.1623801,8.90966667 14.6363593,8.90966667 C14.5983854,8.90966667 14.5604116,8.913 14.5191356,8.91466667 L14.5191356,36.0863333 L14.6974476,36.0863333 L30.6728815,36.0863333 C32.0977264,36.088 33.5159672,36.0113333 34.9243017,35.788 C36.4663703,35.543 37.9622098,35.1413333 39.3837526,34.478 C41.1437581,33.6563333 42.6379465,32.5013333 43.7821152,30.908 C45.0897365,29.0896667 45.738594,27.0246667 46.004411,24.8196667 C46.1579574,23.5413333 46.1761188,22.2596667 46.0853118,20.9763333 C45.9961558,19.7446667 45.7881251,18.5363333 45.4100376,17.3596667 C44.7496228,15.303 43.6368239,13.5513333 41.9758807,12.1663333 Z" id="Fill-1" fill="#FEFEFE"></path>
                <path d="M46.0037505,24.8193333 C45.7379336,27.0243333 45.0890761,29.0893333 43.7831058,30.9076667 C42.6389372,32.501 41.1430977,33.656 39.3830922,34.4776667 C37.9632004,35.141 36.4657099,35.5426667 34.9236413,35.7876667 C33.5153068,36.0126667 32.097066,36.0876667 30.6722211,36.0876667 C25.3476268,36.086 20.0230325,36.086 14.6967872,36.086 L14.5201263,36.086 L14.5201263,8.916 C14.5614022,8.91266667 14.597725,8.90933333 14.6356988,8.90933333 C20.1633707,8.90933333 25.6910425,8.90266667 31.2170633,8.91433333 C33.391479,8.91933333 35.5361761,9.181 37.6197847,9.846 C39.2113844,10.3526667 40.6824583,11.0893333 41.9752203,12.1676667 C43.6361635,13.551 44.7506135,15.3026667 45.4093772,17.3593333 C45.7874647,18.536 45.9954954,19.7443333 46.0846514,20.976 C46.1771094,22.261 46.157297,23.541 46.0037505,24.8193333 M46.5188741,16.3126667 C45.7230743,14.1576667 44.4732393,12.3293333 42.6835152,10.891 C41.2157433,9.70933333 39.551498,8.91766667 37.7584718,8.38933333 C35.577452,7.746 33.3419479,7.50433333 31.0783762,7.50266667 C25.1428982,7.49766667 19.2074203,7.501 13.2702913,7.501 L13.125,7.501 L13.125,37.4993333 L13.2554319,37.4993333 C19.1182643,37.4993333 24.9810966,37.501 30.8439289,37.4993333 C32.4619452,37.4976667 34.0700552,37.3826667 35.6649569,37.0893333 C37.4563321,36.7593333 39.1783636,36.2193333 40.7864737,35.341 C43.0302329,34.116 44.7621707,32.381 45.9195477,30.0793333 C46.9283313,28.076 47.3790644,25.9293333 47.5012411,23.7026667 C47.5623295,22.5793333 47.5458191,21.4593333 47.4285955,20.3393333 C47.2833042,18.9593333 46.9993258,17.6126667 46.5188741,16.3126667" id="Fill-3" fill="#010101"></path>
                <path d="M29.1415447,22.775 L32.8563779,22.775 L32.8563779,21.2566667 L30.6489415,21.2566667 L30.6489415,20.415 L32.6186286,20.415 L32.6186286,18.895 L30.6456394,18.895 L30.6456394,18.1916667 L32.7358522,18.1916667 L32.7358522,16.675 L29.1415447,16.675 L29.1415447,22.775 Z M39.3829271,22.7816667 L37.5634844,16.6633333 L35.4171363,16.6633333 C35.4171363,16.6633333 34.3010353,20.405 33.7594952,22.2116667 C33.7050109,22.3966667 33.6521777,22.5833333 33.5927404,22.7816667 C34.109515,22.7816667 35.1612256,22.775 35.1612256,22.775 L35.5029902,21.5983333 L37.4743284,21.6066667 L37.8193951,22.7833333 C37.8193951,22.7833333 38.3543311,22.7816667 38.5656638,22.7816667 L39.3829271,22.7816667 L39.3829271,22.7816667 Z M24.5962399,22.78 C24.647422,22.78 25.7139919,22.7883333 26.1845375,22.7066667 C27.1223265,22.545 27.7563247,21.97 28.0568134,21.0616667 C28.3754635,20.1 28.3787656,19.1283333 27.9792147,18.19 C27.5862679,17.27 26.8548585,16.79 25.8807467,16.695 C25.5092633,16.6583333 24.6589793,16.6683333 24.5978909,16.6683333 L24.5978909,11.1316667 C24.6424689,11.1283333 24.6787917,11.125 24.7167656,11.125 C26.8482543,11.125 28.9813941,11.1183333 31.1128829,11.1283333 C32.8976538,11.1383333 34.6642634,11.3116667 36.3895971,11.7983333 C38.0158685,12.255 39.511708,12.9683333 40.7780534,14.12 C42.1203464,15.34 42.9689795,16.86 43.4510823,18.6033333 C43.6805764,19.4316667 43.8126594,20.2783333 43.886956,21.135 C43.8902581,21.1716667 43.886956,21.2166667 43.886956,21.26 C43.8291697,21.2616667 41.6580561,21.2616667 41.6580561,21.2616667 C41.6580561,21.2616667 41.6597071,18.2716667 41.6597071,16.845 L41.6597071,16.6733333 L40.1589145,16.6733333 L40.1589145,22.7766667 L43.9150237,22.7766667 C43.9150237,23.0166667 43.9249299,23.2416667 43.9133726,23.465 C43.839076,24.84 43.617837,26.185 43.1307811,27.4783333 C42.1979452,29.96 40.4676584,31.6483333 38.0604465,32.6616667 C36.7775908,33.2016667 35.4369487,33.5066667 34.064937,33.6833333 C32.9158153,33.8316667 31.7617404,33.875 30.6043635,33.8733333 C28.6610929,33.87 26.7194734,33.8716667 24.7762029,33.8716667 L24.5962399,33.8716667 L24.5962399,22.78 Z" id="Fill-6" fill="#D50272"></path>
                <polygon id="Fill-8" fill="#010101" points="16.7160054 33.8633333 21.9415375 33.8633333 21.9415375 24.4683333 16.7160054 24.4683333"></polygon>
                <path d="M16.0725963,19.724 C16.0676432,17.919 17.530462,16.4406667 19.3234882,16.434 C21.1148633,16.429 22.5826352,17.904 22.5859372,19.7123333 C22.5908904,21.524 21.1346757,23.0023333 19.3416496,23.0073333 C17.5420192,23.014 16.0775494,21.5406667 16.0725963,19.724" id="Fill-10" fill="#010101"></path>
                <path d="M25.9220226,18.2393333 C26.3397349,18.2943333 26.5774843,18.5976667 26.6798486,18.9976667 C26.8069784,19.5026667 26.8020253,20.011 26.6600361,20.5126667 C26.5296042,20.9726667 26.2258134,21.2193333 25.7536168,21.2443333 C25.3986439,21.2626667 24.5929378,21.2576667 24.5929378,21.2576667 C24.5879847,20.2743333 24.5896357,19.161 24.5912868,18.1776667 C24.5912868,18.1776667 25.4861488,18.1826667 25.9220226,18.2393333 Z M37.0344921,20.0716667 L35.9481098,20.0716667 C36.0207554,19.82 36.090099,19.575 36.1610936,19.3316667 C36.2469475,19.0333333 36.4236084,18.435 36.4236084,18.435 L36.5589935,18.435 C36.5589935,18.435 36.8726905,19.5116667 37.0344921,20.0716667 Z" id="Combined-Shape" fill="#D50272"></path>
            </g>
        </g>
    </g>
</svg>