<?xml version="1.0" encoding="UTF-8"?>
<svg width="80px" height="80px" viewBox="0 0 80 80" version="1.1" xmlns="http://www.w3.org/2000/svg" xmlns:xlink="http://www.w3.org/1999/xlink">
    <!-- Generator: Sketch 50.2 (55047) - http://www.bohemiancoding.com/sketch -->
    <title>ic-payments-visa-xs</title>
    <desc>Created with Sketch.</desc>
    <defs></defs>
    <g id="ic-payments-visa-xs" stroke="none" stroke-width="1" fill="none" fill-rule="evenodd">
        <g id="icons/payments/ic-payments-visa-xs" transform="translate(10.000000, 18.000000)">
            <g id="-g-">
                <path d="M3.75,0 L56.25,0 C58.3210678,-3.80448985e-16 60,1.67893219 60,3.75 L60,41.25 C60,43.3210678 58.3210678,45 56.25,45 L3.75,45 C1.67893219,45 2.53632657e-16,43.3210678 0,41.25 L0,3.75 C-2.53632657e-16,1.67893219 1.67893219,3.80448985e-16 3.75,0 Z" id="card" fill="#1A1F71"></path>
                <path d="M36.9158333,15.0000625 C38.316875,15.0000625 39.4420833,15.3054792 40.3177083,15.6233958 L39.67875,18.6036042 C38.0508333,17.8544375 36.6141667,17.9069375 36.0939583,17.9748542 C35.0429167,18.1121458 34.5629167,18.6479792 34.5514583,19.1519375 C34.5160417,20.8094375 39.6620833,21.0142292 39.6458333,24.7236042 C39.6339583,27.6467292 37.135625,29.5329792 33.3154167,29.5329792 C31.6889583,29.5163125 30.120625,29.1761042 29.271875,28.7863125 L29.9302083,25.7061042 C30.7754167,26.1002708 31.8366667,26.6227708 33.6645833,26.5942292 C34.71125,26.5779792 35.830625,26.1621458 35.84125,25.2186042 C35.8466667,24.6025625 35.3714583,24.1606875 33.9554167,23.4719375 C32.5770833,22.7988125 30.7477083,21.6706875 30.7716667,19.6463125 C30.7920833,16.9108958 33.321875,15.0000625 36.9158333,15.0000625 Z M46.4608333,15.2571458 L49.5645833,15.2571458 L52.5,29.3131875 L49.1370833,29.3131875 L48.6975,27.2131875 L44.0329167,27.2131875 L43.2739583,29.3131875 L39.4566667,29.3131875 L44.9129167,16.2879792 C45.1741667,15.6627708 45.7627083,15.2571458 46.4608333,15.2571458 Z M46.99375,19.0550625 L45.079375,24.3327708 L48.0954167,24.3327708 L46.99375,19.0550625 Z M26.145625,15.2571458 L29.7810417,15.2571458 L26.7741667,29.3131875 L23.1375,29.3131875 L26.145625,15.2571458 Z M20.7658333,15.2571458 L24.5852083,15.2571458 L18.69375,29.3131875 L14.8502083,29.3131875 L11.9510417,18.0954792 C11.7747917,17.4046458 11.6222917,17.1513125 11.0870833,16.8606875 C10.213125,16.3861042 8.76979167,15.9411042 7.5,15.6646458 L7.585625,15.2571458 L13.7733333,15.2571458 C14.5614583,15.2571458 15.2710417,15.7815208 15.45,16.6900625 L16.98125,24.8240208 L20.7658333,15.2571458 Z" id="Combined-Shape" fill="#FFFFFF"></path>
            </g>
        </g>
    </g>
</svg>