<?xml version="1.0" encoding="UTF-8"?>
<svg width="80px" height="80px" viewBox="0 0 80 80" version="1.1" xmlns="http://www.w3.org/2000/svg" xmlns:xlink="http://www.w3.org/1999/xlink">
    <!-- Generator: Sketch 50.2 (55047) - http://www.bohemiancoding.com/sketch -->
    <title>ic-payments-direkt-xs</title>
    <desc>Created with Sketch.</desc>
    <defs></defs>
    <g id="ic-payments-direkt-xs" stroke="none" stroke-width="1" fill="none" fill-rule="evenodd">
        <g id="icons/payments/ic-payments-direkt-xs" transform="translate(10.000000, 18.000000)">
            <g id="-g-">
                <path d="M3.75,0 L56.25,0 C58.3210678,-3.80448985e-16 60,1.67893219 60,3.75 L60,41.25 C60,43.3210678 58.3210678,45 56.25,45 L3.75,45 C1.67893219,45 2.53632657e-16,43.3210678 0,41.25 L0,3.75 C-2.53632657e-16,1.67893219 1.67893219,3.80448985e-16 3.75,0 Z" id="card" fill="#EB6F93"></path>
                <path d="M17.4104348,30.3026087 C19.6330435,30.3026087 21.2086957,31.8469565 21.2086957,33.9547826 C21.2086957,36.0521739 19.6330435,37.6069565 17.4104348,37.6069565 L15,37.6069565 L15,30.3026087 L17.4104348,30.3026087 Z M17.4104348,36.1878261 C18.7878261,36.1878261 19.6643478,35.2695652 19.6643478,33.9547826 C19.6643478,32.64 18.7878261,31.7217391 17.4104348,31.7217391 L16.5026087,31.7217391 L16.5026087,36.1878261 L17.4104348,36.1878261 Z M22.76,31.7843478 C22.2695652,31.7843478 21.8626087,31.3773913 21.8626087,30.8869565 C21.8626087,30.4069565 22.2695652,30 22.76,30 C23.24,30 23.6469565,30.4069565 23.6469565,30.8869565 C23.6469565,31.3773913 23.24,31.7843478 22.76,31.7843478 Z M22.0504347,37.6069565 L22.0504347,32.5565217 L23.4695652,32.5565217 L23.4695652,37.6069565 L22.0504347,37.6069565 Z M26.0434782,33.1304348 C26.3252173,32.6713043 26.7843477,32.4521739 27.4313043,32.4730435 L27.4313043,33.9965217 C26.5756521,33.9965217 26.0852173,34.466087 26.0852173,35.3008696 L26.0852173,37.6069565 L24.6660869,37.6069565 L24.6660869,32.5565217 L26.0434782,32.5565217 L26.0434782,33.1304348 Z M32.8434782,35.04 C32.8434782,35.1547826 32.8434782,35.2382609 32.8226086,35.3947826 C31.4660869,35.4052174 30.1721738,35.5617391 29.2747825,35.8121739 C29.5043478,36.2191304 29.9217391,36.4695652 30.4747825,36.4695652 C30.9756521,36.4695652 31.4660869,36.2608696 31.8208695,35.906087 L32.5617391,36.8765217 C32.0504347,37.4295652 31.2886956,37.7426087 30.4747825,37.7426087 C28.9095652,37.7426087 27.7408695,36.5947826 27.7408695,35.0713043 C27.7408695,33.5686957 28.8782608,32.4208696 30.3808695,32.4208696 C31.8313043,32.4208696 32.8330434,33.4747826 32.8434782,35.04 Z M30.3391304,33.693913 C29.6921738,33.693913 29.2330434,34.1321739 29.1286956,34.7895652 C29.8173912,34.5913043 30.6208695,34.466087 31.4034782,34.4347826 C31.267826,33.9756522 30.8713043,33.693913 30.3391304,33.693913 Z M37.201739,37.6069565 L35.6886955,35.5513043 L35.0521738,36.1878261 L35.0521738,37.6069565 L33.6330434,37.6069565 L33.6330434,30.3026087 L35.0521738,30.3026087 L35.0521738,34.56 L36.9826086,32.5565217 L38.7252173,32.5565217 L36.6591303,34.6434783 L38.8608695,37.6069565 L37.201739,37.6069565 Z M40.547826,35.0295652 C40.547826,35.906087 41.121739,36.3026087 41.9147825,36.2713043 L41.9147825,37.6069565 L41.7060869,37.6069565 C39.973913,37.6069565 39.1286956,36.4591304 39.1286956,35.1026087 L39.1286956,30.9286957 L40.547826,30.9286957 L40.547826,31.7217391 C40.547826,32.4104348 41.1008695,32.9217391 41.8730434,32.9426087 L41.8730434,34.2991304 C41.3095651,34.2991304 40.8608695,34.1321739 40.547826,33.7982609 L40.547826,35.0295652 Z M43.6121738,37.6904348 C43.0904347,37.6904348 42.6626086,37.2626087 42.6626086,36.7408696 C42.6626086,36.2191304 43.0904347,35.7913043 43.6121738,35.7913043 C44.1339129,35.7913043 44.561739,36.2191304 44.561739,36.7408696 C44.561739,37.2626087 44.1339129,37.6904348 43.6121738,37.6904348 Z" id="name-Direkt." fill="#FFFFFF"></path>
                <path d="M23.4930524,17.2645584 C22.9508422,16.1958897 23.119606,15.026473 23.9624349,14.4484531 L24.0822915,14.369593 C24.9980445,13.8378301 25.7963523,14.0431102 26.4771367,14.71854 L25.6939401,8.27745183 C25.429945,7.15785789 26.1177172,5.93141757 27.1644853,5.70842097 C27.7026981,5.59360178 28.2645111,5.6994713 28.7239031,6.00228179 C29.1832952,6.30509227 29.5018116,6.77949616 29.6047737,7.30407311 L30.9393406,13.005657 L32.630615,7.21045793 C32.93143,6.07987901 34.0861292,5.4011683 35.2384476,5.69248497 C36.2676505,5.99813553 36.8874347,7.0444719 36.6617552,8.086643 L34.7998246,17.3696923 L35.5992127,17.5564142 C35.8317895,17.5902175 36.1349717,17.7274975 36.4222719,18.0342499 C36.943326,18.590583 37.1956027,19.5114755 37.082178,20.8550341 C36.7200553,25.1713078 34.5947161,28.0014861 29.7278647,27.9587336 C29.7183852,27.9586503 29.7089796,27.9582624 29.6996574,27.9575792 C26.2810106,27.8956047 23.4110892,25.3796727 23.3184281,21.807629 L22.533739,21.0301521 C21.5642874,20.0567915 21.4077816,18.7085394 22.1865764,17.9086126 L22.2705194,17.820569 C22.6049919,17.4762974 23.0444015,17.2888356 23.4930524,17.2645584 Z M24.1672679,18.3109742 C23.775079,18.0265341 23.2304562,18.0712543 22.8929603,18.4186102 L22.8087075,18.5069723 C22.3882789,18.9388277 22.4831575,19.7561797 23.1437712,20.4194706 L25.5433645,22.7970588 C25.9725749,23.2102067 26.655004,23.1998553 27.0676574,22.7778255 L27.1504312,22.6909901 C27.5354451,22.2915951 27.5530605,21.6725353 27.2088614,21.2530835 C26.5769218,21.2608278 25.953139,20.9613716 25.5705108,20.3991928 L24.1672679,18.3109742 Z M28.0915579,21.028483 C28.4751766,21.7522036 28.3712073,22.6683597 27.7740414,23.2878231 L27.6891513,23.3768385 C26.9410758,24.1420021 25.7152545,24.160596 24.9398195,23.4141178 L24.2937946,22.7740307 C24.8235989,25.3620719 27.1315377,27.095903 29.8289575,27.095903 C29.8356118,27.095903 29.8422309,27.0960534 29.8488116,27.096351 C34.0978333,27.0911717 35.895856,24.6666041 36.2217018,20.782729 C36.3160586,19.6650344 36.1296458,18.9845665 35.7917922,18.6238378 C35.7071317,18.5334451 35.6203394,18.4727981 35.5369739,18.4350504 C35.4958096,18.4164114 35.4722916,18.4098943 35.4389148,18.4034733 L30.3989238,17.227277 C30.37451,17.2202682 30.3193395,17.2072126 30.2408918,17.1934761 C29.9695409,17.1459613 29.6840386,17.1389402 29.4298878,17.1954055 C29.0449467,17.2809288 28.789726,17.4952731 28.6654785,17.9128694 C28.4955261,18.4789402 28.5077768,18.9111901 28.8665039,19.2578466 C28.9593807,19.2906491 29.0347419,19.3526967 29.0849812,19.4305486 C29.3364268,19.5960905 29.6891916,19.7407599 30.1663522,19.871332 L33.4866225,20.6126514 C34.0385395,20.7358784 33.8693181,21.5613489 33.3133644,21.4578128 C33.2983281,21.4550126 33.2611367,21.4494734 33.2051542,21.44352 C32.7886505,21.3992276 32.315856,21.431862 31.8810362,21.5954125 C31.0685315,21.901023 30.5661793,22.5984156 30.5034502,23.890249 C30.4918939,24.1282376 30.2894487,24.3118046 30.0512762,24.3002572 C29.8131038,24.2887098 29.629395,24.0864209 29.6409513,23.8484321 C29.7102181,22.4219633 30.2680228,21.4789633 31.16516,20.9781471 L29.9582852,20.7085095 C29.5428449,20.5949598 29.1924108,20.4610867 28.9008008,20.3086045 C28.7625075,20.5228227 28.5815352,20.7098271 28.3657504,20.8579363 L28.269938,20.9217575 C28.211746,20.9608708 28.1522003,20.9964297 28.0915579,21.028483 Z M27.5188318,16.1316978 L28.1359664,17.0503608 C28.4025395,16.6844152 28.7844063,16.4548956 29.2424675,16.353127 C29.6233382,16.268508 30.0164218,16.2781747 30.3899425,16.34358 C30.50038,16.3629181 30.5849773,16.3829372 30.6162976,16.3924995 L33.958555,17.1731876 L35.8164218,7.91064345 C35.9479739,7.30300746 35.5888295,6.69669013 35.0096747,6.52430831 C34.3329279,6.35344443 33.6444864,6.75809755 33.4623706,7.44208054 L31.3096678,14.8188166 C31.2429156,15.0475588 31.0032268,15.1789193 30.7743081,15.1122186 C30.7005648,15.0907318 30.6369348,15.0513127 30.5867864,15.0000979 C30.5311616,14.944985 30.4898649,14.8740856 30.4707089,14.7922469 L28.7607203,7.48557406 C28.6991844,7.17290351 28.5146147,6.89800214 28.2484122,6.72253348 C27.9822097,6.54706482 27.6566577,6.48571693 27.3446596,6.55227676 C26.7880717,6.67084861 26.3703109,7.42403111 26.5383636,8.09572346 L26.5481028,8.14832376 L27.5188318,16.1316978 Z M26.7962223,16.6041622 C26.7593572,16.566621 26.7291679,16.5222023 26.7078723,16.4726425 L26.2702849,15.821241 C25.7148803,15.0126983 25.1746077,14.7332685 24.5387234,15.1015706 L24.4462649,15.1631145 C23.9505345,15.5031166 23.8831922,16.3253494 24.3982151,17.1068494 L26.2859717,19.9160738 C26.6215757,20.4091544 27.292809,20.5386361 27.789462,20.2048188 L27.8817635,20.1433826 C28.012763,20.0534502 28.1210441,19.9361505 28.1999175,19.8008505 C27.7295001,19.3124785 27.6155186,18.709725 27.7491827,18.0227585 L26.7962223,16.6041622 Z" id="sygnet" fill="#FFFFFF" fill-rule="nonzero"></path>
            </g>
        </g>
    </g>
</svg>