<?xml version="1.0" encoding="UTF-8"?>
<svg width="80px" height="80px" viewBox="0 0 80 80" version="1.1" xmlns="http://www.w3.org/2000/svg" xmlns:xlink="http://www.w3.org/1999/xlink">
    <!-- Generator: Sketch 50.2 (55047) - http://www.bohemiancoding.com/sketch -->
    <title>ic-payments-androidpay-xs</title>
    <desc>Created with Sketch.</desc>
    <defs></defs>
    <g id="ic-payments-androidpay-xs" stroke="none" stroke-width="1" fill="none" fill-rule="evenodd">
        <g id="icons/payments/ic-payments-androidpay-xs" transform="translate(10.000000, 18.000000)">
            <g id="-g-">
                <path d="M3.75,0.5 C1.95507456,0.5 0.5,1.95507456 0.5,3.75 L0.5,41.25 C0.5,43.0449254 1.95507456,44.5 3.75,44.5 L56.25,44.5 C58.0449254,44.5 59.5,43.0449254 59.5,41.25 L59.5,3.75 C59.5,1.95507456 58.0449254,0.5 56.25,0.5 L3.75,0.5 Z" id="card" stroke="#DCDCDC" fill="#F7F7F7"></path>
                <path d="M24.2833313,11.0703112 L35.7869812,11.0703112 L35.7869812,19.4961 C35.7869812,20.1989625 35.211975,20.7742125 34.50885,20.7742125 L33.4348875,20.7742125 L33.4348875,23.7109312 C33.4343812,24.4164 32.8625062,24.9885187 32.156775,24.9885187 C31.4510437,24.9885187 30.8783812,24.4164 30.8783812,23.7109312 L30.8783812,20.7742125 L29.15625,20.7742125 L29.15625,23.7109312 C29.1559875,24.4164 28.58385,24.9885187 27.8782125,24.9885187 C27.1724438,24.9885187 26.6001375,24.4164 26.6001375,23.7109312 L26.6001375,20.7742125 L25.49805,20.7742125 C24.794925,20.7742125 24.2197687,20.1989625 24.2197687,19.4961 L24.2197687,11.0703112 L24.2833312,11.0703112 Z M24.234225,10.6231762 C24.231975,10.5648431 24.230475,10.50651 24.230475,10.4479162 C24.230475,10.0559887 24.279825,9.67447875 24.3729,9.30781125 C24.7316625,7.89453 25.743225,6.70156125 27.1105312,5.99349 L26.2234687,4.35703125 C26.1687562,4.25598937 26.2062187,4.12994812 26.3070937,4.07526 C26.4078937,4.02057187 26.5340437,4.05806625 26.5886812,4.15885312 L27.4862062,5.81484375 C28.2496687,5.48359312 29.1074812,5.29791562 30.0139875,5.29791562 C30.913725,5.29791562 31.7652937,5.48098875 32.5244062,5.80755187 L33.4181625,4.15885312 C33.4728375,4.05807187 33.598875,4.02057187 33.6996562,4.07526 C33.8004375,4.12994812 33.8379375,4.25598937 33.7832625,4.35703125 L32.9009625,5.98463437 C34.3353375,6.721875 35.3809125,7.99166625 35.6973187,9.490365 C35.7332625,9.659895 35.7595687,9.83229187 35.7762187,10.0070306 L35.7762187,10.6231762 L24.23415,10.6231762 L24.234225,10.6231762 Z M26.8294312,8.03489625 C26.8294312,8.33489625 27.0725437,8.578125 27.372525,8.578125 C27.672525,8.578125 27.9158625,8.33489625 27.9158625,8.03489625 C27.9158625,7.73489625 27.672525,7.49166562 27.372525,7.49166562 C27.0725437,7.49166562 26.8294312,7.73489625 26.8294312,8.03489625 Z M32.09115,8.03489625 C32.09115,8.33489625 32.334375,8.578125 32.634375,8.578125 C32.934375,8.578125 33.1776,8.33489625 33.1776,8.03489625 C33.1776,7.73489625 32.934375,7.49166562 32.634375,7.49166562 C32.334375,7.49166562 32.09115,7.73489625 32.09115,8.03489625 Z M38.7945375,12.12474 C38.7945375,11.4192712 38.2221375,10.8471356 37.5164062,10.8471356 C36.810675,10.8471356 36.2385375,11.4192712 36.238275,12.12474 L36.238275,17.4934875 C36.238275,18.1992188 36.810675,18.7713562 37.5164062,18.7713562 C38.2221375,18.7713562 38.794275,18.1992188 38.7945375,17.4934875 L38.7945375,12.12474 Z M23.7618937,12.12474 L23.7618937,17.4934875 C23.7618937,18.1992188 23.1894,18.7713562 22.4836125,18.7713562 C21.7779375,18.7713562 21.2058562,18.1992188 21.2055562,17.4934875 L21.2055562,12.12474 C21.2055562,11.4192712 21.7779375,10.8471356 22.4836125,10.8471356 C23.1894,10.8471356 23.7615937,11.4192712 23.7618937,12.12474 Z" id="path3352" fill="#6EC848" fill-rule="nonzero"></path>
                <path d="M46.6898437,27.8127375 L42.15105,38.325 C41.5362,39.808575 40.3843687,40.589325 38.9302125,40.589325 L38.4127687,40.589325 L38.4127687,39.1153125 L38.9497312,39.1153125 C39.6036375,39.1153125 40.2869812,38.7640687 40.6479187,37.9539 L40.9700437,37.2219 L36.9195375,27.822675 L38.6179687,27.822675 L42.1901062,36.3922313 L41.4580687,36.3922313 L45.0403687,27.8127375 L46.6898437,27.8127375 Z M36.0411375,37.583025 L34.5770812,37.583025 L34.5770812,36.4703625 C33.7570312,37.2804937 32.625,37.778325 31.3364625,37.778325 C28.5450562,37.778325 26.3489812,35.504175 26.3489812,32.6929875 C26.3489812,29.8918687 28.5450562,27.627375 31.3364625,27.627375 C32.625,27.627375 33.7570312,28.1153625 34.5770812,28.9354687 L34.5770812,27.822675 L36.0411375,27.822675 L36.0411375,37.583025 Z M31.4440125,36.3533813 C32.6932312,36.3533813 33.815625,35.7286688 34.4697937,34.7526375 C34.5085875,34.7039063 34.5671437,34.596375 34.5770812,34.4205938 L34.5770812,30.955725 C34.5770812,30.789825 34.5085875,30.6921563 34.4794312,30.6335625 C33.8742187,29.6284125 32.6932312,29.0426813 31.4440125,29.0426813 C29.442975,29.0426813 27.8227875,30.6826125 27.8227875,32.6929875 C27.8227875,34.7135625 29.442975,36.3533813 31.4440125,36.3533813 Z M17.1351037,40.5111937 L15.6709894,40.5111937 L15.6709894,27.822675 L17.1351037,27.822675 L17.1351037,28.9354687 C17.9550262,28.125225 19.0872187,27.627375 20.3755687,27.627375 C23.1573375,27.627375 25.3631437,29.9015625 25.3631437,32.7127313 C25.3631437,35.5138313 23.1573375,37.788 20.3755687,37.788 C19.0872187,37.788 17.9550262,37.2903563 17.1351037,36.4703625 L17.1351037,40.5111937 Z M20.2682625,36.3630375 C22.259325,36.3630375 23.8796062,34.723125 23.8796062,32.7127313 C23.8796062,30.6921563 22.259325,29.0523375 20.2682625,29.0523375 C19.0188562,29.0523375 17.8964325,29.64795 17.2424212,30.6240188 C17.2033594,30.6726375 17.1448725,30.7799438 17.1351037,30.9460688 L17.1351037,34.4499938 C17.1351037,34.6159125 17.1936975,34.7135625 17.2326562,34.7721563 C17.8573706,35.767725 19.0188562,36.3630375 20.2682625,36.3630375 Z" id="path3354" fill="#7B7979" fill-rule="nonzero"></path>
            </g>
        </g>
    </g>
</svg>