<?xml version="1.0" encoding="UTF-8"?>
<svg width="80px" height="80px" viewBox="0 0 80 80" version="1.1" xmlns="http://www.w3.org/2000/svg" xmlns:xlink="http://www.w3.org/1999/xlink">
    <!-- Generator: Sketch 50.2 (55047) - http://www.bohemiancoding.com/sketch -->
    <title>ic-payments-cashondelivery-xs</title>
    <desc>Created with Sketch.</desc>
    <defs></defs>
    <g id="ic-payments-cashondelivery-xs" stroke="none" stroke-width="1" fill="none" fill-rule="evenodd">
        <g id="icons/payments/ic-payments-cashondelivery-xs" transform="translate(10.000000, 18.000000)">
            <g id="-g-">
                <path d="M3.75,0.5 C1.95507456,0.5 0.5,1.95507456 0.5,3.75 L0.5,41.25 C0.5,43.0449254 1.95507456,44.5 3.75,44.5 L56.25,44.5 C58.0449254,44.5 59.5,43.0449254 59.5,41.25 L59.5,3.75 C59.5,1.95507456 58.0449254,0.5 56.25,0.5 L3.75,0.5 Z" id="card" stroke="#DCDCDC" fill="#F7F7F7"></path>
                <rect id="Rectangle1" fill="#888888" fill-rule="nonzero" x="7.5" y="9.375" width="45" height="26.25"></rect>
                <path d="M12.7402487,11.25 L47.0657858,11.25 C47.0283941,12.3153409 47.2810405,13.0276711 48.0205475,13.8068182 C48.7600546,14.5859653 50.625,15 50.625,15 C50.625,15 50.625,21.25 50.625,33.75 L13.125,33.75 C13.1623916,32.471591 12.4853056,31.5660511 11.8632445,31.0333808 C11.2411834,30.5007101 10.4117686,30.1930147 9.375,30.1102941 L9.375,15 C10.463607,14.9172794 11.2930218,14.4460227 11.8632445,13.8068182 C12.4334672,13.1676136 12.725802,12.3153409 12.7402487,11.25 Z" id="Rectangle2" fill="#EBEBEB" fill-rule="nonzero"></path>
                <circle id="Oval" fill="#C2C2C2" fill-rule="nonzero" cx="30.2586207" cy="22.4784483" r="7.93103448"></circle>
                <rect id="line1" fill="#888888" fill-rule="nonzero" x="41.637931" y="21.7887931" width="6.20624989" height="1.875"></rect>
                <rect id="line2" fill="#888888" fill-rule="nonzero" x="12.6724138" y="21.7887931" width="5.625" height="1.875"></rect>
                <path d="M50.4310345,39.375 C47.0982817,39.375 44.3965517,38.0627312 44.3965517,36.4439655 C44.3965517,34.8251999 47.0982817,33.512931 50.4310345,33.512931 C53.7637873,33.512931 56.4655172,34.8251999 56.4655172,36.4439655 C56.4655172,38.0627312 53.7637873,39.375 50.4310345,39.375 Z" id="Path" fill="#EBEBEB" fill-rule="nonzero"></path>
                <path d="M56.1108149,35.237069 C55.8865887,35.237069 55.5366379,35.237069 54.5797414,35.237069 L44.3965517,35.237069 L44.3965517,34.5474138 L45.0862069,34.5474138 L45.0862069,36.4807494 C45.0862069,37.5602089 47.4321037,38.6853448 50.4310345,38.6853448 C53.4299652,38.6853448 55.7758621,37.5602089 55.7758621,36.4807494 L55.7758621,35.5795695 C55.7758621,35.392751 55.7758621,35.2961028 55.7758621,35.2098349 L56.1108149,35.237069 Z M50.4310345,39.375 C47.0982817,39.375 44.3965517,38.0791999 44.3965517,36.4807494 L44.3965517,34.5474138 L56.4655172,34.5474138 L56.4655172,36.4807494 C56.4655172,38.0791999 53.7637873,39.375 50.4310345,39.375 Z" id="Oval" fill="#888888" fill-rule="nonzero"></path>
                <path d="M50.4310345,37.6508621 C47.0982817,37.6508621 44.3965517,36.3385932 44.3965517,34.7198276 C44.3965517,33.1010619 47.0982817,31.7887931 50.4310345,31.7887931 C53.7637873,31.7887931 56.4655172,33.1010619 56.4655172,34.7198276 C56.4655172,36.3385932 53.7637873,37.6508621 50.4310345,37.6508621 Z" id="Path" fill="#EBEBEB" fill-rule="nonzero"></path>
                <path d="M56.1108149,33.512931 C55.8865887,33.512931 55.5366379,33.512931 54.5797414,33.512931 L44.3965517,33.512931 L44.3965517,32.8232759 L45.0862069,32.8232759 L45.0862069,34.7566114 C45.0862069,35.836071 47.4321037,36.9612069 50.4310345,36.9612069 C53.4299652,36.9612069 55.7758621,35.836071 55.7758621,34.7566114 L55.7758621,33.8554316 C55.7758621,33.6686131 55.7758621,33.5719648 55.7758621,33.4856969 L56.1108149,33.512931 Z M50.4310345,37.6508621 C47.0982817,37.6508621 44.3965517,36.3550619 44.3965517,34.7566114 L44.3965517,32.8232759 L56.4655172,32.8232759 L56.4655172,34.7566114 C56.4655172,36.3550619 53.7637873,37.6508621 50.4310345,37.6508621 Z" id="Oval" fill="#888888" fill-rule="nonzero"></path>
                <path d="M50.4310345,35.9267241 C47.0982817,35.9267241 44.3965517,34.6144553 44.3965517,32.9956897 C44.3965517,31.376924 47.0982817,30.0646552 50.4310345,30.0646552 C53.7637873,30.0646552 56.4655172,31.376924 56.4655172,32.9956897 C56.4655172,34.6144553 53.7637873,35.9267241 50.4310345,35.9267241 Z" id="Path" fill="#EBEBEB" fill-rule="nonzero"></path>
                <path d="M50.4310345,35.9267241 C47.0982817,35.9267241 44.3965517,34.6144553 44.3965517,32.9956897 C44.3965517,31.376924 47.0982817,30.0646552 50.4310345,30.0646552 C53.7637873,30.0646552 56.4655172,31.376924 56.4655172,32.9956897 C56.4655172,34.6144553 53.7637873,35.9267241 50.4310345,35.9267241 Z M50.4310345,35.237069 C53.4305809,35.237069 55.7758621,34.0979324 55.7758621,32.9956897 C55.7758621,31.8934469 53.4305809,30.7543103 50.4310345,30.7543103 C47.4314881,30.7543103 45.0862069,31.8934469 45.0862069,32.9956897 C45.0862069,34.0979324 47.4314881,35.237069 50.4310345,35.237069 Z" id="Oval" fill="#888888" fill-rule="nonzero"></path>
            </g>
        </g>
    </g>
</svg>