<?xml version="1.0" encoding="UTF-8"?>
<svg width="80px" height="80px" viewBox="0 0 80 80" version="1.1" xmlns="http://www.w3.org/2000/svg" xmlns:xlink="http://www.w3.org/1999/xlink">
    <!-- Generator: Sketch 50.2 (55047) - http://www.bohemiancoding.com/sketch -->
    <title>ic-phone</title>
    <desc>Created with Sketch.</desc>
    <defs>
        <path d="M52.3194432,64.1667168 C55.865131,64.1459209 59.2922545,61.9686364 62.7377175,57.2125755 C64.5828738,54.8801078 64.6219049,52.7123548 62.9632444,51.0544381 C59.6674873,47.7601592 57.0051741,45.2023725 55.4961425,43.911855 C54.0897742,42.7091347 53.060946,42.2096966 52.2553857,42.2096966 C51.347597,42.2096966 49.8545385,42.8697317 48.6338284,43.912717 C47.7039898,44.7071791 46.4884378,46.06411 45.0314557,47.9604179 L43.6182823,49.7997075 L41.5080247,48.8369725 C39.6853836,48.0054529 37.943425,46.9821641 36.284215,45.7693664 C32.3755959,42.9123658 28.8510065,39.5780334 25.570373,35.565202 C23.5104215,32.9780656 22.1069402,30.7475753 21.1044336,28.4355308 L20.2515879,26.4686439 L21.8742597,25.0675992 C24.2564007,23.0108149 25.7881706,21.6013849 26.3802272,20.9385282 C27.322842,19.8831924 27.8573336,18.6724934 27.8573336,17.787507 C27.8573336,16.7598607 27.6879936,16.3763253 26.3894691,14.9363275 C24.7175267,13.0822283 19.8684957,8.27995005 18.612287,7.20679825 C18.3309036,6.96555328 18.2073983,6.85997778 18.0867038,6.75899933 C17.1955117,6.01338805 16.7917736,5.83333333 15.8127834,5.83333333 C14.4579742,5.83333333 10.7768932,8.23234303 8.17282176,11.281083 C6.93361133,12.7318996 6.05320413,14.8578545 5.88251897,16.7442792 C5.66228441,19.4657603 6.17687045,22.4293266 7.56333784,26.1401417 C9.78056434,32.1201012 13.1383857,37.6897563 18.1671525,43.7010211 C24.2578767,50.9465291 31.5835791,56.6524674 39.934949,60.665267 C44.2997155,62.7305197 47.860494,63.8880991 51.6680721,64.1371465 C51.9080835,64.1579097 52.1280237,64.1678395 52.3194432,64.1667168 Z M52.3365496,67.0833333 C52.0389537,67.0850788 51.7278202,67.0698756 51.4166918,67.04296 C46.4656924,66.7199734 42.0152038,64.8762584 38.6874829,63.3016988 C29.9488337,59.1028733 22.2923701,53.1410794 15.9345293,45.5778104 C10.6994561,39.3199455 7.16882541,33.4658138 4.8285989,27.1541177 C3.30001165,23.0629544 2.71833686,19.6850531 2.97535595,16.5090185 C3.19805867,14.0458176 4.28999642,11.3361434 5.95504344,9.3867747 C9.10302848,5.70124308 13.4458327,2.91666667 15.8127834,2.91666667 C18.1797341,2.91666667 19.2309613,3.89927366 20.5067637,4.98916387 C21.7825661,6.07905408 26.7076385,10.9338753 28.5555196,12.9830817 C30.4034007,15.032288 30.7740002,16.0918275 30.7740002,17.787507 C30.7740002,19.4831865 29.9156301,21.3587193 28.5555196,22.8814763 C27.850729,23.6705481 26.2590142,25.1351353 23.7803754,27.2752377 C24.6731785,29.3342771 25.9447467,31.3529432 27.8520989,33.748427 C31.0621412,37.6745338 34.4379792,40.8070952 38.0053724,43.4146771 C39.5061517,44.51167 41.0772357,45.4345811 42.7186245,46.1834102 C44.2886388,44.1399873 45.6288255,42.6439257 46.7391845,41.6952254 C48.404723,40.272175 50.5374159,39.2930299 52.2553857,39.2930299 C53.9733554,39.2930299 55.6298199,40.1883917 57.3917949,41.6952254 C59.1537698,43.2020591 62.1573845,46.125075 65.0251765,48.9915808 C67.8929685,51.8580867 67.642957,55.7129826 65.0251765,59.0221267 C61.1551603,64.3693489 56.925618,67.0564178 52.3365496,67.0833333 Z" id="path-1"></path>
    </defs>
    <g id="ic-phone" stroke="none" stroke-width="1" fill="none" fill-rule="evenodd">
        <g id="icons/contact/ic-phone" transform="translate(5.000000, 5.000000)">
            <mask id="mask-2" fill="white">
                <use xlink:href="#path-1"></use>
            </mask>
            <use id="-g-" fill="#858585" fill-rule="nonzero" xlink:href="#path-1"></use>
            <g id="pandora/$color-interaction-secondary" mask="url(#mask-2)" fill="#D70F64" fill-rule="evenodd">
                <rect id="bg" x="0" y="0" width="70" height="70"></rect>
            </g>
        </g>
    </g>
</svg>