<?xml version="1.0" encoding="UTF-8"?>
<svg width="80px" height="80px" viewBox="0 0 80 80" version="1.1" xmlns="http://www.w3.org/2000/svg" xmlns:xlink="http://www.w3.org/1999/xlink">
    <!-- Generator: Sketch 50.2 (55047) - http://www.bohemiancoding.com/sketch -->
    <title>ic-payments-sodexo-xs</title>
    <desc>Created with Sketch.</desc>
    <defs></defs>
    <g id="ic-payments-sodexo-xs" stroke="none" stroke-width="1" fill="none" fill-rule="evenodd">
        <g id="icons/payments/ic-payments-sodexo-xs" transform="translate(10.000000, 18.000000)">
            <g id="-g-">
                <path d="M3.75,0.5 C1.95507456,0.5 0.5,1.95507456 0.5,3.75 L0.5,41.25 C0.5,43.0449254 1.95507456,44.5 3.75,44.5 L56.25,44.5 C58.0449254,44.5 59.5,43.0449254 59.5,41.25 L59.5,3.75 C59.5,1.95507456 58.0449254,0.5 56.25,0.5 L3.75,0.5 Z" id="card" stroke="#DCDCDC" fill="#F7F7F7"></path>
                <path d="M31.2539754,17.9932377 L29.9561066,24.8147951 C29.5163115,26.8752049 28.2941803,28.340041 25.485,28.340041 C22.7429508,28.340041 21.4855328,26.6230328 22.0027869,24.4094262 C22.5768443,21.9539754 24.75,20.9065574 27.239877,20.9065574 C28.035123,20.9065574 28.2485656,20.9289344 28.925041,20.9530328 L29.4844672,18.1068443 L31.2539754,17.9932377 Z M28.632418,22.1493443 C26.0943443,21.8610246 24.412623,22.4755328 23.8962295,24.5368033 C23.5313115,25.9878689 23.9702459,27.0206557 25.6347541,27.0206557 C27.0840984,27.0206557 27.7941393,26.234877 28.0506148,25.0557787 L28.632418,22.1493443 Z M12.0570492,22.2732787 C9.46303279,22.037459 7.2304918,22.252623 7.19434426,23.1339344 C7.13840164,24.4567623 11.4709426,23.3017623 11.387459,25.7356967 C11.2661066,29.3108607 5.24065574,28.4880738 3.75,28.0336475 L4.02110656,26.9715984 C6.59102459,27.3804098 9.30295082,27.4131148 9.36233607,25.9956148 C9.42602459,24.4894672 5.07540984,25.8441393 5.17782787,23.4033197 C5.25356557,21.5873361 7.97237705,20.6061885 12.4236885,21.2602869 L12.0570492,22.2732787 Z M17.5531967,20.9891803 C20.132582,20.9891803 21.5216803,22.4815574 21.0104508,24.7054918 C20.500082,26.9294262 18.425041,28.4218033 15.8456557,28.4218033 C13.2662705,28.4218033 11.8771721,26.9294262 12.3892623,24.7054918 C12.8979098,22.482418 14.9729508,20.9891803 17.5531967,20.9891803 Z M19.0533197,24.7054918 C19.4285656,23.2131148 18.7340164,22.2104508 17.3259836,22.2104508 C15.9170902,22.2104508 14.719918,23.2131148 14.3446721,24.7054918 C13.9496311,26.2804918 14.6131967,27.135123 16.0866393,27.135123 C17.4955328,27.135123 18.6789344,26.1978689 19.0533197,24.7054918 Z M47.3654508,28.3847951 L45.122582,28.3847951 C43.7627459,27.1058607 41.1609836,24.167582 39.2443033,21.0571721 L40.8907377,21.0571721 C42.7101639,23.5668443 47.3654508,28.3847951 47.3654508,28.3847951 Z M49.7159016,13.8319672 L50.7486885,11.6803279 L51.0421721,13.8681148 L53.1464754,13.1313934 L51.6764754,15.0162295 L53.2704098,16.2521311 L51.1420082,16.4165164 L51.024959,18.6912295 L49.8415574,17.0103689 L48.1030328,18.6137705 L48.7536885,16.3545492 L46.7027459,16.0756967 L48.6994672,14.9387705 L47.880123,12.9919672 L49.7159016,13.8319672 Z M52.5663934,20.9521721 C55.1862295,20.9521721 56.5977049,22.4686475 56.0778689,24.7278689 C55.5597541,26.9870902 53.4520082,28.5027049 50.8313115,28.5027049 C48.2114754,28.5027049 46.8008607,26.9870902 47.3198361,24.7278689 C47.8388115,22.4686475 49.9456967,20.9521721 52.5663934,20.9521721 Z M54.0897541,24.7278689 L54.0906148,24.7278689 C54.4710246,23.2113934 53.7661475,22.1940984 52.334877,22.1940984 C50.9044672,22.1940984 49.6883607,23.2113934 49.3079508,24.7278689 C48.9060246,26.3278279 49.579918,27.1953689 51.077459,27.1953689 C52.5078689,27.1953689 53.7093443,26.242623 54.0897541,24.7278689 Z" id="Shape" fill="#293896" fill-rule="nonzero"></path>
                <path d="M37.5445082,27.759959 C41.7815164,25.4069262 45.4616803,21.7913115 48.0711885,18.6654098 C46.194959,24.5385246 41.677377,27.6988525 37.5453689,27.759959" id="Shape" fill="#ED1C24" fill-rule="nonzero"></path>
                <path d="M35.8688115,22.0796311 C36.6804098,22.0796311 37.1210656,22.3739754 37.1210656,22.9368443 C37.1210656,24.430082 34.2103279,24.3311066 32.9262295,24.0694672 C33.3780738,22.9523361 34.3979508,22.0796311 35.8688115,22.0796311 Z M38.8664754,22.8542213 C38.8664754,21.772377 38.0032377,20.9762705 36.0452459,20.9762705 C32.8694262,20.9762705 30.8047131,23.037541 30.8047131,25.5902459 C30.8047131,27.2392623 32.1731557,28.6085656 34.6725,28.6085656 C36.3938115,28.6085656 37.5445082,27.759959 37.5445082,27.759959 C35.3532787,27.994918 32.6620082,27.759959 32.6620082,25.4146721 C32.6620082,25.3217213 32.6671721,25.2296311 32.6740574,25.1366803 C35.6648361,25.7563525 38.8664754,25.0058607 38.8664754,22.8542213 Z" id="Shape" fill="#293896" fill-rule="nonzero"></path>
            </g>
        </g>
    </g>
</svg>