<?xml version="1.0" encoding="UTF-8"?>
<svg width="80px" height="80px" viewBox="0 0 80 80" version="1.1" xmlns="http://www.w3.org/2000/svg" xmlns:xlink="http://www.w3.org/1999/xlink">
    <!-- Generator: Sketch 50.2 (55047) - http://www.bohemiancoding.com/sketch -->
    <title>ic-payments-vodafone-xs</title>
    <desc>Created with Sketch.</desc>
    <defs></defs>
    <g id="ic-payments-vodafone-xs" stroke="none" stroke-width="1" fill="none" fill-rule="evenodd">
        <g id="icons/payments/ic-payments-vodafone-xs" transform="translate(10.000000, 18.000000)">
            <g id="-g-">
                <path d="M3.75,0.5 C1.95507456,0.5 0.5,1.95507456 0.5,3.75 L0.5,41.25 C0.5,43.0449254 1.95507456,44.5 3.75,44.5 L56.25,44.5 C58.0449254,44.5 59.5,43.0449254 59.5,41.25 L59.5,3.75 C59.5,1.95507456 58.0449254,0.5 56.25,0.5 L3.75,0.5 Z" id="card" stroke="#DCDCDC" fill="#F7F7F7"></path>
                <path d="M11.4781915,29.4973404 L12.9670213,29.4973404 L11.0664894,34.6388298 L9.38856383,34.6388298 L7.5,29.4973404 L9.02712766,29.4973404 L10.2670213,33.0135638 L11.4781915,29.4973404 Z M34.6507979,29.5021277 L34.6555851,29.5021277 L34.6555851,30.6869681 L33.8632979,30.6869681 L33.8632979,34.6316489 L32.525266,34.6316489 L32.525266,30.6821809 L31.9340426,30.6821809 L31.9340426,29.4973404 L32.525266,29.4973404 L32.525266,28.9492021 C32.525266,27.7356383 33.0590426,27.3215426 34.275,27.2736702 C34.4210106,27.2736702 34.6388298,27.2736702 34.6388298,27.2736702 L34.6388298,28.4704787 C34.5525293,28.4567298 34.4653124,28.4495284 34.3779255,28.4489362 C33.8585106,28.4489362 33.8585106,28.8630319 33.8585106,29.1885638 C33.8585106,29.3369681 33.8585106,29.5021277 33.8585106,29.5021277 L34.6507979,29.5021277 Z M42.650266,29.949734 C43.0692498,29.5851929 43.6077029,29.3875329 44.1630319,29.3944149 C45.3742021,29.3944149 46.0779255,30.1651596 46.0779255,31.1848404 L46.0779255,34.6364362 L44.7135638,34.6364362 L44.7135638,31.637234 C44.7398651,31.3761181 44.6505745,31.1165704 44.4691929,30.9269023 C44.2878112,30.7372342 44.0325085,30.6364457 43.7704787,30.6510638 C43.4697113,30.6336549 43.176584,30.7498272 42.9693994,30.9685476 C42.7622148,31.1872681 42.6620803,31.4862543 42.6957447,31.7856383 L42.6957447,34.6388298 L41.3218085,34.6388298 L41.3218085,29.5021277 L42.6478723,29.5021277 L42.6478723,29.949734 L42.650266,29.949734 Z M16.868617,29.5763298 L16.8638298,29.5763298 C17.8809231,29.9749511 18.5536136,30.9517736 18.5632979,32.0441489 C18.5370782,33.5454148 17.2999732,34.7418185 15.7986702,34.7178191 C14.8239521,34.7469802 13.9105323,34.2436274 13.4145602,33.4040219 C12.9185881,32.5644164 12.9185881,31.5214879 13.4145602,30.6818823 C13.9105323,29.8422768 14.8239521,29.338924 15.7986702,29.3680851 C16.1437859,29.3675059 16.4861051,29.429967 16.8087766,29.5523936 L16.7010638,29.5523936 C15.2768617,29.5882979 14.2787234,30.6797872 14.2787234,31.8454787 C14.2619178,32.2557012 14.4102239,32.655546 14.6904731,32.9555881 C14.9707223,33.2556302 15.3595327,33.4308362 15.7699468,33.4420213 C16.1413206,33.4426566 16.4977362,33.295738 16.760786,33.033586 C17.0238358,32.771434 17.1719721,32.4155227 17.1726064,32.0441489 C17.1726064,31.3571809 16.7848404,30.837766 16.0117021,30.6726064 C16.0117021,30.6606383 16.0117021,30.6367021 16.0117021,30.6367021 C16.0134313,30.1260626 16.3697129,29.6851891 16.868617,29.5763298 Z M37.7146277,29.3920213 L37.712234,29.3944149 C38.6869521,29.3652538 39.600372,29.8686066 40.0963441,30.7082121 C40.5923161,31.5478176 40.5923161,32.5907462 40.0963441,33.4303517 C39.600372,34.2699572 38.6869521,34.77331 37.712234,34.7441489 C37.3671136,34.7447819 37.0247846,34.6823191 36.7021277,34.5598404 L36.8170213,34.5598404 C38.2412234,34.5239362 39.2393617,33.4324468 39.2393617,32.2667553 C39.2561673,31.8565329 39.1078612,31.456688 38.827612,31.1566459 C38.5473628,30.8566038 38.1585524,30.6813978 37.7481383,30.6702128 C36.9757245,30.6688879 36.3481183,31.2932811 36.3454787,32.0656915 C36.3454787,32.7526596 36.7332447,33.2720745 37.506383,33.437234 C37.506383,33.4492021 37.506383,33.4731383 37.506383,33.4731383 C37.5046538,33.9837778 37.1483722,34.4246513 36.6494681,34.5335106 C35.6323748,34.1348893 34.9596843,33.1580669 34.95,32.0656915 C34.9762197,30.5644257 36.2133247,29.368022 37.7146277,29.3920213 Z M33.2289894,8.1606383 C36.4736767,9.45199547 38.6113272,12.5817885 38.6337766,16.0739362 C38.6337766,20.8180851 34.7058511,24.6478723 29.8396277,24.6478723 C24.9734043,24.6478723 21.0430851,20.8180851 21.0430851,16.0739362 C21.0430851,11.3297872 24.9734043,7.5 29.8396277,7.5 C30.9393502,7.49486632 32.0306398,7.69202868 33.0590426,8.08164894 C32.9273936,8.08164894 32.7981383,8.08164894 32.7167553,8.08164894 C28.1904255,8.19414894 25.0140957,11.6960106 25.0140957,15.4300532 C25.0140957,18.4890957 27.3071809,20.5523936 29.7606383,20.5523936 C32.2177342,20.532684 34.1995629,18.5358981 34.2007979,16.0787234 C34.2007979,13.8789894 32.9632979,12.2106383 30.5050532,11.6840426 C30.5050532,11.6481383 30.5050532,11.6050532 30.5050532,11.5691489 C30.5015172,9.93483495 31.6341266,8.51758026 33.2289894,8.1606383 Z M23.443883,27.4005319 L24.7699468,27.4005319 L24.7699468,34.6507979 L23.4486702,34.6507979 L23.4486702,34.2223404 C23.0148013,34.5470953 22.487427,34.7226068 21.9454787,34.7226064 C20.4807491,34.7226064 19.2933511,33.5352084 19.2933511,32.0704787 C19.2933511,30.6057491 20.4807491,29.4183511 21.9454787,29.4183511 C22.4864912,29.4221372 23.0118985,29.6000706 23.443883,29.9257979 L23.443883,27.4005319 Z M20.724734,32.075266 C20.724734,32.8420017 21.3462962,33.4635638 22.1130319,33.4635638 C22.8797677,33.4635638 23.5013298,32.8420017 23.5013298,32.075266 C23.5013298,31.3085302 22.8797677,30.6869681 22.1130319,30.6869681 C21.3462962,30.6869681 20.724734,31.3085302 20.724734,32.075266 Z M29.7295213,29.5021277 L31.0579787,29.5021277 L31.0579787,34.6484043 L29.7367021,34.6484043 L29.7367021,34.2199468 C29.3020969,34.5450379 28.7738562,34.7205583 28.231117,34.7202128 C26.7663874,34.7202128 25.5789894,33.5328148 25.5789894,32.0680851 C25.5789894,30.6033554 26.7663874,29.4159574 28.231117,29.4159574 C28.7721295,29.4197435 29.2975368,29.597677 29.7295213,29.9234043 L29.7295213,29.5021277 Z M27.0103723,32.075266 C27.0103723,32.8420017 27.6319345,33.4635638 28.3986702,33.4635638 C29.165406,33.4635638 29.7869681,32.8420017 29.7869681,32.075266 C29.7869681,31.3085302 29.165406,30.6869681 28.3986702,30.6869681 C27.6319345,30.6869681 27.0103723,31.3085302 27.0103723,32.075266 Z M48.3757979,32.4726064 C48.4429573,33.1174458 48.9938609,33.6027408 49.6420213,33.5880319 C50.0829514,33.6228515 50.5030888,33.3949644 50.7143617,33.006383 L52.1505319,33.006383 C51.7898069,34.0485312 50.7972034,34.738323 49.6946809,34.7130319 C48.9774016,34.7371997 48.2813398,34.4675228 47.7675723,33.9664074 C47.2538048,33.4652921 46.9668593,32.7761695 46.9731383,32.0585106 C46.9800639,31.3449737 47.2711717,30.6636401 47.7819929,30.1653985 C48.292814,29.667157 48.9811931,29.3931248 49.6946809,29.4039894 C51.1422863,29.4249979 52.3013594,30.6108025 52.2893617,32.0585106 C52.2937093,32.1964619 52.2832775,32.3344822 52.2582447,32.4702128 L48.3757979,32.4726064 Z M50.8412234,31.4792553 C50.7276061,30.9171099 50.2168421,30.5248431 49.6444149,30.5601064 C49.0673179,30.5278141 48.5496009,30.9125766 48.4140957,31.4744681 L50.843617,31.4744681 L50.8412234,31.4792553 Z" id="Combined-Shape" fill="#ED1B2E"></path>
            </g>
        </g>
    </g>
</svg>