<?xml version="1.0" encoding="UTF-8"?>
<svg width="80px" height="80px" viewBox="0 0 80 80" version="1.1" xmlns="http://www.w3.org/2000/svg" xmlns:xlink="http://www.w3.org/1999/xlink">
    <!-- Generator: Sketch 50.2 (55047) - http://www.bohemiancoding.com/sketch -->
    <title>ic-search</title>
    <desc>Created with Sketch.</desc>
    <defs></defs>
    <g id="ic-search" stroke="none" stroke-width="1" fill="none" fill-rule="evenodd">
        <path d="M64.2878712,65.9595599 L65.9595599,64.2878712 L47.8104265,46.1387377 C47.3488024,45.6771136 46.6003618,45.6771136 46.1387377,46.1387377 C45.6771136,46.6003618 45.6771136,47.3488024 46.1387377,47.8104265 L64.2878712,65.9595599 Z" id="Path-2" stroke="#D70F64" fill="#D70F64"></path>
        <path d="M33.5180826,53.2028318 C44.3896694,53.2028318 53.2028318,44.3896694 53.2028318,33.5180826 C53.2028318,22.6464958 44.3896694,13.8333333 33.5180826,13.8333333 C22.6464958,13.8333333 13.8333333,22.6464958 13.8333333,33.5180826 C13.8333333,44.3896694 22.6464958,53.2028318 33.5180826,53.2028318 Z M33.5180826,50.838707 C23.9521659,50.838707 16.1974582,43.0839993 16.1974582,33.5180826 C16.1974582,23.9521659 23.9521659,16.1974582 33.5180826,16.1974582 C43.0839993,16.1974582 50.838707,23.9521659 50.838707,33.5180826 C50.838707,43.0839993 43.0839993,50.838707 33.5180826,50.838707 Z" id="Combined-Shape" stroke="#D70F64" fill="#D70F64"></path>
    </g>
</svg>