<?xml version="1.0" encoding="UTF-8"?>
<svg width="80px" height="80px" viewBox="0 0 80 80" version="1.1" xmlns="http://www.w3.org/2000/svg" xmlns:xlink="http://www.w3.org/1999/xlink">
    <!-- Generator: Sketch 50.2 (55047) - http://www.bohemiancoding.com/sketch -->
    <title>ic-tracking-scooter</title>
    <desc>Created with Sketch.</desc>
    <defs>
        <circle id="path-1" cx="4.5" cy="4.5" r="4.5"></circle>
        <path d="M55.3682111,31.9167187 C54.7860765,27.4894145 54.2044242,23.532588 53.6235133,20.0471228 C52.9157063,15.8002811 52.3667274,15.3125 50.3125,15.3125 L50.3111407,15.3125 C50.2900669,23.4068527 50.0139919,26.8757226 48.7950827,30.3856003 C47.0032848,35.5451241 43.2237829,38.28125 37.1875,38.28125 C31.6678748,38.28125 28.6763983,36.1775028 26.6499226,32.1563238 C26.5056759,31.8700919 26.3673219,31.5801759 26.1999528,31.2177043 C26.1554041,31.121225 25.8876801,30.5361002 25.8135407,30.3767207 C25.0499716,28.7352571 24.7572019,28.4375 24.0625,28.4375 L7.65625,28.4375 C7.13308528,28.4375 6.76800078,28.4892265 6.5625,28.5515883 L6.5625,34.1243647 C8.20327333,33.2856096 10.0620113,32.8125 12.03125,32.8125 C16.7066872,32.8125 20.7592326,35.479417 22.7506353,39.375 L46.3280368,39.375 C47.5433911,36.2677726 50.0379061,33.6784308 53.4195928,32.4475975 C54.0640399,32.2130379 54.7155186,32.0369826 55.3682111,31.9167187 Z M59.7825296,31.9320219 C63.8072157,32.7013319 67.3369328,35.5081532 68.8401995,39.6383445 C68.9662995,39.9848015 69.0754908,40.3332908 69.1681949,40.6829084 L65.1376507,42.1499065 C65.4526795,42.9878651 65.625,43.8956837 65.625,44.84375 C65.625,49.0721801 62.1971801,52.5 57.96875,52.5 C54.6323305,52.5 51.7943639,50.3658695 50.7454726,47.3882309 L46.6490195,48.8792179 C46.4953051,48.5518063 46.3549459,48.2146612 46.2288458,47.8682042 C45.7339746,46.5085567 45.4995181,45.11761 45.4999991,43.75 L24.013453,43.75 C24.0459159,44.1102397 24.0625,44.4750581 24.0625,44.84375 C24.0625,45.2124419 24.0459159,45.5772603 24.013453,45.9375 L19.5324306,45.9375 C19.0017107,49.6478217 15.810794,52.5 11.9537153,52.5 C8.09663666,52.5 4.90571994,49.6478217 4.375,45.9375 L0.0490470482,45.9375 C0.0165841078,45.5772603 0,45.2124419 0,44.84375 C0,42.2681692 0.809310893,39.8816131 2.1875,37.9245144 L2.1875,28.4375 C2.1875,25.8775078 3.91690154,24.4261778 6.56290467,24.1226218 C6.56263518,24.1026134 6.5625,24.0825725 6.5625,24.0625 L6.5625,21.875 C6.5625,19.4587542 8.52125422,17.5 10.9375,17.5 L19.6875,17.5 C22.1037458,17.5 24.0625,19.4587542 24.0625,21.875 L24.0625,24.0625 C26.9557817,24.0625 28.371087,25.5019153 29.7803553,28.5314547 C29.8615557,28.7060133 30.1328649,29.2989739 30.1719644,29.3836517 C30.3201718,29.7046248 30.4385713,29.9527269 30.5568482,30.1874262 C31.881023,32.8150146 33.4327328,33.90625 37.1875,33.90625 C44.540173,33.90625 45.9375,29.8826142 45.9375,14.21875 C45.9375,11.0518729 44.7293771,9.84375 41.5625,9.84375 L41.5625,5.46875 C45.9358872,5.46875 48.8266791,7.41192845 49.8740906,10.9375 L50.3125,10.9375 C54.5503662,10.9375 56.8865497,13.0132554 57.9389867,19.3278772 C58.5542107,23.0192209 59.1686267,27.2202675 59.7825296,31.9320219 Z M8.85917468,45.9375 C9.30962075,47.2119292 10.5250385,48.125 11.9537153,48.125 C13.3823922,48.125 14.5978099,47.2119292 15.0482559,45.9375 L8.85917468,45.9375 Z M54.8582677,45.8912959 C55.2954093,47.1898026 56.5228661,48.125 57.96875,48.125 C59.7809343,48.125 61.25,46.6559343 61.25,44.84375 C61.25,44.4213907 61.1702004,44.0176696 61.0248559,43.6468413 L54.8582677,45.8912959 Z M18.9507159,41.5625 C17.7219272,38.9758389 15.0854331,37.1875 12.03125,37.1875 C8.97706692,37.1875 6.34057277,38.9758389 5.11178409,41.5625 L18.9507159,41.5625 Z M62.9144401,38.3033112 C60.8750663,36.2929153 57.7859242,35.5141606 54.9159309,36.5587527 C52.0459376,37.6033448 50.1800914,40.1855678 49.910098,43.0365046 L62.9144401,38.3033112 Z M10.9375,21.875 L10.9375,24.0625 L19.6875,24.0625 L19.6875,21.875 L10.9375,21.875 Z" id="path-3"></path>
    </defs>
    <g id="ic-tracking-scooter" stroke="none" stroke-width="1" fill="none" fill-rule="evenodd">
        <g id="icons/tracking/ic_tracking_scooter" transform="translate(5.000000, 5.000000)">
            <g id="icons/progress_and_pointers/ic_dot" transform="translate(30.625000, 61.250000)">
                <mask id="mask-2" fill="white">
                    <use xlink:href="#path-1"></use>
                </mask>
                <use id="ic_dot" fill="#858585" fill-rule="evenodd" xlink:href="#path-1"></use>
                <g id="grayscale/$color-neutral-primary" mask="url(#mask-2)" fill="#333333" fill-rule="evenodd">
                    <rect id="bg" x="0" y="0" width="9" height="9"></rect>
                </g>
            </g>
            <mask id="mask-4" fill="white">
                <use xlink:href="#path-3"></use>
            </mask>
            <use id="ic_tracking_scooter" fill="#858585" fill-rule="nonzero" xlink:href="#path-3"></use>
            <g id="pandora/$color-interaction-secondary" mask="url(#mask-4)" fill="#D70F64" fill-rule="evenodd">
                <rect id="bg" x="0" y="0" width="70" height="70"></rect>
            </g>
        </g>
    </g>
</svg>