<?xml version="1.0" encoding="UTF-8"?>
<svg width="80px" height="80px" viewBox="0 0 80 80" version="1.1" xmlns="http://www.w3.org/2000/svg" xmlns:xlink="http://www.w3.org/1999/xlink">
    <!-- Generator: Sketch 50.2 (55047) - http://www.bohemiancoding.com/sketch -->
    <title>ic-tracking-car</title>
    <desc>Created with Sketch.</desc>
    <defs>
        <circle id="path-1" cx="4.5" cy="4.5" r="4.5"></circle>
    </defs>
    <g id="ic-tracking-car" stroke="none" stroke-width="1" fill="none" fill-rule="evenodd">
        <g id="icons/tracking/ic_tracking_car" transform="translate(5.000000, 5.000000)">
            <g id="icons/progress_and_pointers/ic_dot" transform="translate(30.625000, 61.250000)">
                <mask id="mask-2" fill="white">
                    <use xlink:href="#path-1"></use>
                </mask>
                <use id="ic_dot" fill="#858585" fill-rule="evenodd" xlink:href="#path-1"></use>
                <g id="grayscale/$color-neutral-primary" mask="url(#mask-2)" fill="#333333" fill-rule="evenodd">
                    <rect id="bg" x="0" y="0" width="9" height="9"></rect>
                </g>
            </g>
            <g id="car" transform="translate(2.187500, 8.750000)" fill="#D70F64" fill-rule="nonzero">
                <path d="M41.5625,0.0713671875 L41.5625,2.25886719 C48.2038867,2.26666016 53.585957,7.64873047 53.59375,14.2901172 L55.78125,14.2901172 C55.7722266,6.44109375 49.4115234,0.080390625 41.5625,0.0713671875 Z" id="Shape"></path>
                <path d="M41.5625,5.54011719 L41.5625,7.72761719 C45.1854102,7.73117187 48.1214453,10.667207 48.125,14.2901172 L50.3125,14.2901172 C50.3070312,9.45984375 46.3927734,5.54544922 41.5625,5.54011719 Z" id="Shape"></path>
                <path d="M41.5625,11.0088672 L41.5625,14.2901172 L44.84375,14.2901172 C44.84375,12.4779102 43.374707,11.0088672 41.5625,11.0088672 Z" id="Shape"></path>
                <rect id="Rectangle-path" x="26.25" y="31.7898438" width="10.9375" height="2.1875"></rect>
                <rect id="Rectangle-path" x="21.875" y="31.7898438" width="2.1875" height="2.1875"></rect>
                <path d="M65.3964062,29.6463672 L64.8342187,27.3987109 C64.5240039,26.1701562 63.5364844,25.2285742 62.2945312,24.9771484 L58.1875,24.1557422 L44.1371875,23.0619922 L34.0090625,15.9723047 C33.4561719,15.5866211 32.7975977,15.3811328 32.1234375,15.3838672 L15.010625,15.3838672 C14.2426758,15.3860547 13.4997461,15.6568945 12.910625,16.1494922 L7.11375,20.9794922 L2.24328125,22.6026172 C0.905488281,23.0487305 0.00232421875,24.299707 0,25.7099609 L0,34.2685547 C0.00697265625,35.8987891 1.20462891,37.2789648 2.8175,37.5158984 L7.739375,38.2180859 C8.27189453,41.7982031 11.6057812,44.2688477 15.1860352,43.7363281 C17.9897266,43.3193359 20.2077148,41.1470117 20.6828125,38.3526172 L46.0359375,38.3526172 C46.6364063,41.9226172 50.0171875,44.3299609 53.5871875,43.7294922 C56.342207,43.2661523 58.5007227,41.1076367 58.9640625,38.3526172 L59.898125,38.3526172 C61.1419922,38.3569922 62.2801758,37.6535742 62.8326562,36.5391797 L65.1470312,31.9104297 C65.4978516,31.2097461 65.5863086,30.4065234 65.3964062,29.6463672 Z M14.21875,41.6338672 C11.8025195,41.6338672 9.84375,39.6750977 9.84375,37.2588672 C9.84375,34.8426367 11.8025195,32.8838672 14.21875,32.8838672 C16.6349805,32.8838672 18.59375,34.8426367 18.59375,37.2588672 C18.59375,39.6750977 16.6349805,41.6338672 14.21875,41.6338672 Z M52.5,41.6338672 C50.0837695,41.6338672 48.125,39.6750977 48.125,37.2588672 C48.125,34.8426367 50.0837695,32.8838672 52.5,32.8838672 C54.9162305,32.8838672 56.875,34.8426367 56.875,37.2588672 C56.875,39.6750977 54.9162305,41.6338672 52.5,41.6338672 Z M63.1903125,30.9304297 L60.8759375,35.5602734 C60.6920508,35.931875 60.3126563,36.1664844 59.898125,36.1651172 L58.9717188,36.1651172 C58.9717188,36.1410547 58.9575,36.1202734 58.953125,36.0962109 C58.8933789,35.7637109 58.8075195,35.4362695 58.6960937,35.1173047 C58.6775,35.0626172 58.6578125,35.0079297 58.6370312,34.9565234 C58.5208203,34.642207 58.38,34.3375977 58.2159375,34.0454297 C58.1940625,34.0060547 58.1689062,33.9699609 58.1470312,33.9360547 C57.9714844,33.6358203 57.7724219,33.3498047 57.5520312,33.0807422 L57.54,33.0665234 C57.3167383,32.8006055 57.0722852,32.5528711 56.809375,32.3260547 C56.7820312,32.3019922 56.756875,32.2757422 56.7284375,32.2516797 C56.4719531,32.0370312 56.1996094,31.8420703 55.9135938,31.6687109 L55.7714062,31.5823047 C55.4845703,31.4172852 55.1859766,31.2740039 54.8778125,31.1535547 L54.7159375,31.0933984 C54.395332,30.9773242 54.06625,30.8862695 53.7315625,30.8210547 C53.6878125,30.8123047 53.6440625,30.8079297 53.6003125,30.8002734 C52.8720117,30.6675195 52.1258008,30.6675195 51.3975,30.8002734 C51.35375,30.8079297 51.31,30.8123047 51.26625,30.8210547 C50.9315625,30.8862695 50.6024805,30.9773242 50.281875,31.0933984 L50.12,31.1535547 C49.8118359,31.2740039 49.5132422,31.4172852 49.2264062,31.5823047 L49.0842187,31.6687109 C48.7982031,31.8420703 48.5258594,32.0370312 48.269375,32.2516797 C48.2409375,32.2757422 48.2157812,32.3019922 48.1884375,32.3260547 C47.9255273,32.5528711 47.6810742,32.8006055 47.4578125,33.0665234 L47.4457812,33.0807422 C47.2253906,33.3498047 47.0263281,33.6358203 46.8507813,33.9360547 C46.8289062,33.9743359 46.80375,34.0104297 46.781875,34.0454297 C46.6178125,34.3375977 46.4769922,34.642207 46.3607813,34.9565234 C46.34,35.0101172 46.3203125,35.0658984 46.3017187,35.1173047 C46.190293,35.4362695 46.1044336,35.7635742 46.0446875,36.0962109 C46.0446875,36.1202734 46.0304688,36.1410547 46.0260938,36.1651172 L20.6904688,36.1651172 C20.6904688,36.1410547 20.67625,36.1202734 20.671875,36.0962109 C20.6121289,35.7637109 20.5262695,35.4362695 20.4148438,35.1173047 C20.39625,35.0626172 20.3765625,35.0079297 20.3557813,34.9565234 C20.2395703,34.642207 20.09875,34.3375977 19.9346875,34.0454297 C19.9128125,34.0060547 19.8876563,33.9699609 19.8657813,33.9360547 C19.6902344,33.6358203 19.4911719,33.3498047 19.2707813,33.0807422 L19.25875,33.0665234 C19.0354883,32.8006055 18.7910352,32.5528711 18.528125,32.3260547 C18.5007813,32.3019922 18.475625,32.2757422 18.4471875,32.2516797 C18.1907031,32.0370312 17.9183594,31.8420703 17.6323438,31.6687109 L17.4901563,31.5823047 C17.2033203,31.4172852 16.9047266,31.2740039 16.5965625,31.1535547 L16.4346875,31.0933984 C16.114082,30.9773242 15.785,30.8862695 15.4503125,30.8210547 C15.4065625,30.8123047 15.3628125,30.8079297 15.3190625,30.8002734 C14.9558008,30.7350586 14.5877539,30.700332 14.21875,30.6963672 C13.8583594,30.6988281 13.4987891,30.7310937 13.1435938,30.7926172 C13.0954688,30.8002734 13.04625,30.8057422 12.9992188,30.8144922 C12.6717773,30.8775195 12.349668,30.965293 12.035625,31.0769922 C11.9798438,31.0977734 11.92625,31.1174609 11.8671875,31.1393359 C11.5625781,31.255957 11.2671289,31.3952734 10.9834375,31.5560547 C10.9385938,31.5812109 10.8959375,31.6096484 10.8521875,31.6358984 C10.5631641,31.8077539 10.2874023,32.0012109 10.0275,32.2144922 L9.9925,32.2462109 C9.73861328,32.4614063 9.50167969,32.6958789 9.28375,32.9473047 C9.25859375,32.9757422 9.23125,33.0019922 9.2071875,33.0315234 C8.99677734,33.2832227 8.80523438,33.5500977 8.6340625,33.8299609 C8.6034375,33.8780859 8.57390625,33.9262109 8.544375,33.9765234 C8.38085938,34.2570703 8.23867188,34.5496484 8.11890625,34.8515234 C8.098125,34.9029297 8.080625,34.9554297 8.06203125,35.0079297 C7.94267578,35.328125 7.84902344,35.657207 7.78203125,35.9923047 L7.774375,36.0163672 L3.1259375,35.3524609 C2.58685547,35.2750781 2.18681641,34.8131055 2.1875,34.2685547 L2.1875,25.7099609 C2.18791016,25.239375 2.48910156,24.8218359 2.935625,24.6730859 L8.19765625,22.9230859 L14.310625,17.8294922 C14.5070898,17.6657031 14.7548242,17.5758789 15.010625,17.5757422 L32.1234375,17.5757422 C32.3476562,17.5758789 32.566543,17.6450586 32.7501563,17.7737109 L43.3671875,25.2057422 L57.8189063,26.3169922 L61.8657813,27.1263672 C62.2797656,27.2108594 62.6087109,27.5250391 62.7123438,27.9346484 L63.2745313,30.1801172 C63.3364648,30.4322266 63.3065234,30.6982813 63.1903125,30.9304297 Z" id="Shape"></path>
            </g>
        </g>
    </g>
</svg>