<?xml version="1.0" encoding="UTF-8"?>
<svg width="80px" height="80px" viewBox="0 0 80 80" version="1.1" xmlns="http://www.w3.org/2000/svg" xmlns:xlink="http://www.w3.org/1999/xlink">
    <!-- Generator: Sketch 50.2 (55047) - http://www.bohemiancoding.com/sketch -->
    <title>ic-tracking-bike</title>
    <desc>Created with Sketch.</desc>
    <defs>
        <circle id="path-1" cx="4.5" cy="4.5" r="4.5"></circle>
        <path d="M52.7275552,33.2452796 L47.9527301,18.125 L57.5,18.125 C61.6534006,18.125 63.0651684,22.0675749 61.7238915,25.4864155 C61.3323928,26.484324 60.4079545,27.4087623 58.8262289,28.6146187 L56.1737711,25.1353813 C57.1207667,24.4134226 57.6546618,23.8795275 57.6511085,23.8885845 C57.83533,23.4190141 57.8667557,22.8732031 57.759257,22.5729966 C57.7236104,22.4734483 57.7607342,22.5 57.5,22.5 L53.9212841,22.5 L56.7831257,31.5724492 C57.7173938,31.3614018 58.6894372,31.25 59.6875,31.25 C66.9362373,31.25 72.8125,37.1262627 72.8125,44.375 C72.8125,51.6237373 66.9362373,57.5 59.6875,57.5 C52.4387627,57.5 46.5625,51.6237373 46.5625,44.375 C46.5625,39.6828313 49.0247022,35.5657408 52.7275552,33.2452796 Z M54.1124322,37.6307234 C52.1730922,39.2356647 50.9375,41.6610384 50.9375,44.375 C50.9375,49.2074916 54.8550084,53.125 59.6875,53.125 C64.5199916,53.125 68.4375,49.2074916 68.4375,44.375 C68.4375,39.5425084 64.5199916,35.625 59.6875,35.625 C59.1476592,35.625 58.6192368,35.6738876 58.1064184,35.7674772 L59.5275303,40.2726062 C60.0669354,41.6044804 60.7292512,42.3437649 61.5114906,42.647857 L59.9262962,46.7255749 C57.9174316,45.9446379 56.4338185,44.2886118 55.4140379,41.7524749 L54.1124322,37.6307234 Z M31.8560096,18.125 L42.0310428,43.5625829 L37.9689572,45.1874171 L27.1439904,18.125 L22.5,18.125 L22.5,13.75 L35.625,13.75 L35.625,18.125 L31.8560096,18.125 Z M20.3125,57.5 C13.0637627,57.5 7.1875,51.6237373 7.1875,44.375 C7.1875,37.1262627 13.0637627,31.25 20.3125,31.25 C27.5612373,31.25 33.4375,37.1262627 33.4375,44.375 C33.4375,51.6237373 27.5612373,57.5 20.3125,57.5 Z M20.3125,53.125 C25.1449916,53.125 29.0625,49.2074916 29.0625,44.375 C29.0625,39.5425084 25.1449916,35.625 20.3125,35.625 C15.4800084,35.625 11.5625,39.5425084 11.5625,44.375 C11.5625,49.2074916 15.4800084,53.125 20.3125,53.125 Z M55.5807474,20.4503769 L42.4418722,46.5625 L16.9041088,46.5625 L28.8676819,20.4503769 L55.5807474,20.4503769 Z M48.4817526,24.8253769 L31.6755499,24.8253769 L23.7208912,42.1875 L39.7456278,42.1875 L48.4817526,24.8253769 Z" id="path-3"></path>
    </defs>
    <g id="ic-tracking-bike" stroke="none" stroke-width="1" fill="none" fill-rule="evenodd">
        <g id="icons/progress_and_pointers/ic_dot" transform="translate(35.625000, 66.250000)">
            <mask id="mask-2" fill="white">
                <use xlink:href="#path-1"></use>
            </mask>
            <use id="ic_dot" fill="#858585" fill-rule="evenodd" xlink:href="#path-1"></use>
            <g id="grayscale/$color-neutral-primary" mask="url(#mask-2)" fill="#333333" fill-rule="evenodd">
                <rect id="bg" x="0" y="0" width="9" height="9"></rect>
            </g>
        </g>
        <mask id="mask-4" fill="white">
            <use xlink:href="#path-3"></use>
        </mask>
        <use id="ic_tracking_bike" fill="#D70F64" fill-rule="nonzero" xlink:href="#path-3"></use>
    </g>
</svg>