<?xml version="1.0" encoding="UTF-8"?>
<svg width="80px" height="80px" viewBox="0 0 80 80" version="1.1" xmlns="http://www.w3.org/2000/svg" xmlns:xlink="http://www.w3.org/1999/xlink">
    <!-- Generator: Sketch 50.2 (55047) - http://www.bohemiancoding.com/sketch -->
    <title>ic-warning-yelow</title>
    <desc>Created with Sketch.</desc>
    <defs>
        <path d="M33.3333333,55 L13.3335,55 L26.8501667,31.815 L33.7668333,19.9783333 L36.6668333,15 L48.0001667,34.4366667 L60.0001667,55 L40,55 L40,68.3333333 L38.3333333,68.3333333 L38.3333333,55 L35.0016667,55 L35,68.3333333 L33.3333333,68.3333333 L33.3333333,55 Z M31.642,6.66666667 L31.642,8.35633333 L28.3333333,8.35633333 L28.3333333,11.6663333 L26.6666667,11.6663333 L26.6666667,8.35633333 L23.3253333,8.35633333 L23.3333333,6.66666667 L26.6666667,6.66666667 L26.6666667,3.333 L28.3333333,3.333 L28.3333333,6.66666667 L31.642,6.66666667 Z M66.6666667,0.016 L68.3333333,0.016 L68.3333333,3.33333333 L71.65,3.33333333 L71.65,5 L68.3333333,5 L68.3333333,8.33266667 L66.6666667,8.33266667 L66.6666667,5.02266667 L63.3333333,5.02266667 L63.3333333,3.33333333 L66.6666667,3.33333333 L66.6666667,0.016 Z M68.3253333,36.6666667 L68.3253333,38.3333333 L65,38.3333333 L65,41.6663333 L63.3333333,41.6663333 L63.3333333,38.3563333 L60,38.3333333 L60,36.6666667 L63.3333333,36.6666667 L63.3333333,33.333 L65,33.333 L65,36.6666667 L68.3253333,36.6666667 Z M43.3346667,63.3333333 L43.3346667,61.6666667 L73.333,61.6666667 L73.333,63.3333333 L43.3346667,63.3333333 Z M35,30 L35.8333333,41.6666667 L37.5,41.6666667 L38.3333333,30 L35,30 Z M35.4166667,45 L35.4166667,47.5 L37.9166667,47.5 L37.9166667,45 L35.4166667,45 Z M55.8333333,15.8333333 C55.8333333,17.6752373 54.341904,19.1666667 52.5,19.1666667 C50.658096,19.1666667 49.1666667,17.6752373 49.1666667,15.8333333 C49.1666667,13.9914294 50.658096,12.5 52.5,12.5 C54.341904,12.5 55.8333333,13.9914294 55.8333333,15.8333333 Z M54.1666667,15.8333333 C54.1666667,14.911904 53.4214294,14.1666667 52.5,14.1666667 C51.5785706,14.1666667 50.8333333,14.911904 50.8333333,15.8333333 C50.8333333,16.7547627 51.5785706,17.5 52.5,17.5 C53.4214294,17.5 54.1666667,16.7547627 54.1666667,15.8333333 Z M15.8333333,22.5 C15.8333333,24.341904 14.341904,25.8333333 12.5,25.8333333 C10.658096,25.8333333 9.16666667,24.341904 9.16666667,22.5 C9.16666667,20.658096 10.658096,19.1666667 12.5,19.1666667 C14.341904,19.1666667 15.8333333,20.658096 15.8333333,22.5 Z M14.1666667,22.5 C14.1666667,21.5785706 13.4214294,20.8333333 12.5,20.8333333 C11.5785706,20.8333333 10.8333333,21.5785706 10.8333333,22.5 C10.8333333,23.4214294 11.5785706,24.1666667 12.5,24.1666667 C13.4214294,24.1666667 14.1666667,23.4214294 14.1666667,22.5 Z M0,63.3333333 L0,61.6666667 L30,61.6666667 L30,63.3333333 L0,63.3333333 Z" id="path-1"></path>
    </defs>
    <g id="ic-warning-yelow" stroke="none" stroke-width="1" fill="none" fill-rule="evenodd">
        <g id="icons/general/ic_warning">
            <g id="icFloodBanner" transform="translate(3.333333, 5.000000)">
                <mask id="mask-2" fill="white">
                    <use xlink:href="#path-1"></use>
                </mask>
                <g id="ic_warning"></g>
                <g id="message/$color-warning" mask="url(#mask-2)" fill="#FCC54C">
                    <g transform="translate(-3.333333, -5.000000)" id="bg">
                        <rect x="0" y="0" width="80" height="80"></rect>
                    </g>
                </g>
            </g>
        </g>
    </g>
</svg>