<?xml version="1.0" encoding="UTF-8"?>
<svg width="80px" height="80px" viewBox="0 0 80 80" version="1.1" xmlns="http://www.w3.org/2000/svg" xmlns:xlink="http://www.w3.org/1999/xlink">
    <!-- Generator: Sketch 50.2 (55047) - http://www.bohemiancoding.com/sketch -->
    <title>logo-foodpanda-sygnet-outlined copy 2</title>
    <desc>Created with Sketch.</desc>
    <defs>
        <path d="M0,25.8480392 L1.28333333,25.8480392 L1.28333333,24.6607843 C1.28333333,23.2196078 2.08627451,22.2588235 3.68529412,22.2588235 L4.48823529,22.4166667 L4.48823529,23.8578431 L3.60980392,23.7 C3.12941176,23.7 2.88921569,24.022549 2.88921569,24.5029412 L2.88921569,25.8480392 L4.48823529,25.8480392 L4.48823529,27.2892157 L2.88921569,27.2892157 L2.88921569,33.3764706 L1.29019608,33.3764706 L1.29019608,27.2892157 L0.0068627451,27.2892157 L0.0068627451,25.8480392 L0,25.8480392 Z M8.64019608,25.6901961 C10.7196078,25.6901961 12.5656863,27.2892157 12.5656863,29.6156863 C12.5656863,31.9352941 10.7264706,33.5411765 8.64019608,33.5411765 C6.56078431,33.5411765 4.71470588,31.9421569 4.71470588,29.6156863 C4.71470588,27.2892157 6.55392157,25.6901961 8.64019608,25.6901961 Z M8.64019608,32.0931373 C10.1637255,32.0931373 10.9598039,30.9745098 10.9598039,29.6088235 C10.9598039,28.25 10.1568627,27.1245098 8.64019608,27.1245098 C7.11666667,27.1245098 6.32058824,28.2431373 6.32058824,29.6088235 C6.31372549,30.9745098 7.11666667,32.0931373 8.64019608,32.0931373 Z M17.1911765,25.6901961 C19.2705882,25.6901961 21.1166667,27.2892157 21.1166667,29.6156863 C21.1166667,31.9352941 19.277451,33.5411765 17.1911765,33.5411765 C15.1117647,33.5411765 13.2656863,31.9421569 13.2656863,29.6156863 C13.2656863,27.2892157 15.104902,25.6901961 17.1911765,25.6901961 Z M17.1911765,32.0931373 C18.7147059,32.0931373 19.5107843,30.9745098 19.5107843,29.6088235 C19.5107843,28.25 18.7078431,27.1245098 17.1911765,27.1245098 C15.6676471,27.1245098 14.8715686,28.2431373 14.8715686,29.6088235 C14.8647059,30.9745098 15.6676471,32.0931373 17.1911765,32.0931373 Z M29.5029412,33.3764706 L28.0617647,33.3764706 L27.9039216,32.7382353 L27.8215686,32.6558824 L27.7392157,32.7382353 C27.2588235,33.2186275 26.4558824,33.5411765 25.6598039,33.5411765 C23.5803922,33.5411765 21.8166667,31.9421569 21.8166667,29.6156863 C21.8166667,27.2960784 23.5803922,25.6901961 25.6598039,25.6901961 C26.4421569,25.6901961 27.2588235,26.0127451 27.7392157,26.4931373 L27.8215686,26.5754902 L27.9039216,26.4931373 L27.9039216,22.2656863 L29.5029412,22.2656863 L29.5029412,33.3764706 Z M25.7421569,27.1313725 C24.2186275,27.1313725 23.4019608,28.25 23.4019608,29.6156863 C23.4019608,30.9745098 24.2186275,32.1 25.7421569,32.1 C27.1009804,32.1 28.0617647,30.9813725 28.0617647,29.6156863 C28.0617647,28.25 27.1009804,27.1313725 25.7421569,27.1313725 Z M31.1088235,25.8480392 L32.55,25.8480392 L32.6941176,26.4862745 L32.7901961,26.5686275 L32.872549,26.4862745 C33.3529412,26.0058824 34.1558824,25.6833333 34.9519608,25.6833333 C37.0313725,25.6833333 38.795098,27.2823529 38.795098,29.6088235 C38.795098,31.9284314 37.0313725,33.5343137 34.9519608,33.5343137 C34.1696078,33.5343137 33.3529412,33.2117647 32.872549,32.7313725 L32.7901961,32.6490196 L32.6941176,32.7313725 L32.6941176,36.7666667 L31.1088235,36.7666667 L31.1088235,25.8480392 Z M34.8696078,32.0931373 C36.3931373,32.0931373 37.1892157,30.9745098 37.1892157,29.6088235 C37.1892157,28.25 36.3862745,27.1245098 34.8696078,27.1245098 C33.5107843,27.1245098 32.55,28.2431373 32.55,29.6088235 C32.55,30.9745098 33.5107843,32.0931373 34.8696078,32.0931373 Z M42.8303922,28.7029412 L44.1411765,28.7029412 L44.1411765,28.3735294 C44.1411765,27.4676471 43.5235294,27.0490196 42.6656863,27.0490196 C41.972549,27.0490196 41.5058824,27.3784314 41.2519608,28.0578431 L39.8176471,27.7558824 C40.1333333,26.472549 41.2313725,25.6627451 42.6794118,25.6627451 C44.6970588,25.6627451 45.7058824,26.6578431 45.7058824,28.6617647 L45.7058824,33.3764706 L44.3813725,33.3764706 L44.2303922,32.3813725 C43.7019608,33.122549 42.9196078,33.5 41.8764706,33.5 C40.5382353,33.5 39.5431373,32.7039216 39.5431373,31.1941176 C39.5431373,29.6362745 40.8539216,28.7029412 42.8303922,28.7029412 Z M42.1509804,32.1068627 C42.6794118,32.1068627 43.1460784,31.9421569 43.5372549,31.6127451 C43.9421569,31.2627451 44.1411765,30.7960784 44.1411765,30.1784314 L44.1411765,30.0137255 L42.7686275,30.0137255 C41.8009804,30.0137255 41.2039216,30.4666667 41.2039216,31.1872549 C41.1970588,31.7294118 41.5333333,32.1068627 42.1509804,32.1068627 Z M47.1813725,25.8480392 L48.622549,25.8480392 L48.7803922,26.4862745 L48.8627451,26.5686275 L48.945098,26.4862745 C49.2676471,26.0058824 50.0637255,25.6833333 50.7088235,25.6833333 C52.6303922,25.6833333 53.7490196,26.9666667 53.7490196,28.7235294 L53.7490196,33.3696078 L52.15,33.3696078 L52.15,28.7235294 C52.1019608,27.7009804 51.6078431,27.1245098 50.5509804,27.1245098 C49.6039216,27.1245098 48.8215686,27.8931373 48.7872549,28.8196078 L48.7872549,33.3696078 L47.1882353,33.3696078 L47.1882353,25.8480392 L47.1813725,25.8480392 Z M62.4647059,33.3764706 L61.0235294,33.3764706 L60.8656863,32.7382353 L60.7833333,32.6558824 L60.7009804,32.7382353 C60.2205882,33.2186275 59.4176471,33.5411765 58.6215686,33.5411765 C56.5421569,33.5411765 54.7784314,31.9421569 54.7784314,29.6156863 C54.7784314,27.2960784 56.5421569,25.6901961 58.6215686,25.6901961 C59.4039216,25.6901961 60.2205882,26.0127451 60.7009804,26.4931373 L60.7833333,26.5754902 L60.8656863,26.4931373 L60.8656863,22.2656863 L62.4647059,22.2656863 L62.4647059,33.3764706 Z M58.7039216,27.1313725 C57.1803922,27.1313725 56.3637255,28.25 56.3637255,29.6156863 C56.3637255,30.9745098 57.1803922,32.1 58.7039216,32.1 C60.0627451,32.1 61.0235294,30.9813725 61.0235294,29.6156863 C61.0235294,28.25 60.0627451,27.1313725 58.7039216,27.1313725 Z M67.0215686,28.7029412 L68.3323529,28.7029412 L68.3323529,28.3735294 C68.3323529,27.4676471 67.7147059,27.0490196 66.8568627,27.0490196 C66.1637255,27.0490196 65.6970588,27.3784314 65.4431373,28.0578431 L64.0088235,27.7558824 C64.3245098,26.472549 65.422549,25.6627451 66.8705882,25.6627451 C68.8882353,25.6627451 69.8970588,26.6578431 69.8970588,28.6617647 L69.8970588,33.3764706 L68.572549,33.3764706 L68.4215686,32.3813725 C67.8931373,33.122549 67.1107843,33.5 66.0676471,33.5 C64.7294118,33.5 63.7343137,32.7039216 63.7343137,31.1941176 C63.7343137,29.6362745 65.045098,28.7029412 67.0215686,28.7029412 Z M66.3421569,32.1068627 C66.8705882,32.1068627 67.3372549,31.9421569 67.7284314,31.6127451 C68.1333333,31.2627451 68.3323529,30.7960784 68.3323529,30.1784314 L68.3323529,30.0137255 L66.9598039,30.0137255 C65.9921569,30.0137255 65.395098,30.4666667 65.395098,31.1872549 C65.395098,31.7294118 65.7245098,32.1068627 66.3421569,32.1068627 Z M43.6127451,8.62254902 C43.6264706,8.7872549 43.6333333,8.95196078 43.5784314,9.11666667 C43.5784314,10.7637255 43.1186275,12.3078431 42.322549,13.6186275 C42.2607843,13.7147059 42.1990196,13.8107843 42.1372549,13.9068627 C42.0617647,14.0235294 41.9794118,14.1401961 41.8970588,14.2568627 C41.7254902,14.4833333 41.5539216,14.7029412 41.3617647,14.9156863 C41.2656863,15.0186275 41.1696078,15.1284314 41.0735294,15.2245098 C40.922549,15.3823529 40.7578431,15.5333333 40.5862745,15.6843137 C40.4970588,15.7598039 40.4147059,15.8352941 40.3254902,15.9039216 C39.7078431,16.3980392 39.0215686,16.8098039 38.2872549,17.1186275 C38.2803922,17.1186275 38.2803922,17.1186275 38.2803922,17.1186275 C38.0196078,17.2284314 37.7519608,17.3313725 37.4843137,17.4137255 C36.6745098,17.6676471 35.8029412,17.804902 34.9039216,17.804902 C34.004902,17.804902 33.1401961,17.6676471 32.3235294,17.4137255 C32.0490196,17.3313725 31.7882353,17.2284314 31.527451,17.1186275 C31.527451,17.1186275 31.527451,17.1186275 31.5205882,17.1186275 C30.7862745,16.8098039 30.1,16.3980392 29.4823529,15.9039216 C29.3931373,15.8284314 29.3107843,15.7598039 29.2215686,15.6843137 C29.05,15.5333333 28.8921569,15.3823529 28.7343137,15.2245098 C28.6382353,15.1215686 28.5421569,15.0186275 28.4460784,14.9156863 C28.2539216,14.7029412 28.0823529,14.4833333 27.9107843,14.2568627 C27.8284314,14.1401961 27.7529412,14.0235294 27.6705882,13.9068627 C27.6019608,13.8107843 27.5470588,13.7147059 27.4852941,13.6186275 C26.6892157,12.3078431 26.2294118,10.7637255 26.2294118,9.11666667 C26.2294118,8.95196078 26.2294118,8.7872549 26.2431373,8.62254902 C26.2431373,8.50588235 26.25,8.38921569 26.2637255,8.27254902 C26.2637255,8.24509804 26.2637255,8.21764706 26.2705882,8.19019608 C26.2911765,8.05980392 26.304902,7.92941176 26.3254902,7.79215686 C26.3529412,7.62058824 26.3872549,7.44901961 26.4215686,7.27745098 C26.4490196,7.16078431 26.4764706,7.05098039 26.5039216,6.94117647 C26.5382353,6.79705882 26.5794118,6.66666667 26.6205882,6.52941176 L26.6205882,6.52254902 C26.6617647,6.39215686 26.7098039,6.25490196 26.7578431,6.1245098 C26.8058824,5.99411765 26.8607843,5.86372549 26.9156863,5.73333333 C27.0186275,5.46568627 27.1421569,5.21862745 27.2794118,4.97156863 C27.4098039,4.7245098 27.5539216,4.49117647 27.7117647,4.25784314 C27.6980392,4.25098039 27.6843137,4.23039216 27.6705882,4.21666667 C27.6294118,4.18235294 27.595098,4.15490196 27.5607843,4.11372549 L27.5539216,4.10686275 C27.5401961,4.09313725 27.5264706,4.07254902 27.5127451,4.05882353 C27.4784314,4.01764706 27.4441176,3.97647059 27.4098039,3.93529412 C27.3892157,3.91470588 27.3823529,3.89411765 27.3686275,3.88039216 C27.327451,3.83235294 27.2931373,3.77745098 27.2588235,3.72254902 C27.2519608,3.70882353 27.245098,3.70196078 27.2382353,3.69509804 C27.2313725,3.68823529 27.2313725,3.68137255 27.2245098,3.6745098 C27.2245098,3.6745098 27.2245098,3.66764706 27.2176471,3.66078431 C27.1901961,3.60588235 27.1558824,3.55098039 27.1352941,3.49607843 C27.1009804,3.42745098 27.0666667,3.35196078 27.0460784,3.26960784 C27.0323529,3.24215686 27.0254902,3.21470588 27.0186275,3.18039216 C27.0117647,3.15294118 27.004902,3.1254902 26.9980392,3.09117647 C26.9911765,3.05686275 26.9843137,3.02254902 26.977451,2.98823529 C26.9637255,2.93333333 26.9568627,2.87843137 26.95,2.81666667 C26.9431373,2.80980392 26.9431373,2.79607843 26.9431373,2.78921569 C26.9431373,2.76176471 26.9431373,2.74117647 26.9362745,2.72058824 C26.9362745,2.66568627 26.9294118,2.59705882 26.9294118,2.53529412 C26.9294118,1.27254902 27.9519608,0.25 29.2215686,0.25 C29.2901961,0.25 29.3656863,0.256862745 29.4343137,0.26372549 C29.4617647,0.270588235 29.4960784,0.270588235 29.5235294,0.27745098 C29.5852941,0.284313725 29.6401961,0.291176471 29.695098,0.304901961 C29.7637255,0.318627451 29.8392157,0.339215686 29.9009804,0.359803922 C29.9147059,0.366666667 29.9284314,0.366666667 29.9421569,0.373529412 C29.9970588,0.394117647 30.0519608,0.414705882 30.1068627,0.435294118 C30.1137255,0.435294118 30.1137255,0.442156863 30.1205882,0.442156863 C30.1892157,0.469607843 30.2509804,0.503921569 30.3127451,0.538235294 C30.3676471,0.565686275 30.4156863,0.6 30.4705882,0.634313725 C30.4911765,0.641176471 30.4980392,0.648039216 30.5117647,0.661764706 C30.5598039,0.696078431 30.6147059,0.730392157 30.6558824,0.771568627 C30.6764706,0.778431373 30.6970588,0.792156863 30.7107843,0.812745098 C30.7519608,0.847058824 30.7931373,0.881372549 30.827451,0.915686275 C30.8480392,0.93627451 30.8617647,0.956862745 30.8754902,0.970588235 L30.8823529,0.97745098 C30.9235294,1.01862745 30.9578431,1.05980392 30.9921569,1.10098039 C31.0401961,1.15588235 31.0813725,1.21078431 31.122549,1.27254902 C31.1362745,1.28627451 31.1431373,1.29313725 31.15,1.30686275 C31.2803922,1.24509804 31.4107843,1.19019608 31.5411765,1.13529412 C31.6715686,1.07352941 31.8019608,1.0254902 31.9392157,0.97745098 C32.0284314,0.943137255 32.1107843,0.908823529 32.2,0.888235294 C32.2754902,0.853921569 32.3509804,0.833333333 32.4264706,0.812745098 C32.5019608,0.792156863 32.577451,0.771568627 32.6598039,0.750980392 C32.7147059,0.737254902 32.7696078,0.723529412 32.8245098,0.709803922 C32.9,0.689215686 32.9754902,0.668627451 33.0578431,0.654901961 C33.1607843,0.62745098 33.2705882,0.606862745 33.3803922,0.58627451 C33.4147059,0.579411765 33.4558824,0.57254902 33.4970588,0.565686275 C33.6,0.551960784 33.7029412,0.538235294 33.8058824,0.524509804 C33.8676471,0.517647059 33.922549,0.510784314 33.9843137,0.503921569 C34.1215686,0.483333333 34.2588235,0.476470588 34.3960784,0.469607843 C34.4098039,0.462745098 34.4235294,0.462745098 34.4372549,0.462745098 C34.6019608,0.455882353 34.7666667,0.449019608 34.9313725,0.449019608 C35.0960784,0.449019608 35.2607843,0.449019608 35.4254902,0.462745098 C35.4323529,0.462745098 35.4529412,0.462745098 35.4666667,0.469607843 C35.6107843,0.476470588 35.7411765,0.490196078 35.8784314,0.503921569 C35.9401961,0.510784314 35.995098,0.510784314 36.0568627,0.524509804 C36.1598039,0.531372549 36.2696078,0.551960784 36.3656863,0.565686275 C36.4068627,0.57254902 36.4480392,0.579411765 36.4823529,0.58627451 C36.5921569,0.606862745 36.695098,0.62745098 36.804902,0.654901961 C36.8803922,0.675490196 36.9558824,0.689215686 37.0313725,0.709803922 C37.0862745,0.716666667 37.1411765,0.737254902 37.1960784,0.750980392 C37.2784314,0.771568627 37.3539216,0.792156863 37.4294118,0.812745098 C37.504902,0.833333333 37.5803922,0.853921569 37.6558824,0.888235294 C37.745098,0.915686275 37.8343137,0.943137255 37.9166667,0.97745098 C38.0539216,1.0254902 38.1843137,1.08039216 38.3147059,1.13529412 C38.445098,1.18333333 38.5754902,1.24509804 38.7058824,1.30686275 C38.7127451,1.29313725 38.7196078,1.28627451 38.7333333,1.27254902 C38.7745098,1.21764706 38.8156863,1.15588235 38.8637255,1.10098039 C38.8980392,1.05980392 38.9323529,1.01862745 38.9735294,0.97745098 L38.9803922,0.970588235 C38.9941176,0.95 39.0078431,0.929411765 39.0284314,0.915686275 C39.0627451,0.881372549 39.1039216,0.847058824 39.145098,0.812745098 C39.1656863,0.792156863 39.1862745,0.778431373 39.2,0.771568627 C39.2480392,0.730392157 39.2960784,0.696078431 39.3441176,0.661764706 C39.3578431,0.648039216 39.3715686,0.641176471 39.3852941,0.634313725 C39.4333333,0.6 39.4882353,0.565686275 39.5431373,0.538235294 C39.604902,0.503921569 39.6666667,0.469607843 39.7352941,0.442156863 C39.7421569,0.442156863 39.7421569,0.435294118 39.7490196,0.435294118 C39.8039216,0.414705882 39.8519608,0.394117647 39.9137255,0.373529412 C39.9205882,0.366666667 39.9411765,0.366666667 39.954902,0.359803922 C40.0235294,0.339215686 40.0921569,0.318627451 40.1607843,0.304901961 C40.2156863,0.291176471 40.2705882,0.284313725 40.3323529,0.27745098 C40.3598039,0.270588235 40.3941176,0.270588235 40.4215686,0.26372549 C40.4901961,0.256862745 40.5656863,0.25 40.6343137,0.25 C41.9039216,0.25 42.9264706,1.27254902 42.9264706,2.53529412 C42.9264706,2.59705882 42.9264706,2.65882353 42.9196078,2.72058824 C42.9196078,2.74803922 42.9196078,2.76862745 42.9127451,2.78921569 C42.9127451,2.79607843 42.9127451,2.80980392 42.9058824,2.81666667 C42.8990196,2.87156863 42.8921569,2.93333333 42.8784314,2.98823529 C42.8784314,3.02254902 42.8647059,3.05686275 42.8578431,3.09117647 C42.8509804,3.1254902 42.8441176,3.15294118 42.8372549,3.18039216 C42.8303922,3.20784314 42.8235294,3.24215686 42.8098039,3.26960784 C42.7892157,3.35196078 42.754902,3.42745098 42.7205882,3.49607843 C42.7,3.55098039 42.6656863,3.60588235 42.6382353,3.66078431 C42.6382353,3.66078431 42.6382353,3.66764706 42.6313725,3.6745098 C42.6245098,3.68137255 42.6245098,3.68823529 42.6176471,3.69509804 C42.6107843,3.70196078 42.6039216,3.70882353 42.5970588,3.72254902 C42.5627451,3.77745098 42.5284314,3.8254902 42.4872549,3.88039216 C42.4735294,3.90098039 42.4598039,3.92156863 42.4460784,3.93529412 C42.4117647,3.97647059 42.377451,4.01764706 42.3431373,4.05882353 C42.3362745,4.07254902 42.3156863,4.09313725 42.3019608,4.10686275 L42.295098,4.11372549 C42.2539216,4.15490196 42.2264706,4.18235294 42.1852941,4.21666667 C42.1784314,4.23039216 42.1578431,4.24411765 42.1441176,4.25784314 C42.295098,4.48431373 42.4460784,4.7245098 42.5764706,4.97156863 C42.7068627,5.21862745 42.8303922,5.47254902 42.9401961,5.73333333 C43.0019608,5.86372549 43.05,5.99411765 43.0980392,6.1245098 C43.1460784,6.25490196 43.1941176,6.38529412 43.2352941,6.52254902 L43.2352941,6.52941176 C43.2764706,6.66666667 43.3176471,6.80392157 43.3519608,6.94117647 C43.3794118,7.05784314 43.4137255,7.16764706 43.4343137,7.27745098 C43.4686275,7.44901961 43.5029412,7.62058824 43.5303922,7.79215686 C43.5509804,7.92254902 43.5715686,8.05294118 43.5852941,8.19019608 C43.5852941,8.21764706 43.5852941,8.24509804 43.5921569,8.27254902 C43.5990196,8.38921569 43.6058824,8.50588235 43.6127451,8.62254902 Z M34.9313725,9.28137255 C34.5401961,9.28137255 33.4215686,9.35686275 33.4215686,9.71372549 C33.4215686,10.3588235 34.8009804,10.8254902 34.9313725,10.7911765 C35.0617647,10.8254902 36.4343137,10.3588235 36.4343137,9.71372549 C36.4343137,9.35 35.322549,9.28137255 34.9313725,9.28137255 Z M29.8803922,5.35588235 C29.1323529,5.85686275 28.2127451,6.93431373 28.3568627,8.40980392 C28.5009804,9.89215686 29.6676471,10.8186275 30.2647059,10.8117647 C30.8617647,10.804902 31.1637255,10.5029412 31.3490196,9.75490196 C31.5343137,9.00686275 32.172549,8.14901961 32.9754902,7.22941176 C33.7852941,6.30294118 32.9617647,5.4245098 32.9617647,5.4245098 C32.3029412,4.55980392 30.6352941,4.85490196 29.8803922,5.35588235 Z M37.0656863,11.3264706 L32.7970588,11.3264706 C32.7970588,12.3627451 33.7578431,13.2 34.9313725,13.2 C36.1117647,13.2 37.0656863,12.3627451 37.0656863,11.3264706 Z M39.5911765,10.8117647 C40.195098,10.8186275 41.354902,9.89215686 41.4990196,8.40980392 C41.6431373,6.93431373 40.7235294,5.85 39.9754902,5.35588235 C39.2205882,4.85490196 37.5460784,4.55980392 36.8941176,5.4245098 C36.8941176,5.4245098 36.0705882,6.30980392 36.8803922,7.22941176 C37.6901961,8.14901961 38.3215686,9.00686275 38.5068627,9.75490196 C38.6921569,10.5029412 38.9941176,10.804902 39.5911765,10.8117647 Z M40.6411765,0.92254902 C40.0921569,0.92254902 39.6117647,1.19705882 39.3098039,1.60882353 C39.3578431,1.63627451 39.4058824,1.66372549 39.4539216,1.69803922 C39.5637255,1.76666667 39.6735294,1.83529412 39.7833333,1.91078431 C39.7970588,1.91078431 39.8039216,1.91764706 39.8176471,1.93137255 C39.927451,2 40.0303922,2.0754902 40.1333333,2.15784314 C40.2431373,2.24705882 40.3529412,2.32941176 40.4627451,2.41862745 C40.572549,2.50784314 40.6754902,2.59705882 40.7784314,2.69313725 C40.8813725,2.78921569 40.9843137,2.88529412 41.0803922,2.98137255 C41.1833333,3.07745098 41.2794118,3.18039216 41.3686275,3.28333333 C41.4647059,3.38627451 41.5539216,3.48921569 41.6431373,3.59901961 C41.677451,3.64019608 41.7117647,3.68137255 41.7460784,3.72254902 C42.0617647,3.42745098 42.2607843,3.00882353 42.2607843,2.54215686 C42.2607843,1.64313725 41.5401961,0.92254902 40.6411765,0.92254902 Z M27.6362745,2.53529412 C27.6362745,3.00882353 27.8352941,3.42058824 28.1441176,3.72254902 C28.1784314,3.68137255 28.2127451,3.64019608 28.2470588,3.59901961 C28.3362745,3.48921569 28.4254902,3.38627451 28.5215686,3.28333333 C28.6176471,3.18039216 28.7137255,3.07745098 28.8098039,2.98137255 C28.9058824,2.87843137 29.0088235,2.78235294 29.1117647,2.69313725 C29.2147059,2.59705882 29.3176471,2.50784314 29.427451,2.41862745 C29.5372549,2.32254902 29.6470588,2.24019608 29.7568627,2.15784314 C29.8598039,2.0754902 29.9627451,2 30.072549,1.93137255 C30.0862745,1.9245098 30.0931373,1.91764706 30.1068627,1.91078431 C30.2166667,1.83529412 30.3264706,1.76666667 30.4362745,1.69803922 C30.4843137,1.66372549 30.5323529,1.63627451 30.5803922,1.60882353 C30.2852941,1.19019608 29.804902,0.915686275 29.2558824,0.915686275 C28.3568627,0.915686275 27.6362745,1.64313725 27.6362745,2.53529412 Z M38.2460784,6.34411765 C38.5,6.34411765 38.6990196,6.54313725 38.6990196,6.79705882 C38.6990196,7.04411765 38.4931373,7.25 38.2460784,7.25 C37.9990196,7.25 37.7931373,7.04411765 37.7931373,6.79705882 C37.7931373,6.55 37.9990196,6.34411765 38.2460784,6.34411765 Z M31.7539216,7.25 C31.5,7.25 31.3009804,7.04411765 31.3009804,6.79705882 C31.3009804,6.55 31.5068627,6.34411765 31.7539216,6.34411765 C32.0009804,6.34411765 32.2068627,6.55 32.2068627,6.79705882 C32.2068627,7.04411765 32.0009804,7.25 31.7539216,7.25 Z" id="path-1"></path>
    </defs>
    <g id="logo-foodpanda-sygnet-outlined-copy-2" stroke="none" stroke-width="1" fill="none" fill-rule="evenodd">
        <g id="logos/foodpanda/logo-foodpanda-vertical" transform="translate(5.000000, 21.000000)">
            <mask id="mask-2" fill="white">
                <use xlink:href="#path-1"></use>
            </mask>
            <use id="logo-foodpanda-vertical" fill="#858585" fill-rule="nonzero" xlink:href="#path-1"></use>
            <g id="grayscale/$color-white" mask="url(#mask-2)" fill="#FFFFFF">
                <g transform="translate(0.000000, -5.000000)" id="bg">
                    <rect x="0" y="0" width="70" height="47"></rect>
                </g>
            </g>
        </g>
    </g>
</svg>