<?xml version="1.0" encoding="UTF-8"?>
<svg width="80px" height="80px" viewBox="0 0 80 80" version="1.1" xmlns="http://www.w3.org/2000/svg" xmlns:xlink="http://www.w3.org/1999/xlink">
    <!-- Generator: Sketch 50.2 (55047) - http://www.bohemiancoding.com/sketch -->
    <title>logo-facebook</title>
    <desc>Created with Sketch.</desc>
    <defs>
        <path d="M33.6252358,9.34427208 C33.5191804,10.0928494 32.9232898,10.4852954 32.2159791,10.4299981 C32.0393578,10.4163801 31.8792431,10.3800654 31.7356351,10.3239428 C31.1657424,9.99669809 30.9932478,9.44867675 30.9433151,9.10451275 C30.9424898,9.10451275 30.9420771,9.10451275 30.9420771,9.10492541 C30.9028738,8.57258541 30.8607818,7.45879806 31.1207618,6.93264806 C31.3411258,6.52947272 31.7261438,6.30952139 32.2366124,6.29301472 C32.9616678,6.26908005 33.5101018,6.62851272 33.6182204,7.36471006 C33.7139591,8.0130094 33.7180858,8.69638541 33.6252358,9.34427208 M33.2653904,4.42693604 C34.6597911,4.57549604 35.5602298,5.32242271 35.9068698,6.67473139 C36.2200838,7.89251074 36.2308131,9.12679675 35.8152578,10.3309581 C35.1677838,12.2077661 33.3177991,12.6175441 31.9143198,12.1145034 C31.5449831,11.9824501 31.2288804,11.7030748 30.9041118,11.4715688 L30.9041118,12.1454534 L28.4957891,12.1454534 L28.4957891,0.791755336 L30.9041118,0.5 L30.9041118,0.791755336 L30.9041118,0.839212003 L30.9041118,5.15653071 L30.9041118,5.40536871 C31.5693304,4.6056207 32.3558731,4.32995937 33.2653904,4.42693604 Z M41.80008,4.56740777 C43.1255653,4.92188844 43.9323287,5.77775912 44.2257347,7.10778379 C44.413498,7.95540114 44.413498,8.80631981 44.2195447,9.65311182 C43.8658893,11.1968978 42.6547127,12.2033918 41.058518,12.2863378 C41.0420113,12.2875758 41.0255046,12.2875758 41.0094106,12.2879885 C41.00776,12.2879885 41.006522,12.2888138 41.0044586,12.2888138 C40.6829913,12.3263665 40.2975606,12.3036698 39.995076,12.2714818 C39.9005753,12.2640538 39.810614,12.2537372 39.7355086,12.2401192 L39.733858,12.2401192 C39.7144626,12.2380558 39.6938293,12.2364052 39.6740213,12.2347545 C39.6141846,12.2256758 39.5547606,12.2145338 39.4953366,12.2025665 C39.4883213,12.2013285 39.483782,12.2005032 39.483782,12.2005032 L39.4841946,12.2005032 C39.4623233,12.1955512 39.4396266,12.1914245 39.418168,12.1864725 C37.871906,11.8299285 36.8761413,10.6827152 36.7870053,9.07207715 C36.7482146,8.36806781 36.7775139,7.63806047 36.9248359,6.95138313 C37.1947199,5.69274978 38.032846,4.90166777 39.283226,4.56864577 C40.1180506,4.34621844 40.963192,4.34374244 41.80008,4.56740777 Z M41.9020087,9.22228781 C41.9168647,9.07744181 42.0295227,7.9471478 41.878074,7.3108158 C41.710944,6.67861046 41.2425673,6.30597245 40.5847766,6.29359245 C39.784616,6.27749845 39.2514506,6.74422446 39.1812973,7.5967938 C39.1363166,8.13738714 39.1404433,8.68870981 39.1920266,9.22847781 C39.263418,9.96797649 39.7705853,10.4004512 40.5104966,10.4338772 C41.198412,10.4660652 41.7142453,10.0814598 41.87436,9.37126048 C41.885502,9.32174048 41.894168,9.27222048 41.9020087,9.22228781 Z M5.64862265,4.52754417 L5.84670265,4.52754417 L5.64820999,6.56075286 L3.8861233,6.56075286 L3.8861233,12.0908989 L1.58220528,12.0908989 L1.58220528,6.56075286 L4.12666668e-05,6.56075286 L4.12666668e-05,4.52754417 L1.48976795,4.52754417 C1.48852995,4.3364795 1.48110195,2.81580282 1.59004595,2.48401882 C1.59128395,2.47824148 1.59293461,2.47246415 1.59417261,2.46668682 C1.59499795,2.46586148 1.59499795,2.46503615 1.59499795,2.46462348 C2.28827795,-0.19088654 5.77737465,0.636922801 5.83886199,0.651778801 L5.84009999,0.651778801 L5.84051265,0.651778801 L5.84051265,2.42707082 L5.84092532,2.43532415 L5.84051265,2.50919149 C5.84051265,2.50919149 4.05531664,2.30368348 3.92986597,3.38445749 L3.92986597,4.52754417 L5.64862265,4.52754417 Z M11.1429905,5.50036458 L11.1434032,5.50036458 L11.1434032,4.53596257 L13.3907859,4.53596257 L13.3907859,12.152964 L11.1434032,12.152964 L11.1434032,11.1778326 C11.1025492,11.2574773 11.0691232,11.2983313 11.0691232,11.2983313 C10.6973105,11.7658826 10.2970238,12.1013806 9.75808116,12.213626 C8.00135914,12.5792486 6.35358113,11.837274 5.96154779,9.62166662 C5.77997445,8.59866594 5.78451379,7.55874593 6.09401379,6.54853792 C6.59787979,4.90447391 8.18870981,4.04860323 9.82286982,4.53018524 C10.2479165,4.65522324 10.4525992,4.79264124 10.9952558,5.34437658 C10.9952558,5.34437658 11.0187778,5.36748591 11.0522038,5.40214991 C11.0559178,5.40627658 11.0592192,5.40957791 11.0629332,5.41329191 L11.0629332,5.41370458 C11.0868678,5.43887725 11.1149292,5.46900191 11.1429905,5.50036458 Z M10.9453232,9.33321261 C11.0142385,8.69069061 11.0125878,8.02918594 10.9424345,7.3870766 C10.8677418,6.70039926 10.3568605,6.30795325 9.69411782,6.29309725 C9.01899515,6.27741592 8.55887181,6.59021726 8.37853648,7.22283526 C8.36079181,7.31320926 8.15156981,8.43318661 8.33025448,9.37530462 C8.47963981,10.0376346 8.93646182,10.4069713 9.62644049,10.4337946 C10.3003252,10.460618 10.8702178,10.0376346 10.9453232,9.33321261 Z M20.2550833,11.607006 L20.2546706,11.6065933 L20.3186339,11.8232433 L20.1832793,11.8707 C19.8279732,11.998214 19.3327732,12.1773113 18.9873712,12.230958 C18.1665772,12.3592973 17.3412439,12.34733 16.5357186,12.1112846 C15.3018452,11.749376 14.5425385,10.9401366 14.2660519,9.68769328 C14.0815899,8.85163061 14.0741619,8.00772727 14.2351019,7.17372793 C14.5413005,5.58908791 15.6451839,4.62922524 17.2719159,4.45714324 C18.0440152,4.3758479 18.8033219,4.39235457 19.5436459,4.60405257 L19.5432332,4.60405257 C19.5432332,4.60405257 19.5836746,4.61560724 19.6455746,4.63500257 C19.7149026,4.65687391 19.7838179,4.67915791 19.8527333,4.70433057 C20.0252279,4.76746857 20.1354099,4.81244924 20.2001986,4.86692124 L20.2001986,4.86650857 C20.2517819,4.89910924 20.2901599,4.93253524 20.3058413,4.96513591 L20.2427033,5.20819658 L20.2422906,5.20819658 C20.2294979,5.25689124 20.2125786,5.31177591 20.1927706,5.37532658 C20.0664946,5.78015258 19.9307273,6.18208992 19.7978486,6.58815392 C19.4157192,6.49406592 19.0748566,6.38883592 18.7257406,6.32982459 C18.4694746,6.28649459 18.2000032,6.27411459 17.9408486,6.29887459 C17.1745266,6.37109125 16.6925319,6.79407459 16.5827626,7.5839186 C16.5245766,8.0023626 16.5121966,8.44020194 16.5526379,8.86442328 C16.9921279,11.433686 19.8089906,10.0813773 19.8089906,10.0813773 L19.9171093,10.4857906 C20.0322433,10.84935 20.1506786,11.225702 20.2550833,11.607006 Z M27.6705795,8.62734628 L27.6751189,9.11841961 C27.6747062,9.12749828 27.6751189,9.20219095 27.6751189,9.20219095 C27.6631515,9.20466695 27.3800622,9.20838095 27.3800622,9.20838095 L27.3804749,9.20796828 C27.3491122,9.20838095 27.3173369,9.20796828 27.2859742,9.20796828 C25.9683295,9.20838095 24.6515102,9.20838095 23.3338655,9.20838095 L22.9500855,9.20838095 C22.9253255,10.0592996 23.4395082,10.419145 24.1117422,10.530565 C24.5252342,10.5660543 24.9354248,10.5644036 25.3410762,10.5235496 C25.8247215,10.461237 26.2827815,10.349817 26.6030108,10.2598556 C26.6199302,10.2549036 26.6364368,10.249539 26.6533562,10.2437616 C26.7441428,10.213637 26.8353422,10.185163 26.9277795,10.1612283 C26.9294302,10.1608156 26.9319062,10.1608156 26.9335568,10.1608156 C27.0115508,10.135643 27.0552935,10.1199616 27.0552935,10.1199616 L27.0672609,10.160403 C27.1782682,10.5722443 27.2958782,10.9832603 27.3940929,11.3988156 C27.3949182,11.3988156 27.3961562,11.3988156 27.3969815,11.398403 L27.4819909,11.7099663 C25.3658362,12.7729956 22.9653541,12.1453296 22.4751061,11.998833 C22.4751061,11.9984203 22.4751061,11.9984203 22.4755188,11.9980076 C22.4705668,11.9971823 22.4660275,11.996357 22.4610755,11.996357 L22.4606628,11.996357 C21.3864915,11.6059743 20.7654281,10.7934336 20.5941715,9.51788095 C20.4806881,8.67026361 20.4984328,7.7739516 20.6387395,6.92963559 C20.8698328,5.53771091 21.9968255,4.6129249 23.4816002,4.47138024 C24.0242568,4.4197969 24.5887848,4.40782957 25.1227755,4.49696557 C26.5217155,4.73218557 27.3866649,5.63097358 27.5921729,7.05178493 C27.6668655,7.57009427 27.6598502,8.09995827 27.6705795,8.62734628 Z M25.5044922,7.58866427 C25.5193482,7.04064293 25.4793195,6.53388826 24.9713268,6.25327492 C24.4691115,5.97513758 23.9293435,5.98669225 23.4407462,6.29701759 C22.9806228,6.59001092 22.9158341,7.07118026 22.9022161,7.58866427 L25.5044922,7.58866427 Z M60.5102218,4.6155247 L58.1027244,8.38028274 L60.5102218,12.1578334 L57.9558151,12.1578334 L55.7369064,8.67822808 L55.7369064,12.1528814 L53.3285837,12.1528814 L53.3285837,0.798770669 L55.7369064,0.507015333 L55.7369064,0.798770669 L55.7369064,0.846640003 L55.7369064,8.08398807 L57.9558151,4.6155247 L60.5102218,4.6155247 Z M50.0139212,4.56641737 C51.3394065,4.92048537 52.1453445,5.77635605 52.4399886,7.10638073 C52.6269266,7.95399807 52.6269266,8.80491674 52.4333859,9.65170875 C52.0797305,11.1954948 50.8681412,12.2019888 49.2715339,12.2853474 C49.2558525,12.2861728 49.2397585,12.2861728 49.2228392,12.2865854 C49.2207759,12.2869981 49.2195379,12.2869981 49.2178872,12.2874108 C48.8972452,12.3253761 48.5114018,12.3022668 48.2080918,12.2704914 C48.1140038,12.2630634 48.0248678,12.2523341 47.9493498,12.2387161 C47.9485245,12.2387161 47.9481118,12.2387161 47.9476992,12.2378908 C47.9278912,12.2370654 47.9076705,12.2350021 47.8874498,12.2329388 C47.8280258,12.2242728 47.7677765,12.2131308 47.7083525,12.2011634 C47.7013372,12.1999254 47.6976232,12.1991001 47.6976232,12.1991001 L47.6980358,12.1991001 C47.6757518,12.1941481 47.6534678,12.1900214 47.6311838,12.1850694 C46.0857472,11.8289381 45.0891572,10.6813121 45.0008465,9.07067408 C44.9616431,8.36625207 44.9909425,7.6366574 45.1386772,6.94956739 C45.4085612,5.69134671 46.2466872,4.90026471 47.4962418,4.5672427 C48.3314792,4.34481537 49.1770332,4.34233937 50.0139212,4.56641737 Z M50.1154372,9.22088475 C50.1307059,9.07645141 50.2425385,7.94533207 50.0915025,7.30941273 C49.9243725,6.67720739 49.4551705,6.30456939 48.7990305,6.29218939 C47.9980445,6.27609539 47.4652918,6.74282139 47.3939005,7.5958034 C47.3493325,8.13598407 47.3538718,8.68730674 47.4054552,9.22707475 C47.4768465,9.96616075 47.9840138,10.3982228 48.7239252,10.4328868 C49.4118405,10.4642494 49.9272612,10.0804694 50.0877885,9.36985742 C50.0989305,9.32033741 50.1075965,9.27123008 50.1154372,9.22088475 Z" id="path-1"></path>
    </defs>
    <g id="logo-facebook" stroke="none" stroke-width="1" fill="none" fill-rule="evenodd">
        <g id="logos/3rdparty/logo_facebook" transform="translate(5.000000, 30.000000)">
            <g id="logo_facebook" transform="translate(3.935484, 2.944444)">
                <mask id="mask-2" fill="white">
                    <use xlink:href="#path-1"></use>
                </mask>
                <use id="Mask" fill="#FEFEFE" xlink:href="#path-1"></use>
                <g id="grayscale/$color-white" mask="url(#mask-2)" fill="#FFFFFF">
                    <g transform="translate(0.000000, -2.000000)" id="bg">
                        <rect x="0" y="0" width="62" height="18"></rect>
                    </g>
                </g>
            </g>
        </g>
    </g>
</svg>