<?xml version="1.0" encoding="UTF-8"?>
<svg width="80px" height="80px" viewBox="0 0 80 80" version="1.1" xmlns="http://www.w3.org/2000/svg" xmlns:xlink="http://www.w3.org/1999/xlink">
    <!-- Generator: Sketch 50.2 (55047) - http://www.bohemiancoding.com/sketch -->
    <title>logo-foodora-vertical</title>
    <desc>Created with Sketch.</desc>
    <defs>
        <path d="M0.00949091611,35.8576302 L1.77480131,35.8576302 L1.77480131,34.2157017 C1.77480131,32.2226093 2.8852385,30.893881 5.09662195,30.893881 L6.20705914,31.1121721 L6.20705914,33.1052645 L4.99222188,32.8869734 C4.32785775,32.8869734 3.99567568,33.3330465 3.99567568,33.9974106 L3.99567568,35.8576302 L6.20705914,35.8576302 L6.20705914,37.8507226 L3.99567568,37.8507226 L3.99567568,46.2691651 L1.77480131,46.2691651 L1.77480131,37.8507226 L0,37.8507226 L0,35.8576302 L0.00949091611,35.8576302 Z M11.9490634,35.6393391 C14.824811,35.6393391 17.3778674,37.8507226 17.3778674,41.0681431 C17.3778674,44.2760728 14.8343019,46.4969471 11.9490634,46.4969471 C9.0733158,46.4969471 6.52025937,44.2855637 6.52025937,41.0681431 C6.52025937,37.8507226 9.0733158,35.6393391 11.9490634,35.6393391 Z M11.9490634,44.4943638 C14.0560468,44.4943638 15.156993,42.9473445 15.156993,41.0586522 C15.156993,39.1794508 14.0465558,37.6229406 11.9490634,37.6229406 C9.84208001,37.6229406 8.74113374,39.1699599 8.74113374,41.0586522 C8.74113374,42.9473445 9.84208001,44.4943638 11.9490634,44.4943638 Z M23.7747449,35.6393391 C26.6504924,35.6393391 29.2035489,37.8507226 29.2035489,41.0681431 C29.2035489,44.2760728 26.6599834,46.4969471 23.7747449,46.4969471 C20.8895064,46.4969471 18.3459408,44.2855637 18.3459408,41.0681431 C18.3554318,37.8507226 20.8989973,35.6393391 23.7747449,35.6393391 Z M23.7747449,44.4943638 C25.8817282,44.4943638 26.9826745,42.9473445 26.9826745,41.0586522 C26.9826745,39.1794508 25.8722373,37.6229406 23.7747449,37.6229406 C21.6677615,37.6229406 20.5668152,39.1699599 20.5668152,41.0586522 C20.5668152,42.9473445 21.6677615,44.4943638 23.7747449,44.4943638 Z M40.8014484,46.2691651 L38.808356,46.2691651 L38.5900649,45.3865099 L38.4761739,45.272619 L38.3622829,45.3865099 C37.6979188,46.0508741 36.5874816,46.4969471 35.4865353,46.4969471 C32.6107878,46.4969471 30.1716223,44.2855637 30.1716223,41.0681431 C30.1716223,37.8602135 32.6107878,35.6393391 35.4865353,35.6393391 C36.5684998,35.6393391 37.6979188,36.0854122 38.3622829,36.7497763 L38.4761739,36.8636673 L38.5900649,36.7497763 L38.5900649,30.903372 L40.8014484,30.903372 L40.8014484,46.2691651 Z M35.6004263,37.6324315 C33.493443,37.6324315 32.3640239,39.1794508 32.3640239,41.0681431 C32.3640239,42.9473445 33.493443,44.5038547 35.6004263,44.5038547 C37.4796277,44.5038547 38.808356,42.9568354 38.808356,41.0681431 C38.8178469,39.1794508 37.4891186,37.6324315 35.6004263,37.6324315 Z M47.6538898,35.6393391 C50.5296374,35.6393391 53.0826938,37.8507226 53.0826938,41.0681431 C53.0826938,44.2760728 50.5391283,46.4969471 47.6538898,46.4969471 C44.7781422,46.4969471 42.2250858,44.2855637 42.2250858,41.0681431 C42.2250858,37.8602135 44.7781422,35.6393391 47.6538898,35.6393391 Z M47.6538898,44.4943638 C49.7608732,44.4943638 50.8618195,42.9473445 50.8618195,41.0586522 C50.8618195,39.1794508 49.7513823,37.6229406 47.6538898,37.6229406 C45.5469064,37.6229406 44.4459602,39.1699599 44.4459602,41.0586522 C44.4459602,42.9473445 45.5469064,44.4943638 47.6538898,44.4943638 Z M54.4968403,35.8671211 L56.4899327,35.8671211 L56.7082238,36.9775583 L56.8221148,37.0914493 L56.9360058,36.9775583 C57.6003699,36.0949031 58.4830251,35.64883 59.3656803,35.64883 C59.8117533,35.64883 60.0300444,35.64883 60.4761175,35.8671211 L60.4761175,37.8602135 L59.1473892,37.8602135 C57.8471337,37.8602135 56.7556784,38.9231961 56.7177147,40.2044697 L56.7177147,46.2691651 L54.5063312,46.2691651 L54.5063312,35.8671211 L54.4968403,35.8671211 Z M66.0283034,39.8058513 L67.8410684,39.8058513 L67.8410684,39.3502873 C67.8410684,38.0974864 66.9868859,37.5185405 65.8005214,37.5185405 C64.8419389,37.5185405 64.1965566,37.9741045 63.8453927,38.9137052 L61.8617912,38.4961048 C62.2983734,36.7213035 63.8169199,35.6013754 65.8195032,35.6013754 C68.6098326,35.6013754 70.0049973,36.9775583 70.0049973,39.7489058 L70.0049973,46.2691651 L68.1732504,46.2691651 L67.9644503,44.8929823 C67.2336497,45.9180012 66.1516853,46.4400016 64.7090661,46.4400016 C62.8583374,46.4400016 61.4821546,45.3390554 61.4821546,43.2510538 C61.4821546,41.0966159 63.2949196,39.8058513 66.0283034,39.8058513 Z M65.0887027,44.5133457 C65.8195032,44.5133457 66.4648855,44.2855637 67.0058678,43.8299997 C67.5658318,43.345963 67.8410684,42.7005807 67.8410684,41.8463982 L67.8410684,41.6186162 L65.9428852,41.6186162 C64.604666,41.6186162 63.7789563,42.2450167 63.7789563,43.2415629 C63.7789563,44.0008362 64.2345203,44.5133457 65.0887027,44.5133457 Z M37.6219915,23.8041667 C36.3691905,24.1932943 30.2665315,23.6238393 28.9283123,23.5668938 C27.0586018,23.4814756 25.5115825,23.9750032 24.1164178,24.6868219 C22.6358349,22.864566 21.952489,20.7955463 21.5728523,18.3658718 C23.6893266,18.3658718 25.2648187,18.3943445 25.9196919,18.3848536 C30.8264955,18.2899444 40.6875574,18.3279081 41.1621032,18.5082355 C41.5037762,18.6411083 41.5986853,19.2675088 41.0007576,19.6281636 C40.4028299,19.9888184 36.9481364,20.1881277 36.3502087,20.2545641 C35.7617719,20.3115096 35.5150081,20.6247098 35.5150081,20.8904555 C35.5150081,21.1562011 35.6288991,21.4219468 36.0275176,21.4883832 C36.426136,21.5548196 39.6530475,21.0138374 39.6530475,21.0138374 C39.6530475,21.0138374 46.495998,18.8499085 47.293235,18.8593994 C47.86269,18.8688903 48.1853811,19.0776905 48.3657085,19.2580179 C48.4890904,19.3813998 48.4416358,19.5901999 48.2802903,19.6471454 C46.6573436,20.264055 38.7514105,23.4435119 37.6219915,23.8041667 Z M49.6374913,15.1579421 C49.9412006,15.1579421 50.1974553,15.4141969 50.1974553,15.7084153 C50.1974553,16.0121246 49.9506915,16.2588884 49.6469822,16.2588884 L20.3769969,16.2588884 C20.0732876,16.2588884 19.8265238,16.0121246 19.8265238,15.7084153 C19.8265238,15.4047059 20.0732876,15.1579421 20.3769969,15.1579421 L21.6297978,15.1579421 C21.8860526,8.18211878 27.4856931,2.56349644 34.4615164,2.27876896 L34.4615164,0.988004367 C34.4615164,0.684295052 34.7082802,0.437531233 35.0119895,0.437531233 C35.3156989,0.437531233 35.5624627,0.684295052 35.5624627,0.988004367 L35.5624627,2.27876896 C42.538286,2.56349644 48.1284356,8.17262787 48.3941813,15.1579421 L49.6374913,15.1579421 Z M29.3459126,5.07858921 C29.4028581,5.0121528 29.3269308,4.90775272 29.2604944,4.94571639 C25.4736188,7.64113656 24.2018361,11.3331029 23.7937267,13.022486 C23.6798357,13.4875409 23.9740541,14.0000504 24.3821635,14.0095413 L25.6539463,14.0095413 C25.9861283,14.0285231 26.2708558,13.7153229 26.2898376,13.3167044 C26.4511832,9.16917406 28.4917302,6.16055365 29.3459126,5.07858921 Z" id="path-1"></path>
    </defs>
    <g id="logo-foodora-vertical" stroke="none" stroke-width="1" fill="none" fill-rule="evenodd">
        <g id="logos/foodora/logo-foodora-vertical" transform="translate(5.000000, 17.000000)">
            <mask id="mask-2" fill="white">
                <use xlink:href="#path-1"></use>
            </mask>
            <use id="logo-foodpanda-vertical" fill="#858585" fill-rule="nonzero" xlink:href="#path-1"></use>
            <g id="grayscale/$color-white" mask="url(#mask-2)" fill="#FFFFFF">
                <rect id="bg" x="0" y="0" width="70" height="47"></rect>
            </g>
        </g>
    </g>
</svg>