<?xml version="1.0" encoding="UTF-8"?>
<svg width="80px" height="80px" viewBox="0 0 80 80" version="1.1" xmlns="http://www.w3.org/2000/svg" xmlns:xlink="http://www.w3.org/1999/xlink">
    <!-- Generator: Sketch 50.2 (55047) - http://www.bohemiancoding.com/sketch -->
    <title>logo-foodora</title>
    <desc>Created with Sketch.</desc>
    <defs>
        <path d="M8.96612208,12.3104026 C8.34605815,12.5243264 5.32559519,12.218721 4.66325417,12.1830671 C3.73785572,12.1372263 2.97217071,12.4020842 2.28164496,12.7840909 C1.54884213,11.8061538 1.21062543,10.6957878 1.02272727,9.39187165 C2.07025953,9.39187165 2.8500369,9.40715192 3.17416123,9.40205849 C5.60274498,9.35112427 10.4833997,9.37149796 10.7182724,9.46827298 C10.8873808,9.5395809 10.9343553,9.87574677 10.6384157,10.0692968 C10.3424761,10.2628469 8.63260284,10.3698087 8.33666324,10.4054627 C8.04542109,10.4360232 7.92328728,10.6041062 7.92328728,10.746722 C7.92328728,10.8893378 7.97965673,11.0319536 8.1769498,11.0676076 C8.37424287,11.1032615 9.97137725,10.8129365 9.97137725,10.8129365 C9.97137725,10.8129365 13.3582416,9.65163619 13.7528278,9.65672961 C14.034675,9.66182303 14.1943884,9.77387832 14.2836401,9.87065335 C14.344707,9.93686784 14.3212197,10.0489231 14.241363,10.0794837 C13.4380983,10.4105561 9.52511911,12.1168526 8.96612208,12.3104026 Z M14.6875,8.125 C14.8375,8.125 15,8.21435433 15,8.4375 C15,8.66064567 14.8375,8.75 14.6875,8.75 L0.3125,8.75 C0.15625,8.75 0,8.63337427 0,8.4375 C2.19887064e-17,8.24162573 0.15625,8.125 0.3125,8.125 L0.852272727,8.125 C0.978321525,4.53218193 3.76474411,1.74710381 7.19089175,1.57909678 L7.19089175,0.9375 C7.19089175,0.78125 7.30350523,0.625 7.5046875,0.625 C7.70586977,0.625 7.8125,0.78125 7.8125,0.9375 L7.84090909,1.58208131 C11.2862216,1.72932459 14.0164773,4.51263156 14.1477273,8.125 L14.6875,8.125 Z M4.67743845,3.03724928 C4.70605409,2.99813927 4.66789991,2.94436299 4.634515,2.96880675 C2.73157529,4.35721234 2.09249278,6.25893689 1.88741407,7.12913475 C1.8301828,7.3686836 1.97803024,7.63267621 2.18310896,7.63756496 L2.82219147,7.63756496 C2.989116,7.64734247 3.13219418,7.48601365 3.14173272,7.28068606 C3.22281035,5.14430142 4.24820393,3.59456702 4.67743845,3.03724928 Z" id="path-1"></path>
        <path d="M20.2803738,5.44778984 L21.5265064,5.44778984 L21.5265064,4.29495058 C21.5265064,2.89555033 22.3061723,1.96261682 23.8588402,1.96261682 L24.6385061,2.11588447 L24.6385061,3.51528473 L23.7855383,3.36201708 C23.3190715,3.36201708 23.0858382,3.67521618 23.0858382,4.14168294 L23.0858382,5.44778984 L24.6385061,5.44778984 L24.6385061,6.8471901 L23.0858382,6.8471901 L23.0858382,12.7579902 L21.5331703,12.7579902 L21.5331703,6.8471901 L20.2870376,6.8471901 L20.2870376,5.44778984 L20.2803738,5.44778984 Z M28.6634477,5.29452219 C30.6825824,5.29452219 32.4751475,6.8471901 32.4751475,9.10622194 C32.4751475,11.35859 30.6892462,12.9179217 28.6634477,12.9179217 C26.6443131,12.9179217 24.851748,11.3652538 24.851748,9.10622194 C24.8584118,6.8471901 26.6443131,5.29452219 28.6634477,5.29452219 Z M28.6634477,11.5118576 C30.1428137,11.5118576 30.9158158,10.4256565 30.9158158,9.09955813 C30.9158158,7.7801236 30.1361499,6.68725864 28.6634477,6.68725864 C27.1840818,6.68725864 26.4110797,7.77345979 26.4110797,9.09955813 C26.4110797,10.4256565 27.1840818,11.5118576 28.6634477,11.5118576 Z M36.9665559,5.29452219 C38.9856906,5.29452219 40.7782557,6.8471901 40.7782557,9.10622194 C40.7782557,11.35859 38.9923544,12.9179217 36.9665559,12.9179217 C34.9474213,12.9179217 33.1548562,11.3652538 33.1548562,9.10622194 C33.16152,6.8471901 34.9474213,5.29452219 36.9665559,5.29452219 Z M36.9665559,11.5118576 C38.4459219,11.5118576 39.218924,10.4256565 39.218924,9.09955813 C39.218924,7.7801236 38.4392581,6.68725864 36.9665559,6.68725864 C35.4871899,6.68725864 34.7141879,7.77345979 34.7141879,9.09955813 C34.7141879,10.4256565 35.4938538,11.5118576 36.9665559,11.5118576 Z M48.9280962,12.7579902 L47.528696,12.7579902 L47.3754283,12.1382558 L47.2954626,12.0582901 L47.2154969,12.1382558 C46.7490301,12.6047226 45.9693642,12.9179217 45.1963622,12.9179217 C43.1772275,12.9179217 41.4646282,11.3652538 41.4646282,9.10622194 C41.4646282,6.85385391 43.1772275,5.29452219 45.1963622,5.29452219 C45.9560366,5.29452219 46.7490301,5.6077213 47.2154969,6.07418805 L47.2954626,6.15415378 L47.3754283,6.07418805 L47.3754283,1.96928063 L48.9280962,1.96928063 L48.9280962,12.7579902 Z M45.2696641,6.69392245 C43.7902981,6.69392245 42.9973047,7.7801236 42.9973047,9.10622194 C42.9973047,10.4256565 43.7902981,11.5185214 45.2696641,11.5185214 C46.5890986,11.5185214 47.5220322,10.4323203 47.5220322,9.10622194 C47.528696,7.7801236 46.5957625,6.69392245 45.2696641,6.69392245 Z M53.7327038,5.29452219 C55.7518384,5.29452219 57.5444035,6.8471901 57.5444035,9.10622194 C57.5444035,11.35859 55.7585022,12.9179217 53.7327038,12.9179217 C51.7135691,12.9179217 49.921004,11.3652538 49.921004,9.10622194 C49.9276678,6.8471901 51.7135691,5.29452219 53.7327038,5.29452219 Z M53.7327038,11.5118576 C55.2120698,11.5118576 55.9850718,10.4256565 55.9850718,9.09955813 C55.9850718,7.7801236 55.2054059,6.68725864 53.7327038,6.68725864 C52.2600016,6.68725864 51.4803357,7.77345979 51.4803357,9.09955813 C51.4803357,10.4256565 52.2533378,11.5118576 53.7327038,11.5118576 Z M58.5373113,5.44778984 L59.9367116,5.44778984 L60.0899792,6.2274557 L60.1699449,6.30742143 L60.2499107,6.2274557 C60.7163774,5.6077213 61.3361118,5.29452219 61.9558462,5.29452219 C62.2690453,5.29452219 62.422313,5.29452219 62.7355121,5.44778984 L62.7355121,6.8471901 L61.8025786,6.8471901 C60.8896365,6.8471901 60.1232983,7.5935369 60.096643,8.49315135 L60.096643,12.7513264 L58.5439751,12.7513264 L58.5439751,5.44778984 L58.5373113,5.44778984 Z M66.6338414,8.21993511 L67.9066292,8.21993511 L67.9066292,7.9000722 C67.9066292,7.02044918 67.3068863,6.61395672 66.4739099,6.61395672 C65.800865,6.61395672 65.3477259,6.93381964 65.1011649,7.5935369 L63.7084284,7.30032923 C64.0149637,6.05419662 65.0811735,5.26786695 66.4872375,5.26786695 C68.4463979,5.26786695 69.4259781,6.23411951 69.4259781,8.17995225 L69.4259781,12.7579902 L68.1398626,12.7579902 L67.9932588,11.7917377 C67.4801453,12.5114292 66.7204709,12.8779388 65.7075717,12.8779388 C64.4081286,12.8779388 63.441876,12.1049368 63.441876,10.6388984 C63.441876,9.12621337 64.7146639,8.21993511 66.6338414,8.21993511 Z M65.9741241,11.5251852 C66.4872375,11.5251852 66.9403767,11.3652538 67.3202139,11.0453909 C67.7133787,10.7055365 67.9066292,10.2523974 67.9066292,9.65265442 L67.9066292,9.49272296 L66.5738671,9.49272296 C65.6342698,9.49272296 65.0545182,9.93253447 65.0545182,10.6322346 C65.0545182,11.1586756 65.3743811,11.5251852 65.9741241,11.5251852 Z" id="path-3"></path>
    </defs>
    <g id="logo-foodora" stroke="none" stroke-width="1" fill="none" fill-rule="evenodd">
        <g id="Logo-foodora" transform="translate(5.000000, 32.000000)">
            <g id="logos/foodora/logo-foodora-sygnet">
                <mask id="mask-2" fill="white">
                    <use xlink:href="#path-1"></use>
                </mask>
                <use id="logo-foodora-sygnet" fill="#858585" fill-rule="nonzero" opacity="0" xlink:href="#path-1"></use>
                <g id="pandora/$color-brand-primary" mask="url(#mask-2)" fill="#D70F64" fill-rule="evenodd">
                    <g transform="translate(-2.500000, -2.500000)" id="bg">
                        <rect x="0" y="0" width="20" height="20"></rect>
                    </g>
                </g>
            </g>
            <mask id="mask-4" fill="white">
                <use xlink:href="#path-3"></use>
            </mask>
            <use id="logo-foodora-typographic" fill="#D70F64" fill-rule="nonzero" xlink:href="#path-3"></use>
        </g>
    </g>
</svg>