<?xml version="1.0" encoding="UTF-8"?>
<svg width="80px" height="80px" viewBox="0 0 80 80" version="1.1" xmlns="http://www.w3.org/2000/svg" xmlns:xlink="http://www.w3.org/1999/xlink">
    <!-- Generator: Sketch 50.2 (55047) - http://www.bohemiancoding.com/sketch -->
    <title>logo-pizzaonline</title>
    <desc>Created with Sketch.</desc>
    <defs>
        <path d="M12.8029147,2.33054267 C15.7323618,5.25950458 15.7323618,10.0083526 12.8029147,12.9373145 C9.87489863,15.8661333 5.12510137,15.8661333 2.19708534,12.9373145 C-0.73236178,10.0083526 -0.73236178,5.25950458 2.19708534,2.33054267 C5.12510137,-0.598276128 9.87489863,-0.598276128 12.8029147,2.33054267" id="path-1"></path>
        <path d="M2.68265228,9.73938732 C2.64834726,9.85051317 2.59757584,9.94843317 2.53033801,10.0335688 C2.46310017,10.1185639 2.37939593,10.1869815 2.27785309,10.238962 C2.17631024,10.2910829 2.05830098,10.3169327 1.92382532,10.3169327 C1.79483845,10.3169327 1.6795736,10.2910829 1.57803075,10.238962 C1.4764879,10.1869815 1.39003926,10.1185639 1.31868483,10.0335688 C1.24733039,9.94843317 1.19244237,9.85163707 1.15264855,9.74289951 C1.11285473,9.63430244 1.09364392,9.52331707 1.09364392,9.40994341 C1.09364392,9.29642927 1.11285473,9.18558439 1.15264855,9.07684683 C1.19244237,8.96810927 1.24733039,8.87131317 1.31868483,8.78631805 C1.39003926,8.70118244 1.4764879,8.63276488 1.57803075,8.58078439 C1.6795736,8.5288039 1.79483845,8.50281366 1.92382532,8.50281366 C2.05830098,8.50281366 2.17631024,8.5288039 2.27785309,8.58078439 C2.37939593,8.63276488 2.46310017,8.70019902 2.53033801,8.78266537 C2.59757584,8.86541268 2.64834726,8.96108488 2.68265228,9.06968195 C2.71695729,9.17841951 2.7347959,9.28940488 2.7347959,9.40277854 C2.7347959,9.5161522 2.71695729,9.62854244 2.68265228,9.73938732 Z M3.39482442,8.10593561 C3.53616108,8.27606634 3.64456494,8.47331122 3.72003597,8.69767024 C3.79687921,8.92216976 3.83530083,9.15720585 3.83530083,9.40277854 C3.83530083,9.64849171 3.79825141,9.88465171 3.72415257,10.111399 C3.65005374,10.3381463 3.54302209,10.5377795 3.40168542,10.710158 C3.26172095,10.8826771 3.09019587,11.0209171 2.88711018,11.124878 C2.68402448,11.2286985 2.45349477,11.280679 2.19414885,11.280679 C1.98282994,11.280679 1.78111645,11.2369873 1.59175276,11.1496039 C1.40238907,11.0622205 1.2555636,10.9429463 1.14990415,10.7917815 L1.13480994,10.7917815 L1.13480994,12.6903337 L0,13.2427317 L0,7.65244098 L1.07992191,7.65244098 L1.07992191,8.08472195 L1.10050492,8.08472195 C1.20753658,7.94296976 1.35298984,7.81891902 1.54098133,7.71271024 C1.72760062,7.60636098 1.94715273,7.55325659 2.20100985,7.55325659 C2.45075037,7.55325659 2.67716348,7.60284878 2.88024917,7.70203317 C3.08333487,7.80121756 3.25485995,7.93594537 3.39482442,8.10593561 Z M5.31316093,6.07209366 C5.37079336,6.12885073 5.41607598,6.19614439 5.4517532,6.27411512 C5.48605821,6.35208585 5.50252462,6.43609756 5.50252462,6.52572878 C5.50252462,6.61550049 5.48605821,6.69923122 5.4517532,6.77734244 C5.41607598,6.85517268 5.37079336,6.92246634 5.31316093,6.97922341 C5.2555285,7.03598049 5.18554627,7.08093659 5.10458643,7.11381073 C5.02362659,7.14696585 4.93992235,7.16340293 4.85210151,7.16340293 C4.66822662,7.16340293 4.51316795,7.10088585 4.38829769,6.97571122 C4.26342743,6.85053659 4.2016784,6.70049561 4.2016784,6.52572878 C4.2016784,6.44073366 4.21814481,6.35911024 4.24970542,6.28113951 C4.28263824,6.20330927 4.32929306,6.13601561 4.38829769,6.07925854 C4.44867452,6.02264195 4.51728455,5.97656195 4.59687219,5.94101854 C4.67508763,5.90561561 4.76016407,5.88791415 4.85210151,5.88791415 C4.93992235,5.88791415 5.02362659,5.90449171 5.10458643,5.93750634 C5.18554627,5.97066146 5.2555285,6.01547707 5.31316093,6.07209366 Z M4.28538264,11.1814946 L4.28538264,7.65244098 L5.42019258,7.65244098 L5.42019258,11.1814946 L4.28538264,11.1814946 Z M8.83971661,8.52402732 L7.17112062,10.2815298 L8.90832664,10.2815298 L8.90832664,11.1814946 L5.83459718,11.1814946 L5.83459718,10.2745054 L7.45516615,8.54538146 L5.89771841,8.54538146 L5.89771841,7.65244098 L8.83971661,7.65244098 L8.83971661,8.52402732 Z M12.1055542,8.52402732 L10.4383304,10.2815298 L12.1755364,10.2815298 L12.1755364,11.1814946 L9.10180694,11.1814946 L9.10180694,10.2745054 L10.7223759,8.54538146 L9.16492817,8.54538146 L9.16492817,7.65244098 L12.1055542,7.65244098 L12.1055542,8.52402732 Z M15.5634998,8.57010732 C15.6211322,8.80401951 15.6499485,9.08162341 15.6499485,9.40277854 L15.6499485,11.1814946 L14.6111926,11.1814946 L14.6111926,10.8059707 L14.5906096,10.8059707 C14.5027887,10.9524995 14.3710574,11.0658732 14.1926714,11.1460917 C14.0156575,11.2263102 13.8221772,11.2664898 13.6149749,11.2664898 C13.4763826,11.2664898 13.3336738,11.2476644 13.1854761,11.2098732 C13.0386506,11.172082 12.9028027,11.1105483 12.7806769,11.0255532 C12.658551,10.940558 12.5583804,10.8271844 12.4801649,10.6854322 C12.4019495,10.54368 12.3621557,10.3689132 12.3621557,10.1609912 C12.3621557,9.90600585 12.4307657,9.7004722 12.5666136,9.54453073 C12.7024615,9.38858927 12.8781031,9.26819122 13.0921664,9.18305561 C13.3076019,9.09806049 13.5463649,9.0414439 13.8084552,9.01306537 C14.0719177,8.98468683 14.3285192,8.97049756 14.5768875,8.97049756 L14.5768875,8.91374049 C14.5768875,8.73911415 14.5165107,8.61028683 14.3971293,8.52768 C14.2777478,8.44493268 14.1295501,8.40362927 13.9539084,8.40362927 C13.7919888,8.40362927 13.6369301,8.4390322 13.4873602,8.50983805 C13.3364182,8.58078439 13.2088035,8.66577951 13.103144,8.7649639 L12.528192,8.13431415 C12.7312777,7.93594537 12.9672962,7.78702829 13.2376197,7.6878439 C13.5079432,7.58865951 13.7837556,7.53906732 14.0650567,7.53906732 C14.3559632,7.53906732 14.6015872,7.57573463 14.8019285,7.64892878 C15.0022697,7.72226341 15.1655616,7.83563707 15.2904319,7.98904976 C15.4153021,8.14260293 15.5058674,8.33619512 15.5634998,8.57010732 Z M14.6111926,9.76425366 L14.6111926,9.64371512 L14.4671115,9.64371512 C14.3422412,9.64371512 14.2159988,9.6497561 14.0897563,9.66141659 C13.9621417,9.67335805 13.8496212,9.6958361 13.7494505,9.72885073 C13.6506521,9.76186537 13.5683201,9.81033366 13.5038266,9.87411512 C13.4393332,9.9377561 13.4077726,10.0217678 13.4077726,10.1255883 C13.4077726,10.191758 13.4228668,10.2485151 13.451683,10.295719 C13.4818714,10.3429229 13.520293,10.3807141 13.5669479,10.4090927 C13.6122305,10.4374712 13.6657463,10.457561 13.7261231,10.4692215 C13.7851278,10.4811629 13.8441324,10.4870634 13.8990204,10.4870634 C14.1295501,10.4870634 14.306564,10.422158 14.4286899,10.2920663 C14.5508157,10.1622556 14.6111926,9.98636488 14.6111926,9.76425366 Z M22.5932838,8.03512976 C22.7689254,8.19570732 22.9075177,8.39182829 23.0090606,8.62321171 C23.1106034,8.85473561 23.1613748,9.11463805 23.1613748,9.40277854 C23.1613748,9.69105951 23.1106034,9.95194537 23.0090606,10.1858576 C22.9075177,10.4196293 22.7689254,10.6181385 22.5932838,10.7811044 C22.4176421,10.9440702 22.2145564,11.0705093 21.9840267,11.160281 C21.753497,11.2499122 21.5065008,11.2948683 21.2444105,11.2948683 C20.9850646,11.2948683 20.7394407,11.2499122 20.5061666,11.160281 C20.2742647,11.0705093 20.071179,10.9440702 19.8982817,10.7811044 C19.7240122,10.6181385 19.5867921,10.4196293 19.4852493,10.1858576 C19.3837064,9.95194537 19.332935,9.69105951 19.332935,9.40277854 C19.332935,9.11463805 19.3837064,8.85473561 19.4852493,8.62321171 C19.5867921,8.39182829 19.7240122,8.19570732 19.8982817,8.03512976 C20.071179,7.8745522 20.2742647,7.75162537 20.5061666,7.66663024 C20.7394407,7.58149463 20.9850646,7.53906732 21.2444105,7.53906732 C21.5065008,7.53906732 21.753497,7.58149463 21.9840267,7.66663024 C22.2145564,7.75162537 22.4176421,7.8745522 22.5932838,8.03512976 Z M22.0155873,9.73587512 C22.0498923,9.62727805 22.0677309,9.5161522 22.0677309,9.40277854 C22.0677309,9.28940488 22.0485201,9.17841951 22.0128429,9.06968195 C21.9757935,8.96108488 21.9222776,8.86541268 21.8536676,8.78266537 C21.7836854,8.70019902 21.6986089,8.63276488 21.5970661,8.58078439 C21.4955232,8.5288039 21.377514,8.50281366 21.2444105,8.50281366 C21.1099349,8.50281366 20.9919256,8.5288039 20.8903828,8.58078439 C20.7888399,8.63276488 20.7051357,8.70019902 20.6378978,8.78266537 C20.57066,8.86541268 20.5212608,8.96108488 20.4855836,9.06968195 C20.4512785,9.17841951 20.4334399,9.28940488 20.4334399,9.40277854 C20.4334399,9.5161522 20.4512785,9.62727805 20.4855836,9.73587512 C20.5212608,9.84461268 20.5720322,9.94253268 20.6420144,10.0299161 C20.7106245,10.11744 20.7957009,10.1869815 20.8972438,10.238962 C20.9987866,10.2910829 21.1167959,10.3169327 21.2512715,10.3169327 C21.384375,10.3169327 21.5023842,10.2910829 21.6039271,10.238962 C21.7054699,10.1869815 21.7905464,10.11744 21.8605286,10.0299161 C21.9291386,9.94253268 21.9812823,9.84461268 22.0155873,9.73587512 Z M26.7290965,8.01026341 C26.827895,8.14499122 26.8992494,8.29980878 26.9431598,8.47443512 C26.9870703,8.64934244 27.0090255,8.82410927 27.0090255,8.9988761 L27.0090255,11.1814946 L25.8673545,11.1814946 L25.8673545,9.25400195 C25.8673545,9.15481756 25.8591213,9.06026927 25.8426549,8.97049756 C25.8275607,8.88086634 25.8001167,8.80163122 25.7630673,8.73307317 C25.7260179,8.66465561 25.6752464,8.61028683 25.6080086,8.57010732 C25.5407708,8.53006829 25.4570665,8.50983805 25.3555237,8.50983805 C25.2539808,8.50983805 25.1647878,8.53006829 25.0893168,8.57010732 C25.0124735,8.61028683 24.9493523,8.66577951 24.8985809,8.73658537 C24.8478094,8.80753171 24.8093878,8.88901463 24.7846882,8.98117463 C24.7586164,9.07319415 24.7462666,9.16900683 24.7462666,9.26819122 L24.7462666,11.1814946 L23.6045956,11.1814946 L23.6045956,7.65244098 L24.7051006,7.65244098 L24.7051006,8.14133854 L24.7188226,8.14133854 C24.7599886,8.06589659 24.8148766,7.99143805 24.8807423,7.91810341 C24.9479801,7.84504976 25.0261955,7.7823922 25.1167608,7.73041171 C25.2059538,7.67843122 25.3047523,7.63586341 25.4104117,7.60284878 C25.5160712,7.56983415 25.6299638,7.55325659 25.7493453,7.55325659 C25.979875,7.55325659 26.1760997,7.59582439 26.3380193,7.68081951 C26.499939,7.76581463 26.6302981,7.8756761 26.7290965,8.01026341 Z M27.6045605,6.22129171 L28.7613257,5.63784585 L28.7613257,11.1814946 L27.6045605,11.1814946 L27.6045605,6.22129171 Z M29.3897936,11.1814946 L29.3897936,7.65244098 L30.5259757,7.65244098 L30.5259757,11.1814946 L29.3897936,11.1814946 Z M30.4189441,6.07209366 C30.4765765,6.12885073 30.5218591,6.19614439 30.5561642,6.27411512 C30.5918414,6.35208585 30.6083078,6.43609756 30.6083078,6.52572878 C30.6083078,6.61550049 30.5918414,6.69923122 30.5561642,6.77734244 C30.5218591,6.85517268 30.4765765,6.92246634 30.4189441,6.97922341 C30.3599395,7.03598049 30.2913294,7.08093659 30.2103696,7.11381073 C30.1294098,7.14696585 30.0457055,7.16340293 29.9578847,7.16340293 C29.7740098,7.16340293 29.6189511,7.10088585 29.4940808,6.97571122 C29.3692106,6.85053659 29.3074616,6.70049561 29.3074616,6.52572878 C29.3074616,6.44073366 29.323928,6.35911024 29.3554886,6.28113951 C29.3884214,6.20330927 29.433704,6.13601561 29.4940808,6.07925854 C29.5544577,6.02264195 29.6230677,5.97656195 29.7026553,5.94101854 C29.7808708,5.90561561 29.8659472,5.88791415 29.9578847,5.88791415 C30.0457055,5.88791415 30.1294098,5.90449171 30.2103696,5.93750634 C30.2913294,5.97066146 30.3599395,6.01547707 30.4189441,6.07209366 Z M34.2734557,8.01026341 C34.3722542,8.14499122 34.4436086,8.29980878 34.487519,8.47443512 C34.5314294,8.64934244 34.5533847,8.82410927 34.5533847,8.9988761 L34.5533847,11.1814946 L33.4117137,11.1814946 L33.4117137,9.25400195 C33.4117137,9.15481756 33.4034805,9.06026927 33.3870141,8.97049756 C33.3719199,8.88086634 33.3444759,8.80163122 33.3074265,8.73307317 C33.2717492,8.66465561 33.2196056,8.61028683 33.1523678,8.57010732 C33.08513,8.53006829 33.0014257,8.50983805 32.8998829,8.50983805 C32.79834,8.50983805 32.709147,8.53006829 32.6336759,8.57010732 C32.5568327,8.61028683 32.4937115,8.66577951 32.4429401,8.73658537 C32.3921686,8.80753171 32.353747,8.88901463 32.3290474,8.98117463 C32.3029756,9.07319415 32.2906258,9.16900683 32.2906258,9.26819122 L32.2906258,11.1814946 L31.1489548,11.1814946 L31.1489548,7.65244098 L32.2494598,7.65244098 L32.2494598,8.14133854 L32.2631818,8.14133854 C32.3043478,8.06589659 32.3578636,7.99143805 32.4251014,7.91810341 C32.4923393,7.84504976 32.5705547,7.7823922 32.66112,7.73041171 C32.750313,7.67843122 32.8491114,7.63586341 32.9547709,7.60284878 C33.0604303,7.56983415 33.174323,7.55325659 33.2937045,7.55325659 C33.5242342,7.55325659 33.7204589,7.59582439 33.8823785,7.68081951 C34.0442982,7.76581463 34.1746573,7.8756761 34.2734557,8.01026341 Z M38.0703349,8.04931902 C38.2226492,8.21467317 38.3406585,8.41543024 38.4271071,8.65159024 C38.5121835,8.88789073 38.5547218,9.15720585 38.5547218,9.45953561 C38.5547218,9.50673951 38.5547218,9.5540839 38.5547218,9.60114732 C38.5547218,9.64849171 38.5519774,9.69330732 38.5478608,9.73587512 L36.0490834,9.73587512 C36.0586888,9.83505951 36.087505,9.92483122 36.135532,10.0051902 C36.183559,10.0855493 36.2466803,10.1552312 36.3221513,10.2142361 C36.3989945,10.2733815 36.484071,10.3194615 36.5787528,10.3523356 C36.6734347,10.3854907 36.7708609,10.4019278 36.8724038,10.4019278 C37.052162,10.4019278 37.2044763,10.3677893 37.3293466,10.2992312 C37.4542168,10.2308137 37.5557597,10.1421659 37.6339751,10.0335688 L38.4229905,10.54368 C38.2610708,10.7846166 38.0483797,10.970201 37.783545,11.1000117 C37.5173381,11.2299629 37.2099651,11.2948683 36.8586818,11.2948683 C36.600708,11.2948683 36.3564563,11.2534244 36.1245544,11.1708176 C35.8940247,11.0882107 35.6923112,10.9678127 35.5194139,10.8094829 C35.3465166,10.6511532 35.2106688,10.4562966 35.1104981,10.2247727 C35.0116997,9.99338927 34.9623005,9.72885073 34.9623005,9.43115707 C34.9623005,9.14301659 35.0103275,8.88199024 35.1077537,8.64807805 C35.20518,8.41430634 35.335539,8.21579707 35.5015753,8.05283122 C35.6676116,7.88986537 35.8638363,7.76342634 36.0902494,7.67365463 C36.3166625,7.58402341 36.5609142,7.53906732 36.8243767,7.53906732 C37.0782339,7.53906732 37.311508,7.58275902 37.5228269,7.67014244 C37.735518,7.75766634 37.9180207,7.88396488 38.0703349,8.04931902 Z M39.5852445,9.86343805 C39.7746081,9.86343805 39.9379,9.9296078 40.0737479,10.0618068 C40.2095958,10.1941463 40.2782058,10.3595005 40.2782058,10.5578693 C40.2782058,10.756238 40.2095958,10.9217327 40.0737479,11.0539317 C39.9379,11.1861307 39.7746081,11.252441 39.5852445,11.252441 C39.4891904,11.252441 39.397253,11.234599 39.3121765,11.1991961 C39.2271001,11.1637932 39.151629,11.1153249 39.0871356,11.0539317 C39.0226422,10.9925385 38.9718708,10.9204683 38.9348213,10.8378615 C38.8977719,10.7552546 38.8799333,10.6642185 38.8799333,10.5650341 C38.8799333,10.4704859 38.8977719,10.3807141 38.9348213,10.295719 C38.9718708,10.2107239 39.0226422,10.1362654 39.0871356,10.0724839 C39.151629,10.0087024 39.2271001,9.95798634 39.3121765,9.92005463 C39.397253,9.8824039 39.4891904,9.86343805 39.5852445,9.86343805 Z M36.0490834,9.01306537 L37.5091049,9.01306537 C37.5091049,8.82874537 37.4528446,8.6705561 37.3403242,8.53821659 C37.2264315,8.40601756 37.0576509,8.3398478 36.8312377,8.3398478 C36.7200895,8.3398478 36.6185466,8.35754927 36.5266092,8.3929522 C36.4346718,8.42835512 36.3537119,8.4769639 36.2837297,8.53821659 C36.2151197,8.59975024 36.1602316,8.67182049 36.1176934,8.75442732 C36.0765274,8.83703415 36.0532,8.92329366 36.0490834,9.01306537 Z M42.4517716,5.68954537 C42.5478257,5.68954537 42.6438797,5.69544585 42.7385616,5.70724683 C42.8332434,5.7190478 42.919692,5.73674927 42.9979075,5.76035122 L42.9224364,6.68152976 C42.8798982,6.66748098 42.8318712,6.65568 42.7769832,6.64612683 C42.7207229,6.63671415 42.6658349,6.63193756 42.6109469,6.63193756 C42.5039152,6.63193756 42.4188388,6.65090341 42.3543454,6.68869463 C42.2898519,6.72662634 42.2390805,6.77734244 42.2020311,6.8411239 C42.1649817,6.90476488 42.1402821,6.97683512 42.1265601,7.05719415 C42.1128381,7.13755317 42.1059771,7.21777171 42.1059771,7.29813073 L42.1059771,7.65244098 L42.8730372,7.65244098 L42.8730372,8.51700293 L42.1059771,8.51700293 L42.1059771,11.1814946 L40.9697949,11.1814946 L40.9697949,8.51700293 L40.3399548,8.51700293 L40.3399548,7.65244098 L40.9697949,7.65244098 L40.9697949,7.31232 C40.9697949,7.09498537 40.9931223,6.8883278 41.0397771,6.69220683 C41.0850598,6.49622634 41.1646474,6.32370732 41.2785401,6.17493073 C41.3910605,6.02615415 41.5433748,5.9080039 41.7354829,5.82062049 C41.9262188,5.73323707 42.1649817,5.68954537 42.4517716,5.68954537 Z M43.343702,11.1814946 L43.343702,7.65244098 L44.4867452,7.65244098 L44.4867452,11.1814946 L43.343702,11.1814946 Z M44.5169336,6.27411512 C44.5526108,6.35208585 44.5690772,6.43609756 44.5690772,6.52572878 C44.5690772,6.61550049 44.5526108,6.69923122 44.5169336,6.77734244 C44.4826286,6.85517268 44.4359738,6.92246634 44.3755969,6.97922341 C44.3152201,7.03598049 44.2466101,7.08093659 44.1683946,7.11381073 C44.0901792,7.14696585 44.006475,7.16340293 43.9186541,7.16340293 C43.7347792,7.16340293 43.5797206,7.10088585 43.4548503,6.97571122 C43.32998,6.85053659 43.268231,6.70049561 43.268231,6.52572878 C43.268231,6.44073366 43.2846974,6.35911024 43.316258,6.28113951 C43.3491908,6.20330927 43.3944735,6.13601561 43.4548503,6.07925854 C43.5152271,6.02264195 43.5838372,5.97656195 43.6620526,5.94101854 C43.7416402,5.90561561 43.8267167,5.88791415 43.9186541,5.88791415 C44.006475,5.88791415 44.0901792,5.90449171 44.1683946,5.93750634 C44.2466101,5.97066146 44.3152201,6.01547707 44.3755969,6.07209366 C44.4359738,6.12885073 44.4826286,6.19614439 44.5169336,6.27411512 Z M16.3593762,9.79403707 L16.3593762,8.63178146 L18.6111575,8.63178146 L18.6111575,9.79403707 L16.3593762,9.79403707 Z" id="path-3"></path>
    </defs>
    <g id="logo-pizzaonline" stroke="none" stroke-width="1" fill="none" fill-rule="evenodd">
        <g id="logos/pizzaonline/logo-pizzaonline" transform="translate(5.000000, 31.000000)">
            <g id="logos/pizzaonline/logo-pizzaonline-sygnet" transform="translate(0.000000, 1.350000)" fill-rule="evenodd">
                <g id="-g-logo-pizzaonline-sygnet" stroke-width="1" transform="translate(0.000000, -1.116071)">
                    <g id="-g-circle" transform="translate(0.000000, 0.982143)">
                        <path d="M12.8029147,2.33054267 C15.7323618,5.25950458 15.7323618,10.0083526 12.8029147,12.9373145 C9.87489863,15.8661333 5.12510137,15.8661333 2.19708534,12.9373145 C-0.73236178,10.0083526 -0.73236178,5.25950458 2.19708534,2.33054267 C5.12510137,-0.598276128 9.87489863,-0.598276128 12.8029147,2.33054267" id="Fill-9" fill="#13784E"></path>
                        <path d="M13.7734447,11.7466298 C12.8160966,12.5742247 11.64363,13.1773491 10.3210522,13.456031 C6.13790164,14.337319 2.03596298,11.6393684 1.16035116,7.42981055 C0.855485835,5.96415169 0.981828263,4.50847194 1.45262526,3.19630021 C1.67520085,2.89380416 1.92335421,2.60422846 2.19708534,2.33054267 C5.12510137,-0.598276128 9.87489863,-0.598276128 12.8029147,2.33054267 C15.3620374,4.88924156 15.6855474,8.83678975 13.7734447,11.7466298 Z" id="Combined-Shape" fill="#24AA6C"></path>
                    </g>
                    <g id="-g-circle" transform="translate(0.000000, 0.982143)">
                        <mask id="mask-2" fill="white">
                            <use xlink:href="#path-1"></use>
                        </mask>
                        <use id="Mask" fill="#FFFFFF" opacity="0" xlink:href="#path-1"></use>
                    </g>
                    <g id="-g-luigi" transform="translate(3.437500, 0.044196)">
                        <polygon id="face" fill="#F3C899" points="1.20535714 13.5360393 1.83618152 4.64285714 6.29018391 4.64285714 6.91964286 13.5360393"></polygon>
                        <path d="M0.105486379,14.9455479 L1.28766342,12.4562501 C1.34846398,12.4562501 3.9478148,13.8933771 6.84437666,12.4562501 C6.84437666,12.4562501 7.62297156,13.7462119 8.17274371,14.8475231 C5.73618618,16.4484887 2.571755,16.4811637 0.105486379,14.9455479 Z" id="shirt" fill="#EBEBE8"></path>
                        <path d="M2.74339997,10.1020433 C2.86409005,10.6590662 3.41405279,11.1103706 4.06824786,11.1513607 C4.80336015,11.1974572 5.39172428,10.707923 5.38075245,10.0578789 L5.38075245,10.028068 C5.10097091,10.3361143 4.55649408,10.5225707 3.92561414,10.4830988 C3.46616896,10.454254 3.04786812,10.3108579 2.74339997,10.1020433" id="mouth" fill="#54181B"></path>
                        <path d="M4.75844538,11.0230499 C4.55827719,11.1193594 4.32200581,11.167273 4.06824786,11.1513607 C3.88760898,11.1400423 3.71491723,11.0974398 3.55701565,11.0299658 C3.63762881,10.8543332 3.88457743,10.7386989 4.17933759,10.7570558 C4.42721828,10.7725873 4.64447609,10.8788982 4.75844538,11.0230499 Z" id="tongue" fill="#DF6443"></path>
                        <g id="eyes" transform="translate(2.456575, 5.883929)">
                            <path d="M2.68128721,1.15568159 C2.66208652,1.4896745 2.49065175,1.73602877 2.29727333,1.70566578 C2.10526639,1.67516477 1.96537562,1.37981567 1.98457631,1.04554674 C2.00377701,0.711553836 2.17521178,0.548145736 2.3685902,0.578508728 C2.56059714,0.609009733 2.70185939,0.821550673 2.68128721,1.15568159 Z M1.25497205,1.15568159 C1.23439987,1.4896745 1.06296511,1.73602877 0.869586687,1.70566578 C0.677579746,1.67516477 0.537688974,1.37981567 0.556889668,1.04554674 C0.576090362,0.711553836 0.748896609,0.548145736 0.94090355,0.578508728 C1.13291049,0.609009733 1.27417274,0.821550673 1.25497205,1.15568159 Z" id="Combined-Shape" fill="#FFFFFE"></path>
                            <path d="M3.06933885,0.513285001 C2.88117321,0.427312887 2.59109701,0.274426145 2.22497349,0.307135979 C2.18198368,0.309417485 2.11749435,0.293202764 2.08597754,0.2650497 C2.05704439,0.23855593 2.02828437,0.210415069 2.00243981,0.180776577 C1.97264763,0.149335433 2.00260888,0.100444307 2.06643979,0.0835616573 C2.59964622,-0.0562059408 3.02471439,0.163741852 3.22926743,0.356210583 C3.25451261,0.378431066 3.23318237,0.42392736 3.18507774,0.461752469 C3.13853905,0.497799331 3.0905131,0.521755327 3.06933885,0.513285001 Z M0.37036864,0.520128976 C0.349796468,0.528961846 0.300423254,0.506189603 0.252421519,0.471134149 C0.201676827,0.434422532 0.176990221,0.389706126 0.200305349,0.366933883 C0.393683768,0.170126493 0.806498692,-0.0592521061 1.34823256,0.0679964307 C1.41269203,0.0834539536 1.44560751,0.131620699 1.41817795,0.163777867 C1.39349134,0.193864832 1.36743325,0.22257166 1.34000369,0.249622325 C1.30845969,0.27860518 1.2453717,0.296270921 1.20285588,0.294890785 C0.835299733,0.270600392 0.552775234,0.430006097 0.37036864,0.520128976 Z M2.66620095,1.35828555 C2.65522913,1.57827923 2.50299506,1.7495541 2.32607437,1.74099726 C2.14915369,1.73244042 2.01474883,1.54722617 2.02572066,1.32723249 C2.03532101,1.10737683 2.18755508,0.935963945 2.36447576,0.944520788 C2.54139644,0.953077631 2.6758013,1.13842989 2.66620095,1.35828555 Z M1.23851431,1.35828555 C1.22754248,1.57827923 1.07530841,1.7495541 0.898387728,1.74099726 C0.721467046,1.73244042 0.587062188,1.54722617 0.598034013,1.32723249 C0.609005838,1.10737683 0.759868435,0.935963945 0.936789116,0.944520788 C1.1137098,0.953077631 1.24948613,1.13842989 1.23851431,1.35828555 Z" id="Combined-Shape" fill="#0A0B09"></path>
                        </g>
                        <path d="M7.2761905,2.50619995 C7.27756197,1.75609605 6.70565559,1.14980232 5.99660138,1.15201053 C5.9074553,1.15242458 5.8196807,1.16249957 5.73602053,1.18126942 C5.63727411,0.512593537 4.95702094,-0.00274923572 4.1313911,1.10362279e-05 C3.30164682,0.00263329458 2.61590774,0.527222979 2.51853279,1.20114338 C2.42115784,1.17685298 2.32103994,1.1638797 2.2168076,1.16415573 C1.50912487,1.16650196 0.933104052,1.77638405 0.930361095,2.52648795 C0.928989617,3.10614506 1.27048768,3.59954367 1.75187651,3.79303874 L1.76696277,5.03654125 C1.77244868,5.23707501 2.63785139,5.39579064 4.05870276,5.39123619 C5.47955412,5.38668175 6.34632831,5.22065139 6.3531857,5.01997962 L6.38198674,3.80200962 C6.899034,3.62452413 7.27344754,3.11111355 7.2761905,2.50619995" id="hat" fill="#EBEBE8"></path>
                        <path d="M1.7589283,4.57182846 C2.01995527,4.73820697 2.82479519,4.85779799 4.09877174,4.85145398 C5.28514078,4.84558473 6.02438366,4.73232084 6.3685074,4.58019663 L6.35485329,5.08800928 C6.3479959,5.28868106 5.48259319,5.45678162 4.06174183,5.46382031 C2.64089046,5.47072099 1.77548775,5.31407556 1.76863036,5.1135418 L1.7589283,4.57182846 Z" id="hat-stripe" fill="#C0BEB9"></path>
                        <path d="M7.07904118,8.55013083 C6.9706944,8.52211407 6.65662591,9.03497259 6.26986907,9.03497259 C5.7720225,9.03497259 5.68699086,8.40866689 4.90799127,8.40866689 C4.2908261,8.40866689 4.10293359,8.90247954 4.06178925,8.90247954 C4.02201638,8.90247954 3.83412388,8.40866689 3.21695871,8.40866689 C2.4393306,8.40866689 2.35292747,9.03497259 1.85645238,9.03497259 C1.46832407,9.03497259 1.15425557,8.52211407 1.0459088,8.55013083 C0.945790892,8.57635341 1.23242982,10.2787511 2.59293615,10.2787511 C3.47616808,10.2787511 3.9959583,9.65161735 4.06178925,9.65161735 C4.12899168,9.65161735 4.6487819,10.3571429 5.53201383,10.3571429 C6.89389163,10.3571429 7.17915908,8.57635341 7.07904118,8.55013083" id="moustache" fill="#0A0B09"></path>
                        <path d="M2.92071943,8.51878556 C2.92071943,9.76435828 4.71461285,9.94653622 5.10548412,9.00059103 C5.4456107,8.17802999 4.83255997,7.55931503 4.31688418,7.28632413 C3.95481395,7.09503729 3.70246197,7.33504293 3.41308008,7.57642872 C3.13741298,7.80635937 2.92071943,8.05009138 2.92071943,8.51878556" id="nose" fill="#F3C899"></path>
                    </g>
                </g>
                <g id="logos/pizzaonline/logo-luigi-handspizza" transform="translate(1.033064, 2.406355)">
                    <g id="-g-pizza" stroke-width="1" transform="translate(0.000000, 5.290898)">
                        <path d="M19.7028611,2.6028031 C19.3712327,1.11733275 17.2077521,0.324242644 14.8718774,0.831295995 C12.5346867,1.33847913 10.9081283,2.95360044 11.2397567,4.43907079 C11.2871322,4.65087295 11.3713553,4.84839924 11.488478,5.03022206 L0.334182808,7.89318518 L0.307863093,7.90175071 C-0.035609188,7.98857402 0.0130822847,8.16741188 0.0551938288,8.32224031 C0.095989387,8.4718775 0.19732029,8.5696024 0.439461668,8.49082549 L0.456569483,8.48771075 L0.456569483,8.48745119 L0.46972934,8.48407689 L1.07639877,8.31834688 L11.7872068,5.39542506 C12.6399656,6.23458732 14.3060035,6.59369063 16.0707404,6.21057789 C18.4079311,5.70352453 20.0344895,4.08827344 19.7028611,2.6028031" id="Fill-21" fill="#A15831"></path>
                        <path d="M19.8739392,2.16648025 C20.260839,3.63222392 18.6829721,5.3048381 16.3510454,5.90234863 C14.0178026,6.49998894 11.8148425,5.79618798 11.4279427,4.33044431 C11.0423589,2.86470063 12.6202258,1.19195667 14.9521525,0.594446145 C17.2840793,-0.00319416296 19.4883554,0.70060679 19.8739392,2.16648025" id="Fill-22" fill="#E9892E"></path>
                        <path d="M19.0948757,2.08160364 C19.3975524,3.2287356 18.0828826,4.55833929 16.1589115,5.05137632 C14.2336243,5.54428357 12.4294078,5.01412924 12.1267311,3.8668675 C11.8253704,2.71986532 13.1400401,1.39026164 15.0640113,0.897224611 C16.9879825,0.40418758 18.7935149,0.934471683 19.0948757,2.08160364" id="Fill-23" fill="#D9722E"></path>
                        <path d="M19.0869798,2.1223548 C19.3843925,3.24911118 18.0736707,4.56015622 16.1602274,5.05046785 C14.2454682,5.54064971 12.4544116,5.02464148 12.1569988,3.89775532 C11.860902,2.77099893 13.1716238,1.4599539 15.0850671,0.969772045 C16.9985104,0.479460409 18.789567,0.995468631 19.0869798,2.1223548" id="Fill-24" fill="#F1AF41"></path>
                        <path d="M18.0157674,1.64670838 C18.0881466,1.91976706 17.8157375,2.22656873 17.406466,2.33169113 C16.9985104,2.43694331 16.6076626,2.30054375 16.5352834,2.02748508 C16.4629042,1.75429662 16.7366292,1.44762473 17.1445848,1.34237255 C17.5538564,1.23725015 17.9447041,1.37351993 18.0157674,1.64670838" id="Fill-25" fill="#A93150"></path>
                        <path d="M14.5784126,2.15116612 C14.6507918,2.42435458 14.3783827,2.73102647 13.9691112,2.83614887 C13.5598396,2.94127127 13.1703078,2.80513127 13.0979286,2.53194281 C13.0255494,2.25875435 13.2992744,1.95208247 13.70723,1.84683029 C14.1165016,1.74170789 14.5073493,1.87797766 14.5784126,2.15116612" id="Fill-26" fill="#A93150"></path>
                        <path d="M16.3010379,3.83312451 C16.3721012,4.10631297 16.0996921,4.41298486 15.6904205,4.51823704 C15.282465,4.62335944 14.8916172,4.48708966 14.819238,4.2139012 C14.7481747,3.94071274 15.0205838,3.63404086 15.4298554,3.52891846 C15.8378109,3.42379606 16.2286587,3.55993605 16.3010379,3.83312451" id="Fill-27" fill="#A93150"></path>
                        <path d="M12.6162778,5.6687433 C12.5465306,5.6337025 12.4794153,5.5965852 12.414932,5.55765098 C12.5689023,5.28692836 12.7307686,5.03580263 12.8978988,4.80453335 C12.9202705,4.81816033 12.9439583,4.83139796 12.968962,4.84450582 C12.9847538,4.85346069 13.0018616,4.86241556 13.0189695,4.87124065 C12.8084117,5.19387557 12.6860251,5.4584985 12.6162778,5.6687433" id="Fill-28" fill="#E26229"></path>
                        <path d="M13.0189695,4.87124065 C13.0018616,4.86241556 12.9847538,4.85346069 12.968962,4.84450582 C12.9439583,4.83126818 12.9215865,4.81790077 12.8978988,4.80414401 C13.8756762,3.44624812 14.9824202,2.76931178 14.9824202,2.76931178 C13.9638472,3.64001077 13.3677057,4.33550575 13.0189695,4.87124065" id="Fill-30" fill="#EC9337"></path>
                        <path d="M11.5134818,3.16418939 L11.5226937,3.13965034 C11.5358535,3.12609286 11.5450654,3.11809394 11.5450654,3.11809394 C11.7345674,2.91757876 12.0201363,2.77102236 12.3451848,2.66418939 C12.321497,2.70526856 12.3004412,2.74648331 12.2793855,2.78796921 C11.8424782,2.92340847 11.6227086,3.06277941 11.5134818,3.16418939" id="Fill-31" fill="#E26229"></path>
                        <path d="M12.3504487,2.8776625 C12.3728205,2.82388201 12.3978242,2.77027226 12.4254599,2.71700396 C12.6373336,2.63624787 12.8636831,2.57529665 13.0913487,2.52954055 C13.0926647,2.54456494 13.0952966,2.55958933 13.0979286,2.57461372 C13.1045085,2.60329665 13.1110885,2.63078445 13.1216163,2.65707713 C12.8123597,2.72588201 12.5583744,2.80100396 12.3504487,2.8776625 M14.541565,2.44144299 C14.5481449,2.42676006 14.5534088,2.41173567 14.5573568,2.39671128 C14.7929183,2.39705274 14.9403087,2.40712591 14.9403087,2.40712591 C14.8021302,2.41754055 14.6692156,2.42897957 14.541565,2.44144299" id="Fill-33" fill="#EC9337"></path>
                        <path d="M15.3502879,5.19997526 C15.3398872,4.98700507 15.3364204,4.76702671 15.3364204,4.55042266 C15.3595329,4.55262893 15.3826454,4.55366718 15.4069135,4.55366718 C15.4196254,4.55366718 15.4323372,4.55340762 15.4450491,4.55275871 C15.4623835,4.77727939 15.4831847,4.98635617 15.5062972,5.17687429 C15.4542941,5.1855696 15.402291,5.19322666 15.3502879,5.19997526" id="Fill-37" fill="#EC9337"></path>
                        <path d="M19.3212252,4.14356004 C19.1646229,4.00897741 18.9330094,3.83377341 18.6158569,3.64831674 C18.6579684,3.59900006 18.698764,3.54890469 18.7356116,3.49854976 C19.0040727,3.62897941 19.2554259,3.77874638 19.4672996,3.94992718 C19.4212401,4.01520689 19.3725487,4.07970792 19.3212252,4.14356004" id="Fill-39" fill="#E26229"></path>
                        <path d="M18.6158569,3.64831674 C18.0368231,3.31036769 17.1709045,2.93815653 15.9470378,2.71558256 C15.9470378,2.71558256 17.5235887,2.91025367 18.7356116,3.49854976 C18.698764,3.54890469 18.6579684,3.59900006 18.6158569,3.64831674" id="Fill-40" fill="#EC9337"></path>
                        <path d="M16.1194319,2.30664345 C16.1194319,2.30664345 16.3168298,2.25486093 16.6221384,2.18283262 C16.6260864,2.18685582 16.6300344,2.19087903 16.6339823,2.19490223 C16.4708001,2.22864522 16.2997219,2.26576251 16.1194319,2.30664345 M17.953916,1.97077089 C17.9683919,1.9477997 17.9815517,1.92430939 17.9920796,1.90055951 C18.3118641,1.84527292 18.6369126,1.79816251 18.9356414,1.77129789 C18.9593291,1.81088102 18.9817009,1.85150239 19.0027567,1.89316201 C18.7237677,1.89510872 18.3789794,1.91704167 17.953916,1.97077089" id="Fill-44" fill="#EC9337"></path>
                        <path d="M16.3273576,0.820516 C16.4023576,0.658150146 16.4788282,0.506881853 16.550887,0.382247707 C16.5773576,0.381906243 16.6023576,0.381735512 16.6273576,0.381735512 C16.6950047,0.381735512 16.7611812,0.382930634 16.8273576,0.385320878 C16.7302988,0.497320878 16.6155929,0.641247707 16.4935341,0.817442829 C16.4391223,0.817442829 16.38324,0.818467219 16.3273576,0.820516" id="Fill-46" fill="#E26229"></path>
                        <path d="M15.8114912,1.8352798 C15.8114912,1.8352798 16.0365248,1.26891665 16.2891941,0.789117254 C16.3326216,0.787300324 16.3760491,0.786002517 16.4181607,0.785223832 C16.2115509,1.05036588 15.9878333,1.40025476 15.8114912,1.8352798" id="Fill-48" fill="#EC9337"></path>
                        <path d="M15.368004,1.96272449 C14.9468886,1.56624433 14.6021003,1.34120452 14.3323232,1.21583633 C14.3691708,1.20065198 14.4073344,1.18585698 14.445498,1.17132153 C15.0126879,1.48500158 15.368004,1.96272449 15.368004,1.96272449" id="Fill-51" fill="#EC9337"></path>
                    </g>
                    <path d="M10.1040259,10.6493598 C10.2612037,10.8000466 10.6773384,11.2006498 10.5935962,11.5165076 C10.5304674,11.7547351 10.168443,11.9727608 9.57322866,12.1311979 C9.35034536,12.1923112 8.65850527,12.3064063 8.40727843,12.0392104 C8.21918038,11.8377017 8.31580609,11.4292211 8.4304686,11.1217489 C8.63918013,10.5587698 8.89298366,10.228809 9.16611234,10.1679498 C9.52298329,10.0882866 9.92108122,10.4718645 10.0898541,10.635765 L10.1040259,10.6493598 Z M5.03397498,12.3067694 C4.79820824,12.8749577 4.52636791,13.2027587 4.24808587,13.2540887 C3.8847732,13.3210465 3.49311699,12.9140905 3.32563242,12.7401528 L3.31274899,12.7256685 C3.15814786,12.5658338 2.74974319,12.1408361 2.84508056,11.8262488 C2.9185161,11.5880214 3.29600054,11.3802871 3.91054005,11.2410352 C4.14115341,11.187164 4.85360698,11.0961929 5.09581543,11.3759672 C5.27747176,11.5854803 5.16280926,11.9980267 5.03397498,12.3067694 Z" id="hands" fill="#E9B177"></path>
                    <path d="M16.2690259,2.3961576 C18.2045215,1.06291058 16.2557144,-0.631696093 15.221409,0.238151021 C14.5558328,0.797658622 15.0856314,1.41200957 15.0856314,1.41200957 C15.0856314,1.41200957 15.0310542,0.821520751 15.7392273,0.800690826 C16.3382458,0.78302494 16.5725287,1.62874626 15.8470506,2.24639308 C15.3824784,2.64176614 14.3708026,3.60060186 15.0430346,4.30143655 C13.4350025,3.40627712 14.8393682,2.33775471 14.8393682,2.33775471 C12.8932235,3.51451363 13.7411675,4.74202901 14.8726471,5.24656143 C16.1132811,5.79974095 15.9002967,6.90583632 15.5608528,7.24715705 C15.5608528,7.24715705 17.4537515,5.18433532 15.7525388,4.12148182 C15.7525388,4.12148182 14.5864493,3.55472329 16.2690259,2.3961576 Z" id="smoke" fill="#EBEBE8"></path>
                </g>
            </g>
            <g id="logos/pizzaonline/logo-pizzaonline-typographic" transform="translate(24.500000, 0.000000)">
                <mask id="mask-4" fill="white">
                    <use xlink:href="#path-3"></use>
                </mask>
                <use id="-g-logo-pizzaonline-typographic" fill="#858585" fill-rule="evenodd" opacity="0" xlink:href="#path-3"></use>
                <g id="pizzaonline/$color-neutral-primary" mask="url(#mask-4)" fill="#2A2B29" fill-rule="evenodd">
                    <rect id="bg" x="0" y="0" width="46" height="18"></rect>
                </g>
            </g>
        </g>
    </g>
</svg>