<?xml version="1.0" encoding="UTF-8"?>
<svg width="80px" height="80px" viewBox="0 0 80 80" version="1.1" xmlns="http://www.w3.org/2000/svg" xmlns:xlink="http://www.w3.org/1999/xlink">
    <!-- Generator: Sketch 50.2 (55047) - http://www.bohemiancoding.com/sketch -->
    <title>logo-pizzaonline-sygnet</title>
    <desc>Created with Sketch.</desc>
    <defs>
        <path d="M40.9693269,7.45773654 C50.3435577,16.8304146 50.3435577,32.0267282 40.9693269,41.3994063 C31.5996756,50.7716265 16.4003244,50.7716265 7.03067309,41.3994063 C-2.3435577,32.0267282 -2.3435577,16.8304146 7.03067309,7.45773654 C16.4003244,-1.91448361 31.5996756,-1.91448361 40.9693269,7.45773654" id="path-1"></path>
    </defs>
    <g id="logo-pizzaonline-sygnet" stroke="none" stroke-width="1" fill="none" fill-rule="evenodd">
        <g id="logos/pizzaonline/logo-pizzaonline-sygnet" transform="translate(7.000000, 16.000000)">
            <g id="-g-logo-pizzaonline-sygnet" stroke-width="1" transform="translate(0.000000, -3.571429)">
                <g id="-g-circle" transform="translate(0.000000, 3.142857)">
                    <path d="M40.9693269,7.45773654 C50.3435577,16.8304146 50.3435577,32.0267282 40.9693269,41.3994063 C31.5996756,50.7716265 16.4003244,50.7716265 7.03067309,41.3994063 C-2.3435577,32.0267282 -2.3435577,16.8304146 7.03067309,7.45773654 C16.4003244,-1.91448361 31.5996756,-1.91448361 40.9693269,7.45773654" id="Fill-9" fill="#13784E"></path>
                    <path d="M44.075023,37.5892153 C41.0115092,40.2375191 37.2596162,42.1675172 33.027367,43.0592993 C19.6412852,45.8794208 6.51508153,37.2459788 3.71312372,23.7753938 C2.73755467,19.0852854 3.14185044,14.4271102 4.64840085,10.2281607 C5.36064272,9.26017331 6.15473347,8.33353108 7.03067309,7.45773654 C16.4003244,-1.91448361 31.5996756,-1.91448361 40.9693269,7.45773654 C49.1585198,15.645573 50.1937518,28.2777272 44.075023,37.5892153 Z" id="Combined-Shape" fill="#24AA6C"></path>
                </g>
                <g id="-g-circle" transform="translate(0.000000, 3.142857)">
                    <mask id="mask-2" fill="white">
                        <use xlink:href="#path-1"></use>
                    </mask>
                    <use id="Mask" fill="#FFFFFF" opacity="0" xlink:href="#path-1"></use>
                    <g id="grayscale/$color-white" mask="url(#mask-2)" fill="#FFFFFF">
                        <g transform="translate(-22.245847, -23.681063)" id="bg">
                            <rect x="0" y="0" width="94" height="94"></rect>
                        </g>
                    </g>
                </g>
                <g id="-g-luigi" transform="translate(11.000000, 0.141429)">
                    <polygon id="face" fill="#F3C899" points="3.85714286 43.3153258 5.87578085 14.8571429 20.1285885 14.8571429 22.1428571 43.3153258"></polygon>
                    <path d="M0.337556414,47.8257532 L4.12052296,39.8600004 C4.31508473,39.8600004 12.6330074,44.4588067 21.9020053,39.8600004 C21.9020053,39.8600004 24.393509,43.9878781 26.1527799,47.5120739 C18.3557958,52.6351639 8.22961601,52.7397237 0.337556414,47.8257532 Z" id="shirt" fill="#EBEBE8"></path>
                    <path d="M8.77887991,32.3265385 C9.16508815,34.1090117 10.9249689,35.553186 13.0183932,35.6843541 C15.3707525,35.8318631 17.2535177,34.2653535 17.2184078,32.1852126 L17.2184078,32.0898176 C16.3231069,33.0755659 14.5807811,33.6722263 12.5619652,33.5459162 C11.0917407,33.4536127 9.75317798,32.9947451 8.77887991,32.3265385" id="mouth" fill="#54181B"></path>
                    <path d="M15.2270252,35.2737597 C14.586487,35.58195 13.8304186,35.7352736 13.0183932,35.6843541 C12.4403487,35.6481355 11.8877351,35.5118075 11.3824501,35.2958905 C11.6404122,34.7338662 12.4306478,34.3638365 13.3738803,34.4225786 C14.1670985,34.4722794 14.8623235,34.8124742 15.2270252,35.2737597 Z" id="tongue" fill="#DF6443"></path>
                    <g id="eyes" transform="translate(7.861040, 18.828572)">
                        <path d="M8.58011909,3.6981811 C8.51867687,4.76695839 7.97008561,5.55529206 7.35127466,5.45813049 C6.73685245,5.36052727 6.28920199,4.41541016 6.35064421,3.34574957 C6.41208643,2.27697227 6.96067769,1.75406636 7.57948863,1.85122793 C8.19391084,1.94883115 8.64595004,2.62896215 8.58011909,3.6981811 Z M4.01591055,3.6981811 C3.9500796,4.76695839 3.40148834,5.55529206 2.7826774,5.45813049 C2.16825519,5.36052727 1.72060472,4.41541016 1.78204694,3.34574957 C1.84348916,2.27697227 2.39646915,1.75406636 3.01089136,1.85122793 C3.62531357,1.94883115 4.07735277,2.62896215 4.01591055,3.6981811 Z" id="Combined-Shape" fill="#FFFFFE"></path>
                        <path d="M9.82188431,1.642512 C9.21975428,1.36740124 8.29151044,0.878163663 7.11991516,0.982835132 C6.98234777,0.990135951 6.77598191,0.938248843 6.67512812,0.848159042 C6.58254206,0.763378976 6.49050998,0.67332822 6.4078074,0.578485045 C6.31247241,0.477873387 6.40834841,0.321421783 6.61260732,0.267397303 C8.31886792,-0.179859011 9.67908603,0.523973925 10.3336558,1.13987386 C10.4144404,1.21097941 10.3461836,1.35656755 10.1922488,1.4776079 C10.043325,1.59295786 9.88964192,1.66961705 9.82188431,1.642512 Z M1.18517965,1.66441272 C1.1193487,1.69267791 0.961354414,1.61980673 0.807748861,1.50762928 C0.645365848,1.3901521 0.566368706,1.2470596 0.640977118,1.17418843 C1.25978806,0.544404777 2.58079581,-0.18960674 4.31434419,0.217588578 C4.52061451,0.267052652 4.62594403,0.421186237 4.53816943,0.524089176 C4.45917229,0.620367461 4.37578642,0.712229312 4.28801181,0.79879144 C4.18707102,0.891536578 3.98518944,0.948066947 3.84913881,0.943650512 C2.67295914,0.865921254 1.76888075,1.37601951 1.18517965,1.66441272 Z M8.53184306,4.34651377 C8.49673322,5.05049353 8.00958418,5.59857313 7.443438,5.57119123 C6.87729182,5.54380933 6.44719627,4.95112374 6.48230611,4.24714398 C6.51302722,3.54360587 7.00017626,2.99508462 7.56632244,3.02246652 C8.13246862,3.04984842 8.56256417,3.64297566 8.53184306,4.34651377 Z M3.96324579,4.34651377 C3.92813595,5.05049353 3.44098691,5.59857313 2.87484073,5.57119123 C2.30869455,5.54380933 1.878599,4.95112374 1.91370884,4.24714398 C1.94881868,3.54360587 2.43157899,2.99508462 2.99772517,3.02246652 C3.56387135,3.04984842 3.99835563,3.64297566 3.96324579,4.34651377 Z" id="Combined-Shape" fill="#0A0B09"></path>
                    </g>
                    <path d="M23.2838096,8.01983985 C23.2881983,5.61950736 21.4580979,3.67936741 19.1891244,3.68643371 C18.903857,3.68775864 18.6229782,3.71999862 18.3552657,3.78006213 C18.0392771,1.64029932 15.862467,-0.00879755431 13.2204515,3.53159294e-05 C10.5652698,0.00842654266 8.37090477,1.68711353 8.05930494,3.8436588 C7.7477051,3.76592954 7.42732781,3.72441505 7.09378432,3.72529834 C4.8291996,3.73280628 2.98593297,5.68442896 2.97715551,8.08476145 C2.97276678,9.9396642 4.06556057,11.5185398 5.60600482,12.137724 L5.65428085,16.116932 C5.67183577,16.75864 8.44112445,17.2665301 12.9878488,17.2519558 C17.5345732,17.2373816 20.3082506,16.7060844 20.3301942,16.0639348 L20.4223576,12.1664308 C22.0769088,11.5984772 23.2750321,9.95556336 23.2838096,8.01983985" id="hat" fill="#EBEBE8"></path>
                    <path d="M5.62857056,14.6298511 C6.46385686,15.1622623 9.03934462,15.5449536 13.1160696,15.5246527 C16.9124505,15.5058711 19.2780277,15.1434267 20.3792237,14.6566292 L20.3355305,16.2816297 C20.3135869,16.9237794 17.5442982,17.4617012 12.9975738,17.484225 C8.45084948,17.5063072 5.6815608,17.0050418 5.65961715,16.3633338 L5.62857056,14.6298511 Z" id="hat-stripe" fill="#C0BEB9"></path>
                    <path d="M22.6529318,27.3604186 C22.3062221,27.270765 21.3012029,28.9119123 20.063581,28.9119123 C18.470472,28.9119123 18.1983707,26.907734 15.7055721,26.907734 C13.7306435,26.907734 13.1293875,28.4879345 12.9977256,28.4879345 C12.8704524,28.4879345 12.2691964,26.907734 10.2942679,26.907734 C7.80585791,26.907734 7.52936792,28.9119123 5.94064763,28.9119123 C4.69863701,28.9119123 3.69361783,27.270765 3.34690815,27.3604186 C3.02653085,27.4443309 3.94377544,32.8920036 8.29739568,32.8920036 C11.1237379,32.8920036 12.7870666,30.8851755 12.9977256,30.8851755 C13.2127734,30.8851755 14.8761021,33.1428571 17.7024442,33.1428571 C22.0604532,33.1428571 22.9733091,27.4443309 22.6529318,27.3604186" id="moustache" fill="#0A0B09"></path>
                    <path d="M9.34630217,27.2601138 C9.34630217,31.2459465 15.0867611,31.8289159 16.3375492,28.8018913 C17.4259542,26.169696 15.4641919,24.1898081 13.8140294,23.3162372 C12.6554046,22.7041193 11.8478783,23.4721374 10.9218563,24.2445719 C10.0397215,24.98035 9.34630217,25.7602924 9.34630217,27.2601138" id="nose" fill="#F3C899"></path>
                </g>
            </g>
            <g id="logos/pizzaonline/logo-luigi-handspizza" transform="translate(3.305804, 7.700335)">
                <g id="-g-pizza" stroke-width="1" transform="translate(0.000000, 17.006457)">
                    <path d="M62.0640124,8.36615281 C61.0193829,3.59142668 54.2044191,1.0422085 46.8464138,2.67202284 C39.4842631,4.30225434 34.3606042,9.49371569 35.4052337,14.2684418 C35.5544665,14.9492345 35.8197692,15.5841404 36.1887058,16.1685709 L1.05267584,25.3709524 L0.969768743,25.3984844 C-0.112168942,25.6775594 0.0412091969,26.2523953 0.173860561,26.7500581 C0.302366569,27.2310348 0.621558913,27.5451506 1.38430425,27.2919391 L1.43819387,27.2819274 L1.43819387,27.2810931 L1.47964742,27.2702471 L3.39065613,26.7375436 L37.1297014,17.3424377 C39.8158915,20.039745 45.0639111,21.1940056 50.6228323,19.9625718 C57.984983,18.3327574 63.1086419,13.1408789 62.0640124,8.36615281" id="Fill-21" fill="#A15831"></path>
                    <path d="M62.6029086,6.96368651 C63.821643,11.6750055 58.8513622,17.0512653 51.505793,18.9718349 C44.1560783,20.8928216 37.2167539,18.6306042 35.9980195,13.9192853 C34.7834304,9.20796631 39.7537112,3.8312893 47.0992805,1.91071975 C54.4448497,-0.0102669524 61.3883195,2.2519504 62.6029086,6.96368651" id="Fill-22" fill="#E9892E"></path>
                    <path d="M60.1488584,6.69086885 C61.10229,10.3780787 56.9610803,14.6518048 50.9005711,16.2365667 C44.8359166,17.8209115 39.1526347,16.116844 38.199203,12.429217 C37.2499167,8.74242425 41.3911265,4.46869813 47.4516356,2.88393625 C53.5121448,1.29917436 59.199572,3.00365898 60.1488584,6.69086885" id="Fill-23" fill="#D9722E"></path>
                    <path d="M60.1239862,6.8218547 C61.0608365,10.4435717 56.9320628,14.657645 50.9047165,16.2336467 C44.8732248,17.8092312 39.2313965,16.1506333 38.2945462,12.5284992 C37.3618413,8.90678229 41.490615,4.69270896 47.5179613,3.11712443 C53.5453077,1.54112274 59.187136,3.1997206 60.1239862,6.8218547" id="Fill-24" fill="#F1AF41"></path>
                    <path d="M56.7496672,5.29299123 C56.9776617,6.17067984 56.1195732,7.15682806 54.8303678,7.49472149 C53.5453077,7.83303207 52.3141372,7.39460492 52.0861427,6.51691631 C51.8581481,5.63881056 52.720382,4.65307949 54.0054421,4.31476891 C55.2946475,3.97687548 56.525818,4.41488548 56.7496672,5.29299123" id="Fill-25" fill="#A93150"></path>
                    <path d="M45.9219996,6.91446253 C46.1499941,7.79256829 45.2919056,8.77829936 44.0027002,9.11619278 C42.7134948,9.45408621 41.4864696,9.01649336 41.2584751,8.13838761 C41.0304806,7.26028185 41.8927144,6.27455078 43.1777745,5.9362402 C44.46698,5.59834678 45.6981504,6.03635677 45.9219996,6.91446253" id="Fill-26" fill="#A93150"></path>
                    <path d="M51.3482695,12.3207574 C51.5721186,13.1988631 50.7140301,14.1845942 49.4248247,14.5229048 C48.1397646,14.8607982 46.9085941,14.4227882 46.6805996,13.5446824 C46.4567504,12.6665767 47.3148389,11.6808456 48.6040444,11.3429522 C49.8891045,11.0050588 51.1202749,11.4426516 51.3482695,12.3207574" id="Fill-27" fill="#A93150"></path>
                    <path d="M39.7412751,18.2209606 C39.5215713,18.1083295 39.3101582,17.9890239 39.1070358,17.8638782 C39.5920423,16.9936983 40.101921,16.1865084 40.6283811,15.4431429 C40.6988522,15.4869439 40.7734686,15.5294934 40.8522303,15.5716258 C40.9019746,15.6004094 40.9558642,15.6291929 41.0097538,15.6575592 C40.346497,16.6946 39.960979,17.5451737 39.7412751,18.2209606" id="Fill-28" fill="#E26229"></path>
                    <path d="M41.0097538,15.6575592 C40.9558642,15.6291929 40.9019746,15.6004094 40.8522303,15.5716258 C40.7734686,15.5290763 40.7029975,15.4861096 40.6283811,15.4418914 C43.70838,11.0772261 47.1946236,8.90135931 47.1946236,8.90135931 C43.9861188,11.7000346 42.1082729,13.9355542 41.0097538,15.6575592" id="Fill-30" fill="#EC9337"></path>
                    <path d="M36.2674675,10.1019239 L36.296485,10.0264193 C36.3379386,9.98470403 36.3669561,9.96009204 36.3669561,9.96009204 C36.9638872,9.34312368 37.8634293,8.89218196 38.887332,8.56346588 C38.8127156,8.68986305 38.7463899,8.81667738 38.6800642,8.944326 C37.3038063,9.36106123 36.611532,9.78989387 36.2674675,10.1019239" id="Fill-31" fill="#E26229"></path>
                    <path d="M38.9039134,8.83406394 C38.9743844,8.70766708 39.0531462,8.58167147 39.1401986,8.45647838 C39.8076008,8.26668246 40.5206019,8.12343267 41.2377483,8.01589502 C41.2418937,8.05120589 41.2501844,8.08651676 41.2584751,8.12182764 C41.2792019,8.1892393 41.2999287,8.25384214 41.3330915,8.31563616 C40.358933,8.4773439 39.5588795,8.65389825 38.9039134,8.83406394 M45.8059297,7.80884492 C45.8266564,7.77433657 45.8432379,7.7390257 45.8556739,7.70371483 C46.5976925,7.70451735 47.0619723,7.72819168 47.0619723,7.72819168 C46.62671,7.75266854 46.2080291,7.77955295 45.8059297,7.80884492" id="Fill-33" fill="#EC9337"></path>
                    <path d="M48.3534068,16.7142062 C48.3206448,16.0296592 48.3097242,15.3225859 48.3097242,14.6263585 C48.3825285,14.6334501 48.4553329,14.6367874 48.5317775,14.6367874 C48.5718199,14.6367874 48.6118623,14.6359531 48.6519047,14.6338673 C48.7065079,15.3555409 48.7720319,16.0275734 48.8448362,16.6399531 C48.6810264,16.6679023 48.5172166,16.6925143 48.3534068,16.7142062" id="Fill-37" fill="#EC9337"></path>
                    <path d="M60.8618594,13.3185858 C60.3685622,12.8859988 59.6389797,12.3228431 58.6399491,11.7267324 C58.7726005,11.5682145 58.9011065,11.4071936 59.0171764,11.2453385 C59.8628289,11.6645767 60.6545917,12.1459705 61.3219939,12.6961945 C61.1769064,12.9060221 61.0235283,13.1133469 60.8618594,13.3185858" id="Fill-39" fill="#E26229"></path>
                    <path d="M58.6399491,11.7267324 C56.8159929,10.6404676 54.0883492,9.44407455 50.2331689,8.72865822 C50.2331689,8.72865822 55.1993044,9.35438679 59.0171764,11.2453385 C58.9011065,11.4071936 58.7726005,11.5682145 58.6399491,11.7267324" id="Fill-40" fill="#EC9337"></path>
                    <path d="M50.7762105,7.41421108 C50.7762105,7.41421108 51.3980137,7.24776728 52.3597361,7.01624771 C52.3721722,7.02917943 52.3846082,7.04211116 52.3970443,7.05504288 C51.8830203,7.1635025 51.3441241,7.28280808 50.7762105,7.41421108 M56.5548355,6.33462072 C56.6004344,6.26078475 56.6418879,6.18528017 56.6750508,6.10894129 C57.6823721,5.93123437 58.7062748,5.77980806 59.6472704,5.69345752 C59.7218868,5.82068899 59.7923578,5.95125769 59.8586835,6.0851636 C58.9798682,6.09142089 57.8937852,6.16191964 56.5548355,6.33462072" id="Fill-44" fill="#EC9337"></path>
                    <path d="M51.4311766,2.16782399 C51.6425897,1.8196851 51.8581481,1.49534119 52.0612705,1.22810523 C52.1358869,1.22737308 52.206358,1.227007 52.276829,1.227007 C52.4675153,1.227007 52.6540563,1.22956954 52.8405973,1.23469461 C52.5670039,1.47484089 52.2436662,1.78344351 51.8996017,2.16123461 C51.7462235,2.16123461 51.5887001,2.16343107 51.4311766,2.16782399" id="Fill-46" fill="#E26229"></path>
                    <path d="M49.8061974,5.89911364 C49.8061974,5.89911364 50.5150531,4.07866066 51.3109613,2.53644832 C51.447758,2.53060818 51.5845547,2.52643666 51.7172061,2.52393375 C51.0663853,3.37617606 50.3616749,4.50081887 49.8061974,5.89911364" id="Fill-48" fill="#EC9337"></path>
                    <path d="M48.4092127,6.30875728 C47.082699,5.03435676 45.996616,4.31101454 45.1468182,3.90804534 C45.2628881,3.85923851 45.3831034,3.81168314 45.5033187,3.76496207 C47.2899668,4.77321937 48.4092127,6.30875728 48.4092127,6.30875728" id="Fill-51" fill="#EC9337"></path>
                </g>
                <path d="M31.8276816,34.2300851 C32.3227917,34.7144355 33.6336161,36.0020888 33.3698279,37.017346 C33.1709722,37.783077 32.0305956,38.4838741 30.1556703,38.9931362 C29.4535879,39.1895718 27.2742916,39.5563059 26.482927,38.697462 C25.8904182,38.0497556 26.1947892,36.7367822 26.5559761,35.7484786 C27.2134174,33.9389031 28.0128985,32.8783146 28.8732539,32.6826958 C29.9973974,32.4266353 31.2514058,33.6595644 31.7830405,34.1863873 L31.8276816,34.2300851 Z M15.8570212,39.5574731 C15.114356,41.3837927 14.2580589,42.4374386 13.3814705,42.6024281 C12.2370356,42.8176495 11.0033185,41.5095767 10.4757421,40.950491 L10.4351593,40.9039346 C9.94816575,40.3901801 8.66169105,39.0241159 8.96200375,38.0129426 C9.1933257,37.2472116 10.3824017,36.5794941 12.3182012,36.1318988 C13.0446333,35.9587415 15.288862,35.6663343 16.0518186,36.5656088 C16.6240361,37.2390438 16.2628492,38.5650857 15.8570212,39.5574731 Z" id="hands" fill="#E9B177"></path>
                <path d="M51.2474316,7.70193514 C57.3442427,3.41649828 51.2055003,-2.03045173 47.9474383,0.765485424 C45.8508733,2.56390271 47.519739,4.53860219 47.519739,4.53860219 C47.519739,4.53860219 47.3478207,2.64060241 49.5785659,2.57364908 C51.4654744,2.51686588 52.2034653,5.23525582 49.9182094,7.22054917 C48.454807,8.49139118 45.2680282,11.5733631 47.3855589,13.826046 C42.3202578,10.9487479 46.74401,7.51421156 46.74401,7.51421156 C40.6136539,11.2966509 43.2846777,15.2422361 46.8488382,16.8639474 C50.7568354,18.6420245 50.0859346,22.197331 49.0166865,23.2944334 C49.0166865,23.2944334 54.9793174,16.663935 49.6204972,13.2476201 C49.6204972,13.2476201 45.9473153,11.4258963 51.2474316,7.70193514 Z" id="smoke" fill="#EBEBE8"></path>
            </g>
        </g>
    </g>
</svg>