<?xml version="1.0" encoding="UTF-8"?>
<svg width="80px" height="80px" viewBox="0 0 80 80" version="1.1" xmlns="http://www.w3.org/2000/svg" xmlns:xlink="http://www.w3.org/1999/xlink">
    <!-- Generator: Sketch 50.2 (55047) - http://www.bohemiancoding.com/sketch -->
    <title>logo-foodpanda</title>
    <desc>Created with Sketch.</desc>
    <defs>
        <path d="M10.9767262,2.7558662 C11.6245528,3.70244633 12.0059834,4.84672991 11.999929,6.06290564 C11.999929,9.33999001 9.3056967,12 5.9999645,12 C2.69423229,12 0,9.33999001 0,6.06290564 C0,4.83474788 0.381430639,3.6904643 1.02925728,2.74388417 C0.696262278,2.46230654 0.484356367,2.03694458 0.484356367,1.56365452 C0.484356367,0.700948577 1.19878201,0 2.07062347,0 C2.63368775,0 3.11804411,0.287568647 3.40260348,0.718921618 C4.18968257,0.341487768 5.07363294,0.131802297 6.00601895,0.131802297 C6.93840496,0.131802297 7.82235533,0.347478782 8.60943442,0.724912631 C8.88793933,0.293559661 9.37835016,0.00599101348 9.94141443,0.00599101348 C10.8193103,0.00599101348 11.5276815,0.706939591 11.5276815,1.56964553 C11.5276815,2.04892661 11.3097212,2.46829755 10.9767262,2.7558662 Z M6.00601895,11.550674 C9.05746406,11.550674 11.5397904,9.09435846 11.533736,6.07488767 C11.533736,4.93659511 11.1825776,3.88217673 10.5831866,3.00748877 C10.0382857,2.21667499 9.29358779,1.56964553 8.41569188,1.15027459 C7.68310287,0.796804793 6.8657515,0.599101348 5.9999645,0.599101348 C5.13417749,0.599101348 4.31682612,0.796804793 3.59029157,1.15027459 C2.71845011,1.56964553 1.96769774,2.21667499 1.42279683,3.00748877 C0.823405824,3.88217673 0.472247458,4.93659511 0.472247458,6.07488767 C0.472247458,9.09435846 2.95457384,11.550674 6.00601895,11.550674 Z M5.99391004,7.21917124 C5.90309322,7.2431353 4.95254385,6.92561158 4.95254385,6.48227659 C4.95254385,6.23664503 5.72751404,6.18871692 5.99391004,6.18871692 C6.2663605,6.18871692 7.03527623,6.23664503 7.03527623,6.48227659 C7.03527623,6.92561158 6.08472686,7.2431353 5.99391004,7.21917124 Z M9.48127588,3.50474289 C10.001959,3.84023964 10.6376767,4.58312531 10.534751,5.59560659 C10.4318253,6.60808787 9.63263725,7.23714428 9.21487988,7.23714428 C8.79712251,7.23115327 8.59127106,7.0214678 8.46412751,6.51223165 C8.33698397,6.00299551 7.90711769,5.41587619 7.34405341,4.78681977 C6.78704359,4.15776335 7.35616232,3.55267099 7.35616232,3.55267099 C7.80419196,2.95956066 8.96059279,3.16325512 9.48127588,3.50474289 Z M8.28854833,4.7988018 C8.45807306,4.7988018 8.59732551,4.65501747 8.60337997,4.4872691 C8.60337997,4.31352971 8.46412751,4.1757364 8.28854833,4.1757364 C8.1190236,4.1757364 7.97371669,4.31352971 7.97371669,4.4872691 C7.97371669,4.66100849 8.11296915,4.7988018 8.28854833,4.7988018 Z M4.63165776,3.54667998 C4.63165776,3.54667998 5.20077649,4.15177234 4.64376667,4.78082876 C4.08675685,5.40988517 3.65083612,5.99700449 3.52369257,6.50624064 C3.39654902,7.0214678 3.19069757,7.23115327 2.7729402,7.23115327 C2.35518283,7.23115327 1.54994037,6.60209685 1.4530691,5.58961558 C1.35014337,4.5771343 1.9858611,3.84023964 2.5065442,3.49875187 C3.02117284,3.1572641 4.17757367,2.95956066 4.63165776,3.54667998 Z M3.79614303,4.7988018 C3.96566775,4.7988018 4.10492021,4.65501747 4.11097466,4.4872691 C4.11097466,4.31352971 3.97172221,4.1757364 3.79614303,4.1757364 C3.62056384,4.1757364 3.48131139,4.31352971 3.48131139,4.4872691 C3.48131139,4.66100849 3.62056384,4.7988018 3.79614303,4.7988018 Z M5.99391004,8.86669995 C6.81126141,8.86669995 7.47119696,8.29156266 7.47119696,7.58462307 L4.52267758,7.58462307 C4.52267758,8.29156266 5.17655867,8.86669995 5.99391004,8.86669995 Z" id="path-1"></path>
        <path d="M16.2318841,4.26092908 L17.2109865,4.26092908 L17.2109865,3.35484904 C17.2109865,2.25498309 17.82358,1.52173913 19.0435311,1.52173913 L19.6561246,1.64220064 L19.6561246,2.74206658 L18.9859369,2.62160508 C18.6194279,2.62160508 18.4361735,2.86776555 18.4361735,3.23438753 L18.4361735,4.26092908 L19.6561246,4.26092908 L19.6561246,5.36079503 L18.4361735,5.36079503 L18.4361735,10.0064193 L17.2162223,10.0064193 L17.2162223,5.36079503 L16.2371199,5.36079503 L16.2371199,4.26092908 L16.2318841,4.26092908 Z M22.8185731,4.14046757 C24.4050332,4.14046757 25.8134746,5.36079503 25.8134746,7.13629291 C25.8134746,8.90655334 24.410269,10.1321183 22.8185731,10.1321183 C21.232113,10.1321183 19.8236716,8.9117908 19.8236716,7.13629291 C19.8289074,5.36079503 21.232113,4.14046757 22.8185731,4.14046757 Z M22.8185731,9.02701485 C23.98093,9.02701485 24.5882876,8.17330938 24.5882876,7.13105546 C24.5882876,6.09403899 23.9756942,5.23509606 22.8185731,5.23509606 C21.6562162,5.23509606 21.0488586,6.08880153 21.0488586,7.13105546 C21.0488586,8.17330938 21.6614521,9.02701485 22.8185731,9.02701485 Z M29.342432,4.14046757 C30.9288921,4.14046757 32.3373336,5.36079503 32.3373336,7.13629291 C32.3373336,8.90655334 30.934128,10.1321183 29.342432,10.1321183 C27.7507361,10.1321183 26.3475305,8.9117908 26.3475305,7.13629291 C26.3527663,5.36079503 27.755972,4.14046757 29.342432,4.14046757 Z M29.342432,9.02701485 C30.5047889,9.02701485 31.1121466,8.17330938 31.1121466,7.13105546 C31.1121466,6.09403899 30.4995531,5.23509606 29.342432,5.23509606 C28.1800752,5.23509606 27.5727175,6.08880153 27.5727175,7.13105546 C27.5727175,8.17330938 28.185311,9.02701485 29.342432,9.02701485 Z M38.7407682,10.0064193 L37.6412414,10.0064193 L37.520817,9.5193358 L37.4579869,9.45648631 L37.3951568,9.5193358 C37.0286479,9.88595778 36.4160544,10.1321183 35.8086967,10.1321183 C34.2222366,10.1321183 32.8766253,8.9117908 32.8766253,7.13629291 C32.8766253,5.36603248 34.2222366,4.14046757 35.8086967,4.14046757 C36.4055827,4.14046757 37.0286479,4.38662805 37.3951568,4.75325003 L37.4579869,4.81609951 L37.520817,4.75325003 L37.520817,1.52173913 L38.7407682,1.52173913 L38.7407682,10.0064193 Z M35.8715268,5.24033352 C34.7091699,5.24033352 34.0861048,6.09403899 34.0861048,7.13629291 C34.0861048,8.17330938 34.7091699,9.0322523 35.8715268,9.0322523 C36.9082235,9.0322523 37.6412414,8.17854683 37.6412414,7.13629291 C37.6412414,6.09403899 36.9082235,5.24033352 35.8715268,5.24033352 Z M39.9659552,4.26092908 L41.0654819,4.26092908 L41.1754346,4.74801257 L41.2487364,4.81086205 L41.3115665,4.74801257 C41.6780754,4.38139059 42.2906689,4.13523012 42.8980266,4.13523012 C44.4844867,4.13523012 45.830098,5.35555757 45.830098,7.13105546 C45.830098,8.90131588 44.4844867,10.1268808 42.8980266,10.1268808 C42.3011406,10.1268808 41.6780754,9.88072032 41.3115665,9.51409834 L41.2487364,9.45124886 L41.1754346,9.51409834 L41.1754346,12.593723 L39.9659552,12.593723 L39.9659552,4.26092908 Z M42.8351965,9.02701485 C43.9975534,9.02701485 44.604911,8.17330938 44.604911,7.13105546 C44.604911,6.09403899 43.9923175,5.23509606 42.8351965,5.23509606 C41.7984998,5.23509606 41.0654819,6.08880153 41.0654819,7.13105546 C41.0654819,8.17330938 41.7984998,9.02701485 42.8351965,9.02701485 Z M48.9035372,6.43971115 L49.903583,6.43971115 L49.903583,6.18831322 C49.903583,5.49696891 49.4323572,5.17748404 48.777877,5.17748404 C48.249057,5.17748404 47.8930197,5.42888197 47.6992936,5.9473902 L46.6050026,5.7169421 C46.8458513,4.73753766 47.683586,4.11951775 48.7883487,4.11951775 C50.3276862,4.11951775 51.0973549,4.87894899 51.0973549,6.40828641 L51.0973549,10.0064193 L50.0868374,10.0064193 L49.9716489,9.24698804 C49.5684891,9.81263338 48.9716031,10.1006935 48.1757552,10.1006935 C47.154766,10.1006935 46.3955689,9.49314851 46.3955689,8.340908 C46.3955689,7.15200528 47.4008506,6.43971115 48.9035372,6.43971115 Z M48.3851888,9.03748976 C48.7883487,9.03748976 49.1443859,8.9117908 49.4428289,8.66039287 C49.7517436,8.39328256 49.903583,8.0371355 49.903583,7.56576438 L49.903583,7.44006541 L48.8564146,7.44006541 C48.1181609,7.44006541 47.6626427,7.78573757 47.6626427,8.33567054 C47.6626427,8.74942963 47.9139631,9.03748976 48.3851888,9.03748976 Z M52.2282968,4.26092908 L53.3278235,4.26092908 L53.4482479,4.74801257 L53.511078,4.81086205 L53.5739081,4.74801257 C53.8199927,4.38139059 54.4273503,4.13523012 54.9195195,4.13523012 C56.3855552,4.13523012 57.2389974,5.11463455 57.2389974,6.45542352 L57.2389974,10.0011818 L56.0190463,10.0011818 L56.0190463,6.45542352 C55.9823954,5.67504244 55.6054148,5.23509606 54.7990951,5.23509606 C54.0765489,5.23509606 53.479663,5.82169123 53.4534838,6.52874791 L53.4534838,10.0011818 L52.2335326,10.0011818 L52.2335326,4.26092908 L52.2282968,4.26092908 Z M63.8885166,10.0064193 L62.7889898,10.0064193 L62.6685654,9.5193358 L62.6057353,9.45648631 L62.5429052,9.5193358 C62.1763963,9.88595778 61.5638028,10.1321183 60.9564451,10.1321183 C59.369985,10.1321183 58.0243737,8.9117908 58.0243737,7.13629291 C58.0243737,5.36603248 59.369985,4.14046757 60.9564451,4.14046757 C61.5533311,4.14046757 62.1763963,4.38662805 62.5429052,4.75325003 L62.6057353,4.81609951 L62.6685654,4.75325003 L62.6685654,1.52173913 L63.8885166,1.52173913 L63.8885166,10.0064193 Z M61.0140394,5.24033352 C59.8516825,5.24033352 59.2286173,6.09403899 59.2286173,7.13629291 C59.2286173,8.17330938 59.8516825,9.0322523 61.0140394,9.0322523 C62.0507361,9.0322523 62.7837539,8.17854683 62.7837539,7.13629291 C62.7889898,6.09403899 62.0559719,5.24033352 61.0140394,5.24033352 Z M67.3651155,6.43971115 L68.3651613,6.43971115 L68.3651613,6.18831322 C68.3651613,5.49696891 67.8939356,5.17748404 67.2394553,5.17748404 C66.7106353,5.17748404 66.3545981,5.42888197 66.1608719,5.9473902 L65.066581,5.7169421 C65.3074297,4.73753766 66.1451644,4.11951775 67.249927,4.11951775 C68.7892645,4.11951775 69.5589333,4.87894899 69.5589333,6.40828641 L69.5589333,10.0064193 L68.5484158,10.0064193 L68.4332273,9.24698804 C68.0300675,9.81263338 67.4331815,10.1006935 66.6373335,10.1006935 C65.6163444,10.1006935 64.8571473,9.49314851 64.8571473,8.340908 C64.8571473,7.15200528 65.8571931,6.43971115 67.3651155,6.43971115 Z M66.8467672,9.03748976 C67.249927,9.03748976 67.6059643,8.9117908 67.9044073,8.66039287 C68.2133219,8.39328256 68.3651613,8.0371355 68.3651613,7.56576438 L68.3651613,7.44006541 L67.317993,7.44006541 C66.5797393,7.44006541 66.124221,7.78573757 66.124221,8.33567054 C66.124221,8.74942963 66.3755414,9.03748976 66.8467672,9.03748976 Z" id="path-3"></path>
    </defs>
    <g id="logo-foodpanda" stroke="none" stroke-width="1" fill="none" fill-rule="evenodd">
        <g id="Logo-foodpanda" transform="translate(5.000000, 34.000000)">
            <g id="logos/foodpanda/logo-foodpanda-sygnet-outlined">
                <mask id="mask-2" fill="white">
                    <use xlink:href="#path-1"></use>
                </mask>
                <use id="logo-foodpanda-sygnet-outlined" fill-opacity="0" fill="#D60365" fill-rule="nonzero" xlink:href="#path-1"></use>
                <g id="pandora/$color-brand-primary" mask="url(#mask-2)" fill="#D70F64" fill-rule="evenodd">
                    <g transform="translate(-2.000000, -2.000000)" id="bg">
                        <rect x="0" y="0" width="16" height="16"></rect>
                    </g>
                </g>
            </g>
            <mask id="mask-4" fill="white">
                <use xlink:href="#path-3"></use>
            </mask>
            <use id="logo-foodpanda-typographic" fill="#D70F64" fill-rule="nonzero" xlink:href="#path-3"></use>
        </g>
    </g>
</svg>