<?xml version="1.0" encoding="UTF-8"?>
<svg width="80px" height="80px" viewBox="0 0 80 80" version="1.1" xmlns="http://www.w3.org/2000/svg" xmlns:xlink="http://www.w3.org/1999/xlink">
    <!-- Generator: Sketch 50.2 (55047) - http://www.bohemiancoding.com/sketch -->
    <title>logo-luigi-handspizza</title>
    <desc>Created with Sketch.</desc>
    <defs></defs>
    <g id="logo-luigi-handspizza" stroke="none" stroke-width="1" fill="none" fill-rule="evenodd">
        <g id="logos/pizzaonline/logo-luigi-handspizza" transform="translate(10.000000, 19.000000)">
            <g id="-g-pizza" stroke-width="1" transform="translate(0.000000, 16.250615)">
                <path d="M59.1085833,7.99432379 C58.113698,3.43180772 51.6232563,0.995888121 44.6156322,2.55326627 C37.6040601,4.11104303 32.7243849,9.07177277 33.7192702,13.6342888 C33.8613966,14.2848241 34.1140659,14.8915119 34.4654341,15.4499677 L1.00254842,24.2433545 L0.923589279,24.2696629 C-0.106827564,24.5363345 0.0392468542,25.0856222 0.165581486,25.5611667 C0.287968161,26.0207666 0.59196087,26.3209216 1.318385,26.078964 L1.36970845,26.0693973 L1.36970845,26.0686001 L1.40918802,26.0582362 L3.22919631,25.5492083 L35.3616204,16.5716627 C37.9198967,19.1490896 42.9180106,20.2520498 48.2122212,19.0753464 C55.2237933,17.5179682 60.1034685,12.5568399 59.1085833,7.99432379" id="Fill-21" fill="#A15831"></path>
                <path d="M59.6218177,6.65418933 C60.7825171,11.1561163 56.0489164,16.2934313 49.0531361,18.1286422 C42.0534079,19.9642517 35.4445275,17.8025774 34.2838281,13.3006504 C33.1270766,8.79872336 37.8606773,3.66100978 44.8564576,1.82579887 C51.8522378,-0.00981064338 58.4650662,2.15186371 59.6218177,6.65418933" id="Fill-22" fill="#E9892E"></path>
                <path d="M57.284627,6.39349691 C58.1926572,9.91683078 54.2486479,14.0006135 48.4767344,15.5149415 C42.7008729,17.028871 37.2882235,15.4005398 36.3801934,11.8768073 C35.4761112,8.35387206 39.4201204,4.27008933 45.192034,2.7557613 C50.9639475,1.24143328 56.3805448,2.87016303 57.284627,6.39349691" id="Fill-23" fill="#D9722E"></path>
                <path d="M57.2609393,6.51866116 C58.1531776,9.97941291 54.2210122,14.0061941 48.4806823,15.5121513 C42.7364045,17.0177098 37.3632347,15.4328274 36.4709964,11.9716771 C35.582706,8.5109253 39.5148714,4.48414412 45.2552013,2.97858557 C50.9955311,1.4726284 56.3687009,3.0575108 57.2609393,6.51866116" id="Fill-24" fill="#F1AF41"></path>
                <path d="M54.0473021,5.05774718 C54.2644397,5.8964274 53.4472126,6.83874681 52.2193979,7.16162276 C50.9955311,7.48489731 49.8229878,7.06595581 49.6058502,6.22727559 C49.3887125,5.38819675 50.2098876,4.44627595 51.4337544,4.1230014 C52.6615691,3.80012546 53.8341124,4.21866835 54.0473021,5.05774718" id="Fill-25" fill="#A93150"></path>
                <path d="M43.7352377,6.60715308 C43.9523754,7.44623192 43.1351482,8.38815272 41.9073335,8.71102866 C40.6795188,9.0339046 39.5109235,8.61576033 39.2937858,7.77668149 C39.0766482,6.93760266 39.8978233,5.99568186 41.12169,5.6724073 C42.3495047,5.34953136 43.522048,5.76807425 43.7352377,6.60715308" id="Fill-26" fill="#A93150"></path>
                <path d="M48.9031138,11.7731681 C49.1163035,12.612247 48.2990763,13.5541678 47.0712616,13.8774423 C45.8473949,14.2003183 44.6748516,13.7817754 44.4577139,12.9426965 C44.2445242,12.1036177 45.0617514,11.1616969 46.2895661,10.838821 C47.5134328,10.515945 48.6859761,10.9340893 48.9031138,11.7731681" id="Fill-27" fill="#A93150"></path>
                <path d="M37.8488335,17.4111401 C37.6395917,17.3035148 37.4382459,17.1895117 37.244796,17.069928 C37.706707,16.2384228 38.1923057,15.4671081 38.6936963,14.756781 C38.7608116,14.7986353 38.8318748,14.8392937 38.906886,14.8795536 C38.9542615,14.9070578 39.0055849,14.9345621 39.0569084,14.9616677 C38.4252352,15.9526178 38.0580752,16.7653882 37.8488335,17.4111401" id="Fill-28" fill="#E26229"></path>
                <path d="M39.0569084,14.9616677 C39.0055849,14.9345621 38.9542615,14.9070578 38.906886,14.8795536 C38.8318748,14.8388951 38.7647595,14.7978381 38.6936963,14.7555852 C41.6270286,10.584905 44.9472606,8.50574334 44.9472606,8.50574334 C41.8915417,11.1800331 40.1031171,13.3161962 39.0569084,14.9616677" id="Fill-30" fill="#EC9337"></path>
                <path d="M34.5404453,9.65294946 L34.568081,9.58080064 C34.6075606,9.54093941 34.6351963,9.51742129 34.6351963,9.51742129 C35.2037021,8.92787374 36.0604088,8.49697387 37.0355543,8.1828674 C36.964491,8.30364692 36.9013237,8.42482505 36.8381564,8.5468004 C35.5274346,8.94501406 34.8681257,9.35478748 34.5404453,9.65294946" id="Fill-31" fill="#E26229"></path>
                <path d="M37.0513461,8.44143888 C37.1184614,8.32065965 37.1934726,8.20026385 37.2763797,8.0806349 C37.9120008,7.89927435 38.5910494,7.76239122 39.274046,7.65963302 C39.277994,7.69337452 39.2858899,7.72711602 39.2937858,7.76085752 C39.3135256,7.82527311 39.3332654,7.88700471 39.364849,7.94605233 C38.4370791,8.10057306 37.6751233,8.26928055 37.0513461,8.44143888 M43.6246949,7.46178515 C43.6444347,7.4288105 43.6602265,7.395069 43.6720704,7.3613275 C44.3787548,7.36209436 44.820926,7.3847165 44.820926,7.3847165 C44.4063905,7.40810549 44.0076468,7.43379504 43.6246949,7.46178515" id="Fill-33" fill="#EC9337"></path>
                <path d="M46.0508636,15.9713526 C46.0196617,15.3172299 46.0092611,14.6415821 46.0092611,13.9762982 C46.0785986,13.9830746 46.1479361,13.9862635 46.2207404,13.9862635 C46.2588761,13.9862635 46.2970117,13.9854663 46.3351473,13.9834732 C46.3871504,14.6730724 46.4495542,15.3152368 46.5188917,15.9003996 C46.3628823,15.9271066 46.2068729,15.9506248 46.0508636,15.9713526" id="Fill-37" fill="#EC9337"></path>
                <path d="M57.9636757,12.7266487 C57.4938687,12.3132878 56.7990283,11.7751612 55.8475706,11.2055443 C55.9739052,11.0540716 56.0962919,10.9002073 56.2068347,10.7455457 C57.012218,11.146151 57.7662778,11.6061496 58.4018989,12.1319192 C58.2637204,12.3324212 58.117646,12.5305315 57.9636757,12.7266487" id="Fill-39" fill="#E26229"></path>
                <path d="M55.8475706,11.2055443 C54.1104694,10.1675579 51.5127135,9.02433791 47.8411133,8.34071786 C47.8411133,8.34071786 52.5707661,8.93863627 56.2068347,10.7455457 C56.0962919,10.9002073 55.9739052,11.0540716 55.8475706,11.2055443" id="Fill-40" fill="#EC9337"></path>
                <path d="M48.3582957,7.08469059 C48.3582957,7.08469059 48.9504893,6.92564429 49.8664153,6.70441448 C49.8782592,6.71677146 49.8901031,6.72912844 49.901947,6.74148542 C49.4124003,6.84512461 48.8991658,6.95912772 48.3582957,7.08469059 M53.8617481,6.05308202 C53.9051756,5.98252765 53.9446552,5.91037883 53.9762388,5.83743279 C54.9355924,5.66762396 55.9107379,5.5229277 56.8069242,5.44041496 C56.8779874,5.5619917 56.9451027,5.68675735 57.00827,5.81471189 C56.1713031,5.82069107 55.1369383,5.88805654 53.8617481,6.05308202" id="Fill-44" fill="#EC9337"></path>
                <path d="M48.9820729,2.07147626 C49.1834187,1.7388102 49.3887125,1.42888158 49.5821624,1.17352278 C49.6532256,1.17282316 49.7203409,1.17247336 49.7874562,1.17247336 C49.9690622,1.17247336 50.1467203,1.174922 50.3243784,1.1798193 C50.0638132,1.40929241 49.7558725,1.70417935 49.4281921,2.06517974 C49.2821177,2.06517974 49.1320953,2.06727858 48.9820729,2.07147626" id="Fill-46" fill="#E26229"></path>
                <path d="M47.4344737,5.63693081 C47.4344737,5.63693081 48.1095744,3.89738685 48.8675822,2.42371728 C48.9978647,2.41813671 49.1281473,2.41415059 49.254482,2.41175891 C48.6346527,3.22612379 47.9634999,4.30078247 47.4344737,5.63693081" id="Fill-48" fill="#EC9337"></path>
                <path d="M46.1040121,6.02836806 C44.8406658,4.81060757 43.806301,4.11941389 42.9969697,3.73435443 C43.1075125,3.6877168 43.2220033,3.642275 43.336494,3.59763042 C45.0380636,4.56107629 46.1040121,6.02836806 46.1040121,6.02836806" id="Fill-51" fill="#EC9337"></path>
            </g>
            <path d="M30.3120777,32.7087479 C30.7836112,33.1715717 32.0320153,34.4019959 31.7807885,35.3721306 C31.5914021,36.1038292 30.5053291,36.7734797 28.719686,37.260108 C28.0510361,37.447813 25.9755158,37.7982478 25.2218353,36.9775748 C24.6575411,36.3586554 24.9474183,35.1040363 25.2914058,34.1596574 C25.9175404,32.4305074 26.678951,31.4170561 27.498337,31.2301315 C28.5689499,30.9854516 29.7632437,32.1635838 30.2695624,32.6669924 L30.3120777,32.7087479 Z M15.1019249,37.7993632 C14.3946247,39.544513 13.5791037,40.5513302 12.7442576,40.7089868 C11.6543196,40.9146429 10.479351,39.6647067 9.97689726,39.1304692 L9.93824698,39.0859819 C9.47444357,38.595061 8.24922957,37.2897108 8.53524167,36.3234785 C8.75554829,35.5917799 9.88800161,34.9537388 11.7316202,34.5260366 C12.4234602,34.3605752 14.560821,34.0811639 15.2874463,34.9404707 C15.8324153,35.5839752 15.4884278,36.8510819 15.1019249,37.7993632 Z" id="hands" fill="#E9B177"></path>
            <path d="M48.8070777,7.35962691 C54.6135645,3.26465391 48.7671432,-1.94020943 45.664227,0.731463849 C43.6674984,2.44995148 45.2568943,4.33688653 45.2568943,4.33688653 C45.2568943,4.33688653 45.0931626,2.52324231 47.2176818,2.45926468 C49.0147375,2.40500517 49.717586,5.00257778 47.5411518,6.89963588 C46.1474353,8.11399601 43.1124078,11.0589914 45.1291037,13.2115551 C40.3050074,10.4621369 44.5181047,7.18024661 44.5181047,7.18024661 C38.6796704,10.7945776 41.2235026,14.5648034 44.6179412,16.1144387 C48.3398433,17.8134901 47.7008901,21.210783 46.6825585,22.2591252 C46.6825585,22.2591252 52.3612546,15.9233156 47.2576164,12.658837 C47.2576164,12.658837 43.7593479,10.9180787 48.8070777,7.35962691 Z" id="smoke" fill="#EBEBE8"></path>
        </g>
    </g>
</svg>