<?xml version="1.0" encoding="UTF-8"?>
<svg width="80px" height="80px" viewBox="0 0 80 80" version="1.1" xmlns="http://www.w3.org/2000/svg" xmlns:xlink="http://www.w3.org/1999/xlink">
    <!-- Generator: Sketch 50.2 (55047) - http://www.bohemiancoding.com/sketch -->
    <title>logo-pizzaonline-typographic</title>
    <desc>Created with Sketch.</desc>
    <defs>
        <path d="M4.08229694,14.609081 C4.03009366,14.7757698 3.9528328,14.9226498 3.85051436,15.0503532 C3.74819592,15.1778459 3.6208199,15.2804722 3.46629817,15.3584429 C3.31177645,15.4366244 3.13219714,15.475399 2.92756026,15.475399 C2.73127591,15.475399 2.55587287,15.4366244 2.40135114,15.3584429 C2.24682942,15.2804722 2.11527714,15.1778459 2.0066943,15.0503532 C1.89811147,14.9226498 1.81458621,14.7774556 1.7540304,14.6143493 C1.69347459,14.4514537 1.66424075,14.2849756 1.66424075,14.1149151 C1.66424075,13.9446439 1.69347459,13.7783766 1.7540304,13.6152702 C1.81458621,13.4521639 1.89811147,13.3069698 2.0066943,13.1794771 C2.11527714,13.0517737 2.24682942,12.9491473 2.40135114,12.8711766 C2.55587287,12.7932059 2.73127591,12.7542205 2.92756026,12.7542205 C3.13219714,12.7542205 3.31177645,12.7932059 3.46629817,12.8711766 C3.6208199,12.9491473 3.74819592,13.0502985 3.85051436,13.173998 C3.9528328,13.298119 4.03009366,13.4416273 4.08229694,13.6045229 C4.13450023,13.7676293 4.16164594,13.9341073 4.16164594,14.1041678 C4.16164594,14.2742283 4.13450023,14.4428137 4.08229694,14.609081 Z M5.16603716,12.1589034 C5.38111469,12.4140995 5.54607708,12.7099668 5.66092431,13.0465054 C5.77785967,13.3832546 5.83632735,13.7358088 5.83632735,14.1041678 C5.83632735,14.4727376 5.7799478,14.8269776 5.6671887,15.1670985 C5.5544296,15.5072195 5.39155535,15.8066693 5.17647781,16.0652371 C4.96348841,16.3240156 4.70247198,16.5313756 4.39342853,16.6873171 C4.08438508,16.8430478 3.733579,16.9210185 3.33892216,16.9210185 C3.01734992,16.9210185 2.7103946,16.855481 2.42223246,16.7244059 C2.13407032,16.5933307 1.91064026,16.4144195 1.74985414,16.1876722 L1.72688469,16.1876722 L1.72688469,19.0355005 L0,19.8640976 L0,11.4786615 L1.64335943,11.4786615 L1.64335943,12.1270829 L1.67468141,12.1270829 C1.83755566,11.9144546 2.05889759,11.7283785 2.3449716,11.5690654 C2.62895747,11.4095415 2.9630585,11.3298849 3.34936281,11.3298849 C3.72940273,11.3298849 4.07394442,11.4042732 4.38298787,11.5530498 C4.69203132,11.7018263 4.95304775,11.903918 5.16603716,12.1589034 Z M8.08524489,9.10814049 C8.17294641,9.1932761 8.24185475,9.29421659 8.29614617,9.41117268 C8.34834945,9.52812878 8.37340703,9.65414634 8.37340703,9.78859317 C8.37340703,9.92325073 8.34834945,10.0488468 8.29614617,10.1660137 C8.24185475,10.282759 8.17294641,10.3836995 8.08524489,10.4688351 C7.99754337,10.5539707 7.89104867,10.6214049 7.76784892,10.6707161 C7.64464916,10.7204488 7.51727315,10.7451044 7.38363273,10.7451044 C7.10382312,10.7451044 6.86786427,10.6513288 6.67784431,10.4635668 C6.48782435,10.2758049 6.39385844,10.0507434 6.39385844,9.78859317 C6.39385844,9.66110049 6.41891601,9.53866537 6.46694304,9.42170927 C6.51705819,9.3049639 6.58805466,9.20402341 6.67784431,9.1188878 C6.76972209,9.03396293 6.87412867,8.96484293 6.99524029,8.9115278 C7.11426378,8.85842341 7.24372793,8.83187122 7.38363273,8.83187122 C7.51727315,8.83187122 7.64464916,8.85673756 7.76784892,8.90625951 C7.89104867,8.9559922 7.99754337,9.02321561 8.08524489,9.10814049 Z M6.52123445,16.772242 L6.52123445,11.4786615 L8.24811915,11.4786615 L8.24811915,16.772242 L6.52123445,16.772242 Z M13.4517427,12.786041 L10.9125749,15.4222946 L13.5561492,15.4222946 L13.5561492,16.772242 L8.87873484,16.772242 L8.87873484,15.411758 L11.3448181,12.8180722 L8.97478888,12.8180722 L8.97478888,11.4786615 L13.4517427,11.4786615 L13.4517427,12.786041 Z M18.4214955,12.786041 L15.8844158,15.4222946 L18.5279902,15.4222946 L18.5279902,16.772242 L13.8505758,16.772242 L13.8505758,15.411758 L16.316659,12.8180722 L13.9466298,12.8180722 L13.9466298,11.4786615 L18.4214955,11.4786615 L18.4214955,12.786041 Z M23.6835867,12.855161 C23.7712882,13.2060293 23.815139,13.6224351 23.815139,14.1041678 L23.815139,16.772242 L22.2344235,16.772242 L22.2344235,16.2089561 L22.2031015,16.2089561 C22.0694611,16.4287493 21.8690005,16.5988098 21.5975434,16.7191376 C21.3281744,16.8394654 21.0337479,16.8997346 20.71844,16.8997346 C20.5075388,16.8997346 20.2903731,16.8714966 20.0648549,16.8148098 C19.8414248,16.7581229 19.6346998,16.6658224 19.4488561,16.5383298 C19.2630124,16.4108371 19.1105788,16.2407766 18.9915554,16.0281483 C18.8725319,15.81552 18.811976,15.5533698 18.811976,15.2414868 C18.811976,14.8590088 18.9163826,14.5507083 19.1231076,14.3167961 C19.3298326,14.0828839 19.5971135,13.9022868 19.922862,13.7745834 C20.2506986,13.6470907 20.6140335,13.5621659 21.0128666,13.519598 C21.4137878,13.4770302 21.8042684,13.4557463 22.1822202,13.4557463 L22.1822202,13.3706107 C22.1822202,13.1086712 22.0903424,12.9154302 21.908675,12.79152 C21.7270075,12.667399 21.5014893,12.6054439 21.2342085,12.6054439 C20.987809,12.6054439 20.7518501,12.6585483 20.5242438,12.7647571 C20.2945494,12.8711766 20.1003531,12.9986693 19.939567,13.1474459 L19.06464,12.2014712 C19.3736834,11.903918 19.732842,11.6805424 20.1442039,11.5317659 C20.5555658,11.3829893 20.9752802,11.308601 21.4033472,11.308601 C21.846031,11.308601 22.2198065,11.363602 22.5246737,11.4733932 C22.8295409,11.5833951 23.0780286,11.7534556 23.2680485,11.9835746 C23.4580685,12.2139044 23.5958852,12.5042927 23.6835867,12.855161 Z M22.2344235,14.6463805 L22.2344235,14.4655727 L22.0151697,14.4655727 C21.8251497,14.4655727 21.6330416,14.4746341 21.4409335,14.4921249 C21.2467373,14.5100371 21.0755105,14.5437541 20.9230769,14.5932761 C20.7727315,14.642798 20.6474436,14.7155005 20.5493014,14.8111727 C20.4511592,14.9066341 20.4031322,15.0326517 20.4031322,15.1883824 C20.4031322,15.2876371 20.4261016,15.3727727 20.4699524,15.4435785 C20.5158913,15.5143844 20.574359,15.5710712 20.6453554,15.613639 C20.7142638,15.6562068 20.7957009,15.6863415 20.8875787,15.7038322 C20.9773683,15.7217444 21.067158,15.7305951 21.1506832,15.7305951 C21.5014893,15.7305951 21.7708583,15.6332371 21.956702,15.4380995 C22.1425457,15.2433834 22.2344235,14.9795473 22.2344235,14.6463805 Z M34.381084,12.0526946 C34.6483648,12.293561 34.8592661,12.5877424 35.0137878,12.9348176 C35.1683095,13.2821034 35.2455704,13.6719571 35.2455704,14.1041678 C35.2455704,14.5365893 35.1683095,14.927918 35.0137878,15.2787863 C34.8592661,15.6294439 34.6483648,15.9272078 34.381084,16.1716566 C34.1138032,16.4161054 33.8047597,16.6057639 33.4539536,16.7404215 C33.1031476,16.8748683 32.7272839,16.9423024 32.3284508,16.9423024 C31.933794,16.9423024 31.5600184,16.8748683 31.2050361,16.7404215 C30.8521419,16.6057639 30.5430984,16.4161054 30.2799939,16.1716566 C30.0148012,15.9272078 29.805988,15.6294439 29.6514663,15.2787863 C29.4969446,14.927918 29.4196837,14.5365893 29.4196837,14.1041678 C29.4196837,13.6719571 29.4969446,13.2821034 29.6514663,12.9348176 C29.805988,12.5877424 30.0148012,12.293561 30.2799939,12.0526946 C30.5430984,11.8118283 30.8521419,11.627438 31.2050361,11.4999454 C31.5600184,11.372242 31.933794,11.308601 32.3284508,11.308601 C32.7272839,11.308601 33.1031476,11.372242 33.4539536,11.4999454 C33.8047597,11.627438 34.1138032,11.8118283 34.381084,12.0526946 Z M33.5019807,14.6038127 C33.5541839,14.4409171 33.5813296,14.2742283 33.5813296,14.1041678 C33.5813296,13.9341073 33.5520958,13.7676293 33.4978044,13.6045229 C33.4414248,13.4416273 33.3599877,13.298119 33.2555811,13.173998 C33.1490864,13.0502985 33.0196223,12.9491473 32.8651006,12.8711766 C32.7105788,12.7932059 32.5309995,12.7542205 32.3284508,12.7542205 C32.1238139,12.7542205 31.9442346,12.7932059 31.7897129,12.8711766 C31.6351912,12.9491473 31.5078151,13.0502985 31.4054967,13.173998 C31.3031783,13.298119 31.2280055,13.4416273 31.1737141,13.6045229 C31.1215108,13.7676293 31.0943651,13.9341073 31.0943651,14.1041678 C31.0943651,14.2742283 31.1215108,14.4409171 31.1737141,14.6038127 C31.2280055,14.766919 31.3052664,14.913799 31.4117611,15.0448741 C31.5161677,15.17616 31.6456318,15.2804722 31.8001535,15.3584429 C31.9546753,15.4366244 32.1342546,15.475399 32.3388914,15.475399 C32.5414402,15.475399 32.7210195,15.4366244 32.8755412,15.3584429 C33.030063,15.2804722 33.1595271,15.17616 33.2660218,15.0448741 C33.3704284,14.913799 33.4497774,14.766919 33.5019807,14.6038127 Z M40.6747121,12.0153951 C40.8250576,12.2174868 40.9336404,12.4497132 41.0004606,12.7116527 C41.0672808,12.9740137 41.1006909,13.2361639 41.1006909,13.4983141 L41.1006909,16.772242 L39.3633656,16.772242 L39.3633656,13.8810029 C39.3633656,13.7322263 39.3508368,13.5904039 39.3257792,13.4557463 C39.3028098,13.3212995 39.2610471,13.2024468 39.2046676,13.0996098 C39.148288,12.9969834 39.0710272,12.9154302 38.9687087,12.855161 C38.8663903,12.7951024 38.7390143,12.7647571 38.5844926,12.7647571 C38.4299708,12.7647571 38.2942423,12.7951024 38.1793951,12.855161 C38.0624597,12.9154302 37.9664057,12.9986693 37.8891448,13.104878 C37.8118839,13.2112976 37.7534162,13.333522 37.7158299,13.471762 C37.6761554,13.6097912 37.6573622,13.7535102 37.6573622,13.9022868 L37.6573622,16.772242 L35.9200368,16.772242 L35.9200368,11.4786615 L37.5947183,11.4786615 L37.5947183,12.2120078 L37.6155996,12.2120078 C37.6782435,12.0988449 37.7617688,11.9871571 37.8619991,11.8771551 C37.9643175,11.7675746 38.083341,11.6735883 38.2211577,11.5956176 C38.3568862,11.5176468 38.5072317,11.4537951 38.6680178,11.4042732 C38.8288039,11.3547512 39.0021188,11.3298849 39.1837863,11.3298849 C39.5345924,11.3298849 39.8331951,11.3937366 40.0795947,11.5212293 C40.3259942,11.648722 40.5243667,11.8135141 40.6747121,12.0153951 Z M42.00694,9.33193756 L43.7672348,8.45676878 L43.7672348,16.772242 L42.00694,16.772242 L42.00694,9.33193756 Z M44.723599,16.772242 L44.723599,11.4786615 L46.4525718,11.4786615 L46.4525718,16.772242 L44.723599,16.772242 Z M46.2896975,9.10814049 C46.377399,9.1932761 46.4463074,9.29421659 46.4985107,9.41117268 C46.5528021,9.52812878 46.5778597,9.65414634 46.5778597,9.78859317 C46.5778597,9.92325073 46.5528021,10.0488468 46.4985107,10.1660137 C46.4463074,10.282759 46.377399,10.3836995 46.2896975,10.4688351 C46.1999079,10.5539707 46.0955013,10.6214049 45.9723016,10.6707161 C45.8491018,10.7204488 45.7217258,10.7451044 45.5880854,10.7451044 C45.3082758,10.7451044 45.0723169,10.6513288 44.8822969,10.4635668 C44.692277,10.2758049 44.5983111,10.0507434 44.5983111,9.78859317 C44.5983111,9.66110049 44.6233686,9.53866537 44.6713957,9.42170927 C44.7215108,9.3049639 44.7904192,9.20402341 44.8822969,9.1188878 C44.9741747,9.03396293 45.0785813,8.96484293 45.1996929,8.9115278 C45.3187164,8.85842341 45.4481806,8.83187122 45.5880854,8.83187122 C45.7217258,8.83187122 45.8491018,8.85673756 45.9723016,8.90625951 C46.0955013,8.9559922 46.1999079,9.02321561 46.2896975,9.10814049 Z M52.1552587,12.0153951 C52.3056042,12.2174868 52.414187,12.4497132 52.4810072,12.7116527 C52.5478274,12.9740137 52.5812375,13.2361639 52.5812375,13.4983141 L52.5812375,16.772242 L50.8439122,16.772242 L50.8439122,13.8810029 C50.8439122,13.7322263 50.8313834,13.5904039 50.8063258,13.4557463 C50.7833564,13.3212995 50.7415937,13.2024468 50.6852142,13.0996098 C50.6309228,12.9969834 50.5515738,12.9154302 50.4492553,12.855161 C50.3469369,12.7951024 50.2195609,12.7647571 50.0650392,12.7647571 C49.9105174,12.7647571 49.7747889,12.7951024 49.6599417,12.855161 C49.5430063,12.9154302 49.4469522,12.9986693 49.3696914,13.104878 C49.2924305,13.2112976 49.2339628,13.333522 49.1963765,13.471762 C49.156702,13.6097912 49.1379088,13.7535102 49.1379088,13.9022868 L49.1379088,16.772242 L47.4005834,16.772242 L47.4005834,11.4786615 L49.0752649,11.4786615 L49.0752649,12.2120078 L49.0961462,12.2120078 C49.1587901,12.0988449 49.2402272,11.9871571 49.3425457,11.8771551 C49.4448641,11.7675746 49.5638876,11.6735883 49.7017043,11.5956176 C49.8374328,11.5176468 49.9877783,11.4537951 50.1485644,11.4042732 C50.3093505,11.3547512 50.4826654,11.3298849 50.6643329,11.3298849 C51.015139,11.3298849 51.3137417,11.3937366 51.5601413,11.5212293 C51.8065408,11.648722 52.0049133,11.8135141 52.1552587,12.0153951 Z M57.9331184,12.0739785 C58.164901,12.3220098 58.3444803,12.6231454 58.4760326,12.9773854 C58.6054967,13.3318361 58.6702288,13.7358088 58.6702288,14.1893034 C58.6702288,14.2601093 58.6702288,14.3311259 58.6702288,14.401721 C58.6702288,14.4727376 58.6660525,14.539961 58.6597881,14.6038127 L54.8573008,14.6038127 C54.8719177,14.7525893 54.9157685,14.8872468 54.9888531,15.0077854 C55.0619377,15.1283239 55.1579917,15.2328468 55.2728389,15.3213541 C55.3897743,15.4100722 55.5192384,15.4791922 55.6633195,15.5285034 C55.8074006,15.5782361 55.9556579,15.6028917 56.1101796,15.6028917 C56.3837249,15.6028917 56.6155074,15.5516839 56.8055274,15.4488468 C56.9955474,15.3462205 57.1500691,15.2132488 57.2690926,15.0503532 L58.4697682,15.81552 C58.2233686,16.1769249 57.8997083,16.4553015 57.4966989,16.6500176 C57.0916014,16.8449444 56.62386,16.9423024 56.0892983,16.9423024 C55.6967296,16.9423024 55.3250422,16.8801366 54.972148,16.7562263 C54.6213419,16.6323161 54.3143866,16.451719 54.0512821,16.2142244 C53.7881775,15.9767298 53.5814525,15.6844449 53.4290189,15.337159 C53.2786734,14.9900839 53.2035007,14.5932761 53.2035007,14.1467356 C53.2035007,13.7145249 53.2765853,13.3229854 53.4248426,12.9721171 C53.5731,12.6214595 53.7714724,12.3236956 54.0241363,12.0792468 C54.2768002,11.834798 54.575403,11.6451395 54.9199447,11.510482 C55.2644864,11.3760351 55.6361738,11.308601 56.037095,11.308601 C56.4233994,11.308601 56.7783817,11.3741385 57.0999539,11.5052137 C57.4236143,11.6364995 57.7013358,11.8259473 57.9331184,12.0739785 Z M60.2384155,14.7951571 C60.5265776,14.7951571 60.7750653,14.8944117 60.9817903,15.0927102 C61.1885153,15.2912195 61.2929218,15.5392507 61.2929218,15.8368039 C61.2929218,16.1343571 61.1885153,16.382599 60.9817903,16.5808976 C60.7750653,16.7791961 60.5265776,16.8786615 60.2384155,16.8786615 C60.0922463,16.8786615 59.9523415,16.8518985 59.8228773,16.7987941 C59.6934132,16.7456898 59.5785659,16.6729873 59.4804238,16.5808976 C59.3822816,16.4888078 59.3050207,16.3807024 59.2486412,16.2567922 C59.1922616,16.132882 59.1651159,15.9963278 59.1651159,15.8475512 C59.1651159,15.7057288 59.1922616,15.5710712 59.2486412,15.4435785 C59.3050207,15.3160859 59.3822816,15.204398 59.4804238,15.1087259 C59.5785659,15.0130537 59.6934132,14.9369795 59.8228773,14.880082 C59.9523415,14.8236059 60.0922463,14.7951571 60.2384155,14.7951571 Z M54.8573008,13.519598 L57.0790726,13.519598 C57.0790726,13.243118 56.9934592,13.0058341 56.8222325,12.8073249 C56.6489175,12.6090263 56.3920774,12.5097717 56.0475357,12.5097717 C55.8783971,12.5097717 55.7238753,12.5363239 55.5839705,12.5894283 C55.4440657,12.6425327 55.320866,12.7154459 55.2143713,12.8073249 C55.1099647,12.8996254 55.0264394,13.0077307 54.9617074,13.131641 C54.8990634,13.2555512 54.8635652,13.3849405 54.8573008,13.519598 Z M64.600522,8.53431805 C64.7466912,8.53431805 64.8928604,8.54316878 65.0369415,8.56087024 C65.1810226,8.57857171 65.3125749,8.6051239 65.4315983,8.64052683 L65.3167511,10.0222946 C65.252019,10.0012215 65.1789344,9.98352 65.0954092,9.96919024 C65.0097958,9.95507122 64.9262705,9.94790634 64.8427453,9.94790634 C64.679871,9.94790634 64.5504069,9.97635512 64.4522647,10.033042 C64.3541225,10.0899395 64.2768617,10.1660137 64.2204821,10.2616859 C64.1641026,10.3571473 64.1265162,10.4652527 64.1056349,10.5857912 C64.0847536,10.7063298 64.0743129,10.8266576 64.0743129,10.9471961 L64.0743129,11.4786615 L65.2415784,11.4786615 L65.2415784,12.7755044 L64.0743129,12.7755044 L64.0743129,16.772242 L62.3453401,16.772242 L62.3453401,12.7755044 L61.3868878,12.7755044 L61.3868878,11.4786615 L62.3453401,11.4786615 L62.3453401,10.96848 C62.3453401,10.642478 62.3808383,10.3324917 62.4518348,10.0383102 C62.5207431,9.74433951 62.6418548,9.48556098 62.8151697,9.2623961 C62.9863964,9.03923122 63.218179,8.86200585 63.5105174,8.73093073 C63.8007677,8.59985561 64.1641026,8.53431805 64.600522,8.53431805 Z M65.9578075,16.772242 L65.9578075,11.4786615 L67.6972209,11.4786615 L67.6972209,16.772242 L65.9578075,16.772242 Z M67.7431598,9.41117268 C67.7974513,9.52812878 67.8225088,9.65414634 67.8225088,9.78859317 C67.8225088,9.92325073 67.7974513,10.0488468 67.7431598,10.1660137 C67.6909565,10.282759 67.6199601,10.3836995 67.5280823,10.4688351 C67.4362045,10.5539707 67.3317979,10.6214049 67.2127745,10.6707161 C67.093751,10.7204488 66.9663749,10.7451044 66.8327345,10.7451044 C66.5529249,10.7451044 66.3169661,10.6513288 66.1269461,10.4635668 C65.9369261,10.2758049 65.8429602,10.0507434 65.8429602,9.78859317 C65.8429602,9.66110049 65.8680178,9.53866537 65.9160448,9.42170927 C65.96616,9.3049639 66.0350683,9.20402341 66.1269461,9.1188878 C66.2188239,9.03396293 66.3232305,8.96484293 66.442254,8.9115278 C66.5633656,8.85842341 66.6928297,8.83187122 66.8327345,8.83187122 C66.9663749,8.83187122 67.093751,8.85673756 67.2127745,8.90625951 C67.3317979,8.9559922 67.4362045,9.02321561 67.5280823,9.10814049 C67.6199601,9.1932761 67.6909565,9.29421659 67.7431598,9.41117268 Z M24.8947029,14.6910556 L24.8947029,12.9476722 L28.3213266,12.9476722 L28.3213266,14.6910556 L24.8947029,14.6910556 Z" id="path-1"></path>
    </defs>
    <g id="logo-pizzaonline-typographic" stroke="none" stroke-width="1" fill="none" fill-rule="evenodd">
        <g id="logos/pizzaonline/logo-pizzaonline-typographic" transform="translate(5.000000, 27.000000)">
            <mask id="mask-2" fill="white">
                <use xlink:href="#path-1"></use>
            </mask>
            <use id="-g-logo-pizzaonline-typographic" fill="#858585" fill-rule="evenodd" opacity="0" xlink:href="#path-1"></use>
            <g id="pizzaonline/$color-neutral-primary" mask="url(#mask-2)" fill="#2A2B29" fill-rule="evenodd">
                <rect id="bg" x="0" y="0" width="70" height="27"></rect>
            </g>
        </g>
    </g>
</svg>