<?xml version="1.0" encoding="UTF-8"?>
<svg width="80px" height="80px" viewBox="0 0 80 80" version="1.1" xmlns="http://www.w3.org/2000/svg" xmlns:xlink="http://www.w3.org/1999/xlink">
    <!-- Generator: Sketch 50.2 (55047) - http://www.bohemiancoding.com/sketch -->
    <title>logo-applepay</title>
    <desc>Created with Sketch.</desc>
    <defs>
        <path d="M8.19976456,6.70510783 C8.2166862,8.47251351 9.80037114,9.06054078 9.81789713,9.06809508 C9.80460155,9.10979486 9.56497893,9.906321 8.98359946,10.7294383 C8.48108695,11.4407518 7.95923542,12.149648 7.13793115,12.1644545 C6.33052681,12.1789587 6.07096082,11.7009222 5.1478245,11.7009222 C4.22499035,11.7009222 3.93641582,12.149648 3.17222211,12.1789587 C2.37932204,12.2079673 1.77527965,11.4093259 1.26853673,10.7004298 C0.232992316,9.25030497 -0.558396893,6.6029736 0.504343026,4.81592672 C1.032238,3.92844672 1.9753177,3.36640628 2.99937957,3.35220418 C3.77807754,3.33769991 4.5132627,3.85955144 4.98948622,3.85955144 C5.4651054,3.85955144 6.35862884,3.23193961 7.29778029,3.32410216 C7.69090643,3.34011729 8.79443961,3.47790785 9.50303361,4.48263069 C9.44562088,4.51707833 8.18586463,5.22748537 8.19976456,6.70510783 Z M6.68225535,2.36470516 C6.26132936,2.85875684 5.57026135,3.24251564 4.89369761,3.1917507 C4.80153506,2.5212304 5.14298974,1.82200374 5.53339633,1.38506262 C5.96852442,0.891615279 6.70250089,0.523569438 7.30956501,0.5 C7.38692112,1.18381588 7.10318134,1.87095565 6.68225535,2.36470516 Z M12.4852551,1.53722315 C12.7973991,1.48464517 13.1412711,1.4375063 13.51808,1.39550435 C13.8942845,1.35320023 14.3082605,1.33235034 14.7606124,1.33235034 C15.4060524,1.33235034 15.9623516,1.40849776 16.4301143,1.56079259 C16.8981791,1.71308742 17.2825423,1.93125581 17.5835059,2.21499558 C17.8418632,2.46700726 18.0437143,2.76615782 18.188757,3.1130516 C18.3337996,3.45964321 18.4057167,3.85911497 18.4057167,4.31086253 C18.4057167,4.85719002 18.3069063,5.33522657 18.1077748,5.74497219 C17.9089454,6.1547178 17.6375947,6.49858986 17.2934205,6.77719271 C16.9486419,7.05549338 16.540105,7.26278357 16.0669032,7.39936544 C15.5933992,7.53594731 15.077289,7.60423825 14.5176659,7.60423825 C14.0124338,7.60423825 13.5875796,7.5676754 13.2437075,7.49424754 L13.2437075,12.0328752 L12.4852551,12.0328752 L12.4852551,1.53722315 Z M13.2437075,6.83249024 C13.4265218,6.88476604 13.6307902,6.92163106 13.8568151,6.94248095 C14.08284,6.96333083 14.3245778,6.97390686 14.5826329,6.97390686 C15.5504908,6.97390686 16.3007845,6.7533211 16.8332121,6.31214956 C17.3653375,5.87097803 17.6315513,5.22463152 17.6315513,4.37401654 C17.6315513,3.96427093 17.5620516,3.60649894 17.4221459,3.30190928 C17.2822401,2.99701745 17.0834107,2.74772531 16.8253556,2.55312636 C16.5676027,2.35882959 16.2608978,2.21197386 15.9058454,2.11195483 C15.5504908,2.01223798 15.157969,1.96237955 14.7276756,1.96237955 C14.3835014,1.96237955 14.0876747,1.97537296 13.8401956,2.00166195 C13.5930187,2.02795094 13.3938872,2.05695948 13.2434054,2.08838539 L13.2434054,6.83249024 L13.2437075,6.83249024 Z M24.4376798,10.2367632 C24.4376798,10.5413528 24.4428167,10.8462447 24.4536949,11.1508343 C24.4642709,11.455424 24.4963012,11.7491355 24.55039,12.0328752 L23.8405873,12.0328752 L23.7278771,10.9613723 L23.6952425,10.9613723 C23.5985473,11.1085302 23.4746567,11.2556881 23.3241749,11.4025438 C23.1736931,11.5493996 22.9990375,11.6835641 22.8002082,11.804433 C22.6010766,11.9256041 22.3750518,12.0226014 22.1224357,12.0960292 C21.8695175,12.1691549 21.5927277,12.2063221 21.2917641,12.2063221 C20.9152575,12.2063221 20.5840766,12.1455855 20.298826,12.0253209 C20.0138775,11.9041498 19.7799962,11.7467181 19.597182,11.5524213 C19.4143677,11.3578223 19.2774837,11.1348192 19.1859255,10.8825053 C19.0946695,10.6304937 19.0490414,10.378482 19.0490414,10.1261681 C19.0490414,9.23324902 19.4334046,8.54520274 20.202433,8.06142491 C20.9714615,7.57794926 22.1305944,7.34708963 23.6798317,7.36824169 L23.6798317,7.16336889 C23.6798317,6.96333083 23.6607948,6.73458642 23.6233255,6.47713563 C23.5852518,6.21968485 23.5021544,5.97552964 23.3728246,5.74467002 C23.2437971,5.51381039 23.0504068,5.31921144 22.7923517,5.16208186 C22.5342966,5.00434792 22.1843811,4.92548096 21.7435117,4.92548096 C21.4099135,4.92548096 21.079337,4.97533938 20.7514801,5.07505624 C20.423321,5.17477309 20.1250769,5.31407451 19.8561436,5.49265833 L19.6141036,4.94089174 C19.9579757,4.71003212 20.3133303,4.54474388 20.6786566,4.44502703 C21.0445872,4.34531017 21.4262308,4.29514958 21.8241917,4.29514958 C22.3620584,4.29514958 22.8005103,4.38459257 23.1392455,4.56317639 C23.4779806,4.74176021 23.7441944,4.97292201 23.9378868,5.25635961 C24.1312771,5.54009938 24.2633264,5.85768245 24.3331282,6.21001533 C24.40293,6.56204604 24.4382841,6.9113572 24.4382841,7.25794881 L24.4382841,10.2367632 L24.4376798,10.2367632 Z M23.6795295,7.98316229 C23.2703882,7.97228409 22.8428145,7.98799705 22.3962038,8.03030117 C21.9501975,8.07200094 21.5386389,8.16416349 21.1624344,8.30588229 C20.7856256,8.44760109 20.4740859,8.65519345 20.226909,8.92865936 C19.9794299,9.20182311 19.8555393,9.56412767 19.8555393,10.0158752 C19.8555393,10.5513245 20.0114602,10.9456594 20.3236041,11.197671 C20.6351438,11.4496827 20.9847571,11.5759907 21.372142,11.5759907 C21.6839837,11.5759907 21.9637953,11.534291 22.2109722,11.4496827 C22.4584513,11.3656788 22.6729936,11.2526664 22.85611,11.1109476 C23.0392264,10.969531 23.1921256,10.8090775 23.3160163,10.6304937 C23.4402091,10.4516077 23.5338825,10.2681891 23.5988495,10.0787271 C23.6526362,9.86841516 23.6798317,9.71612033 23.6798317,9.62123823 L23.6798317,7.98316229 L23.6795295,7.98316229 Z M25.9207413,4.46829429 L27.8884872,9.38524168 C27.9963627,9.65840543 28.098497,9.93942565 28.1954943,10.2286045 C28.2924916,10.5171791 28.3783085,10.7827885 28.4535494,11.0242241 L28.4858818,11.0242241 C28.5614249,10.7933645 28.6472418,10.5331942 28.743937,10.2440153 C28.8409343,9.95544078 28.9485076,9.65840543 29.066657,9.35321142 L30.9062818,4.46799212 L31.7124775,4.46799212 L29.4703591,10.0155731 C29.2443343,10.6036003 29.0319072,11.1372366 28.8330778,11.6152731 C28.6342484,12.0933097 28.4320952,12.5239052 28.2278267,12.9073618 C28.0232561,13.2908184 27.8168724,13.6295536 27.6062583,13.9241715 C27.3968529,14.217883 27.1623672,14.475636 26.9046143,14.6962217 C26.6039529,14.9585073 26.3265587,15.1506888 26.0736405,15.2715578 C25.8210245,15.3924267 25.651808,15.4685741 25.5656889,15.5 L25.3070294,14.8853816 C25.5007219,14.8010755 25.7158685,14.6910848 25.9527716,14.5545029 C26.1893725,14.4176189 26.4208365,14.2393372 26.646257,14.0187515 C26.8402516,13.8295916 27.0526787,13.5802995 27.2838405,13.2699686 C27.5150023,12.960242 27.7219903,12.5846418 27.9051067,12.1431681 C27.9694694,11.9751603 28.002104,11.8645653 28.002104,11.8119873 C28.002104,11.7388616 27.9697716,11.6282665 27.9051067,11.4811086 L25.1136392,4.46799212 L25.9207413,4.46799212 L25.9207413,4.46829429 Z" id="path-1"></path>
    </defs>
    <g id="logo-applepay" stroke="none" stroke-width="1" fill="none" fill-rule="evenodd">
        <g id="logos/3rdparty/logo_applepay" transform="translate(5.000000, 31.000000)">
            <g id="logo_applepay" transform="translate(19.000000, 2.000000)">
                <mask id="mask-2" fill="white">
                    <use xlink:href="#path-1"></use>
                </mask>
                <use fill="#858585" xlink:href="#path-1"></use>
                <g id="grayscale/$color-white" mask="url(#mask-2)" fill="#FFFFFF">
                    <g transform="translate(0.000000, -2.000000)" id="bg">
                        <rect x="0" y="0" width="32" height="18"></rect>
                    </g>
                </g>
            </g>
        </g>
    </g>
</svg>