<?xml version="1.0" encoding="UTF-8"?>
<svg width="80px" height="80px" viewBox="0 0 80 80" version="1.1" xmlns="http://www.w3.org/2000/svg" xmlns:xlink="http://www.w3.org/1999/xlink">
    <!-- Generator: Sketch 50.2 (55047) - http://www.bohemiancoding.com/sketch -->
    <title>logo-foodpanda-sygnet-solid</title>
    <desc>Created with Sketch.</desc>
    <defs>
        <path d="M19.0339929,20.8369251 C19.909935,20.8369251 20.5964854,21.5408754 20.5964854,22.3856174 C20.5964854,23.2303594 19.88626,23.9343097 19.0339929,23.9343097 C18.1817258,23.9343097 17.4715005,23.2303594 17.4715005,22.3856174 C17.4715005,21.5408754 18.1817258,20.8369251 19.0339929,20.8369251 Z M19.0339929,20.8369251 C19.909935,20.8369251 20.5964854,21.5408754 20.5964854,22.3856174 C20.5964854,23.2303594 19.88626,23.9343097 19.0339929,23.9343097 C18.1817258,23.9343097 17.4715005,23.2303594 17.4715005,22.3856174 C17.4715005,21.5408754 18.1817258,20.8369251 19.0339929,20.8369251 Z M19.0339929,20.8369251 C19.909935,20.8369251 20.5964854,21.5408754 20.5964854,22.3856174 C20.5964854,23.2303594 19.88626,23.9343097 19.0339929,23.9343097 C18.1817258,23.9343097 17.4715005,23.2303594 17.4715005,22.3856174 C17.4715005,21.5408754 18.1817258,20.8369251 19.0339929,20.8369251 Z M41.4533876,20.8369251 C42.3056547,20.8369251 43.01588,21.5408754 43.01588,22.3856174 C43.01588,23.2303594 42.3056547,23.9343097 41.4533876,23.9343097 C40.6011205,23.9343097 39.8908951,23.2303594 39.8908951,22.3856174 C39.8908951,21.5408754 40.6011205,20.8369251 41.4533876,20.8369251 Z M41.4533876,20.8369251 C42.3056547,20.8369251 43.01588,21.5408754 43.01588,22.3856174 C43.01588,23.2303594 42.3056547,23.9343097 41.4533876,23.9343097 C40.6011205,23.9343097 39.8908951,23.2303594 39.8908951,22.3856174 C39.8908951,21.5408754 40.6011205,20.8369251 41.4533876,20.8369251 Z M19.0339929,20.8369251 C19.909935,20.8369251 20.5964854,21.5408754 20.5964854,22.3856174 C20.5964854,23.2303594 19.88626,23.9343097 19.0339929,23.9343097 C18.1817258,23.9343097 17.4715005,23.2303594 17.4715005,22.3856174 C17.4715005,21.5408754 18.1817258,20.8369251 19.0339929,20.8369251 Z M59.9665303,28.6273116 C59.9901969,29.1904701 60.0138636,29.7536287 59.9901969,30.2933206 C59.9901969,35.9249228 58.4040295,41.20455 55.6578614,45.6863684 C55.444778,46.0148769 55.2316945,46.3433937 55.0186944,46.6719022 C54.7582776,47.0708023 54.4741942,47.4697108 54.1900273,47.8686193 C53.5981937,48.6429613 53.0063601,49.3938449 52.3434431,50.1212536 C52.0120262,50.4732287 51.6806094,50.8486705 51.3491926,51.177179 C50.828359,51.7168792 50.260192,52.2331044 49.6683084,52.749338 C49.3605416,53.0074547 49.0764581,53.2655632 48.7686913,53.5002133 C46.6380235,55.1896973 44.2706057,56.5975978 41.7374794,57.6535233 C41.7138044,57.6535233 41.7138044,57.6535233 41.7138044,57.6535233 C40.8141873,58.0289651 39.8908951,58.3809402 38.967603,58.6625153 C36.1740599,59.530724 33.1674417,60.0000242 30.0661318,60.0000242 C26.988497,60.0000242 23.9818871,59.530724 21.0226189,58.685982 C20.0756518,58.4044069 19.1760347,58.0524318 18.2764259,57.67699 C18.2764259,57.67699 18.2764259,57.67699 18.2527509,57.67699 C15.7196163,56.6210645 13.3522067,55.213164 11.2215307,53.5236799 C10.9137722,53.2655632 10.6296804,53.0309131 10.3219135,52.7728046 C9.73006324,52.2565711 9.18556297,51.7403376 8.64105436,51.2006457 C8.30961253,50.8486705 7.97817903,50.4966954 7.64673719,50.1447202 C6.98386186,49.4173033 6.39201156,48.666428 5.80016126,47.8920777 C5.51606945,47.4931775 5.25565265,47.094269 4.97156918,46.6953689 C4.73482739,46.3668521 4.54542729,46.0383436 4.33236052,45.7098351 C1.58616747,41.2280166 0,35.9483895 0,30.3167872 C0,29.7536287 0,29.1904701 0.0473500239,28.6273116 C0.0473500239,28.2284031 0.0710250358,27.8295029 0.118366726,27.4305944 C0.118366726,27.336736 0.118366726,27.2428777 0.142041738,27.149011 C0.213066774,26.7031774 0.260416798,26.2573439 0.331441834,25.7880437 C0.426133548,25.2014185 0.544508608,24.6147933 0.662875335,24.028168 C0.757575382,23.6292595 0.852267097,23.2538261 0.946967145,22.8783842 C1.06533387,22.3856174 1.20738394,21.9397839 1.34942568,21.4704837 L1.34942568,21.447017 C1.49146742,21.0011835 1.6571925,20.5318833 1.82290925,20.0860498 C1.988626,19.6402079 2.17801777,19.1943744 2.36740953,18.7485409 C2.72252637,17.8334072 3.14865992,16.9886652 3.62214349,16.1439232 C4.07195205,15.2991812 4.56910231,14.5013725 5.11361091,13.7035639 C5.06626089,13.6800972 5.01891087,13.6097055 4.97156918,13.5627721 C4.8295191,13.4454471 4.71115238,13.3515887 4.59277732,13.210797 L4.56910231,13.1873303 C4.52176062,13.1404053 4.47441059,13.0700053 4.42706057,13.0230803 C4.30869384,12.8822885 4.19031878,12.7414968 4.07195205,12.6007051 C4.00092702,12.5303134 3.97725201,12.4599217 3.92990198,12.4129883 C3.78786024,12.2487299 3.66948519,12.0610132 3.55111846,11.8732965 C3.52744345,11.8263631 3.50376843,11.8028964 3.48009342,11.7794298 C3.45641841,11.7559714 3.45641841,11.7325047 3.43275173,11.7090381 C3.43275173,11.7090381 3.43275173,11.6855714 3.40907672,11.6621047 C3.31437667,11.474388 3.19600995,11.2866712 3.12498491,11.0989461 C3.00660985,10.8642961 2.88824312,10.6061793 2.81721809,10.3246042 C2.76986806,10.2307458 2.74620139,10.1368791 2.72252637,10.019554 C2.69885136,9.92567067 2.67517635,9.8318373 2.65150134,9.71450392 C2.62782633,9.59717054 2.60415131,9.47983716 2.5804763,9.36250378 C2.53313461,9.17483704 2.5094596,8.98708696 2.48578459,8.77592021 C2.46210958,8.7524202 2.46210958,8.70550351 2.46210958,8.68208684 C2.46210958,8.58817013 2.46210958,8.51783677 2.43843456,8.44742008 C2.43843456,8.25967 2.41475955,8.02500324 2.41475955,7.81383649 C2.41475955,3.49625141 5.942203,0 10.3219135,0 C10.5586553,0 10.8190721,0.0235000095 11.0558139,0.0469166856 C11.150514,0.0704166951 11.2688807,0.0704166951 11.3635807,0.0938333712 C11.5766475,0.117333381 11.7660393,0.140750057 11.955431,0.187750076 C12.1921728,0.234666761 12.4525896,0.305083457 12.6656564,0.375416818 C12.7130064,0.398916828 12.7603481,0.398916828 12.8076981,0.422333504 C12.9970899,0.492750199 13.1864817,0.563166894 13.3758818,0.633583589 C13.3995568,0.633583589 13.3995568,0.657000265 13.4232234,0.657000265 C13.6599652,0.75091697 13.873032,0.868167017 14.0860988,0.985500398 C14.2754989,1.0794171 14.4412156,1.19675048 14.6306074,1.31400053 C14.7016324,1.33750054 14.7253074,1.36100055 14.7726491,1.40791724 C14.9383742,1.52525062 15.127766,1.642584 15.2698077,1.78333405 C15.3408327,1.80683406 15.4118494,1.85375075 15.4591995,1.92416744 C15.6012495,2.04141749 15.7432913,2.15875087 15.861658,2.27608425 C15.932683,2.34650095 15.9800331,2.41691764 16.0273831,2.46383433 L16.0510581,2.487251 C16.1930998,2.62808439 16.3114666,2.76883445 16.4298416,2.90966784 C16.5955584,3.09741792 16.7376001,3.28508466 16.8796502,3.49625141 C16.9270002,3.54325143 16.9506752,3.56666811 16.9743419,3.61358479 C17.4241505,3.40241804 17.873959,3.21466796 18.3237676,3.02700122 C18.7735761,2.81583447 19.2233847,2.6515844 19.6968683,2.487251 C20.0046351,2.37000096 20.2887186,2.25266758 20.5964854,2.18225088 C20.8569022,2.0649175 21.117319,1.99450081 21.3777358,1.92416744 C21.6381443,1.85375075 21.8985611,1.78333405 22.1826529,1.71291736 C22.3720446,1.66600067 22.5614364,1.61908399 22.7508281,1.5721673 C23.0112449,1.50175061 23.2716617,1.43133391 23.5557536,1.38441723 C23.9108621,1.29058385 24.2896456,1.22016716 24.6684374,1.14975046 C24.7868042,1.12633379 24.9288459,1.10283378 25.070896,1.0794171 C25.4260045,1.03250042 25.7811213,0.985500398 26.1362299,0.938583712 C26.3492966,0.915167036 26.5386884,0.891667027 26.7517552,0.868167017 C27.2252387,0.797833655 27.6987223,0.774333646 28.1722059,0.75091697 C28.2195559,0.72741696 28.2668976,0.72741696 28.3142476,0.72741696 C28.8824312,0.703916951 29.4506065,0.680500275 30.0187901,0.680500275 C30.5869654,0.680500275 31.1551407,0.680500275 31.7233243,0.72741696 C31.7469994,0.72741696 31.8180161,0.72741696 31.8653661,0.75091697 C32.3625247,0.774333646 32.8123332,0.821250332 33.2858168,0.868167017 C33.4988836,0.891667027 33.6882753,0.891667027 33.9013421,0.938583712 C34.2564506,0.962083722 34.6352425,1.03250042 34.966676,1.0794171 C35.1087261,1.10283378 35.2507678,1.12633379 35.3691345,1.14975046 C35.7479264,1.22016716 36.1030349,1.29058385 36.4818184,1.38441723 C36.7422352,1.45483392 37.002652,1.50175061 37.2630688,1.5721673 C37.4524606,1.59558398 37.6418523,1.66600067 37.8312441,1.71291736 C38.1153359,1.78333405 38.3757527,1.85375075 38.6361695,1.92416744 C38.896578,1.99450081 39.1569948,2.0649175 39.4174116,2.18225088 C39.7251784,2.27608425 40.0329369,2.37000096 40.3170287,2.487251 C40.7905123,2.6515844 41.2403208,2.83925115 41.6901294,3.02700122 C42.1399379,3.19125129 42.5897465,3.40241804 43.0395551,3.61358479 C43.0632301,3.56666811 43.0869051,3.54325143 43.1342468,3.49625141 C43.2762968,3.30858467 43.4183386,3.09741792 43.5840553,2.90966784 C43.7024304,2.76883445 43.8207971,2.62808439 43.9628472,2.487251 L43.9865139,2.46383433 C44.0338639,2.39341763 44.0812139,2.32300094 44.1522389,2.27608425 C44.2706057,2.15875087 44.4126557,2.04141749 44.5546975,1.92416744 C44.6257225,1.85375075 44.6967392,1.80683406 44.7440892,1.78333405 C44.909806,1.642584 45.0755311,1.52525062 45.2412478,1.40791724 C45.2885979,1.36100055 45.3359395,1.33750054 45.3832896,1.31400053 C45.5490063,1.19675048 45.7384064,1.0794171 45.9277982,0.985500398 C46.140865,0.868167017 46.3539317,0.75091697 46.5906735,0.657000265 C46.6143485,0.657000265 46.6143485,0.633583589 46.6380235,0.633583589 C46.8274153,0.563166894 46.993132,0.492750199 47.2061988,0.422333504 C47.2298738,0.398916828 47.3008989,0.398916828 47.3482406,0.375416818 C47.5849823,0.305083457 47.8217241,0.234666761 48.0584659,0.187750076 C48.2478577,0.140750057 48.4372494,0.117333381 48.6503162,0.0938333712 C48.7450163,0.0704166951 48.863383,0.0704166951 48.958083,0.0469166856 C49.1948248,0.0235000095 49.4552416,0 49.6919834,0 C54.071694,0 57.5991124,3.49625141 57.5991124,7.81383649 C57.5991124,8.02500324 57.5991124,8.23625333 57.5754457,8.44742008 C57.5754457,8.54125345 57.5754457,8.61167014 57.551779,8.68208684 C57.551779,8.70550351 57.551779,8.7524202 57.5281124,8.77592021 C57.5044457,8.96367029 57.480779,9.17483704 57.4334457,9.36250378 C57.4334457,9.47983716 57.3861123,9.59717054 57.3623623,9.71450392 C57.3386956,9.8318373 57.3150289,9.92567067 57.2913622,10.019554 C57.2676956,10.1134207 57.2440289,10.2307458 57.1966955,10.3246042 C57.1256955,10.6061793 57.0072788,10.8642961 56.8889454,11.0989461 C56.817862,11.2866712 56.6995286,11.474388 56.6048619,11.6621047 C56.6048619,11.6621047 56.6048619,11.6855714 56.5811119,11.7090381 C56.5574452,11.7325047 56.5574452,11.7559714 56.5337785,11.7794298 C56.5101119,11.8028964 56.4864452,11.8263631 56.4627785,11.8732965 C56.3444451,12.0610132 56.2260284,12.2252716 56.0840283,12.4129883 C56.0366116,12.48338 55.9892783,12.5537801 55.9419449,12.6007051 C55.8236115,12.7414968 55.7051948,12.8822885 55.5868614,13.0230803 C55.5631947,13.0700053 55.4921113,13.1404053 55.444778,13.1873303 L55.4211113,13.210797 C55.2791112,13.3515887 55.1843612,13.4454471 55.0423611,13.5627721 C55.0186944,13.6097055 54.9476111,13.6566305 54.9002777,13.7035639 C55.4211113,14.4779058 55.9419449,15.2991812 56.3917785,16.1439232 C56.8415287,16.9886652 57.2676956,17.8568739 57.6464458,18.7485409 C57.8595292,19.1943744 58.0252793,19.6402079 58.1910294,20.0860498 C58.3566961,20.5318833 58.5224462,20.9777168 58.6644463,21.447017 L58.6644463,21.4704837 C58.8065297,21.9397839 58.9485297,22.409084 59.0669465,22.8783842 C59.1616132,23.2772844 59.2800299,23.6527262 59.35103,24.028168 C59.4693633,24.6147933 59.5877801,25.2014185 59.6824468,25.7880437 C59.7534468,26.2338773 59.8245302,26.6797108 59.8718635,27.149011 C59.8718635,27.2428777 59.8718635,27.336736 59.8955302,27.4305944 C59.9191969,27.8295029 59.9428636,28.2284031 59.9665303,28.6273116 Z M29.9951151,30.8799458 C28.6456895,30.8799458 24.8104792,31.1380626 24.7868042,32.3582464 C24.7868042,34.5639556 29.5453066,36.1595729 29.9951151,36.0422479 C30.4449237,36.1595729 35.1797428,34.5639556 35.1797428,32.3582464 C35.1797428,31.1145959 31.3445408,30.8799458 29.9951151,30.8799458 Z M12.5946314,17.4579654 C9.99048004,19.1709077 6.84182012,22.8549176 7.3389787,27.8998946 C7.83613729,32.9683383 11.860731,36.1361146 13.920382,36.1126479 C15.9800331,36.0891812 17.0216919,35.0567225 17.6608922,32.4990381 C18.3000926,29.9413538 20.5017853,27.0082276 23.2716617,23.8639096 C26.0652048,20.6961334 23.2243117,17.6926155 23.2243117,17.6926155 C20.9515939,14.7360226 15.1987827,15.745023 12.5946314,17.4579654 Z M37.3577605,37.8725236 L22.6324614,37.8725236 C22.6324614,41.4157417 25.9468381,44.2784679 29.9951151,44.2784679 C34.0670589,44.2784679 37.3577605,41.4157417 37.3577605,37.8725236 Z M46.0935149,36.1126479 C48.153166,36.1361146 52.1777763,32.9683383 52.6749432,27.8998946 C53.1721102,22.8549176 49.9997419,19.1474494 47.4192656,17.4579654 C44.8151143,15.745023 39.038628,14.7360226 36.7895852,17.6926155 C36.7895852,17.6926155 33.9486921,20.7196 36.7422352,23.8639096 C39.5357866,27.0082276 41.7138044,29.9413538 42.3530047,32.4990381 C42.992205,35.0567225 44.0338639,36.0891812 46.0935149,36.1126479 Z M49.7156584,2.29958426 C47.8217241,2.29958426 46.140865,3.23816797 45.1228728,4.64608521 C45.2885979,4.73991858 45.4543146,4.83375195 45.6200314,4.95108533 C45.9988149,5.18575209 46.3776067,5.42041886 46.7563903,5.67850229 C46.8037403,5.67850229 46.8274153,5.7020023 46.874757,5.74891899 C47.2535488,5.98358575 47.6086574,6.24166919 47.9637742,6.52325263 C48.3425577,6.82833609 48.7213413,7.10991954 49.1001248,7.41491966 C49.4789166,7.72000312 49.8340251,8.02500324 50.1891087,8.35350337 C50.5442755,8.68208684 50.899359,9.01058697 51.2307759,9.3390871 C51.5859427,9.66758724 51.9173595,10.019554 52.2251097,10.3715292 C52.5565265,10.7235043 52.8642767,11.0754795 53.1721102,11.4509213 C53.2904436,11.591713 53.408777,11.7325047 53.5271937,11.8732965 C54.6161942,10.8642961 55.3027779,9.43292047 55.3027779,7.8373365 C55.3027779,4.76341859 52.8169433,2.29958426 49.7156584,2.29958426 Z M4.85319412,7.8373365 C4.85319412,9.43292047 5.53974446,10.8642961 6.60507833,11.8967548 C6.72345339,11.7559714 6.84182012,11.6151797 6.96019518,11.474388 C7.26795367,11.0989461 7.57572049,10.746971 7.90715399,10.3949959 C8.23859582,10.0430207 8.57002932,9.69108725 8.90147116,9.36250378 C9.23290466,9.01058697 9.58802151,8.68208684 9.94313002,8.37700338 C10.2982469,8.04850325 10.6533554,7.74341979 11.0321389,7.43841967 C11.4109308,7.10991954 11.7897143,6.82833609 12.1684978,6.54675264 C12.5236063,6.2651692 12.8787232,6.00700243 13.2575067,5.772419 C13.3048567,5.74891899 13.3285317,5.72550231 13.3758818,5.7020023 C13.7546653,5.44391886 14.1334488,5.2092521 14.5122407,4.97458534 C14.6779574,4.85725196 14.8436742,4.76341859 15.0093909,4.66950189 C13.9914071,3.23816797 12.3342146,2.29958426 10.4402886,2.29958426 C7.3389787,2.29958426 4.85319412,4.78683527 4.85319412,7.8373365 Z M41.4533876,20.8369251 C42.3056547,20.8369251 43.01588,21.5408754 43.01588,22.3856174 C43.01588,23.2303594 42.3056547,23.9343097 41.4533876,23.9343097 C40.6011205,23.9343097 39.8908951,23.2303594 39.8908951,22.3856174 C39.8908951,21.5408754 40.6011205,20.8369251 41.4533876,20.8369251 Z M19.0339929,23.9343097 C18.1817258,23.9343097 17.4715005,23.2303594 17.4715005,22.3856174 C17.4715005,21.5408754 18.1817258,20.8369251 19.0339929,20.8369251 C19.88626,20.8369251 20.5964854,21.5408754 20.5964854,22.3856174 C20.5964854,23.2303594 19.88626,23.9343097 19.0339929,23.9343097 Z M41.4533876,20.8369251 C42.3056547,20.8369251 43.01588,21.5408754 43.01588,22.3856174 C43.01588,23.2303594 42.3056547,23.9343097 41.4533876,23.9343097 C40.6011205,23.9343097 39.8908951,23.2303594 39.8908951,22.3856174 C39.8908951,21.5408754 40.6011205,20.8369251 41.4533876,20.8369251 Z M19.0339929,20.8369251 C19.909935,20.8369251 20.5964854,21.5408754 20.5964854,22.3856174 C20.5964854,23.2303594 19.88626,23.9343097 19.0339929,23.9343097 C18.1817258,23.9343097 17.4715005,23.2303594 17.4715005,22.3856174 C17.4715005,21.5408754 18.1817258,20.8369251 19.0339929,20.8369251 Z M41.4533876,20.8369251 C42.3056547,20.8369251 43.01588,21.5408754 43.01588,22.3856174 C43.01588,23.2303594 42.3056547,23.9343097 41.4533876,23.9343097 C40.6011205,23.9343097 39.8908951,23.2303594 39.8908951,22.3856174 C39.8908951,21.5408754 40.6011205,20.8369251 41.4533876,20.8369251 Z M19.0339929,20.8369251 C19.909935,20.8369251 20.5964854,21.5408754 20.5964854,22.3856174 C20.5964854,23.2303594 19.88626,23.9343097 19.0339929,23.9343097 C18.1817258,23.9343097 17.4715005,23.2303594 17.4715005,22.3856174 C17.4715005,21.5408754 18.1817258,20.8369251 19.0339929,20.8369251 Z" id="path-1"></path>
    </defs>
    <g id="logo-foodpanda-sygnet-solid" stroke="none" stroke-width="1" fill="none" fill-rule="evenodd">
        <g id="logos/foodpanda/logo-foodpanda-sygnet-solid" transform="translate(10.000000, 10.000000)">
            <mask id="mask-2" fill="white">
                <use xlink:href="#path-1"></use>
            </mask>
            <use id="logo-foodpanda-sygnet-solid" fill-opacity="0" fill="#858585" fill-rule="evenodd" xlink:href="#path-1"></use>
            <g id="overlay/$color-overlay-lvl2" mask="url(#mask-2)" fill="#000000" fill-opacity="0.04" fill-rule="evenodd">
                <g transform="translate(-10.000000, -10.000000)" id="bg">
                    <rect x="0" y="0" width="80" height="80"></rect>
                </g>
            </g>
        </g>
    </g>
</svg>