<?xml version="1.0" encoding="UTF-8"?>
<svg width="80px" height="80px" viewBox="0 0 80 80" version="1.1" xmlns="http://www.w3.org/2000/svg" xmlns:xlink="http://www.w3.org/1999/xlink">
    <!-- Generator: Sketch 50.2 (55047) - http://www.bohemiancoding.com/sketch -->
    <title>logo-foodora-sygnet</title>
    <desc>Created with Sketch.</desc>
    <defs>
        <path d="M35.8644883,49.2416105 C33.3842326,50.0973055 21.3023808,48.8748841 18.6530167,48.7322683 C14.9514229,48.5489051 11.8886828,49.6083369 9.12657984,51.1363636 C6.19536851,47.2246153 4.84250174,42.783151 4.09090909,37.5674866 C8.28103811,37.5674866 11.4001476,37.6286077 12.6966449,37.608234 C22.4109799,37.4044971 41.933599,37.4859918 42.8730898,37.8730919 C43.5495232,38.1583236 43.7374213,39.5029871 42.5536629,40.2771873 C41.3699045,41.0513875 34.5304114,41.4792349 33.3466529,41.6218508 C32.1816843,41.7440929 31.6931491,42.4164246 31.6931491,42.9868879 C31.6931491,43.5573512 31.9186269,44.1278145 32.7077992,44.2704304 C33.4969715,44.4130462 39.885509,43.2517459 39.885509,43.2517459 C39.885509,43.2517459 53.4329665,38.6065448 55.0113111,38.6269184 C56.1387,38.6472921 56.7775538,39.0955133 57.1345603,39.4826134 C57.3788279,39.7474713 57.2848788,40.1956925 56.9654519,40.3179346 C53.7523934,41.6422244 38.1004765,48.4674103 35.8644883,49.2416105 Z M58.75,32.5 C59.35,32.5 60,32.8574173 60,33.75 C60,34.6425827 59.35,35 58.75,35 L1.25,35 C0.625,35 0,34.5334971 0,33.75 C8.79548255e-17,32.9665029 0.625,32.5 1.25,32.5 L3.40909091,32.5 C3.9132861,18.1287277 15.0589764,6.98841526 28.763567,6.31638711 L28.763567,3.75 C28.763567,3.125 29.2140209,2.5 30.01875,2.5 C30.8234791,2.5 31.25,3.125 31.25,3.75 L31.3636364,6.32832524 C45.1448864,6.91729836 56.0659091,18.0505263 56.5909091,32.5 L58.75,32.5 Z M18.7097538,12.1489971 C18.8242164,11.9925571 18.6715996,11.777452 18.53806,11.875227 C10.9263012,17.4288493 8.36997112,25.0357475 7.54965626,28.516539 C7.32073118,29.4747344 7.91212097,30.5307048 8.73243583,30.5502599 L11.2887659,30.5502599 C11.956464,30.5893699 12.5287767,29.9440546 12.5669309,29.1227443 C12.8912414,20.5772057 16.9928157,14.3782681 18.7097538,12.1489971 Z" id="path-1"></path>
    </defs>
    <g id="logo-foodora-sygnet" stroke="none" stroke-width="1" fill="none" fill-rule="evenodd">
        <g id="logos/foodora/logo-foodora-sygnet" transform="translate(10.000000, 10.000000)">
            <mask id="mask-2" fill="white">
                <use xlink:href="#path-1"></use>
            </mask>
            <use id="logo-foodora-sygnet" fill="#858585" fill-rule="nonzero" opacity="0" xlink:href="#path-1"></use>
            <g id="overlay/$color-overlay-lvl2" mask="url(#mask-2)" fill="#000000" fill-opacity="0.04" fill-rule="evenodd">
                <g transform="translate(-10.000000, -10.000000)" id="bg">
                    <rect x="0" y="0" width="80" height="80"></rect>
                </g>
            </g>
        </g>
    </g>
</svg>