<?xml version="1.0" encoding="UTF-8"?>
<svg width="80px" height="80px" viewBox="0 0 80 80" version="1.1" xmlns="http://www.w3.org/2000/svg" xmlns:xlink="http://www.w3.org/1999/xlink">
    <!-- Generator: Sketch 50.2 (55047) - http://www.bohemiancoding.com/sketch -->
    <title>logo-foodpanda-sygnet-outlined</title>
    <desc>Created with Sketch.</desc>
    <defs>
        <path d="M54.8836308,13.779331 C58.122764,18.5122317 60.0299172,24.2336495 59.999645,30.3145282 C59.999645,46.6999501 46.5284835,60 29.9998225,60 C13.4711615,60 0,46.6999501 0,30.3145282 C0,24.1737394 1.90715319,18.4523215 5.1462864,13.7194209 C3.48131139,12.3115327 2.42178183,10.1847229 2.42178183,7.81827259 C2.42178183,3.50474289 5.99391004,0 10.3531173,0 C13.1684387,0 15.5902206,1.43784324 17.0130174,3.59460809 C20.9484129,1.70743884 25.3681647,0.659011483 30.0300948,0.659011483 C34.6920248,0.659011483 39.1117766,1.73739391 43.0471721,3.62456316 C44.4396967,1.4677983 46.8917508,0.0299550674 49.7070722,0.0299550674 C54.0965517,0.0299550674 57.6384077,3.53469795 57.6384077,7.84822766 C57.6384077,10.2446331 56.5486058,12.3414878 54.8836308,13.779331 Z M30.0300948,57.7533699 C45.2873203,57.7533699 57.6989522,45.4717923 57.6686799,30.3744383 C57.6686799,24.6829755 55.9128881,19.4108837 52.9159331,15.0374438 C50.1914285,11.0833749 46.467939,7.84822766 42.0784594,5.75137294 C38.4155144,3.98402396 34.3287575,2.99550674 29.9998225,2.99550674 C25.6708874,2.99550674 21.5841306,3.98402396 17.9514579,5.75137294 C13.5922505,7.84822766 9.8384887,11.0833749 7.11398414,15.0374438 C4.11702912,19.4108837 2.36123729,24.6829755 2.36123729,30.3744383 C2.36123729,45.4717923 14.7728692,57.7533699 30.0300948,57.7533699 Z M29.9695502,36.0958562 C29.5154661,36.2156765 24.7627193,34.6280579 24.7627193,32.4113829 C24.7627193,31.1832252 28.6375702,30.9435846 29.9695502,30.9435846 C31.3318025,30.9435846 35.1763812,31.1832252 35.1763812,32.4113829 C35.1763812,34.6280579 30.4236343,36.2156765 29.9695502,36.0958562 Z M47.4063794,17.5237144 C50.0097949,19.2011982 53.1883835,22.9156266 52.6737549,27.978033 C52.1591263,33.0404393 48.1631862,36.1857214 46.0743994,36.1857214 C43.9856126,36.1557664 42.9563553,35.107339 42.3206376,32.5611583 C41.6849198,30.0149775 39.5355885,27.0793809 36.7202671,23.9340989 C33.935218,20.7888168 36.7808116,17.763355 36.7808116,17.763355 C39.0209598,14.7978033 44.8029639,15.8162756 47.4063794,17.5237144 Z M41.4427416,23.994009 C42.2903653,23.994009 42.9866276,23.2750874 43.0168998,22.4363455 C43.0168998,21.5676485 42.3206376,20.878682 41.4427416,20.878682 C40.595118,20.878682 39.8685835,21.5676485 39.8685835,22.4363455 C39.8685835,23.3050424 40.5648457,23.994009 41.4427416,23.994009 Z M23.1582888,17.7333999 C23.1582888,17.7333999 26.0038825,20.7588617 23.2188333,23.9041438 C20.4337842,27.0494259 18.2541806,29.9850225 17.6184628,32.5312032 C16.9827451,35.107339 15.9534878,36.1557664 13.864701,36.1557664 C11.7759142,36.1557664 7.74970187,33.0104843 7.2653455,27.9480779 C6.75071686,22.8856715 9.92930552,19.2011982 12.532721,17.4937594 C15.1058642,15.7863205 20.8878683,14.7978033 23.1582888,17.7333999 Z M18.9807151,23.994009 C19.8283388,23.994009 20.5246011,23.2750874 20.5548733,22.4363455 C20.5548733,21.5676485 19.858611,20.878682 18.9807151,20.878682 C18.1028192,20.878682 17.4065569,21.5676485 17.4065569,22.4363455 C17.4065569,23.3050424 18.1028192,23.994009 18.9807151,23.994009 Z M29.9695502,44.3334998 C34.0563071,44.3334998 37.3559848,41.4578133 37.3559848,37.9231153 L22.6133879,37.9231153 C22.6133879,41.4578133 25.8827934,44.3334998 29.9695502,44.3334998 Z" id="path-1"></path>
    </defs>
    <g id="logo-foodpanda-sygnet-outlined" stroke="none" stroke-width="1" fill="none" fill-rule="evenodd">
        <g id="logos/foodpanda/logo-foodpanda-sygnet-outlined" transform="translate(10.000000, 10.000000)">
            <mask id="mask-2" fill="white">
                <use xlink:href="#path-1"></use>
            </mask>
            <use id="logo-foodpanda-sygnet-outlined" fill-opacity="0" fill="#D60365" fill-rule="nonzero" xlink:href="#path-1"></use>
            <g id="overlay/$color-overlay-lvl2" mask="url(#mask-2)" fill="#000000" fill-opacity="0.04" fill-rule="evenodd">
                <g transform="translate(-10.000000, -10.000000)" id="bg">
                    <rect x="0" y="0" width="80" height="80"></rect>
                </g>
            </g>
        </g>
    </g>
</svg>