<?xml version="1.0" encoding="UTF-8"?>
<svg width="80px" height="80px" viewBox="0 0 80 80" version="1.1" xmlns="http://www.w3.org/2000/svg" xmlns:xlink="http://www.w3.org/1999/xlink">
    <!-- Generator: Sketch 50.2 (55047) - http://www.bohemiancoding.com/sketch -->
    <title>logo_onlinepizza</title>
    <desc>Created with Sketch.</desc>
    <defs></defs>
    <g id="logo_onlinepizza" stroke="none" stroke-width="1" fill="none" fill-rule="evenodd">
        <g id="logos/onlinepizza/logo_onlinepizza" transform="translate(5.000000, 32.000000)">
            <g id="onlinepizz_logo" transform="translate(-0.421687, 2.550000)">
                <path d="M7.12650602,7.14 L7.92771084,7.99 C6.19879518,9.7325 3.41566265,9.7325 1.68674699,7.99 C-0.0421686747,6.2475 -0.0421686747,3.3575 1.68674699,1.615 L2.48795181,2.465 C1.22289157,3.74 1.22289157,5.865 2.48795181,7.14 C3.75301205,8.415 5.86144578,8.4575 7.12650602,7.14 Z" id="onlinepizza" fill="#FF3633" fill-rule="nonzero"></path>
                <path d="M4.68072289,0.68 L4.68072289,5.355 L9.27710843,5.355 C9.27710843,2.7625 7.21084337,0.68 4.68072289,0.68" id="path-1-op_1_" fill="#272CC0" fill-rule="nonzero"></path>
                <g id="Group" transform="translate(11.385542, 0.000000)" fill="#FF3633" fill-rule="nonzero">
                    <path d="M7.37951807,4.76 C7.37951807,2.975 5.98795181,1.53 4.25903614,1.53 C2.53012048,1.53 1.13855422,2.975 1.13855422,4.76 C1.13855422,6.545 2.53012048,7.99 4.25903614,7.99 C6.03012048,7.99 7.37951807,6.545 7.37951807,4.76 Z M8.51807229,4.76 C8.51807229,7.14 6.62048193,9.01 4.30120482,9.01 C1.93975904,9.01 0.0843373494,7.0975 0.0843373494,4.76 C0.0843373494,2.4225 1.98192771,0.51 4.30120482,0.51 C6.62048193,0.51 8.51807229,2.4225 8.51807229,4.76 Z" id="Fill-1"></path>
                    <path d="M14.7590361,6.1625 L14.7590361,8.9675 L13.6204819,8.9675 L13.6204819,6.1625 C13.6204819,5.1425 13.3253012,4.59 12.439759,4.59 C11.7650602,4.59 11.1746988,5.2275 11.1746988,6.205 L11.1746988,8.9675 L10.0361446,8.9675 L10.0361446,3.6125 L11.1746988,3.6125 L11.1746988,4.2925 C11.3433735,3.9525 11.8493976,3.5275 12.6506024,3.5275 C14,3.5275 14.7590361,4.4625 14.7590361,6.1625" id="Fill-3"></path>
                    <polygon id="Fill-5" points="16.3614458 8.9675 17.4578313 8.9675 17.4578313 0.2125 16.3614458 0.2125"></polygon>
                    <path d="M19.2710843,8.9675 L20.4096386,8.9675 L20.4096386,3.6125 L19.2710843,3.6125 L19.2710843,8.9675 Z M18.9759036,1.8275 C18.9759036,1.36 19.3554217,0.9775 19.8192771,0.9775 C20.2831325,0.9775 20.6626506,1.36 20.6626506,1.8275 C20.6626506,2.295 20.2831325,2.6775 19.8192771,2.6775 C19.3554217,2.6775 18.9759036,2.295 18.9759036,1.8275 Z" id="Fill-7"></path>
                    <path d="M26.9036145,6.1625 L26.9036145,8.9675 L25.7650602,8.9675 L25.7650602,6.1625 C25.7650602,5.1425 25.4698795,4.59 24.5843373,4.59 C23.9096386,4.59 23.3192771,5.2275 23.3192771,6.205 L23.3192771,8.9675 L22.1807229,8.9675 L22.1807229,3.6125 L23.3192771,3.6125 L23.3192771,4.2925 C23.4879518,3.9525 23.9939759,3.5275 24.7951807,3.5275 C26.1445783,3.5275 26.9036145,4.4625 26.9036145,6.1625" id="Fill-8"></path>
                    <path d="M29.3493976,6.29 C29.3493976,6.4175 29.3493976,6.5025 29.3915663,6.5875 L32.0060241,5.0575 C31.8373494,4.8025 31.5421687,4.5475 30.9518072,4.5475 C30.0662651,4.59 29.3493976,5.3975 29.3493976,6.29 M32.2590361,7.395 L32.8915663,8.245 C32.3855422,8.755 31.7108434,9.095 30.9518072,9.095 C29.4337349,9.095 28.2108434,7.8625 28.2108434,6.3325 C28.2108434,4.8025 29.4337349,3.57 30.9518072,3.57 C32.1325301,3.57 33.0180723,4.2925 33.313253,5.44 L29.813253,7.48 C30.0240964,7.7775 30.4879518,8.0325 30.9518072,8.0325 C31.5,7.99 31.9216867,7.6925 32.2590361,7.395" id="Fill-9"></path>
                    <path d="M35.5481928,6.29 C35.5481928,7.225 36.2228916,7.99 37.1506024,7.99 C38.0361446,7.99 38.753012,7.225 38.753012,6.29 C38.753012,5.355 38.0783133,4.59 37.1506024,4.59 C36.2650602,4.59 35.5481928,5.355 35.5481928,6.29 Z M34.4096386,11.815 L34.4096386,3.6125 L35.5481928,3.6125 L35.5481928,4.2925 C35.9277108,3.825 36.5180723,3.5275 37.2349398,3.5275 C38.7108434,3.5275 39.8915663,4.76 39.8915663,6.29 C39.8915663,7.82 38.7108434,9.0525 37.2349398,9.0525 C36.5180723,9.0525 35.9277108,8.755 35.5481928,8.2875 L35.5481928,11.815 L34.4096386,11.815 Z" id="Fill-10"></path>
                    <path d="M41.2831325,8.9675 L42.4216867,8.9675 L42.4216867,3.6125 L41.2831325,3.6125 L41.2831325,8.9675 Z M41.0301205,1.8275 C41.0301205,1.36 41.4096386,0.9775 41.873494,0.9775 C42.3373494,0.9775 42.7168675,1.36 42.7168675,1.8275 C42.7168675,2.295 42.3373494,2.6775 41.873494,2.6775 C41.4096386,2.6775 41.0301205,2.295 41.0301205,1.8275 Z" id="Fill-11"></path>
                    <polygon id="Fill-12" points="43.8554217 8.9675 46.3012048 4.675 44.0240964 4.675 44.0240964 3.6125 48.1566265 3.6125 45.7108434 7.905 47.9879518 7.905 47.9879518 8.9675"></polygon>
                    <polygon id="Fill-13" points="49.2951807 8.9675 51.7409639 4.675 49.5060241 4.675 49.5060241 3.6125 53.6385542 3.6125 51.1506024 7.905 53.4277108 7.905 53.4277108 8.9675"></polygon>
                    <path d="M55.3253012,7.2675 C55.3253012,7.6925 55.7048193,7.99 56.253012,7.99 C56.9698795,7.99 57.686747,7.4375 57.7710843,6.7575 C56.9277108,6.3325 55.3253012,6.375 55.3253012,7.2675 Z M57.7710843,8.9675 L57.7710843,8.2875 C57.4337349,8.67 56.9277108,9.0525 56.126506,9.0525 C54.9879518,9.0525 54.186747,8.33 54.186747,7.2675 C54.186747,5.695 56.0421687,5.1 57.7289157,5.865 C57.686747,5.2275 57.4337349,4.59 56.5481928,4.59 C56.0843373,4.59 55.6626506,4.7175 55.3253012,4.93 L54.8614458,4.1225 C55.1987952,3.8675 55.8313253,3.57 56.5903614,3.57 C57.9819277,3.57 58.9096386,4.335 58.9096386,6.5025 L58.9096386,9.01 L57.7710843,9.01 L57.7710843,8.9675 Z" id="Fill-14"></path>
                </g>
            </g>
        </g>
    </g>
</svg>