<?xml version="1.0" encoding="UTF-8"?>
<svg width="80px" height="80px" viewBox="0 0 80 80" version="1.1" xmlns="http://www.w3.org/2000/svg" xmlns:xlink="http://www.w3.org/1999/xlink">
    <!-- Generator: Sketch 50.2 (55047) - http://www.bohemiancoding.com/sketch -->
    <title>logo-onlinepizza-vertical</title>
    <desc>Created with Sketch.</desc>
    <defs>
        <path d="M8.92138945,5.14705882 C8.92138945,2.98811626 7.24864993,1.25787129 5.1472268,1.25787129 C3.04546772,1.25787129 1.37239224,2.98811626 1.37239224,5.14705882 C1.37239224,7.30600138 3.04546772,9.03624635 5.1472268,9.03624635 C7.24864993,9.03624635 8.92138945,7.30600138 8.92138945,5.14705882 M10.2941176,5.14705882 C10.2941176,7.99238788 7.99212704,10.2941176 5.1472268,10.2941176 C2.3019906,10.2941176 0,7.99238788 0,5.14705882 C0,2.30172977 2.3019906,0 5.1472268,0 C7.99212704,0 10.2941176,2.30172977 10.2941176,5.14705882 Z M17.1568627,7.09750368 L17.1568627,10.2941176 L15.8391383,10.2941176 L15.8391383,7.09750368 C15.8391383,5.94623884 15.4821336,5.30933507 14.4665893,5.30933507 C13.6706656,5.30933507 12.9843911,6.04109008 12.9843911,7.15161344 L12.9843911,10.2941176 L11.6666667,10.2941176 L11.6666667,4.22586659 L12.9843911,4.22586659 L12.9843911,4.98435819 C13.1901445,4.59158495 13.7941821,4.11764706 14.7136223,4.11764706 C16.2780573,4.11764706 17.1568627,5.17406066 17.1568627,7.09750368 Z M19.2156863,10.2941176 L19.2156863,0 L20.5882353,0 L20.5882353,10.2941176 L19.2156863,10.2941176 Z M22.3037536,10.2941176 L22.3037536,3.88900088 L23.6763026,3.88900088 L23.6763026,10.2941176 L22.3037536,10.2941176 Z M21.9607843,1.71566228 C21.9607843,1.14385484 22.4183007,0.68627451 22.9900281,0.68627451 C23.5617556,0.68627451 24.0196078,1.14385484 24.0196078,1.71566228 C24.0196078,2.28746971 23.5617556,2.74505004 22.9900281,2.74505004 C22.4183007,2.74505004 21.9607843,2.28746971 21.9607843,1.71566228 Z M31.5686275,7.09750368 L31.5686275,10.2941176 L30.2508256,10.2941176 L30.2508256,7.09750368 C30.2508256,5.94623884 29.8941225,5.30933507 28.8781959,5.30933507 C28.0822255,5.30933507 27.3959107,6.04109008 27.3959107,7.15161344 L27.3959107,10.2941176 L26.0784314,10.2941176 L26.0784314,4.22586659 L27.3959107,4.22586659 L27.3959107,4.98435819 C27.6016762,4.59158495 28.2057493,4.11764706 29.125566,4.11764706 C30.6897704,4.11764706 31.5686275,5.17406066 31.5686275,7.09750368 Z M37.8450623,8.43047885 L38.6315251,9.36229825 C38.0308436,9.934715 37.187269,10.2941176 36.2580268,10.2941176 C34.4280984,10.2941176 32.9411765,8.90968238 32.9411765,7.20588235 C32.9411765,5.50208233 34.4280984,4.11764706 36.2580268,4.11764706 C37.687837,4.11764706 38.7598586,4.92966558 39.1176471,6.22088763 L34.8712185,8.51024184 C35.1430034,8.85650705 35.7147931,9.12269648 36.2580268,9.12269648 C36.9299301,9.12269648 37.444608,8.80333172 37.8450623,8.43047885 Z M34.3135389,7.20588235 C34.3135389,7.32568324 34.3279848,7.43234669 34.3420947,7.55183477 L37.5161657,5.84803475 C37.3018285,5.58184532 36.944376,5.28906823 36.2580268,5.28906823 C35.2001152,5.28906823 34.3135389,6.22088763 34.3135389,7.20588235 Z M40.4901961,13.7254902 L40.4901961,4.2279329 L41.768216,4.2279329 L41.768216,5.00123128 C42.2204961,4.46277687 42.8860924,4.11764706 43.684933,4.11764706 C45.3354741,4.11764706 46.6666667,5.55330924 46.6666667,7.32015331 C46.6666667,9.08699739 45.3354741,10.5226596 43.684933,10.5226596 C42.8860924,10.5226596 42.2204961,10.1775298 41.768216,9.63939972 L41.768216,13.7254902 L40.4901961,13.7254902 Z M41.768216,7.32015331 C41.768216,8.41068568 42.5536071,9.30789345 43.578275,9.30789345 C44.6032557,9.30789345 45.3886468,8.41068568 45.3886468,7.32015331 C45.3886468,6.22962095 44.6032557,5.33241318 43.578275,5.33241318 C42.5536071,5.33241318 41.768216,6.22962095 41.768216,7.32015331 Z M48.382185,10.2941176 L48.382185,3.88900088 L49.754734,3.88900088 L49.754734,10.2941176 L48.382185,10.2941176 Z M48.0392157,1.71566228 C48.0392157,1.14385484 48.496732,0.68627451 49.0684595,0.68627451 C49.6405229,0.68627451 50.0980392,1.14385484 50.0980392,1.71566228 C50.0980392,2.28746971 49.6405229,2.74505004 49.0684595,2.74505004 C48.496732,2.74505004 48.0392157,2.28746971 48.0392157,1.71566228 Z M51.4705882,10.2941176 L54.1860617,5.33091128 L51.6794944,5.33091128 L51.6794944,4.11764706 L56.2745098,4.11764706 L53.5332682,9.08085343 L56.0656036,9.08085343 L56.0656036,10.2941176 L51.4705882,10.2941176 Z M57.6470588,10.2941176 L60.3625322,5.33091128 L57.855965,5.33091128 L57.855965,4.11764706 L62.4509804,4.11764706 L59.7097388,9.08085343 L62.2420742,9.08085343 L62.2420742,10.2941176 L57.6470588,10.2941176 Z M68.6825206,10.187767 L68.6825206,9.41547357 C68.2977586,9.85495201 67.7075537,10.2941176 66.7745138,10.2941176 C65.4705802,10.2941176 64.5098039,9.4689617 64.5098039,8.2844031 C64.5098039,6.54025238 66.678404,5.84803475 68.6412386,6.70009116 C68.5999565,5.99473609 68.2842129,5.28906823 67.2547407,5.28906823 C66.7196861,5.28906823 66.1978546,5.448907 65.8272833,5.67505854 L65.2783604,4.75668937 C65.6763456,4.46391227 66.4039425,4.11764706 67.309891,4.11764706 C68.9292457,4.11764706 70,4.99629113 70,7.39230879 L70,10.187767 L68.6825206,10.187767 Z M65.8272833,8.32412819 C65.8272833,8.79019429 66.2526824,9.12300928 66.8977151,9.12300928 C67.7214219,9.12300928 68.5725426,8.52369207 68.6825206,7.75171144 C67.694008,7.25937048 65.8272833,7.32568324 65.8272833,8.32412819 Z" id="path-1"></path>
        <path d="M0,0.0437500626 L0,10.5437501 L10.5,10.5437501 C10.5,4.74502861 5.79937314,0.0437500626 0,0.0437500626" id="path-3"></path>
        <path d="M15.5890902,12.5907506 C12.6446832,15.5345017 7.85424094,15.5345017 4.90983396,12.5907506 C1.96542699,9.64699945 1.96542699,4.85529455 4.90983396,1.9115434 L2.99828179,0 C-0.999534311,3.99844008 -0.999534311,10.5032116 2.99892411,14.5016517 C6.99674022,18.4994494 13.5015416,18.4994494 17.5,14.5016517 L15.5890902,12.5907506 Z" id="path-5"></path>
    </defs>
    <g id="logo-onlinepizza-vertical" stroke="none" stroke-width="1" fill="none" fill-rule="evenodd">
        <g id="-g-logo-onlinepizza-vertical" transform="translate(5.000000, 19.937500)">
            <g id="onlinepizza" transform="translate(0.000000, 25.375000)">
                <mask id="mask-2" fill="white">
                    <use xlink:href="#path-1"></use>
                </mask>
                <use fill="#858585" xlink:href="#path-1"></use>
                <g id="grayscale/$color-white" mask="url(#mask-2)" fill="#FFFFFF">
                    <g transform="translate(0.000000, -3.062500)" id="bg">
                        <rect x="0" y="0" width="70" height="21"></rect>
                    </g>
                </g>
            </g>
            <g id="triangle" transform="translate(34.562500, 0.000000)">
                <mask id="mask-4" fill="white">
                    <use xlink:href="#path-3"></use>
                </mask>
                <use fill="#858585" xlink:href="#path-3"></use>
                <g id="onlinepizza/$color-brand-secondary" mask="url(#mask-4)" fill="#272CC0">
                    <g transform="translate(-1.750000, -1.750000)" id="bg">
                        <rect x="0" y="0" width="14" height="14"></rect>
                    </g>
                </g>
            </g>
            <g id="circle" transform="translate(24.937500, 2.625000)">
                <mask id="mask-6" fill="white">
                    <use xlink:href="#path-5"></use>
                </mask>
                <use fill="#858585" xlink:href="#path-5"></use>
                <g id="grayscale/$color-white" mask="url(#mask-6)" fill="#FFFFFF">
                    <g transform="translate(-24.937500, -1.750000)" id="bg">
                        <rect x="0" y="0" width="70" height="21"></rect>
                    </g>
                </g>
            </g>
        </g>
    </g>
</svg>